<svg xmlns="http://www.w3.org/2000/svg" xmlns:xlink="http://www.w3.org/1999/xlink" width="500" zoomAndPan="magnify" viewBox="0 0 375 374.999991" height="500" preserveAspectRatio="xMidYMid meet" version="1.0"><defs><filter x="0%" y="0%" width="100%" height="100%" id="71f9c8f9ae"><feColorMatrix values="0 0 0 0 1 0 0 0 0 1 0 0 0 0 1 0 0 0 1 0" color-interpolation-filters="sRGB"/></filter><mask id="ceb9cdb875"><g filter="url(#71f9c8f9ae)"><rect x="-37.5" width="450" fill="#000000" y="-37.499999" height="449.999989" fill-opacity="0.2"/></g></mask><clipPath id="b15fe88f47"><path d="M 0 0.117188 L 93.609375 0.117188 L 93.609375 369 L 0 369 Z M 0 0.117188 " clip-rule="nonzero"/></clipPath><clipPath id="076093735f"><rect x="0" width="94" y="0" height="369"/></clipPath><clipPath id="22013653ee"><path d="M 0 0 L 90.179688 0 L 90.179688 369 L 0 369 Z M 0 0 " clip-rule="nonzero"/></clipPath></defs><g mask="url(#ceb9cdb875)"><g transform="matrix(1, 0, 0, 1, 0, 6)"><g clip-path="url(#076093735f)"><g clip-path="url(#b15fe88f47)"><path fill="#4c5454" d="M -4.125 368.960938 C -4.757812 368.960938 -5.394531 368.957031 -6.027344 368.957031 C -8.796875 368.960938 -11.5625 368.960938 -14.332031 368.964844 C -16.9375 368.988281 -19.480469 368.425781 -21.996094 367.886719 C -28.144531 366.5625 -34.21875 364.933594 -40.148438 362.828125 C -44.136719 361.410156 -48.042969 359.789062 -51.921875 358.097656 C -60.695312 354.273438 -69.242188 349.9375 -78.148438 346.402344 C -83.855469 344.136719 -89.722656 342.421875 -95.820312 341.535156 C -98.746094 341.105469 -101.667969 340.742188 -104.625 340.550781 C -106.363281 340.441406 -108.105469 340.230469 -109.84375 340.34375 C -113.101562 340.546875 -116.363281 340.769531 -119.613281 341.152344 C -123.390625 341.59375 -127.132812 342.1875 -130.871094 342.835938 C -133.941406 343.371094 -136.972656 344.089844 -139.984375 344.863281 C -145.511719 346.285156 -150.976562 347.949219 -156.347656 349.886719 C -162.667969 352.167969 -169.066406 354.15625 -175.621094 355.652344 C -179.121094 356.449219 -182.660156 356.917969 -186.246094 357.234375 C -190.746094 357.632812 -195.238281 357.554688 -199.730469 357.464844 C -205.703125 357.347656 -211.445312 356.042969 -216.898438 353.535156 C -219.160156 352.496094 -221.351562 351.335938 -223.527344 350.128906 C -225.625 348.960938 -227.429688 347.410156 -229.25 345.886719 C -231.03125 344.390625 -232.742188 342.808594 -234.386719 341.15625 C -237.964844 337.574219 -240.882812 333.492188 -243.453125 329.167969 C -247.527344 322.3125 -250.578125 314.992188 -252.902344 307.378906 C -254.046875 303.644531 -254.769531 299.804688 -255.136719 295.898438 C -255.261719 294.582031 -255.375 293.269531 -255.414062 291.949219 C -255.242188 289.941406 -255.550781 287.957031 -255.710938 285.964844 C -255.894531 283.695312 -255.171875 281.464844 -255.417969 279.191406 C -255.269531 276.019531 -254.699219 272.902344 -254.113281 269.789062 C -253.398438 266 -252.628906 262.222656 -251.457031 258.535156 C -250.347656 255.050781 -249.027344 251.648438 -247.554688 248.3125 C -246.140625 245.113281 -244.703125 241.921875 -243.117188 238.8125 C -239.894531 232.492188 -236.480469 226.269531 -232.910156 220.136719 C -229.65625 214.554688 -226.5625 208.886719 -223.3125 203.304688 C -220.460938 198.398438 -217.804688 193.390625 -215.378906 188.269531 C -212.269531 181.707031 -209.53125 175.003906 -207.878906 167.902344 C -207.03125 164.246094 -206.421875 160.5625 -206.027344 156.824219 C -205.726562 154.011719 -205.6875 151.207031 -205.851562 148.417969 C -206.027344 145.421875 -206.175781 142.414062 -206.640625 139.429688 C -207.113281 136.40625 -207.328125 133.34375 -207.707031 130.308594 C -208.035156 127.636719 -208.425781 124.976562 -208.808594 122.3125 C -209.273438 119.070312 -209.761719 115.835938 -210.230469 112.601562 C -210.628906 109.835938 -211.042969 107.066406 -211.40625 104.296875 C -211.679688 102.203125 -211.992188 100.105469 -212.09375 98 C -212.316406 93.457031 -212.84375 88.925781 -212.734375 84.375 C -212.507812 74.683594 -211 65.230469 -207.230469 56.222656 C -205.242188 51.472656 -202.769531 46.976562 -200.050781 42.605469 C -197.558594 38.597656 -194.722656 34.863281 -191.476562 31.414062 C -187.324219 27.003906 -182.6875 23.203125 -177.808594 19.640625 C -170.941406 14.625 -163.296875 11.140625 -155.425781 8.125 C -149.351562 5.796875 -143.191406 3.683594 -136.835938 2.242188 C -133.800781 1.554688 -130.742188 1.011719 -127.632812 0.710938 C -123.785156 0.339844 -119.941406 0.121094 -116.078125 0.125 C -112.902344 0.128906 -109.75 0.449219 -106.59375 0.6875 C -103.847656 0.890625 -101.140625 1.304688 -98.429688 1.707031 C -95.226562 2.183594 -92.132812 3.070312 -89.082031 4.125 C -84.769531 5.617188 -80.648438 7.554688 -76.628906 9.707031 C -73.085938 11.609375 -69.617188 13.644531 -66.074219 15.550781 C -62.765625 17.335938 -59.339844 18.894531 -55.953125 20.53125 C -50.402344 23.207031 -44.589844 25.125 -38.707031 26.894531 C -34.140625 28.265625 -29.449219 29.03125 -24.789062 29.929688 C -22.691406 30.332031 -20.503906 30.660156 -18.332031 30.113281 C -17.929688 30.011719 -17.484375 30.066406 -17.0625 30.066406 C -14.304688 30.054688 -11.550781 30.0625 -8.792969 30.042969 C -5.089844 30.015625 -1.40625 30.34375 2.285156 30.601562 C 5.132812 30.796875 7.972656 31.050781 10.800781 31.378906 C 14.730469 31.835938 18.601562 32.695312 22.421875 33.757812 C 27.167969 35.085938 31.835938 36.664062 36.253906 38.847656 C 41.285156 41.328125 46.214844 44.035156 50.644531 47.519531 C 55.828125 51.601562 59.53125 56.800781 62.113281 62.867188 C 63.679688 66.542969 64.917969 70.304688 65.425781 74.253906 C 65.902344 77.976562 65.96875 81.714844 65.625 85.488281 C 65.046875 91.902344 62.898438 97.851562 60.640625 103.789062 C 58.15625 110.328125 56.175781 117.019531 54.828125 123.878906 C 54.34375 126.351562 54.011719 128.882812 54.050781 131.4375 C 54.097656 134.457031 53.996094 137.484375 54.101562 140.503906 C 54.191406 143.085938 54.570312 145.652344 54.894531 148.21875 C 55.335938 151.679688 55.9375 155.105469 56.609375 158.523438 C 57.472656 162.9375 58.421875 167.335938 59.964844 171.5625 C 61.941406 176.976562 64.0625 182.34375 66.171875 187.707031 C 67.027344 189.875 67.976562 192.007812 68.972656 194.109375 C 70.835938 198.035156 72.757812 201.929688 74.679688 205.828125 C 76.90625 210.339844 79.207031 214.816406 81.386719 219.351562 C 84.15625 225.125 86.972656 230.882812 88.9375 237.007812 C 90.613281 242.246094 92.046875 247.554688 92.800781 253.007812 C 93.285156 256.511719 93.628906 260.046875 93.542969 263.601562 C 93.542969 266.15625 93.542969 268.710938 93.539062 271.261719 C 93.351562 280.996094 90.503906 289.957031 85.730469 298.386719 C 82.867188 303.4375 79.265625 307.898438 75.386719 312.183594 C 71.800781 316.148438 68.214844 320.117188 64.308594 323.765625 C 61.324219 326.546875 58.390625 329.378906 55.589844 332.335938 C 51.953125 336.179688 48.398438 340.09375 44.652344 343.835938 C 41.089844 347.386719 37.273438 350.640625 33.273438 353.6875 C 29.230469 356.773438 25.042969 359.636719 20.527344 361.980469 C 14.390625 365.164062 7.941406 367.4375 1.050781 368.363281 C -0.671875 368.597656 -2.390625 368.835938 -4.125 368.960938 Z M -4.125 368.960938 " fill-opacity="1" fill-rule="nonzero"/></g></g></g></g><g clip-path="url(#22013653ee)"><path fill="#ffffff" d="M -7.558594 368.847656 C -8.191406 368.84375 -8.828125 368.84375 -9.460938 368.84375 C -12.226562 368.84375 -14.992188 368.847656 -17.761719 368.851562 C -20.371094 368.875 -22.910156 368.3125 -25.429688 367.769531 C -31.574219 366.449219 -37.648438 364.816406 -43.578125 362.710938 C -47.566406 361.296875 -51.472656 359.675781 -55.351562 357.984375 C -64.125 354.15625 -72.675781 349.820312 -81.578125 346.289062 C -87.289062 344.023438 -93.152344 342.308594 -99.253906 341.417969 C -102.179688 340.992188 -105.101562 340.628906 -108.054688 340.4375 C -109.796875 340.328125 -111.535156 340.117188 -113.273438 340.226562 C -116.535156 340.433594 -119.792969 340.652344 -123.046875 341.035156 C -126.820312 341.476562 -130.5625 342.074219 -134.300781 342.722656 C -137.371094 343.257812 -140.40625 343.976562 -143.414062 344.75 C -148.941406 346.171875 -154.410156 347.835938 -159.777344 349.769531 C -166.097656 352.050781 -172.5 354.039062 -179.050781 355.535156 C -182.554688 356.335938 -186.09375 356.804688 -189.675781 357.117188 C -194.175781 357.519531 -198.671875 357.4375 -203.164062 357.351562 C -209.136719 357.234375 -214.878906 355.929688 -220.332031 353.417969 C -222.59375 352.378906 -224.78125 351.21875 -226.957031 350.011719 C -229.058594 348.847656 -230.863281 347.296875 -232.679688 345.769531 C -234.464844 344.277344 -236.171875 342.695312 -237.820312 341.042969 C -241.398438 337.460938 -244.3125 333.375 -246.886719 329.050781 C -250.960938 322.199219 -254.007812 314.875 -256.335938 307.261719 C -257.476562 303.527344 -258.203125 299.691406 -258.566406 295.78125 C -258.691406 294.464844 -258.808594 293.152344 -258.847656 291.832031 C -258.671875 289.828125 -258.980469 287.84375 -259.140625 285.851562 C -259.324219 283.578125 -258.605469 281.347656 -258.847656 279.078125 C -258.703125 275.902344 -258.128906 272.785156 -257.542969 269.671875 C -256.828125 265.882812 -256.0625 262.105469 -254.886719 258.417969 C -253.777344 254.933594 -252.460938 251.535156 -250.984375 248.195312 C -249.574219 245 -248.136719 241.808594 -246.546875 238.695312 C -243.324219 232.375 -239.914062 226.152344 -236.339844 220.019531 C -233.089844 214.441406 -229.992188 208.769531 -226.746094 203.1875 C -223.890625 198.285156 -221.238281 193.277344 -218.808594 188.152344 C -215.703125 181.59375 -212.960938 174.890625 -211.3125 167.785156 C -210.460938 164.132812 -209.855469 160.445312 -209.457031 156.707031 C -209.15625 153.898438 -209.121094 151.089844 -209.285156 148.300781 C -209.457031 145.304688 -209.605469 142.296875 -210.074219 139.3125 C -210.546875 136.292969 -210.757812 133.230469 -211.136719 130.191406 C -211.46875 127.523438 -211.859375 124.859375 -212.242188 122.195312 C -212.703125 118.957031 -213.191406 115.722656 -213.660156 112.484375 C -214.0625 109.71875 -214.476562 106.953125 -214.835938 104.179688 C -215.113281 102.085938 -215.421875 99.988281 -215.523438 97.886719 C -215.746094 93.34375 -216.273438 88.808594 -216.167969 84.257812 C -215.9375 74.566406 -214.429688 65.117188 -210.664062 56.109375 C -208.675781 51.355469 -206.203125 46.859375 -203.484375 42.492188 C -200.988281 38.484375 -198.152344 34.746094 -194.910156 31.300781 C -190.757812 26.890625 -186.117188 23.085938 -181.238281 19.527344 C -174.371094 14.511719 -166.726562 11.023438 -158.855469 8.011719 C -152.785156 5.683594 -146.625 3.570312 -140.265625 2.128906 C -137.230469 1.441406 -134.175781 0.894531 -131.0625 0.597656 C -127.21875 0.222656 -123.371094 0.00390625 -119.511719 0.0117188 C -116.332031 0.015625 -113.183594 0.335938 -110.023438 0.570312 C -107.277344 0.777344 -104.574219 1.191406 -101.859375 1.59375 C -98.660156 2.066406 -95.5625 2.957031 -92.515625 4.007812 C -88.199219 5.5 -84.078125 7.4375 -80.0625 9.589844 C -76.515625 11.492188 -73.046875 13.53125 -69.503906 15.4375 C -66.195312 17.222656 -62.769531 18.78125 -59.382812 20.414062 C -53.832031 23.089844 -48.019531 25.011719 -42.136719 26.78125 C -37.570312 28.152344 -32.878906 28.917969 -28.21875 29.8125 C -26.121094 30.214844 -23.9375 30.546875 -21.761719 30 C -21.359375 29.898438 -20.917969 29.953125 -20.496094 29.949219 C -17.738281 29.941406 -14.980469 29.949219 -12.226562 29.925781 C -8.519531 29.902344 -4.839844 30.226562 -1.148438 30.484375 C 1.699219 30.683594 4.542969 30.9375 7.367188 31.265625 C 11.300781 31.722656 15.167969 32.578125 18.988281 33.644531 C 23.738281 34.96875 28.40625 36.550781 32.820312 38.730469 C 37.855469 41.214844 42.78125 43.921875 47.214844 47.40625 C 52.398438 51.484375 56.101562 56.6875 58.683594 62.753906 C 60.25 66.429688 61.488281 70.1875 61.992188 74.136719 C 62.472656 77.863281 62.535156 81.601562 62.195312 85.371094 C 61.613281 91.789062 59.464844 97.738281 57.210938 103.671875 C 54.726562 110.210938 52.746094 116.902344 51.398438 123.761719 C 50.914062 126.234375 50.578125 128.765625 50.621094 131.320312 C 50.667969 134.34375 50.566406 137.367188 50.671875 140.390625 C 50.757812 142.972656 51.136719 145.535156 51.464844 148.105469 C 51.902344 151.5625 52.507812 154.992188 53.175781 158.410156 C 54.039062 162.820312 54.992188 167.21875 56.535156 171.445312 C 58.511719 176.863281 60.628906 182.226562 62.742188 187.59375 C 63.597656 189.757812 64.542969 191.890625 65.542969 193.992188 C 67.40625 197.917969 69.328125 201.816406 71.25 205.710938 C 73.472656 210.226562 75.777344 214.703125 77.953125 219.238281 C 80.726562 225.011719 83.542969 230.769531 85.503906 236.890625 C 87.183594 242.128906 88.617188 247.441406 89.371094 252.894531 C 89.855469 256.398438 90.195312 259.929688 90.109375 263.484375 C 90.109375 266.039062 90.109375 268.59375 90.109375 271.144531 C 89.917969 280.882812 87.070312 289.84375 82.296875 298.269531 C 79.4375 303.320312 75.835938 307.785156 71.957031 312.070312 C 68.367188 316.03125 64.785156 320.003906 60.875 323.648438 C 57.894531 326.433594 54.957031 329.261719 52.160156 332.21875 C 48.523438 336.0625 44.964844 339.980469 41.21875 343.71875 C 37.65625 347.273438 33.84375 350.523438 29.84375 353.574219 C 25.796875 356.660156 21.609375 359.523438 17.097656 361.863281 C 10.960938 365.046875 4.511719 367.320312 -2.378906 368.246094 C -4.101562 368.480469 -5.824219 368.71875 -7.558594 368.847656 Z M -7.558594 368.847656 " fill-opacity="1" fill-rule="nonzero"/></g></svg>