<svg xmlns="http://www.w3.org/2000/svg" xmlns:xlink="http://www.w3.org/1999/xlink" width="500" zoomAndPan="magnify" viewBox="0 0 375 374.999991" height="500" preserveAspectRatio="xMidYMid meet" version="1.0"><defs><clipPath id="cc2c3ee988"><path d="M 208 4.285156 L 233 4.285156 L 233 29 L 208 29 Z M 208 4.285156 " clip-rule="nonzero"/></clipPath><clipPath id="a5d7564cb7"><path d="M 289 266 L 338.078125 266 L 338.078125 313 L 289 313 Z M 289 266 " clip-rule="nonzero"/></clipPath></defs><path fill="#ff715b" d="M 56.453125 122.566406 C 55.675781 126.433594 54.738281 130.277344 54.164062 134.175781 C 53.488281 138.789062 52.90625 143.441406 52.679688 148.09375 C 52.332031 155.167969 52.175781 162.257812 52.226562 169.335938 C 52.273438 175.777344 53.058594 182.179688 54.148438 188.535156 C 54.167969 188.644531 54.140625 188.757812 54.136719 188.867188 C 51.066406 187.046875 49.292969 184.226562 48.125 180.976562 C 46.410156 176.210938 46.066406 171.214844 45.675781 166.226562 C 45.605469 165.324219 45.480469 164.429688 45.378906 163.53125 C 45.394531 162.742188 45.390625 161.953125 45.425781 161.167969 C 45.644531 156.105469 45.835938 151.039062 46.113281 145.980469 C 46.207031 144.265625 46.511719 142.558594 46.71875 140.847656 C 47.535156 136.769531 48.03125 132.609375 49.90625 128.804688 C 51.117188 126.355469 52.726562 124.296875 55.203125 123.027344 C 55.597656 122.824219 56.035156 122.714844 56.453125 122.566406 Z M 56.453125 122.566406 " fill-opacity="1" fill-rule="nonzero"/><path fill="#ff715b" d="M 299.550781 161.988281 C 298.699219 154.964844 298.105469 147.898438 296.914062 140.933594 C 295.945312 135.273438 294.363281 129.707031 292.871094 124.152344 C 291.003906 117.210938 288.714844 110.402344 285.734375 103.84375 C 284.816406 101.828125 283.910156 99.808594 283 97.792969 C 284.945312 97.75 286.5625 98.617188 288.023438 99.753906 C 291.296875 102.308594 293.136719 105.871094 294.753906 109.574219 C 295.441406 111.148438 296.132812 112.722656 296.820312 114.296875 C 296.921875 114.734375 296.972656 115.1875 297.132812 115.601562 C 299.910156 122.878906 301.695312 130.414062 302.964844 138.082031 C 303.117188 139.496094 303.351562 140.90625 303.414062 142.324219 C 303.574219 145.847656 303.910156 149.386719 303.695312 152.894531 C 303.488281 156.347656 302.144531 159.507812 299.550781 161.988281 Z M 299.550781 161.988281 " fill-opacity="1" fill-rule="nonzero"/><path fill="#77c5bf" d="M 287.988281 185.167969 C 288.207031 191.941406 288.410156 198.71875 288.667969 205.488281 C 288.707031 206.589844 288.3125 207.171875 287.332031 207.671875 C 279.679688 211.554688 271.648438 214.425781 263.441406 216.851562 C 262.832031 217.03125 262.207031 217.152344 261.589844 217.304688 C 260.796875 213.277344 260.085938 209.230469 259.195312 205.226562 C 256.332031 192.398438 252.015625 180.101562 245.703125 168.539062 C 244.71875 166.734375 243.316406 165.46875 241.421875 164.707031 C 238.613281 163.578125 235.6875 163.484375 232.738281 163.777344 C 228.128906 164.234375 223.523438 164.761719 218.914062 165.261719 C 212.585938 165.949219 206.253906 166.632812 199.929688 167.332031 C 191.277344 168.28125 182.632812 169.253906 173.980469 170.203125 C 166.117188 171.066406 158.25 171.90625 150.386719 172.761719 C 141.511719 173.730469 132.632812 174.691406 123.761719 175.679688 C 120.6875 176.019531 117.632812 176.46875 114.804688 177.859375 C 112.519531 178.984375 110.859375 180.679688 110.214844 183.15625 C 109.210938 187.019531 108.203125 190.886719 107.4375 194.800781 C 106.027344 201.992188 105.328125 209.277344 105.289062 216.597656 C 105.257812 222.703125 105.480469 228.808594 105.585938 234.914062 C 101.917969 234.625 98.234375 234.453125 94.585938 234.011719 C 90.042969 233.460938 85.519531 232.726562 81.003906 231.992188 C 79.265625 231.707031 77.566406 231.203125 75.847656 230.804688 C 74.957031 230.597656 74.492188 230.144531 74.304688 229.152344 C 73.363281 224.210938 72.304688 219.292969 71.328125 214.355469 C 70.988281 212.628906 70.769531 210.875 70.496094 209.136719 C 70.1875 206.898438 69.875 204.660156 69.570312 202.421875 C 68.363281 193.640625 67.671875 184.8125 67.410156 175.960938 C 67.003906 162.152344 67.335938 148.363281 68.945312 134.628906 C 69.679688 128.347656 70.597656 122.085938 71.523438 115.832031 C 71.992188 112.667969 72.65625 109.535156 73.230469 106.386719 C 74.054688 102.839844 74.839844 99.28125 75.710938 95.742188 C 76.589844 92.167969 77.566406 88.613281 78.480469 85.046875 C 78.65625 84.347656 79.027344 83.949219 79.742188 83.796875 C 86.636719 82.300781 93.515625 80.707031 100.433594 79.316406 C 105.402344 78.320312 110.421875 77.597656 115.417969 76.730469 C 115.800781 76.664062 116.15625 76.433594 116.523438 76.277344 C 116.882812 76.316406 117.25 76.429688 117.59375 76.386719 C 118.859375 76.222656 120.121094 76.023438 121.378906 75.8125 C 123.550781 75.449219 125.722656 75.066406 127.894531 74.691406 C 130.09375 74.433594 132.296875 74.195312 134.492188 73.914062 C 138.253906 73.4375 142.015625 72.917969 145.777344 72.441406 C 150.398438 71.851562 155.019531 71.253906 159.644531 70.710938 C 162.816406 70.335938 166 70.046875 169.175781 69.71875 C 173.066406 69.316406 176.953125 68.894531 180.84375 68.511719 C 184.546875 68.144531 188.253906 67.792969 191.960938 67.484375 C 197.46875 67.027344 202.980469 66.597656 208.492188 66.183594 C 211.230469 65.980469 213.972656 65.832031 216.714844 65.667969 C 218.292969 65.574219 219.871094 65.496094 221.449219 65.410156 C 224.550781 65.261719 227.652344 65.117188 230.753906 64.96875 C 235.125 64.90625 239.492188 64.8125 243.863281 64.792969 C 246.347656 64.78125 248.832031 64.941406 251.316406 64.914062 C 252.449219 64.902344 253.09375 65.28125 253.59375 66.3125 C 256.578125 72.441406 259.621094 78.542969 262.644531 84.652344 C 262.792969 84.953125 262.941406 85.257812 263.089844 85.5625 C 263.457031 86.425781 263.820312 87.289062 264.199219 88.152344 C 271.5625 105.039062 277.390625 122.441406 281.378906 140.425781 C 283.144531 148.390625 284.636719 156.433594 285.839844 164.503906 C 286.863281 171.34375 287.296875 178.277344 287.988281 185.167969 Z M 82.9375 136.414062 C 83.253906 138.871094 83.449219 141.355469 83.914062 143.785156 C 86.527344 157.5 98.832031 168.058594 112.789062 168.359375 C 116.644531 168.445312 120.523438 167.890625 124.382812 167.496094 C 133 166.613281 141.613281 165.65625 150.226562 164.707031 C 160.113281 163.621094 169.996094 162.5 179.882812 161.410156 C 187.859375 160.535156 195.839844 159.691406 203.816406 158.820312 C 213.253906 157.789062 222.683594 156.695312 232.128906 155.722656 C 241.125 154.796875 248.65625 151.066406 254.214844 143.910156 C 262.179688 133.652344 262.636719 122.238281 257.941406 110.652344 C 252.699219 97.714844 239 90.519531 224.925781 92.417969 C 217.125 93.46875 209.285156 94.207031 201.460938 95.066406 C 194.945312 95.785156 188.425781 96.46875 181.910156 97.1875 C 174.011719 98.054688 166.113281 98.945312 158.214844 99.8125 C 150.949219 100.609375 143.683594 101.378906 136.417969 102.179688 C 127.847656 103.121094 119.269531 104.058594 110.703125 105.039062 C 103.824219 105.824219 97.773438 108.503906 92.734375 113.269531 C 86.117188 119.53125 83.152344 127.355469 82.9375 136.414062 Z M 246.886719 69.480469 C 244 69.488281 241.601562 71.867188 241.605469 74.71875 C 241.613281 77.246094 243.75 79.375 246.3125 79.40625 C 249.007812 79.4375 251.410156 77.007812 251.421875 74.242188 C 251.433594 71.550781 249.453125 69.472656 246.886719 69.480469 Z M 88.355469 88.472656 C 85.40625 88.472656 83.019531 90.769531 83.003906 93.621094 C 82.992188 96.191406 85.160156 98.351562 87.769531 98.367188 C 90.449219 98.386719 92.816406 95.949219 92.828125 93.160156 C 92.84375 90.507812 90.898438 88.472656 88.355469 88.472656 Z M 79.527344 221.695312 C 79.519531 224.335938 81.515625 226.339844 84.15625 226.359375 C 86.984375 226.378906 89.285156 224.042969 89.28125 221.15625 C 89.28125 218.570312 87.25 216.449219 84.777344 216.453125 C 81.878906 216.460938 79.53125 218.804688 79.527344 221.695312 Z M 279.15625 207.613281 C 281.957031 207.613281 284.203125 205.367188 284.261719 202.503906 C 284.316406 199.855469 282.3125 197.78125 279.703125 197.785156 C 276.832031 197.789062 274.449219 200.097656 274.429688 202.886719 C 274.414062 205.523438 276.5 207.609375 279.15625 207.613281 Z M 279.15625 207.613281 " fill-opacity="1" fill-rule="nonzero"/><path fill="#77c5bf" d="M 119.171875 319.570312 C 119.398438 324.664062 119.628906 329.757812 119.855469 334.847656 C 119.871094 335.1875 119.871094 335.523438 119.882812 335.863281 C 116.757812 335.050781 113.613281 334.308594 110.515625 333.40625 C 108.535156 332.832031 106.625 332.007812 104.679688 331.308594 C 104.09375 331.101562 103.785156 330.792969 103.738281 330.097656 C 103.394531 325.335938 102.898438 320.582031 102.648438 315.8125 C 102.394531 311 102.3125 306.179688 102.253906 301.359375 C 102.214844 298.347656 102.355469 295.335938 102.417969 292.320312 C 102.632812 289.628906 102.785156 286.925781 103.082031 284.242188 C 103.832031 277.441406 104.371094 270.605469 105.503906 263.871094 C 106.828125 255.984375 108.695312 248.1875 110.324219 240.355469 C 110.753906 238.734375 111.183594 237.113281 111.652344 235.347656 C 109.898438 235.1875 108.273438 235.035156 106.648438 234.882812 C 106.597656 234.667969 106.511719 234.453125 106.503906 234.234375 C 106.011719 223.183594 105.84375 212.125 107.464844 201.15625 C 108.3125 195.429688 109.679688 189.777344 110.890625 184.109375 C 111.4375 181.546875 113.023438 179.652344 115.449219 178.714844 C 117.398438 177.960938 119.46875 177.5 121.511719 177.011719 C 122.578125 176.757812 123.695312 176.726562 124.917969 176.582031 C 122.3125 186.253906 120.359375 195.835938 119.117188 205.566406 C 117.878906 215.289062 117.394531 225.050781 117.542969 234.753906 C 116.351562 235.21875 115.144531 234.324219 113.949219 235.4375 C 114.566406 235.625 114.925781 235.8125 115.296875 235.832031 C 116.726562 235.917969 118.15625 235.972656 119.589844 236 C 135.957031 236.277344 152.308594 236.035156 168.640625 234.765625 C 180.558594 233.84375 192.425781 232.539062 204.242188 230.773438 C 218.140625 228.699219 231.921875 225.996094 245.585938 222.703125 C 247.414062 222.265625 249.25 221.84375 251.0625 221.34375 C 251.503906 221.222656 251.867188 220.824219 252.265625 220.550781 C 251.800781 220.492188 251.335938 220.410156 250.867188 220.378906 C 250.617188 220.363281 250.359375 220.4375 250.003906 220.488281 C 246.058594 201.074219 239.453125 182.644531 230.121094 165.039062 C 233.046875 164.632812 235.773438 164.464844 238.519531 164.871094 C 241.710938 165.339844 243.824219 167.039062 245.34375 169.949219 C 250.367188 179.550781 254.222656 189.585938 256.847656 200.078125 C 258.300781 205.878906 259.359375 211.78125 260.59375 217.632812 C 258.230469 218.332031 255.863281 219.03125 253.546875 219.714844 C 255.558594 226.613281 257.5625 233.480469 259.566406 240.351562 C 260.183594 242.914062 260.917969 245.453125 261.394531 248.039062 C 262.832031 255.8125 264.390625 263.574219 265.480469 271.394531 C 266.414062 278.101562 266.769531 284.890625 267.382812 291.640625 C 267.453125 297.476562 267.617188 303.3125 267.558594 309.144531 C 267.515625 313.242188 267.164062 317.332031 266.957031 321.425781 C 266.933594 321.871094 266.941406 322.324219 266.9375 322.773438 C 266.9375 322.773438 266.945312 322.746094 266.945312 322.746094 C 266.867188 322.820312 266.785156 322.898438 266.707031 322.976562 C 264.464844 324.324219 262.222656 325.671875 259.984375 327.027344 C 259.644531 327.234375 259.328125 327.484375 259 327.710938 C 258.394531 328.007812 257.792969 328.304688 257.1875 328.601562 C 256.761719 328.675781 256.316406 328.683594 255.917969 328.832031 C 254.296875 329.421875 252.695312 330.054688 250.941406 330.730469 C 250.941406 328.519531 250.957031 326.472656 250.941406 324.425781 C 250.890625 318.054688 250.882812 311.6875 250.753906 305.320312 C 250.652344 300.496094 250.441406 295.675781 250.1875 290.859375 C 249.851562 284.503906 249.511719 278.144531 249.011719 271.800781 C 248.765625 268.660156 247.925781 265.625 245.777344 263.15625 C 243.464844 260.492188 240.332031 259.386719 236.996094 258.96875 C 228.328125 257.878906 219.652344 256.871094 210.96875 255.953125 C 201.175781 254.921875 191.335938 254.589844 181.503906 254.9375 C 171.832031 255.277344 162.167969 255.898438 152.519531 256.652344 C 145.773438 257.183594 139.046875 258.070312 132.328125 258.941406 C 128.597656 259.425781 125.117188 260.609375 122.742188 263.839844 C 121.152344 266 120.34375 268.5 120.152344 271.097656 C 119.710938 277.070312 119.484375 283.054688 119.171875 289.035156 C 119.132812 289.40625 119.0625 289.773438 119.058594 290.144531 C 119.039062 298.792969 119.019531 307.441406 119.019531 316.089844 C 119.019531 317.25 119.117188 318.410156 119.171875 319.570312 Z M 119.171875 319.570312 " fill-opacity="1" fill-rule="nonzero"/><path fill="#77c5bf" d="M 194.519531 341.699219 C 196.121094 333.992188 200.394531 328.320312 207.578125 325.046875 C 221.019531 318.917969 236.738281 327.222656 239.238281 341.820312 C 240.519531 349.296875 238.441406 355.90625 233.289062 361.515625 C 233.042969 361.785156 232.9375 362.179688 232.761719 362.519531 C 232.273438 362.777344 231.722656 362.957031 231.304688 363.304688 C 222.363281 370.703125 209.195312 370.113281 200.960938 361.941406 C 196.886719 357.898438 194.59375 353.035156 194.285156 347.308594 C 194.1875 345.449219 194.433594 343.570312 194.519531 341.699219 Z M 194.519531 341.699219 " fill-opacity="1" fill-rule="nonzero"/><g clip-path="url(#cc2c3ee988)"><path fill="#77c5bf" d="M 217.554688 27.855469 C 216.003906 26.953125 214.316406 26.21875 212.925781 25.113281 C 209.25 22.1875 207.882812 16.84375 209.492188 12.441406 C 211.214844 7.730469 215.515625 4.707031 220.253906 4.496094 C 225.078125 4.285156 230.238281 7.699219 231.847656 12.722656 C 233.359375 17.449219 231.648438 22.699219 227.46875 25.863281 C 227.144531 26.105469 226.894531 26.445312 226.609375 26.738281 C 226.289062 26.800781 225.941406 26.804688 225.652344 26.9375 C 223.246094 28.03125 220.761719 28.347656 218.167969 27.804688 C 217.976562 27.765625 217.757812 27.835938 217.554688 27.855469 Z M 217.554688 27.855469 " fill-opacity="1" fill-rule="nonzero"/></g><path fill="#77c5bf" d="M 85.222656 61.109375 C 84.152344 61.625 83.097656 62.191406 82.003906 62.652344 C 74.882812 65.625 66.847656 60.757812 65.941406 53.078125 C 65.164062 46.480469 70.320312 40.574219 76.53125 40.019531 C 83.335938 39.414062 89.648438 44.953125 89.332031 52.035156 C 89.316406 52.332031 89.316406 52.636719 89.3125 52.9375 C 89.070312 55.769531 87.859375 58.136719 85.894531 60.15625 C 85.628906 60.433594 85.445312 60.789062 85.222656 61.109375 Z M 85.222656 61.109375 " fill-opacity="1" fill-rule="nonzero"/><path fill="#77c5bf" d="M 248.980469 220.863281 C 245.453125 221.695312 241.925781 222.652344 238.351562 223.347656 C 227.230469 225.515625 216.136719 227.871094 204.945312 229.601562 C 194.421875 231.230469 183.804688 232.328125 173.203125 233.363281 C 157.28125 234.914062 141.304688 235.320312 125.3125 235.125 C 123.390625 235.097656 121.46875 234.996094 119.546875 234.988281 C 118.789062 234.984375 118.488281 234.78125 118.480469 233.964844 C 118.402344 225.511719 118.828125 217.085938 119.753906 208.679688 C 120.917969 198.132812 122.949219 187.761719 125.699219 177.519531 C 125.925781 176.671875 126.3125 176.390625 127.152344 176.300781 C 137.269531 175.21875 147.378906 174.09375 157.488281 172.988281 C 165.988281 172.058594 174.492188 171.136719 182.996094 170.203125 C 192.355469 169.175781 201.71875 168.140625 211.078125 167.105469 C 216.734375 166.480469 222.386719 165.859375 228.039062 165.21875 C 228.714844 165.140625 229.121094 165.269531 229.472656 165.9375 C 238.570312 183.171875 245.03125 201.351562 249.007812 220.425781 C 249.03125 220.527344 248.996094 220.640625 248.980469 220.863281 Z M 230.917969 192.871094 C 233.210938 191.28125 234.335938 189.1875 233.636719 186.367188 C 232.972656 183.710938 231.40625 181.640625 229.039062 180.339844 C 228.082031 179.808594 226.796875 179.589844 225.6875 179.667969 C 221.40625 179.96875 217.136719 180.429688 212.863281 180.859375 C 207.582031 181.394531 202.300781 181.941406 197.019531 182.507812 C 191.03125 183.148438 185.042969 183.8125 179.054688 184.480469 C 173.964844 185.046875 168.878906 185.632812 163.789062 186.207031 C 158.890625 186.761719 153.988281 187.304688 149.085938 187.875 C 145.910156 188.25 142.726562 188.597656 139.5625 189.082031 C 136.582031 189.539062 134.109375 192.609375 133.601562 196.25 C 132.996094 200.613281 135.664062 203.527344 140.042969 203.253906 C 141.09375 203.1875 142.140625 203.03125 143.1875 202.914062 C 149.664062 202.203125 156.140625 201.488281 162.613281 200.78125 C 168.566406 200.128906 174.519531 199.480469 180.472656 198.839844 C 185.226562 198.328125 189.980469 197.824219 194.738281 197.320312 C 194.925781 197.824219 195.101562 198.335938 195.304688 198.835938 C 196.785156 202.476562 198.855469 205.625 202.253906 207.839844 C 205.042969 209.664062 208.0625 210.917969 211.300781 211.296875 C 213.675781 211.578125 216.152344 211.242188 218.558594 210.957031 C 221.710938 210.582031 224.355469 209.03125 226.671875 206.894531 C 229.578125 204.210938 231.207031 200.988281 230.988281 196.941406 C 230.917969 195.585938 230.941406 194.226562 230.917969 192.871094 Z M 230.917969 192.871094 " fill-opacity="1" fill-rule="nonzero"/><path fill="#77c5bf" d="M 259.808594 124.734375 C 259.78125 140.363281 248.269531 153.09375 232.832031 154.636719 C 223.539062 155.566406 214.265625 156.683594 204.980469 157.703125 C 197.753906 158.496094 190.523438 159.257812 183.296875 160.050781 C 175.472656 160.910156 167.648438 161.796875 159.824219 162.660156 C 153.347656 163.375 146.867188 164.070312 140.390625 164.78125 C 133.050781 165.585938 125.703125 166.289062 118.382812 167.230469 C 102.34375 169.292969 87.949219 159.023438 84.777344 143.050781 C 82.597656 132.078125 85.132812 122.386719 93.070312 114.351562 C 97.667969 109.695312 103.328125 106.972656 109.824219 106.1875 C 118.6875 105.121094 127.566406 104.191406 136.441406 103.199219 C 144.304688 102.324219 152.164062 101.441406 160.027344 100.578125 C 168.566406 99.636719 177.105469 98.722656 185.644531 97.789062 C 193.585938 96.917969 201.519531 96.023438 209.460938 95.160156 C 215.941406 94.460938 222.410156 93.488281 228.910156 93.179688 C 236.925781 92.800781 244.011719 95.566406 249.964844 101.007812 C 255.578125 106.144531 258.582031 112.617188 259.457031 120.117188 C 259.636719 121.648438 259.695312 123.195312 259.808594 124.734375 Z M 92.375 138.4375 C 92.390625 143.128906 94.777344 149.375 99.777344 154.484375 C 105.914062 160.757812 113.433594 163.339844 122.167969 162.355469 C 125.160156 162.015625 128.160156 161.710938 131.152344 161.382812 C 137.066406 160.738281 142.980469 160.09375 148.898438 159.445312 C 155.257812 158.746094 161.621094 158.03125 167.984375 157.335938 C 174.535156 156.621094 181.089844 155.933594 187.640625 155.214844 C 194.828125 154.425781 202.011719 153.613281 209.195312 152.808594 C 215.929688 152.058594 222.6875 151.441406 229.398438 150.519531 C 241.351562 148.878906 251.050781 138.015625 251.515625 125.976562 C 251.789062 118.765625 249.71875 112.3125 244.867188 106.945312 C 238.875 100.316406 231.332031 97.339844 222.382812 98.1875 C 217.289062 98.671875 212.203125 99.277344 207.113281 99.828125 C 200.710938 100.523438 194.3125 101.214844 187.910156 101.917969 C 180.578125 102.726562 173.242188 103.550781 165.910156 104.355469 C 160.820312 104.914062 155.726562 105.449219 150.636719 106.007812 C 143.375 106.804688 136.117188 107.617188 128.859375 108.421875 C 123.992188 108.960938 119.097656 109.308594 114.269531 110.082031 C 101.707031 112.097656 92.449219 123.15625 92.375 138.4375 Z M 92.375 138.4375 " fill-opacity="1" fill-rule="nonzero"/><path fill="#ff715b" d="M 194.738281 197.316406 C 194.5 195.839844 194.285156 194.355469 194.015625 192.878906 C 193.628906 190.777344 194.160156 189.707031 196.273438 189.214844 C 199.269531 188.519531 202.292969 187.886719 205.339844 187.484375 C 212.703125 186.507812 220.113281 186.332031 227.53125 186.5 C 229.167969 186.535156 229.199219 186.613281 229.617188 188.242188 C 230.019531 189.792969 230.484375 191.328125 230.917969 192.871094 C 230.9375 194.226562 230.914062 195.585938 230.988281 196.941406 C 231.207031 200.984375 229.574219 204.210938 226.671875 206.894531 C 224.355469 209.027344 221.710938 210.582031 218.554688 210.953125 C 216.152344 211.238281 213.671875 211.574219 211.296875 211.296875 C 208.0625 210.914062 205.042969 209.664062 202.253906 207.839844 C 198.855469 205.621094 196.785156 202.476562 195.304688 198.835938 C 195.101562 198.332031 194.925781 197.824219 194.738281 197.316406 Z M 194.738281 197.316406 " fill-opacity="1" fill-rule="nonzero"/><path fill="#4c5454" d="M 194.519531 341.699219 C 180.644531 341.964844 166.777344 341.671875 152.941406 340.578125 C 142.125 339.71875 131.359375 338.449219 120.738281 336.125 C 120.449219 336.0625 120.167969 335.949219 119.882812 335.859375 C 119.871094 335.523438 119.871094 335.1875 119.855469 334.847656 C 119.628906 329.757812 119.398438 324.664062 119.171875 319.570312 C 119.171875 309.390625 119.171875 299.210938 119.171875 289.035156 C 119.484375 283.054688 119.710938 277.070312 120.152344 271.097656 C 120.34375 268.5 121.152344 266 122.742188 263.839844 C 125.117188 260.609375 128.597656 259.421875 132.328125 258.941406 C 139.046875 258.070312 145.773438 257.179688 152.519531 256.652344 C 162.167969 255.898438 171.835938 255.277344 181.503906 254.9375 C 191.335938 254.589844 201.175781 254.917969 210.96875 255.953125 C 219.652344 256.871094 228.328125 257.878906 236.996094 258.96875 C 240.332031 259.386719 243.464844 260.492188 245.777344 263.15625 C 247.925781 265.625 248.765625 268.660156 249.011719 271.796875 C 249.511719 278.144531 249.855469 284.5 250.1875 290.859375 C 250.441406 295.675781 250.652344 300.496094 250.753906 305.316406 C 250.882812 311.683594 250.890625 318.054688 250.941406 324.421875 C 250.957031 326.46875 250.941406 328.515625 250.941406 330.726562 C 252.695312 330.054688 254.296875 329.421875 255.917969 328.828125 C 256.316406 328.683594 256.761719 328.671875 257.1875 328.601562 C 258.269531 330.535156 259.441406 332.425781 260.421875 334.414062 C 263.597656 340.867188 265.449219 347.695312 265.996094 354.871094 C 260.890625 357.089844 255.597656 358.71875 250.15625 359.878906 C 249.941406 359.925781 249.710938 359.894531 249.492188 359.898438 C 249.957031 355.652344 249.972656 351.402344 249.488281 347.160156 C 248.929688 342.296875 247.679688 337.628906 245.484375 333.238281 C 245.339844 332.953125 244.984375 332.53125 244.777344 332.558594 C 244.023438 332.664062 243.289062 332.925781 242.527344 333.136719 C 245.789062 340.40625 246.578125 343.207031 247.105469 350.949219 C 247.292969 353.683594 247.066406 356.441406 247.03125 359.1875 C 247.195312 360.699219 246.113281 360.835938 245.050781 360.96875 C 240.953125 361.488281 236.859375 362 232.761719 362.515625 C 232.933594 362.179688 233.039062 361.78125 233.289062 361.511719 C 238.441406 355.902344 240.519531 349.292969 239.238281 341.816406 C 236.738281 327.222656 221.019531 318.917969 207.578125 325.042969 C 200.394531 328.320312 196.121094 333.992188 194.519531 341.699219 Z M 201.839844 293.332031 C 201.859375 288.816406 201.039062 284.484375 199.03125 280.421875 C 194.574219 271.40625 185.292969 268.027344 176.695312 272.28125 C 172.027344 274.589844 169.261719 278.496094 167.492188 283.246094 C 164.476562 291.316406 164.226562 299.363281 167.828125 307.3125 C 169.808594 311.683594 172.882812 315.085938 177.460938 316.835938 C 184.15625 319.394531 191.949219 316.878906 196.53125 310.746094 C 200.382812 305.582031 201.726562 299.640625 201.839844 293.332031 Z M 128.046875 307.578125 C 134.4375 307.578125 140.636719 307.578125 146.992188 307.578125 C 146.992188 311.039062 146.992188 314.402344 146.992188 317.761719 C 150.140625 317.761719 153.132812 317.761719 156.253906 317.761719 C 156.253906 314.316406 156.253906 310.953125 156.253906 307.496094 C 157.339844 307.496094 158.300781 307.496094 159.308594 307.496094 C 159.308594 304.816406 159.308594 302.234375 159.308594 299.5 C 158.269531 299.5 157.273438 299.5 156.164062 299.5 C 156.164062 290.214844 156.164062 281.085938 156.164062 271.863281 C 153.179688 271.863281 150.320312 271.839844 147.460938 271.890625 C 147.140625 271.898438 146.730469 272.253906 146.523438 272.554688 C 140.535156 281.28125 134.5625 290.019531 128.597656 298.761719 C 128.367188 299.09375 128.078125 299.488281 128.070312 299.859375 C 128.027344 302.375 128.046875 304.890625 128.046875 307.578125 Z M 235.8125 271.867188 C 232.785156 271.867188 229.929688 271.839844 227.070312 271.898438 C 226.722656 271.90625 226.289062 272.308594 226.058594 272.644531 C 220.132812 281.28125 214.222656 289.929688 208.320312 298.585938 C 208.066406 298.953125 207.714844 299.367188 207.707031 299.765625 C 207.652344 302.316406 207.679688 304.871094 207.679688 307.558594 C 214 307.558594 220.230469 307.558594 226.578125 307.558594 C 226.578125 311.027344 226.578125 314.363281 226.578125 317.746094 C 229.71875 317.746094 232.742188 317.746094 235.839844 317.746094 C 235.839844 314.308594 235.839844 310.964844 235.839844 307.488281 C 236.898438 307.488281 237.890625 307.488281 238.863281 307.488281 C 238.863281 304.769531 238.863281 302.191406 238.863281 299.492188 C 237.824219 299.492188 236.859375 299.492188 235.808594 299.492188 C 235.8125 290.261719 235.8125 281.152344 235.8125 271.867188 Z M 235.8125 271.867188 " fill-opacity="1" fill-rule="nonzero"/><path fill="#4c5454" d="M 73.230469 106.386719 C 72.65625 109.53125 71.992188 112.667969 71.523438 115.832031 C 70.597656 122.085938 69.679688 128.347656 68.945312 134.628906 C 67.335938 148.363281 67 162.152344 67.410156 175.960938 C 67.667969 184.8125 68.359375 193.640625 69.566406 202.421875 C 69.875 204.660156 70.1875 206.898438 70.496094 209.136719 C 69.332031 209.15625 68.164062 209.226562 67.003906 209.1875 C 61.695312 209.007812 58.421875 206.699219 56.980469 201.59375 C 55.800781 197.417969 55.066406 193.113281 54.136719 188.867188 C 54.140625 188.757812 54.167969 188.644531 54.148438 188.535156 C 53.058594 182.179688 52.273438 175.777344 52.226562 169.335938 C 52.175781 162.257812 52.332031 155.167969 52.679688 148.09375 C 52.90625 143.441406 53.484375 138.789062 54.164062 134.175781 C 54.734375 130.277344 55.675781 126.433594 56.453125 122.566406 C 57.21875 120.289062 57.777344 117.914062 58.8125 115.765625 C 59.90625 113.484375 61.300781 111.304688 62.832031 109.285156 C 65.105469 106.289062 68.433594 105.917969 71.90625 106.226562 C 72.351562 106.261719 72.789062 106.332031 73.230469 106.386719 Z M 73.230469 106.386719 " fill-opacity="1" fill-rule="nonzero"/><path fill="#4c5454" d="M 287.988281 185.167969 C 287.296875 178.277344 286.863281 171.34375 285.84375 164.5 C 284.636719 156.433594 283.148438 148.386719 281.378906 140.421875 C 277.394531 122.4375 271.5625 105.035156 264.199219 88.148438 C 263.824219 87.289062 263.460938 86.425781 263.089844 85.5625 C 265.65625 84.558594 268.28125 83.910156 271.023438 84.664062 C 273.558594 85.359375 275.496094 87.066406 277.074219 89.027344 C 278.925781 91.332031 280.472656 93.886719 282.136719 96.339844 C 282.453125 96.804688 282.714844 97.304688 283 97.789062 C 283.910156 99.808594 284.816406 101.828125 285.734375 103.84375 C 288.714844 110.402344 291.003906 117.210938 292.871094 124.152344 C 294.363281 129.707031 295.945312 135.273438 296.914062 140.929688 C 298.105469 147.894531 298.699219 154.960938 299.550781 161.988281 C 299.617188 165.21875 299.773438 168.453125 299.71875 171.683594 C 299.6875 173.625 299.484375 175.59375 299.078125 177.484375 C 298.402344 180.605469 296.445312 182.804688 293.4375 183.863281 C 291.683594 184.480469 289.808594 184.746094 287.988281 185.167969 Z M 287.988281 185.167969 " fill-opacity="1" fill-rule="nonzero"/><path fill="#4c5454" d="M 110.324219 240.351562 C 108.695312 248.1875 106.828125 255.984375 105.503906 263.867188 C 104.371094 270.605469 103.832031 277.441406 103.082031 284.242188 C 102.789062 286.925781 102.632812 289.628906 102.417969 292.320312 C 97.890625 290.601562 95.386719 287.125 94.332031 282.59375 C 93.789062 280.273438 93.699219 277.847656 93.382812 275.28125 C 90.917969 276.316406 88.363281 277.296875 85.886719 278.453125 C 80.441406 280.988281 75.332031 284.09375 70.589844 287.796875 C 70.292969 288.03125 69.992188 288.417969 69.679688 288.429688 C 69.195312 288.445312 68.699219 288.203125 68.207031 288.070312 C 68.3125 287.683594 68.296875 287.140625 68.546875 286.941406 C 70.269531 285.597656 72.007812 284.269531 73.8125 283.042969 C 79.726562 279.015625 86.066406 275.820312 92.820312 273.46875 C 93.539062 273.21875 93.808594 272.871094 93.886719 272.121094 C 94.097656 270.023438 94.4375 267.9375 94.648438 265.839844 C 94.679688 265.527344 94.371094 265.050781 94.082031 264.867188 C 93.359375 264.40625 92.503906 264.152344 91.800781 263.667969 C 90.347656 262.667969 89.589844 261.257812 89.558594 259.457031 C 89.515625 256.804688 88.988281 256.195312 86.359375 255.753906 C 83.871094 255.339844 81.375 254.972656 78.878906 254.582031 C 78.433594 254.511719 77.898438 254.558594 77.566406 254.320312 C 77.167969 254.042969 76.714844 253.527344 76.699219 253.101562 C 76.675781 252.363281 77.339844 252.304688 77.953125 252.402344 C 80.480469 252.800781 83.015625 253.183594 85.539062 253.613281 C 86.539062 253.78125 87.546875 253.964844 88.503906 254.292969 C 90.644531 255.023438 91.488281 256.265625 91.539062 258.527344 C 91.597656 261.214844 92.222656 262.0625 94.984375 263.027344 C 95.199219 261.6875 95.40625 260.375 95.621094 259.0625 C 96.277344 255.078125 97.179688 251.15625 99.058594 247.539062 C 100.875 244.050781 103.453125 241.417969 107.417969 240.507812 C 108.351562 240.296875 109.355469 240.394531 110.324219 240.351562 Z M 110.324219 240.351562 " fill-opacity="1" fill-rule="nonzero"/><path fill="#4c5454" d="M 260.597656 217.632812 C 259.359375 211.777344 258.304688 205.878906 256.851562 200.078125 C 254.226562 189.585938 250.367188 179.550781 245.347656 169.949219 C 243.828125 167.039062 241.710938 165.339844 238.519531 164.871094 C 235.777344 164.464844 233.050781 164.632812 230.125 165.039062 C 239.453125 182.640625 246.058594 201.074219 250.003906 220.488281 C 250.363281 220.4375 250.621094 220.363281 250.871094 220.378906 C 251.339844 220.410156 251.804688 220.492188 252.269531 220.550781 C 251.867188 220.824219 251.503906 221.222656 251.0625 221.34375 C 249.25 221.84375 247.414062 222.261719 245.585938 222.703125 C 231.921875 225.996094 218.140625 228.699219 204.242188 230.773438 C 192.425781 232.539062 180.558594 233.84375 168.644531 234.765625 C 152.3125 236.035156 135.960938 236.277344 119.59375 236 C 118.160156 235.976562 116.726562 235.917969 115.296875 235.832031 C 114.929688 235.8125 114.570312 235.625 113.953125 235.4375 C 115.148438 234.324219 116.351562 235.21875 117.546875 234.753906 C 117.394531 225.050781 117.878906 215.289062 119.121094 205.566406 C 120.359375 195.835938 122.316406 186.253906 124.921875 176.582031 C 123.695312 176.726562 122.578125 176.757812 121.515625 177.011719 C 119.472656 177.5 117.402344 177.960938 115.453125 178.714844 C 113.023438 179.652344 111.4375 181.542969 110.890625 184.109375 C 109.683594 189.777344 108.316406 195.429688 107.46875 201.15625 C 105.84375 212.125 106.015625 223.183594 106.503906 234.234375 C 106.515625 234.453125 106.601562 234.667969 106.652344 234.882812 C 106.296875 234.894531 105.941406 234.90625 105.589844 234.917969 C 105.480469 228.8125 105.257812 222.707031 105.292969 216.601562 C 105.328125 209.277344 106.027344 201.992188 107.4375 194.800781 C 108.207031 190.890625 109.214844 187.019531 110.21875 183.160156 C 110.863281 180.683594 112.519531 178.984375 114.808594 177.863281 C 117.636719 176.472656 120.6875 176.023438 123.761719 175.679688 C 132.636719 174.695312 141.511719 173.730469 150.386719 172.765625 C 158.25 171.910156 166.117188 171.066406 173.984375 170.207031 C 182.632812 169.257812 191.277344 168.285156 199.929688 167.332031 C 206.257812 166.636719 212.585938 165.949219 218.917969 165.265625 C 223.523438 164.761719 228.128906 164.238281 232.738281 163.777344 C 235.6875 163.484375 238.613281 163.578125 241.421875 164.707031 C 243.316406 165.46875 244.71875 166.738281 245.703125 168.539062 C 252.019531 180.101562 256.332031 192.402344 259.195312 205.226562 C 260.089844 209.234375 260.796875 213.277344 261.589844 217.304688 C 261.257812 217.414062 260.925781 217.523438 260.597656 217.632812 Z M 248.980469 220.863281 C 248.996094 220.640625 249.03125 220.527344 249.007812 220.421875 C 245.03125 201.351562 238.570312 183.171875 229.472656 165.933594 C 229.121094 165.269531 228.714844 165.140625 228.039062 165.21875 C 222.386719 165.859375 216.734375 166.480469 211.078125 167.105469 C 201.71875 168.136719 192.355469 169.175781 182.996094 170.203125 C 174.492188 171.136719 165.988281 172.054688 157.488281 172.988281 C 147.378906 174.09375 137.269531 175.21875 127.152344 176.300781 C 126.3125 176.390625 125.929688 176.671875 125.699219 177.515625 C 122.949219 187.757812 120.917969 198.132812 119.753906 208.679688 C 118.828125 217.085938 118.402344 225.511719 118.480469 233.964844 C 118.488281 234.78125 118.789062 234.984375 119.546875 234.988281 C 121.46875 234.996094 123.390625 235.097656 125.3125 235.121094 C 141.304688 235.320312 157.28125 234.914062 173.203125 233.359375 C 183.804688 232.328125 194.421875 231.230469 204.945312 229.601562 C 216.136719 227.867188 227.230469 225.511719 238.351562 223.347656 C 241.925781 222.652344 245.453125 221.695312 248.980469 220.863281 Z M 248.980469 220.863281 " fill-opacity="1" fill-rule="nonzero"/><path fill="#4c5454" d="M 259 327.714844 C 259.328125 327.484375 259.644531 327.234375 259.984375 327.027344 C 262.222656 325.671875 264.464844 324.324219 266.707031 322.976562 C 266.789062 322.898438 266.867188 322.820312 266.945312 322.746094 C 266.945312 322.746094 266.9375 322.773438 266.9375 322.773438 C 268.078125 322.027344 269.214844 321.277344 270.359375 320.542969 C 270.628906 320.371094 270.925781 320.242188 271.207031 320.09375 C 271.519531 320.46875 271.816406 320.855469 272.140625 321.214844 C 275.765625 325.207031 279.082031 329.4375 281.800781 334.097656 C 283.519531 337.042969 285.042969 340.105469 286.65625 343.117188 C 286.144531 343.550781 285.664062 344.023438 285.121094 344.40625 C 279.746094 348.164062 273.976562 351.226562 268.050781 354.011719 C 267.988281 353.765625 267.886719 353.519531 267.863281 353.269531 C 266.90625 344.054688 263.964844 335.535156 259 327.714844 Z M 259 327.714844 " fill-opacity="1" fill-rule="nonzero"/><path fill="#4c5454" d="M 301.070312 329.539062 C 300.972656 329.878906 300.984375 330.335938 300.765625 330.542969 C 296.734375 334.316406 292.671875 338.066406 288.609375 341.8125 C 288.511719 341.902344 288.339844 341.917969 288.203125 341.96875 C 285.664062 336.070312 282.332031 330.632812 278.425781 325.5625 C 276.691406 323.3125 274.703125 321.261719 272.832031 319.117188 C 272.945312 318.867188 273 318.554688 273.179688 318.375 C 275.738281 315.835938 278.3125 313.3125 280.882812 310.789062 C 281.042969 310.632812 281.222656 310.492188 281.394531 310.347656 C 281.832031 310.558594 282.265625 310.78125 282.710938 310.984375 C 288.21875 313.488281 292.957031 317.019531 296.507812 321.9375 C 298.234375 324.320312 299.5625 326.996094 301.070312 329.539062 Z M 301.070312 329.539062 " fill-opacity="1" fill-rule="nonzero"/><path fill="#4c5454" d="M 312.332031 314.03125 C 312.296875 314.242188 312.324219 314.492188 312.21875 314.667969 C 309.363281 319.433594 306.382812 324.117188 302.691406 328.296875 C 302.617188 328.210938 302.519531 328.140625 302.476562 328.042969 C 298.371094 319.058594 291.738281 312.660156 282.703125 308.722656 C 284.648438 305.746094 286.589844 302.769531 288.546875 299.800781 C 288.761719 299.472656 289.058594 299.203125 289.316406 298.90625 C 289.542969 298.933594 289.761719 298.96875 289.988281 298.984375 C 295.789062 299.351562 300.96875 301.285156 305.433594 305.070312 C 308.375 307.566406 310.550781 310.640625 312.332031 314.03125 Z M 312.332031 314.03125 " fill-opacity="1" fill-rule="nonzero"/><path fill="#4c5454" d="M 267.382812 291.640625 C 266.769531 284.890625 266.414062 278.101562 265.480469 271.394531 C 264.390625 263.570312 262.832031 255.8125 261.398438 248.039062 C 260.917969 245.453125 260.1875 242.914062 259.570312 240.351562 C 262.582031 240.457031 264.941406 241.914062 266.925781 244.039062 C 269.085938 246.34375 270.429688 249.15625 271.191406 252.160156 C 273.441406 261.058594 274.929688 270.082031 274.605469 279.296875 C 274.441406 283.882812 272.6875 287.863281 268.9375 290.757812 C 268.46875 291.117188 267.902344 291.351562 267.382812 291.640625 Z M 267.382812 291.640625 " fill-opacity="1" fill-rule="nonzero"/><path fill="#4c5454" d="M 85.222656 61.109375 C 85.445312 60.789062 85.628906 60.433594 85.898438 60.15625 C 87.859375 58.136719 89.070312 55.769531 89.3125 52.9375 C 91.347656 54.726562 93.363281 56.535156 95.425781 58.289062 C 95.863281 58.664062 96.429688 58.976562 96.984375 59.105469 C 102.804688 60.464844 108.640625 61.773438 114.460938 63.128906 C 115.027344 63.261719 115.636719 63.5 116.058594 63.878906 C 119.960938 67.367188 123.824219 70.898438 127.699219 74.421875 C 127.78125 74.496094 127.832031 74.601562 127.894531 74.695312 C 125.722656 75.066406 123.550781 75.449219 121.378906 75.8125 C 120.121094 76.023438 118.859375 76.226562 117.59375 76.386719 C 117.25 76.429688 116.878906 76.316406 116.523438 76.277344 C 114.960938 74.867188 113.417969 73.425781 111.816406 72.058594 C 111.410156 71.714844 110.839844 71.5 110.304688 71.378906 C 104.554688 70.050781 98.792969 68.773438 93.046875 67.417969 C 92.320312 67.246094 91.582031 66.824219 91.011719 66.328125 C 89.042969 64.632812 87.148438 62.855469 85.222656 61.109375 Z M 85.222656 61.109375 " fill-opacity="1" fill-rule="nonzero"/><g clip-path="url(#a5d7564cb7)"><path fill="#4c5454" d="M 289.988281 296.949219 C 290.496094 295.746094 290.898438 294.484375 291.539062 293.359375 C 292.242188 292.125 293.574219 291.855469 294.824219 292.15625 C 296.972656 292.671875 299.066406 293.402344 301.183594 294.050781 C 301.460938 294.136719 301.726562 294.253906 302.191406 294.429688 C 302.585938 291.824219 303.152344 289.355469 303.296875 286.863281 C 303.566406 282.242188 303.601562 277.605469 303.707031 272.976562 C 303.726562 272.285156 303.730469 271.621094 304.601562 271.5625 C 305.429688 271.503906 305.734375 272.09375 305.726562 272.804688 C 305.683594 276.835938 305.777344 280.878906 305.5 284.890625 C 305.273438 288.148438 304.574219 291.371094 304.128906 294.613281 C 304.085938 294.929688 304.253906 295.441406 304.5 295.605469 C 305.546875 296.324219 306.65625 296.949219 307.753906 297.613281 C 308.175781 295.898438 308.496094 294.171875 309.027344 292.515625 C 309.871094 289.886719 311.089844 287.292969 313.589844 286.007812 C 315.511719 285.019531 316.148438 283.789062 316.574219 281.800781 C 317.4375 277.789062 321.015625 274.945312 325.113281 274.5 C 325.671875 274.441406 326.234375 274.398438 326.84375 274.34375 C 326.945312 273.5625 326.988281 272.773438 327.148438 272.011719 C 328.0625 267.746094 333.113281 265.019531 337.230469 266.53125 C 337.921875 266.785156 338.394531 267.160156 338.183594 267.933594 C 337.949219 268.789062 337.351562 268.660156 336.648438 268.464844 C 332.738281 267.367188 329.210938 269.695312 328.929688 273.476562 C 328.871094 274.269531 329.066406 274.625 329.878906 274.933594 C 330.941406 275.332031 332 275.917969 332.835938 276.671875 C 333.832031 277.570312 333.839844 278.917969 333.148438 279.738281 C 332.410156 280.617188 331.023438 280.871094 329.992188 280.007812 C 329.042969 279.214844 328.300781 278.140625 327.609375 277.097656 C 327.277344 276.589844 327.015625 276.347656 326.402344 276.359375 C 322.011719 276.429688 318.519531 279.613281 318.113281 283.941406 C 318.058594 284.515625 318.242188 284.742188 318.808594 285 C 319.882812 285.488281 320.949219 286.085938 321.847656 286.84375 C 322.824219 287.675781 323.066406 288.902344 322.808594 290.164062 C 322.609375 291.148438 322.070312 291.898438 321.082031 292.222656 C 320.109375 292.542969 319.203125 292.257812 318.648438 291.484375 C 317.886719 290.429688 317.300781 289.25 316.675781 288.105469 C 316.488281 287.757812 316.40625 287.347656 316.257812 286.910156 C 314.933594 287.25 313.945312 287.972656 313.160156 288.949219 C 310.835938 291.832031 310.035156 295.246094 309.886719 298.847656 C 309.871094 299.183594 310.199219 299.582031 310.460938 299.867188 C 311.792969 301.300781 313.175781 302.6875 314.503906 304.125 C 316.167969 305.925781 316.371094 307.910156 315.125 310.027344 C 314.691406 310.769531 314.230469 311.496094 313.777344 312.230469 C 313.691406 312.109375 313.585938 312 313.515625 311.871094 C 308.296875 302.761719 300.484375 297.738281 289.988281 296.949219 Z M 318.367188 286.933594 C 318.871094 288.359375 319.277344 289.589844 320.5 290.390625 C 321.265625 288.886719 320.484375 287.625 318.367188 286.933594 Z M 318.367188 286.933594 " fill-opacity="1" fill-rule="nonzero"/></g><path fill="#4c5454" d="M 217.554688 27.855469 C 217.757812 27.835938 217.976562 27.765625 218.167969 27.804688 C 220.761719 28.347656 223.246094 28.03125 225.652344 26.9375 C 225.941406 26.804688 226.289062 26.800781 226.609375 26.738281 C 227.570312 29.226562 228.566406 31.703125 229.464844 34.210938 C 229.691406 34.847656 229.746094 35.605469 229.652344 36.277344 C 228.839844 42.164062 227.957031 48.035156 227.15625 53.921875 C 227.058594 54.628906 227.199219 55.429688 227.441406 56.109375 C 228.503906 59.078125 229.644531 62.015625 230.757812 64.964844 C 227.65625 65.113281 224.550781 65.261719 221.449219 65.40625 C 220.5 62.914062 219.632812 60.382812 218.570312 57.933594 C 217.90625 56.40625 217.859375 54.933594 218.109375 53.332031 C 218.957031 47.898438 219.742188 42.457031 220.515625 37.011719 C 220.589844 36.480469 220.503906 35.878906 220.324219 35.371094 C 219.429688 32.855469 218.480469 30.359375 217.554688 27.855469 Z M 217.554688 27.855469 " fill-opacity="1" fill-rule="nonzero"/><path fill="#4c5454" d="M 302.964844 138.082031 C 301.695312 130.414062 299.910156 122.878906 297.132812 115.601562 C 296.976562 115.1875 296.921875 114.734375 296.820312 114.296875 C 298.992188 114.164062 301.09375 114.46875 303.105469 115.308594 C 308.410156 117.523438 310.652344 122.210938 309.140625 127.921875 C 308.082031 131.914062 305.933594 135.246094 302.964844 138.082031 Z M 302.964844 138.082031 " fill-opacity="1" fill-rule="nonzero"/><path fill="#4c5454" d="M 46.722656 140.847656 C 46.511719 142.558594 46.207031 144.265625 46.113281 145.980469 C 45.839844 151.039062 45.644531 156.105469 45.425781 161.167969 C 45.394531 161.953125 45.394531 162.742188 45.378906 163.53125 C 41.230469 161.695312 38.242188 158.824219 37.230469 154.253906 C 36.597656 151.402344 37.515625 148.894531 39.1875 146.628906 C 41.136719 143.984375 43.796875 142.238281 46.722656 140.847656 Z M 46.722656 140.847656 " fill-opacity="1" fill-rule="nonzero"/><path fill="#4c5454" d="M 82.9375 136.414062 C 83.152344 127.355469 86.117188 119.53125 92.734375 113.269531 C 97.773438 108.503906 103.824219 105.824219 110.699219 105.039062 C 119.269531 104.058594 127.84375 103.121094 136.417969 102.179688 C 143.683594 101.378906 150.949219 100.609375 158.210938 99.8125 C 166.113281 98.945312 174.007812 98.054688 181.910156 97.1875 C 188.425781 96.46875 194.941406 95.785156 201.457031 95.066406 C 209.28125 94.207031 217.125 93.46875 224.921875 92.417969 C 238.996094 90.519531 252.699219 97.714844 257.941406 110.652344 C 262.636719 122.238281 262.179688 133.652344 254.210938 143.910156 C 248.65625 151.066406 241.125 154.796875 232.128906 155.722656 C 222.683594 156.695312 213.253906 157.789062 203.816406 158.820312 C 195.839844 159.691406 187.859375 160.535156 179.882812 161.410156 C 169.996094 162.5 160.113281 163.621094 150.226562 164.707031 C 141.613281 165.65625 133 166.613281 124.378906 167.496094 C 120.523438 167.890625 116.644531 168.445312 112.785156 168.359375 C 98.828125 168.058594 86.523438 157.5 83.910156 143.785156 C 83.449219 141.355469 83.253906 138.875 82.9375 136.414062 Z M 259.808594 124.734375 C 259.695312 123.195312 259.636719 121.648438 259.457031 120.117188 C 258.582031 112.613281 255.578125 106.144531 249.964844 101.007812 C 244.011719 95.5625 236.925781 92.796875 228.910156 93.175781 C 222.410156 93.484375 215.941406 94.457031 209.460938 95.160156 C 201.519531 96.023438 193.585938 96.914062 185.644531 97.785156 C 177.109375 98.722656 168.566406 99.636719 160.027344 100.574219 C 152.164062 101.441406 144.304688 102.320312 136.441406 103.199219 C 127.566406 104.1875 118.6875 105.121094 109.824219 106.1875 C 103.328125 106.96875 97.667969 109.695312 93.070312 114.351562 C 85.128906 122.386719 82.597656 132.078125 84.777344 143.046875 C 87.949219 159.019531 102.339844 169.292969 118.382812 167.226562 C 125.703125 166.285156 133.050781 165.582031 140.390625 164.777344 C 146.867188 164.066406 153.347656 163.371094 159.824219 162.65625 C 167.648438 161.796875 175.472656 160.910156 183.296875 160.050781 C 190.523438 159.257812 197.753906 158.492188 204.980469 157.699219 C 214.265625 156.683594 223.539062 155.566406 232.832031 154.632812 C 248.269531 153.09375 259.78125 140.363281 259.808594 124.734375 Z M 259.808594 124.734375 " fill-opacity="1" fill-rule="nonzero"/><path fill="#4c5454" d="M 246.886719 69.480469 C 249.457031 69.472656 251.433594 71.550781 251.421875 74.242188 C 251.410156 77.007812 249.007812 79.4375 246.3125 79.40625 C 243.746094 79.375 241.609375 77.246094 241.605469 74.71875 C 241.601562 71.863281 243.996094 69.488281 246.886719 69.480469 Z M 246.886719 69.480469 " fill-opacity="1" fill-rule="nonzero"/><path fill="#4c5454" d="M 88.355469 88.472656 C 90.898438 88.472656 92.84375 90.507812 92.828125 93.15625 C 92.816406 95.949219 90.449219 98.382812 87.769531 98.367188 C 85.160156 98.351562 82.992188 96.191406 83.003906 93.617188 C 83.019531 90.769531 85.40625 88.46875 88.355469 88.472656 Z M 88.355469 88.472656 " fill-opacity="1" fill-rule="nonzero"/><path fill="#4c5454" d="M 79.527344 221.695312 C 79.53125 218.804688 81.878906 216.460938 84.777344 216.453125 C 87.25 216.449219 89.28125 218.570312 89.28125 221.15625 C 89.285156 224.042969 86.984375 226.378906 84.15625 226.359375 C 81.515625 226.339844 79.519531 224.335938 79.527344 221.695312 Z M 79.527344 221.695312 " fill-opacity="1" fill-rule="nonzero"/><path fill="#4c5454" d="M 279.15625 207.613281 C 276.5 207.613281 274.414062 205.523438 274.429688 202.886719 C 274.449219 200.097656 276.835938 197.789062 279.703125 197.785156 C 282.3125 197.78125 284.316406 199.855469 284.261719 202.503906 C 284.203125 205.367188 281.957031 207.613281 279.15625 207.613281 Z M 279.15625 207.613281 " fill-opacity="1" fill-rule="nonzero"/><path fill="#4c5454" d="M 119.171875 319.570312 C 119.117188 318.410156 119.019531 317.25 119.019531 316.089844 C 119.023438 307.441406 119.039062 298.792969 119.0625 290.144531 C 119.0625 289.773438 119.136719 289.40625 119.175781 289.035156 C 119.171875 299.214844 119.171875 309.394531 119.171875 319.570312 Z M 119.171875 319.570312 " fill-opacity="1" fill-rule="nonzero"/><path fill="#4c5454" d="M 190.550781 293.078125 C 190.539062 296.285156 190.023438 299.402344 188.621094 302.289062 C 188.027344 303.515625 187.199219 304.71875 186.210938 305.640625 C 184.203125 307.507812 181.652344 307.292969 179.792969 305.273438 C 178.0625 303.398438 177.359375 301.046875 176.976562 298.609375 C 176.320312 294.417969 176.3125 290.230469 178.105469 286.300781 C 178.75 284.882812 179.816406 283.519531 181.007812 282.511719 C 183.058594 280.78125 185.667969 281.152344 187.464844 283.164062 C 189.351562 285.273438 190.113281 287.855469 190.425781 290.59375 C 190.523438 291.417969 190.511719 292.25 190.550781 293.078125 Z M 190.550781 293.078125 " fill-opacity="1" fill-rule="nonzero"/><path fill="#4c5454" d="M 138.488281 299.535156 C 141.257812 295.21875 143.867188 291.152344 146.636719 286.832031 C 146.683594 287.347656 146.726562 287.574219 146.726562 287.800781 C 146.726562 291.378906 146.699219 294.957031 146.730469 298.535156 C 146.734375 299.292969 146.585938 299.585938 145.734375 299.5625 C 143.40625 299.492188 141.070312 299.535156 138.488281 299.535156 Z M 138.488281 299.535156 " fill-opacity="1" fill-rule="nonzero"/><path fill="#4c5454" d="M 219.164062 297.992188 C 221.273438 294.695312 223.382812 291.402344 225.492188 288.109375 C 225.734375 288.113281 225.972656 288.117188 226.214844 288.121094 C 226.214844 288.34375 226.214844 288.566406 226.210938 288.792969 C 226.214844 290.304688 226.214844 291.816406 226.214844 293.328125 C 226.214844 294.535156 226.214844 295.738281 226.214844 296.941406 C 226.09375 297 225.972656 297.058594 225.855469 297.117188 C 225.972656 297.210938 226.09375 297.304688 226.214844 297.398438 C 226.214844 297.621094 226.214844 297.84375 226.214844 298.070312 C 226.066406 298.429688 225.914062 298.792969 225.765625 299.144531 C 223.527344 299.144531 221.316406 299.144531 219.0625 299.144531 C 219.101562 298.71875 219.132812 298.355469 219.164062 297.992188 Z M 219.164062 297.992188 " fill-opacity="1" fill-rule="nonzero"/><path fill="#4c5454" d="M 219.164062 297.992188 C 219.132812 298.355469 219.101562 298.71875 219.0625 299.148438 C 221.316406 299.148438 223.527344 299.148438 225.765625 299.148438 C 225.914062 298.792969 226.066406 298.429688 226.214844 298.070312 C 226.238281 298.511719 226.265625 298.953125 226.289062 299.457031 C 223.574219 299.457031 220.960938 299.457031 218.101562 299.457031 C 218.527344 298.863281 218.847656 298.425781 219.164062 297.992188 Z M 219.164062 297.992188 " fill-opacity="1" fill-rule="nonzero"/><path fill="#4c5454" d="M 226.214844 293.328125 C 226.214844 291.816406 226.214844 290.304688 226.210938 288.792969 C 226.214844 290.304688 226.214844 291.816406 226.214844 293.328125 Z M 226.214844 293.328125 " fill-opacity="1" fill-rule="nonzero"/><path fill="#4c5454" d="M 226.214844 288.121094 C 225.972656 288.117188 225.730469 288.113281 225.492188 288.109375 C 225.636719 287.847656 225.773438 287.582031 225.929688 287.328125 C 225.980469 287.25 226.085938 287.207031 226.320312 287.027344 C 226.273438 287.496094 226.246094 287.808594 226.214844 288.121094 Z M 226.214844 288.121094 " fill-opacity="1" fill-rule="nonzero"/><path fill="#4c5454" d="M 226.214844 297.398438 C 226.09375 297.304688 225.972656 297.210938 225.855469 297.117188 C 225.972656 297.058594 226.09375 297 226.214844 296.941406 C 226.214844 297.09375 226.214844 297.246094 226.214844 297.398438 Z M 226.214844 297.398438 " fill-opacity="1" fill-rule="nonzero"/><path fill="#4c5454" d="M 194.738281 197.316406 C 189.980469 197.824219 185.226562 198.324219 180.46875 198.835938 C 174.515625 199.480469 168.566406 200.128906 162.613281 200.777344 C 156.136719 201.488281 149.664062 202.199219 143.1875 202.914062 C 142.136719 203.027344 141.09375 203.183594 140.042969 203.25 C 135.664062 203.523438 132.992188 200.613281 133.601562 196.25 C 134.109375 192.609375 136.582031 189.539062 139.5625 189.082031 C 142.722656 188.59375 145.90625 188.246094 149.085938 187.875 C 153.984375 187.300781 158.886719 186.761719 163.789062 186.207031 C 168.878906 185.628906 173.964844 185.046875 179.054688 184.480469 C 185.042969 183.8125 191.027344 183.148438 197.019531 182.503906 C 202.296875 181.9375 207.582031 181.390625 212.863281 180.859375 C 217.136719 180.429688 221.40625 179.964844 225.6875 179.664062 C 226.792969 179.585938 228.078125 179.808594 229.039062 180.335938 C 231.40625 181.636719 232.972656 183.707031 233.632812 186.367188 C 234.335938 189.1875 233.207031 191.28125 230.917969 192.871094 C 230.480469 191.328125 230.019531 189.792969 229.617188 188.238281 C 229.199219 186.613281 229.167969 186.53125 227.53125 186.496094 C 220.113281 186.332031 212.703125 186.507812 205.339844 187.484375 C 202.292969 187.886719 199.269531 188.519531 196.273438 189.214844 C 194.160156 189.703125 193.628906 190.773438 194.015625 192.878906 C 194.285156 194.355469 194.5 195.839844 194.738281 197.316406 Z M 194.738281 197.316406 " fill-opacity="1" fill-rule="nonzero"/><path fill="#4c5454" d="M 92.375 138.4375 C 92.449219 123.15625 101.703125 112.097656 114.269531 110.085938 C 119.097656 109.3125 123.992188 108.964844 128.859375 108.421875 C 136.117188 107.617188 143.375 106.804688 150.636719 106.007812 C 155.726562 105.449219 160.816406 104.914062 165.910156 104.355469 C 173.242188 103.550781 180.578125 102.726562 187.910156 101.917969 C 194.3125 101.214844 200.710938 100.523438 207.113281 99.832031 C 212.203125 99.277344 217.289062 98.675781 222.382812 98.191406 C 231.332031 97.339844 238.871094 100.316406 244.867188 106.949219 C 249.71875 112.3125 251.789062 118.769531 251.515625 125.976562 C 251.050781 138.015625 241.351562 148.878906 229.398438 150.519531 C 222.6875 151.445312 215.929688 152.058594 209.195312 152.8125 C 202.011719 153.613281 194.828125 154.425781 187.640625 155.214844 C 181.089844 155.933594 174.535156 156.621094 167.984375 157.335938 C 161.621094 158.03125 155.257812 158.746094 148.898438 159.445312 C 142.984375 160.097656 137.070312 160.742188 131.152344 161.382812 C 128.160156 161.710938 125.164062 162.019531 122.167969 162.355469 C 113.433594 163.339844 105.914062 160.757812 99.777344 154.484375 C 94.777344 149.375 92.390625 143.128906 92.375 138.4375 Z M 135.296875 134.324219 C 138.171875 130.738281 140.988281 127.253906 143.769531 123.746094 C 144.351562 123.015625 144.929688 122.238281 145.304688 121.390625 C 146.140625 119.488281 145.476562 117.609375 143.757812 116.613281 C 141.878906 115.523438 139.898438 115.839844 138.585938 117.453125 C 137.632812 118.621094 136.703125 119.808594 135.757812 120.984375 C 133.546875 123.746094 131.332031 126.507812 129.085938 129.308594 C 128.765625 129.0625 128.5 128.867188 128.242188 128.660156 C 124.773438 125.878906 121.304688 123.09375 117.835938 120.3125 C 116.78125 119.464844 115.613281 118.832031 114.21875 118.976562 C 112.484375 119.15625 111.445312 120.226562 110.972656 121.855469 C 110.511719 123.433594 110.738281 124.839844 112.097656 125.929688 C 115.800781 128.902344 119.5 131.878906 123.199219 134.859375 C 123.480469 135.085938 123.746094 135.335938 124.046875 135.597656 C 121.21875 139.117188 118.449219 142.546875 115.714844 146 C 115.109375 146.761719 114.492188 147.558594 114.101562 148.4375 C 113.160156 150.539062 114.035156 152.640625 116.078125 153.492188 C 118.03125 154.304688 119.558594 153.945312 120.894531 152.289062 C 123.265625 149.359375 125.609375 146.40625 127.96875 143.464844 C 128.738281 142.503906 129.519531 141.546875 130.320312 140.5625 C 134.054688 143.5625 137.679688 146.507812 141.351562 149.394531 C 142.105469 149.980469 143 150.480469 143.910156 150.753906 C 145.683594 151.292969 147.308594 150.460938 148.117188 148.792969 C 149.085938 146.789062 148.699219 145.085938 146.953125 143.6875 C 143.105469 140.601562 139.257812 137.507812 135.296875 134.324219 Z M 210.476562 126.074219 C 208.621094 128.386719 206.851562 130.585938 205.089844 132.792969 C 203.703125 134.53125 202.253906 136.226562 200.96875 138.035156 C 199.566406 140.011719 199.925781 142.289062 201.675781 143.558594 C 203.621094 144.96875 205.796875 144.660156 207.351562 142.730469 C 209.035156 140.648438 210.695312 138.554688 212.371094 136.464844 C 213.804688 134.679688 215.246094 132.898438 216.714844 131.074219 C 220.332031 133.980469 223.847656 136.816406 227.375 139.632812 C 227.960938 140.101562 228.5625 140.578125 229.222656 140.917969 C 231.195312 141.9375 233.214844 141.4375 234.296875 139.730469 C 235.519531 137.800781 235.207031 135.710938 233.457031 134.296875 C 230.757812 132.117188 228.046875 129.957031 225.34375 127.785156 C 224.144531 126.820312 222.949219 125.851562 221.699219 124.839844 C 223.972656 122.003906 226.191406 119.253906 228.394531 116.484375 C 229.425781 115.1875 230.535156 113.933594 231.40625 112.535156 C 232.644531 110.53125 232.152344 108.429688 230.371094 107.269531 C 228.425781 106.003906 226.28125 106.34375 224.855469 108.128906 C 221.964844 111.753906 219.066406 115.375 216.167969 118.992188 C 215.945312 119.273438 215.683594 119.527344 215.421875 119.816406 C 211.703125 116.824219 208.074219 113.882812 204.410156 110.984375 C 203.742188 110.457031 202.976562 109.988281 202.175781 109.707031 C 200.390625 109.078125 198.71875 109.757812 197.804688 111.332031 C 196.765625 113.132812 197 115.109375 198.417969 116.371094 C 198.8125 116.71875 199.234375 117.042969 199.644531 117.371094 C 203.222656 120.25 206.804688 123.125 210.476562 126.074219 Z M 210.476562 126.074219 " fill-opacity="1" fill-rule="nonzero"/><path fill="#ffffff" d="M 247.03125 359.191406 C 247.070312 356.441406 247.292969 353.683594 247.109375 350.953125 C 246.578125 343.207031 245.789062 340.40625 242.527344 333.136719 C 243.289062 332.929688 244.023438 332.664062 244.78125 332.5625 C 244.984375 332.535156 245.34375 332.953125 245.488281 333.242188 C 247.679688 337.632812 248.933594 342.300781 249.488281 347.160156 C 249.972656 351.40625 249.957031 355.652344 249.492188 359.902344 C 248.824219 360.144531 248.152344 360.390625 247.457031 360.644531 C 247.273438 360.019531 247.152344 359.605469 247.03125 359.191406 Z M 247.03125 359.191406 " fill-opacity="1" fill-rule="nonzero"/><path fill="#ffffff" d="M 289.988281 296.949219 C 300.484375 297.738281 308.296875 302.761719 313.515625 311.871094 C 313.589844 312 313.691406 312.113281 313.78125 312.230469 C 313.296875 312.832031 312.816406 313.429688 312.332031 314.03125 C 310.550781 310.640625 308.375 307.566406 305.433594 305.070312 C 300.96875 301.285156 295.789062 299.351562 289.988281 298.984375 C 289.761719 298.972656 289.542969 298.933594 289.316406 298.90625 C 289.542969 298.253906 289.765625 297.601562 289.988281 296.949219 Z M 289.988281 296.949219 " fill-opacity="1" fill-rule="nonzero"/><path fill="#ffffff" d="M 282.703125 308.722656 C 291.738281 312.660156 298.371094 319.054688 302.476562 328.042969 C 302.519531 328.140625 302.617188 328.210938 302.691406 328.296875 C 302.148438 328.710938 301.609375 329.125 301.070312 329.539062 C 299.5625 326.996094 298.234375 324.320312 296.507812 321.933594 C 292.953125 317.019531 288.21875 313.488281 282.710938 310.984375 C 282.265625 310.78125 281.832031 310.558594 281.390625 310.34375 C 281.828125 309.804688 282.265625 309.265625 282.703125 308.722656 Z M 282.703125 308.722656 " fill-opacity="1" fill-rule="nonzero"/><path fill="#ffffff" d="M 272.828125 319.117188 C 274.703125 321.257812 276.691406 323.3125 278.425781 325.558594 C 282.332031 330.632812 285.664062 336.070312 288.199219 341.96875 C 287.683594 342.351562 287.167969 342.734375 286.65625 343.117188 C 285.042969 340.105469 283.519531 337.042969 281.800781 334.09375 C 279.082031 329.433594 275.765625 325.203125 272.140625 321.214844 C 271.816406 320.851562 271.519531 320.464844 271.207031 320.09375 C 271.75 319.769531 272.289062 319.441406 272.828125 319.117188 Z M 272.828125 319.117188 " fill-opacity="1" fill-rule="nonzero"/><path fill="#ffffff" d="M 259 327.714844 C 263.964844 335.535156 266.90625 344.054688 267.859375 353.269531 C 267.886719 353.519531 267.984375 353.765625 268.050781 354.011719 C 267.367188 354.296875 266.683594 354.585938 266 354.871094 C 265.449219 347.695312 263.597656 340.871094 260.421875 334.417969 C 259.445312 332.429688 258.269531 330.539062 257.1875 328.601562 C 257.792969 328.304688 258.394531 328.007812 259 327.714844 Z M 259 327.714844 " fill-opacity="1" fill-rule="nonzero"/><path fill="#ffffff" d="M 201.839844 293.332031 C 201.722656 299.640625 200.382812 305.582031 196.53125 310.742188 C 191.949219 316.878906 184.15625 319.394531 177.460938 316.835938 C 172.882812 315.085938 169.808594 311.679688 167.828125 307.3125 C 164.226562 299.363281 164.476562 291.316406 167.492188 283.246094 C 169.261719 278.496094 172.027344 274.589844 176.695312 272.277344 C 185.292969 268.027344 194.574219 271.402344 199.03125 280.421875 C 201.039062 284.484375 201.859375 288.816406 201.839844 293.332031 Z M 190.550781 293.078125 C 190.511719 292.25 190.523438 291.417969 190.425781 290.597656 C 190.117188 287.855469 189.351562 285.273438 187.464844 283.167969 C 185.667969 281.15625 183.058594 280.785156 181.007812 282.515625 C 179.816406 283.523438 178.75 284.882812 178.105469 286.300781 C 176.3125 290.230469 176.320312 294.421875 176.976562 298.609375 C 177.355469 301.050781 178.0625 303.398438 179.792969 305.273438 C 181.652344 307.292969 184.207031 307.507812 186.210938 305.644531 C 187.199219 304.71875 188.027344 303.515625 188.621094 302.292969 C 190.023438 299.402344 190.539062 296.285156 190.550781 293.078125 Z M 190.550781 293.078125 " fill-opacity="1" fill-rule="nonzero"/><path fill="#ffffff" d="M 128.046875 307.578125 C 128.046875 304.886719 128.027344 302.375 128.070312 299.859375 C 128.078125 299.492188 128.367188 299.097656 128.597656 298.761719 C 134.5625 290.019531 140.535156 281.28125 146.523438 272.554688 C 146.730469 272.253906 147.140625 271.898438 147.460938 271.894531 C 150.320312 271.839844 153.179688 271.863281 156.164062 271.863281 C 156.164062 281.085938 156.164062 290.214844 156.164062 299.5 C 157.273438 299.5 158.269531 299.5 159.308594 299.5 C 159.308594 302.234375 159.308594 304.816406 159.308594 307.496094 C 158.300781 307.496094 157.339844 307.496094 156.253906 307.496094 C 156.253906 310.953125 156.253906 314.316406 156.253906 317.761719 C 153.132812 317.761719 150.136719 317.761719 146.992188 317.761719 C 146.992188 314.402344 146.992188 311.039062 146.992188 307.582031 C 140.636719 307.578125 134.4375 307.578125 128.046875 307.578125 Z M 138.488281 299.535156 C 141.070312 299.535156 143.40625 299.492188 145.734375 299.5625 C 146.585938 299.585938 146.734375 299.296875 146.730469 298.535156 C 146.699219 294.957031 146.726562 291.378906 146.726562 287.800781 C 146.726562 287.574219 146.683594 287.347656 146.636719 286.835938 C 143.867188 291.152344 141.257812 295.21875 138.488281 299.535156 Z M 138.488281 299.535156 " fill-opacity="1" fill-rule="nonzero"/><path fill="#ffffff" d="M 235.8125 271.867188 C 235.8125 281.152344 235.8125 290.261719 235.8125 299.492188 C 236.859375 299.492188 237.824219 299.492188 238.863281 299.492188 C 238.863281 302.191406 238.863281 304.773438 238.863281 307.488281 C 237.890625 307.488281 236.902344 307.488281 235.839844 307.488281 C 235.839844 310.964844 235.839844 314.308594 235.839844 317.746094 C 232.746094 317.746094 229.722656 317.746094 226.578125 317.746094 C 226.578125 314.363281 226.578125 311.027344 226.578125 307.558594 C 220.230469 307.558594 214 307.558594 207.679688 307.558594 C 207.679688 304.871094 207.652344 302.316406 207.707031 299.765625 C 207.71875 299.367188 208.070312 298.953125 208.320312 298.585938 C 214.222656 289.929688 220.132812 281.28125 226.058594 272.644531 C 226.289062 272.3125 226.722656 271.910156 227.070312 271.898438 C 229.929688 271.839844 232.789062 271.867188 235.8125 271.867188 Z M 225.492188 288.109375 C 223.382812 291.402344 221.273438 294.695312 219.164062 297.992188 C 218.847656 298.425781 218.527344 298.863281 218.101562 299.453125 C 220.960938 299.453125 223.578125 299.453125 226.292969 299.453125 C 226.265625 298.953125 226.238281 298.511719 226.214844 298.070312 C 226.214844 297.84375 226.214844 297.621094 226.214844 297.398438 C 226.214844 297.246094 226.214844 297.09375 226.214844 296.941406 C 226.214844 295.738281 226.214844 294.535156 226.214844 293.328125 C 226.214844 291.816406 226.214844 290.304688 226.214844 288.792969 C 226.214844 288.566406 226.214844 288.34375 226.214844 288.121094 C 226.246094 287.808594 226.273438 287.496094 226.320312 287.027344 C 226.085938 287.207031 225.980469 287.25 225.929688 287.328125 C 225.773438 287.582031 225.636719 287.847656 225.492188 288.109375 Z M 225.492188 288.109375 " fill-opacity="1" fill-rule="nonzero"/><path fill="#ffffff" d="M 266.949219 322.746094 C 266.867188 322.820312 266.789062 322.898438 266.707031 322.976562 C 266.789062 322.898438 266.867188 322.820312 266.949219 322.746094 Z M 266.949219 322.746094 " fill-opacity="1" fill-rule="nonzero"/><path fill="#ffffff" d="M 135.296875 134.324219 C 139.257812 137.507812 143.105469 140.601562 146.953125 143.6875 C 148.695312 145.085938 149.085938 146.789062 148.117188 148.792969 C 147.308594 150.457031 145.683594 151.292969 143.90625 150.753906 C 143 150.476562 142.101562 149.980469 141.351562 149.390625 C 137.675781 146.507812 134.054688 143.558594 130.316406 140.558594 C 129.519531 141.546875 128.738281 142.503906 127.96875 143.464844 C 125.609375 146.40625 123.265625 149.355469 120.894531 152.289062 C 119.558594 153.941406 118.03125 154.300781 116.078125 153.488281 C 114.035156 152.640625 113.160156 150.539062 114.101562 148.4375 C 114.492188 147.558594 115.109375 146.761719 115.710938 146 C 118.449219 142.546875 121.21875 139.117188 124.042969 135.597656 C 123.742188 135.332031 123.480469 135.082031 123.199219 134.855469 C 119.5 131.878906 115.800781 128.902344 112.09375 125.929688 C 110.738281 124.839844 110.511719 123.429688 110.96875 121.855469 C 111.445312 120.226562 112.480469 119.15625 114.21875 118.976562 C 115.613281 118.832031 116.777344 119.464844 117.835938 120.308594 C 121.304688 123.09375 124.773438 125.875 128.242188 128.660156 C 128.5 128.867188 128.765625 129.0625 129.085938 129.308594 C 131.332031 126.503906 133.546875 123.746094 135.757812 120.984375 C 136.699219 119.808594 137.632812 118.621094 138.585938 117.453125 C 139.898438 115.839844 141.878906 115.523438 143.757812 116.613281 C 145.476562 117.609375 146.136719 119.488281 145.300781 121.390625 C 144.929688 122.238281 144.351562 123.015625 143.769531 123.746094 C 140.988281 127.253906 138.171875 130.738281 135.296875 134.324219 Z M 135.296875 134.324219 " fill-opacity="1" fill-rule="nonzero"/><path fill="#ffffff" d="M 210.476562 126.074219 C 206.804688 123.125 203.222656 120.25 199.640625 117.375 C 199.230469 117.042969 198.8125 116.722656 198.414062 116.371094 C 196.996094 115.109375 196.761719 113.136719 197.804688 111.335938 C 198.714844 109.757812 200.386719 109.078125 202.175781 109.707031 C 202.972656 109.988281 203.738281 110.457031 204.40625 110.988281 C 208.070312 113.882812 211.699219 116.828125 215.417969 119.816406 C 215.679688 119.527344 215.941406 119.277344 216.164062 118.996094 C 219.0625 115.375 221.960938 111.753906 224.851562 108.132812 C 226.277344 106.347656 228.425781 106.003906 230.367188 107.273438 C 232.148438 108.429688 232.640625 110.535156 231.402344 112.535156 C 230.535156 113.9375 229.421875 115.191406 228.390625 116.488281 C 226.1875 119.253906 223.96875 122.007812 221.695312 124.84375 C 222.949219 125.851562 224.144531 126.824219 225.339844 127.785156 C 228.046875 129.957031 230.753906 132.121094 233.453125 134.296875 C 235.207031 135.714844 235.519531 137.800781 234.292969 139.730469 C 233.210938 141.4375 231.191406 141.9375 229.222656 140.921875 C 228.558594 140.578125 227.957031 140.101562 227.371094 139.636719 C 223.84375 136.816406 220.328125 133.984375 216.710938 131.078125 C 215.242188 132.902344 213.800781 134.683594 212.367188 136.46875 C 210.691406 138.554688 209.03125 140.652344 207.347656 142.734375 C 205.792969 144.664062 203.617188 144.96875 201.671875 143.558594 C 199.921875 142.289062 199.5625 140.015625 200.964844 138.039062 C 202.25 136.226562 203.699219 134.53125 205.085938 132.792969 C 206.851562 130.585938 208.621094 128.386719 210.476562 126.074219 Z M 210.476562 126.074219 " fill-opacity="1" fill-rule="nonzero"/></svg>