<svg xmlns="http://www.w3.org/2000/svg" xmlns:xlink="http://www.w3.org/1999/xlink" width="500" zoomAndPan="magnify" viewBox="0 0 375 225" height="300" preserveAspectRatio="xMidYMid meet" version="1.0"><defs><filter x="0%" y="0%" width="100%" height="100%" id="3afc69fa07"><feColorMatrix values="0 0 0 0 1 0 0 0 0 1 0 0 0 0 1 0 0 0 1 0" color-interpolation-filters="sRGB"/></filter><mask id="eb221704f0"><g filter="url(#3afc69fa07)"><rect x="-37.5" width="450" fill="#000000" y="-22.5" height="270" fill-opacity="0.2"/></g></mask><clipPath id="f6183de9b6"><path d="M 0 1 L 375 1 L 375 225 L 0 225 Z M 0 1 " clip-rule="nonzero"/></clipPath><clipPath id="2b1ca9a046"><path d="M -36.875 456.589844 L -45.007812 8.164062 L 428.164062 -0.417969 L 436.296875 448.011719 Z M -36.875 456.589844 " clip-rule="nonzero"/></clipPath><clipPath id="c4ca98990f"><path d="M -36.875 456.589844 L -45.007812 8.164062 L 428.164062 -0.417969 L 436.296875 448.011719 Z M -36.875 456.589844 " clip-rule="nonzero"/></clipPath><clipPath id="277302b592"><rect x="0" width="375" y="0" height="225"/></clipPath><clipPath id="b509e0261b"><path d="M 0 6 L 375 6 L 375 225 L 0 225 Z M 0 6 " clip-rule="nonzero"/></clipPath><clipPath id="a9ac1f1c34"><path d="M -44.644531 461.136719 L -52.777344 12.710938 L 420.394531 4.128906 L 428.527344 452.558594 Z M -44.644531 461.136719 " clip-rule="nonzero"/></clipPath><clipPath id="304035b479"><path d="M -44.644531 461.136719 L -52.777344 12.710938 L 420.394531 4.128906 L 428.527344 452.558594 Z M -44.644531 461.136719 " clip-rule="nonzero"/></clipPath></defs><g mask="url(#eb221704f0)"><g transform="matrix(1, 0, 0, 1, 0, -0.000000000000008531)"><g clip-path="url(#277302b592)"><g clip-path="url(#f6183de9b6)"><g clip-path="url(#2b1ca9a046)"><g clip-path="url(#c4ca98990f)"><path fill="#4c5454" d="M 430.730469 124.828125 C 430.746094 125.640625 430.757812 126.457031 430.769531 127.269531 C 430.839844 130.820312 430.90625 134.375 430.972656 137.925781 C 431.0625 141.273438 430.402344 144.550781 429.765625 147.792969 C 428.210938 155.714844 426.257812 163.546875 423.695312 171.210938 C 421.96875 176.363281 419.980469 181.414062 417.898438 186.429688 C 413.191406 197.78125 407.824219 208.859375 403.496094 220.371094 C 400.722656 227.75 398.65625 235.320312 397.65625 243.171875 C 397.179688 246.9375 396.777344 250.695312 396.601562 254.492188 C 396.5 256.730469 396.269531 258.96875 396.453125 261.195312 C 396.796875 265.378906 397.152344 269.554688 397.71875 273.722656 C 398.375 278.554688 399.226562 283.347656 400.148438 288.132812 C 400.902344 292.0625 401.898438 295.9375 402.960938 299.78125 C 404.914062 306.84375 407.175781 313.820312 409.789062 320.667969 C 412.863281 328.730469 415.5625 336.898438 417.636719 345.277344 C 418.742188 349.753906 419.425781 354.285156 419.917969 358.878906 C 420.53125 364.644531 420.535156 370.414062 420.527344 376.183594 C 420.515625 383.851562 418.976562 391.253906 415.882812 398.3125 C 414.597656 401.238281 413.160156 404.078125 411.660156 406.898438 C 410.214844 409.621094 408.265625 411.972656 406.351562 414.34375 C 404.472656 416.667969 402.480469 418.898438 400.402344 421.050781 C 395.886719 425.726562 390.710938 429.5625 385.21875 432.964844 C 376.515625 438.355469 367.1875 442.441406 357.46875 445.605469 C 352.703125 447.15625 347.792969 448.175781 342.785156 448.738281 C 341.097656 448.925781 339.414062 449.105469 337.722656 449.1875 C 335.144531 449.011719 332.605469 449.453125 330.050781 449.703125 C 327.136719 449.992188 324.257812 449.121094 321.347656 449.484375 C 317.269531 449.371094 313.253906 448.710938 309.246094 448.03125 C 304.367188 447.199219 299.5 446.304688 294.738281 444.882812 C 290.238281 443.539062 285.84375 441.925781 281.523438 440.109375 C 277.386719 438.371094 273.257812 436.601562 269.226562 434.636719 C 261.039062 430.644531 252.972656 426.410156 245.015625 421.96875 C 237.777344 417.921875 230.425781 414.082031 223.1875 410.042969 C 216.824219 406.496094 210.335938 403.203125 203.703125 400.207031 C 195.207031 396.371094 186.539062 393.011719 177.382812 391.054688 C 172.671875 390.050781 167.929688 389.355469 163.121094 388.933594 C 159.503906 388.613281 155.902344 388.632812 152.324219 388.90625 C 148.484375 389.199219 144.625 389.460938 140.804688 390.128906 C 136.9375 390.804688 133.011719 391.148438 129.121094 391.707031 C 125.703125 392.191406 122.296875 392.757812 118.882812 393.308594 C 114.738281 393.980469 110.59375 394.683594 106.453125 395.359375 C 102.910156 395.9375 99.367188 396.53125 95.816406 397.0625 C 93.136719 397.464844 90.453125 397.910156 87.753906 398.089844 C 81.929688 398.480469 76.121094 399.265625 70.277344 399.234375 C 57.832031 399.164062 45.664062 397.449219 34.015625 392.820312 C 27.867188 390.382812 22.039062 387.3125 16.367188 383.925781 C 11.164062 380.816406 6.300781 377.261719 1.804688 373.179688 C -3.953125 367.949219 -8.945312 362.082031 -13.628906 355.902344 C -20.226562 347.207031 -24.878906 337.472656 -28.933594 327.441406 C -32.0625 319.699219 -34.917969 311.84375 -36.914062 303.714844 C -37.871094 299.835938 -38.640625 295.921875 -39.097656 291.9375 C -39.664062 287.007812 -40.035156 282.078125 -40.117188 277.121094 C -40.1875 273.042969 -39.847656 268.992188 -39.617188 264.929688 C -39.417969 261.402344 -38.949219 257.917969 -38.496094 254.425781 C -37.964844 250.308594 -36.894531 246.3125 -35.613281 242.375 C -33.796875 236.800781 -31.40625 231.46875 -28.738281 226.261719 C -26.378906 221.664062 -23.84375 217.164062 -21.480469 212.574219 C -19.265625 208.28125 -17.34375 203.851562 -15.324219 199.464844 C -12.019531 192.277344 -9.6875 184.769531 -7.558594 177.179688 C -5.902344 171.285156 -5.027344 165.246094 -3.988281 159.242188 C -3.519531 156.539062 -3.144531 153.726562 -3.898438 150.949219 C -4.039062 150.4375 -3.976562 149.867188 -3.988281 149.324219 C -4.066406 145.785156 -4.121094 142.246094 -4.210938 138.707031 C -4.332031 133.953125 -4 129.21875 -3.753906 124.476562 C -3.566406 120.816406 -3.308594 117.164062 -2.953125 113.527344 C -2.457031 108.46875 -1.445312 103.480469 -0.167969 98.554688 C 1.421875 92.425781 3.34375 86.402344 6.039062 80.679688 C 9.109375 74.160156 12.46875 67.773438 16.839844 62.003906 C 21.957031 55.253906 28.546875 50.378906 36.273438 46.921875 C 40.957031 44.828125 45.753906 43.148438 50.8125 42.410156 C 55.578125 41.707031 60.378906 41.539062 65.226562 41.890625 C 73.476562 42.484375 81.164062 45.105469 88.835938 47.859375 C 97.285156 50.898438 105.921875 53.285156 114.757812 54.855469 C 117.945312 55.421875 121.199219 55.789062 124.476562 55.679688 C 128.355469 55.546875 132.242188 55.605469 136.117188 55.402344 C 139.429688 55.230469 142.714844 54.679688 146.003906 54.203125 C 150.433594 53.558594 154.820312 52.703125 159.191406 51.765625 C 164.832031 50.554688 170.457031 49.230469 175.847656 47.152344 C 182.753906 44.488281 189.59375 41.644531 196.429688 38.808594 C 199.1875 37.660156 201.90625 36.394531 204.582031 35.0625 C 209.574219 32.578125 214.53125 30.023438 219.492188 27.464844 C 225.234375 24.503906 230.925781 21.445312 236.695312 18.542969 C 244.042969 14.851562 251.367188 11.101562 259.179688 8.441406 C 265.867188 6.164062 272.648438 4.199219 279.632812 3.105469 C 284.121094 2.402344 288.648438 1.882812 293.210938 1.910156 C 296.492188 1.851562 299.769531 1.789062 303.046875 1.734375 C 315.546875 1.75 327.113281 5.199219 338.042969 11.128906 C 344.59375 14.683594 350.40625 19.203125 355.996094 24.082031 C 361.171875 28.597656 366.351562 33.101562 371.121094 38.035156 C 374.765625 41.800781 378.464844 45.5 382.324219 49.023438 C 387.34375 53.605469 392.453125 58.078125 397.339844 62.800781 C 401.984375 67.289062 406.246094 72.109375 410.257812 77.175781 C 414.308594 82.296875 418.082031 87.601562 421.195312 93.34375 C 425.425781 101.144531 428.492188 109.371094 429.839844 118.195312 C 430.183594 120.402344 430.527344 122.605469 430.730469 124.828125 Z M 430.730469 124.828125 " fill-opacity="1" fill-rule="nonzero"/></g></g></g></g></g></g><g clip-path="url(#b509e0261b)"><g clip-path="url(#a9ac1f1c34)"><g clip-path="url(#304035b479)"><path fill="#ffffff" d="M 422.960938 129.375 C 422.972656 130.1875 422.988281 131.003906 423 131.816406 C 423.066406 135.367188 423.136719 138.921875 423.203125 142.472656 C 423.292969 145.820312 422.632812 149.097656 421.996094 152.339844 C 420.441406 160.261719 418.488281 168.09375 415.925781 175.757812 C 414.199219 180.910156 412.210938 185.960938 410.128906 190.976562 C 405.421875 202.328125 400.054688 213.40625 395.726562 224.917969 C 392.949219 232.296875 390.886719 239.867188 389.886719 247.71875 C 389.40625 251.484375 389.007812 255.242188 388.832031 259.039062 C 388.730469 261.277344 388.5 263.515625 388.683594 265.742188 C 389.023438 269.925781 389.382812 274.101562 389.949219 278.269531 C 390.605469 283.101562 391.457031 287.894531 392.375 292.679688 C 393.132812 296.609375 394.125 300.484375 395.191406 304.328125 C 397.144531 311.390625 399.40625 318.367188 402.019531 325.214844 C 405.09375 333.277344 407.792969 341.445312 409.867188 349.824219 C 410.972656 354.300781 411.65625 358.832031 412.144531 363.425781 C 412.761719 369.191406 412.765625 374.960938 412.757812 380.730469 C 412.746094 388.398438 411.203125 395.800781 408.109375 402.859375 C 406.828125 405.785156 405.390625 408.625 403.890625 411.445312 C 402.441406 414.167969 400.496094 416.519531 398.578125 418.890625 C 396.703125 421.214844 394.710938 423.445312 392.628906 425.597656 C 388.113281 430.273438 382.9375 434.109375 377.449219 437.511719 C 368.746094 442.902344 359.417969 446.988281 349.699219 450.152344 C 344.933594 451.703125 340.023438 452.722656 335.015625 453.285156 C 333.328125 453.472656 331.644531 453.652344 329.953125 453.734375 C 327.375 453.558594 324.832031 454 322.28125 454.25 C 319.367188 454.539062 316.488281 453.667969 313.578125 454.03125 C 309.5 453.917969 305.484375 453.257812 301.476562 452.578125 C 296.59375 451.746094 291.730469 450.851562 286.96875 449.429688 C 282.46875 448.085938 278.074219 446.472656 273.753906 444.65625 C 269.617188 442.917969 265.488281 441.148438 261.457031 439.183594 C 253.269531 435.191406 245.203125 430.957031 237.246094 426.515625 C 230.007812 422.46875 222.65625 418.628906 215.417969 414.589844 C 209.054688 411.042969 202.566406 407.75 195.933594 404.753906 C 187.4375 400.917969 178.769531 397.558594 169.613281 395.601562 C 164.902344 394.597656 160.160156 393.902344 155.351562 393.480469 C 151.734375 393.160156 148.132812 393.179688 144.554688 393.453125 C 140.714844 393.746094 136.855469 394.007812 133.035156 394.675781 C 129.167969 395.351562 125.242188 395.699219 121.351562 396.253906 C 117.933594 396.742188 114.523438 397.304688 111.113281 397.855469 C 106.964844 398.527344 102.824219 399.230469 98.679688 399.90625 C 95.140625 400.484375 91.597656 401.078125 88.046875 401.609375 C 85.367188 402.011719 82.683594 402.457031 79.984375 402.636719 C 74.160156 403.027344 68.351562 403.8125 62.507812 403.78125 C 50.0625 403.710938 37.894531 401.996094 26.246094 397.371094 C 20.097656 394.929688 14.269531 391.859375 8.597656 388.472656 C 3.394531 385.363281 -1.46875 381.808594 -5.96875 377.726562 C -11.726562 372.496094 -16.714844 366.628906 -21.402344 360.449219 C -27.996094 351.753906 -32.648438 342.019531 -36.703125 331.988281 C -39.832031 324.246094 -42.6875 316.390625 -44.683594 308.261719 C -45.640625 304.382812 -46.410156 300.46875 -46.867188 296.484375 C -47.433594 291.554688 -47.804688 286.625 -47.886719 281.667969 C -47.957031 277.589844 -47.617188 273.539062 -47.386719 269.476562 C -47.1875 265.949219 -46.722656 262.464844 -46.265625 258.972656 C -45.734375 254.855469 -44.664062 250.859375 -43.382812 246.921875 C -41.570312 241.347656 -39.179688 236.015625 -36.507812 230.808594 C -34.148438 226.210938 -31.613281 221.710938 -29.25 217.121094 C -27.035156 212.828125 -25.113281 208.398438 -23.09375 204.011719 C -19.789062 196.824219 -17.460938 189.316406 -15.328125 181.726562 C -13.671875 175.832031 -12.796875 169.792969 -11.757812 163.789062 C -11.289062 161.085938 -10.914062 158.273438 -11.667969 155.496094 C -11.808594 154.984375 -11.746094 154.414062 -11.761719 153.871094 C -11.835938 150.332031 -11.890625 146.792969 -11.980469 143.253906 C -12.101562 138.5 -11.769531 133.769531 -11.523438 129.023438 C -11.335938 125.363281 -11.078125 121.710938 -10.722656 118.074219 C -10.226562 113.015625 -9.214844 108.027344 -7.9375 103.101562 C -6.347656 96.972656 -4.425781 90.949219 -1.730469 85.226562 C 1.339844 78.707031 4.699219 72.320312 9.070312 66.550781 C 14.1875 59.800781 20.777344 54.925781 28.503906 51.46875 C 33.1875 49.375 37.984375 47.695312 43.039062 46.957031 C 47.808594 46.253906 52.609375 46.085938 57.457031 46.4375 C 65.707031 47.03125 73.390625 49.652344 81.0625 52.40625 C 89.515625 55.445312 98.152344 57.832031 106.988281 59.402344 C 110.171875 59.96875 113.429688 60.335938 116.707031 60.226562 C 120.585938 60.09375 124.472656 60.152344 128.347656 59.949219 C 131.660156 59.777344 134.945312 59.226562 138.234375 58.75 C 142.660156 58.105469 147.050781 57.25 151.417969 56.3125 C 157.0625 55.101562 162.6875 53.777344 168.078125 51.699219 C 174.984375 49.035156 181.820312 46.191406 188.660156 43.355469 C 191.417969 42.207031 194.132812 40.941406 196.808594 39.609375 C 201.804688 37.125 206.761719 34.570312 211.71875 32.011719 C 217.460938 29.050781 223.15625 25.992188 228.925781 23.09375 C 236.273438 19.398438 243.597656 15.648438 251.410156 12.988281 C 258.097656 10.710938 264.878906 8.746094 271.863281 7.652344 C 276.347656 6.949219 280.878906 6.429688 285.441406 6.457031 C 288.71875 6.398438 292 6.335938 295.273438 6.28125 C 307.777344 6.296875 319.34375 9.746094 330.273438 15.675781 C 336.824219 19.230469 342.636719 23.75 348.226562 28.628906 C 353.398438 33.144531 358.578125 37.648438 363.351562 42.582031 C 366.996094 46.347656 370.695312 50.050781 374.554688 53.574219 C 379.574219 58.152344 384.683594 62.625 389.570312 67.347656 C 394.214844 71.835938 398.476562 76.65625 402.484375 81.722656 C 406.539062 86.84375 410.3125 92.148438 413.425781 97.890625 C 417.652344 105.691406 420.722656 113.917969 422.070312 122.742188 C 422.414062 124.949219 422.757812 127.152344 422.960938 129.375 Z M 422.960938 129.375 " fill-opacity="1" fill-rule="nonzero"/></g></g></g></svg>