<svg xmlns="http://www.w3.org/2000/svg" xmlns:xlink="http://www.w3.org/1999/xlink" width="500" zoomAndPan="magnify" viewBox="0 0 375 119.999999" height="160" preserveAspectRatio="xMidYMid meet" version="1.0"><defs><filter x="0%" y="0%" width="100%" height="100%" id="477da7c8b1"><feColorMatrix values="0 0 0 0 1 0 0 0 0 1 0 0 0 0 1 0 0 0 1 0" color-interpolation-filters="sRGB"/></filter><mask id="028d5a9dfd"><g filter="url(#477da7c8b1)"><rect x="-37.5" width="450" fill="#000000" y="-12" height="143.999998" fill-opacity="0.33"/></g></mask><clipPath id="0852dff0fd"><path d="M 0 0 L 375 0 L 375 120 L 0 120 Z M 0 0 " clip-rule="nonzero"/></clipPath><clipPath id="a9967d6b0f"><path d="M 49 0 L 375 0 L 375 120 L 49 120 Z M 49 0 " clip-rule="nonzero"/></clipPath><clipPath id="6591c63d1d"><rect x="0" width="375" y="0" height="120"/></clipPath><mask id="bfffd39b83"><g filter="url(#477da7c8b1)"><rect x="-37.5" width="450" fill="#000000" y="-12" height="143.999998" fill-opacity="0.2"/></g></mask><clipPath id="b20125ff49"><path d="M 0 2 L 375 2 L 375 120 L 0 120 Z M 0 2 " clip-rule="nonzero"/></clipPath><clipPath id="a9c1dab9ad"><path d="M -26.09375 402.730469 L -33.261719 7.546875 L 383.671875 -0.015625 L 390.835938 395.171875 Z M -26.09375 402.730469 " clip-rule="nonzero"/></clipPath><clipPath id="868290ec77"><path d="M -26.09375 402.730469 L -33.261719 7.546875 L 383.671875 -0.015625 L 390.835938 395.171875 Z M -26.09375 402.730469 " clip-rule="nonzero"/></clipPath><clipPath id="e61be8d180"><rect x="0" width="375" y="0" height="120"/></clipPath><clipPath id="72463f0994"><path d="M 0 6 L 375 6 L 375 120 L 0 120 Z M 0 6 " clip-rule="nonzero"/></clipPath><clipPath id="746b3802b0"><path d="M -32.9375 406.734375 L -40.105469 11.550781 L 376.828125 3.992188 L 383.992188 399.175781 Z M -32.9375 406.734375 " clip-rule="nonzero"/></clipPath><clipPath id="14616f2cbf"><path d="M -32.9375 406.734375 L -40.105469 11.550781 L 376.828125 3.992188 L 383.992188 399.175781 Z M -32.9375 406.734375 " clip-rule="nonzero"/></clipPath></defs><g mask="url(#028d5a9dfd)"><g transform="matrix(1, 0, 0, 1, 0, 0.000000000000001943)"><g clip-path="url(#6591c63d1d)"><path fill="#d9d9d9" d="M 134.453125 48.6875 C 133.589844 48.828125 132.726562 48.964844 131.859375 49.105469 C 131.554688 49.152344 131.253906 49.203125 130.949219 49.253906 C 132.117188 49.066406 133.285156 48.875 134.453125 48.6875 Z M 134.453125 48.6875 " fill-opacity="1" fill-rule="nonzero"/><g clip-path="url(#0852dff0fd)"><path fill="#d9d9d9" d="M 410.890625 38.695312 C 409.84375 31.464844 408.253906 24.675781 405.953125 17.828125 C 403.863281 11.671875 401.390625 5.949219 398.1875 0.21875 C 394.769531 -5.902344 390.433594 -11.1875 385.761719 -16.351562 C 386.566406 -15.4375 387.367188 -14.523438 388.171875 -13.613281 C 385.304688 -16.871094 382.734375 -19.40625 379.425781 -22.214844 C 380.335938 -21.441406 381.246094 -20.671875 382.15625 -19.898438 C 376.246094 -25.082031 370.15625 -29.535156 363.054688 -32.980469 C 364.128906 -32.457031 365.203125 -31.933594 366.273438 -31.40625 C 364.4375 -32.410156 362.550781 -33.308594 360.671875 -34.238281 C 361.742188 -33.710938 362.8125 -33.179688 363.882812 -32.648438 C 360.492188 -34.328125 357.164062 -35.984375 353.617188 -37.296875 C 349.648438 -38.765625 345.542969 -39.726562 341.4375 -40.75 C 335.21875 -42.308594 328.90625 -42.8125 322.535156 -43.089844 C 305.1875 -43.628906 287.890625 -42.308594 270.554688 -41.824219 C 252.089844 -41.3125 233.824219 -42.035156 215.480469 -44.0625 C 188.992188 -47.375 162.109375 -52.5 135.339844 -50.339844 C 110.359375 -48.324219 86.472656 -40.035156 62.546875 -33.144531 C 43.222656 -27.582031 24.140625 -20.765625 8.378906 -7.863281 C 1.070312 -1.882812 -5.347656 5.660156 -9.730469 14.039062 C -14.859375 23.847656 -17.765625 34.078125 -18.859375 45.082031 C -19.253906 49.070312 -19.414062 53.074219 -19.316406 57.042969 C -20.785156 66.289062 -20.695312 75.832031 -19.199219 85.125 C -16.90625 99.347656 -11.757812 113.3125 -5.148438 126.074219 C 0.214844 136.429688 6.59375 145.894531 15.230469 153.8125 C 22.316406 160.308594 30.714844 164.53125 39.785156 167.4375 C 55.207031 172.378906 72.476562 170.234375 87.9375 166.597656 C 104.9375 162.605469 121.578125 157.230469 138.59375 153.308594 C 144.59375 152.1875 150.632812 151.519531 156.71875 151.121094 C 161.433594 151 166.167969 151.140625 170.878906 151.339844 C 178.5 151.976562 186.097656 152.820312 193.667969 153.890625 C 217.246094 157.714844 240.515625 163.511719 264.292969 166.085938 C 283.203125 168.132812 302.550781 168.203125 321.453125 166.144531 C 339.414062 164.191406 356.644531 158.820312 371.761719 148.78125 C 388.742188 137.503906 399.535156 119.503906 405.660156 100.445312 C 410.25 86.167969 411.941406 70.980469 411.984375 56.035156 C 411.9375 50.226562 411.730469 44.472656 410.890625 38.695312 Z M 381.285156 77.890625 C 379.996094 84.441406 378.34375 90.917969 376.105469 97.210938 C 374.246094 101.683594 372.070312 106.003906 369.527344 110.125 C 367.199219 113.40625 364.628906 116.5 361.816406 119.378906 C 358.921875 121.964844 355.839844 124.316406 352.589844 126.4375 C 348.628906 128.6875 344.492188 130.597656 340.234375 132.21875 C 332.078125 134.863281 323.644531 136.53125 315.125 137.476562 C 298.238281 139.015625 280.84375 138.589844 264.015625 136.597656 C 239.765625 133.722656 215.957031 127.851562 191.773438 124.449219 C 185.347656 123.546875 178.964844 123.042969 172.484375 122.765625 L 176.171875 122.925781 C 169.0625 122.546875 162.210938 122.386719 155.101562 122.742188 C 156.320312 122.683594 157.539062 122.625 158.757812 122.5625 C 149.925781 122.898438 141.542969 123.800781 132.933594 125.574219 C 123.070312 127.78125 113.355469 130.515625 103.644531 133.265625 C 103.976562 133.125 104.304688 132.984375 104.636719 132.84375 C 115.339844 128.644531 126.019531 124.371094 136.703125 120.117188 C 141.628906 118.15625 146.570312 116.230469 151.503906 114.28125 C 157.351562 111.976562 163.113281 109.515625 168.898438 107.054688 C 169.414062 106.847656 169.929688 106.640625 170.445312 106.4375 C 170.320312 106.484375 170.199219 106.53125 170.074219 106.578125 C 170.710938 106.332031 171.34375 106.082031 171.980469 105.816406 C 175.203125 104.480469 177.757812 101.175781 178.84375 97.957031 C 179.996094 94.542969 179.738281 90.769531 178.140625 87.546875 C 176.539062 84.320312 173.691406 81.832031 170.277344 80.683594 C 166.675781 79.46875 163.296875 79.964844 159.867188 81.386719 C 159.179688 81.671875 158.496094 81.960938 157.8125 82.25 C 147.398438 86.195312 137.097656 90.425781 126.738281 94.507812 C 125.421875 95.019531 124.105469 95.53125 122.792969 96.042969 C 119.785156 93.851562 115.929688 92.898438 112.089844 93.542969 C 104.039062 94.894531 96.601562 98.171875 89.441406 101.960938 C 90.84375 99.988281 92.050781 97.886719 93.011719 95.648438 C 94.480469 92.214844 94.757812 88.511719 93.425781 84.980469 C 91.917969 80.988281 88.761719 78.171875 84.867188 76.824219 C 85.960938 73.476562 85.722656 69.714844 84.160156 66.53125 C 83.695312 65.582031 83.128906 64.707031 82.472656 63.914062 C 82.992188 61.808594 83.007812 59.6875 82.515625 57.546875 C 82.320312 56.707031 82.046875 55.910156 81.710938 55.148438 C 85.121094 54.175781 88.546875 53.238281 91.984375 52.347656 C 93.9375 51.839844 95.890625 51.339844 97.847656 50.847656 C 101.050781 51.308594 104.355469 51.359375 107.503906 51.414062 C 115.671875 51.558594 123.804688 50.386719 131.859375 49.105469 C 139.179688 47.914062 146.453125 46.476562 153.773438 45.316406 C 158.949219 44.496094 164.117188 43.457031 169.214844 42.25 C 174.089844 41.09375 178.875 39.644531 183.632812 38.085938 C 186.933594 37.007812 190.1875 35.738281 193.25 34.09375 C 196.457031 32.371094 199.574219 30.542969 202.296875 28.199219 C 204.808594 27.253906 207.289062 26.222656 209.714844 25.078125 C 214.40625 22.863281 219.070312 20.472656 223.25 17.375 C 226.101562 15.265625 228.808594 12.878906 231.277344 10.335938 C 231.953125 9.640625 232.582031 8.902344 233.136719 8.105469 C 233.914062 6.980469 234.90625 5.644531 235.617188 4.355469 C 236.371094 2.992188 236.746094 1.414062 237.234375 -0.046875 C 237.429688 -0.644531 237.574219 -1.285156 237.660156 -1.933594 C 247.445312 -0.664062 257.195312 0.980469 266.792969 3.171875 C 270.273438 3.964844 274.542969 2.402344 277.234375 0.265625 C 280.0625 -1.980469 281.949219 -5.300781 282.40625 -8.886719 C 282.664062 -10.914062 282.464844 -12.972656 281.851562 -14.902344 C 292.917969 -15.328125 303.980469 -15.820312 315.03125 -15.882812 C 317.046875 -15.894531 319.058594 -15.90625 321.074219 -15.875 C 326.511719 -15.527344 331.914062 -14.800781 337.230469 -13.621094 C 341.535156 -12.40625 345.738281 -10.882812 349.800781 -9.015625 C 351.964844 -7.847656 354.070312 -6.570312 356.140625 -5.242188 C 357.96875 -3.875 359.75 -2.460938 361.507812 -1.007812 C 363.050781 0.480469 364.558594 2.003906 366.039062 3.558594 C 367.644531 5.527344 369.207031 7.539062 370.707031 9.59375 C 372.25 12.070312 373.707031 14.601562 375.078125 17.175781 C 376.359375 20.050781 377.539062 22.96875 378.632812 25.917969 C 379.835938 29.941406 380.871094 33.996094 381.726562 38.101562 C 382.621094 44.050781 383.144531 50.027344 383.277344 56.042969 C 383.125 63.367188 382.429688 70.65625 381.285156 77.890625 Z M 381.285156 77.890625 " fill-opacity="1" fill-rule="nonzero"/></g><g clip-path="url(#a9967d6b0f)"><path fill="#d9d9d9" d="M 394.984375 50.316406 C 394.867188 49.621094 394.683594 48.933594 394.460938 48.265625 C 394.113281 47.230469 393.722656 46.203125 393.300781 45.195312 C 393.367188 45.082031 393.4375 44.96875 393.503906 44.855469 C 394.738281 42.683594 395.351562 40.347656 395.335938 37.84375 C 395.308594 35.34375 394.660156 33.019531 393.390625 30.867188 C 392.144531 29.246094 391.1875 27.824219 389.660156 26.597656 C 388.65625 25.792969 387.640625 24.996094 386.609375 24.222656 C 389.40625 21.878906 391.386719 19.03125 391.984375 15.347656 C 392.378906 12.824219 392.117188 10.371094 391.191406 7.988281 C 390.28125 5.714844 388.875 3.808594 386.976562 2.265625 C 385.253906 0.75 383.1875 -0.382812 381.25 -1.5625 C 380.164062 -2.21875 379.019531 -2.773438 377.847656 -3.261719 C 374.160156 -4.800781 370.21875 -5.933594 366.28125 -6.640625 C 365.355469 -6.808594 364.425781 -6.945312 363.492188 -7.058594 C 363.246094 -9.742188 362.226562 -12.339844 360.539062 -14.464844 C 359.683594 -15.296875 358.832031 -16.125 357.980469 -16.953125 C 356.015625 -18.417969 353.816406 -19.3125 351.382812 -19.636719 C 344.246094 -19.953125 336.996094 -19.617188 329.957031 -18.335938 C 326.347656 -17.675781 322.757812 -16.757812 319.253906 -15.632812 C 318.691406 -17.867188 317.632812 -19.847656 316.082031 -21.570312 C 315.1875 -22.335938 314.289062 -23.097656 313.394531 -23.863281 C 311.300781 -25.21875 309.011719 -25.957031 306.519531 -26.085938 C 298.585938 -27.179688 290.53125 -27.144531 282.5625 -26.476562 C 272.980469 -25.675781 263.503906 -24.21875 254.152344 -21.980469 C 253.402344 -21.800781 252.65625 -21.613281 251.90625 -21.425781 C 250.792969 -21.269531 249.679688 -21.113281 248.5625 -20.960938 C 249.175781 -21.042969 249.789062 -21.125 250.402344 -21.207031 C 247.910156 -20.871094 245.429688 -20.519531 242.957031 -20.046875 C 239.90625 -19.464844 236.941406 -18.691406 233.945312 -17.875 C 233.089844 -17.679688 232.230469 -17.472656 231.398438 -17.234375 C 230.898438 -17.089844 230.386719 -16.921875 229.882812 -16.742188 C 228.914062 -16.441406 227.945312 -16.140625 226.980469 -15.835938 C 226.132812 -15.609375 225.28125 -15.371094 224.457031 -15.105469 C 223.921875 -14.929688 223.382812 -14.730469 222.847656 -14.523438 L 220.9375 -13.84375 C 220.289062 -13.628906 219.640625 -13.414062 218.992188 -13.195312 C 217.234375 -12.644531 215.476562 -12.078125 213.742188 -11.453125 C 210.808594 -10.394531 207.910156 -9.1875 205.007812 -8.0625 C 206.085938 -8.460938 207.167969 -8.859375 208.246094 -9.257812 C 202.496094 -7.140625 196.8125 -4.90625 191.179688 -2.507812 C 189.015625 -1.375 187.28125 0.21875 185.976562 2.28125 C 184.171875 5.167969 183.550781 8.703125 184.238281 12.035156 C 183.210938 12.089844 182.183594 12.15625 181.160156 12.234375 C 177.398438 12.515625 173.65625 13.023438 169.941406 13.683594 C 169.597656 13.472656 169.25 13.277344 168.886719 13.097656 C 167.753906 12.703125 166.617188 12.3125 165.484375 11.917969 C 162.984375 11.421875 160.527344 11.582031 158.113281 12.40625 C 146.542969 15.019531 135.171875 18.398438 123.847656 21.902344 C 120.910156 18.570312 116.398438 16.558594 111.929688 17.273438 C 106.882812 18.082031 101.925781 19.644531 97.25 21.699219 C 91.792969 24.097656 86.480469 26.941406 81.449219 30.140625 C 76.464844 33.304688 71.917969 36.960938 67.480469 40.847656 C 65.828125 42.296875 64.246094 43.828125 62.757812 45.445312 C 60.660156 47.726562 58.957031 50.234375 57.21875 52.800781 C 56.523438 53.828125 55.902344 54.910156 55.378906 56.039062 C 53.804688 59.421875 53.390625 63.09375 54.609375 66.667969 C 56.226562 71.4375 60.089844 74.457031 64.84375 75.703125 C 67.847656 76.492188 71.207031 76.480469 74.296875 76.152344 C 78.589844 75.691406 82.558594 74.683594 86.601562 73.464844 C 86.589844 73.472656 86.578125 73.480469 86.570312 73.488281 C 86.207031 73.601562 85.84375 73.714844 85.476562 73.832031 C 85.828125 73.726562 86.179688 73.621094 86.527344 73.519531 C 85.253906 74.46875 84 75.445312 82.789062 76.464844 C 82.4375 76.761719 82.089844 77.066406 81.761719 77.386719 C 79.863281 78.894531 78.453125 80.765625 77.53125 83.007812 C 76.59375 85.355469 76.308594 87.777344 76.671875 90.277344 C 77.550781 96.046875 82.613281 101.546875 88.675781 101.878906 C 89.253906 101.910156 89.835938 101.929688 90.417969 101.949219 C 90.425781 102.367188 90.449219 102.785156 90.496094 103.207031 C 90.855469 106.535156 92.554688 109.929688 95.125 112.230469 C 93.804688 112.019531 92.445312 112 91.101562 112.191406 C 87.59375 112.6875 84.390625 114.582031 82.261719 117.417969 C 80.675781 119.527344 80.011719 121.65625 79.785156 123.976562 C 78.351562 124.808594 76.917969 125.644531 75.480469 126.476562 C 75.152344 126.664062 74.820312 126.851562 74.492188 127.035156 C 70.183594 129.433594 65.863281 131.808594 61.480469 134.070312 C 59.582031 134.984375 57.695312 135.917969 55.835938 136.894531 C 49.234375 140.367188 47.292969 149.386719 50.925781 155.609375 C 52.75 158.726562 55.769531 161.019531 59.265625 161.9375 C 62.980469 162.914062 66.28125 162.15625 69.640625 160.519531 C 71.027344 159.84375 72.40625 159.152344 73.78125 158.453125 C 77.101562 156.859375 80.441406 155.335938 83.648438 153.484375 C 83.386719 153.617188 83.125 153.75 82.863281 153.878906 C 83.15625 153.734375 83.4375 153.589844 83.710938 153.449219 C 84.023438 153.265625 84.339844 153.082031 84.652344 152.890625 C 84.34375 153.074219 84.035156 153.257812 83.722656 153.441406 C 86.074219 152.226562 87.785156 151.222656 89.921875 149.785156 C 89.652344 149.949219 89.382812 150.117188 89.113281 150.285156 C 89.429688 150.085938 89.746094 149.890625 90.0625 149.6875 C 90.25 149.5625 90.441406 149.433594 90.632812 149.300781 C 90.636719 149.296875 90.640625 149.296875 90.644531 149.292969 C 90.5 149.394531 90.359375 149.492188 90.214844 149.589844 C 90.441406 149.449219 90.667969 149.304688 90.890625 149.15625 C 91.042969 149.074219 91.195312 148.988281 91.347656 148.902344 C 90.917969 149.167969 90.492188 149.429688 90.066406 149.695312 C 89.441406 150.128906 88.816406 150.5625 88.1875 151 C 89.332031 150.25 90.476562 149.5 91.621094 148.75 C 98.324219 145.027344 104.96875 141.195312 111.609375 137.355469 C 114.621094 141.425781 119.773438 143.882812 124.960938 142.855469 C 137.847656 140.304688 150.507812 136.855469 163.074219 133.046875 C 163.136719 133.121094 163.195312 133.191406 163.261719 133.261719 C 164.160156 134.023438 165.054688 134.785156 165.953125 135.550781 C 168.050781 136.898438 170.34375 137.632812 172.835938 137.757812 C 187.5625 140.246094 202.085938 137.769531 216.410156 134.179688 C 218.75 137.167969 221.792969 138.566406 225.410156 139.425781 C 235.96875 141.9375 247.125 140.59375 257.632812 138.230469 C 259.648438 139.921875 262.097656 141.03125 264.730469 141.125 C 267.011719 141.207031 269.304688 141.171875 271.585938 141.175781 C 270.363281 141.171875 269.144531 141.164062 267.925781 141.15625 C 271.566406 141.179688 275.160156 141.007812 278.734375 140.699219 C 278.113281 143.730469 278.429688 146.984375 279.644531 149.644531 C 280.671875 151.875 282.179688 153.710938 284.164062 155.15625 C 287.332031 157.445312 290.761719 157.953125 294.558594 157.625 C 307.621094 156.5 320.480469 153.828125 333.191406 150.667969 L 331.183594 151.171875 C 340.050781 149.164062 348.84375 146.839844 357.582031 144.332031 C 363.597656 142.605469 367.429688 136.03125 367.082031 130.011719 C 367.804688 129.605469 368.519531 129.191406 369.226562 128.761719 C 373.570312 126.117188 378.179688 123.140625 380.949219 118.703125 C 384.207031 113.480469 384.910156 107.546875 382.890625 102.164062 C 383.683594 101.355469 384.46875 100.535156 385.242188 99.707031 C 387.226562 97.585938 389.144531 95.382812 390.828125 93.007812 C 391.433594 91.988281 392.042969 90.96875 392.652344 89.949219 C 393.640625 87.640625 393.988281 85.234375 393.691406 82.738281 C 393.378906 80.242188 392.46875 77.992188 390.957031 75.988281 C 390.21875 75.03125 389.394531 74.191406 388.476562 73.46875 C 388.597656 73.339844 388.71875 73.207031 388.835938 73.070312 C 390.042969 71.679688 391.273438 70.207031 392.222656 68.601562 C 393.164062 67.011719 393.851562 65.246094 394.480469 63.519531 C 394.707031 62.886719 394.871094 62.230469 394.976562 61.570312 C 395.257812 59.792969 395.660156 57.824219 395.632812 55.964844 C 395.609375 54.070312 395.308594 52.171875 394.984375 50.316406 Z M 76.980469 125.652344 C 77.226562 125.503906 77.476562 125.355469 77.726562 125.207031 L 77.730469 125.203125 C 77.480469 125.351562 77.230469 125.5 76.980469 125.652344 Z M 79.785156 123.980469 C 79.109375 124.382812 78.433594 124.785156 77.757812 125.1875 C 77.753906 125.1875 77.753906 125.191406 77.75 125.191406 C 78.429688 124.789062 79.105469 124.382812 79.785156 123.980469 Z M 79.785156 123.980469 " fill-opacity="1" fill-rule="nonzero"/></g></g></g></g><g mask="url(#bfffd39b83)"><g transform="matrix(1, 0, 0, 1, 0, 0.000000000000001943)"><g clip-path="url(#e61be8d180)"><g clip-path="url(#b20125ff49)"><g clip-path="url(#a9c1dab9ad)"><g clip-path="url(#868290ec77)"><path fill="#4c5454" d="M 385.769531 110.511719 C 385.78125 111.230469 385.792969 111.949219 385.804688 112.664062 C 385.863281 115.792969 385.921875 118.921875 385.984375 122.050781 C 386.0625 125 385.480469 127.882812 384.917969 130.742188 C 383.550781 137.71875 381.832031 144.617188 379.574219 151.367188 C 378.054688 155.90625 376.300781 160.355469 374.46875 164.773438 C 370.320312 174.773438 365.59375 184.527344 361.78125 194.667969 C 359.335938 201.167969 357.519531 207.835938 356.640625 214.75 C 356.214844 218.066406 355.863281 221.378906 355.710938 224.722656 C 355.621094 226.691406 355.417969 228.664062 355.578125 230.628906 C 355.878906 234.308594 356.195312 237.992188 356.695312 241.660156 C 357.269531 245.917969 358.019531 250.136719 358.832031 254.351562 C 359.5 257.8125 360.371094 261.226562 361.3125 264.613281 C 363.03125 270.832031 365.023438 276.980469 367.324219 283.011719 C 370.03125 290.113281 372.410156 297.308594 374.234375 304.683594 C 375.210938 308.628906 375.8125 312.621094 376.246094 316.667969 C 376.789062 321.746094 376.789062 326.828125 376.78125 331.90625 C 376.773438 338.664062 375.414062 345.183594 372.691406 351.402344 C 371.5625 353.976562 370.292969 356.480469 368.972656 358.960938 C 367.699219 361.359375 365.984375 363.433594 364.296875 365.519531 C 362.640625 367.566406 360.886719 369.53125 359.054688 371.429688 C 355.078125 375.546875 350.519531 378.925781 345.683594 381.921875 C 338.019531 386.671875 329.800781 390.269531 321.242188 393.054688 C 317.042969 394.421875 312.71875 395.320312 308.304688 395.816406 C 306.820312 395.980469 305.339844 396.136719 303.847656 396.210938 C 301.574219 396.054688 299.339844 396.445312 297.089844 396.667969 C 294.523438 396.917969 291.988281 396.152344 289.425781 396.472656 C 285.832031 396.375 282.296875 395.789062 278.765625 395.191406 C 274.464844 394.460938 270.179688 393.671875 265.988281 392.417969 C 262.023438 391.234375 258.152344 389.816406 254.347656 388.214844 C 250.703125 386.683594 247.066406 385.125 243.515625 383.394531 C 236.304688 379.878906 229.199219 376.148438 222.191406 372.234375 C 215.816406 368.671875 209.339844 365.289062 202.964844 361.730469 C 197.359375 358.605469 191.644531 355.707031 185.800781 353.070312 C 178.320312 349.691406 170.683594 346.730469 162.621094 345.007812 C 158.46875 344.121094 154.292969 343.511719 150.058594 343.140625 C 146.871094 342.859375 143.699219 342.875 140.546875 343.117188 C 137.164062 343.375 133.765625 343.605469 130.402344 344.191406 C 126.996094 344.789062 123.539062 345.089844 120.109375 345.582031 C 117.097656 346.011719 114.097656 346.507812 111.09375 346.992188 C 107.441406 347.585938 103.792969 348.203125 100.140625 348.796875 C 97.023438 349.308594 93.902344 349.832031 90.777344 350.300781 C 88.414062 350.652344 86.050781 351.046875 83.671875 351.203125 C 78.542969 351.546875 73.425781 352.238281 68.28125 352.210938 C 57.320312 352.148438 46.601562 350.640625 36.339844 346.5625 C 30.925781 344.414062 25.789062 341.710938 20.796875 338.726562 C 16.210938 335.988281 11.929688 332.859375 7.96875 329.261719 C 2.894531 324.65625 -1.5 319.488281 -5.625 314.046875 C -11.4375 306.386719 -15.535156 297.8125 -19.105469 288.976562 C -21.859375 282.15625 -24.375 275.238281 -26.136719 268.078125 C -26.976562 264.660156 -27.65625 261.214844 -28.058594 257.703125 C -28.558594 253.363281 -28.882812 249.019531 -28.957031 244.652344 C -29.015625 241.0625 -28.71875 237.492188 -28.515625 233.917969 C -28.339844 230.808594 -27.929688 227.742188 -27.53125 224.664062 C -27.058594 221.035156 -26.117188 217.515625 -24.988281 214.046875 C -23.390625 209.140625 -21.285156 204.441406 -18.933594 199.855469 C -16.855469 195.808594 -14.625 191.84375 -12.539062 187.800781 C -10.589844 184.019531 -8.898438 180.117188 -7.117188 176.253906 C -4.207031 169.921875 -2.15625 163.3125 -0.277344 156.625 C 1.183594 151.433594 1.949219 146.113281 2.867188 140.824219 C 3.28125 138.445312 3.609375 135.96875 2.945312 133.519531 C 2.824219 133.070312 2.875 132.566406 2.863281 132.085938 C 2.796875 128.972656 2.75 125.855469 2.667969 122.738281 C 2.5625 118.550781 2.855469 114.382812 3.070312 110.203125 C 3.238281 106.980469 3.464844 103.761719 3.78125 100.558594 C 4.214844 96.105469 5.105469 91.710938 6.230469 87.371094 C 7.632812 81.972656 9.324219 76.664062 11.699219 71.625 C 14.402344 65.886719 17.363281 60.257812 21.210938 55.175781 C 25.71875 49.230469 31.523438 44.9375 38.332031 41.894531 C 42.453125 40.046875 46.679688 38.570312 51.132812 37.917969 C 55.335938 37.300781 59.558594 37.152344 63.832031 37.460938 C 71.097656 37.984375 77.867188 40.292969 84.625 42.71875 C 92.070312 45.394531 99.675781 47.5 107.457031 48.878906 C 110.265625 49.378906 113.132812 49.703125 116.019531 49.605469 C 119.4375 49.492188 122.859375 49.542969 126.273438 49.363281 C 129.191406 49.210938 132.082031 48.726562 134.980469 48.308594 C 138.878906 47.738281 142.746094 46.984375 146.59375 46.160156 C 151.566406 45.09375 156.519531 43.925781 161.265625 42.09375 C 167.351562 39.75 173.375 37.242188 179.394531 34.746094 C 181.828125 33.734375 184.21875 32.621094 186.574219 31.449219 C 190.976562 29.261719 195.339844 27.007812 199.707031 24.753906 C 204.765625 22.148438 209.78125 19.453125 214.863281 16.898438 C 221.332031 13.644531 227.785156 10.339844 234.667969 8 C 240.558594 5.992188 246.53125 4.261719 252.683594 3.296875 C 256.632812 2.679688 260.621094 2.21875 264.644531 2.246094 C 267.53125 2.191406 270.417969 2.140625 273.304688 2.089844 C 284.316406 2.105469 294.503906 5.140625 304.132812 10.367188 C 309.902344 13.496094 315.019531 17.480469 319.945312 21.777344 C 324.5 25.75 329.0625 29.722656 333.265625 34.066406 C 336.472656 37.378906 339.734375 40.640625 343.136719 43.746094 C 347.554688 47.777344 352.054688 51.71875 356.359375 55.878906 C 360.449219 59.832031 364.203125 64.078125 367.734375 68.539062 C 371.304688 73.050781 374.628906 77.726562 377.371094 82.78125 C 381.097656 89.652344 383.800781 96.898438 384.988281 104.671875 C 385.289062 106.613281 385.589844 108.554688 385.769531 110.511719 Z M 385.769531 110.511719 " fill-opacity="1" fill-rule="nonzero"/></g></g></g></g></g></g><g clip-path="url(#72463f0994)"><g clip-path="url(#746b3802b0)"><g clip-path="url(#14616f2cbf)"><path fill="#ffffff" d="M 378.925781 114.515625 C 378.9375 115.234375 378.949219 115.953125 378.960938 116.667969 C 379.019531 119.796875 379.078125 122.925781 379.140625 126.054688 C 379.21875 129.003906 378.636719 131.886719 378.074219 134.746094 C 376.707031 141.722656 374.988281 148.621094 372.730469 155.371094 C 371.210938 159.910156 369.457031 164.359375 367.625 168.777344 C 363.476562 178.777344 358.75 188.53125 354.9375 198.671875 C 352.492188 205.171875 350.675781 211.839844 349.796875 218.753906 C 349.371094 222.074219 349.019531 225.382812 348.867188 228.726562 C 348.777344 230.699219 348.574219 232.667969 348.734375 234.632812 C 349.035156 238.316406 349.351562 241.996094 349.851562 245.664062 C 350.425781 249.921875 351.175781 254.140625 351.988281 258.355469 C 352.65625 261.816406 353.527344 265.230469 354.46875 268.617188 C 356.1875 274.835938 358.179688 280.984375 360.480469 287.015625 C 363.1875 294.117188 365.566406 301.3125 367.390625 308.691406 C 368.367188 312.632812 368.96875 316.625 369.402344 320.671875 C 369.945312 325.75 369.945312 330.832031 369.9375 335.914062 C 369.929688 342.667969 368.570312 349.1875 365.847656 355.40625 C 364.71875 357.984375 363.449219 360.484375 362.128906 362.96875 C 360.855469 365.367188 359.140625 367.4375 357.453125 369.523438 C 355.796875 371.570312 354.042969 373.535156 352.210938 375.433594 C 348.234375 379.550781 343.675781 382.929688 338.839844 385.929688 C 331.175781 390.675781 322.957031 394.273438 314.398438 397.058594 C 310.199219 398.425781 305.875 399.324219 301.460938 399.820312 C 299.976562 399.988281 298.496094 400.144531 297.003906 400.214844 C 294.730469 400.0625 292.496094 400.449219 290.246094 400.671875 C 287.679688 400.925781 285.144531 400.15625 282.582031 400.480469 C 278.988281 400.378906 275.453125 399.796875 271.921875 399.195312 C 267.621094 398.464844 263.335938 397.675781 259.144531 396.425781 C 255.179688 395.242188 251.308594 393.820312 247.503906 392.222656 C 243.859375 390.691406 240.222656 389.128906 236.671875 387.398438 C 229.460938 383.886719 222.355469 380.15625 215.347656 376.242188 C 208.972656 372.679688 202.496094 369.292969 196.121094 365.738281 C 190.515625 362.613281 184.800781 359.714844 178.957031 357.074219 C 171.476562 353.695312 163.839844 350.734375 155.777344 349.011719 C 151.625 348.125 147.449219 347.515625 143.214844 347.144531 C 140.027344 346.863281 136.855469 346.878906 133.703125 347.121094 C 130.320312 347.378906 126.921875 347.609375 123.558594 348.199219 C 120.152344 348.792969 116.695312 349.097656 113.265625 349.585938 C 110.253906 350.015625 107.253906 350.511719 104.25 351 C 100.597656 351.589844 96.949219 352.207031 93.296875 352.804688 C 90.179688 353.3125 87.058594 353.835938 83.933594 354.304688 C 81.570312 354.65625 79.207031 355.050781 76.828125 355.210938 C 71.699219 355.554688 66.582031 356.242188 61.4375 356.214844 C 50.476562 356.15625 39.757812 354.644531 29.496094 350.570312 C 24.082031 348.417969 18.945312 345.714844 13.953125 342.730469 C 9.367188 339.996094 5.085938 336.863281 1.125 333.265625 C -3.949219 328.660156 -8.34375 323.496094 -12.46875 318.050781 C -18.28125 310.390625 -22.378906 301.816406 -25.949219 292.980469 C -28.703125 286.164062 -31.21875 279.242188 -32.980469 272.082031 C -33.820312 268.667969 -34.5 265.21875 -34.902344 261.707031 C -35.402344 257.367188 -35.726562 253.027344 -35.800781 248.65625 C -35.859375 245.066406 -35.5625 241.5 -35.359375 237.921875 C -35.183594 234.8125 -34.773438 231.746094 -34.375 228.667969 C -33.902344 225.039062 -32.960938 221.523438 -31.832031 218.054688 C -30.234375 213.144531 -28.128906 208.445312 -25.777344 203.859375 C -23.699219 199.8125 -21.46875 195.847656 -19.382812 191.804688 C -17.433594 188.027344 -15.742188 184.121094 -13.960938 180.257812 C -11.050781 173.929688 -9 167.316406 -7.121094 160.628906 C -5.660156 155.4375 -4.894531 150.117188 -3.976562 144.832031 C -3.5625 142.449219 -3.234375 139.972656 -3.898438 137.523438 C -4.019531 137.074219 -3.96875 136.570312 -3.980469 136.09375 C -4.046875 132.976562 -4.09375 129.859375 -4.175781 126.742188 C -4.28125 122.554688 -3.988281 118.386719 -3.773438 114.207031 C -3.605469 110.984375 -3.378906 107.765625 -3.0625 104.5625 C -2.628906 100.109375 -1.738281 95.714844 -0.613281 91.375 C 0.789062 85.980469 2.480469 80.671875 4.855469 75.632812 C 7.558594 69.890625 10.519531 64.261719 14.367188 59.183594 C 18.875 53.234375 24.679688 48.941406 31.488281 45.898438 C 35.609375 44.054688 39.835938 42.574219 44.289062 41.921875 C 48.492188 41.304688 52.714844 41.15625 56.988281 41.464844 C 64.253906 41.988281 71.023438 44.296875 77.78125 46.722656 C 85.226562 49.402344 92.832031 51.503906 100.613281 52.886719 C 103.421875 53.382812 106.289062 53.707031 109.175781 53.609375 C 112.59375 53.496094 116.015625 53.546875 119.429688 53.367188 C 122.347656 53.214844 125.238281 52.730469 128.136719 52.3125 C 132.035156 51.742188 135.902344 50.988281 139.75 50.164062 C 144.722656 49.097656 149.675781 47.929688 154.421875 46.101562 C 160.507812 43.753906 166.53125 41.246094 172.550781 38.75 C 174.984375 37.738281 177.375 36.625 179.730469 35.453125 C 184.132812 33.265625 188.496094 31.015625 192.863281 28.761719 C 197.921875 26.152344 202.9375 23.457031 208.019531 20.902344 C 214.488281 17.648438 220.941406 14.347656 227.824219 12.003906 C 233.714844 10 239.6875 8.269531 245.839844 7.304688 C 249.789062 6.683594 253.777344 6.226562 257.800781 6.25 C 260.6875 6.199219 263.574219 6.144531 266.460938 6.09375 C 277.472656 6.109375 287.660156 9.144531 297.289062 14.371094 C 303.058594 17.5 308.175781 21.484375 313.101562 25.78125 C 317.65625 29.757812 322.21875 33.726562 326.421875 38.070312 C 329.628906 41.386719 332.890625 44.648438 336.292969 47.75 C 340.710938 51.785156 345.210938 55.726562 349.515625 59.882812 C 353.605469 63.839844 357.359375 68.085938 360.890625 72.542969 C 364.460938 77.054688 367.785156 81.730469 370.527344 86.785156 C 374.253906 93.660156 376.957031 100.902344 378.144531 108.675781 C 378.445312 110.617188 378.746094 112.558594 378.925781 114.515625 Z M 378.925781 114.515625 " fill-opacity="1" fill-rule="nonzero"/></g></g></g></svg>