<svg xmlns="http://www.w3.org/2000/svg" xmlns:xlink="http://www.w3.org/1999/xlink" width="500" zoomAndPan="magnify" viewBox="0 0 375 225" height="300" preserveAspectRatio="xMidYMid meet" version="1.0"><defs><filter x="0%" y="0%" width="100%" height="100%" id="77965003d9"><feColorMatrix values="0 0 0 0 1 0 0 0 0 1 0 0 0 0 1 0 0 0 1 0" color-interpolation-filters="sRGB"/></filter><mask id="ea986411ec"><g filter="url(#77965003d9)"><rect x="-37.5" width="450" fill="#000000" y="-22.5" height="270" fill-opacity="0.33"/></g></mask><clipPath id="bfad99eb72"><path d="M 0 0.441406 L 375 0.441406 L 375 221.960938 L 0 221.960938 Z M 0 0.441406 " clip-rule="nonzero"/></clipPath><clipPath id="0f7d749b2e"><path d="M 49 24 L 375 24 L 375 214 L 49 214 Z M 49 24 " clip-rule="nonzero"/></clipPath><clipPath id="3269dcfa5d"><rect x="0" width="375" y="0" height="222"/></clipPath><mask id="1131ec7e4f"><g filter="url(#77965003d9)"><rect x="-37.5" width="450" fill="#000000" y="-22.5" height="270" fill-opacity="0.2"/></g></mask><clipPath id="8f816bb037"><path d="M 0 2 L 375 2 L 375 185 L 0 185 Z M 0 2 " clip-rule="nonzero"/></clipPath><clipPath id="6b95f55a71"><path d="M -39.65625 426.980469 L -47.242188 8.546875 L 394.433594 0.539062 L 402.023438 418.972656 Z M -39.65625 426.980469 " clip-rule="nonzero"/></clipPath><clipPath id="5be86ed18a"><path d="M -39.65625 426.980469 L -47.242188 8.546875 L 394.433594 0.539062 L 402.023438 418.972656 Z M -39.65625 426.980469 " clip-rule="nonzero"/></clipPath><clipPath id="bafcb76c1b"><rect x="0" width="375" y="0" height="185"/></clipPath><clipPath id="161dc682ae"><path d="M 0 47 L 375 47 L 375 225 L 0 225 Z M 0 47 " clip-rule="nonzero"/></clipPath><clipPath id="306da5f3b4"><path d="M -46.898438 471.21875 L -54.488281 52.789062 L 387.191406 44.777344 L 394.777344 463.210938 Z M -46.898438 471.21875 " clip-rule="nonzero"/></clipPath><clipPath id="2abeb186b3"><path d="M -46.898438 471.21875 L -54.488281 52.789062 L 387.191406 44.777344 L 394.777344 463.210938 Z M -46.898438 471.21875 " clip-rule="nonzero"/></clipPath></defs><g mask="url(#ea986411ec)"><g transform="matrix(1, 0, 0, 1, 0, 1)"><g clip-path="url(#3269dcfa5d)"><path fill="#d9d9d9" d="M 134.453125 100.1875 C 133.589844 100.328125 132.726562 100.464844 131.859375 100.605469 C 131.554688 100.652344 131.253906 100.703125 130.949219 100.753906 C 132.117188 100.566406 133.285156 100.375 134.453125 100.1875 Z M 134.453125 100.1875 " fill-opacity="1" fill-rule="nonzero"/><g clip-path="url(#bfad99eb72)"><path fill="#d9d9d9" d="M 410.890625 90.195312 C 409.84375 82.964844 408.253906 76.175781 405.953125 69.328125 C 403.863281 63.171875 401.390625 57.449219 398.1875 51.71875 C 394.769531 45.597656 390.433594 40.3125 385.761719 35.148438 C 386.566406 36.0625 387.367188 36.976562 388.171875 37.886719 C 385.304688 34.628906 382.734375 32.09375 379.425781 29.285156 C 380.335938 30.058594 381.246094 30.828125 382.15625 31.601562 C 376.246094 26.417969 370.15625 21.964844 363.054688 18.519531 C 364.128906 19.042969 365.203125 19.566406 366.273438 20.09375 C 364.4375 19.089844 362.550781 18.191406 360.671875 17.261719 C 361.742188 17.789062 362.8125 18.320312 363.882812 18.851562 C 360.492188 17.171875 357.164062 15.519531 353.617188 14.203125 C 349.648438 12.734375 345.542969 11.773438 341.4375 10.75 C 335.21875 9.191406 328.90625 8.6875 322.535156 8.410156 C 305.1875 7.871094 287.890625 9.191406 270.554688 9.675781 C 252.089844 10.1875 233.824219 9.464844 215.480469 7.4375 C 188.992188 4.125 162.109375 -1 135.339844 1.160156 C 110.359375 3.175781 86.472656 11.464844 62.546875 18.355469 C 43.222656 23.917969 24.140625 30.734375 8.378906 43.636719 C 1.070312 49.617188 -5.347656 57.160156 -9.730469 65.539062 C -14.859375 75.347656 -17.765625 85.578125 -18.859375 96.582031 C -19.253906 100.570312 -19.414062 104.574219 -19.316406 108.542969 C -20.785156 117.789062 -20.695312 127.332031 -19.199219 136.625 C -16.90625 150.847656 -11.757812 164.8125 -5.148438 177.574219 C 0.214844 187.929688 6.59375 197.394531 15.230469 205.3125 C 22.316406 211.808594 30.714844 216.03125 39.785156 218.9375 C 55.207031 223.878906 72.476562 221.734375 87.9375 218.097656 C 104.9375 214.105469 121.578125 208.730469 138.59375 204.808594 C 144.59375 203.6875 150.632812 203.019531 156.71875 202.621094 C 161.433594 202.5 166.167969 202.640625 170.878906 202.839844 C 178.5 203.476562 186.097656 204.320312 193.667969 205.390625 C 217.246094 209.214844 240.515625 215.011719 264.292969 217.585938 C 283.203125 219.632812 302.550781 219.703125 321.453125 217.644531 C 339.414062 215.691406 356.644531 210.320312 371.761719 200.28125 C 388.742188 189.003906 399.535156 171.003906 405.660156 151.945312 C 410.25 137.667969 411.941406 122.480469 411.984375 107.535156 C 411.9375 101.726562 411.730469 95.972656 410.890625 90.195312 Z M 381.285156 129.390625 C 379.996094 135.941406 378.34375 142.417969 376.105469 148.710938 C 374.246094 153.183594 372.070312 157.503906 369.527344 161.625 C 367.199219 164.90625 364.628906 168 361.816406 170.878906 C 358.921875 173.464844 355.839844 175.816406 352.589844 177.9375 C 348.628906 180.1875 344.492188 182.097656 340.234375 183.71875 C 332.078125 186.363281 323.644531 188.03125 315.125 188.976562 C 298.238281 190.515625 280.84375 190.089844 264.015625 188.097656 C 239.765625 185.222656 215.957031 179.351562 191.773438 175.949219 C 185.347656 175.046875 178.964844 174.542969 172.484375 174.265625 L 176.171875 174.425781 C 169.0625 174.046875 162.210938 173.886719 155.101562 174.242188 C 156.320312 174.183594 157.539062 174.125 158.757812 174.0625 C 149.925781 174.398438 141.542969 175.300781 132.933594 177.074219 C 123.070312 179.28125 113.355469 182.015625 103.644531 184.765625 C 103.976562 184.625 104.304688 184.484375 104.636719 184.34375 C 115.339844 180.144531 126.019531 175.871094 136.703125 171.617188 C 141.628906 169.65625 146.570312 167.730469 151.503906 165.78125 C 157.351562 163.476562 163.113281 161.015625 168.898438 158.554688 C 169.414062 158.347656 169.929688 158.140625 170.445312 157.9375 C 170.320312 157.984375 170.199219 158.03125 170.074219 158.078125 C 170.710938 157.832031 171.34375 157.582031 171.980469 157.316406 C 175.203125 155.980469 177.757812 152.675781 178.84375 149.457031 C 179.996094 146.042969 179.738281 142.269531 178.140625 139.046875 C 176.539062 135.820312 173.691406 133.332031 170.277344 132.183594 C 166.675781 130.96875 163.296875 131.464844 159.867188 132.886719 C 159.179688 133.171875 158.496094 133.460938 157.8125 133.75 C 147.398438 137.695312 137.097656 141.925781 126.738281 146.007812 C 125.421875 146.519531 124.105469 147.03125 122.792969 147.542969 C 119.785156 145.351562 115.929688 144.398438 112.089844 145.042969 C 104.039062 146.394531 96.601562 149.671875 89.441406 153.460938 C 90.84375 151.488281 92.050781 149.386719 93.011719 147.148438 C 94.480469 143.714844 94.757812 140.011719 93.425781 136.480469 C 91.917969 132.488281 88.761719 129.671875 84.867188 128.324219 C 85.960938 124.976562 85.722656 121.214844 84.160156 118.03125 C 83.695312 117.082031 83.128906 116.207031 82.472656 115.414062 C 82.992188 113.308594 83.007812 111.1875 82.515625 109.046875 C 82.320312 108.207031 82.046875 107.410156 81.710938 106.648438 C 85.121094 105.675781 88.546875 104.738281 91.984375 103.847656 C 93.9375 103.339844 95.890625 102.839844 97.847656 102.347656 C 101.050781 102.808594 104.355469 102.859375 107.503906 102.914062 C 115.671875 103.058594 123.804688 101.886719 131.859375 100.605469 C 139.179688 99.414062 146.453125 97.976562 153.773438 96.816406 C 158.949219 95.996094 164.117188 94.957031 169.214844 93.75 C 174.089844 92.59375 178.875 91.144531 183.632812 89.585938 C 186.933594 88.507812 190.1875 87.238281 193.25 85.59375 C 196.457031 83.871094 199.574219 82.042969 202.296875 79.699219 C 204.808594 78.753906 207.289062 77.722656 209.714844 76.578125 C 214.40625 74.363281 219.070312 71.972656 223.25 68.875 C 226.101562 66.765625 228.808594 64.378906 231.277344 61.835938 C 231.953125 61.140625 232.582031 60.402344 233.136719 59.605469 C 233.914062 58.480469 234.90625 57.144531 235.617188 55.855469 C 236.371094 54.492188 236.746094 52.914062 237.234375 51.453125 C 237.429688 50.855469 237.574219 50.214844 237.660156 49.566406 C 247.445312 50.835938 257.195312 52.480469 266.792969 54.671875 C 270.273438 55.464844 274.542969 53.902344 277.234375 51.765625 C 280.0625 49.519531 281.949219 46.199219 282.40625 42.613281 C 282.664062 40.585938 282.464844 38.527344 281.851562 36.597656 C 292.917969 36.171875 303.980469 35.679688 315.03125 35.617188 C 317.046875 35.605469 319.058594 35.59375 321.074219 35.625 C 326.511719 35.972656 331.914062 36.699219 337.230469 37.878906 C 341.535156 39.09375 345.738281 40.617188 349.800781 42.484375 C 351.964844 43.652344 354.070312 44.929688 356.140625 46.257812 C 357.96875 47.625 359.75 49.039062 361.507812 50.492188 C 363.050781 51.980469 364.558594 53.503906 366.039062 55.058594 C 367.644531 57.027344 369.207031 59.039062 370.707031 61.09375 C 372.25 63.570312 373.707031 66.101562 375.078125 68.675781 C 376.359375 71.550781 377.539062 74.46875 378.632812 77.417969 C 379.835938 81.441406 380.871094 85.496094 381.726562 89.601562 C 382.621094 95.550781 383.144531 101.527344 383.277344 107.542969 C 383.125 114.867188 382.429688 122.15625 381.285156 129.390625 Z M 381.285156 129.390625 " fill-opacity="1" fill-rule="nonzero"/></g><path fill="#d9d9d9" d="M 83.648438 204.984375 C 83.65625 204.980469 83.667969 204.972656 83.679688 204.96875 C 83.695312 204.960938 83.707031 204.949219 83.722656 204.941406 C 83.71875 204.945312 83.714844 204.945312 83.707031 204.949219 C 83.6875 204.960938 83.667969 204.972656 83.648438 204.984375 Z M 83.648438 204.984375 " fill-opacity="1" fill-rule="nonzero"/><path fill="#d9d9d9" d="M 90.0625 201.1875 C 90.015625 201.222656 89.96875 201.253906 89.921875 201.285156 C 89.96875 201.253906 90.019531 201.222656 90.066406 201.195312 C 90.117188 201.160156 90.164062 201.125 90.214844 201.089844 C 90.164062 201.125 90.113281 201.15625 90.0625 201.1875 Z M 90.0625 201.1875 " fill-opacity="1" fill-rule="nonzero"/><g clip-path="url(#0f7d749b2e)"><path fill="#d9d9d9" d="M 394.984375 101.816406 C 394.867188 101.121094 394.683594 100.433594 394.460938 99.765625 C 394.113281 98.730469 393.722656 97.703125 393.300781 96.695312 C 393.367188 96.582031 393.4375 96.46875 393.503906 96.355469 C 394.738281 94.183594 395.351562 91.847656 395.335938 89.34375 C 395.308594 86.84375 394.660156 84.519531 393.390625 82.367188 C 392.144531 80.746094 391.1875 79.324219 389.660156 78.097656 C 388.65625 77.292969 387.640625 76.496094 386.609375 75.722656 C 389.40625 73.378906 391.386719 70.53125 391.984375 66.847656 C 392.378906 64.324219 392.117188 61.871094 391.191406 59.488281 C 390.28125 57.214844 388.875 55.308594 386.976562 53.765625 C 385.253906 52.25 383.1875 51.117188 381.25 49.9375 C 380.164062 49.28125 379.019531 48.726562 377.847656 48.238281 C 374.160156 46.699219 370.21875 45.566406 366.28125 44.859375 C 365.355469 44.691406 364.425781 44.554688 363.492188 44.441406 C 363.246094 41.757812 362.226562 39.160156 360.539062 37.035156 C 359.683594 36.203125 358.832031 35.375 357.980469 34.546875 C 356.015625 33.082031 353.816406 32.1875 351.382812 31.863281 C 344.246094 31.546875 336.996094 31.882812 329.957031 33.164062 C 326.347656 33.824219 322.757812 34.742188 319.253906 35.867188 C 318.691406 33.632812 317.632812 31.652344 316.082031 29.929688 C 315.1875 29.164062 314.289062 28.402344 313.394531 27.636719 C 311.300781 26.28125 309.011719 25.542969 306.519531 25.414062 C 298.585938 24.320312 290.53125 24.355469 282.5625 25.023438 C 272.980469 25.824219 263.503906 27.28125 254.152344 29.519531 C 253.402344 29.699219 252.65625 29.886719 251.90625 30.074219 C 250.792969 30.230469 249.679688 30.386719 248.5625 30.539062 C 249.175781 30.457031 249.789062 30.375 250.402344 30.292969 C 247.910156 30.628906 245.429688 30.980469 242.957031 31.453125 C 239.90625 32.035156 236.941406 32.808594 233.945312 33.625 C 233.089844 33.820312 232.230469 34.027344 231.398438 34.265625 C 230.898438 34.410156 230.386719 34.578125 229.882812 34.757812 C 228.914062 35.058594 227.945312 35.359375 226.980469 35.664062 C 226.132812 35.890625 225.28125 36.128906 224.457031 36.394531 C 223.921875 36.570312 223.382812 36.769531 222.847656 36.976562 L 220.9375 37.65625 C 220.289062 37.871094 219.640625 38.085938 218.992188 38.304688 C 217.234375 38.855469 215.476562 39.421875 213.742188 40.046875 C 210.808594 41.105469 207.910156 42.3125 205.007812 43.4375 C 206.085938 43.039062 207.167969 42.640625 208.246094 42.242188 C 202.496094 44.359375 196.8125 46.59375 191.179688 48.992188 C 189.015625 50.125 187.28125 51.71875 185.976562 53.78125 C 184.171875 56.667969 183.550781 60.203125 184.238281 63.535156 C 183.210938 63.589844 182.183594 63.65625 181.160156 63.734375 C 177.398438 64.015625 173.65625 64.523438 169.941406 65.183594 C 169.597656 64.972656 169.25 64.777344 168.886719 64.597656 C 167.753906 64.203125 166.617188 63.8125 165.484375 63.417969 C 162.984375 62.921875 160.527344 63.082031 158.113281 63.90625 C 146.542969 66.519531 135.171875 69.898438 123.847656 73.402344 C 120.910156 70.070312 116.398438 68.058594 111.929688 68.773438 C 106.882812 69.582031 101.925781 71.144531 97.25 73.199219 C 91.792969 75.597656 86.480469 78.441406 81.449219 81.640625 C 76.464844 84.804688 71.917969 88.460938 67.480469 92.347656 C 65.828125 93.796875 64.246094 95.328125 62.757812 96.945312 C 60.660156 99.226562 58.957031 101.734375 57.21875 104.300781 C 56.523438 105.328125 55.902344 106.410156 55.378906 107.539062 C 53.804688 110.921875 53.390625 114.59375 54.609375 118.167969 C 56.226562 122.9375 60.089844 125.957031 64.84375 127.203125 C 67.847656 127.992188 71.207031 127.980469 74.296875 127.652344 C 78.589844 127.191406 82.558594 126.183594 86.601562 124.964844 C 86.589844 124.972656 86.578125 124.980469 86.570312 124.988281 C 86.207031 125.101562 85.84375 125.214844 85.476562 125.332031 C 85.828125 125.226562 86.179688 125.121094 86.527344 125.019531 C 85.253906 125.96875 84 126.945312 82.789062 127.964844 C 82.4375 128.261719 82.089844 128.566406 81.761719 128.886719 C 79.863281 130.394531 78.453125 132.265625 77.53125 134.507812 C 76.59375 136.855469 76.308594 139.277344 76.671875 141.777344 C 77.550781 147.546875 82.613281 153.046875 88.675781 153.378906 C 89.253906 153.410156 89.835938 153.429688 90.417969 153.449219 C 90.425781 153.867188 90.449219 154.285156 90.496094 154.707031 C 90.855469 158.035156 92.554688 161.429688 95.125 163.730469 C 93.804688 163.519531 92.445312 163.5 91.101562 163.691406 C 87.59375 164.1875 84.390625 166.082031 82.261719 168.917969 C 80.675781 171.027344 80.011719 173.15625 79.785156 175.476562 C 78.351562 176.308594 76.917969 177.144531 75.480469 177.976562 C 75.152344 178.164062 74.820312 178.351562 74.492188 178.535156 C 70.183594 180.933594 65.863281 183.308594 61.480469 185.570312 C 59.582031 186.484375 57.695312 187.417969 55.835938 188.394531 C 49.234375 191.867188 47.292969 200.886719 50.925781 207.109375 C 52.75 210.226562 55.769531 212.519531 59.265625 213.4375 C 62.980469 214.414062 66.28125 213.65625 69.640625 212.019531 C 71.027344 211.34375 72.40625 210.652344 73.78125 209.953125 C 77.101562 208.359375 80.441406 206.835938 83.648438 204.984375 C 83.386719 205.117188 83.125 205.25 82.863281 205.378906 C 83.15625 205.234375 83.4375 205.089844 83.710938 204.949219 C 84.023438 204.765625 84.339844 204.582031 84.652344 204.390625 C 84.34375 204.574219 84.035156 204.757812 83.722656 204.941406 C 86.074219 203.726562 87.785156 202.722656 89.921875 201.285156 C 89.652344 201.449219 89.382812 201.617188 89.113281 201.785156 C 89.429688 201.585938 89.746094 201.390625 90.0625 201.1875 C 90.25 201.0625 90.441406 200.933594 90.632812 200.800781 C 90.636719 200.796875 90.640625 200.796875 90.644531 200.792969 C 90.5 200.894531 90.359375 200.992188 90.214844 201.089844 C 90.441406 200.949219 90.667969 200.804688 90.890625 200.65625 C 91.042969 200.574219 91.195312 200.488281 91.347656 200.402344 C 90.917969 200.667969 90.492188 200.929688 90.066406 201.195312 C 89.441406 201.628906 88.816406 202.0625 88.1875 202.5 C 89.332031 201.75 90.476562 201 91.621094 200.25 C 98.324219 196.527344 104.96875 192.695312 111.609375 188.855469 C 114.621094 192.925781 119.773438 195.386719 124.960938 194.355469 C 137.847656 191.804688 150.507812 188.355469 163.074219 184.546875 C 163.136719 184.621094 163.195312 184.691406 163.261719 184.761719 C 164.160156 185.523438 165.054688 186.285156 165.953125 187.050781 C 168.050781 188.398438 170.34375 189.132812 172.835938 189.257812 C 187.5625 191.746094 202.085938 189.269531 216.410156 185.679688 C 218.75 188.667969 221.792969 190.066406 225.410156 190.925781 C 235.96875 193.4375 247.125 192.09375 257.632812 189.730469 C 259.648438 191.421875 262.097656 192.53125 264.730469 192.625 C 267.011719 192.707031 269.304688 192.671875 271.585938 192.675781 C 270.363281 192.671875 269.144531 192.664062 267.925781 192.65625 C 271.566406 192.679688 275.160156 192.507812 278.734375 192.199219 C 278.113281 195.230469 278.429688 198.484375 279.644531 201.144531 C 280.671875 203.375 282.179688 205.210938 284.164062 206.65625 C 287.332031 208.945312 290.761719 209.453125 294.558594 209.125 C 307.621094 208 320.480469 205.328125 333.191406 202.167969 L 331.183594 202.671875 C 340.050781 200.664062 348.84375 198.339844 357.582031 195.832031 C 363.597656 194.105469 367.429688 187.53125 367.082031 181.511719 C 367.804688 181.105469 368.519531 180.691406 369.226562 180.261719 C 373.570312 177.617188 378.179688 174.640625 380.949219 170.203125 C 384.207031 164.980469 384.910156 159.046875 382.890625 153.664062 C 383.683594 152.855469 384.46875 152.035156 385.242188 151.207031 C 387.226562 149.085938 389.144531 146.882812 390.828125 144.507812 C 391.433594 143.488281 392.042969 142.46875 392.652344 141.449219 C 393.640625 139.140625 393.988281 136.734375 393.691406 134.238281 C 393.378906 131.742188 392.46875 129.492188 390.957031 127.488281 C 390.21875 126.53125 389.394531 125.691406 388.476562 124.96875 C 388.597656 124.839844 388.71875 124.707031 388.835938 124.570312 C 390.042969 123.179688 391.273438 121.707031 392.222656 120.101562 C 393.164062 118.511719 393.851562 116.746094 394.480469 115.019531 C 394.707031 114.386719 394.871094 113.730469 394.976562 113.070312 C 395.257812 111.292969 395.660156 109.324219 395.632812 107.464844 C 395.609375 105.570312 395.308594 103.671875 394.984375 101.816406 Z M 76.980469 177.152344 C 77.226562 177.003906 77.476562 176.855469 77.726562 176.707031 L 77.730469 176.703125 C 77.480469 176.851562 77.230469 177 76.980469 177.152344 Z M 79.785156 175.480469 C 79.109375 175.882812 78.433594 176.285156 77.757812 176.6875 C 77.753906 176.6875 77.753906 176.691406 77.75 176.691406 C 78.429688 176.289062 79.105469 175.882812 79.785156 175.480469 Z M 79.785156 175.480469 " fill-opacity="1" fill-rule="nonzero"/></g><path fill="#d9d9d9" d="M 85.957031 203.816406 C 85.199219 204.199219 84.4375 204.585938 83.679688 204.96875 C 83.003906 205.367188 82.332031 205.765625 81.660156 206.164062 C 83.089844 205.382812 84.523438 204.597656 85.957031 203.816406 Z M 85.957031 203.816406 " fill-opacity="1" fill-rule="nonzero"/><path fill="#d9d9d9" d="M 320.5625 8.328125 C 321.222656 8.355469 321.878906 8.378906 322.535156 8.410156 C 323.105469 8.425781 323.675781 8.445312 324.246094 8.46875 C 323.019531 8.421875 321.792969 8.375 320.5625 8.328125 Z M 320.5625 8.328125 " fill-opacity="1" fill-rule="nonzero"/></g></g></g><g mask="url(#1131ec7e4f)"><g transform="matrix(1, 0, 0, 1, 0, 40)"><g clip-path="url(#bafcb76c1b)"><g clip-path="url(#8f816bb037)"><g clip-path="url(#6b95f55a71)"><g clip-path="url(#5be86ed18a)"><path fill="#4c5454" d="M 396.339844 117.648438 C 396.347656 118.40625 396.359375 119.167969 396.375 119.925781 C 396.4375 123.238281 396.5 126.550781 396.5625 129.863281 C 396.648438 132.984375 396.03125 136.035156 395.4375 139.0625 C 393.988281 146.449219 392.167969 153.75 389.777344 160.894531 C 388.167969 165.699219 386.3125 170.410156 384.375 175.085938 C 379.984375 185.671875 374.980469 196 370.945312 206.730469 C 368.355469 213.613281 366.433594 220.671875 365.5 227.992188 C 365.054688 231.503906 364.679688 235.007812 364.515625 238.546875 C 364.421875 240.632812 364.207031 242.71875 364.378906 244.796875 C 364.695312 248.695312 365.03125 252.59375 365.558594 256.476562 C 366.167969 260.984375 366.964844 265.449219 367.820312 269.910156 C 368.527344 273.574219 369.453125 277.1875 370.445312 280.773438 C 372.265625 287.355469 374.375 293.863281 376.808594 300.25 C 379.679688 307.765625 382.195312 315.382812 384.128906 323.191406 C 385.160156 327.367188 385.796875 331.589844 386.253906 335.875 C 386.828125 341.25 386.832031 346.632812 386.824219 352.007812 C 386.8125 359.160156 385.375 366.0625 382.492188 372.644531 C 381.296875 375.371094 379.953125 378.019531 378.554688 380.648438 C 377.207031 383.1875 375.390625 385.378906 373.605469 387.589844 C 371.855469 389.753906 369.996094 391.835938 368.058594 393.84375 C 363.847656 398.203125 359.019531 401.78125 353.902344 404.953125 C 345.789062 409.980469 337.089844 413.789062 328.03125 416.738281 C 323.585938 418.183594 319.007812 419.132812 314.335938 419.65625 C 312.761719 419.835938 311.195312 420 309.617188 420.078125 C 307.210938 419.914062 304.84375 420.324219 302.464844 420.558594 C 299.75 420.828125 297.0625 420.015625 294.351562 420.355469 C 290.546875 420.25 286.804688 419.632812 283.066406 418.996094 C 278.515625 418.226562 273.980469 417.386719 269.539062 416.0625 C 265.34375 414.8125 261.246094 413.308594 257.21875 411.613281 C 253.363281 409.992188 249.511719 408.34375 245.753906 406.511719 C 238.117188 402.789062 230.597656 398.84375 223.179688 394.699219 C 216.429688 390.925781 209.578125 387.34375 202.824219 383.578125 C 196.894531 380.269531 190.84375 377.203125 184.660156 374.410156 C 176.738281 370.832031 168.65625 367.699219 160.117188 365.875 C 155.726562 364.9375 151.304688 364.292969 146.820312 363.898438 C 143.449219 363.601562 140.089844 363.617188 136.753906 363.871094 C 133.171875 364.148438 129.578125 364.390625 126.015625 365.011719 C 122.410156 365.644531 118.75 365.964844 115.121094 366.484375 C 111.933594 366.9375 108.753906 367.464844 105.574219 367.976562 C 101.707031 368.605469 97.847656 369.257812 93.984375 369.886719 C 90.679688 370.425781 87.378906 370.984375 84.070312 371.476562 C 81.570312 371.851562 79.066406 372.269531 76.550781 372.433594 C 71.117188 372.800781 65.703125 373.53125 60.253906 373.5 C 48.652344 373.4375 37.304688 371.839844 26.445312 367.523438 C 20.714844 365.246094 15.277344 362.386719 9.988281 359.226562 C 5.136719 356.328125 0.605469 353.015625 -3.589844 349.207031 C -8.957031 344.332031 -13.609375 338.863281 -17.980469 333.101562 C -24.128906 324.992188 -28.46875 315.917969 -32.246094 306.5625 C -35.164062 299.34375 -37.828125 292.019531 -39.691406 284.441406 C -40.578125 280.824219 -41.296875 277.175781 -41.722656 273.460938 C -42.253906 268.863281 -42.597656 264.269531 -42.675781 259.644531 C -42.738281 255.84375 -42.425781 252.066406 -42.210938 248.277344 C -42.023438 244.988281 -41.585938 241.742188 -41.164062 238.484375 C -40.667969 234.644531 -39.667969 230.917969 -38.476562 227.25 C -36.785156 222.050781 -34.554688 217.078125 -32.066406 212.222656 C -29.867188 207.9375 -27.503906 203.742188 -25.296875 199.460938 C -23.234375 195.460938 -21.441406 191.328125 -19.558594 187.238281 C -16.476562 180.539062 -14.304688 173.539062 -12.316406 166.460938 C -10.773438 160.964844 -9.957031 155.335938 -8.988281 149.738281 C -8.550781 147.214844 -8.203125 144.59375 -8.90625 142.003906 C -9.035156 141.527344 -8.980469 140.996094 -8.992188 140.488281 C -9.0625 137.1875 -9.113281 133.890625 -9.199219 130.589844 C -9.308594 126.15625 -9 121.746094 -8.773438 117.320312 C -8.597656 113.910156 -8.355469 110.5 -8.023438 107.113281 C -7.5625 102.398438 -6.617188 97.746094 -5.425781 93.152344 C -3.941406 87.4375 -2.152344 81.820312 0.363281 76.484375 C 3.222656 70.40625 6.355469 64.453125 10.429688 59.074219 C 15.203125 52.777344 21.347656 48.234375 28.550781 45.011719 C 32.914062 43.058594 37.386719 41.492188 42.105469 40.800781 C 46.550781 40.148438 51.023438 39.992188 55.546875 40.316406 C 63.238281 40.875 70.402344 43.316406 77.558594 45.886719 C 85.4375 48.71875 93.488281 50.945312 101.726562 52.40625 C 104.699219 52.933594 107.734375 53.277344 110.792969 53.175781 C 114.40625 53.054688 118.03125 53.105469 121.644531 52.917969 C 124.734375 52.757812 127.792969 52.246094 130.859375 51.800781 C 134.988281 51.199219 139.082031 50.402344 143.15625 49.527344 C 148.417969 48.398438 153.664062 47.164062 158.6875 45.226562 C 165.125 42.742188 171.503906 40.089844 177.878906 37.445312 C 180.449219 36.375 182.984375 35.195312 185.476562 33.953125 C 190.136719 31.636719 194.757812 29.253906 199.378906 26.871094 C 204.734375 24.109375 210.039062 21.257812 215.421875 18.550781 C 222.269531 15.109375 229.101562 11.613281 236.386719 9.132812 C 242.621094 7.011719 248.945312 5.175781 255.457031 4.15625 C 259.636719 3.503906 263.859375 3.015625 268.117188 3.042969 C 271.171875 2.988281 274.230469 2.929688 277.285156 2.878906 C 288.941406 2.894531 299.726562 6.109375 309.917969 11.636719 C 316.023438 14.953125 321.445312 19.167969 326.65625 23.714844 C 331.480469 27.925781 336.308594 32.125 340.757812 36.726562 C 344.15625 40.234375 347.605469 43.6875 351.203125 46.972656 C 355.882812 51.242188 360.648438 55.414062 365.203125 59.816406 C 369.535156 64.003906 373.507812 68.496094 377.246094 73.21875 C 381.027344 77.992188 384.542969 82.941406 387.445312 88.292969 C 391.390625 95.570312 394.25 103.238281 395.507812 111.464844 C 395.828125 113.523438 396.148438 115.578125 396.339844 117.648438 Z M 396.339844 117.648438 " fill-opacity="1" fill-rule="nonzero"/></g></g></g></g></g></g><g clip-path="url(#161dc682ae)"><g clip-path="url(#306da5f3b4)"><g clip-path="url(#2abeb186b3)"><path fill="#ffffff" d="M 389.09375 161.886719 C 389.105469 162.648438 389.117188 163.40625 389.128906 164.167969 C 389.191406 167.476562 389.253906 170.789062 389.320312 174.101562 C 389.402344 177.222656 388.785156 180.277344 388.191406 183.300781 C 386.742188 190.6875 384.921875 197.992188 382.53125 205.136719 C 380.925781 209.9375 379.070312 214.648438 377.128906 219.328125 C 372.738281 229.910156 367.734375 240.238281 363.699219 250.96875 C 361.109375 257.851562 359.1875 264.910156 358.253906 272.230469 C 357.808594 275.742188 357.433594 279.246094 357.273438 282.785156 C 357.175781 284.871094 356.960938 286.960938 357.132812 289.035156 C 357.453125 292.933594 357.785156 296.832031 358.3125 300.714844 C 358.921875 305.222656 359.71875 309.691406 360.578125 314.148438 C 361.28125 317.816406 362.207031 321.425781 363.199219 325.011719 C 365.023438 331.597656 367.128906 338.105469 369.566406 344.488281 C 372.433594 352.003906 374.953125 359.621094 376.882812 367.429688 C 377.914062 371.605469 378.554688 375.832031 379.007812 380.113281 C 379.582031 385.488281 379.585938 390.871094 379.578125 396.25 C 379.570312 403.398438 378.132812 410.300781 375.246094 416.882812 C 374.050781 419.609375 372.710938 422.257812 371.3125 424.886719 C 369.960938 427.425781 368.144531 429.617188 366.359375 431.828125 C 364.609375 433.996094 362.753906 436.074219 360.8125 438.082031 C 356.601562 442.441406 351.777344 446.019531 346.65625 449.191406 C 338.542969 454.21875 329.847656 458.027344 320.785156 460.976562 C 316.339844 462.421875 311.761719 463.375 307.09375 463.898438 C 305.519531 464.074219 303.949219 464.242188 302.375 464.316406 C 299.96875 464.152344 297.601562 464.566406 295.21875 464.800781 C 292.503906 465.066406 289.820312 464.253906 287.105469 464.59375 C 283.300781 464.488281 279.558594 463.871094 275.820312 463.238281 C 271.269531 462.464844 266.734375 461.628906 262.292969 460.304688 C 258.101562 459.050781 254 457.546875 249.972656 455.855469 C 246.117188 454.234375 242.265625 452.582031 238.507812 450.75 C 230.871094 447.03125 223.351562 443.082031 215.933594 438.9375 C 209.1875 435.167969 202.332031 431.585938 195.582031 427.820312 C 189.648438 424.511719 183.597656 421.441406 177.414062 418.648438 C 169.492188 415.070312 161.410156 411.9375 152.875 410.117188 C 148.480469 409.179688 144.058594 408.53125 139.574219 408.136719 C 136.203125 407.839844 132.84375 407.855469 129.511719 408.113281 C 125.929688 408.386719 122.332031 408.628906 118.769531 409.253906 C 115.164062 409.882812 111.503906 410.203125 107.875 410.722656 C 104.6875 411.175781 101.511719 411.703125 98.328125 412.21875 C 94.464844 412.84375 90.601562 413.496094 86.738281 414.128906 C 83.4375 414.667969 80.132812 415.222656 76.824219 415.71875 C 74.324219 416.089844 71.820312 416.507812 69.304688 416.675781 C 63.875 417.039062 58.457031 417.769531 53.011719 417.742188 C 41.40625 417.675781 30.0625 416.078125 19.199219 411.761719 C 13.46875 409.488281 8.03125 406.625 2.746094 403.464844 C -2.105469 400.570312 -6.640625 397.253906 -10.835938 393.449219 C -16.203125 388.574219 -20.855469 383.101562 -25.222656 377.339844 C -31.375 369.230469 -35.714844 360.15625 -39.492188 350.800781 C -42.410156 343.585938 -45.074219 336.257812 -46.933594 328.679688 C -47.824219 325.0625 -48.542969 321.414062 -48.96875 317.699219 C -49.496094 313.105469 -49.84375 308.507812 -49.917969 303.882812 C -49.984375 300.082031 -49.667969 296.304688 -49.453125 292.519531 C -49.269531 289.226562 -48.832031 285.980469 -48.410156 282.726562 C -47.910156 278.882812 -46.914062 275.160156 -45.71875 271.488281 C -44.027344 266.292969 -41.800781 261.316406 -39.308594 256.464844 C -37.109375 252.179688 -34.75 247.980469 -32.542969 243.703125 C -30.476562 239.703125 -28.6875 235.570312 -26.804688 231.480469 C -23.722656 224.777344 -21.550781 217.777344 -19.5625 210.699219 C -18.015625 205.203125 -17.203125 199.574219 -16.230469 193.976562 C -15.796875 191.457031 -15.449219 188.832031 -16.148438 186.242188 C -16.28125 185.765625 -16.222656 185.234375 -16.234375 184.726562 C -16.308594 181.425781 -16.359375 178.128906 -16.441406 174.832031 C -16.554688 170.398438 -16.246094 165.984375 -16.015625 161.558594 C -15.839844 158.148438 -15.597656 154.742188 -15.265625 151.351562 C -14.804688 146.636719 -13.863281 141.984375 -12.671875 137.390625 C -11.1875 131.679688 -9.398438 126.058594 -6.882812 120.726562 C -4.019531 114.648438 -0.890625 108.691406 3.1875 103.3125 C 7.957031 97.019531 14.101562 92.472656 21.308594 89.25 C 25.671875 87.296875 30.144531 85.734375 34.859375 85.042969 C 39.304688 84.390625 43.78125 84.230469 48.300781 84.558594 C 55.992188 85.113281 63.160156 87.554688 70.3125 90.125 C 78.191406 92.960938 86.246094 95.183594 94.484375 96.648438 C 97.453125 97.175781 100.492188 97.519531 103.546875 97.414062 C 107.164062 97.292969 110.785156 97.347656 114.398438 97.15625 C 117.488281 96.996094 120.550781 96.484375 123.617188 96.039062 C 127.746094 95.4375 131.835938 94.640625 135.910156 93.765625 C 141.171875 92.636719 146.417969 91.402344 151.441406 89.464844 C 157.882812 86.980469 164.257812 84.328125 170.632812 81.683594 C 173.207031 80.617188 175.738281 79.433594 178.234375 78.195312 C 182.890625 75.878906 187.511719 73.496094 192.132812 71.109375 C 197.488281 68.347656 202.796875 65.496094 208.175781 62.792969 C 215.027344 59.347656 221.855469 55.851562 229.140625 53.371094 C 235.375 51.25 241.699219 49.417969 248.210938 48.394531 C 252.394531 47.742188 256.617188 47.253906 260.871094 47.28125 C 263.929688 47.226562 266.984375 47.171875 270.039062 47.117188 C 281.695312 47.132812 292.480469 50.347656 302.671875 55.878906 C 308.78125 59.191406 314.199219 63.40625 319.410156 67.957031 C 324.234375 72.164062 329.0625 76.367188 333.511719 80.964844 C 336.910156 84.472656 340.359375 87.925781 343.960938 91.210938 C 348.636719 95.480469 353.402344 99.652344 357.960938 104.054688 C 362.289062 108.242188 366.265625 112.734375 370 117.457031 C 373.78125 122.234375 377.300781 127.179688 380.199219 132.53125 C 384.144531 139.808594 387.003906 147.476562 388.261719 155.703125 C 388.582031 157.761719 388.902344 159.816406 389.09375 161.886719 Z M 389.09375 161.886719 " fill-opacity="1" fill-rule="nonzero"/></g></g></g></svg>