<svg xmlns="http://www.w3.org/2000/svg" xmlns:xlink="http://www.w3.org/1999/xlink" width="500" zoomAndPan="magnify" viewBox="0 0 375 374.999991" height="500" preserveAspectRatio="xMidYMid meet" version="1.0"><defs><clipPath id="71f5225f02"><path d="M 303 277 L 361 277 L 361 319.699219 L 303 319.699219 Z M 303 277 " clip-rule="nonzero"/></clipPath><clipPath id="0ca8111d36"><path d="M 7.695312 89 L 56 89 L 56 132 L 7.695312 132 Z M 7.695312 89 " clip-rule="nonzero"/></clipPath><clipPath id="c346d9f00d"><path d="M 320 118 L 366.945312 118 L 366.945312 166 L 320 166 Z M 320 118 " clip-rule="nonzero"/></clipPath></defs><path fill="#b0cceb" d="M 219.199219 274.265625 C 206.078125 274.265625 193.519531 271.640625 182.851562 264.929688 C 161.136719 251.25 151.957031 224.539062 155.515625 185.53125 C 155.953125 180.835938 156.5 176.414062 157.15625 172.269531 C 143.898438 165.683594 133.839844 156.332031 127.101562 144.269531 C 106.847656 108.019531 126.394531 61.988281 127.238281 60.050781 L 154.300781 71.714844 C 154.160156 72.054688 139.714844 106.511719 152.894531 129.9375 C 154.375 132.53125 156.140625 134.90625 158.195312 137.074219 C 160.25 139.238281 162.53125 141.128906 165.039062 142.746094 C 174.082031 120.84375 187.328125 111.914062 198.664062 108.554688 C 219.582031 102.335938 239.730469 113.195312 250.398438 126.714844 C 260.195312 139.132812 262.210938 153.929688 255.671875 165.335938 C 246.457031 181.328125 224.585938 186.972656 190.640625 182.089844 C 188.953125 181.847656 187.296875 181.582031 185.667969 181.289062 C 185.390625 183.480469 185.132812 185.808594 184.914062 188.199219 C 182.4375 215.25 187.03125 232.65625 198.574219 239.933594 C 224.433594 256.238281 284.371094 227.675781 303.304688 216.386719 L 318.421875 241.726562 C 311.464844 245.878906 262.355469 274.257812 219.199219 274.265625 Z M 192.828125 152.625 C 193.472656 152.730469 194.121094 152.828125 194.777344 152.921875 C 222.015625 156.832031 229.136719 151.472656 229.996094 150.703125 C 229.996094 149.28125 228.238281 144.933594 223.125 140.976562 C 220.9375 139.289062 213.207031 134.050781 205.515625 137.398438 C 202.660156 138.65625 197.445312 142.273438 192.847656 152.625 Z M 192.828125 152.625 " fill-opacity="1" fill-rule="nonzero"/><path fill="#ffa4ba" d="M 58.664062 227.039062 L 105.785156 207.738281 L 115.996094 232.675781 L 68.875 251.972656 Z M 58.664062 227.039062 " fill-opacity="1" fill-rule="nonzero"/><path fill="#ffa4ba" d="M 265.222656 16.070312 L 294.421875 57.789062 L 272.347656 73.238281 L 243.148438 31.523438 Z M 265.222656 16.070312 " fill-opacity="1" fill-rule="nonzero"/><g clip-path="url(#71f5225f02)"><path fill="#f4d189" d="M 303.074219 294.03125 L 351.175781 277.335938 L 360.011719 302.792969 L 311.90625 319.488281 Z M 303.074219 294.03125 " fill-opacity="1" fill-rule="nonzero"/></g><g clip-path="url(#0ca8111d36)"><path fill="#f4d189" d="M 31.804688 89.890625 L 7.695312 131.648438 L 55.914062 131.648438 Z M 31.804688 89.890625 " fill-opacity="1" fill-rule="nonzero"/></g><g clip-path="url(#c346d9f00d)"><path fill="#b0cceb" d="M 366.945312 165.554688 L 354.457031 118.976562 L 320.363281 153.070312 Z M 366.945312 165.554688 " fill-opacity="1" fill-rule="nonzero"/></g></svg>