<svg xmlns="http://www.w3.org/2000/svg" xmlns:xlink="http://www.w3.org/1999/xlink" width="500" zoomAndPan="magnify" viewBox="0 0 375 374.999991" height="500" preserveAspectRatio="xMidYMid meet" version="1.0"><defs><filter x="0%" y="0%" width="100%" height="100%" id="37b7ebaa58"><feColorMatrix values="0 0 0 0 1 0 0 0 0 1 0 0 0 0 1 0 0 0 1 0" color-interpolation-filters="sRGB"/></filter><mask id="d99ecb5b82"><g filter="url(#37b7ebaa58)"><rect x="-37.5" width="450" fill="#000000" y="-37.499999" height="449.999989" fill-opacity="0.7"/></g></mask><clipPath id="6474b58e31"><path d="M 0.160156 0.742188 L 324.878906 0.742188 L 324.878906 343.492188 L 0.160156 343.492188 Z M 0.160156 0.742188 " clip-rule="nonzero"/></clipPath><clipPath id="04993a0ab2"><rect x="0" width="325" y="0" height="344"/></clipPath><clipPath id="244e5835c2"><path d="M 18.292969 6.703125 L 343 6.703125 L 343 349.453125 L 18.292969 349.453125 Z M 18.292969 6.703125 " clip-rule="nonzero"/></clipPath></defs><g mask="url(#d99ecb5b82)"><g transform="matrix(1, 0, 0, 1, 32, 25)"><g clip-path="url(#04993a0ab2)"><g clip-path="url(#6474b58e31)"><path fill="#4c5454" d="M 233.929688 343.257812 C 233.34375 343.257812 232.753906 343.257812 232.164062 343.257812 C 229.59375 343.257812 227.027344 343.257812 224.453125 343.261719 C 222.03125 343.285156 219.671875 342.761719 217.335938 342.257812 C 211.628906 341.03125 205.988281 339.515625 200.480469 337.5625 C 196.777344 336.246094 193.148438 334.742188 189.546875 333.171875 C 181.402344 329.617188 173.460938 325.59375 165.195312 322.3125 C 159.890625 320.207031 154.445312 318.613281 148.78125 317.789062 C 146.0625 317.394531 143.351562 317.054688 140.605469 316.878906 C 138.988281 316.773438 137.375 316.578125 135.761719 316.683594 C 132.734375 316.875 129.707031 317.078125 126.6875 317.433594 C 123.179688 317.84375 119.707031 318.398438 116.234375 319 C 113.382812 319.496094 110.566406 320.164062 107.773438 320.882812 C 102.640625 322.203125 97.5625 323.746094 92.578125 325.546875 C 86.707031 327.664062 80.761719 329.507812 74.679688 330.898438 C 71.425781 331.640625 68.140625 332.074219 64.8125 332.367188 C 60.632812 332.738281 56.460938 332.664062 52.289062 332.582031 C 46.742188 332.476562 41.410156 331.261719 36.34375 328.933594 C 34.246094 327.96875 32.210938 326.890625 30.191406 325.769531 C 28.242188 324.6875 26.566406 323.246094 24.878906 321.832031 C 23.222656 320.441406 21.636719 318.972656 20.105469 317.441406 C 16.785156 314.113281 14.078125 310.320312 11.6875 306.304688 C 7.902344 299.941406 5.070312 293.140625 2.910156 286.070312 C 1.851562 282.601562 1.179688 279.039062 0.839844 275.410156 C 0.722656 274.1875 0.617188 272.96875 0.578125 271.742188 C 0.742188 269.878906 0.453125 268.039062 0.304688 266.1875 C 0.136719 264.078125 0.804688 262.007812 0.578125 259.898438 C 0.714844 256.949219 1.246094 254.054688 1.789062 251.164062 C 2.453125 247.644531 3.167969 244.140625 4.257812 240.714844 C 5.285156 237.476562 6.511719 234.320312 7.878906 231.21875 C 9.191406 228.25 10.527344 225.289062 12 222.398438 C 14.992188 216.527344 18.160156 210.75 21.480469 205.058594 C 24.5 199.875 27.375 194.609375 30.390625 189.425781 C 33.039062 184.871094 35.503906 180.222656 37.757812 175.464844 C 40.644531 169.371094 43.1875 163.148438 44.722656 156.550781 C 45.511719 153.15625 46.074219 149.734375 46.445312 146.265625 C 46.722656 143.652344 46.757812 141.046875 46.605469 138.457031 C 46.441406 135.675781 46.304688 132.882812 45.871094 130.109375 C 45.433594 127.304688 45.234375 124.460938 44.882812 121.640625 C 44.578125 119.160156 44.214844 116.6875 43.859375 114.214844 C 43.425781 111.207031 42.976562 108.203125 42.539062 105.199219 C 42.167969 102.628906 41.785156 100.058594 41.445312 97.484375 C 41.191406 95.542969 40.902344 93.59375 40.808594 91.640625 C 40.601562 87.421875 40.113281 83.210938 40.210938 78.988281 C 40.425781 69.988281 41.824219 61.210938 45.324219 52.84375 C 47.171875 48.433594 49.464844 44.257812 51.988281 40.199219 C 54.304688 36.476562 56.941406 33.007812 59.953125 29.808594 C 63.808594 25.710938 68.117188 22.179688 72.648438 18.875 C 79.023438 14.21875 86.121094 10.980469 93.433594 8.179688 C 99.070312 6.019531 104.789062 4.054688 110.695312 2.71875 C 113.511719 2.078125 116.351562 1.574219 119.242188 1.296875 C 122.8125 0.949219 126.382812 0.746094 129.96875 0.753906 C 132.917969 0.753906 135.84375 1.050781 138.777344 1.273438 C 141.328125 1.464844 143.839844 1.847656 146.359375 2.222656 C 149.332031 2.660156 152.207031 3.488281 155.039062 4.464844 C 159.042969 5.851562 162.871094 7.648438 166.601562 9.648438 C 169.894531 11.414062 173.117188 13.304688 176.40625 15.078125 C 179.476562 16.734375 182.660156 18.183594 185.804688 19.699219 C 190.957031 22.183594 196.355469 23.96875 201.820312 25.609375 C 206.058594 26.882812 210.414062 27.59375 214.742188 28.425781 C 216.691406 28.800781 218.722656 29.109375 220.742188 28.597656 C 221.113281 28.503906 221.523438 28.554688 221.917969 28.554688 C 224.476562 28.546875 227.035156 28.550781 229.597656 28.53125 C 233.035156 28.507812 236.453125 28.8125 239.882812 29.050781 C 242.527344 29.234375 245.167969 29.46875 247.792969 29.773438 C 251.441406 30.199219 255.035156 30.996094 258.582031 31.984375 C 262.992188 33.214844 267.324219 34.683594 271.429688 36.707031 C 276.101562 39.011719 280.675781 41.527344 284.792969 44.761719 C 289.605469 48.554688 293.046875 53.382812 295.445312 59.015625 C 296.898438 62.429688 298.046875 65.917969 298.515625 69.585938 C 298.960938 73.046875 299.019531 76.515625 298.703125 80.019531 C 298.164062 85.976562 296.171875 91.5 294.074219 97.011719 C 291.765625 103.085938 289.929688 109.300781 288.675781 115.667969 C 288.226562 117.964844 287.917969 120.316406 287.953125 122.6875 C 288 125.496094 287.90625 128.304688 288 131.109375 C 288.082031 133.507812 288.4375 135.890625 288.738281 138.273438 C 289.148438 141.484375 289.707031 144.667969 290.328125 147.84375 C 291.132812 151.941406 292.015625 156.023438 293.445312 159.949219 C 295.28125 164.980469 297.25 169.960938 299.210938 174.945312 C 300.003906 176.953125 300.886719 178.933594 301.8125 180.886719 C 303.542969 184.53125 305.328125 188.152344 307.113281 191.769531 C 309.175781 195.960938 311.316406 200.117188 313.335938 204.328125 C 315.910156 209.691406 318.527344 215.039062 320.351562 220.722656 C 321.90625 225.589844 323.238281 230.519531 323.941406 235.582031 C 324.390625 238.835938 324.707031 242.117188 324.625 245.417969 C 324.625 247.789062 324.625 250.164062 324.625 252.53125 C 324.449219 261.574219 321.804688 269.894531 317.371094 277.71875 C 314.714844 282.410156 311.371094 286.554688 307.769531 290.535156 C 304.4375 294.214844 301.109375 297.902344 297.480469 301.289062 C 294.710938 303.875 291.984375 306.5 289.386719 309.246094 C 286.007812 312.816406 282.703125 316.453125 279.226562 319.925781 C 275.917969 323.222656 272.375 326.242188 268.660156 329.078125 C 264.90625 331.941406 261.015625 334.601562 256.824219 336.773438 C 251.128906 339.730469 245.136719 341.84375 238.738281 342.703125 C 237.140625 342.921875 235.542969 343.140625 233.929688 343.257812 Z M 233.929688 343.257812 " fill-opacity="1" fill-rule="nonzero"/></g></g></g></g><g clip-path="url(#244e5835c2)"><path fill="#fff7d5" d="M 252.085938 349.222656 C 251.496094 349.21875 250.90625 349.21875 250.316406 349.21875 C 247.75 349.21875 245.179688 349.222656 242.609375 349.226562 C 240.1875 349.246094 237.828125 348.722656 235.488281 348.21875 C 229.78125 346.992188 224.140625 345.480469 218.632812 343.523438 C 214.929688 342.210938 211.304688 340.703125 207.703125 339.132812 C 199.554688 335.578125 191.617188 331.554688 183.347656 328.273438 C 178.046875 326.167969 172.597656 324.578125 166.933594 323.75 C 164.21875 323.355469 161.503906 323.015625 158.761719 322.839844 C 157.144531 322.734375 155.527344 322.539062 153.914062 322.644531 C 150.886719 322.835938 147.859375 323.039062 144.839844 323.394531 C 141.335938 323.804688 137.859375 324.359375 134.386719 324.960938 C 131.535156 325.457031 128.71875 326.125 125.925781 326.84375 C 120.792969 328.164062 115.714844 329.707031 110.730469 331.507812 C 104.859375 333.625 98.917969 335.472656 92.832031 336.859375 C 89.582031 337.601562 86.292969 338.035156 82.964844 338.332031 C 78.789062 338.699219 74.613281 338.628906 70.441406 338.546875 C 64.894531 338.4375 59.5625 337.226562 54.5 334.894531 C 52.398438 333.929688 50.367188 332.851562 48.347656 331.730469 C 46.394531 330.648438 44.722656 329.207031 43.03125 327.792969 C 41.375 326.402344 39.789062 324.933594 38.257812 323.402344 C 34.9375 320.074219 32.230469 316.28125 29.839844 312.265625 C 26.054688 305.902344 23.226562 299.101562 21.066406 292.035156 C 20.003906 288.566406 19.332031 285 18.992188 281.371094 C 18.875 280.148438 18.769531 278.929688 18.734375 277.707031 C 18.894531 275.84375 18.609375 274 18.460938 272.148438 C 18.289062 270.039062 18.957031 267.96875 18.730469 265.859375 C 18.867188 262.910156 19.398438 260.015625 19.945312 257.125 C 20.609375 253.609375 21.320312 250.101562 22.410156 246.675781 C 23.441406 243.441406 24.664062 240.28125 26.035156 237.183594 C 27.34375 234.214844 28.679688 231.25 30.152344 228.359375 C 33.148438 222.492188 36.316406 216.714844 39.632812 211.019531 C 42.652344 205.835938 45.527344 200.570312 48.542969 195.386719 C 51.195312 190.832031 53.65625 186.183594 55.914062 181.425781 C 58.796875 175.332031 61.34375 169.109375 62.875 162.511719 C 63.664062 159.117188 64.230469 155.699219 64.597656 152.226562 C 64.875 149.613281 64.910156 147.007812 64.757812 144.417969 C 64.597656 141.636719 64.457031 138.84375 64.023438 136.074219 C 63.585938 133.265625 63.390625 130.421875 63.039062 127.601562 C 62.730469 125.121094 62.367188 122.652344 62.011719 120.175781 C 61.582031 117.167969 61.128906 114.164062 60.695312 111.160156 C 60.320312 108.589844 59.9375 106.019531 59.601562 103.445312 C 59.347656 101.503906 59.058594 99.554688 58.964844 97.601562 C 58.757812 93.382812 58.265625 89.171875 58.367188 84.949219 C 58.578125 75.949219 59.976562 67.171875 63.476562 58.808594 C 65.324219 54.394531 67.621094 50.21875 70.144531 46.160156 C 72.460938 42.441406 75.09375 38.96875 78.105469 35.769531 C 81.960938 31.675781 86.269531 28.144531 90.800781 24.835938 C 97.179688 20.179688 104.277344 16.941406 111.585938 14.140625 C 117.226562 11.980469 122.945312 10.019531 128.851562 8.679688 C 131.667969 8.042969 134.507812 7.535156 137.394531 7.257812 C 140.964844 6.910156 144.535156 6.707031 148.125 6.714844 C 151.074219 6.71875 154 7.015625 156.933594 7.234375 C 159.484375 7.425781 161.996094 7.808594 164.515625 8.183594 C 167.488281 8.621094 170.363281 9.449219 173.191406 10.425781 C 177.199219 11.8125 181.023438 13.609375 184.753906 15.609375 C 188.046875 17.375 191.269531 19.265625 194.558594 21.039062 C 197.632812 22.695312 200.8125 24.144531 203.957031 25.660156 C 209.113281 28.148438 214.511719 29.929688 219.972656 31.570312 C 224.214844 32.847656 228.570312 33.558594 232.898438 34.386719 C 234.847656 34.761719 236.875 35.070312 238.894531 34.5625 C 239.265625 34.46875 239.679688 34.519531 240.070312 34.515625 C 242.632812 34.507812 245.191406 34.515625 247.75 34.496094 C 251.191406 34.46875 254.609375 34.773438 258.039062 35.011719 C 260.679688 35.195312 263.320312 35.429688 265.945312 35.738281 C 269.59375 36.160156 273.191406 36.957031 276.738281 37.945312 C 281.148438 39.175781 285.480469 40.644531 289.582031 42.671875 C 294.253906 44.976562 298.832031 47.488281 302.945312 50.726562 C 307.761719 54.515625 311.199219 59.34375 313.597656 64.976562 C 315.050781 68.390625 316.203125 71.882812 316.671875 75.550781 C 317.113281 79.007812 317.175781 82.480469 316.859375 85.980469 C 316.320312 91.941406 314.324219 97.464844 312.230469 102.976562 C 309.921875 109.046875 308.082031 115.261719 306.832031 121.632812 C 306.382812 123.929688 306.070312 126.277344 306.109375 128.648438 C 306.152344 131.457031 306.058594 134.265625 306.15625 137.070312 C 306.238281 139.46875 306.589844 141.851562 306.894531 144.234375 C 307.300781 147.449219 307.863281 150.632812 308.484375 153.804688 C 309.285156 157.902344 310.167969 161.988281 311.601562 165.910156 C 313.4375 170.941406 315.40625 175.921875 317.367188 180.90625 C 318.160156 182.917969 319.039062 184.898438 319.96875 186.847656 C 321.699219 190.496094 323.480469 194.113281 325.265625 197.730469 C 327.332031 201.921875 329.46875 206.078125 331.492188 210.289062 C 334.066406 215.652344 336.683594 221 338.503906 226.683594 C 340.0625 231.550781 341.394531 236.480469 342.09375 241.546875 C 342.542969 244.796875 342.859375 248.082031 342.78125 251.382812 C 342.78125 253.753906 342.78125 256.125 342.777344 258.496094 C 342.601562 267.535156 339.957031 275.855469 335.527344 283.683594 C 332.871094 288.371094 329.523438 292.515625 325.921875 296.496094 C 322.589844 300.175781 319.261719 303.863281 315.632812 307.25 C 312.863281 309.835938 310.136719 312.460938 307.539062 315.207031 C 304.160156 318.777344 300.859375 322.414062 297.378906 325.886719 C 294.070312 329.1875 290.53125 332.207031 286.816406 335.039062 C 283.058594 337.902344 279.171875 340.5625 274.980469 342.738281 C 269.28125 345.695312 263.292969 347.804688 256.894531 348.664062 C 255.292969 348.882812 253.695312 349.101562 252.085938 349.222656 Z M 252.085938 349.222656 " fill-opacity="1" fill-rule="nonzero"/></g></svg>