<svg xmlns="http://www.w3.org/2000/svg" xmlns:xlink="http://www.w3.org/1999/xlink" width="500" zoomAndPan="magnify" viewBox="0 0 375 374.999991" height="500" preserveAspectRatio="xMidYMid meet" version="1.0"><defs><clipPath id="31ca37f4ca"><path d="M 37.480469 39.101562 L 347.980469 39.101562 L 347.980469 366.101562 L 37.480469 366.101562 Z M 37.480469 39.101562 " clip-rule="nonzero"/></clipPath><clipPath id="036e5fde45"><path d="M 22.597656 15.949219 L 333 15.949219 L 333 342.949219 L 22.597656 342.949219 Z M 22.597656 15.949219 " clip-rule="nonzero"/></clipPath></defs><g clip-path="url(#31ca37f4ca)"><path fill="#157569" d="M 260.882812 366.390625 C 260.320312 366.390625 259.757812 366.386719 259.195312 366.386719 C 256.738281 366.390625 254.285156 366.390625 251.828125 366.394531 C 249.511719 366.414062 247.257812 365.917969 245.023438 365.433594 C 239.570312 364.261719 234.183594 362.816406 228.917969 360.949219 C 225.378906 359.691406 221.914062 358.253906 218.472656 356.753906 C 210.6875 353.355469 203.101562 349.507812 195.199219 346.375 C 190.132812 344.363281 184.929688 342.84375 179.515625 342.054688 C 176.921875 341.675781 174.328125 341.351562 171.707031 341.183594 C 170.160156 341.082031 168.617188 340.898438 167.074219 340.996094 C 164.183594 341.179688 161.289062 341.375 158.40625 341.714844 C 155.054688 342.105469 151.734375 342.632812 148.417969 343.210938 C 145.691406 343.683594 143 344.320312 140.332031 345.007812 C 135.425781 346.269531 130.574219 347.746094 125.8125 349.464844 C 120.203125 351.488281 114.523438 353.253906 108.707031 354.578125 C 105.601562 355.289062 102.460938 355.703125 99.28125 355.984375 C 95.289062 356.339844 91.300781 356.269531 87.3125 356.191406 C 82.015625 356.085938 76.917969 354.929688 72.078125 352.703125 C 70.074219 351.78125 68.128906 350.75 66.199219 349.679688 C 64.335938 348.644531 62.734375 347.269531 61.121094 345.914062 C 59.539062 344.589844 58.023438 343.183594 56.5625 341.71875 C 53.386719 338.539062 50.800781 334.914062 48.515625 331.078125 C 44.902344 324.996094 42.195312 318.5 40.132812 311.746094 C 39.117188 308.429688 38.476562 305.023438 38.148438 301.558594 C 38.039062 300.390625 37.9375 299.222656 37.902344 298.054688 C 38.058594 296.273438 37.78125 294.511719 37.640625 292.746094 C 37.480469 290.730469 38.117188 288.75 37.902344 286.734375 C 38.03125 283.917969 38.539062 281.152344 39.058594 278.390625 C 39.695312 275.027344 40.375 271.675781 41.417969 268.402344 C 42.402344 265.3125 43.570312 262.292969 44.878906 259.332031 C 46.132812 256.496094 47.40625 253.664062 48.816406 250.902344 C 51.675781 245.292969 54.703125 239.773438 57.875 234.332031 C 60.757812 229.378906 63.507812 224.347656 66.386719 219.394531 C 68.921875 215.042969 71.273438 210.601562 73.429688 206.054688 C 76.1875 200.230469 78.617188 194.285156 80.082031 187.980469 C 80.835938 184.738281 81.375 181.46875 81.726562 178.152344 C 81.992188 175.65625 82.027344 173.167969 81.882812 170.691406 C 81.726562 168.035156 81.59375 165.363281 81.179688 162.714844 C 80.761719 160.035156 80.574219 157.316406 80.238281 154.621094 C 79.945312 152.253906 79.597656 149.890625 79.257812 147.527344 C 78.847656 144.652344 78.414062 141.78125 78 138.910156 C 77.644531 136.457031 77.277344 134 76.953125 131.542969 C 76.710938 129.683594 76.433594 127.824219 76.34375 125.957031 C 76.148438 121.925781 75.679688 117.902344 75.773438 113.863281 C 75.976562 105.265625 77.3125 96.878906 80.660156 88.886719 C 82.421875 84.667969 84.617188 80.679688 87.027344 76.800781 C 89.242188 73.246094 91.757812 69.929688 94.636719 66.871094 C 98.320312 62.957031 102.4375 59.585938 106.769531 56.421875 C 112.859375 51.972656 119.644531 48.878906 126.628906 46.207031 C 132.015625 44.140625 137.484375 42.265625 143.125 40.988281 C 145.816406 40.375 148.53125 39.890625 151.289062 39.625 C 154.703125 39.296875 158.113281 39.101562 161.542969 39.109375 C 164.359375 39.109375 167.15625 39.394531 169.960938 39.605469 C 172.394531 39.785156 174.796875 40.152344 177.203125 40.511719 C 180.042969 40.933594 182.792969 41.722656 185.496094 42.65625 C 189.324219 43.980469 192.980469 45.699219 196.546875 47.609375 C 199.691406 49.296875 202.769531 51.101562 205.914062 52.796875 C 208.851562 54.378906 211.890625 55.761719 214.894531 57.210938 C 219.820312 59.585938 224.976562 61.292969 230.199219 62.859375 C 234.25 64.078125 238.414062 64.757812 242.546875 65.550781 C 244.410156 65.910156 246.347656 66.203125 248.277344 65.71875 C 248.632812 65.628906 249.027344 65.675781 249.402344 65.675781 C 251.851562 65.664062 254.292969 65.671875 256.742188 65.652344 C 260.027344 65.628906 263.292969 65.917969 266.570312 66.148438 C 269.097656 66.324219 271.617188 66.546875 274.128906 66.839844 C 277.613281 67.246094 281.050781 68.007812 284.4375 68.953125 C 288.652344 70.128906 292.792969 71.53125 296.714844 73.464844 C 301.179688 75.667969 305.550781 78.070312 309.484375 81.164062 C 314.085938 84.785156 317.371094 89.398438 319.660156 94.78125 C 321.050781 98.042969 322.148438 101.378906 322.597656 104.882812 C 323.023438 108.1875 323.078125 111.503906 322.777344 114.851562 C 322.261719 120.546875 320.355469 125.824219 318.355469 131.089844 C 316.148438 136.894531 314.390625 142.832031 313.195312 148.917969 C 312.765625 151.113281 312.46875 153.359375 312.503906 155.625 C 312.546875 158.304688 312.457031 160.992188 312.550781 163.671875 C 312.628906 165.960938 312.964844 168.238281 313.253906 170.515625 C 313.644531 173.585938 314.179688 176.628906 314.773438 179.660156 C 315.539062 183.574219 316.386719 187.480469 317.753906 191.230469 C 319.507812 196.035156 321.386719 200.796875 323.261719 205.558594 C 324.019531 207.476562 324.863281 209.371094 325.746094 211.238281 C 327.402344 214.71875 329.105469 218.175781 330.8125 221.636719 C 332.785156 225.640625 334.828125 229.613281 336.761719 233.636719 C 339.21875 238.757812 341.71875 243.867188 343.460938 249.300781 C 344.949219 253.949219 346.222656 258.660156 346.890625 263.5 C 347.320312 266.609375 347.625 269.746094 347.546875 272.898438 C 347.546875 275.167969 347.546875 277.433594 347.546875 279.695312 C 347.378906 288.335938 344.851562 296.289062 340.613281 303.765625 C 338.078125 308.246094 334.878906 312.207031 331.4375 316.007812 C 328.253906 319.527344 325.074219 323.050781 321.605469 326.285156 C 318.960938 328.757812 316.355469 331.265625 313.871094 333.890625 C 310.644531 337.300781 307.488281 340.777344 304.164062 344.09375 C 301.003906 347.246094 297.621094 350.132812 294.070312 352.839844 C 290.480469 355.574219 286.765625 358.117188 282.761719 360.195312 C 277.316406 363.019531 271.59375 365.039062 265.476562 365.859375 C 263.949219 366.066406 262.421875 366.277344 260.882812 366.390625 Z M 260.882812 366.390625 " fill-opacity="1" fill-rule="nonzero"/></g><g clip-path="url(#036e5fde45)"><path fill="#4ab9ab" d="M 246 343.238281 C 245.4375 343.238281 244.871094 343.234375 244.308594 343.234375 C 241.855469 343.238281 239.402344 343.238281 236.945312 343.242188 C 234.628906 343.261719 232.375 342.761719 230.140625 342.28125 C 224.6875 341.109375 219.296875 339.664062 214.035156 337.792969 C 210.496094 336.539062 207.03125 335.101562 203.589844 333.597656 C 195.804688 330.203125 188.21875 326.355469 180.316406 323.222656 C 175.25 321.210938 170.046875 319.691406 164.632812 318.898438 C 162.035156 318.519531 159.445312 318.199219 156.824219 318.027344 C 155.277344 317.929688 153.734375 317.742188 152.191406 317.84375 C 149.296875 318.027344 146.40625 318.222656 143.519531 318.558594 C 140.171875 318.953125 136.851562 319.480469 133.53125 320.058594 C 130.808594 320.53125 128.117188 321.167969 125.449219 321.855469 C 120.542969 323.117188 115.691406 324.59375 110.925781 326.3125 C 105.316406 328.335938 99.640625 330.101562 93.824219 331.425781 C 90.71875 332.136719 87.578125 332.550781 84.394531 332.832031 C 80.402344 333.1875 76.414062 333.117188 72.429688 333.035156 C 67.128906 332.933594 62.035156 331.777344 57.195312 329.550781 C 55.1875 328.625 53.246094 327.597656 51.316406 326.523438 C 49.453125 325.492188 47.851562 324.117188 46.238281 322.761719 C 44.65625 321.433594 43.136719 320.03125 41.675781 318.566406 C 38.503906 315.386719 35.914062 311.761719 33.632812 307.925781 C 30.015625 301.84375 27.3125 295.347656 25.246094 288.59375 C 24.234375 285.277344 23.589844 281.871094 23.265625 278.40625 C 23.15625 277.234375 23.054688 276.070312 23.019531 274.902344 C 23.171875 273.121094 22.898438 271.359375 22.757812 269.59375 C 22.59375 267.578125 23.234375 265.597656 23.015625 263.582031 C 23.148438 260.765625 23.65625 258 24.175781 255.238281 C 24.808594 251.875 25.492188 248.523438 26.53125 245.25 C 27.515625 242.160156 28.6875 239.140625 29.996094 236.179688 C 31.25 233.34375 32.523438 230.511719 33.929688 227.75 C 36.792969 222.140625 39.820312 216.621094 42.988281 211.179688 C 45.875 206.226562 48.621094 201.195312 51.503906 196.242188 C 54.035156 191.890625 56.390625 187.449219 58.546875 182.902344 C 61.300781 177.078125 63.734375 171.132812 65.199219 164.828125 C 65.953125 161.585938 66.492188 158.316406 66.84375 155 C 67.109375 152.503906 67.144531 150.015625 66.996094 147.539062 C 66.84375 144.878906 66.710938 142.210938 66.296875 139.5625 C 65.878906 136.882812 65.691406 134.164062 65.355469 131.46875 C 65.058594 129.101562 64.714844 126.738281 64.375 124.375 C 63.960938 121.5 63.53125 118.628906 63.113281 115.757812 C 62.757812 113.304688 62.390625 110.847656 62.070312 108.386719 C 61.828125 106.53125 61.550781 104.671875 61.460938 102.800781 C 61.265625 98.773438 60.792969 94.75 60.890625 90.710938 C 61.09375 82.113281 62.429688 73.726562 65.773438 65.734375 C 67.539062 61.515625 69.734375 57.523438 72.144531 53.648438 C 74.359375 50.09375 76.875 46.777344 79.753906 43.71875 C 83.4375 39.804688 87.554688 36.429688 91.882812 33.269531 C 97.976562 28.820312 104.761719 25.726562 111.746094 23.050781 C 117.132812 20.988281 122.597656 19.113281 128.242188 17.832031 C 130.933594 17.222656 133.644531 16.738281 136.40625 16.472656 C 139.820312 16.144531 143.230469 15.949219 146.660156 15.953125 C 149.476562 15.957031 152.273438 16.242188 155.074219 16.453125 C 157.511719 16.632812 159.914062 17 162.320312 17.359375 C 165.160156 17.777344 167.90625 18.566406 170.613281 19.503906 C 174.441406 20.824219 178.097656 22.542969 181.660156 24.457031 C 184.808594 26.144531 187.886719 27.949219 191.027344 29.640625 C 193.964844 31.226562 197.003906 32.609375 200.011719 34.058594 C 204.9375 36.433594 210.09375 38.136719 215.3125 39.707031 C 219.367188 40.925781 223.527344 41.605469 227.664062 42.398438 C 229.527344 42.757812 231.464844 43.050781 233.394531 42.5625 C 233.75 42.472656 234.144531 42.523438 234.519531 42.519531 C 236.964844 42.511719 239.410156 42.519531 241.855469 42.5 C 245.144531 42.476562 248.410156 42.765625 251.6875 42.996094 C 254.214844 43.171875 256.734375 43.394531 259.242188 43.6875 C 262.730469 44.09375 266.164062 44.855469 269.554688 45.796875 C 273.769531 46.976562 277.910156 48.375 281.828125 50.3125 C 286.292969 52.515625 290.667969 54.917969 294.597656 58.007812 C 299.199219 61.628906 302.484375 66.246094 304.777344 71.628906 C 306.164062 74.890625 307.265625 78.226562 307.714844 81.730469 C 308.136719 85.035156 308.195312 88.351562 307.894531 91.699219 C 307.378906 97.390625 305.472656 102.671875 303.46875 107.9375 C 301.265625 113.738281 299.507812 119.679688 298.3125 125.765625 C 297.882812 127.957031 297.585938 130.203125 297.621094 132.472656 C 297.664062 135.152344 297.574219 137.839844 297.667969 140.519531 C 297.746094 142.808594 298.082031 145.085938 298.371094 147.363281 C 298.761719 150.433594 299.296875 153.476562 299.890625 156.507812 C 300.65625 160.421875 301.5 164.324219 302.871094 168.074219 C 304.625 172.882812 306.503906 177.644531 308.378906 182.40625 C 309.136719 184.324219 309.976562 186.21875 310.863281 188.082031 C 312.515625 191.566406 314.222656 195.023438 315.925781 198.480469 C 317.902344 202.488281 319.945312 206.460938 321.875 210.484375 C 324.335938 215.605469 326.835938 220.714844 328.578125 226.148438 C 330.066406 230.796875 331.339844 235.507812 332.007812 240.347656 C 332.4375 243.457031 332.738281 246.59375 332.664062 249.746094 C 332.664062 252.011719 332.664062 254.28125 332.660156 256.542969 C 332.492188 265.183594 329.964844 273.132812 325.730469 280.613281 C 323.191406 285.09375 319.996094 289.054688 316.554688 292.855469 C 313.371094 296.375 310.191406 299.898438 306.722656 303.132812 C 304.078125 305.601562 301.472656 308.113281 298.988281 310.738281 C 295.761719 314.148438 292.605469 317.625 289.28125 320.941406 C 286.121094 324.09375 282.734375 326.980469 279.1875 329.6875 C 275.597656 332.421875 271.882812 334.964844 267.875 337.042969 C 262.429688 339.867188 256.707031 341.886719 250.59375 342.707031 C 249.066406 342.914062 247.539062 343.125 246 343.238281 Z M 246 343.238281 " fill-opacity="1" fill-rule="nonzero"/></g></svg>