<svg xmlns="http://www.w3.org/2000/svg" xmlns:xlink="http://www.w3.org/1999/xlink" width="500" zoomAndPan="magnify" viewBox="0 0 375 374.999991" height="500" preserveAspectRatio="xMidYMid meet" version="1.0"><defs><filter x="0%" y="0%" width="100%" height="100%" id="9cbfe4651e"><feColorMatrix values="0 0 0 0 1 0 0 0 0 1 0 0 0 0 1 0 0 0 1 0" color-interpolation-filters="sRGB"/></filter><clipPath id="c006bb7ab8"><path d="M 8.304688 25.015625 L 367.21875 25.015625 L 367.21875 349.765625 L 8.304688 349.765625 Z M 8.304688 25.015625 " clip-rule="nonzero"/></clipPath><mask id="3ef52197b3"><g filter="url(#9cbfe4651e)"><rect x="-37.5" width="450" fill="#000000" y="-37.499999" height="449.999989" fill-opacity="0.25"/></g></mask><clipPath id="0db1c92077"><path d="M 26 0.015625 L 332 0.015625 L 332 78 L 26 78 Z M 26 0.015625 " clip-rule="nonzero"/></clipPath><clipPath id="f5dde284d3"><path d="M 0.304688 130 L 43 130 L 43 196 L 0.304688 196 Z M 0.304688 130 " clip-rule="nonzero"/></clipPath><clipPath id="776c94c445"><path d="M 279 124 L 359.21875 124 L 359.21875 196 L 279 196 Z M 279 124 " clip-rule="nonzero"/></clipPath><clipPath id="300ad98db4"><path d="M 0.304688 227 L 359.21875 227 L 359.21875 324.765625 L 0.304688 324.765625 Z M 0.304688 227 " clip-rule="nonzero"/></clipPath><clipPath id="b9440867b5"><rect x="0" width="360" y="0" height="325"/></clipPath><mask id="0c8e098c82"><g filter="url(#9cbfe4651e)"><rect x="-37.5" width="450" fill="#000000" y="-37.499999" height="449.999989" fill-opacity="0.25"/></g></mask><clipPath id="e4d65d8d56"><path d="M 1 0.28125 L 11.71875 0.28125 L 11.71875 34 L 1 34 Z M 1 0.28125 " clip-rule="nonzero"/></clipPath><clipPath id="526a0a0875"><rect x="0" width="12" y="0" height="35"/></clipPath><mask id="c6b008fa68"><g filter="url(#9cbfe4651e)"><rect x="-37.5" width="450" fill="#000000" y="-37.499999" height="449.999989" fill-opacity="0.25"/></g></mask><clipPath id="b57a576fa2"><path d="M 0.601562 0 L 149.878906 0 L 149.878906 26.878906 L 0.601562 26.878906 Z M 0.601562 0 " clip-rule="nonzero"/></clipPath><clipPath id="85d6081886"><rect x="0" width="150" y="0" height="27"/></clipPath><mask id="8f573e096e"><g filter="url(#9cbfe4651e)"><rect x="-37.5" width="450" fill="#000000" y="-37.499999" height="449.999989" fill-opacity="0.25"/></g></mask><clipPath id="a470947b59"><path d="M 0.441406 0.359375 L 207.320312 0.359375 L 207.320312 165 L 0.441406 165 Z M 0.441406 0.359375 " clip-rule="nonzero"/></clipPath><clipPath id="abb444c9b1"><rect x="0" width="208" y="0" height="165"/></clipPath><mask id="3c60c8b6d0"><g filter="url(#9cbfe4651e)"><rect x="-37.5" width="450" fill="#000000" y="-37.499999" height="449.999989" fill-opacity="0.75"/></g></mask><clipPath id="2b032ac7fd"><path d="M 1 0.0390625 L 195.601562 0.0390625 L 195.601562 163.960938 L 1 163.960938 Z M 1 0.0390625 " clip-rule="nonzero"/></clipPath><clipPath id="7b159e56f7"><rect x="0" width="196" y="0" height="164"/></clipPath><mask id="1399682106"><g filter="url(#9cbfe4651e)"><rect x="-37.5" width="450" fill="#000000" y="-37.499999" height="449.999989" fill-opacity="0.25"/></g></mask><clipPath id="7298c7ed8a"><path d="M 0.078125 0.359375 L 18 0.359375 L 18 62 L 0.078125 62 Z M 0.078125 0.359375 " clip-rule="nonzero"/></clipPath><clipPath id="5fda0aa5b1"><rect x="0" width="19" y="0" height="63"/></clipPath><mask id="0f2a613029"><g filter="url(#9cbfe4651e)"><rect x="-37.5" width="450" fill="#000000" y="-37.499999" height="449.999989" fill-opacity="0.5"/></g></mask><clipPath id="0db5570ad9"><path d="M 0.519531 0 L 229.71875 0 L 229.71875 162 L 0.519531 162 Z M 0.519531 0 " clip-rule="nonzero"/></clipPath><clipPath id="a6826cd363"><rect x="0" width="230" y="0" height="163"/></clipPath><mask id="db672e37b8"><g filter="url(#9cbfe4651e)"><rect x="-37.5" width="450" fill="#000000" y="-37.499999" height="449.999989" fill-opacity="0.75"/></g></mask><clipPath id="ebf2edf694"><rect x="0" width="14" y="0" height="31"/></clipPath><mask id="99a7c0bc83"><g filter="url(#9cbfe4651e)"><rect x="-37.5" width="450" fill="#000000" y="-37.499999" height="449.999989" fill-opacity="0.5"/></g></mask><clipPath id="36b026a9e0"><path d="M 0.519531 0.160156 L 61.960938 0.160156 L 61.960938 38 L 0.519531 38 Z M 0.519531 0.160156 " clip-rule="nonzero"/></clipPath><clipPath id="d2df81c70f"><rect x="0" width="62" y="0" height="39"/></clipPath><mask id="8e3bdcc0ce"><g filter="url(#9cbfe4651e)"><rect x="-37.5" width="450" fill="#000000" y="-37.499999" height="449.999989" fill-opacity="0.75"/></g></mask><clipPath id="2455828d12"><path d="M 1 0.359375 L 118 0.359375 L 118 14 L 1 14 Z M 1 0.359375 " clip-rule="nonzero"/></clipPath><clipPath id="e9810b671a"><rect x="0" width="119" y="0" height="15"/></clipPath><mask id="909763d10a"><g filter="url(#9cbfe4651e)"><rect x="-37.5" width="450" fill="#000000" y="-37.499999" height="449.999989" fill-opacity="0.75"/></g></mask><clipPath id="36ca83d4da"><path d="M 13 0.078125 L 50 0.078125 L 50 97 L 13 97 Z M 13 0.078125 " clip-rule="nonzero"/></clipPath><clipPath id="c6cdd2a7af"><path d="M 40 45 L 70.800781 45 L 70.800781 90 L 40 90 Z M 40 45 " clip-rule="nonzero"/></clipPath><clipPath id="f6b57ad0ed"><rect x="0" width="71" y="0" height="98"/></clipPath><mask id="8d0018364a"><g filter="url(#9cbfe4651e)"><rect x="-37.5" width="450" fill="#000000" y="-37.499999" height="449.999989" fill-opacity="0.75"/></g></mask><clipPath id="bb9b68934b"><path d="M 1 0.320312 L 265 0.320312 L 265 12.800781 L 1 12.800781 Z M 1 0.320312 " clip-rule="nonzero"/></clipPath><clipPath id="bbc3119a39"><rect x="0" width="266" y="0" height="13"/></clipPath><mask id="3fb8b39691"><g filter="url(#9cbfe4651e)"><rect x="-37.5" width="450" fill="#000000" y="-37.499999" height="449.999989" fill-opacity="0.75"/></g></mask><clipPath id="e4b56a14b5"><path d="M 1 0.078125 L 92.921875 0.078125 L 92.921875 82.398438 L 1 82.398438 Z M 1 0.078125 " clip-rule="nonzero"/></clipPath><clipPath id="582b9193b7"><rect x="0" width="93" y="0" height="83"/></clipPath><mask id="99574fcb02"><g filter="url(#9cbfe4651e)"><rect x="-37.5" width="450" fill="#000000" y="-37.499999" height="449.999989" fill-opacity="0.25"/></g></mask><clipPath id="33399755c1"><path d="M 0.800781 0.121094 L 82.878906 0.121094 L 82.878906 72.359375 L 0.800781 72.359375 Z M 0.800781 0.121094 " clip-rule="nonzero"/></clipPath><clipPath id="2f60024167"><rect x="0" width="83" y="0" height="73"/></clipPath><mask id="af429d50cf"><g filter="url(#9cbfe4651e)"><rect x="-37.5" width="450" fill="#000000" y="-37.499999" height="449.999989" fill-opacity="0.75"/></g></mask><clipPath id="0f06c81ae3"><path d="M 1 35 L 10.878906 35 L 10.878906 45 L 1 45 Z M 1 35 " clip-rule="nonzero"/></clipPath><clipPath id="9c5e77ae42"><path d="M 1 0.558594 L 10.878906 0.558594 L 10.878906 31 L 1 31 Z M 1 0.558594 " clip-rule="nonzero"/></clipPath><clipPath id="eef90ae5d9"><rect x="0" width="11" y="0" height="46"/></clipPath><mask id="534bbc1fb6"><g filter="url(#9cbfe4651e)"><rect x="-37.5" width="450" fill="#000000" y="-37.499999" height="449.999989" fill-opacity="0.75"/></g></mask><clipPath id="02fb254a7c"><path d="M 0.441406 0.800781 L 59 0.800781 L 59 53 L 0.441406 53 Z M 0.441406 0.800781 " clip-rule="nonzero"/></clipPath><clipPath id="f582b90e02"><rect x="0" width="60" y="0" height="54"/></clipPath><mask id="e39e618699"><g filter="url(#9cbfe4651e)"><rect x="-37.5" width="450" fill="#000000" y="-37.499999" height="449.999989" fill-opacity="0.25"/></g></mask><clipPath id="a069944e46"><path d="M 0.558594 1 L 52.878906 1 L 52.878906 47 L 0.558594 47 Z M 0.558594 1 " clip-rule="nonzero"/></clipPath><clipPath id="c3939093cf"><rect x="0" width="53" y="0" height="48"/></clipPath><mask id="89daf8b222"><g filter="url(#9cbfe4651e)"><rect x="-37.5" width="450" fill="#000000" y="-37.499999" height="449.999989" fill-opacity="0.75"/></g></mask><clipPath id="8c2eb22341"><path d="M 0.601562 22 L 7 22 L 7 28.71875 L 0.601562 28.71875 Z M 0.601562 22 " clip-rule="nonzero"/></clipPath><clipPath id="1470d05940"><path d="M 0.601562 0.160156 L 7 0.160156 L 7 20 L 0.601562 20 Z M 0.601562 0.160156 " clip-rule="nonzero"/></clipPath><clipPath id="f23b3ee87e"><rect x="0" width="8" y="0" height="29"/></clipPath></defs><g clip-path="url(#c006bb7ab8)"><g mask="url(#3ef52197b3)"><g transform="matrix(1, 0, 0, 1, 8, 25)"><g clip-path="url(#b9440867b5)"><g clip-path="url(#0db1c92077)"><path fill="#ffffff" d="M 59.140625 65.046875 L 68.980469 65.046875 L 77.675781 49.988281 C 78.777344 48.074219 80.710938 47.121094 82.636719 47.121094 L 88.066406 47.121094 C 89.996094 47.121094 91.925781 48.074219 93.027344 49.988281 L 102.292969 66.035156 C 108.066406 67.492188 113.222656 70.492188 117.304688 74.574219 C 118.25 75.515625 119.132812 76.515625 119.953125 77.566406 L 248.261719 59.390625 L 240.683594 58.585938 C 239.972656 58.511719 239.523438 57.777344 239.785156 57.109375 L 258.246094 9.992188 C 258.71875 8.796875 260.511719 9.257812 260.339844 10.535156 L 255.511719 46.433594 C 255.441406 46.988281 255.796875 47.507812 256.339844 47.636719 L 274.734375 51.992188 C 275.386719 52.140625 275.746094 52.835938 275.496094 53.453125 L 270.957031 64.824219 C 271.078125 65.25 271.167969 65.683594 271.234375 66.128906 L 272.761719 76.925781 C 273.574219 75.941406 274.4375 75.003906 275.355469 74.121094 L 273.65625 72.832031 C 273.34375 72.597656 273.339844 72.125 273.652344 71.890625 L 295.5625 55.0625 C 296.121094 54.636719 296.828125 55.355469 296.390625 55.90625 L 287.761719 66.660156 C 290.949219 65.613281 294.355469 65.046875 297.890625 65.046875 L 298.558594 65.046875 C 316.519531 65.046875 331.078125 50.492188 331.078125 32.53125 C 331.078125 23.550781 327.4375 15.425781 321.554688 9.539062 C 315.671875 3.652344 307.535156 0.0117188 298.558594 0.0117188 L 59.140625 0.0117188 C 41.179688 0.0117188 26.621094 14.574219 26.621094 32.53125 C 26.621094 41.515625 30.261719 49.640625 36.144531 55.527344 C 42.03125 61.410156 50.164062 65.046875 59.140625 65.046875 Z M 59.140625 65.046875 " fill-opacity="1" fill-rule="nonzero"/></g><g clip-path="url(#f5dde284d3)"><path fill="#ffffff" d="M 32.265625 195.117188 C 32.453125 195.125 32.640625 195.125 32.828125 195.125 L 42.878906 195.125 L 33.664062 130.085938 L 32.828125 130.085938 C 14.863281 130.085938 0.304688 144.648438 0.304688 162.605469 C 0.304688 171.589844 3.945312 179.714844 9.828125 185.601562 C 15.589844 191.355469 23.511719 194.972656 32.265625 195.113281 Z M 32.265625 195.117188 " fill-opacity="1" fill-rule="nonzero"/></g><g clip-path="url(#776c94c445)"><path fill="#ffffff" d="M 297.890625 130.085938 C 291.054688 130.085938 284.71875 127.976562 279.484375 124.378906 L 283.648438 153.757812 L 284.335938 153.757812 C 287.449219 153.757812 290.566406 155.296875 292.34375 158.382812 L 313.558594 195.125 L 326.703125 195.125 C 326.890625 195.125 327.074219 195.125 327.261719 195.117188 C 344.96875 194.824219 359.222656 180.382812 359.222656 162.609375 C 359.222656 153.628906 355.585938 145.503906 349.703125 139.617188 C 343.816406 133.730469 335.683594 130.089844 326.707031 130.089844 L 297.894531 130.089844 Z M 297.890625 130.085938 " fill-opacity="1" fill-rule="nonzero"/></g><g clip-path="url(#300ad98db4)"><path fill="#ffffff" d="M 330.402344 260.15625 C 329.1875 260.015625 327.953125 259.945312 326.703125 259.945312 L 276.433594 259.945312 C 268.933594 259.09375 262.203125 255.691406 257.136719 250.632812 C 253.050781 246.542969 250.050781 241.375 248.597656 235.589844 L 239.003906 235.589844 C 233.992188 235.589844 230.304688 231.761719 229.808594 227.34375 C 229.808594 227.375 229.8125 227.402344 229.8125 227.429688 L 223.398438 228.339844 C 223.398438 228.339844 223.398438 228.363281 223.398438 228.378906 L 214.925781 229.578125 L 214.925781 266.609375 L 141.070312 266.609375 L 141.070312 240.042969 L 134.65625 240.953125 L 79.929688 248.703125 C 74.71875 254.824219 67.285156 258.992188 58.875 259.941406 L 32.828125 259.941406 C 31.578125 259.941406 30.339844 260.015625 29.128906 260.152344 C 12.902344 261.992188 0.304688 275.753906 0.304688 292.464844 C 0.304688 301.441406 3.945312 309.570312 9.828125 315.457031 C 15.714844 321.339844 23.847656 324.980469 32.824219 324.980469 L 326.699219 324.980469 C 344.660156 324.980469 359.21875 310.417969 359.21875 292.464844 C 359.21875 283.480469 355.578125 275.355469 349.695312 269.46875 C 344.628906 264.40625 337.902344 261.003906 330.398438 260.152344 Z M 317.84375 287.691406 C 317.84375 289.890625 316.058594 291.675781 313.855469 291.675781 L 58.085938 291.675781 C 55.878906 291.675781 54.09375 289.890625 54.09375 287.691406 L 54.09375 283.65625 C 54.09375 281.453125 55.878906 279.667969 58.085938 279.667969 L 132.953125 279.667969 C 131.335938 279.667969 130.019531 278.355469 130.019531 276.734375 L 130.019531 269.550781 C 130.019531 267.929688 131.335938 266.617188 132.953125 266.617188 L 243.652344 266.617188 C 245.273438 266.617188 246.585938 267.929688 246.585938 269.550781 L 246.585938 276.734375 C 246.585938 278.355469 245.273438 279.667969 243.652344 279.667969 L 313.855469 279.667969 C 316.058594 279.667969 317.84375 281.453125 317.84375 283.65625 Z M 317.84375 287.691406 " fill-opacity="1" fill-rule="nonzero"/></g></g></g></g></g><g mask="url(#0c8e098c82)"><g transform="matrix(1, 0, 0, 1, 271, 89)"><g clip-path="url(#526a0a0875)"><g clip-path="url(#e4d65d8d56)"><path fill="#ffffff" d="M 11.296875 23.761719 L 3.28125 33.792969 C 3.28125 33.792969 3.261719 33.816406 3.257812 33.832031 L 1.035156 18.160156 L 7.957031 0.824219 C 8.078125 1.25 8.167969 1.683594 8.234375 2.128906 Z M 11.296875 23.761719 " fill-opacity="1" fill-rule="nonzero"/></g></g></g></g><g mask="url(#c6b008fa68)"><g transform="matrix(1, 0, 0, 1, 117, 84)"><g clip-path="url(#85d6081886)"><g clip-path="url(#b57a576fa2)"><path fill="#ffffff" d="M 4.527344 26.492188 L 0.78125 20.007812 L 139.261719 0.390625 L 148.472656 1.371094 C 149.078125 1.4375 149.515625 1.992188 149.433594 2.597656 L 148.839844 7.109375 C 147.601562 6.609375 146.222656 6.417969 144.808594 6.617188 L 120.1875 10.105469 L 119.226562 8.082031 C 118.988281 7.578125 118.21875 7.832031 118.332031 8.382812 L 118.730469 10.3125 Z M 4.527344 26.492188 " fill-opacity="1" fill-rule="nonzero"/></g></g></g></g><g mask="url(#8f573e096e)"><g transform="matrix(1, 0, 0, 1, 43, 111)"><g clip-path="url(#abb444c9b1)"><g clip-path="url(#a470947b59)"><path fill="#ffffff" d="M 196 135.722656 C 194.933594 137.570312 194.585938 139.558594 194.8125 141.429688 L 188.398438 142.339844 L 179.925781 143.542969 L 118.667969 152.21875 L 106.070312 154.003906 L 32.253906 164.464844 C 26.84375 165.226562 21.839844 161.464844 21.070312 156.0625 L 0.871094 13.472656 C 0.144531 8.351562 3.484375 3.585938 8.433594 2.449219 C 8.710938 2.382812 8.988281 2.332031 9.277344 2.292969 L 21.5625 0.550781 L 20.011719 3.234375 C 19.144531 4.742188 19.046875 6.402344 19.519531 7.851562 L 17.464844 8.140625 C 16.976562 8.210938 16.503906 8.320312 16.058594 8.476562 C 15.835938 8.550781 15.613281 8.632812 15.398438 8.730469 L 15.394531 8.730469 C 15.179688 8.824219 14.972656 8.925781 14.773438 9.042969 C 14.164062 9.378906 13.609375 9.792969 13.117188 10.273438 C 13.035156 10.351562 12.957031 10.433594 12.875 10.515625 C 12.566406 10.851562 12.28125 11.210938 12.035156 11.589844 C 11.636719 12.191406 11.328125 12.847656 11.109375 13.542969 C 10.957031 14.035156 10.847656 14.542969 10.796875 15.070312 C 10.789062 15.144531 10.78125 15.222656 10.773438 15.296875 C 10.769531 15.332031 10.769531 15.359375 10.765625 15.390625 L 10.765625 15.445312 C 10.761719 15.476562 10.757812 15.511719 10.757812 15.542969 C 10.742188 16.011719 10.761719 16.484375 10.832031 16.96875 L 27.429688 134.128906 C 27.609375 135.398438 28.082031 136.550781 28.777344 137.53125 C 28.878906 137.679688 28.988281 137.824219 29.101562 137.964844 C 30.046875 139.121094 31.308594 139.988281 32.726562 140.457031 C 32.835938 140.492188 32.945312 140.527344 33.058594 140.554688 C 33.28125 140.621094 33.507812 140.671875 33.738281 140.714844 C 33.984375 140.761719 34.238281 140.792969 34.492188 140.8125 C 34.890625 140.851562 35.300781 140.855469 35.710938 140.824219 C 35.890625 140.8125 36.074219 140.796875 36.253906 140.765625 L 207.054688 116.570312 Z M 196 135.722656 " fill-opacity="1" fill-rule="nonzero"/></g></g></g></g><g mask="url(#3c60c8b6d0)"><g transform="matrix(1, 0, 0, 1, 36, 113)"><g clip-path="url(#7b159e56f7)"><g clip-path="url(#2b032ac7fd)"><path fill="#ffffff" d="M 195.398438 140.378906 L 180.511719 142.488281 L 119.253906 151.167969 L 106.65625 152.953125 L 32.839844 163.410156 C 27.429688 164.175781 22.425781 160.414062 21.65625 155.007812 L 1.457031 12.417969 C 0.691406 7.011719 4.453125 2.003906 9.863281 1.238281 L 15.433594 0.449219 C 10.484375 1.585938 7.144531 6.351562 7.871094 11.472656 L 28.070312 154.0625 C 28.839844 159.464844 33.84375 163.226562 39.253906 162.464844 L 113.070312 152.003906 L 125.667969 150.21875 L 186.925781 141.542969 L 195.398438 140.339844 C 195.398438 140.339844 195.398438 140.363281 195.398438 140.378906 Z M 195.398438 140.378906 " fill-opacity="1" fill-rule="nonzero"/></g></g></g></g><g mask="url(#1399682106)"><g transform="matrix(1, 0, 0, 1, 274, 117)"><g clip-path="url(#5fda0aa5b1)"><g clip-path="url(#7298c7ed8a)"><path fill="#ffffff" d="M 17.648438 61.757812 L 9.574219 61.757812 C 9.113281 61.757812 8.648438 61.789062 8.195312 61.859375 L 0.371094 6.617188 C 0.5625 6.78125 0.851562 6.832031 1.109375 6.640625 L 8.992188 0.664062 Z M 17.648438 61.757812 " fill-opacity="1" fill-rule="nonzero"/></g></g></g></g><g mask="url(#0f2a613029)"><g transform="matrix(1, 0, 0, 1, 53, 90)"><g clip-path="url(#a6826cd363)"><g clip-path="url(#0db5570ad9)"><path fill="#ffffff" d="M 229.195312 88.859375 C 226.566406 89.25 224.082031 90.757812 222.566406 93.382812 L 197.054688 137.566406 L 26.253906 161.765625 C 26.074219 161.789062 25.890625 161.8125 25.710938 161.824219 C 25.300781 161.855469 24.890625 161.851562 24.492188 161.8125 C 24.238281 161.792969 23.984375 161.761719 23.738281 161.714844 C 23.507812 161.671875 23.28125 161.621094 23.058594 161.554688 C 22.945312 161.527344 22.835938 161.492188 22.726562 161.457031 C 21.308594 160.988281 20.046875 160.121094 19.101562 158.964844 C 18.988281 158.824219 18.878906 158.679688 18.777344 158.53125 C 18.082031 157.550781 17.609375 156.398438 17.429688 155.128906 L 0.835938 37.96875 C 0.761719 37.449219 0.742188 36.945312 0.765625 36.445312 C 0.769531 36.40625 0.769531 36.367188 0.773438 36.328125 L 0.773438 36.296875 C 0.78125 36.222656 0.789062 36.144531 0.796875 36.070312 C 0.847656 35.542969 0.957031 35.035156 1.109375 34.542969 C 1.328125 33.847656 1.636719 33.191406 2.035156 32.589844 C 2.28125 32.210938 2.566406 31.851562 2.875 31.515625 C 2.957031 31.433594 3.035156 31.351562 3.117188 31.273438 C 3.609375 30.792969 4.164062 30.378906 4.773438 30.042969 C 4.972656 29.925781 5.179688 29.824219 5.394531 29.730469 L 5.398438 29.730469 C 5.613281 29.632812 5.835938 29.550781 6.058594 29.476562 C 6.503906 29.320312 6.976562 29.210938 7.464844 29.140625 L 9.519531 28.851562 C 10.242188 31.078125 12.304688 32.832031 14.976562 32.832031 L 65.726562 32.832031 C 70.136719 32.832031 72.890625 28.058594 70.6875 24.234375 L 68.527344 20.492188 L 182.730469 4.3125 L 186.789062 24.011719 C 186.847656 24.316406 187.191406 24.484375 187.464844 24.339844 L 194.035156 20.996094 C 194.269531 20.875 194.5625 20.976562 194.675781 21.214844 L 202.847656 38.347656 C 203.085938 38.855469 203.851562 38.597656 203.738281 38.050781 L 198.984375 14.179688 C 198.925781 13.894531 198.628906 13.726562 198.355469 13.824219 L 190.59375 16.609375 C 190.363281 16.691406 190.109375 16.585938 190 16.363281 L 184.1875 4.105469 L 208.808594 0.617188 C 210.222656 0.417969 211.601562 0.609375 212.839844 1.109375 L 207.726562 39.710938 C 207.558594 40.980469 209.34375 41.449219 209.816406 40.257812 L 219.035156 17.160156 L 221.253906 32.832031 C 221.058594 33.113281 221.148438 33.433594 221.367188 33.617188 L 221.371094 33.617188 Z M 229.195312 88.859375 " fill-opacity="1" fill-rule="nonzero"/></g></g></g></g><path fill="#ffffff" d="M 273.976562 128.523438 L 270.929688 107.027344 L 279.121094 86.503906 L 279.988281 89.527344 C 280.121094 89.988281 280.222656 90.457031 280.296875 90.972656 L 283.429688 113.074219 L 275.25 123.304688 L 273.972656 128.523438 Z M 275.121094 123.464844 Z M 273.144531 107.289062 L 274.976562 120.199219 L 281.171875 112.453125 L 278.527344 93.804688 Z M 273.144531 107.289062 " fill-opacity="1" fill-rule="nonzero"/><path fill="#ffffff" d="M 120.957031 111.65625 L 116.050781 103.167969 L 117.632812 102.945312 L 256.246094 83.308594 L 265.585938 84.300781 C 266.171875 84.363281 266.695312 84.652344 267.0625 85.121094 C 267.425781 85.582031 267.582031 86.160156 267.503906 86.746094 L 266.722656 92.636719 L 265.433594 92.113281 C 264.339844 91.667969 263.140625 91.523438 261.957031 91.6875 L 236.550781 95.289062 L 120.953125 111.660156 Z M 119.511719 104.847656 L 122.097656 109.320312 L 234.449219 93.402344 L 234.28125 92.601562 C 234.121094 91.820312 234.550781 91.066406 235.304688 90.8125 C 236.0625 90.558594 236.859375 90.894531 237.199219 91.617188 L 237.820312 92.925781 L 261.65625 89.550781 C 262.753906 89.394531 263.871094 89.445312 264.9375 89.691406 L 265.363281 86.453125 L 256.277344 85.472656 L 119.507812 104.847656 Z M 119.511719 104.847656 " fill-opacity="1" fill-rule="nonzero"/><path fill="#ffffff" d="M 73.867188 276.636719 C 68.492188 276.636719 63.785156 272.679688 63.007812 267.210938 L 42.808594 124.621094 C 42.015625 119.03125 45.703125 113.660156 51.195312 112.402344 C 51.519531 112.324219 51.828125 112.269531 52.132812 112.226562 L 66.605469 110.175781 L 63.949219 114.777344 C 63.28125 115.9375 63.136719 117.265625 63.546875 118.519531 L 63.945312 119.742188 L 60.617188 120.210938 C 60.199219 120.269531 59.792969 120.367188 59.410156 120.5 C 59.1875 120.574219 59.007812 120.640625 58.84375 120.71875 L 58.632812 120.808594 C 58.523438 120.863281 58.414062 120.921875 58.308594 120.980469 C 57.773438 121.277344 57.292969 121.632812 56.875 122.046875 C 56.800781 122.117188 56.738281 122.179688 56.671875 122.25 C 56.394531 122.546875 56.148438 122.859375 55.941406 123.179688 C 55.597656 123.703125 55.328125 124.269531 55.144531 124.863281 C 55.007812 125.296875 54.914062 125.738281 54.871094 126.179688 L 54.851562 126.402344 C 54.851562 126.402344 54.851562 126.425781 54.851562 126.4375 L 54.84375 126.570312 L 54.84375 126.589844 C 54.824219 127.011719 54.84375 127.414062 54.902344 127.820312 L 71.503906 244.980469 C 71.65625 246.054688 72.046875 247.035156 72.664062 247.914062 C 72.757812 248.050781 72.847656 248.167969 72.941406 248.285156 C 73.765625 249.289062 74.84375 250.035156 76.070312 250.4375 C 76.160156 250.464844 76.246094 250.492188 76.332031 250.519531 C 76.53125 250.574219 76.71875 250.617188 76.9375 250.660156 C 77.140625 250.699219 77.355469 250.726562 77.585938 250.746094 C 77.9375 250.777344 78.289062 250.78125 78.640625 250.753906 C 78.8125 250.746094 78.953125 250.730469 79.085938 250.707031 L 252.097656 226.199219 L 239.933594 247.261719 C 239.039062 248.820312 238.675781 250.566406 238.886719 252.300781 L 239.015625 253.351562 L 75.414062 276.527344 C 74.894531 276.601562 74.378906 276.636719 73.867188 276.636719 Z M 62.527344 112.925781 L 52.429688 114.355469 C 52.1875 114.390625 51.941406 114.4375 51.679688 114.496094 C 47.261719 115.511719 44.304688 119.828125 44.941406 124.320312 L 65.140625 266.910156 C 65.820312 271.71875 70.289062 275.074219 75.105469 274.398438 L 222.777344 253.476562 L 236.675781 251.503906 C 236.644531 249.65625 237.117188 247.835938 238.074219 246.183594 L 248.023438 228.945312 L 79.410156 252.832031 C 79.226562 252.863281 79.015625 252.882812 78.78125 252.898438 C 78.328125 252.929688 77.855469 252.925781 77.40625 252.882812 C 77.105469 252.859375 76.8125 252.820312 76.542969 252.769531 C 76.257812 252.714844 76.003906 252.65625 75.765625 252.589844 C 75.660156 252.5625 75.523438 252.519531 75.390625 252.472656 C 73.78125 251.945312 72.355469 250.96875 71.273438 249.644531 C 71.140625 249.480469 71.015625 249.316406 70.894531 249.140625 C 70.082031 247.992188 69.566406 246.6875 69.367188 245.273438 L 52.769531 128.113281 C 52.691406 127.589844 52.667969 127.046875 52.6875 126.511719 C 52.6875 126.46875 52.6875 126.425781 52.691406 126.386719 L 52.699219 126.273438 C 52.699219 126.246094 52.703125 126.210938 52.707031 126.171875 L 52.726562 125.964844 C 52.785156 125.371094 52.910156 124.789062 53.085938 124.21875 C 53.328125 123.4375 53.679688 122.6875 54.136719 122 C 54.410156 121.578125 54.730469 121.164062 55.089844 120.78125 L 55.117188 120.757812 C 55.203125 120.667969 55.285156 120.582031 55.375 120.496094 C 55.921875 119.957031 56.558594 119.484375 57.246094 119.101562 C 57.46875 118.972656 57.71875 118.851562 57.96875 118.742188 L 58.179688 118.652344 C 58.347656 118.585938 58.523438 118.519531 58.710938 118.457031 C 59.21875 118.28125 59.761719 118.15625 60.316406 118.074219 L 61.21875 117.949219 C 61.027344 116.492188 61.320312 115.019531 62.082031 113.699219 L 62.527344 112.929688 Z M 62.527344 112.925781 " fill-opacity="1" fill-rule="nonzero"/><path fill="#ffffff" d="M 67.453125 277.585938 C 62.078125 277.585938 57.371094 273.625 56.59375 268.160156 L 36.394531 125.570312 C 35.984375 122.667969 36.730469 119.78125 38.488281 117.441406 C 40.246094 115.097656 42.816406 113.582031 45.714844 113.171875 L 51.285156 112.382812 L 51.675781 114.496094 C 47.261719 115.511719 44.304688 119.828125 44.941406 124.320312 L 65.140625 266.910156 C 65.820312 271.71875 70.289062 275.074219 75.105469 274.398438 L 222.777344 253.476562 L 232.476562 252.097656 L 232.476562 253.285156 C 232.476562 253.3125 232.476562 253.34375 232.476562 253.375 L 232.476562 254.308594 L 216.664062 256.550781 L 68.992188 277.472656 C 68.472656 277.542969 67.957031 277.582031 67.449219 277.582031 Z M 45.949219 115.3125 C 43.644531 115.65625 41.605469 116.867188 40.207031 118.730469 C 38.792969 120.613281 38.191406 122.933594 38.523438 125.265625 L 58.722656 267.855469 C 59.40625 272.664062 63.875 276.023438 68.691406 275.339844 L 68.703125 275.339844 C 65.722656 273.742188 63.515625 270.800781 63.003906 267.207031 L 42.804688 124.617188 C 42.308594 121.109375 43.578125 117.683594 45.949219 115.3125 Z M 45.949219 115.3125 " fill-opacity="1" fill-rule="nonzero"/><path fill="#ffffff" d="M 281.28125 180.082031 L 272.910156 120.953125 L 274.773438 122.542969 L 283.804688 115.699219 L 292.894531 179.832031 L 283.582031 179.832031 C 283.164062 179.832031 282.753906 179.863281 282.359375 179.921875 L 281.285156 180.085938 Z M 275.601562 124.605469 L 283.121094 177.6875 C 283.269531 177.679688 283.425781 177.675781 283.578125 177.675781 L 290.410156 177.675781 L 282.183594 119.621094 L 275.761719 124.492188 C 275.707031 124.53125 275.652344 124.566406 275.601562 124.601562 Z M 275.601562 124.605469 " fill-opacity="1" fill-rule="nonzero"/><path fill="#ffffff" d="M 78.164062 252.917969 C 77.90625 252.917969 77.652344 252.910156 77.398438 252.882812 C 77.097656 252.859375 76.804688 252.820312 76.535156 252.769531 C 76.253906 252.714844 75.996094 252.65625 75.757812 252.589844 C 75.652344 252.5625 75.515625 252.519531 75.382812 252.472656 C 73.773438 251.945312 72.347656 250.96875 71.265625 249.644531 C 71.132812 249.480469 71.007812 249.316406 70.886719 249.140625 C 70.074219 247.992188 69.558594 246.6875 69.359375 245.273438 L 52.765625 128.113281 C 52.6875 127.535156 52.65625 126.957031 52.6875 126.386719 L 52.6875 126.347656 C 52.691406 126.328125 52.691406 126.304688 52.691406 126.289062 L 52.71875 125.964844 C 52.777344 125.371094 52.902344 124.789062 53.078125 124.21875 C 53.320312 123.4375 53.671875 122.6875 54.128906 122 C 54.402344 121.578125 54.722656 121.164062 55.082031 120.78125 L 55.109375 120.757812 C 55.195312 120.667969 55.277344 120.582031 55.367188 120.496094 C 55.917969 119.957031 56.550781 119.484375 57.242188 119.101562 C 57.464844 118.972656 57.710938 118.851562 57.960938 118.742188 L 58.171875 118.652344 C 58.339844 118.585938 58.515625 118.519531 58.703125 118.457031 C 59.210938 118.28125 59.753906 118.15625 60.308594 118.074219 L 63.257812 117.660156 L 63.539062 118.519531 C 64.058594 120.132812 65.632812 121.753906 67.972656 121.753906 L 118.722656 121.753906 C 120.402344 121.753906 121.910156 120.886719 122.75 119.433594 C 123.59375 117.976562 123.59375 116.234375 122.75 114.773438 L 119.792969 109.648438 L 236.578125 93.101562 L 261.652344 89.550781 C 263.210938 89.332031 264.796875 89.523438 266.238281 90.113281 L 267.011719 90.425781 L 261.792969 129.851562 C 261.792969 129.851562 261.796875 129.863281 261.808594 129.867188 L 272.535156 103.003906 L 283.410156 179.765625 L 282.351562 179.921875 C 279.886719 180.289062 277.753906 181.746094 276.5 183.921875 L 250.726562 228.558594 L 250.207031 228.636719 L 79.402344 252.832031 C 79.203125 252.863281 78.996094 252.882812 78.796875 252.902344 C 78.585938 252.917969 78.375 252.921875 78.160156 252.921875 Z M 54.84375 126.511719 C 54.820312 126.945312 54.84375 127.382812 54.902344 127.820312 L 71.5 244.976562 C 71.652344 246.050781 72.042969 247.035156 72.660156 247.910156 C 72.753906 248.046875 72.84375 248.164062 72.941406 248.28125 C 73.761719 249.289062 74.839844 250.03125 76.066406 250.433594 C 76.15625 250.460938 76.242188 250.488281 76.328125 250.515625 C 76.527344 250.574219 76.714844 250.617188 76.933594 250.65625 C 77.136719 250.695312 77.351562 250.722656 77.582031 250.742188 C 77.933594 250.773438 78.285156 250.773438 78.636719 250.75 C 78.78125 250.742188 78.945312 250.71875 79.101562 250.699219 L 249.386719 226.574219 L 274.636719 182.847656 C 276.039062 180.414062 278.3125 178.691406 280.984375 178.007812 L 273.347656 124.078125 C 273.074219 123.660156 273 123.152344 273.144531 122.679688 L 271.539062 111.316406 L 263.816406 130.660156 C 263.40625 131.6875 262.335938 132.230469 261.261719 131.949219 C 260.1875 131.671875 259.515625 130.667969 259.660156 129.570312 L 264.65625 91.851562 C 263.785156 91.617188 262.867188 91.558594 261.960938 91.6875 L 238.789062 94.972656 L 243.742188 105.417969 L 250.996094 102.816406 C 251.425781 102.664062 251.894531 102.703125 252.285156 102.925781 C 252.675781 103.148438 252.953125 103.527344 253.042969 103.96875 L 257.796875 127.84375 C 257.957031 128.621094 257.523438 129.371094 256.769531 129.621094 C 256.015625 129.875 255.21875 129.535156 254.875 128.8125 L 246.972656 112.242188 L 240.957031 115.304688 C 240.539062 115.523438 240.019531 115.53125 239.585938 115.324219 C 239.148438 115.113281 238.832031 114.707031 238.734375 114.230469 L 234.886719 95.527344 L 123.257812 111.34375 L 124.625 113.703125 C 125.855469 115.839844 125.855469 118.382812 124.625 120.515625 C 123.390625 122.644531 121.191406 123.914062 118.734375 123.914062 L 67.984375 123.914062 C 65.332031 123.914062 62.964844 122.390625 61.84375 120.042969 L 60.621094 120.214844 C 60.203125 120.273438 59.796875 120.367188 59.410156 120.5 C 59.191406 120.578125 59.011719 120.644531 58.847656 120.722656 L 58.636719 120.8125 C 58.527344 120.867188 58.417969 120.925781 58.3125 120.984375 C 57.777344 121.28125 57.296875 121.636719 56.878906 122.046875 C 56.800781 122.121094 56.742188 122.183594 56.675781 122.253906 C 56.398438 122.550781 56.152344 122.863281 55.945312 123.183594 C 55.601562 123.707031 55.332031 124.273438 55.148438 124.867188 C 55.011719 125.300781 54.917969 125.742188 54.875 126.183594 L 54.855469 126.429688 C 54.855469 126.464844 54.855469 126.492188 54.851562 126.515625 Z M 247.25 109.871094 C 247.414062 109.871094 247.582031 109.894531 247.746094 109.949219 C 248.140625 110.082031 248.46875 110.375 248.648438 110.753906 L 254.742188 123.53125 L 251.066406 105.070312 L 243.957031 107.625 C 243.207031 107.894531 242.382812 107.554688 242.035156 106.835938 L 237.402344 97.070312 L 240.683594 113.023438 L 246.550781 110.039062 C 246.765625 109.929688 247.007812 109.871094 247.253906 109.871094 Z M 240.84375 113.789062 L 240.84375 113.796875 C 240.84375 113.796875 240.84375 113.792969 240.84375 113.789062 Z M 239.980469 113.382812 C 239.980469 113.382812 239.972656 113.382812 239.972656 113.382812 Z M 247.53125 111.957031 L 247.527344 111.957031 C 247.527344 111.957031 247.527344 111.957031 247.53125 111.957031 Z M 247.53125 111.957031 " fill-opacity="1" fill-rule="nonzero"/><path fill="#ffffff" d="M 53.796875 126.070312 C 53.78125 126.195312 53.773438 126.320312 53.765625 126.445312 L 53.765625 126.390625 C 53.773438 126.285156 53.785156 126.175781 53.796875 126.070312 Z M 53.796875 126.070312 " fill-opacity="1" fill-rule="nonzero"/><path fill="#ffffff" d="M 53.796875 126.070312 C 53.792969 126.109375 53.789062 126.148438 53.785156 126.183594 C 53.789062 126.144531 53.792969 126.105469 53.796875 126.070312 Z M 53.785156 126.183594 C 53.777344 126.25 53.769531 126.320312 53.765625 126.390625 L 53.765625 126.445312 C 53.769531 126.359375 53.777344 126.269531 53.785156 126.183594 Z M 53.785156 126.183594 " fill-opacity="1" fill-rule="nonzero"/><path fill="#ffffff" d="M 274.367188 123.617188 C 274.148438 123.433594 274.058594 123.113281 274.253906 122.832031 Z M 274.367188 123.617188 " fill-opacity="1" fill-rule="nonzero"/><path fill="#ffffff" d="M 274.253906 122.832031 C 274.058594 123.113281 274.148438 123.433594 274.367188 123.617188 Z M 274.253906 122.832031 " fill-opacity="1" fill-rule="nonzero"/><path fill="#ffffff" d="M 180.859375 253.398438 C 183.695312 253.398438 185.996094 251.097656 185.996094 248.257812 C 185.996094 245.417969 183.695312 243.117188 180.859375 243.117188 C 178.019531 243.117188 175.71875 245.417969 175.71875 248.257812 C 175.71875 251.097656 178.019531 253.398438 180.859375 253.398438 Z M 180.859375 253.398438 " fill-opacity="1" fill-rule="nonzero"/><path fill="#ffffff" d="M 149.296875 158.117188 C 150.53125 159.046875 150.78125 160.800781 149.851562 162.035156 C 149.386719 162.652344 148.71875 163.027344 148.007812 163.125 C 147.289062 163.226562 146.542969 163.0625 145.925781 162.59375 L 135.503906 154.761719 L 127.675781 165.175781 C 126.746094 166.417969 124.988281 166.667969 123.746094 165.738281 C 123.132812 165.269531 122.757812 164.605469 122.660156 163.890625 C 122.550781 163.179688 122.730469 162.429688 123.191406 161.816406 L 131.023438 151.398438 L 120.601562 143.566406 C 119.367188 142.636719 119.117188 140.875 120.046875 139.640625 C 120.511719 139.019531 121.1875 138.644531 121.898438 138.542969 C 122.605469 138.445312 123.355469 138.617188 123.976562 139.078125 L 134.394531 146.90625 L 142.21875 136.496094 C 143.152344 135.253906 144.914062 135.003906 146.152344 135.9375 C 146.773438 136.402344 147.144531 137.074219 147.242188 137.785156 C 147.34375 138.492188 147.171875 139.242188 146.703125 139.859375 L 138.871094 150.277344 L 149.292969 158.117188 Z M 149.296875 158.117188 " fill-opacity="1" fill-rule="nonzero"/><path fill="#ffffff" d="M 212.792969 153.121094 C 212.335938 153.738281 211.660156 154.109375 210.953125 154.210938 C 210.234375 154.3125 209.488281 154.144531 208.871094 153.679688 L 198.453125 145.84375 L 190.617188 156.261719 C 189.691406 157.503906 187.9375 157.753906 186.695312 156.820312 C 186.078125 156.351562 185.703125 155.6875 185.605469 154.972656 C 185.5 154.261719 185.675781 153.511719 186.136719 152.898438 L 193.96875 142.476562 L 183.550781 134.648438 C 182.316406 133.71875 182.0625 131.953125 182.992188 130.71875 C 183.460938 130.101562 184.132812 129.726562 184.84375 129.625 C 185.554688 129.523438 186.300781 129.695312 186.921875 130.164062 L 197.339844 137.992188 L 205.171875 127.578125 C 206.105469 126.335938 207.863281 126.089844 209.101562 127.023438 C 209.722656 127.484375 210.089844 128.15625 210.1875 128.871094 C 210.289062 129.578125 210.121094 130.328125 209.648438 130.945312 L 201.820312 141.363281 L 212.242188 149.199219 C 213.476562 150.128906 213.722656 151.886719 212.789062 153.121094 Z M 212.792969 153.121094 " fill-opacity="1" fill-rule="nonzero"/><path fill="#ffffff" d="M 216.402344 183.929688 C 216.667969 185.347656 215.539062 186.535156 214.238281 186.8125 C 213.308594 187.007812 212.378906 187.203125 211.449219 187.394531 C 206.265625 188.484375 201.082031 189.554688 195.894531 190.609375 C 193.558594 191.082031 191.226562 191.554688 188.894531 192.023438 C 180.320312 193.75 171.738281 195.433594 163.148438 197.074219 C 152.21875 199.160156 141.28125 201.1875 130.328125 203.148438 C 128.921875 203.402344 127.699219 202.300781 127.449219 200.984375 C 127.1875 199.597656 128.300781 198.339844 129.613281 198.101562 C 135.757812 197 141.898438 195.882812 148.039062 194.738281 C 158.976562 192.703125 169.902344 190.605469 180.816406 188.445312 C 183.128906 187.984375 185.445312 187.527344 187.757812 187.054688 C 195.277344 185.546875 202.792969 184.007812 210.304688 182.433594 C 211.371094 182.214844 212.445312 181.984375 213.515625 181.761719 C 214.910156 181.46875 216.15625 182.644531 216.398438 183.925781 Z M 216.402344 183.929688 " fill-opacity="1" fill-rule="nonzero"/><path fill="#ffffff" d="M 203.703125 205.058594 C 197.507812 206.484375 191.332031 202.617188 189.90625 196.421875 L 188.894531 192.019531 C 191.226562 191.550781 193.5625 191.078125 195.894531 190.605469 C 201.078125 189.550781 206.265625 188.480469 211.449219 187.394531 L 212.339844 191.261719 C 213.761719 197.457031 209.898438 203.632812 203.703125 205.058594 Z M 203.703125 205.058594 " fill-opacity="1" fill-rule="nonzero"/><g mask="url(#db672e37b8)"><g transform="matrix(1, 0, 0, 1, 148, 262)"><g clip-path="url(#ebf2edf694)"><path fill="#ffffff" d="M 13.667969 1.21875 L 13.667969 29.613281 L 1.070312 29.613281 L 1.070312 3.003906 Z M 13.667969 1.21875 " fill-opacity="1" fill-rule="nonzero"/></g></g></g><g mask="url(#99a7c0bc83)"><g transform="matrix(1, 0, 0, 1, 161, 254)"><g clip-path="url(#d2df81c70f)"><g clip-path="url(#36b026a9e0)"><path fill="#ffffff" d="M 61.925781 0.542969 L 61.925781 37.613281 L 0.667969 37.613281 L 0.667969 9.21875 Z M 61.925781 0.542969 " fill-opacity="1" fill-rule="nonzero"/></g></g></g></g><g mask="url(#8e3bdcc0ce)"><g transform="matrix(1, 0, 0, 1, 137, 291)"><g clip-path="url(#e9810b671a)"><g clip-path="url(#2455828d12)"><path fill="#ffffff" d="M 114.652344 0.613281 L 3.953125 0.613281 C 2.335938 0.613281 1.019531 1.925781 1.019531 3.546875 L 1.019531 10.730469 C 1.019531 12.351562 2.335938 13.664062 3.953125 13.664062 L 114.652344 13.664062 C 116.273438 13.664062 117.585938 12.351562 117.585938 10.730469 L 117.585938 3.546875 C 117.585938 1.925781 116.273438 0.613281 114.652344 0.613281 Z M 114.652344 0.613281 " fill-opacity="1" fill-rule="nonzero"/></g></g></g></g><path fill="#ffffff" d="M 162.742188 292.691406 L 147.992188 292.691406 L 147.992188 264.066406 L 162.742188 261.980469 Z M 150.144531 290.539062 L 160.589844 290.539062 L 160.589844 264.457031 L 150.144531 265.9375 Z M 150.144531 290.539062 " fill-opacity="1" fill-rule="nonzero"/><path fill="#ffffff" d="M 224.003906 292.691406 L 160.589844 292.691406 L 160.589844 262.289062 L 161.515625 262.15625 L 224.003906 253.304688 L 224.003906 292.695312 Z M 162.742188 290.539062 L 221.847656 290.539062 L 221.847656 255.785156 L 162.742188 264.15625 Z M 162.742188 290.539062 " fill-opacity="1" fill-rule="nonzero"/><path fill="#ffffff" d="M 251.652344 305.742188 L 140.953125 305.742188 C 138.742188 305.742188 136.945312 303.941406 136.945312 301.730469 L 136.945312 294.546875 C 136.945312 292.335938 138.742188 290.539062 140.953125 290.539062 L 251.652344 290.539062 C 253.863281 290.539062 255.664062 292.335938 255.664062 294.546875 L 255.664062 301.730469 C 255.664062 303.941406 253.863281 305.742188 251.652344 305.742188 Z M 140.953125 292.691406 C 139.929688 292.691406 139.097656 293.523438 139.097656 294.546875 L 139.097656 301.730469 C 139.097656 302.753906 139.929688 303.585938 140.953125 303.585938 L 251.652344 303.585938 C 252.675781 303.585938 253.507812 302.753906 253.507812 301.730469 L 253.507812 294.546875 C 253.507812 293.523438 252.675781 292.691406 251.652344 292.691406 Z M 140.953125 292.691406 " fill-opacity="1" fill-rule="nonzero"/><g mask="url(#909763d10a)"><g transform="matrix(1, 0, 0, 1, 234, 34)"><g clip-path="url(#f6b57ad0ed)"><g clip-path="url(#36ca83d4da)"><path fill="#ffffff" d="M 49.496094 44.453125 L 44.957031 55.824219 L 38.035156 73.160156 L 28.816406 96.257812 C 28.34375 97.449219 26.558594 96.980469 26.726562 95.710938 L 31.839844 57.109375 L 32.433594 52.597656 C 32.515625 51.992188 32.078125 51.4375 31.472656 51.371094 L 22.261719 50.390625 L 14.683594 49.585938 C 13.972656 49.511719 13.523438 48.777344 13.785156 48.109375 L 32.246094 0.992188 C 32.71875 -0.203125 34.511719 0.257812 34.339844 1.535156 L 29.511719 37.433594 C 29.441406 37.988281 29.796875 38.507812 30.339844 38.636719 L 48.734375 42.992188 C 49.386719 43.140625 49.746094 43.835938 49.496094 44.453125 Z M 49.496094 44.453125 " fill-opacity="1" fill-rule="nonzero"/></g><g clip-path="url(#c6cdd2a7af)"><path fill="#ffffff" d="M 58.011719 62.328125 C 57.824219 62.570312 57.839844 62.914062 58.058594 63.125 L 65.4375 70.347656 C 65.695312 70.597656 65.667969 71.027344 65.378906 71.246094 L 48.992188 83.664062 L 41.109375 89.640625 C 40.851562 89.832031 40.5625 89.78125 40.371094 89.617188 L 40.367188 89.617188 C 40.148438 89.433594 40.058594 89.113281 40.253906 88.832031 L 40.257812 88.832031 C 40.257812 88.832031 40.273438 88.804688 40.28125 88.792969 L 48.296875 78.761719 L 55.105469 70.242188 C 55.316406 69.980469 55.265625 69.601562 55 69.398438 L 47.65625 63.832031 C 47.34375 63.597656 47.339844 63.125 47.65625 62.890625 L 69.566406 46.0625 C 70.125 45.636719 70.832031 46.355469 70.390625 46.90625 L 58.015625 62.328125 Z M 58.011719 62.328125 " fill-opacity="1" fill-rule="nonzero"/></g><path fill="#ffffff" d="M 21.847656 94.347656 L 13.675781 77.214844 C 13.5625 76.976562 13.269531 76.875 13.035156 76.996094 L 6.464844 80.339844 C 6.191406 80.484375 5.847656 80.316406 5.789062 80.011719 L 1.730469 60.3125 L 1.332031 58.382812 C 1.21875 57.832031 1.988281 57.578125 2.226562 58.082031 L 3.1875 60.105469 L 9 72.363281 C 9.109375 72.585938 9.363281 72.691406 9.59375 72.609375 L 17.355469 69.824219 C 17.628906 69.726562 17.925781 69.894531 17.984375 70.179688 L 22.738281 94.050781 C 22.851562 94.597656 22.085938 94.855469 21.847656 94.347656 Z M 21.847656 94.347656 " fill-opacity="1" fill-rule="nonzero"/></g></g></g><path fill="#ffffff" d="M 261.824219 132.023438 C 261.636719 132.023438 261.453125 131.996094 261.261719 131.949219 C 260.1875 131.671875 259.515625 130.667969 259.660156 129.570312 L 265.367188 86.457031 L 256.152344 85.464844 L 248.574219 84.660156 C 247.894531 84.589844 247.304688 84.210938 246.949219 83.628906 C 246.59375 83.050781 246.535156 82.351562 246.78125 81.71875 L 265.246094 34.601562 C 265.652344 33.566406 266.726562 33.015625 267.808594 33.296875 C 268.886719 33.578125 269.554688 34.578125 269.410156 35.683594 L 264.582031 71.582031 L 282.988281 75.945312 C 283.597656 76.085938 284.117188 76.488281 284.40625 77.046875 C 284.703125 77.609375 284.734375 78.269531 284.496094 78.855469 L 263.816406 130.660156 C 263.480469 131.507812 262.691406 132.027344 261.824219 132.027344 Z M 267.246094 35.375 C 267.246094 35.375 267.242188 35.375 267.238281 35.375 L 248.789062 82.5 L 265.585938 84.296875 C 266.171875 84.359375 266.695312 84.648438 267.0625 85.117188 C 267.425781 85.578125 267.582031 86.15625 267.503906 86.742188 L 261.796875 129.851562 C 261.796875 129.851562 261.800781 129.863281 261.8125 129.867188 L 282.5 78.054688 C 282.5 78.054688 282.503906 78.046875 282.5 78.042969 L 264.097656 73.6875 C 263.011719 73.429688 262.304688 72.402344 262.449219 71.296875 L 267.277344 35.394531 C 267.277344 35.394531 267.277344 35.390625 267.277344 35.386719 C 267.265625 35.382812 267.253906 35.378906 267.246094 35.378906 Z M 267.246094 35.375 " fill-opacity="1" fill-rule="nonzero"/><path fill="#ffffff" d="M 274.75 124.839844 C 274.519531 124.839844 274.289062 124.789062 274.074219 124.695312 L 273.976562 124.695312 L 273.671875 124.4375 C 273.011719 123.878906 272.882812 122.929688 273.371094 122.222656 C 273.382812 122.207031 273.394531 122.191406 273.402344 122.179688 L 273.699219 121.753906 L 273.742188 121.753906 L 287.960938 103.960938 L 281.011719 98.691406 C 280.59375 98.371094 280.347656 97.886719 280.347656 97.355469 C 280.347656 96.832031 280.589844 96.347656 281.007812 96.027344 L 302.914062 79.207031 C 303.59375 78.679688 304.523438 78.75 305.125 79.359375 C 305.722656 79.972656 305.773438 80.902344 305.238281 81.574219 L 293.132812 96.660156 L 300.195312 103.574219 C 300.542969 103.914062 300.726562 104.386719 300.695312 104.875 C 300.664062 105.363281 300.421875 105.808594 300.035156 106.101562 L 275.769531 124.492188 C 275.460938 124.722656 275.109375 124.835938 274.757812 124.835938 Z M 282.8125 97.355469 L 289.652344 102.539062 C 290.007812 102.808594 290.242188 103.214844 290.300781 103.660156 C 290.359375 104.109375 290.234375 104.554688 289.953125 104.910156 L 277.539062 120.445312 L 298.289062 104.71875 L 291.3125 97.890625 C 290.699219 97.296875 290.640625 96.335938 291.175781 95.65625 L 291.175781 95.652344 L 301.050781 83.351562 L 282.816406 97.351562 Z M 282.316406 97.734375 L 282.3125 97.734375 C 282.3125 97.734375 282.3125 97.734375 282.316406 97.734375 Z M 292.8125 96.347656 L 292.816406 96.347656 C 292.816406 96.347656 292.816406 96.347656 292.8125 96.347656 Z M 292.8125 96.347656 " fill-opacity="1" fill-rule="nonzero"/><path fill="#ffffff" d="M 256.261719 129.695312 C 255.679688 129.695312 255.140625 129.367188 254.875 128.808594 L 246.96875 112.234375 L 240.953125 115.296875 C 240.535156 115.515625 240.019531 115.523438 239.582031 115.316406 C 239.144531 115.105469 238.828125 114.699219 238.734375 114.222656 L 234.277344 92.601562 C 234.117188 91.824219 234.546875 91.070312 235.300781 90.816406 C 236.058594 90.5625 236.855469 90.898438 237.195312 91.621094 L 243.734375 105.410156 L 250.988281 102.808594 C 251.417969 102.65625 251.886719 102.695312 252.277344 102.917969 C 252.667969 103.140625 252.945312 103.523438 253.035156 103.964844 L 257.792969 127.839844 C 257.949219 128.613281 257.515625 129.363281 256.761719 129.613281 C 256.59375 129.671875 256.421875 129.695312 256.257812 129.695312 Z M 247.25 109.867188 C 247.414062 109.867188 247.582031 109.890625 247.746094 109.945312 C 248.140625 110.078125 248.46875 110.375 248.648438 110.75 L 254.742188 123.527344 L 251.066406 105.070312 L 243.957031 107.621094 C 243.207031 107.890625 242.382812 107.550781 242.035156 106.832031 L 237.402344 97.066406 L 240.683594 113.015625 L 246.550781 110.03125 C 246.765625 109.921875 247.007812 109.863281 247.253906 109.863281 Z M 240.84375 113.785156 L 240.84375 113.792969 C 240.84375 113.792969 240.84375 113.789062 240.84375 113.785156 Z M 239.980469 113.378906 C 239.980469 113.378906 239.972656 113.378906 239.972656 113.382812 L 239.980469 113.382812 Z M 247.53125 111.953125 L 247.527344 111.953125 C 247.527344 111.953125 247.527344 111.953125 247.53125 111.953125 Z M 247.53125 111.953125 " fill-opacity="1" fill-rule="nonzero"/><g mask="url(#8d0018364a)"><g transform="matrix(1, 0, 0, 1, 61, 304)"><g clip-path="url(#bbc3119a39)"><g clip-path="url(#bb9b68934b)"><path fill="#ffffff" d="M 260.855469 0.664062 L 5.082031 0.664062 C 2.878906 0.664062 1.09375 2.449219 1.09375 4.652344 L 1.09375 8.6875 C 1.09375 10.886719 2.878906 12.671875 5.082031 12.671875 L 260.855469 12.671875 C 263.058594 12.671875 264.84375 10.886719 264.84375 8.6875 L 264.84375 4.652344 C 264.84375 2.449219 263.058594 0.664062 260.855469 0.664062 Z M 260.855469 0.664062 " fill-opacity="1" fill-rule="nonzero"/></g></g></g></g><path fill="#ffffff" d="M 321.855469 317.75 L 66.085938 317.75 C 63.292969 317.75 61.019531 315.476562 61.019531 312.683594 L 61.019531 308.652344 C 61.019531 305.859375 63.292969 303.585938 66.085938 303.585938 L 321.855469 303.585938 C 324.648438 303.585938 326.921875 305.859375 326.921875 308.652344 L 326.921875 312.683594 C 326.921875 315.476562 324.648438 317.75 321.855469 317.75 Z M 66.085938 305.742188 C 64.480469 305.742188 63.171875 307.046875 63.171875 308.652344 L 63.171875 312.683594 C 63.171875 314.285156 64.480469 315.597656 66.085938 315.597656 L 321.855469 315.597656 C 323.460938 315.597656 324.769531 314.289062 324.769531 312.683594 L 324.769531 308.652344 C 324.769531 307.046875 323.460938 305.742188 321.855469 305.742188 Z M 66.085938 305.742188 " fill-opacity="1" fill-rule="nonzero"/><path fill="#ffffff" d="M 286.382812 219.199219 C 286.488281 219 286.585938 218.792969 286.679688 218.582031 C 286.589844 218.792969 286.492188 219 286.382812 219.199219 Z M 286.382812 219.199219 " fill-opacity="1" fill-rule="nonzero"/><path fill="#ffffff" d="M 286.679688 218.582031 C 286.585938 218.792969 286.488281 219 286.382812 219.199219 C 286.492188 219 286.589844 218.792969 286.679688 218.582031 Z M 286.679688 218.582031 " fill-opacity="1" fill-rule="nonzero"/><path fill="#ffffff" d="M 287.277344 216.195312 C 287.253906 216.46875 287.21875 216.738281 287.164062 217 C 287.214844 216.734375 287.253906 216.464844 287.277344 216.195312 Z M 287.277344 216.195312 " fill-opacity="1" fill-rule="nonzero"/><path fill="#ffffff" d="M 287.277344 216.195312 C 287.253906 216.464844 287.214844 216.734375 287.164062 217 C 287.21875 216.738281 287.253906 216.46875 287.277344 216.195312 Z M 287.277344 216.195312 " fill-opacity="1" fill-rule="nonzero"/><path fill="#ffffff" d="M 246.535156 260.117188 L 255.296875 260.117188 C 248.179688 260.117188 243.730469 252.414062 247.289062 246.242188 L 283.859375 182.90625 C 285.640625 179.820312 288.75 178.28125 291.867188 178.28125 L 283.105469 178.28125 C 279.988281 178.28125 276.878906 179.820312 275.097656 182.90625 L 238.527344 246.242188 C 234.972656 252.410156 239.417969 260.117188 246.535156 260.117188 Z M 246.535156 260.117188 " fill-opacity="1" fill-rule="nonzero"/><path fill="#ffffff" d="M 255.292969 261.191406 L 246.53125 261.191406 C 242.800781 261.191406 239.457031 259.261719 237.59375 256.03125 C 235.730469 252.800781 235.730469 248.9375 237.59375 245.707031 L 274.164062 182.367188 C 276.03125 179.132812 279.371094 177.203125 283.105469 177.203125 L 291.867188 177.203125 L 291.867188 179.355469 C 288.914062 179.355469 286.265625 180.886719 284.792969 183.445312 L 248.222656 246.78125 C 246.746094 249.339844 246.746094 252.394531 248.222656 254.953125 C 249.699219 257.511719 252.34375 259.039062 255.296875 259.039062 L 255.296875 261.191406 Z M 283.105469 179.355469 C 280.152344 179.355469 277.507812 180.886719 276.03125 183.445312 L 239.460938 246.78125 C 237.984375 249.339844 237.984375 252.394531 239.460938 254.953125 C 240.9375 257.511719 243.582031 259.039062 246.535156 259.039062 L 248.960938 259.039062 C 247.929688 258.234375 247.042969 257.222656 246.355469 256.03125 C 244.488281 252.800781 244.488281 248.9375 246.355469 245.707031 L 282.925781 182.367188 C 283.613281 181.175781 284.496094 180.164062 285.53125 179.355469 Z M 283.105469 179.355469 " fill-opacity="1" fill-rule="nonzero"/><g mask="url(#3fb8b39691)"><g transform="matrix(1, 0, 0, 1, 245, 178)"><g clip-path="url(#582b9193b7)"><g clip-path="url(#e4b56a14b5)"><path fill="#ffffff" d="M 10.292969 82.117188 L 83.433594 82.117188 C 90.550781 82.117188 94.996094 74.414062 91.441406 68.242188 L 54.871094 4.90625 C 53.09375 1.824219 49.976562 0.28125 46.863281 0.28125 C 43.746094 0.28125 40.636719 1.820312 38.855469 4.90625 L 2.28125 68.242188 C -1.269531 74.414062 3.175781 82.117188 10.292969 82.117188 Z M 6.554688 70.714844 L 43.125 7.371094 C 44.25 5.417969 46.113281 5.210938 46.863281 5.210938 C 47.613281 5.210938 49.480469 5.417969 50.597656 7.371094 L 87.167969 70.710938 C 88.296875 72.660156 87.546875 74.378906 87.167969 75.03125 C 86.792969 75.675781 85.679688 77.1875 83.433594 77.1875 L 10.292969 77.1875 C 8.046875 77.1875 6.933594 75.679688 6.558594 75.03125 C 6.179688 74.378906 5.429688 72.660156 6.554688 70.714844 Z M 6.554688 70.714844 " fill-opacity="1" fill-rule="nonzero"/></g></g></g></g><path fill="#ffffff" d="M 328.4375 261.191406 L 255.296875 261.191406 C 251.566406 261.191406 248.226562 259.265625 246.359375 256.035156 C 244.492188 252.804688 244.488281 248.941406 246.351562 245.707031 L 282.925781 182.367188 C 284.789062 179.132812 288.128906 177.203125 291.863281 177.203125 C 295.59375 177.203125 298.9375 179.132812 300.804688 182.367188 L 337.375 245.707031 C 339.238281 248.9375 339.238281 252.800781 337.375 256.035156 C 335.507812 259.265625 332.164062 261.191406 328.4375 261.191406 Z M 291.867188 179.355469 C 288.914062 179.355469 286.265625 180.886719 284.792969 183.441406 L 248.21875 246.777344 C 246.742188 249.335938 246.742188 252.394531 248.222656 254.953125 C 249.699219 257.511719 252.34375 259.035156 255.296875 259.035156 L 328.4375 259.035156 C 331.390625 259.035156 334.03125 257.511719 335.511719 254.953125 C 336.988281 252.394531 336.988281 249.339844 335.511719 246.777344 L 298.941406 183.441406 C 297.464844 180.882812 294.820312 179.351562 291.867188 179.351562 Z M 328.4375 256.261719 L 255.296875 256.261719 C 252.492188 256.261719 251.097656 254.375 250.628906 253.570312 C 250.15625 252.753906 249.222656 250.605469 250.625 248.175781 L 287.195312 184.828125 C 288.597656 182.394531 290.929688 182.132812 291.867188 182.132812 C 292.804688 182.132812 295.136719 182.394531 296.535156 184.828125 L 333.105469 248.167969 C 334.507812 250.601562 333.570312 252.75 333.105469 253.566406 C 332.636719 254.375 331.238281 256.261719 328.4375 256.261719 Z M 252.484375 249.246094 C 251.675781 250.65625 252.140625 251.882812 252.488281 252.492188 C 252.839844 253.09375 253.671875 254.109375 255.292969 254.109375 L 328.433594 254.109375 C 330.054688 254.109375 330.886719 253.09375 331.234375 252.488281 C 331.582031 251.886719 332.046875 250.65625 331.234375 249.246094 L 294.664062 185.90625 C 293.855469 184.496094 292.558594 184.285156 291.863281 184.285156 C 291.167969 184.285156 289.871094 184.496094 289.058594 185.902344 Z M 252.484375 249.246094 " fill-opacity="1" fill-rule="nonzero"/><g mask="url(#99574fcb02)"><g transform="matrix(1, 0, 0, 1, 250, 183)"><g clip-path="url(#2f60024167)"><g clip-path="url(#33399755c1)"><path fill="#ffffff" d="M 1.558594 70.03125 C 1.933594 70.675781 3.046875 72.1875 5.292969 72.1875 L 78.433594 72.1875 C 80.679688 72.1875 81.792969 70.679688 82.167969 70.03125 C 82.546875 69.378906 83.296875 67.660156 82.167969 65.710938 L 45.597656 2.371094 C 44.476562 0.417969 42.613281 0.210938 41.863281 0.210938 C 41.113281 0.210938 39.246094 0.417969 38.125 2.371094 L 1.554688 65.714844 C 0.429688 67.660156 1.183594 69.378906 1.558594 70.03125 Z M 46.488281 19.777344 L 45.46875 49.976562 L 38.285156 49.976562 L 37.269531 19.777344 Z M 37.027344 59.289062 C 37.027344 57.949219 37.472656 56.851562 38.359375 55.992188 C 39.25 55.136719 40.421875 54.707031 41.878906 54.707031 C 43.339844 54.707031 44.480469 55.140625 45.371094 56.007812 C 46.257812 56.875 46.699219 57.96875 46.699219 59.285156 C 46.699219 60.601562 46.257812 61.691406 45.371094 62.546875 C 44.480469 63.40625 43.316406 63.835938 41.878906 63.835938 C 40.445312 63.835938 39.25 63.40625 38.359375 62.546875 C 37.472656 61.691406 37.027344 60.597656 37.027344 59.285156 Z M 37.027344 59.289062 " fill-opacity="1" fill-rule="nonzero"/></g></g></g></g><g mask="url(#af429d50cf)"><g transform="matrix(1, 0, 0, 1, 286, 202)"><g clip-path="url(#eef90ae5d9)"><g clip-path="url(#0f06c81ae3)"><path fill="#ffffff" d="M 1.03125 40.289062 C 1.03125 41.601562 1.476562 42.691406 2.363281 43.550781 C 3.253906 44.410156 4.421875 44.839844 5.882812 44.839844 C 7.34375 44.839844 8.484375 44.410156 9.371094 43.550781 C 10.261719 42.691406 10.703125 41.601562 10.703125 40.289062 C 10.703125 38.976562 10.261719 37.878906 9.371094 37.011719 C 8.484375 36.144531 7.320312 35.707031 5.882812 35.707031 C 4.449219 35.707031 3.253906 36.140625 2.363281 36.996094 C 1.476562 37.855469 1.03125 38.953125 1.03125 40.292969 Z M 1.03125 40.289062 " fill-opacity="1" fill-rule="nonzero"/></g><g clip-path="url(#9c5e77ae42)"><path fill="#ffffff" d="M 1.273438 0.777344 L 2.289062 30.976562 L 9.46875 30.976562 L 10.488281 0.777344 Z M 1.273438 0.777344 " fill-opacity="1" fill-rule="nonzero"/></g></g></g></g><path fill="#ffffff" d="M 68.105469 122.832031 L 73.652344 122.832031 C 69.144531 122.832031 66.328125 117.949219 68.582031 114.046875 L 91.746094 73.925781 C 92.875 71.96875 94.847656 70.996094 96.816406 70.996094 L 91.269531 70.996094 C 89.296875 70.996094 87.324219 71.972656 86.199219 73.925781 L 63.035156 114.046875 C 60.78125 117.949219 63.597656 122.832031 68.105469 122.832031 Z M 68.105469 122.832031 " fill-opacity="1" fill-rule="nonzero"/><path fill="#ffffff" d="M 73.652344 123.90625 L 68.105469 123.90625 C 65.601562 123.90625 63.355469 122.613281 62.101562 120.441406 C 60.847656 118.269531 60.847656 115.679688 62.101562 113.507812 L 85.265625 73.386719 C 86.515625 71.214844 88.761719 69.921875 91.269531 69.921875 L 96.816406 69.921875 L 96.816406 72.074219 C 95.089844 72.074219 93.542969 72.96875 92.679688 74.464844 L 69.515625 114.582031 C 68.652344 116.078125 68.652344 117.867188 69.515625 119.363281 C 70.378906 120.859375 71.925781 121.753906 73.652344 121.753906 Z M 91.269531 72.074219 C 89.539062 72.074219 87.992188 72.96875 87.132812 74.464844 L 63.964844 114.582031 C 63.101562 116.078125 63.101562 117.867188 63.964844 119.363281 C 64.832031 120.859375 66.378906 121.753906 68.105469 121.753906 L 68.625 121.753906 C 68.253906 121.363281 67.929688 120.925781 67.652344 120.441406 C 66.398438 118.269531 66.398438 115.679688 67.652344 113.507812 L 90.816406 73.386719 C 91.097656 72.902344 91.421875 72.464844 91.792969 72.074219 Z M 91.269531 72.074219 " fill-opacity="1" fill-rule="nonzero"/><g mask="url(#534bbc1fb6)"><g transform="matrix(1, 0, 0, 1, 67, 70)"><g clip-path="url(#f582b90e02)"><g clip-path="url(#02fb254a7c)"><path fill="#ffffff" d="M 6.652344 52.832031 L 52.980469 52.832031 C 57.492188 52.832031 60.308594 47.953125 58.054688 44.046875 L 34.890625 3.925781 C 33.761719 1.972656 31.789062 0.996094 29.816406 0.996094 C 27.847656 0.996094 25.875 1.972656 24.746094 3.925781 L 1.578125 44.046875 C -0.671875 47.953125 2.144531 52.832031 6.652344 52.832031 Z M 4.285156 45.609375 L 27.453125 5.488281 C 28.164062 4.253906 29.34375 4.121094 29.816406 4.121094 C 30.292969 4.121094 31.472656 4.253906 32.183594 5.488281 L 55.347656 45.605469 C 56.0625 46.839844 55.585938 47.933594 55.347656 48.34375 C 55.109375 48.753906 54.402344 49.710938 52.980469 49.710938 L 6.652344 49.710938 C 5.230469 49.710938 4.523438 48.757812 4.289062 48.34375 C 4.050781 47.933594 3.574219 46.84375 4.289062 45.609375 Z M 4.285156 45.609375 " fill-opacity="1" fill-rule="nonzero"/></g></g></g></g><path fill="#ffffff" d="M 119.980469 123.90625 L 73.652344 123.90625 C 71.148438 123.90625 68.90625 122.613281 67.648438 120.445312 C 66.398438 118.273438 66.394531 115.679688 67.644531 113.507812 L 90.8125 73.386719 C 92.066406 71.214844 94.308594 69.921875 96.816406 69.921875 C 99.328125 69.921875 101.570312 71.214844 102.824219 73.390625 L 125.988281 113.511719 C 127.238281 115.679688 127.238281 118.277344 125.988281 120.449219 C 124.734375 122.617188 122.492188 123.910156 119.980469 123.910156 Z M 96.816406 72.074219 C 95.089844 72.074219 93.542969 72.96875 92.679688 74.464844 L 69.511719 114.582031 C 68.648438 116.078125 68.652344 117.871094 69.511719 119.367188 C 70.375 120.863281 71.921875 121.753906 73.648438 121.753906 L 119.980469 121.753906 C 121.707031 121.753906 123.253906 120.859375 124.117188 119.367188 C 124.980469 117.871094 124.980469 116.082031 124.117188 114.582031 L 100.953125 74.464844 C 100.089844 72.96875 98.542969 72.074219 96.816406 72.074219 Z M 119.980469 120.785156 L 73.652344 120.785156 C 71.671875 120.785156 70.683594 119.453125 70.355469 118.882812 C 70.023438 118.308594 69.359375 116.785156 70.351562 115.070312 L 93.519531 74.949219 C 94.511719 73.230469 96.15625 73.042969 96.816406 73.042969 C 97.476562 73.042969 99.128906 73.230469 100.121094 74.953125 L 123.285156 115.066406 C 124.273438 116.785156 123.613281 118.308594 123.285156 118.878906 C 122.949219 119.453125 121.96875 120.785156 119.984375 120.785156 Z M 72.21875 116.144531 C 71.800781 116.867188 72.042969 117.492188 72.21875 117.804688 C 72.398438 118.113281 72.820312 118.632812 73.648438 118.632812 L 119.980469 118.632812 C 120.808594 118.632812 121.234375 118.113281 121.414062 117.804688 C 121.59375 117.492188 121.832031 116.867188 121.414062 116.144531 L 98.25 76.023438 C 97.832031 75.304688 97.171875 75.195312 96.816406 75.195312 C 96.457031 75.195312 95.796875 75.304688 95.382812 76.023438 L 72.214844 116.148438 Z M 72.21875 116.144531 " fill-opacity="1" fill-rule="nonzero"/><g mask="url(#e39e618699)"><g transform="matrix(1, 0, 0, 1, 70, 73)"><g clip-path="url(#c3939093cf)"><g clip-path="url(#a069944e46)"><path fill="#ffffff" d="M 1.289062 45.339844 C 1.523438 45.75 2.234375 46.707031 3.652344 46.707031 L 49.980469 46.707031 C 51.40625 46.707031 52.109375 45.753906 52.347656 45.339844 C 52.585938 44.929688 53.0625 43.839844 52.347656 42.601562 L 29.183594 2.484375 C 28.472656 1.25 27.292969 1.117188 26.816406 1.117188 C 26.34375 1.117188 25.164062 1.25 24.453125 2.484375 L 1.285156 42.605469 C 0.574219 43.839844 1.046875 44.929688 1.285156 45.339844 Z M 29.75 13.507812 L 29.105469 32.640625 L 24.554688 32.640625 L 23.910156 13.507812 Z M 23.761719 38.535156 C 23.761719 37.6875 24.042969 36.992188 24.605469 36.449219 C 25.167969 35.910156 25.910156 35.636719 26.832031 35.636719 C 27.753906 35.636719 28.480469 35.914062 29.039062 36.460938 C 29.601562 37.011719 29.882812 37.703125 29.882812 38.539062 C 29.882812 39.375 29.601562 40.066406 29.039062 40.605469 C 28.476562 41.148438 27.742188 41.421875 26.832031 41.421875 C 25.925781 41.421875 25.167969 41.148438 24.605469 40.605469 C 24.042969 40.066406 23.761719 39.371094 23.761719 38.539062 Z M 23.761719 38.535156 " fill-opacity="1" fill-rule="nonzero"/></g></g></g></g><g mask="url(#89daf8b222)"><g transform="matrix(1, 0, 0, 1, 93, 86)"><g clip-path="url(#f23b3ee87e)"><g clip-path="url(#8c2eb22341)"><path fill="#ffffff" d="M 0.757812 25.535156 C 0.757812 26.367188 1.039062 27.0625 1.601562 27.601562 C 2.164062 28.144531 2.90625 28.417969 3.828125 28.417969 C 4.75 28.417969 5.476562 28.144531 6.035156 27.601562 C 6.601562 27.0625 6.878906 26.367188 6.878906 25.535156 C 6.878906 24.703125 6.601562 24.011719 6.035156 23.457031 C 5.472656 22.90625 4.738281 22.632812 3.828125 22.632812 C 2.921875 22.632812 2.164062 22.90625 1.601562 23.445312 C 1.039062 23.988281 0.757812 24.683594 0.757812 25.53125 Z M 0.757812 25.535156 " fill-opacity="1" fill-rule="nonzero"/></g><g clip-path="url(#1470d05940)"><path fill="#ffffff" d="M 0.90625 0.507812 L 1.550781 19.640625 L 6.101562 19.640625 L 6.746094 0.507812 Z M 0.90625 0.507812 " fill-opacity="1" fill-rule="nonzero"/></g></g></g></g></svg>