<svg xmlns="http://www.w3.org/2000/svg" xmlns:xlink="http://www.w3.org/1999/xlink" width="500" zoomAndPan="magnify" viewBox="0 0 375 374.999991" height="500" preserveAspectRatio="xMidYMid meet" version="1.0"><defs><clipPath id="0cd55afb99"><path d="M 140 292 L 224 292 L 224 337.5 L 140 337.5 Z M 140 292 " clip-rule="nonzero"/></clipPath><clipPath id="0b5953e360"><path d="M 124 37.5 L 252 37.5 L 252 163 L 124 163 Z M 124 37.5 " clip-rule="nonzero"/></clipPath></defs><path fill="#4c5454" d="M 60.570312 268.859375 C 59.457031 268.859375 58.335938 268.710938 57.214844 268.394531 L 18.261719 257.546875 C 14.992188 256.636719 12.285156 254.507812 10.636719 251.546875 C 8.984375 248.589844 8.597656 245.167969 9.53125 241.914062 L 39.636719 137.507812 C 41.546875 130.890625 48.488281 127.011719 55.132812 128.859375 L 94.082031 139.703125 C 97.351562 140.613281 100.058594 142.742188 101.710938 145.703125 C 103.359375 148.664062 103.757812 152.085938 102.816406 155.34375 L 72.710938 259.753906 C 71.117188 265.238281 66.042969 268.859375 60.570312 268.859375 Z M 59.390625 260.566406 C 61.75 261.222656 64.214844 259.839844 64.898438 257.492188 L 95.003906 153.085938 C 95.335938 151.929688 95.199219 150.710938 94.613281 149.664062 C 94.027344 148.613281 93.066406 147.859375 91.90625 147.53125 L 52.945312 136.6875 C 50.585938 136.027344 48.125 137.410156 47.441406 139.761719 L 17.335938 244.167969 C 17.003906 245.320312 17.140625 246.539062 17.726562 247.589844 C 18.3125 248.636719 19.269531 249.394531 20.433594 249.71875 Z M 59.390625 260.566406 " fill-opacity="1" fill-rule="nonzero"/><path fill="#4c5454" d="M 65.734375 179.042969 C 64.507812 179.042969 63.269531 178.875 62.058594 178.539062 C 58.546875 177.566406 55.628906 175.28125 53.839844 172.109375 C 52.050781 168.9375 51.605469 165.257812 52.578125 161.753906 C 54.597656 154.507812 62.132812 150.257812 69.375 152.273438 C 76.621094 154.289062 80.871094 161.824219 78.855469 169.070312 C 77.878906 172.582031 75.597656 175.5 72.425781 177.289062 C 70.34375 178.453125 68.050781 179.042969 65.734375 179.042969 Z M 65.703125 159.898438 C 64.765625 159.898438 63.839844 160.140625 63.003906 160.613281 C 61.71875 161.335938 60.800781 162.515625 60.402344 163.929688 C 59.585938 166.859375 61.304688 169.898438 64.230469 170.710938 C 65.644531 171.109375 67.132812 170.921875 68.417969 170.199219 C 69.703125 169.476562 70.621094 168.296875 71.019531 166.882812 C 71.832031 163.957031 70.117188 160.914062 67.1875 160.101562 C 66.691406 159.964844 66.199219 159.898438 65.703125 159.898438 Z M 74.929688 167.972656 Z M 74.929688 167.972656 " fill-opacity="1" fill-rule="nonzero"/><path fill="#4c5454" d="M 315.214844 268.859375 C 309.734375 268.859375 304.660156 265.246094 303.074219 259.742188 L 272.96875 155.335938 C 272.035156 152.078125 272.425781 148.65625 274.074219 145.695312 C 275.726562 142.734375 278.433594 140.605469 281.703125 139.695312 L 320.660156 128.847656 C 327.292969 127.003906 334.246094 130.882812 336.15625 137.5 L 366.261719 241.90625 C 367.199219 245.167969 366.808594 248.589844 365.15625 251.539062 C 363.507812 254.5 360.800781 256.628906 357.53125 257.539062 L 318.570312 268.386719 C 317.449219 268.703125 316.320312 268.859375 315.214844 268.859375 Z M 324.027344 136.523438 C 323.628906 136.523438 323.230469 136.574219 322.832031 136.6875 L 283.871094 147.53125 C 282.710938 147.859375 281.75 148.613281 281.164062 149.664062 C 280.578125 150.710938 280.441406 151.929688 280.773438 153.085938 L 310.878906 257.492188 C 311.554688 259.839844 314.027344 261.222656 316.382812 260.566406 L 355.335938 249.71875 C 356.5 249.394531 357.457031 248.636719 358.042969 247.589844 C 358.628906 246.539062 358.765625 245.320312 358.433594 244.167969 L 328.328125 139.761719 C 327.773438 137.800781 325.96875 136.523438 324.027344 136.523438 Z M 321.742188 132.769531 Z M 321.742188 132.769531 " fill-opacity="1" fill-rule="nonzero"/><path fill="#4c5454" d="M 309.765625 179.042969 C 303.800781 179.042969 298.304688 175.09375 296.628906 169.0625 C 295.652344 165.546875 296.101562 161.875 297.886719 158.703125 C 299.675781 155.53125 302.597656 153.246094 306.109375 152.273438 C 313.351562 150.257812 320.886719 154.507812 322.90625 161.753906 C 324.921875 168.996094 320.667969 176.53125 313.425781 178.546875 C 312.199219 178.882812 310.96875 179.042969 309.765625 179.042969 Z M 309.757812 159.898438 C 309.269531 159.898438 308.773438 159.964844 308.285156 160.101562 C 306.871094 160.5 305.691406 161.417969 304.96875 162.703125 C 304.246094 163.988281 304.066406 165.46875 304.457031 166.890625 C 304.855469 168.304688 305.773438 169.484375 307.058594 170.207031 C 308.335938 170.929688 309.824219 171.109375 311.246094 170.71875 C 314.171875 169.90625 315.886719 166.867188 315.074219 163.9375 C 314.382812 161.5 312.171875 159.898438 309.757812 159.898438 Z M 309.757812 159.898438 " fill-opacity="1" fill-rule="nonzero"/><path fill="#4c5454" d="M 267.164062 269.386719 C 264.984375 269.386719 263.179688 267.664062 263.109375 265.46875 C 263.027344 263.222656 264.773438 261.34375 267.019531 261.257812 C 267.222656 261.246094 287.3125 260.363281 303.003906 249.5 C 304.847656 248.222656 307.382812 248.6875 308.660156 250.53125 C 309.9375 252.378906 309.472656 254.90625 307.628906 256.191406 C 289.9375 268.433594 268.230469 269.355469 267.320312 269.386719 C 267.261719 269.386719 267.214844 269.386719 267.164062 269.386719 Z M 267.164062 269.386719 " fill-opacity="1" fill-rule="nonzero"/><path fill="#4c5454" d="M 83.75 264.664062 C 82.710938 264.664062 81.667969 264.265625 80.871094 263.476562 L 68.824219 251.425781 C 67.238281 249.839844 67.238281 247.265625 68.824219 245.679688 C 70.410156 244.09375 72.984375 244.09375 74.570312 245.679688 L 86.621094 257.726562 C 88.207031 259.3125 88.207031 261.890625 86.621094 263.476562 C 85.832031 264.273438 84.789062 264.664062 83.75 264.664062 Z M 83.75 264.664062 " fill-opacity="1" fill-rule="nonzero"/><g clip-path="url(#0cd55afb99)"><path fill="#4c5454" d="M 163.539062 337.539062 C 158.230469 337.539062 152.929688 335.523438 148.886719 331.484375 L 141.953125 324.546875 C 140.367188 322.964844 140.367188 320.386719 141.953125 318.800781 C 143.539062 317.214844 146.117188 317.214844 147.703125 318.800781 L 154.636719 325.734375 C 159.546875 330.644531 167.53125 330.644531 172.441406 325.734375 C 174.824219 323.371094 176.132812 320.207031 176.132812 316.839844 C 176.132812 315.207031 175.824219 313.613281 175.214844 312.101562 C 174.585938 310.546875 173.660156 309.148438 172.449219 307.9375 C 170.863281 306.355469 170.863281 303.777344 172.449219 302.191406 C 174.035156 300.605469 176.613281 300.605469 178.199219 302.191406 L 193.636719 317.621094 C 198.546875 322.53125 206.53125 322.53125 211.441406 317.621094 C 213.816406 315.246094 215.132812 312.078125 215.132812 308.71875 C 215.132812 305.363281 213.824219 302.199219 211.441406 299.816406 C 209.855469 298.230469 209.855469 295.65625 211.441406 294.070312 C 213.027344 292.484375 215.605469 292.484375 217.1875 294.070312 C 221.101562 297.980469 223.253906 303.183594 223.253906 308.71875 C 223.253906 314.257812 221.101562 319.460938 217.1875 323.371094 C 209.109375 331.449219 195.960938 331.449219 187.886719 323.371094 L 184.089844 319.574219 C 183.507812 324.085938 181.457031 328.246094 178.1875 331.5 C 174.140625 335.523438 168.839844 337.539062 163.539062 337.539062 Z M 163.539062 337.539062 " fill-opacity="1" fill-rule="nonzero"/></g><path fill="#4c5454" d="M 232.863281 312.644531 C 227.554688 312.644531 222.253906 310.628906 218.214844 306.589844 L 180.285156 268.671875 C 178.703125 267.085938 178.703125 264.507812 180.285156 262.921875 C 181.871094 261.335938 184.449219 261.335938 186.035156 262.921875 L 223.953125 300.839844 C 228.863281 305.753906 236.847656 305.753906 241.757812 300.839844 C 246.667969 295.929688 246.667969 287.945312 241.757812 283.035156 L 203.832031 245.117188 C 202.246094 243.53125 202.246094 240.957031 203.832031 239.371094 C 205.417969 237.785156 207.992188 237.785156 209.578125 239.371094 L 247.507812 277.289062 C 255.585938 285.371094 255.585938 298.515625 247.507812 306.589844 C 243.472656 310.628906 238.164062 312.644531 232.863281 312.644531 Z M 232.863281 312.644531 " fill-opacity="1" fill-rule="nonzero"/><path fill="#4c5454" d="M 250.726562 283.410156 C 245.1875 283.410156 239.984375 281.257812 236.074219 277.335938 C 234.488281 275.753906 234.488281 273.175781 236.074219 271.589844 C 237.660156 270.003906 240.238281 270.003906 241.824219 271.589844 C 244.207031 273.972656 247.359375 275.28125 250.726562 275.28125 C 254.089844 275.28125 257.246094 273.972656 259.628906 271.589844 C 261.515625 269.695312 262.734375 267.304688 263.148438 264.6875 C 263.261719 264.011719 263.320312 263.355469 263.320312 262.6875 C 263.320312 259.328125 262.011719 256.167969 259.628906 253.777344 L 199.417969 193.566406 C 195.035156 189.183594 188.605469 187.507812 182.644531 189.183594 C 179.585938 190.042969 176.832031 191.734375 174.675781 194.078125 L 155.914062 214.453125 C 155.871094 214.492188 155.839844 214.53125 155.800781 214.574219 C 146.96875 223.402344 132.613281 223.402344 123.78125 214.574219 C 116.691406 207.484375 115.089844 196.785156 119.789062 187.945312 C 125.824219 176.613281 136.246094 161.078125 151.660156 151.363281 C 151.71875 151.328125 151.773438 151.289062 151.832031 151.257812 C 164.507812 143.320312 178.402344 140.65625 193.117188 143.320312 C 195.328125 143.644531 225.960938 148.355469 249.992188 164.824219 L 276.035156 153.574219 C 278.101562 152.6875 280.488281 153.628906 281.375 155.695312 C 282.269531 157.753906 281.320312 160.148438 279.253906 161.035156 L 251.125 173.191406 C 249.808594 173.761719 248.285156 173.589844 247.132812 172.753906 C 224.148438 156.132812 192.207031 151.402344 191.886719 151.363281 C 191.839844 151.355469 191.78125 151.34375 191.734375 151.335938 C 178.984375 149.011719 166.960938 151.328125 156.003906 158.238281 C 155.945312 158.273438 155.898438 158.304688 155.839844 158.335938 C 142.019531 167.109375 132.515625 181.34375 126.96875 191.769531 C 123.960938 197.425781 124.984375 204.28125 129.53125 208.824219 C 135.164062 214.460938 144.328125 214.484375 149.992188 208.882812 L 168.703125 188.574219 C 171.871094 185.125 175.9375 182.628906 180.449219 181.363281 C 189.238281 178.890625 198.71875 181.363281 205.171875 187.816406 L 265.382812 248.027344 C 269.292969 251.945312 271.449219 257.152344 271.449219 262.679688 C 271.449219 263.800781 271.359375 264.914062 271.179688 265.988281 C 270.507812 270.273438 268.507812 274.207031 265.390625 277.328125 C 261.464844 281.257812 256.261719 283.410156 250.726562 283.410156 Z M 250.726562 283.410156 " fill-opacity="1" fill-rule="nonzero"/><path fill="#4c5454" d="M 97.390625 163.988281 C 95.539062 163.988281 93.863281 162.710938 93.433594 160.824219 C 92.9375 158.636719 94.304688 156.460938 96.488281 155.957031 C 122.921875 149.9375 152.636719 150.703125 153.929688 150.734375 C 156.125 150.792969 157.898438 152.589844 157.898438 154.800781 C 157.898438 157.085938 156.003906 158.945312 153.710938 158.867188 C 152.488281 158.832031 123.75 158.085938 98.292969 163.882812 C 97.992188 163.957031 97.691406 163.988281 97.390625 163.988281 Z M 97.390625 163.988281 " fill-opacity="1" fill-rule="nonzero"/><path fill="#4c5454" d="M 93.207031 280.824219 C 89.222656 280.824219 85.472656 279.273438 82.660156 276.460938 C 79.847656 273.644531 78.292969 269.898438 78.292969 265.914062 C 78.292969 261.929688 79.847656 258.191406 82.660156 255.371094 L 95.488281 242.539062 C 101.304688 236.726562 110.765625 236.726562 116.578125 242.539062 C 119.390625 245.355469 120.945312 249.101562 120.945312 253.085938 C 120.945312 257.070312 119.390625 260.816406 116.578125 263.628906 C 114.992188 265.214844 112.417969 265.214844 110.832031 263.628906 C 109.246094 262.042969 109.246094 259.46875 110.832031 257.882812 C 112.117188 256.597656 112.816406 254.898438 112.816406 253.085938 C 112.816406 251.273438 112.109375 249.574219 110.832031 248.289062 C 108.1875 245.644531 103.886719 245.644531 101.238281 248.289062 L 88.410156 261.117188 C 87.125 262.402344 86.425781 264.101562 86.425781 265.914062 C 86.425781 267.726562 87.132812 269.425781 88.410156 270.710938 C 89.691406 271.996094 91.390625 272.695312 93.207031 272.695312 C 95.019531 272.695312 96.71875 271.988281 98.003906 270.710938 C 99.585938 269.125 102.164062 269.125 103.75 270.710938 C 105.335938 272.296875 105.335938 274.875 103.75 276.460938 C 100.929688 279.273438 97.1875 280.824219 93.207031 280.824219 Z M 93.207031 280.824219 " fill-opacity="1" fill-rule="nonzero"/><path fill="#4c5454" d="M 103.96875 300.734375 C 100.148438 300.734375 96.335938 299.28125 93.425781 296.378906 C 90.613281 293.566406 89.058594 289.816406 89.058594 285.832031 C 89.058594 281.847656 90.613281 278.101562 93.425781 275.289062 L 110.824219 257.890625 C 116.636719 252.078125 126.101562 252.078125 131.914062 257.890625 C 134.726562 260.710938 136.277344 264.453125 136.277344 268.433594 C 136.277344 272.417969 134.726562 276.167969 131.914062 278.980469 C 130.328125 280.566406 127.75 280.566406 126.164062 278.980469 C 124.578125 277.394531 124.578125 274.816406 126.164062 273.230469 C 127.449219 271.945312 128.148438 270.246094 128.148438 268.433594 C 128.148438 266.621094 127.441406 264.921875 126.164062 263.636719 C 123.523438 260.996094 119.214844 260.996094 116.570312 263.636719 L 99.171875 281.035156 C 97.886719 282.320312 97.1875 284.019531 97.1875 285.832031 C 97.1875 287.644531 97.898438 289.34375 99.171875 290.628906 C 101.816406 293.273438 106.117188 293.273438 108.765625 290.628906 C 110.351562 289.042969 112.929688 289.042969 114.515625 290.628906 C 116.101562 292.214844 116.101562 294.792969 114.515625 296.378906 C 111.613281 299.28125 107.789062 300.734375 103.96875 300.734375 Z M 103.96875 300.734375 " fill-opacity="1" fill-rule="nonzero"/><path fill="#4c5454" d="M 114.261719 321.132812 C 110.277344 321.132812 106.53125 319.582031 103.71875 316.769531 C 100.90625 313.957031 99.351562 310.207031 99.351562 306.222656 C 99.351562 302.238281 100.90625 298.5 103.71875 295.679688 L 126.171875 273.222656 C 131.984375 267.410156 141.449219 267.410156 147.261719 273.222656 C 150.074219 276.042969 151.628906 279.785156 151.628906 283.769531 C 151.628906 287.753906 150.074219 291.5 147.261719 294.3125 L 124.808594 316.769531 C 121.984375 319.582031 118.246094 321.132812 114.261719 321.132812 Z M 136.710938 276.988281 C 134.96875 276.988281 133.238281 277.644531 131.914062 278.972656 L 109.457031 301.425781 C 108.171875 302.710938 107.472656 304.410156 107.472656 306.222656 C 107.472656 308.035156 108.179688 309.734375 109.457031 311.019531 C 110.742188 312.304688 112.441406 313.003906 114.253906 313.003906 C 116.066406 313.003906 117.765625 312.296875 119.050781 311.019531 L 141.507812 288.566406 C 142.789062 287.28125 143.488281 285.582031 143.488281 283.769531 C 143.488281 281.957031 142.78125 280.257812 141.507812 278.972656 C 140.1875 277.644531 138.449219 276.988281 136.710938 276.988281 Z M 136.710938 276.988281 " fill-opacity="1" fill-rule="nonzero"/><path fill="#4c5454" d="M 136.117188 329.957031 C 132.132812 329.957031 128.382812 328.402344 125.570312 325.589844 C 122.757812 322.777344 121.207031 319.027344 121.207031 315.042969 C 121.207031 311.0625 122.757812 307.3125 125.570312 304.5 C 127.15625 302.914062 129.734375 302.914062 131.320312 304.5 C 132.90625 306.085938 132.90625 308.664062 131.320312 310.246094 C 130.035156 311.53125 129.335938 313.230469 129.335938 315.042969 C 129.335938 316.859375 130.042969 318.558594 131.320312 319.839844 C 132.605469 321.125 134.304688 321.824219 136.117188 321.824219 C 137.929688 321.824219 139.628906 321.117188 140.914062 319.839844 L 156.847656 303.90625 C 159.488281 301.265625 159.488281 296.957031 156.847656 294.3125 C 154.207031 291.671875 149.90625 291.671875 147.253906 294.3125 C 145.667969 295.898438 143.089844 295.898438 141.507812 294.3125 C 139.921875 292.726562 139.921875 290.148438 141.507812 288.566406 C 147.320312 282.753906 156.78125 282.753906 162.597656 288.566406 C 168.410156 294.378906 168.410156 303.839844 162.597656 309.65625 L 146.660156 325.589844 C 143.847656 328.402344 140.101562 329.957031 136.117188 329.957031 Z M 136.117188 329.957031 " fill-opacity="1" fill-rule="nonzero"/><g clip-path="url(#0b5953e360)"><path fill="#4c5454" d="M 229.019531 162.09375 C 228.164062 162.09375 227.304688 161.824219 226.570312 161.273438 C 224.78125 159.914062 224.425781 157.371094 225.78125 155.582031 C 237.449219 140.175781 243.613281 121.71875 243.613281 102.230469 L 243.613281 67.703125 L 187.886719 46.035156 L 132.171875 67.695312 L 132.171875 102.222656 C 132.171875 120.335938 137.5625 137.71875 147.765625 152.492188 C 149.042969 154.335938 148.578125 156.875 146.734375 158.152344 C 144.886719 159.425781 142.351562 158.964844 141.074219 157.117188 C 129.929688 140.988281 124.035156 122.003906 124.035156 102.230469 L 124.035156 64.921875 C 124.035156 63.246094 125.066406 61.742188 126.628906 61.132812 L 186.410156 37.898438 C 187.359375 37.53125 188.410156 37.53125 189.351562 37.898438 L 249.132812 61.132812 C 250.691406 61.742188 251.726562 63.246094 251.726562 64.921875 L 251.726562 102.230469 C 251.726562 123.507812 244.992188 143.65625 232.253906 160.492188 C 231.457031 161.53125 230.246094 162.09375 229.019531 162.09375 Z M 229.019531 162.09375 " fill-opacity="1" fill-rule="nonzero"/></g><path fill="#4c5454" d="M 208.089844 154.832031 C 207.109375 154.832031 206.125 154.484375 205.34375 153.769531 C 203.683594 152.246094 203.578125 149.679688 205.089844 148.027344 C 216.585938 135.492188 222.921875 119.230469 222.921875 102.230469 L 222.921875 81.847656 L 187.886719 68.222656 L 152.855469 81.839844 L 152.855469 102.222656 C 152.855469 118.402344 158.652344 134.0625 169.179688 146.328125 C 170.644531 148.035156 170.449219 150.597656 168.742188 152.0625 C 167.042969 153.523438 164.472656 153.328125 163.011719 151.621094 C 151.214844 137.882812 144.71875 120.335938 144.71875 102.214844 L 144.71875 79.054688 C 144.71875 77.378906 145.75 75.875 147.3125 75.265625 L 186.410156 60.070312 C 187.359375 59.703125 188.410156 59.703125 189.351562 60.070312 L 228.449219 75.265625 C 230.011719 75.875 231.042969 77.378906 231.042969 79.054688 L 231.042969 102.214844 C 231.042969 121.257812 223.953125 139.46875 211.082031 153.507812 C 210.285156 154.386719 209.1875 154.832031 208.089844 154.832031 Z M 208.089844 154.832031 " fill-opacity="1" fill-rule="nonzero"/><path fill="#4c5454" d="M 179.929688 128.808594 C 178.886719 128.808594 177.847656 128.410156 177.050781 127.621094 L 165.734375 116.304688 C 164.148438 114.71875 164.148438 112.140625 165.734375 110.558594 C 167.320312 108.972656 169.898438 108.972656 171.480469 110.558594 L 179.929688 119.003906 L 204.292969 94.636719 C 205.878906 93.054688 208.457031 93.054688 210.042969 94.636719 C 211.628906 96.222656 211.628906 98.800781 210.042969 100.386719 L 182.800781 127.628906 C 182.011719 128.410156 180.96875 128.808594 179.929688 128.808594 Z M 179.929688 128.808594 " fill-opacity="1" fill-rule="nonzero"/></svg>