<svg xmlns="http://www.w3.org/2000/svg" xmlns:xlink="http://www.w3.org/1999/xlink" width="500" zoomAndPan="magnify" viewBox="0 0 375 374.999991" height="500" preserveAspectRatio="xMidYMid meet" version="1.0"><path fill="#4c5454" d="M 124.886719 282.511719 C 126.210938 283.21875 127.433594 284.0625 128.566406 285.050781 C 129.695312 286.035156 130.699219 287.132812 131.582031 288.347656 C 132.460938 289.5625 133.195312 290.859375 133.785156 292.238281 C 134.371094 293.617188 134.796875 295.042969 135.058594 296.519531 C 136.195312 296.359375 137.339844 296.296875 138.488281 296.335938 C 139.640625 296.375 140.777344 296.511719 141.902344 296.746094 C 143.027344 296.980469 144.125 297.3125 145.191406 297.738281 C 146.257812 298.167969 147.28125 298.683594 148.257812 299.289062 C 149.238281 299.894531 150.15625 300.578125 151.011719 301.34375 C 151.871094 302.109375 152.65625 302.941406 153.371094 303.84375 C 154.085938 304.746094 154.714844 305.703125 155.261719 306.714844 C 155.808594 307.726562 156.261719 308.777344 156.625 309.867188 C 157.230469 309.703125 157.839844 309.566406 158.457031 309.460938 C 159.074219 309.351562 159.695312 309.273438 160.320312 309.226562 C 160.945312 309.179688 161.570312 309.160156 162.199219 309.171875 C 162.824219 309.183594 163.449219 309.222656 164.070312 309.292969 C 164.695312 309.363281 165.3125 309.464844 165.925781 309.59375 C 166.539062 309.722656 167.144531 309.878906 167.742188 310.066406 C 168.339844 310.25 168.925781 310.464844 169.503906 310.707031 C 170.082031 310.949219 170.648438 311.21875 171.199219 311.515625 C 171.753906 311.808594 172.289062 312.128906 172.8125 312.476562 C 173.335938 312.824219 173.839844 313.191406 174.324219 313.585938 C 174.8125 313.980469 175.28125 314.398438 175.726562 314.835938 C 176.175781 315.273438 176.601562 315.734375 177.003906 316.210938 C 177.410156 316.691406 177.789062 317.1875 178.148438 317.703125 C 178.503906 318.214844 178.835938 318.746094 179.140625 319.292969 C 179.449219 319.839844 179.730469 320.398438 179.984375 320.972656 C 180.238281 321.542969 180.464844 322.128906 180.660156 322.722656 C 181.574219 322.472656 182.5 322.292969 183.4375 322.175781 C 184.375 322.058594 185.320312 322.011719 186.265625 322.03125 C 187.210938 322.046875 188.148438 322.132812 189.082031 322.285156 C 190.015625 322.441406 190.933594 322.65625 191.835938 322.941406 C 192.738281 323.226562 193.613281 323.570312 194.46875 323.980469 C 195.320312 324.386719 196.140625 324.855469 196.925781 325.382812 C 197.710938 325.90625 198.457031 326.484375 199.160156 327.117188 C 199.863281 327.75 200.519531 328.429688 201.125 329.152344 C 209.34375 333.804688 217.558594 338.554688 225.816406 343.125 C 226.265625 343.355469 226.734375 343.539062 227.21875 343.679688 C 227.703125 343.820312 228.199219 343.910156 228.699219 343.953125 C 229.203125 344 229.707031 343.996094 230.207031 343.941406 C 230.710938 343.886719 231.203125 343.785156 231.683594 343.636719 C 232.167969 343.488281 232.628906 343.292969 233.074219 343.054688 C 233.519531 342.8125 233.9375 342.535156 234.328125 342.214844 C 234.71875 341.894531 235.074219 341.539062 235.394531 341.148438 C 235.714844 340.761719 235.996094 340.34375 236.238281 339.898438 C 236.476562 339.457031 236.671875 338.992188 236.824219 338.511719 C 236.972656 338.027344 237.078125 337.535156 237.132812 337.035156 C 237.1875 336.53125 237.191406 336.03125 237.152344 335.527344 C 237.109375 335.023438 237.015625 334.53125 236.878906 334.042969 C 236.738281 333.558594 236.554688 333.089844 236.328125 332.640625 C 236.097656 332.191406 235.828125 331.769531 235.515625 331.371094 C 235.203125 330.972656 234.855469 330.609375 234.472656 330.28125 C 234.089844 329.949219 233.679688 329.660156 233.242188 329.410156 C 221.625 322.894531 210.035156 316.253906 198.421875 309.714844 C 198.085938 309.53125 197.769531 309.3125 197.476562 309.066406 C 197.179688 308.816406 196.914062 308.542969 196.675781 308.242188 C 196.433594 307.941406 196.226562 307.621094 196.050781 307.277344 C 195.875 306.9375 195.734375 306.578125 195.628906 306.210938 C 195.523438 305.839844 195.453125 305.464844 195.421875 305.078125 C 195.390625 304.695312 195.398438 304.3125 195.441406 303.929688 C 195.488281 303.550781 195.570312 303.175781 195.6875 302.808594 C 195.808594 302.441406 195.960938 302.09375 196.148438 301.757812 C 196.335938 301.421875 196.554688 301.105469 196.804688 300.816406 C 197.054688 300.523438 197.332031 300.257812 197.636719 300.019531 C 197.9375 299.78125 198.261719 299.578125 198.605469 299.402344 C 198.949219 299.230469 199.304688 299.089844 199.675781 298.988281 C 200.046875 298.886719 200.421875 298.820312 200.808594 298.792969 C 201.191406 298.765625 201.574219 298.773438 201.957031 298.820312 C 202.335938 298.867188 202.710938 298.953125 203.074219 299.074219 C 203.441406 299.195312 203.789062 299.351562 204.125 299.542969 L 246.871094 323.59375 C 247.320312 323.832031 247.789062 324.023438 248.277344 324.167969 C 248.765625 324.3125 249.261719 324.410156 249.769531 324.457031 C 250.277344 324.503906 250.785156 324.503906 251.289062 324.449219 C 251.796875 324.398438 252.292969 324.300781 252.78125 324.152344 C 253.265625 324 253.734375 323.808594 254.183594 323.566406 C 254.632812 323.324219 255.054688 323.042969 255.445312 322.722656 C 255.839844 322.398438 256.199219 322.039062 256.523438 321.648438 C 256.84375 321.253906 257.128906 320.832031 257.367188 320.382812 C 257.609375 319.9375 257.804688 319.46875 257.953125 318.980469 C 258.105469 318.496094 258.203125 318 258.257812 317.492188 C 258.308594 316.984375 258.3125 316.480469 258.265625 315.972656 C 258.21875 315.464844 258.121094 314.96875 257.976562 314.480469 C 257.832031 313.992188 257.644531 313.523438 257.40625 313.070312 C 257.167969 312.621094 256.890625 312.195312 256.574219 311.800781 C 256.253906 311.402344 255.898438 311.042969 255.507812 310.714844 C 255.117188 310.386719 254.699219 310.101562 254.253906 309.855469 C 243.40625 303.78125 232.558594 297.703125 221.769531 291.527344 C 221.433594 291.339844 221.117188 291.117188 220.824219 290.867188 C 220.53125 290.617188 220.265625 290.339844 220.027344 290.039062 C 219.789062 289.734375 219.582031 289.410156 219.410156 289.066406 C 219.234375 288.722656 219.097656 288.363281 218.992188 287.992188 C 218.890625 287.621094 218.824219 287.242188 218.796875 286.859375 C 218.769531 286.476562 218.777344 286.089844 218.828125 285.707031 C 218.875 285.324219 218.960938 284.953125 219.082031 284.585938 C 219.203125 284.21875 219.359375 283.871094 219.550781 283.535156 C 219.742188 283.199219 219.964844 282.886719 220.21875 282.597656 C 220.472656 282.308594 220.75 282.042969 221.058594 281.808594 C 221.363281 281.574219 221.6875 281.371094 222.035156 281.199219 C 222.378906 281.03125 222.738281 280.894531 223.113281 280.796875 C 223.484375 280.695312 223.863281 280.632812 224.246094 280.609375 C 224.632812 280.585938 225.015625 280.597656 225.398438 280.652344 C 225.78125 280.703125 226.152344 280.792969 226.519531 280.917969 C 226.882812 281.042969 227.230469 281.203125 227.5625 281.398438 C 238.324219 287.558594 249.140625 293.625 259.960938 299.683594 C 263.765625 301.855469 268.394531 300.253906 270.53125 296.542969 C 270.769531 296.089844 270.960938 295.621094 271.109375 295.128906 C 271.253906 294.640625 271.351562 294.140625 271.402344 293.628906 C 271.453125 293.121094 271.453125 292.609375 271.402344 292.101562 C 271.355469 291.59375 271.257812 291.09375 271.109375 290.601562 C 270.964844 290.113281 270.769531 289.640625 270.535156 289.1875 C 270.296875 288.734375 270.015625 288.308594 269.695312 287.910156 C 269.375 287.511719 269.019531 287.144531 268.628906 286.816406 C 268.238281 286.484375 267.816406 286.195312 267.371094 285.949219 L 220.234375 259.085938 C 212.585938 254.726562 202.199219 258.929688 191.378906 263.308594 C 168.699219 272.492188 151.09375 277.460938 133.746094 255.140625 C 130.878906 251.722656 132.105469 246.3125 135.875 244.109375 C 142.105469 240.503906 148.109375 236.546875 153.882812 232.25 C 159.273438 228.230469 164.339844 223.839844 169.082031 219.074219 C 171.078125 217.058594 173.03125 215.222656 174.949219 213.546875 C 165.324219 209.90625 156.703125 211.925781 148.742188 213.792969 C 139.003906 216.074219 130.039062 218.171875 120.226562 212.738281 L 119.894531 212.582031 L 93.730469 271.78125 C 99.65625 274.449219 101.550781 279.484375 102.71875 284.859375 C 103.476562 284.222656 104.273438 283.648438 105.117188 283.128906 C 105.957031 282.613281 106.832031 282.164062 107.742188 281.777344 C 108.648438 281.390625 109.582031 281.074219 110.539062 280.824219 C 111.492188 280.578125 112.460938 280.402344 113.445312 280.296875 C 114.425781 280.191406 115.410156 280.164062 116.394531 280.203125 C 117.382812 280.246094 118.359375 280.363281 119.328125 280.550781 C 120.300781 280.738281 121.25 280.996094 122.179688 281.324219 C 123.109375 281.652344 124.011719 282.046875 124.882812 282.511719 Z M 226.476562 145.164062 C 225.382812 146.855469 224.101562 148.390625 222.636719 149.773438 C 221.171875 151.15625 219.566406 152.347656 217.816406 153.34375 C 216.066406 154.34375 214.222656 155.121094 212.289062 155.675781 C 210.351562 156.234375 208.378906 156.554688 206.367188 156.636719 L 214.382812 175.253906 L 226.347656 155.972656 L 248.578125 160.523438 L 237.164062 134.023438 C 230.121094 137.042969 230.722656 138.675781 226.476562 145.164062 Z M 162.703125 86.273438 C 162.425781 86.003906 162.179688 85.710938 161.960938 85.390625 C 161.742188 85.070312 161.558594 84.734375 161.410156 84.378906 C 161.257812 84.023438 161.144531 83.65625 161.066406 83.277344 C 160.988281 82.898438 160.945312 82.519531 160.945312 82.132812 C 160.941406 81.746094 160.976562 81.363281 161.050781 80.984375 C 161.125 80.605469 161.234375 80.238281 161.382812 79.878906 C 161.53125 79.523438 161.710938 79.183594 161.925781 78.863281 C 162.136719 78.539062 162.382812 78.242188 162.65625 77.96875 C 162.929688 77.695312 163.226562 77.453125 163.546875 77.238281 C 163.867188 77.023438 164.207031 76.84375 164.566406 76.699219 C 164.921875 76.550781 165.289062 76.441406 165.667969 76.367188 C 166.046875 76.292969 166.429688 76.257812 166.816406 76.257812 C 167.203125 76.261719 167.585938 76.300781 167.964844 76.378906 C 168.34375 76.457031 168.710938 76.570312 169.066406 76.722656 C 169.421875 76.875 169.757812 77.058594 170.078125 77.273438 C 170.394531 77.492188 170.691406 77.738281 170.960938 78.015625 L 179.089844 86.144531 L 204.242188 63.316406 C 204.527344 63.066406 204.832031 62.847656 205.160156 62.65625 C 205.488281 62.46875 205.832031 62.3125 206.1875 62.1875 C 206.546875 62.0625 206.910156 61.976562 207.285156 61.925781 C 207.660156 61.871094 208.039062 61.855469 208.414062 61.878906 C 208.792969 61.898438 209.164062 61.957031 209.53125 62.050781 C 209.898438 62.144531 210.253906 62.273438 210.59375 62.433594 C 210.9375 62.597656 211.257812 62.792969 211.5625 63.015625 C 211.867188 63.242188 212.144531 63.496094 212.402344 63.777344 C 212.65625 64.054688 212.878906 64.359375 213.078125 64.679688 C 213.273438 65.003906 213.433594 65.34375 213.566406 65.699219 C 213.695312 66.054688 213.789062 66.421875 213.847656 66.792969 C 213.90625 67.167969 213.929688 67.542969 213.914062 67.921875 C 213.898438 68.300781 213.847656 68.671875 213.761719 69.042969 C 213.675781 69.410156 213.550781 69.765625 213.394531 70.109375 C 213.238281 70.457031 213.050781 70.78125 212.832031 71.089844 C 212.609375 71.398438 212.363281 71.679688 212.085938 71.941406 L 183.042969 98.296875 C 182.773438 98.570312 182.476562 98.816406 182.160156 99.03125 C 181.839844 99.25 181.503906 99.433594 181.148438 99.582031 C 180.792969 99.730469 180.425781 99.84375 180.050781 99.921875 C 179.671875 100 179.289062 100.039062 178.90625 100.039062 C 178.519531 100.039062 178.136719 100.003906 177.761719 99.929688 C 177.382812 99.855469 177.015625 99.746094 176.65625 99.597656 C 176.300781 99.453125 175.964844 99.273438 175.644531 99.058594 C 175.320312 98.84375 175.027344 98.601562 174.753906 98.328125 L 162.695312 86.273438 Z M 195.691406 19.613281 C 208.535156 29.226562 205.621094 28.167969 221.636719 29.058594 C 222.371094 29.089844 223.101562 29.183594 223.820312 29.335938 C 224.539062 29.488281 225.242188 29.699219 225.925781 29.96875 C 226.609375 30.234375 227.269531 30.554688 227.902344 30.929688 C 228.535156 31.304688 229.132812 31.730469 229.695312 32.203125 C 230.261719 32.675781 230.78125 33.191406 231.261719 33.746094 C 231.738281 34.304688 232.171875 34.898438 232.554688 35.527344 C 232.933594 36.15625 233.265625 36.808594 233.539062 37.492188 C 233.816406 38.171875 234.03125 38.875 234.195312 39.589844 C 237.851562 55.210938 236.304688 52.523438 248 63.503906 C 248.539062 64 249.039062 64.539062 249.492188 65.117188 C 249.945312 65.699219 250.347656 66.308594 250.699219 66.957031 C 251.050781 67.601562 251.351562 68.269531 251.59375 68.964844 C 251.835938 69.65625 252.023438 70.367188 252.152344 71.089844 C 252.277344 71.816406 252.347656 72.542969 252.355469 73.28125 C 252.363281 74.015625 252.3125 74.746094 252.203125 75.472656 C 252.089844 76.199219 251.921875 76.914062 251.695312 77.613281 C 251.46875 78.3125 251.183594 78.988281 250.847656 79.640625 C 243.609375 93.957031 244.148438 90.90625 246.050781 106.832031 C 246.144531 107.5625 246.179688 108.292969 246.15625 109.027344 C 246.128906 109.765625 246.042969 110.492188 245.898438 111.210938 C 245.753906 111.933594 245.554688 112.636719 245.292969 113.324219 C 245.035156 114.015625 244.722656 114.675781 244.355469 115.3125 C 243.984375 115.949219 243.570312 116.550781 243.101562 117.121094 C 242.636719 117.691406 242.128906 118.21875 241.574219 118.703125 C 241.023438 119.1875 240.4375 119.625 239.8125 120.015625 C 239.1875 120.40625 238.539062 120.742188 237.859375 121.023438 C 223.414062 127.210938 224.9375 126.191406 216.707031 138.773438 C 216.308594 139.390625 215.867188 139.972656 215.375 140.519531 C 214.882812 141.066406 214.347656 141.570312 213.773438 142.03125 C 213.199219 142.488281 212.59375 142.898438 211.953125 143.257812 C 211.3125 143.621094 210.644531 143.925781 209.953125 144.175781 C 209.265625 144.429688 208.558594 144.621094 207.835938 144.757812 C 207.113281 144.894531 206.382812 144.96875 205.648438 144.988281 C 204.914062 145.003906 204.179688 144.960938 203.453125 144.859375 C 202.726562 144.757812 202.011719 144.597656 201.308594 144.375 C 185.953125 139.734375 189.050781 139.734375 173.699219 144.375 C 172.996094 144.597656 172.28125 144.757812 171.550781 144.859375 C 170.824219 144.960938 170.09375 145.003906 169.359375 144.988281 C 168.621094 144.96875 167.894531 144.894531 167.171875 144.757812 C 166.449219 144.621094 165.742188 144.429688 165.050781 144.175781 C 164.359375 143.925781 163.695312 143.621094 163.054688 143.257812 C 162.414062 142.898438 161.804688 142.488281 161.230469 142.03125 C 160.65625 141.570312 160.125 141.066406 159.632812 140.519531 C 159.140625 139.972656 158.695312 139.390625 158.300781 138.773438 C 149.519531 125.347656 151.894531 127.339844 137.148438 121.023438 C 136.46875 120.742188 135.816406 120.40625 135.195312 120.015625 C 134.570312 119.625 133.980469 119.1875 133.429688 118.703125 C 132.878906 118.21875 132.367188 117.691406 131.902344 117.121094 C 131.4375 116.554688 131.019531 115.953125 130.652344 115.316406 C 130.28125 114.679688 129.96875 114.015625 129.710938 113.328125 C 129.449219 112.640625 129.246094 111.933594 129.101562 111.214844 C 128.957031 110.492188 128.875 109.765625 128.847656 109.03125 C 128.820312 108.296875 128.855469 107.5625 128.949219 106.835938 C 130.855469 90.90625 131.394531 93.957031 124.15625 79.640625 C 123.820312 78.988281 123.535156 78.3125 123.308594 77.613281 C 123.082031 76.914062 122.910156 76.203125 122.800781 75.472656 C 122.691406 74.746094 122.640625 74.015625 122.648438 73.28125 C 122.65625 72.546875 122.722656 71.816406 122.851562 71.09375 C 122.980469 70.367188 123.164062 69.660156 123.410156 68.964844 C 123.652344 68.273438 123.949219 67.601562 124.304688 66.957031 C 124.65625 66.3125 125.058594 65.699219 125.511719 65.121094 C 125.964844 64.542969 126.460938 64.003906 127.003906 63.503906 C 138.699219 52.527344 137.148438 55.210938 140.808594 39.59375 C 140.96875 38.875 141.1875 38.175781 141.460938 37.492188 C 141.738281 36.8125 142.066406 36.15625 142.449219 35.527344 C 142.832031 34.898438 143.261719 34.308594 143.742188 33.75 C 144.222656 33.191406 144.742188 32.675781 145.304688 32.203125 C 145.871094 31.730469 146.46875 31.308594 147.101562 30.933594 C 147.734375 30.558594 148.390625 30.234375 149.078125 29.96875 C 149.761719 29.703125 150.464844 29.492188 151.183594 29.339844 C 151.902344 29.1875 152.628906 29.09375 153.363281 29.058594 C 169.378906 28.167969 166.46875 29.230469 179.308594 19.617188 C 179.894531 19.171875 180.511719 18.773438 181.160156 18.429688 C 181.808594 18.082031 182.480469 17.792969 183.179688 17.558594 C 183.875 17.324219 184.585938 17.144531 185.3125 17.027344 C 186.039062 16.90625 186.769531 16.847656 187.503906 16.847656 C 188.238281 16.847656 188.96875 16.90625 189.695312 17.027344 C 190.421875 17.144531 191.132812 17.324219 191.828125 17.558594 C 192.523438 17.792969 193.195312 18.082031 193.847656 18.429688 C 194.496094 18.773438 195.113281 19.171875 195.695312 19.617188 Z M 187.496094 42.644531 C 186.242188 42.644531 184.992188 42.707031 183.746094 42.832031 C 182.496094 42.953125 181.257812 43.136719 180.03125 43.382812 C 178.800781 43.625 177.585938 43.929688 176.386719 44.292969 C 175.1875 44.65625 174.007812 45.078125 172.851562 45.558594 C 171.695312 46.039062 170.5625 46.574219 169.457031 47.164062 C 168.351562 47.753906 167.277344 48.398438 166.234375 49.09375 C 165.191406 49.792969 164.1875 50.539062 163.21875 51.332031 C 162.25 52.128906 161.324219 52.96875 160.4375 53.855469 C 159.550781 54.742188 158.710938 55.667969 157.914062 56.636719 C 157.121094 57.605469 156.375 58.613281 155.675781 59.652344 C 154.980469 60.695312 154.335938 61.769531 153.746094 62.875 C 153.15625 63.980469 152.621094 65.113281 152.140625 66.269531 C 151.660156 67.425781 151.238281 68.605469 150.875 69.804688 C 150.511719 71.003906 150.207031 72.21875 149.964844 73.449219 C 149.71875 74.675781 149.535156 75.914062 149.414062 77.164062 C 149.289062 78.410156 149.226562 79.660156 149.226562 80.914062 C 149.226562 82.167969 149.289062 83.417969 149.414062 84.664062 C 149.535156 85.914062 149.71875 87.152344 149.964844 88.378906 C 150.207031 89.609375 150.511719 90.824219 150.875 92.023438 C 151.238281 93.222656 151.660156 94.402344 152.140625 95.558594 C 152.621094 96.714844 153.15625 97.847656 153.746094 98.953125 C 154.335938 100.058594 154.980469 101.132812 155.675781 102.175781 C 156.375 103.21875 157.121094 104.222656 157.914062 105.191406 C 158.710938 106.160156 159.550781 107.085938 160.4375 107.972656 C 161.324219 108.859375 162.25 109.699219 163.21875 110.496094 C 164.1875 111.289062 165.191406 112.035156 166.234375 112.734375 C 167.277344 113.429688 168.351562 114.074219 169.457031 114.664062 C 170.5625 115.253906 171.695312 115.789062 172.851562 116.269531 C 174.007812 116.75 175.1875 117.171875 176.386719 117.535156 C 177.585938 117.898438 178.800781 118.203125 180.03125 118.445312 C 181.257812 118.691406 182.496094 118.875 183.746094 118.996094 C 184.992188 119.121094 186.242188 119.183594 187.496094 119.183594 C 188.75 119.183594 190 119.121094 191.246094 118.996094 C 192.496094 118.875 193.734375 118.691406 194.960938 118.445312 C 196.191406 118.203125 197.40625 117.898438 198.605469 117.535156 C 199.804688 117.171875 200.984375 116.75 202.140625 116.269531 C 203.296875 115.789062 204.429688 115.253906 205.535156 114.664062 C 206.640625 114.074219 207.714844 113.429688 208.757812 112.734375 C 209.796875 112.035156 210.804688 111.289062 211.773438 110.496094 C 212.742188 109.699219 213.667969 108.859375 214.554688 107.972656 C 215.441406 107.085938 216.28125 106.160156 217.078125 105.191406 C 217.871094 104.222656 218.617188 103.21875 219.316406 102.175781 C 220.011719 101.132812 220.65625 100.058594 221.246094 98.953125 C 221.835938 97.847656 222.371094 96.714844 222.851562 95.558594 C 223.332031 94.402344 223.753906 93.222656 224.117188 92.023438 C 224.480469 90.824219 224.785156 89.609375 225.027344 88.378906 C 225.273438 87.152344 225.457031 85.914062 225.578125 84.664062 C 225.703125 83.417969 225.765625 82.167969 225.765625 80.914062 C 225.765625 79.660156 225.703125 78.410156 225.578125 77.164062 C 225.457031 75.914062 225.273438 74.675781 225.027344 73.449219 C 224.785156 72.21875 224.480469 71.003906 224.117188 69.804688 C 223.753906 68.605469 223.332031 67.425781 222.851562 66.269531 C 222.371094 65.113281 221.835938 63.980469 221.246094 62.875 C 220.65625 61.769531 220.011719 60.695312 219.316406 59.652344 C 218.617188 58.613281 217.871094 57.605469 217.078125 56.636719 C 216.28125 55.667969 215.441406 54.742188 214.554688 53.855469 C 213.667969 52.96875 212.742188 52.128906 211.773438 51.332031 C 210.804688 50.539062 209.796875 49.792969 208.757812 49.09375 C 207.714844 48.398438 206.640625 47.753906 205.535156 47.164062 C 204.429688 46.574219 203.296875 46.039062 202.140625 45.558594 C 200.984375 45.078125 199.804688 44.65625 198.605469 44.292969 C 197.40625 43.929688 196.191406 43.625 194.960938 43.382812 C 193.734375 43.136719 192.496094 42.953125 191.246094 42.832031 C 190 42.707031 188.75 42.644531 187.496094 42.644531 Z M 126.417969 166.515625 L 148.769531 162.613281 L 160.171875 182.230469 L 172.132812 156.535156 C 170.988281 156.648438 169.839844 156.683594 168.691406 156.636719 C 167.542969 156.59375 166.402344 156.46875 165.269531 156.269531 C 164.136719 156.070312 163.019531 155.792969 161.925781 155.4375 C 160.832031 155.085938 159.765625 154.660156 158.730469 154.160156 C 157.691406 153.660156 156.695312 153.09375 155.738281 152.457031 C 154.777344 151.824219 153.867188 151.125 153.003906 150.363281 C 152.140625 149.605469 151.332031 148.789062 150.582031 147.917969 C 149.828125 147.046875 149.140625 146.128906 148.515625 145.164062 C 146.445312 142.003906 144.144531 136.730469 140.921875 135.351562 L 126.410156 166.515625 Z M 111.78125 322.785156 C 108.738281 325.011719 105.851562 324.683594 102.652344 323.246094 C 102.21875 322.984375 101.816406 322.6875 101.4375 322.351562 C 101.0625 322.015625 100.71875 321.644531 100.40625 321.246094 C 100.097656 320.847656 99.828125 320.421875 99.59375 319.976562 C 99.363281 319.527344 99.175781 319.058594 99.027344 318.574219 C 98.882812 318.09375 98.78125 317.601562 98.722656 317.097656 C 98.667969 316.59375 98.65625 316.09375 98.695312 315.589844 C 98.730469 315.085938 98.8125 314.585938 98.9375 314.097656 C 99.066406 313.609375 99.238281 313.136719 99.453125 312.679688 C 102.472656 307.855469 105.527344 301.296875 108.285156 296.136719 C 108.53125 295.675781 108.820312 295.242188 109.148438 294.835938 C 109.476562 294.433594 109.839844 294.0625 110.242188 293.726562 C 110.640625 293.386719 111.070312 293.09375 111.523438 292.839844 C 111.980469 292.585938 112.457031 292.375 112.953125 292.210938 C 113.449219 292.046875 113.957031 291.933594 114.472656 291.863281 C 114.992188 291.796875 115.511719 291.78125 116.035156 291.8125 C 116.554688 291.84375 117.066406 291.925781 117.574219 292.054688 C 118.082031 292.183594 118.570312 292.363281 119.042969 292.585938 C 119.511719 292.808594 119.960938 293.074219 120.382812 293.382812 C 120.804688 293.691406 121.191406 294.035156 121.546875 294.417969 C 121.902344 294.800781 122.21875 295.214844 122.496094 295.65625 C 122.773438 296.101562 123.007812 296.566406 123.195312 297.054688 C 123.382812 297.539062 123.523438 298.039062 123.617188 298.554688 C 123.707031 299.070312 123.75 299.585938 123.746094 300.109375 C 123.738281 300.632812 123.683594 301.148438 123.578125 301.660156 C 123.476562 302.171875 123.324219 302.667969 123.125 303.152344 L 111.777344 322.785156 Z M 145.863281 317.667969 L 133.191406 342.207031 C 132.921875 342.667969 132.613281 343.097656 132.261719 343.496094 C 131.90625 343.898438 131.519531 344.261719 131.097656 344.585938 C 130.675781 344.910156 130.226562 345.191406 129.75 345.429688 C 129.269531 345.667969 128.777344 345.855469 128.261719 346 C 127.746094 346.140625 127.222656 346.230469 126.691406 346.269531 C 126.160156 346.308594 125.628906 346.296875 125.101562 346.230469 C 124.570312 346.167969 124.054688 346.054688 123.546875 345.890625 C 123.039062 345.722656 122.554688 345.511719 122.085938 345.253906 C 121.621094 344.992188 121.183594 344.691406 120.777344 344.347656 C 120.371094 344 120 343.621094 119.667969 343.203125 C 119.335938 342.789062 119.046875 342.34375 118.800781 341.871094 C 118.554688 341.398438 118.355469 340.90625 118.203125 340.394531 C 118.054688 339.882812 117.953125 339.363281 117.902344 338.832031 C 117.855469 338.300781 117.859375 337.769531 117.910156 337.238281 C 117.964844 336.707031 118.070312 336.1875 118.226562 335.679688 C 118.382812 335.167969 118.585938 334.679688 118.835938 334.207031 C 123.292969 325.875 128.121094 317.800781 132.851562 309.613281 C 133.511719 309.113281 134.230469 308.722656 135.007812 308.4375 C 135.789062 308.15625 136.589844 307.996094 137.417969 307.957031 C 138.246094 307.914062 139.0625 308 139.863281 308.207031 C 140.664062 308.414062 141.417969 308.738281 142.121094 309.171875 C 142.828125 309.609375 143.449219 310.140625 143.996094 310.765625 C 144.539062 311.390625 144.976562 312.082031 145.3125 312.839844 C 145.644531 313.597656 145.859375 314.390625 145.953125 315.210938 C 146.046875 316.035156 146.019531 316.851562 145.863281 317.667969 Z M 158.808594 351.8125 C 158.269531 352.5 157.640625 353.089844 156.917969 353.574219 C 156.195312 354.0625 155.414062 354.421875 154.574219 354.660156 C 153.734375 354.898438 152.878906 354.996094 152.007812 354.960938 C 151.136719 354.925781 150.292969 354.753906 149.476562 354.449219 C 148.660156 354.140625 147.910156 353.714844 147.230469 353.171875 C 146.550781 352.625 145.972656 351.988281 145.496094 351.257812 C 145.019531 350.527344 144.667969 349.742188 144.441406 348.898438 C 144.214844 348.058594 144.128906 347.199219 144.175781 346.332031 L 156.179688 323.09375 C 156.804688 322.492188 157.507812 322.003906 158.285156 321.625 C 159.066406 321.246094 159.886719 321 160.746094 320.882812 C 161.601562 320.761719 162.460938 320.78125 163.3125 320.9375 C 164.164062 321.089844 164.972656 321.371094 165.738281 321.78125 C 166.5 322.195312 167.179688 322.710938 167.78125 323.339844 C 168.378906 323.964844 168.863281 324.671875 169.238281 325.453125 C 169.613281 326.234375 169.859375 327.054688 169.972656 327.914062 C 170.089844 328.773438 170.066406 329.628906 169.910156 330.480469 Z M 184.820312 361.273438 C 184.601562 361.6875 184.347656 362.082031 184.058594 362.449219 C 183.773438 362.820312 183.453125 363.164062 183.109375 363.480469 C 182.761719 363.796875 182.390625 364.078125 181.996094 364.332031 C 181.601562 364.582031 181.1875 364.800781 180.753906 364.980469 C 180.320312 365.160156 179.875 365.304688 179.417969 365.410156 C 178.960938 365.515625 178.5 365.578125 178.03125 365.605469 C 177.5625 365.628906 177.097656 365.617188 176.632812 365.5625 C 176.164062 365.507812 175.707031 365.414062 175.257812 365.28125 C 174.808594 365.148438 174.375 364.976562 173.953125 364.769531 C 173.53125 364.5625 173.132812 364.320312 172.753906 364.042969 C 172.375 363.765625 172.023438 363.460938 171.695312 363.125 C 171.371094 362.789062 171.074219 362.425781 170.8125 362.039062 C 170.546875 361.652344 170.316406 361.246094 170.125 360.816406 C 169.929688 360.390625 169.773438 359.949219 169.652344 359.496094 C 169.535156 359.042969 169.453125 358.582031 169.414062 358.117188 C 169.375 357.648438 169.375 357.183594 169.414062 356.714844 L 180.226562 335.929688 C 180.578125 335.597656 180.957031 335.296875 181.359375 335.027344 C 181.765625 334.761719 182.1875 334.53125 182.632812 334.339844 C 183.078125 334.148438 183.535156 333.996094 184.007812 333.882812 C 184.476562 333.773438 184.957031 333.703125 185.4375 333.675781 C 185.921875 333.648438 186.40625 333.664062 186.886719 333.722656 C 187.367188 333.78125 187.839844 333.882812 188.300781 334.027344 C 188.765625 334.167969 189.210938 334.351562 189.644531 334.570312 C 190.074219 334.792969 190.480469 335.050781 190.867188 335.34375 C 191.253906 335.636719 191.609375 335.960938 191.9375 336.320312 C 192.265625 336.675781 192.558594 337.058594 192.816406 337.46875 C 193.078125 337.875 193.300781 338.304688 193.484375 338.753906 C 193.667969 339.203125 193.8125 339.660156 193.914062 340.136719 C 194.015625 340.609375 194.074219 341.085938 194.09375 341.570312 C 194.113281 342.054688 194.085938 342.539062 194.019531 343.015625 C 193.953125 343.496094 193.84375 343.96875 193.691406 344.425781 C 193.539062 344.886719 193.351562 345.332031 193.121094 345.757812 Z M 209.871094 347.488281 C 213.964844 349.804688 216.785156 353.359375 213.835938 358.730469 C 213.59375 359.171875 213.3125 359.585938 212.992188 359.972656 C 212.671875 360.359375 212.316406 360.714844 211.929688 361.03125 C 211.539062 361.351562 211.125 361.628906 210.679688 361.863281 C 210.238281 362.101562 209.773438 362.296875 209.292969 362.441406 C 208.8125 362.589844 208.324219 362.691406 207.824219 362.742188 C 207.324219 362.792969 206.824219 362.796875 206.320312 362.753906 C 205.820312 362.707031 205.328125 362.617188 204.847656 362.476562 C 204.363281 362.335938 203.898438 362.148438 203.453125 361.917969 C 202.070312 361.15625 200.453125 360.207031 199.023438 359.394531 L 203.386719 351.234375 C 204.433594 349.277344 205.132812 347.199219 205.484375 345.007812 Z M 146.128906 251.566406 C 151.234375 248.417969 156.148438 245.082031 160.863281 241.550781 C 166.703125 237.199219 172.199219 232.441406 177.339844 227.285156 C 201.195312 203.179688 217.714844 209.753906 231.371094 215.1875 C 240.789062 218.9375 249.15625 222.269531 258.320312 218.394531 L 281.519531 278.246094 L 277.988281 279.722656 L 277.769531 279.480469 C 276.402344 278.027344 274.851562 276.804688 273.113281 275.820312 L 225.976562 248.957031 C 213.421875 241.800781 200.476562 247.039062 186.996094 252.496094 C 173.179688 258.089844 158.660156 263.96875 146.128906 251.570312 Z M 83.871094 179.503906 C 84.09375 179.007812 84.359375 178.539062 84.671875 178.097656 C 84.984375 177.652344 85.335938 177.246094 85.730469 176.871094 C 86.125 176.496094 86.550781 176.164062 87.007812 175.875 C 87.464844 175.585938 87.949219 175.34375 88.453125 175.144531 C 88.960938 174.949219 89.480469 174.804688 90.011719 174.710938 C 90.546875 174.617188 91.085938 174.578125 91.628906 174.589844 C 92.171875 174.601562 92.707031 174.664062 93.238281 174.78125 C 93.765625 174.898438 94.277344 175.066406 94.777344 175.285156 L 111.335938 182.609375 C 111.832031 182.828125 112.300781 183.09375 112.742188 183.410156 C 113.1875 183.722656 113.59375 184.074219 113.96875 184.46875 C 114.34375 184.859375 114.675781 185.285156 114.964844 185.742188 C 115.257812 186.203125 115.5 186.683594 115.695312 187.191406 C 115.890625 187.695312 116.035156 188.214844 116.128906 188.75 C 116.222656 189.285156 116.265625 189.824219 116.25 190.367188 C 116.238281 190.90625 116.175781 191.445312 116.058594 191.972656 C 115.941406 192.503906 115.773438 193.015625 115.554688 193.511719 L 77.535156 279.535156 C 77.316406 280.03125 77.046875 280.5 76.734375 280.941406 C 76.421875 281.386719 76.070312 281.792969 75.675781 282.167969 C 75.28125 282.542969 74.859375 282.875 74.398438 283.164062 C 73.941406 283.453125 73.460938 283.699219 72.953125 283.894531 C 72.445312 284.089844 71.925781 284.234375 71.394531 284.328125 C 70.859375 284.421875 70.320312 284.460938 69.777344 284.449219 C 69.234375 284.4375 68.699219 284.375 68.167969 284.257812 C 67.640625 284.140625 67.125 283.972656 66.628906 283.753906 L 50.070312 276.4375 C 49.574219 276.214844 49.105469 275.949219 48.664062 275.636719 C 48.21875 275.324219 47.8125 274.96875 47.4375 274.578125 C 47.0625 274.183594 46.730469 273.757812 46.441406 273.300781 C 46.152344 272.839844 45.90625 272.359375 45.710938 271.851562 C 45.515625 271.347656 45.371094 270.828125 45.277344 270.292969 C 45.183594 269.757812 45.144531 269.21875 45.15625 268.679688 C 45.167969 268.136719 45.230469 267.601562 45.347656 267.070312 C 45.464844 266.539062 45.632812 266.027344 45.851562 265.53125 L 83.871094 179.507812 Z M 295.292969 185.613281 L 329.289062 273.304688 C 329.480469 273.808594 329.625 274.332031 329.71875 274.863281 C 329.808594 275.398438 329.851562 275.9375 329.835938 276.480469 C 329.824219 277.023438 329.757812 277.558594 329.640625 278.085938 C 329.519531 278.617188 329.351562 279.128906 329.132812 279.625 C 328.914062 280.121094 328.648438 280.59375 328.339844 281.035156 C 328.027344 281.480469 327.675781 281.890625 327.285156 282.265625 C 326.890625 282.640625 326.46875 282.976562 326.011719 283.265625 C 325.554688 283.558594 325.070312 283.804688 324.566406 284 L 307.6875 290.546875 C 307.179688 290.742188 306.660156 290.882812 306.125 290.976562 C 305.589844 291.070312 305.050781 291.109375 304.507812 291.09375 C 303.96875 291.082031 303.429688 291.015625 302.902344 290.898438 C 302.371094 290.78125 301.859375 290.609375 301.363281 290.390625 C 300.867188 290.171875 300.398438 289.90625 299.953125 289.597656 C 299.507812 289.285156 299.097656 288.933594 298.722656 288.542969 C 298.347656 288.152344 298.015625 287.726562 297.722656 287.269531 C 297.429688 286.8125 297.183594 286.332031 296.988281 285.824219 L 262.992188 198.132812 C 262.796875 197.628906 262.652344 197.105469 262.5625 196.574219 C 262.46875 196.039062 262.429688 195.5 262.441406 194.957031 C 262.457031 194.414062 262.523438 193.878906 262.640625 193.351562 C 262.757812 192.820312 262.925781 192.308594 263.144531 191.8125 C 263.363281 191.316406 263.628906 190.84375 263.941406 190.402344 C 264.253906 189.957031 264.605469 189.546875 264.996094 189.171875 C 265.386719 188.796875 265.8125 188.460938 266.269531 188.171875 C 266.726562 187.878906 267.207031 187.632812 267.710938 187.4375 L 284.59375 180.890625 C 285.101562 180.699219 285.621094 180.554688 286.15625 180.460938 C 286.691406 180.367188 287.226562 180.328125 287.769531 180.34375 C 288.3125 180.355469 288.847656 180.421875 289.378906 180.539062 C 289.90625 180.65625 290.421875 180.828125 290.917969 181.046875 C 291.414062 181.265625 291.882812 181.53125 292.328125 181.839844 C 292.773438 182.152344 293.179688 182.503906 293.554688 182.894531 C 293.933594 183.289062 294.265625 183.710938 294.558594 184.167969 C 294.847656 184.625 295.09375 185.109375 295.292969 185.613281 Z M 282.328125 194.464844 C 281.957031 194.464844 281.589844 194.5 281.230469 194.570312 C 280.867188 194.644531 280.515625 194.75 280.171875 194.890625 C 279.832031 195.03125 279.507812 195.207031 279.199219 195.410156 C 278.894531 195.617188 278.609375 195.851562 278.347656 196.109375 C 278.085938 196.371094 277.855469 196.65625 277.648438 196.964844 C 277.445312 197.269531 277.269531 197.59375 277.128906 197.9375 C 276.988281 198.277344 276.878906 198.628906 276.808594 198.992188 C 276.738281 199.355469 276.699219 199.71875 276.699219 200.089844 C 276.699219 200.457031 276.738281 200.824219 276.808594 201.1875 C 276.878906 201.550781 276.988281 201.902344 277.128906 202.242188 C 277.269531 202.582031 277.445312 202.90625 277.648438 203.214844 C 277.855469 203.523438 278.085938 203.804688 278.347656 204.066406 C 278.609375 204.328125 278.894531 204.5625 279.199219 204.765625 C 279.507812 204.972656 279.832031 205.144531 280.171875 205.289062 C 280.515625 205.429688 280.867188 205.535156 281.230469 205.609375 C 281.589844 205.679688 281.957031 205.714844 282.328125 205.714844 C 282.695312 205.714844 283.0625 205.679688 283.425781 205.609375 C 283.785156 205.535156 284.136719 205.429688 284.480469 205.289062 C 284.820312 205.144531 285.144531 204.972656 285.453125 204.765625 C 285.757812 204.5625 286.042969 204.328125 286.304688 204.066406 C 286.566406 203.804688 286.800781 203.523438 287.003906 203.214844 C 287.210938 202.90625 287.382812 202.582031 287.523438 202.242188 C 287.664062 201.902344 287.773438 201.550781 287.84375 201.1875 C 287.917969 200.824219 287.953125 200.457031 287.953125 200.089844 C 287.953125 199.71875 287.917969 199.355469 287.84375 198.992188 C 287.773438 198.628906 287.664062 198.277344 287.523438 197.9375 C 287.382812 197.59375 287.210938 197.269531 287.003906 196.964844 C 286.800781 196.65625 286.566406 196.371094 286.304688 196.109375 C 286.042969 195.851562 285.757812 195.617188 285.453125 195.410156 C 285.144531 195.207031 284.820312 195.03125 284.480469 194.890625 C 284.136719 194.75 283.785156 194.644531 283.425781 194.570312 C 283.0625 194.5 282.695312 194.464844 282.328125 194.464844 Z M 96.410156 188.945312 C 96.042969 188.929688 95.675781 188.949219 95.3125 189.003906 C 94.945312 189.058594 94.589844 189.148438 94.242188 189.273438 C 93.894531 189.398438 93.5625 189.558594 93.246094 189.75 C 92.929688 189.941406 92.636719 190.160156 92.363281 190.410156 C 92.089844 190.65625 91.84375 190.929688 91.625 191.226562 C 91.40625 191.523438 91.214844 191.839844 91.058594 192.175781 C 90.902344 192.507812 90.78125 192.855469 90.691406 193.214844 C 90.601562 193.574219 90.550781 193.9375 90.53125 194.304688 C 90.515625 194.675781 90.535156 195.042969 90.589844 195.40625 C 90.644531 195.773438 90.734375 196.128906 90.859375 196.476562 C 90.984375 196.824219 91.144531 197.15625 91.335938 197.472656 C 91.523438 197.789062 91.746094 198.082031 91.992188 198.355469 C 92.242188 198.628906 92.515625 198.875 92.8125 199.09375 C 93.109375 199.3125 93.425781 199.5 93.761719 199.65625 C 94.09375 199.816406 94.441406 199.9375 94.800781 200.027344 C 95.15625 200.117188 95.523438 200.167969 95.890625 200.183594 C 96.261719 200.203125 96.625 200.183594 96.992188 200.128906 C 97.355469 200.074219 97.714844 199.984375 98.0625 199.859375 C 98.410156 199.730469 98.742188 199.574219 99.054688 199.382812 C 99.371094 199.191406 99.667969 198.972656 99.941406 198.722656 C 100.214844 198.476562 100.460938 198.203125 100.679688 197.90625 C 100.898438 197.609375 101.085938 197.292969 101.242188 196.957031 C 101.398438 196.625 101.523438 196.277344 101.613281 195.917969 C 101.699219 195.558594 101.753906 195.195312 101.769531 194.828125 C 101.789062 194.457031 101.769531 194.089844 101.714844 193.726562 C 101.65625 193.359375 101.566406 193.003906 101.441406 192.65625 C 101.316406 192.308594 101.15625 191.980469 100.96875 191.664062 C 100.777344 191.347656 100.558594 191.050781 100.308594 190.777344 C 100.058594 190.507812 99.785156 190.261719 99.488281 190.042969 C 99.191406 189.820312 98.875 189.632812 98.542969 189.476562 C 98.207031 189.320312 97.859375 189.195312 97.503906 189.109375 C 97.144531 189.019531 96.78125 188.96875 96.410156 188.949219 Z M 96.410156 188.945312 " fill-opacity="1" fill-rule="evenodd"/></svg>