<svg xmlns="http://www.w3.org/2000/svg" xmlns:xlink="http://www.w3.org/1999/xlink" width="500" zoomAndPan="magnify" viewBox="0 0 375 374.999991" height="500" preserveAspectRatio="xMidYMid meet" version="1.0"><defs><clipPath id="a2a3e551af"><path d="M 13.96875 17.089844 L 361.21875 17.089844 L 361.21875 366.589844 L 13.96875 366.589844 Z M 13.96875 17.089844 " clip-rule="nonzero"/></clipPath></defs><path fill="#1ea896" d="M 69.300781 219.3125 L 96.902344 219.3125 C 100.726562 219.3125 103.832031 216.210938 103.832031 212.382812 L 103.832031 184.78125 C 103.832031 180.957031 100.730469 177.851562 96.902344 177.851562 L 69.300781 177.851562 C 65.476562 177.851562 62.371094 180.957031 62.371094 184.78125 L 62.371094 212.382812 C 62.371094 216.210938 65.476562 219.3125 69.300781 219.3125 Z M 69.300781 219.3125 " fill-opacity="1" fill-rule="nonzero"/><path fill="#1ea896" d="M 69.300781 276.371094 L 96.902344 276.371094 C 100.726562 276.371094 103.832031 273.269531 103.832031 269.441406 L 103.832031 241.84375 C 103.832031 238.015625 100.730469 234.914062 96.902344 234.914062 L 69.300781 234.914062 C 65.476562 234.914062 62.371094 238.015625 62.371094 241.84375 L 62.371094 269.441406 C 62.371094 273.269531 65.476562 276.371094 69.300781 276.371094 Z M 69.300781 276.371094 " fill-opacity="1" fill-rule="nonzero"/><path fill="#1ea896" d="M 69.300781 333.433594 L 96.902344 333.433594 C 100.726562 333.433594 103.832031 330.328125 103.832031 326.5 L 103.832031 298.902344 C 103.832031 295.074219 100.730469 291.972656 96.902344 291.972656 L 69.300781 291.972656 C 65.476562 291.972656 62.371094 295.074219 62.371094 298.902344 L 62.371094 326.5 C 62.371094 330.328125 65.476562 333.433594 69.300781 333.433594 Z M 69.300781 333.433594 " fill-opacity="1" fill-rule="nonzero"/><path fill="#1ea896" d="M 138.898438 219.3125 L 166.5 219.3125 C 170.328125 219.3125 173.429688 216.210938 173.429688 212.382812 L 173.429688 184.78125 C 173.429688 180.957031 170.328125 177.851562 166.5 177.851562 L 138.898438 177.851562 C 135.074219 177.851562 131.96875 180.957031 131.96875 184.78125 L 131.96875 212.382812 C 131.972656 216.210938 135.074219 219.3125 138.898438 219.3125 Z M 138.898438 219.3125 " fill-opacity="1" fill-rule="nonzero"/><path fill="#1ea896" d="M 138.898438 276.371094 L 166.5 276.371094 C 170.328125 276.371094 173.429688 273.269531 173.429688 269.441406 L 173.429688 241.84375 C 173.429688 238.015625 170.328125 234.914062 166.5 234.914062 L 138.898438 234.914062 C 135.074219 234.914062 131.96875 238.015625 131.96875 241.84375 L 131.96875 269.441406 C 131.972656 273.269531 135.074219 276.371094 138.898438 276.371094 Z M 138.898438 276.371094 " fill-opacity="1" fill-rule="nonzero"/><path fill="#1ea896" d="M 138.898438 333.433594 L 166.5 333.433594 C 170.328125 333.433594 173.429688 330.328125 173.429688 326.5 L 173.429688 298.902344 C 173.429688 295.074219 170.328125 291.972656 166.5 291.972656 L 138.898438 291.972656 C 135.074219 291.972656 131.96875 295.074219 131.96875 298.902344 L 131.96875 326.5 C 131.972656 330.328125 135.074219 333.433594 138.898438 333.433594 Z M 138.898438 333.433594 " fill-opacity="1" fill-rule="nonzero"/><path fill="#1ea896" d="M 208.5 219.3125 L 236.097656 219.3125 C 239.925781 219.3125 243.03125 216.210938 243.03125 212.382812 L 243.03125 184.78125 C 243.03125 180.957031 239.925781 177.851562 236.097656 177.851562 L 208.5 177.851562 C 204.671875 177.851562 201.570312 180.957031 201.570312 184.78125 L 201.570312 212.382812 C 201.570312 216.210938 204.671875 219.3125 208.5 219.3125 Z M 208.5 219.3125 " fill-opacity="1" fill-rule="nonzero"/><path fill="#1ea896" d="M 236.097656 291.972656 L 208.5 291.972656 C 204.671875 291.972656 201.570312 295.074219 201.570312 298.902344 L 201.570312 326.5 C 201.570312 330.328125 204.671875 333.433594 208.5 333.433594 L 236.097656 333.433594 C 239.925781 333.433594 243.03125 330.328125 243.03125 326.5 L 243.03125 298.902344 C 243.027344 295.074219 239.925781 291.972656 236.097656 291.972656 Z M 236.097656 291.972656 " fill-opacity="1" fill-rule="nonzero"/><path fill="#1ea896" d="M 278.097656 219.3125 L 305.699219 219.3125 C 309.523438 219.3125 312.628906 216.210938 312.628906 212.382812 L 312.628906 184.78125 C 312.628906 180.957031 309.527344 177.851562 305.699219 177.851562 L 278.097656 177.851562 C 274.273438 177.851562 271.167969 180.957031 271.167969 184.78125 L 271.167969 212.382812 C 271.167969 216.210938 274.269531 219.3125 278.097656 219.3125 Z M 278.097656 219.3125 " fill-opacity="1" fill-rule="nonzero"/><path fill="#1ea896" d="M 278.097656 276.371094 L 305.699219 276.371094 C 309.523438 276.371094 312.628906 273.269531 312.628906 269.441406 L 312.628906 241.84375 C 312.628906 238.015625 309.527344 234.914062 305.699219 234.914062 L 278.097656 234.914062 C 274.273438 234.914062 271.167969 238.015625 271.167969 241.84375 L 271.167969 269.441406 C 271.167969 273.269531 274.269531 276.371094 278.097656 276.371094 Z M 278.097656 276.371094 " fill-opacity="1" fill-rule="nonzero"/><g clip-path="url(#a2a3e551af)"><path fill="#1ea896" d="M 279.625 17.109375 C 273.125 17.109375 267.851562 22.378906 267.851562 28.878906 L 267.851562 52.53125 L 107.753906 52.53125 L 107.753906 28.878906 C 107.753906 22.378906 102.484375 17.109375 95.984375 17.109375 C 89.480469 17.109375 84.210938 22.378906 84.210938 28.878906 L 84.210938 52.53125 L 47.113281 52.53125 C 28.835938 52.53125 13.96875 67.402344 13.96875 85.675781 L 13.96875 333.261719 C 13.96875 351.539062 28.835938 366.40625 47.113281 366.40625 L 327.886719 366.40625 C 346.164062 366.40625 361.03125 351.539062 361.03125 333.261719 L 361.03125 85.675781 C 361.03125 67.402344 346.164062 52.53125 327.886719 52.53125 L 291.394531 52.53125 L 291.394531 28.878906 C 291.394531 22.378906 286.125 17.109375 279.625 17.109375 Z M 84.210938 69.417969 L 84.210938 84.03125 C 84.210938 90.53125 89.480469 95.800781 95.984375 95.800781 C 102.484375 95.800781 107.753906 90.53125 107.753906 84.03125 L 107.753906 69.417969 C 112.019531 72.859375 114.746094 78.125 114.746094 84.03125 C 114.746094 94.394531 106.347656 102.796875 95.980469 102.796875 C 85.617188 102.796875 77.214844 94.394531 77.214844 84.03125 C 77.21875 78.125 79.945312 72.859375 84.210938 69.417969 Z M 344.699219 333.261719 C 344.699219 342.53125 337.15625 350.078125 327.886719 350.078125 L 47.113281 350.078125 C 37.84375 350.078125 30.300781 342.53125 30.300781 333.261719 L 30.300781 161.210938 L 344.699219 161.210938 Z M 298.386719 84.03125 C 298.386719 94.394531 289.988281 102.796875 279.621094 102.796875 C 269.257812 102.796875 260.855469 94.394531 260.855469 84.03125 C 260.855469 78.125 263.585938 72.859375 267.851562 69.417969 L 267.851562 84.03125 C 267.851562 90.53125 273.121094 95.800781 279.621094 95.800781 C 286.121094 95.800781 291.390625 90.53125 291.390625 84.03125 L 291.390625 69.417969 C 295.660156 72.859375 298.386719 78.125 298.386719 84.03125 Z M 298.386719 84.03125 " fill-opacity="1" fill-rule="nonzero"/></g><path fill="#1ea896" d="M 220.117188 280.03125 L 253.003906 247.140625 C 256.195312 243.953125 256.195312 238.785156 253.003906 235.59375 C 249.816406 232.40625 244.644531 232.40625 241.457031 235.59375 L 220.117188 256.9375 L 211.546875 248.363281 C 208.355469 245.175781 203.1875 245.175781 199.996094 248.363281 C 196.808594 251.554688 196.808594 256.722656 199.996094 259.914062 Z M 220.117188 280.03125 " fill-opacity="1" fill-rule="nonzero"/></svg>