<svg xmlns="http://www.w3.org/2000/svg" xmlns:xlink="http://www.w3.org/1999/xlink" width="500" zoomAndPan="magnify" viewBox="0 0 375 374.999991" height="500" preserveAspectRatio="xMidYMid meet" version="1.0"><defs><clipPath id="45dcf38031"><path d="M 96 37.5 L 146 37.5 L 146 108 L 96 108 Z M 96 37.5 " clip-rule="nonzero"/></clipPath><clipPath id="0512b0b772"><path d="M 8.394531 101 L 80 101 L 80 205 L 8.394531 205 Z M 8.394531 101 " clip-rule="nonzero"/></clipPath><clipPath id="159c217f5f"><path d="M 132.257812 117 L 320.902344 117 L 320.902344 337.410156 L 132.257812 337.410156 Z M 132.257812 117 " clip-rule="nonzero"/></clipPath></defs><g clip-path="url(#45dcf38031)"><path fill="#4c5454" d="M 120.925781 107.9375 L 127.835938 82.9375 L 145.039062 72.648438 L 127.730469 62.546875 L 120.550781 37.621094 L 113.636719 62.621094 L 96.433594 72.90625 L 113.746094 83.011719 L 120.925781 107.9375 " fill-opacity="1" fill-rule="nonzero"/></g><g clip-path="url(#0512b0b772)"><path fill="#4c5454" d="M 56.109375 144.371094 L 44.039062 101.605469 L 31.96875 144.371094 L 8.394531 156.257812 L 33.996094 169.171875 L 44.039062 204.746094 L 54.078125 169.171875 L 79.679688 156.257812 L 56.109375 144.371094 " fill-opacity="1" fill-rule="nonzero"/></g><path fill="#4c5454" d="M 86.582031 281.835938 L 93.625 306.800781 L 100.671875 281.835938 L 117.925781 271.640625 L 100.671875 261.445312 L 93.625 236.480469 L 86.582031 261.445312 L 69.324219 271.640625 L 86.582031 281.835938 " fill-opacity="1" fill-rule="nonzero"/><g clip-path="url(#159c217f5f)"><path fill="#4c5454" d="M 146.023438 256.875 C 147.574219 254.480469 149.96875 252.832031 152.757812 252.238281 C 153.507812 252.078125 154.257812 252 155.003906 252 C 157.046875 252 159.046875 252.589844 160.796875 253.722656 L 178.992188 265.527344 C 181.054688 266.863281 183.738281 266.746094 185.671875 265.226562 C 187.609375 263.707031 188.363281 261.128906 187.554688 258.808594 L 163.210938 188.933594 C 161.410156 183.757812 164.152344 178.082031 169.324219 176.28125 C 173.972656 174.660156 179.101562 176.746094 181.359375 181.039062 L 202.539062 241.835938 C 203.367188 244.210938 205.589844 245.699219 207.972656 245.699219 C 208.601562 245.699219 209.238281 245.59375 209.867188 245.375 C 212.867188 244.328125 214.449219 241.050781 213.40625 238.050781 L 192.648438 178.460938 C 192.59375 178.164062 192.523438 177.871094 192.421875 177.578125 L 183.277344 151.335938 C 182.40625 148.832031 182.5625 146.136719 183.714844 143.746094 C 184.871094 141.359375 186.886719 139.5625 189.394531 138.6875 C 194.515625 136.902344 200.175781 139.609375 202.007812 144.714844 C 202.117188 145.027344 202.261719 145.324219 202.417969 145.601562 L 232.328125 231.457031 C 233.15625 233.832031 235.382812 235.320312 237.761719 235.320312 C 238.390625 235.320312 239.027344 235.214844 239.652344 234.996094 C 242.65625 233.953125 244.238281 230.671875 243.195312 227.671875 L 212.742188 140.265625 C 211.902344 135.527344 214.613281 130.773438 219.242188 129.164062 C 224.417969 127.359375 230.089844 130.105469 231.890625 135.277344 L 241.304688 162.296875 C 241.519531 162.910156 241.832031 163.464844 242.214844 163.949219 L 262.117188 221.082031 C 262.941406 223.453125 265.167969 224.941406 267.546875 224.941406 C 268.175781 224.941406 268.816406 224.839844 269.441406 224.621094 C 272.441406 223.574219 274.027344 220.296875 272.980469 217.296875 L 251.96875 156.976562 C 251.671875 152.609375 254.324219 148.417969 258.597656 146.929688 C 263.769531 145.128906 269.445312 147.871094 271.246094 153.042969 L 298.992188 232.6875 C 299.027344 233.199219 299.128906 233.707031 299.300781 234.203125 L 306.246094 254.144531 C 315.558594 280.863281 301.390625 310.175781 274.671875 319.484375 L 264.488281 323.03125 C 248.089844 328.746094 230.0625 325.816406 216.269531 315.199219 C 216.148438 315.105469 216.019531 315.015625 215.890625 314.929688 L 149.171875 271.648438 C 146.777344 270.09375 145.128906 267.703125 144.535156 264.914062 C 143.941406 262.121094 144.46875 259.265625 146.023438 256.875 Z M 133.28125 267.308594 C 134.519531 273.105469 137.9375 278.074219 142.910156 281.300781 L 209.441406 324.460938 C 220.597656 332.984375 233.992188 337.410156 247.578125 337.410156 C 254.519531 337.410156 261.507812 336.253906 268.273438 333.898438 L 278.457031 330.351562 C 311.167969 318.957031 328.507812 283.070312 317.113281 250.359375 L 310.667969 231.859375 C 310.636719 231.347656 310.535156 230.839844 310.363281 230.347656 L 282.113281 149.257812 C 278.222656 138.09375 265.976562 132.171875 254.808594 136.0625 C 251.460938 137.230469 248.574219 139.167969 246.28125 141.609375 L 242.757812 131.492188 C 238.867188 120.328125 226.617188 114.410156 215.453125 118.296875 C 209.832031 120.257812 205.515625 124.359375 203.140625 129.398438 C 197.960938 126.496094 191.613281 125.730469 185.609375 127.820312 C 180.199219 129.707031 175.847656 133.582031 173.359375 138.742188 C 170.867188 143.894531 170.53125 149.714844 172.414062 155.121094 L 175.667969 164.460938 C 172.355469 163.96875 168.890625 164.25 165.539062 165.417969 C 154.375 169.304688 148.457031 181.550781 152.347656 192.71875 L 171.164062 246.734375 L 167.058594 244.070312 C 162.085938 240.84375 156.15625 239.75 150.359375 240.984375 C 144.5625 242.21875 139.59375 245.636719 136.371094 250.609375 C 133.144531 255.582031 132.046875 261.511719 133.28125 267.308594 " fill-opacity="1" fill-rule="nonzero"/></g><path fill="#4c5454" d="M 112.523438 130.808594 C 106.339844 143.6875 100.222656 171.964844 110.148438 193.027344 C 116.132812 205.722656 126.757812 214.035156 141.730469 217.730469 C 144.820312 218.496094 147.933594 216.613281 148.695312 213.527344 C 149.457031 210.441406 147.570312 207.324219 144.488281 206.5625 C 133.046875 203.738281 124.992188 197.53125 120.558594 188.121094 C 112.027344 170.019531 118.449219 145.050781 122.894531 135.792969 C 126.714844 127.847656 135.898438 124.070312 145.621094 120.070312 C 151.808594 117.527344 158.214844 114.894531 163.519531 110.992188 C 171.730469 104.957031 177.109375 98.464844 181.851562 92.734375 C 189.550781 83.433594 195.636719 76.085938 211.496094 72.695312 C 232.601562 68.183594 241.96875 73.429688 260.632812 83.886719 L 261.042969 84.113281 C 272.058594 90.285156 283.710938 94.070312 294.980469 97.730469 C 318.398438 105.335938 338.621094 111.90625 349.527344 137.179688 C 354.5625 148.851562 352.894531 156.207031 350.585938 166.382812 C 349.804688 169.828125 348.996094 173.390625 348.359375 177.460938 C 346.863281 186.964844 346.871094 196.605469 346.878906 205.925781 C 346.886719 215.242188 346.890625 224.042969 345.527344 232.667969 C 343.332031 246.515625 337.027344 256.804688 326.257812 264.117188 C 323.632812 265.902344 322.949219 269.480469 324.734375 272.109375 C 325.84375 273.75 327.65625 274.632812 329.496094 274.632812 C 330.613281 274.632812 331.734375 274.308594 332.726562 273.636719 C 346.265625 264.441406 354.167969 251.625 356.890625 234.46875 C 358.398438 224.941406 358.394531 215.269531 358.386719 205.917969 C 358.378906 196.628906 358.375 187.859375 359.726562 179.246094 C 360.304688 175.558594 361.070312 172.1875 361.808594 168.929688 C 364.277344 158.03125 366.609375 147.738281 360.09375 132.625 C 347.125 102.570312 322.425781 94.546875 298.535156 86.785156 C 287.796875 83.300781 276.695312 79.691406 266.667969 74.074219 L 266.253906 73.847656 C 247.097656 63.113281 234.4375 56.023438 209.085938 61.445312 C 189.324219 65.667969 181.019531 75.699219 172.992188 85.394531 C 168.457031 90.867188 163.773438 96.527344 156.703125 101.722656 C 152.53125 104.789062 147.050781 107.042969 141.246094 109.429688 C 130.46875 113.863281 118.253906 118.882812 112.523438 130.808594 " fill-opacity="1" fill-rule="nonzero"/></svg>