<svg xmlns="http://www.w3.org/2000/svg" xmlns:xlink="http://www.w3.org/1999/xlink" width="500" zoomAndPan="magnify" viewBox="0 0 375 374.999991" height="500" preserveAspectRatio="xMidYMid meet" version="1.0"><defs><clipPath id="4bfba0f084"><path d="M 14.425781 15.949219 L 360.925781 15.949219 L 360.925781 362.449219 L 14.425781 362.449219 Z M 14.425781 15.949219 " clip-rule="nonzero"/></clipPath><clipPath id="7b43cd6a83"><path d="M 117 15.949219 L 360.925781 15.949219 L 360.925781 223 L 117 223 Z M 117 15.949219 " clip-rule="nonzero"/></clipPath><clipPath id="a2fe56997c"><path d="M 14.425781 155 L 258 155 L 258 362.449219 L 14.425781 362.449219 Z M 14.425781 155 " clip-rule="nonzero"/></clipPath><clipPath id="f156dabc37"><path d="M 152 15.949219 L 360.925781 15.949219 L 360.925781 258 L 152 258 Z M 152 15.949219 " clip-rule="nonzero"/></clipPath><clipPath id="31515f22e7"><path d="M 14.425781 120 L 223 120 L 223 362.449219 L 14.425781 362.449219 Z M 14.425781 120 " clip-rule="nonzero"/></clipPath><clipPath id="2bfde7de9f"><path d="M 156 113 L 360.925781 113 L 360.925781 362.449219 L 156 362.449219 Z M 156 113 " clip-rule="nonzero"/></clipPath><clipPath id="75e6004f2a"><path d="M 14.425781 15.949219 L 219 15.949219 L 219 265 L 14.425781 265 Z M 14.425781 15.949219 " clip-rule="nonzero"/></clipPath><clipPath id="8fef73c8e5"><path d="M 118 154 L 360.925781 154 L 360.925781 362.449219 L 118 362.449219 Z M 118 154 " clip-rule="nonzero"/></clipPath><clipPath id="7889f894d8"><path d="M 14.425781 15.949219 L 257 15.949219 L 257 224 L 14.425781 224 Z M 14.425781 15.949219 " clip-rule="nonzero"/></clipPath><clipPath id="6f32875bcf"><path d="M 14.425781 79 L 305 79 L 305 362.449219 L 14.425781 362.449219 Z M 14.425781 79 " clip-rule="nonzero"/></clipPath></defs><g clip-path="url(#4bfba0f084)"><path fill="#1ea896" d="M 360.582031 189.019531 C 360.582031 284.605469 283.085938 362.101562 187.496094 362.101562 C 91.90625 362.101562 14.410156 284.605469 14.410156 189.019531 C 14.410156 93.429688 91.90625 15.933594 187.496094 15.933594 C 283.085938 15.933594 360.582031 93.429688 360.582031 189.019531 " fill-opacity="1" fill-rule="nonzero"/></g><path fill="#fff7d5" d="M 327.675781 189.019531 C 327.675781 266.445312 264.921875 329.199219 187.496094 329.199219 C 110.070312 329.199219 47.3125 266.445312 47.3125 189.019531 C 47.3125 111.589844 110.070312 48.835938 187.496094 48.835938 C 264.921875 48.835938 327.675781 111.589844 327.675781 189.019531 " fill-opacity="1" fill-rule="nonzero"/><path stroke-linecap="butt" transform="matrix(0.174464, 0, 0, -0.174464, -183.414975, 559.928291)" fill="none" stroke-linejoin="miter" d="M 2126.002649 2838.506303 L 2126.002649 2723.488887 " stroke="#24537c" stroke-width="50" stroke-opacity="1" stroke-miterlimit="10"/><path stroke-linecap="butt" transform="matrix(0.174464, 0, 0, -0.174464, -183.414975, 559.928291)" fill="none" stroke-linejoin="miter" d="M 2126.002649 1528.489947 L 2126.002649 1413.494921 " stroke="#24537c" stroke-width="50" stroke-opacity="1" stroke-miterlimit="10"/><path stroke-linecap="butt" transform="matrix(0.174464, 0, 0, -0.174464, -183.414975, 559.928291)" fill="none" stroke-linejoin="miter" d="M 2838.497145 2125.989417 L 2723.502118 2125.989417 " stroke="#24537c" stroke-width="50" stroke-opacity="1" stroke-miterlimit="10"/><path stroke-linecap="butt" transform="matrix(0.174464, 0, 0, -0.174464, -183.414975, 559.928291)" fill="none" stroke-linejoin="miter" d="M 1528.503179 2125.989417 L 1413.508152 2125.989417 " stroke="#24537c" stroke-width="50" stroke-opacity="1" stroke-miterlimit="10"/><g clip-path="url(#7b43cd6a83)"><path stroke-linecap="butt" transform="matrix(0.174464, 0, 0, -0.174464, -183.414975, 559.928291)" fill="none" stroke-linejoin="miter" d="M 2489.101236 2739.005155 L 2430.506613 2640.108537 " stroke="#24537c" stroke-width="50" stroke-opacity="1" stroke-miterlimit="10"/></g><g clip-path="url(#a2fe56997c)"><path stroke-linecap="butt" transform="matrix(0.174464, 0, 0, -0.174464, -183.414975, 559.928291)" fill="none" stroke-linejoin="miter" d="M 1821.498684 1611.892687 L 1762.904061 1512.906509 " stroke="#24537c" stroke-width="50" stroke-opacity="1" stroke-miterlimit="10"/></g><g clip-path="url(#f156dabc37)"><path stroke-linecap="butt" transform="matrix(0.174464, 0, 0, -0.174464, -183.414975, 559.928291)" fill="none" stroke-linejoin="miter" d="M 2730.801258 2502.701123 L 2633.203259 2441.80033 " stroke="#24537c" stroke-width="50" stroke-opacity="1" stroke-miterlimit="10"/></g><g clip-path="url(#31515f22e7)"><path stroke-linecap="butt" transform="matrix(0.174464, 0, 0, -0.174464, -183.414975, 559.928291)" fill="none" stroke-linejoin="miter" d="M 1618.802038 1810.088944 L 1521.20404 1749.300101 " stroke="#24537c" stroke-width="50" stroke-opacity="1" stroke-miterlimit="10"/></g><g clip-path="url(#2bfde7de9f)"><path stroke-linecap="butt" transform="matrix(0.174464, 0, 0, -0.174464, -183.414975, 559.928291)" fill="none" stroke-linejoin="miter" d="M 2758.900704 1798.804386 L 2656.802316 1851.599999 " stroke="#24537c" stroke-width="50" stroke-opacity="1" stroke-miterlimit="10"/></g><g clip-path="url(#75e6004f2a)"><path stroke-linecap="butt" transform="matrix(0.174464, 0, 0, -0.174464, -183.414975, 559.928291)" fill="none" stroke-linejoin="miter" d="M 1595.202981 2400.401225 L 1493.104593 2453.196839 " stroke="#24537c" stroke-width="50" stroke-opacity="1" stroke-miterlimit="10"/></g><g clip-path="url(#8fef73c8e5)"><path stroke-linecap="butt" transform="matrix(0.174464, 0, 0, -0.174464, -183.414975, 559.928291)" fill="none" stroke-linejoin="miter" d="M 2500.408185 1519.802628 L 2439.999972 1617.691697 " stroke="#24537c" stroke-width="50" stroke-opacity="1" stroke-miterlimit="10"/></g><g clip-path="url(#7889f894d8)"><path stroke-linecap="butt" transform="matrix(0.174464, 0, 0, -0.174464, -183.414975, 559.928291)" fill="none" stroke-linejoin="miter" d="M 1812.005325 2634.309527 L 1751.597113 2732.198596 " stroke="#24537c" stroke-width="50" stroke-opacity="1" stroke-miterlimit="10"/></g><path stroke-linecap="butt" transform="matrix(0.174464, 0, 0, -0.174464, -183.414975, 559.928291)" fill="none" stroke-linejoin="miter" d="M 2126.002649 2571.998165 L 2126.002649 2213.489527 " stroke="#24537c" stroke-width="50" stroke-opacity="1" stroke-miterlimit="10"/><g clip-path="url(#6f32875bcf)"><path stroke-linecap="butt" transform="matrix(0.174464, 0, 0, -0.174464, -183.414975, 559.928291)" fill="none" stroke-linejoin="miter" d="M 2087.805313 2047.400526 L 1751.597113 1716.991335 " stroke="#24537c" stroke-width="50" stroke-opacity="1" stroke-miterlimit="10"/></g><path stroke-linecap="butt" transform="matrix(0.174464, 0, 0, -0.174464, -183.414975, 559.928291)" fill="none" stroke-linejoin="miter" d="M 2213.502758 2125.989417 C 2213.502758 2077.694193 2174.297873 2038.489307 2126.002649 2038.489307 C 2077.707424 2038.489307 2038.502539 2077.694193 2038.502539 2125.989417 C 2038.502539 2174.307031 2077.707424 2213.489527 2126.002649 2213.489527 C 2174.297873 2213.489527 2213.502758 2174.307031 2213.502758 2125.989417 Z M 2213.502758 2125.989417 " stroke="#d7282f" stroke-width="50" stroke-opacity="1" stroke-miterlimit="10"/></svg>