<svg xmlns="http://www.w3.org/2000/svg" xmlns:xlink="http://www.w3.org/1999/xlink" width="500" zoomAndPan="magnify" viewBox="0 0 375 374.999991" height="500" preserveAspectRatio="xMidYMid meet" version="1.0"><defs><clipPath id="532e5c5e6e"><path d="M 18.75 18.75 L 366.75 18.75 L 366.75 366.75 L 18.75 366.75 Z M 18.75 18.75 " clip-rule="nonzero"/></clipPath></defs><g clip-path="url(#532e5c5e6e)"><path fill="#ffd740" d="M 192.589844 18.75 C 96.574219 18.75 18.75 96.601562 18.75 192.585938 C 18.75 288.621094 96.574219 366.421875 192.589844 366.421875 C 288.589844 366.421875 366.421875 288.621094 366.421875 192.585938 C 366.421875 96.601562 288.589844 18.75 192.589844 18.75 " fill-opacity="1" fill-rule="nonzero"/></g><path fill="#ff715b" d="M 192.589844 44.84375 C 110.988281 44.84375 44.832031 111 44.832031 192.585938 C 44.832031 274.191406 110.988281 340.347656 192.589844 340.347656 C 274.179688 340.347656 340.339844 274.191406 340.339844 192.585938 C 340.339844 111 274.179688 44.84375 192.589844 44.84375 " fill-opacity="1" fill-rule="nonzero"/><path fill="#ffab00" d="M 192.589844 55.683594 C 110.988281 55.683594 44.832031 111 44.832031 192.585938 C 44.832031 274.191406 110.988281 340.347656 192.589844 340.347656 C 274.179688 340.347656 340.339844 274.191406 340.339844 192.585938 C 340.339844 111 274.179688 55.683594 192.589844 55.683594 " fill-opacity="1" fill-rule="nonzero"/><path fill="#ff715b" d="M 240.523438 206.972656 C 233.636719 198.753906 220.597656 192.046875 201.542969 186.894531 C 200.398438 186.5625 186.753906 182.289062 184.230469 181.136719 C 179.058594 178.933594 175.210938 176.019531 172.660156 172.382812 C 171.324219 170.464844 170.34375 168.496094 169.691406 166.390625 C 169.6875 166.320312 169.652344 166.195312 169.632812 166.09375 C 169.523438 165.816406 169.441406 165.507812 169.390625 165.234375 C 168.914062 163.542969 168.632812 161.773438 168.632812 159.941406 C 168.632812 147.921875 179.261719 138.210938 192.320312 138.210938 C 205.160156 138.210938 215.589844 147.589844 215.960938 159.3125 L 246.019531 155.386719 L 246.019531 144.523438 L 237.074219 132.96875 L 237.066406 132.992188 C 235.472656 130.765625 233.703125 128.707031 231.730469 126.820312 C 224.226562 119.722656 214.171875 115.375 201.542969 113.859375 L 201.542969 97.496094 L 184.230469 97.496094 L 184.230469 113.859375 C 170.566406 115.230469 159.589844 120.335938 151.355469 129.214844 C 143.136719 138.0625 139.015625 149.027344 139.015625 162.058594 C 139.015625 174.953125 142.679688 185.886719 149.929688 194.933594 C 157.226562 203.949219 168.644531 210.679688 184.230469 215.15625 C 186.726562 215.960938 199.957031 219.796875 201.542969 220.289062 C 208.679688 222.34375 213.847656 225.296875 216.980469 229.140625 C 220.117188 233.019531 221.707031 237.621094 221.707031 242.964844 C 221.707031 248.902344 219.832031 254.105469 216.085938 258.519531 C 212.335938 262.910156 207.488281 265.683594 201.542969 266.804688 C 194.921875 267.929688 187.570312 267.027344 184.230469 265.125 C 179.953125 263.0625 176.046875 259.714844 172.535156 255.121094 C 169.027344 250.488281 166.679688 245.015625 165.378906 238.625 L 134.253906 231.140625 L 134.253906 241.996094 C 136.648438 257.664062 142.132812 269.78125 150.710938 278.375 C 159.292969 286.949219 170.460938 292.085938 184.230469 293.75 L 184.230469 309.398438 L 201.542969 309.398438 L 201.542969 293.164062 C 217.035156 290.945312 229.136719 284.921875 237.851562 275.039062 C 246.542969 265.179688 250.898438 253.039062 250.898438 238.625 C 250.898438 225.765625 247.453125 215.199219 240.523438 206.972656 " fill-opacity="1" fill-rule="nonzero"/><path fill="#ffd740" d="M 201.542969 176.035156 C 200.398438 175.703125 186.753906 171.417969 184.230469 170.289062 C 179.058594 168.070312 175.210938 165.15625 172.660156 161.523438 C 171.324219 159.613281 170.34375 157.628906 169.691406 155.542969 C 169.6875 155.457031 169.652344 155.339844 169.632812 155.242188 C 169.523438 154.953125 169.441406 154.667969 169.390625 154.386719 C 168.914062 152.6875 168.632812 150.914062 168.632812 149.082031 C 168.632812 137.058594 179.261719 127.363281 192.320312 127.363281 C 205.160156 127.363281 215.589844 136.738281 215.960938 148.449219 L 246.019531 144.523438 C 243.953125 132.609375 239.167969 123.070312 231.730469 115.972656 C 224.226562 108.867188 214.171875 104.511719 201.542969 103.007812 L 201.542969 86.636719 L 184.230469 86.636719 L 184.230469 103.007812 C 170.566406 104.378906 159.589844 109.484375 151.355469 118.363281 C 143.136719 127.207031 139.015625 138.167969 139.015625 151.199219 C 139.015625 164.097656 142.679688 175.03125 149.929688 184.0625 C 157.226562 193.097656 168.644531 199.839844 184.230469 204.308594 C 186.726562 205.097656 199.957031 208.945312 201.542969 209.441406 C 208.679688 211.484375 213.847656 214.433594 216.980469 218.285156 C 220.117188 222.167969 221.707031 226.761719 221.707031 232.097656 C 221.707031 238.042969 219.832031 243.242188 216.085938 247.664062 C 212.335938 252.058594 207.488281 254.824219 201.542969 255.941406 C 194.921875 257.074219 187.570312 256.171875 184.230469 254.269531 C 179.953125 252.203125 176.046875 248.859375 172.535156 244.261719 C 169.027344 239.628906 166.679688 234.164062 165.378906 227.769531 L 134.253906 231.140625 C 136.648438 246.800781 142.132812 258.925781 150.710938 267.515625 C 159.292969 276.089844 170.460938 281.230469 184.230469 282.902344 L 184.230469 298.542969 L 201.542969 298.542969 L 201.542969 282.304688 C 217.035156 280.082031 229.136719 274.054688 237.851562 264.179688 C 246.542969 254.324219 250.898438 242.183594 250.898438 227.769531 C 250.898438 214.90625 247.453125 204.335938 240.523438 196.109375 C 233.636719 187.894531 220.597656 181.1875 201.542969 176.035156 " fill-opacity="1" fill-rule="nonzero"/><path fill="#ffffff" d="M 139.105469 76.980469 C 109.050781 82.511719 104.570312 87 99.039062 117.054688 C 93.5 87 89.015625 82.511719 58.964844 76.980469 C 89.015625 71.445312 93.5 66.960938 99.039062 36.910156 C 104.570312 66.960938 109.050781 71.445312 139.105469 76.980469 " fill-opacity="1" fill-rule="nonzero"/></svg>