<svg xmlns="http://www.w3.org/2000/svg" xmlns:xlink="http://www.w3.org/1999/xlink" width="500" zoomAndPan="magnify" viewBox="0 0 375 374.999991" height="500" preserveAspectRatio="xMidYMid meet" version="1.0"><defs><clipPath id="65fbd875d1"><path d="M 42 17 L 328.554688 17 L 328.554688 366.199219 L 42 366.199219 Z M 42 17 " clip-rule="nonzero"/></clipPath></defs><g clip-path="url(#65fbd875d1)"><path fill="#4c5454" d="M 91.8125 193.992188 C 91.949219 191.003906 94.488281 188.691406 97.476562 188.828125 C 100.46875 188.96875 102.78125 191.503906 102.640625 194.496094 C 102.503906 197.484375 99.964844 199.796875 96.976562 199.660156 C 93.984375 199.519531 91.675781 196.984375 91.8125 193.992188 Z M 326.863281 278.472656 C 325.394531 281.800781 322.726562 284.355469 319.347656 285.664062 L 303.082031 291.96875 C 301.472656 292.59375 299.8125 292.890625 298.183594 292.890625 C 292.734375 292.890625 287.578125 289.589844 285.492188 284.210938 L 284.464844 281.558594 L 272.980469 286.351562 C 273.4375 290.074219 272.746094 293.890625 270.90625 297.234375 C 268.640625 301.355469 264.941406 304.378906 260.449219 305.792969 C 261.609375 310.152344 261.171875 314.933594 258.851562 319.152344 C 256.523438 323.386719 252.675781 326.464844 248.011719 327.816406 C 245.957031 328.410156 243.855469 328.644531 241.785156 328.511719 C 241.777344 331.429688 241.0625 334.382812 239.570312 337.097656 C 237.230469 341.351562 233.359375 344.4375 228.671875 345.785156 C 226.171875 346.503906 223.605469 346.683594 221.113281 346.328125 C 221.003906 349.03125 220.285156 351.746094 218.898438 354.265625 C 216.558594 358.515625 212.527344 361.710938 207.832031 363.027344 C 206.210938 363.480469 204.566406 363.703125 202.9375 363.703125 C 199.882812 363.703125 196.878906 362.914062 194.179688 361.363281 L 190.5 359.25 C 186.933594 363.742188 181.53125 366.257812 175.976562 366.257812 C 173.03125 366.257812 170.046875 365.554688 167.277344 364.074219 C 163.582031 362.097656 160.777344 359.007812 159.140625 355.378906 C 154.34375 357.101562 148.886719 356.851562 144.128906 354.308594 C 140.859375 352.558594 138.277344 349.90625 136.585938 346.773438 C 131.476562 349.164062 125.347656 349.210938 120.011719 346.359375 C 115.664062 344.035156 112.480469 340.144531 111.042969 335.402344 C 110.347656 333.101562 110.101562 330.742188 110.300781 328.425781 C 107.585938 328.3125 104.882812 327.601562 102.390625 326.269531 C 93.390625 321.453125 89.984375 310.21875 94.796875 301.21875 L 98.945312 293.460938 C 98.042969 291.128906 97.570312 288.648438 97.144531 286.371094 C 96.398438 282.34375 95.792969 279.660156 94.316406 279.085938 C 93.207031 278.65625 90.449219 277.457031 85.769531 275.375 L 84.4375 278.386719 C 82.195312 283.460938 77.203125 286.484375 71.984375 286.484375 C 70.152344 286.484375 68.289062 286.113281 66.507812 285.328125 L 50.550781 278.273438 C 43.695312 275.242188 40.585938 267.203125 43.613281 260.347656 L 80.246094 177.460938 C 83.277344 170.605469 91.320312 167.492188 98.175781 170.523438 L 114.132812 177.574219 C 117.445312 179.039062 119.992188 181.714844 121.304688 185.105469 C 122.617188 188.496094 122.535156 192.1875 121.070312 195.503906 L 118.742188 200.769531 L 128.1875 205.125 C 128.324219 205.1875 128.457031 205.257812 128.589844 205.332031 C 133.679688 208.195312 138.917969 207.175781 147.042969 205.269531 C 156.957031 202.949219 169.125 200.101562 183.382812 208.238281 C 203.09375 196.316406 218.226562 202.484375 229.417969 207.0625 C 237.390625 210.320312 242.117188 212.046875 246.671875 209.679688 L 254.894531 205.277344 L 252.738281 199.71875 C 250.027344 192.730469 253.511719 184.839844 260.5 182.128906 L 276.765625 175.824219 C 283.753906 173.113281 291.644531 176.597656 294.351562 183.585938 L 327.109375 268.078125 C 328.417969 271.453125 328.332031 275.148438 326.863281 278.472656 Z M 74.140625 273.835938 L 77.769531 265.632812 L 110.777344 190.949219 C 111.113281 190.191406 110.941406 189.503906 110.808594 189.164062 C 110.675781 188.824219 110.34375 188.199219 109.582031 187.863281 L 93.625 180.8125 C 92.46875 180.300781 91.050781 180.847656 90.539062 182.007812 L 53.90625 264.894531 C 53.394531 266.050781 53.941406 267.464844 55.101562 267.980469 L 71.058594 275.03125 C 72.214844 275.542969 73.628906 274.996094 74.140625 273.835938 Z M 115.421875 315.769531 L 125.726562 297.9375 C 127.191406 294.496094 125.796875 290.46875 122.484375 288.703125 C 118.953125 286.816406 114.546875 288.152344 112.664062 291.675781 L 104.71875 306.527344 C 102.832031 310.050781 104.167969 314.457031 107.695312 316.34375 C 110.167969 317.664062 113.183594 317.414062 115.421875 315.769531 Z M 135.160156 333.410156 L 146.636719 311.191406 C 147.164062 308.140625 145.664062 304.980469 142.925781 303.519531 C 140.429688 302.1875 137.394531 302.449219 135.148438 304.125 L 124.703125 322.203125 L 122.339844 326.617188 C 121.433594 328.3125 121.246094 330.269531 121.8125 332.136719 C 122.375 334 123.621094 335.527344 125.316406 336.433594 C 128.839844 338.316406 133.253906 336.960938 135.160156 333.410156 Z M 158.566406 342.449219 L 168.695312 322.980469 C 169.222656 319.9375 167.722656 316.777344 164.988281 315.320312 C 162.261719 313.863281 158.832031 314.347656 156.597656 316.429688 L 145.625 337.675781 C 145.515625 340.441406 146.980469 343.066406 149.4375 344.382812 C 152.546875 346.042969 156.410156 345.203125 158.566406 342.449219 Z M 182.402344 351.171875 L 190.015625 336.933594 C 191.324219 334.488281 191.097656 331.445312 189.433594 329.179688 C 188.800781 328.320312 187.996094 327.625 187.042969 327.117188 C 184.320312 325.660156 180.886719 326.144531 178.648438 328.234375 L 168.785156 347.195312 C 168.582031 350.019531 170.074219 352.804688 172.582031 354.148438 C 176.113281 356.035156 180.515625 354.699219 182.402344 351.171875 Z M 206.304688 339.449219 C 206.035156 339.296875 205.789062 339.125 205.554688 338.9375 L 201.804688 336.816406 C 201.472656 338.6875 200.859375 340.519531 199.941406 342.238281 L 196.074219 349.472656 L 199.785156 351.601562 C 201.285156 352.464844 203.0625 352.671875 204.796875 352.1875 C 206.597656 351.683594 208.144531 350.460938 209.039062 348.839844 C 210.859375 345.527344 209.632812 341.3125 206.304688 339.449219 Z M 261.171875 285.527344 C 261.171875 285.527344 261.167969 285.523438 261.167969 285.523438 C 260.535156 284.21875 259.53125 283.148438 258.257812 282.421875 L 215 257.765625 C 208.097656 253.832031 199.140625 257.460938 188.769531 261.65625 C 172.734375 268.148438 152.777344 276.226562 135.558594 254.070312 C 134.296875 252.453125 133.796875 250.367188 134.183594 248.355469 C 134.574219 246.339844 135.8125 244.585938 137.589844 243.550781 C 149.710938 236.476562 159.941406 228.761719 168 220.621094 C 169.695312 218.90625 171.40625 217.300781 173.117188 215.804688 C 164.707031 212.691406 157.328125 214.417969 149.613281 216.226562 C 141.136719 218.210938 132.375 220.265625 123.277344 215.253906 L 114.195312 211.0625 L 90.316406 265.082031 C 94.746094 267.050781 97.457031 268.230469 98.390625 268.59375 C 104.253906 270.867188 106.347656 275.964844 107.464844 280.671875 C 113.074219 276.179688 121.054688 275.179688 127.785156 278.773438 C 132.863281 281.480469 136.183594 286.269531 137.21875 291.5625 C 140.933594 291.101562 144.78125 291.75 148.226562 293.589844 C 152.4375 295.839844 155.476562 299.523438 156.96875 303.78125 C 161.332031 302.664062 166.078125 303.144531 170.285156 305.390625 C 174.496094 307.636719 177.535156 311.320312 179.03125 315.578125 C 183.398438 314.457031 188.140625 314.941406 192.347656 317.191406 C 194.453125 318.3125 196.277344 319.796875 197.789062 321.609375 L 220.359375 334.382812 L 220.386719 334.398438 C 221.960938 335.273438 223.800781 335.476562 225.5625 334.96875 C 227.351562 334.457031 228.824219 333.285156 229.707031 331.675781 C 231.519531 328.382812 230.28125 324.179688 226.949219 322.300781 C 226.675781 322.148438 194.988281 304.226562 194.988281 304.226562 C 192.28125 302.703125 191.320312 299.273438 192.84375 296.5625 C 194.367188 293.855469 197.796875 292.894531 200.507812 294.417969 L 239.636719 316.4375 L 239.644531 316.441406 C 241.242188 317.320312 243.101562 317.519531 244.875 317.007812 C 246.648438 316.492188 248.113281 315.328125 248.992188 313.730469 C 250.800781 310.4375 249.5625 306.234375 246.230469 304.355469 C 246.230469 304.355469 246.226562 304.355469 246.226562 304.355469 C 237.046875 299.214844 226.648438 293.386719 216.421875 287.53125 C 213.722656 285.988281 212.789062 282.550781 214.332031 279.855469 C 215.875 277.15625 219.3125 276.222656 222.011719 277.765625 C 232.199219 283.597656 242.582031 289.414062 251.742188 294.542969 C 253.296875 295.414062 255.121094 295.617188 256.878906 295.117188 C 258.675781 294.601562 260.160156 293.425781 261.046875 291.808594 C 262.117188 289.863281 262.164062 287.570312 261.171875 285.527344 Z M 280.398438 271.0625 L 258.992188 215.847656 L 251.921875 219.628906 C 242.460938 224.550781 233.667969 220.953125 225.160156 217.476562 C 213.703125 212.792969 202.878906 208.371094 186.636719 219.511719 C 183.128906 221.90625 179.554688 224.941406 175.996094 228.535156 C 168.226562 236.390625 158.664062 243.835938 147.535156 250.707031 C 157.945312 261.183594 168.691406 257.644531 184.546875 251.226562 C 196.535156 246.371094 208.933594 241.351562 220.570312 247.988281 L 263.832031 272.644531 C 265.488281 273.589844 266.96875 274.765625 268.238281 276.136719 Z M 316.617188 272.144531 L 283.859375 187.652344 C 283.503906 186.734375 282.59375 186.164062 281.652344 186.164062 C 281.378906 186.164062 281.101562 186.210938 280.832031 186.316406 L 264.566406 192.621094 C 263.382812 193.078125 262.773438 194.464844 263.230469 195.648438 L 267.148438 205.75 C 267.148438 205.75 267.148438 205.75 267.148438 205.753906 L 295.988281 280.140625 C 296.289062 280.917969 296.894531 281.28125 297.230469 281.429688 C 297.5625 281.574219 298.238281 281.777344 299.015625 281.476562 L 315.28125 275.171875 C 316.460938 274.714844 317.074219 273.328125 316.617188 272.144531 Z M 276.613281 194.144531 C 273.628906 194.144531 271.195312 196.578125 271.195312 199.566406 C 271.195312 202.550781 273.628906 204.984375 276.613281 204.984375 C 279.601562 204.984375 282.035156 202.550781 282.035156 199.566406 C 282.035156 196.578125 279.601562 194.144531 276.613281 194.144531 Z M 119.183594 86.042969 C 115.386719 78.53125 116.960938 69.613281 123.097656 63.855469 C 124.148438 62.867188 125.089844 61.992188 125.933594 61.210938 C 129.207031 58.171875 130.851562 56.648438 131.628906 55.300781 C 132.410156 53.953125 132.90625 51.765625 133.902344 47.414062 C 134.15625 46.289062 134.441406 45.039062 134.769531 43.632812 C 136.691406 35.4375 143.628906 29.617188 152.035156 29.148438 C 153.472656 29.070312 154.757812 29.007812 155.910156 28.949219 C 160.367188 28.726562 162.605469 28.617188 164.070312 28.082031 C 165.53125 27.550781 167.320312 26.195312 170.878906 23.5 C 171.796875 22.804688 172.820312 22.03125 173.972656 21.164062 C 180.714844 16.121094 189.769531 16.121094 196.507812 21.164062 C 197.664062 22.03125 198.6875 22.804688 199.605469 23.5 C 203.164062 26.199219 204.949219 27.550781 206.414062 28.082031 C 207.875 28.617188 210.113281 28.726562 214.574219 28.949219 C 215.726562 29.007812 217.007812 29.070312 218.449219 29.148438 C 226.851562 29.617188 233.789062 35.4375 235.710938 43.636719 C 236.039062 45.039062 236.324219 46.292969 236.582031 47.417969 C 237.574219 51.769531 238.070312 53.953125 238.851562 55.300781 C 239.628906 56.648438 241.273438 58.171875 244.546875 61.210938 C 245.390625 61.996094 246.332031 62.867188 247.382812 63.855469 C 253.523438 69.613281 255.09375 78.535156 251.296875 86.046875 C 250.648438 87.332031 250.0625 88.476562 249.535156 89.5 C 247.496094 93.472656 246.472656 95.46875 246.203125 97.003906 C 245.933594 98.535156 246.214844 100.761719 246.769531 105.1875 C 246.910156 106.332031 247.070312 107.609375 247.242188 109.039062 C 248.238281 117.375 243.738281 125.191406 236.042969 128.523438 L 249.261719 159.214844 C 250.09375 161.140625 249.78125 163.367188 248.457031 164.992188 C 247.136719 166.621094 245.019531 167.378906 242.964844 166.953125 L 225.386719 163.355469 L 215.925781 178.601562 C 214.894531 180.261719 213.082031 181.261719 211.148438 181.261719 C 211.007812 181.261719 210.867188 181.257812 210.726562 181.246094 C 208.636719 181.089844 206.808594 179.785156 205.976562 177.859375 L 194.164062 150.429688 C 193.835938 150.328125 193.515625 150.230469 193.207031 150.136719 C 188.941406 148.816406 186.800781 148.15625 185.242188 148.15625 C 184.152344 148.15625 182.777344 148.480469 180.59375 149.125 L 164.011719 184.734375 C 163.128906 186.632812 161.261719 187.882812 159.167969 187.980469 C 159.082031 187.984375 158.996094 187.984375 158.910156 187.984375 C 156.914062 187.984375 155.058594 186.921875 154.046875 185.1875 L 145.03125 169.671875 L 127.355469 172.761719 C 125.289062 173.121094 123.199219 172.304688 121.921875 170.640625 C 120.648438 168.976562 120.402344 166.742188 121.289062 164.84375 L 137.574219 129.859375 C 136.644531 129.464844 135.628906 129.035156 134.507812 128.554688 C 126.769531 125.242188 122.242188 117.398438 123.238281 109.042969 C 123.410156 107.609375 123.570312 106.335938 123.714844 105.191406 C 124.269531 100.761719 124.546875 98.539062 124.277344 97.003906 C 124.007812 95.46875 122.984375 93.476562 120.949219 89.503906 C 120.421875 88.476562 119.835938 87.332031 119.183594 86.042969 Z M 166.820312 152.035156 C 161.070312 151.65625 155.714844 148.640625 152.390625 143.5625 C 151.601562 142.351562 150.90625 141.273438 150.28125 140.304688 C 148.984375 138.296875 148.035156 136.828125 147.246094 135.742188 L 136.039062 159.816406 L 146.957031 157.910156 C 149.277344 157.503906 151.605469 158.585938 152.792969 160.625 L 158.359375 170.207031 Z M 234.660156 153.765625 L 225.777344 133.132812 C 225.496094 133.3125 225.25 133.492188 225.03125 133.671875 C 223.839844 134.671875 222.621094 136.558594 220.203125 140.308594 C 219.574219 141.277344 218.878906 142.355469 218.089844 143.5625 C 215.402344 147.671875 211.378906 150.4375 206.898438 151.546875 L 212.050781 163.503906 L 217.894531 154.085938 C 219.136719 152.085938 221.492188 151.066406 223.804688 151.542969 Z M 129.230469 80.96875 C 129.867188 82.234375 130.445312 83.355469 130.960938 84.367188 C 136.097656 94.382812 136.28125 95.421875 134.878906 106.589844 C 134.738281 107.714844 134.582031 108.964844 134.414062 110.375 C 134.007812 113.78125 135.78125 116.859375 138.9375 118.207031 C 140.242188 118.765625 141.402344 119.257812 142.449219 119.699219 C 152.820312 124.070312 153.628906 124.746094 159.734375 134.203125 C 160.347656 135.152344 161.035156 136.214844 161.8125 137.402344 C 163.6875 140.273438 167.027344 141.488281 170.3125 140.496094 C 171.667969 140.085938 172.875 139.714844 173.957031 139.378906 C 179.335938 137.71875 182.289062 136.890625 185.242188 136.890625 C 188.195312 136.890625 191.148438 137.71875 196.523438 139.378906 C 197.605469 139.714844 198.8125 140.085938 200.171875 140.496094 C 203.457031 141.488281 206.792969 140.277344 208.671875 137.402344 C 209.449219 136.214844 210.132812 135.15625 210.746094 134.203125 C 216.855469 124.746094 217.660156 124.070312 228.035156 119.699219 C 229.078125 119.257812 230.242188 118.765625 231.546875 118.207031 C 234.699219 116.859375 236.476562 113.785156 236.066406 110.375 C 235.898438 108.96875 235.742188 107.714844 235.601562 106.589844 C 234.203125 95.421875 234.386719 94.382812 239.519531 84.367188 C 240.039062 83.359375 240.613281 82.234375 241.253906 80.96875 C 242.800781 77.90625 242.183594 74.410156 239.683594 72.0625 C 238.648438 71.089844 237.722656 70.230469 236.890625 69.460938 C 228.640625 61.804688 228.113281 60.890625 225.609375 49.917969 C 225.359375 48.8125 225.078125 47.582031 224.753906 46.199219 C 223.972656 42.859375 221.25 40.578125 217.824219 40.386719 C 216.40625 40.308594 215.144531 40.246094 214.011719 40.1875 C 202.773438 39.628906 201.78125 39.269531 192.808594 32.46875 C 191.90625 31.785156 190.898438 31.023438 189.765625 30.171875 C 187.019531 28.117188 183.46875 28.117188 180.71875 30.171875 C 179.582031 31.023438 178.578125 31.785156 177.675781 32.46875 C 168.703125 39.269531 167.710938 39.628906 156.46875 40.1875 C 155.335938 40.246094 154.078125 40.308594 152.660156 40.386719 C 149.234375 40.578125 146.511719 42.859375 145.730469 46.203125 C 145.40625 47.582031 145.125 48.8125 144.875 49.917969 C 142.371094 60.890625 141.84375 61.804688 133.589844 69.460938 C 132.757812 70.230469 131.832031 71.089844 130.800781 72.0625 C 128.296875 74.40625 127.679688 77.90625 129.230469 80.96875 Z M 142.742188 84.734375 C 142.742188 61.296875 161.804688 42.234375 185.242188 42.234375 C 208.675781 42.234375 227.742188 61.296875 227.742188 84.734375 C 227.742188 108.167969 208.675781 127.234375 185.242188 127.234375 C 161.804688 127.234375 142.742188 108.167969 142.742188 84.734375 Z M 153.996094 84.734375 C 153.996094 101.960938 168.011719 115.976562 185.242188 115.976562 C 202.46875 115.976562 216.488281 101.960938 216.488281 84.734375 C 216.488281 67.503906 202.46875 53.488281 185.242188 53.488281 C 168.011719 53.488281 153.996094 67.503906 153.996094 84.734375 Z M 176.941406 103.164062 C 178.296875 103.164062 179.648438 102.675781 180.722656 101.703125 L 208.9375 76.097656 C 211.238281 74.011719 211.410156 70.449219 209.320312 68.148438 C 207.234375 65.847656 203.675781 65.675781 201.375 67.765625 L 177.128906 89.765625 L 169.304688 81.941406 C 167.105469 79.742188 163.546875 79.742188 161.347656 81.941406 C 159.148438 84.136719 159.148438 87.699219 161.347656 89.898438 L 172.964844 101.511719 C 174.058594 102.609375 175.5 103.164062 176.941406 103.164062 Z M 176.941406 103.164062 " fill-opacity="1" fill-rule="nonzero"/></g></svg>