<svg xmlns="http://www.w3.org/2000/svg" xmlns:xlink="http://www.w3.org/1999/xlink" width="500" zoomAndPan="magnify" viewBox="0 0 375 374.999991" height="500" preserveAspectRatio="xMidYMid meet" version="1.0"><defs><clipPath id="d67b745e1f"><path d="M 204 8.410156 L 217 8.410156 L 217 52 L 204 52 Z M 204 8.410156 " clip-rule="nonzero"/></clipPath><clipPath id="71ceb5da9c"><path d="M 11.402344 90 L 306 90 L 306 366.160156 L 11.402344 366.160156 Z M 11.402344 90 " clip-rule="nonzero"/></clipPath><clipPath id="94d8a9e699"><path d="M 220 233 L 363.902344 233 L 363.902344 366.160156 L 220 366.160156 Z M 220 233 " clip-rule="nonzero"/></clipPath></defs><g clip-path="url(#d67b745e1f)"><path fill="#ffffff" d="M 210.878906 51.328125 C 214.238281 51.328125 216.964844 48.605469 216.964844 45.246094 L 216.964844 14.503906 C 216.964844 11.132812 214.238281 8.410156 210.878906 8.410156 C 207.511719 8.410156 204.792969 11.132812 204.792969 14.503906 L 204.792969 45.246094 C 204.792969 48.605469 207.511719 51.328125 210.878906 51.328125 Z M 210.878906 51.328125 " fill-opacity="1" fill-rule="nonzero"/></g><path fill="#ffffff" d="M 128.519531 65.648438 C 129.710938 67.269531 131.550781 68.140625 133.429688 68.140625 C 134.675781 68.140625 135.941406 67.75 137.027344 66.957031 C 139.734375 64.972656 140.316406 61.160156 138.332031 58.453125 L 120.136719 33.664062 C 118.148438 30.953125 114.34375 30.359375 111.628906 32.351562 C 108.917969 34.339844 108.339844 38.148438 110.324219 40.855469 Z M 128.519531 65.648438 " fill-opacity="1" fill-rule="nonzero"/><path fill="#ffffff" d="M 283.429688 58.453125 C 281.4375 61.160156 282.019531 64.972656 284.734375 66.957031 C 285.820312 67.75 287.078125 68.140625 288.324219 68.140625 C 290.195312 68.140625 292.050781 67.273438 293.238281 65.648438 L 311.433594 40.855469 C 313.425781 38.148438 312.835938 34.339844 310.128906 32.351562 C 307.402344 30.355469 303.601562 30.953125 301.621094 33.664062 " fill-opacity="1" fill-rule="nonzero"/><path fill="#ffffff" d="M 132.828125 121.734375 C 132.855469 121.753906 132.886719 121.777344 132.921875 121.8125 L 166.636719 150.28125 C 167.425781 150.945312 168.070312 151.746094 168.765625 152.503906 C 169.269531 152.730469 169.777344 152.929688 170.214844 153.296875 C 172.714844 155.402344 175.921875 156.382812 179.195312 156.136719 C 182.488281 155.851562 185.464844 154.324219 187.566406 151.828125 C 189.84375 149.53125 190.832031 146.832031 190.710938 143.855469 C 190.566406 140.28125 188.84375 136.769531 186.109375 134.46875 L 169.019531 120.039062 C 169.003906 120.027344 168.992188 120.027344 168.988281 120.015625 L 144.359375 99.207031 C 139.171875 94.828125 131.382812 95.492188 126.988281 100.695312 C 122.613281 105.882812 123.277344 113.675781 128.46875 118.066406 Z M 132.828125 121.734375 " fill-opacity="1" fill-rule="nonzero"/><g clip-path="url(#71ceb5da9c)"><path fill="#ffffff" d="M 196.726562 128.039062 C 200.386719 132.300781 202.628906 137.65625 202.863281 143.339844 C 203.136719 149.765625 200.878906 155.703125 196.511719 160.046875 C 192.667969 164.648438 186.753906 167.703125 180.21875 168.257812 C 179.511719 168.3125 178.796875 168.347656 178.097656 168.347656 C 177.222656 168.347656 176.359375 168.214844 175.496094 168.125 C 175.5 168.226562 175.539062 168.324219 175.546875 168.429688 C 175.824219 174.84375 173.582031 180.792969 169.234375 185.164062 C 164.65625 190.578125 157.980469 193.398438 151.191406 193.46875 C 152.207031 200.199219 150.542969 207.3125 145.832031 212.921875 C 142.417969 216.945312 137.960938 219.519531 133.199219 220.738281 C 134.722656 223.625 135.6875 226.808594 135.964844 230.167969 C 136.511719 236.699219 134.492188 243.039062 130.28125 248.011719 C 126.09375 252.984375 120.1875 256.03125 113.65625 256.582031 C 112.945312 256.636719 112.238281 256.671875 111.539062 256.671875 C 105.773438 256.671875 100.253906 254.664062 95.804688 250.921875 L 76.863281 234.960938 L 11.875 292.929688 L 78.84375 366.417969 L 167.957031 280.929688 C 169.386719 279.6875 171.3125 279.167969 173.132812 279.566406 C 185.609375 282.050781 196.125 283.765625 206.003906 283.074219 C 206.109375 283.0625 206.195312 283.050781 206.300781 283.050781 C 217.519531 282.210938 227.90625 278.246094 239.359375 268.589844 L 300.953125 212.765625 C 300.953125 212.765625 309.179688 205.21875 303.257812 198.53125 C 300.085938 194.945312 296.234375 192.339844 291.980469 190.984375 C 298.457031 182.085938 298.3125 169.554688 290.90625 160.785156 C 287.730469 157.007812 283.566406 154.335938 278.90625 153.023438 C 284.074219 144.316406 283.457031 132.894531 276.566406 124.707031 C 272.761719 120.195312 267.558594 117.285156 261.769531 116.351562 C 264.347656 108.527344 263.667969 98.894531 257.265625 92.847656 C 250.796875 86.757812 240.488281 92.929688 240.488281 92.929688 Z M 196.726562 128.039062 " fill-opacity="1" fill-rule="nonzero"/></g><g clip-path="url(#94d8a9e699)"><path fill="#ffffff" d="M 247.363281 277.753906 C 238.03125 285.636719 229.167969 290.355469 220.304688 292.890625 L 304.070312 366.183594 L 363.125 292.976562 L 296.332031 233.382812 Z M 247.363281 277.753906 " fill-opacity="1" fill-rule="nonzero"/></g><path fill="#ffffff" d="M 171.808594 92.230469 C 168.859375 96.644531 168.0625 103.296875 172.382812 106.9375 C 172.394531 106.949219 172.398438 106.960938 172.410156 106.972656 L 187.574219 119.773438 L 212.644531 99.667969 L 189.445312 88.84375 C 179.113281 83.488281 173.675781 89.429688 171.808594 92.230469 Z M 171.808594 92.230469 " fill-opacity="1" fill-rule="nonzero"/><path fill="#ffffff" d="M 94.828125 185.996094 L 106.203125 195.59375 L 106.207031 195.59375 C 106.238281 195.613281 106.242188 195.660156 106.273438 195.683594 L 119.164062 206.558594 C 124.367188 210.910156 132.144531 210.234375 136.523438 205.066406 C 140.890625 199.882812 140.230469 192.085938 135.035156 187.699219 L 110.777344 167.195312 C 110.757812 167.183594 110.734375 167.183594 110.710938 167.171875 L 110.683594 167.136719 C 108.1875 165.039062 104.984375 164.058594 101.726562 164.316406 C 98.4375 164.589844 95.457031 166.125 93.34375 168.625 C 88.976562 173.816406 89.640625 181.605469 94.828125 185.996094 Z M 94.828125 185.996094 " fill-opacity="1" fill-rule="nonzero"/><path fill="#ffffff" d="M 107.691406 132.558594 C 105.589844 135.066406 104.578125 138.253906 104.855469 141.5625 C 105.132812 144.851562 106.664062 147.820312 109.160156 149.917969 L 118.433594 157.753906 C 118.460938 157.777344 118.484375 157.777344 118.5 157.800781 L 142.890625 178.402344 C 148.066406 182.765625 155.882812 182.113281 160.277344 176.921875 C 162.535156 174.636719 163.523438 171.929688 163.390625 168.949219 C 163.234375 165.375 161.519531 161.875 158.789062 159.578125 L 125.085938 131.109375 L 125.078125 131.109375 L 125.019531 131.0625 C 119.8125 126.714844 112.070312 127.386719 107.691406 132.558594 Z M 107.691406 132.558594 " fill-opacity="1" fill-rule="nonzero"/><path fill="#ffffff" d="M 82.476562 223.753906 L 103.648438 241.605469 C 106.15625 243.714844 109.304688 244.707031 112.636719 244.449219 C 115.921875 244.164062 118.882812 242.636719 120.984375 240.152344 C 123.109375 237.632812 124.121094 234.457031 123.84375 231.160156 C 123.566406 227.863281 122.035156 224.890625 119.542969 222.78125 L 111.347656 215.882812 C 111.335938 215.871094 111.324219 215.871094 111.3125 215.859375 C 111.308594 215.847656 111.308594 215.847656 111.300781 215.835938 L 98.195312 204.785156 C 93.015625 200.558594 85.335938 201.246094 80.992188 206.382812 C 76.621094 211.5625 77.277344 219.351562 82.476562 223.753906 Z M 82.476562 223.753906 " fill-opacity="1" fill-rule="nonzero"/></svg>