<svg xmlns="http://www.w3.org/2000/svg" xmlns:xlink="http://www.w3.org/1999/xlink" width="500" zoomAndPan="magnify" viewBox="0 0 375 374.999991" height="500" preserveAspectRatio="xMidYMid meet" version="1.0"><path fill="#ffffff" d="M 186.742188 181.199219 C 185.167969 181.199219 183.640625 180.617188 182.46875 179.5625 L 161.730469 160.96875 C 160.039062 159.441406 157.597656 159.070312 155.515625 160.019531 C 153.433594 160.972656 152.121094 163.066406 152.167969 165.351562 L 153.066406 210.039062 C 153.132812 213.15625 155.671875 215.652344 158.792969 215.652344 L 180.710938 215.652344 C 184.011719 215.652344 186.757812 218.128906 187.089844 221.40625 L 194.242188 290.253906 C 194.425781 291.957031 193.917969 293.625 192.84375 294.953125 C 191.757812 296.28125 190.226562 297.117188 187.839844 297.328125 C 184.550781 297.328125 181.816406 294.855469 181.472656 291.574219 L 175.449219 233.617188 C 175.148438 230.695312 172.6875 228.476562 169.753906 228.476562 L 123.113281 228.476562 C 119.941406 228.476562 117.378906 231.042969 117.378906 234.210938 L 117.378906 326.9375 C 117.378906 330.472656 114.5 333.351562 110.964844 333.351562 C 107.425781 333.351562 104.550781 330.472656 104.550781 326.9375 L 104.441406 214.886719 C 104.550781 214.515625 104.730469 213.621094 104.765625 213.234375 C 104.777344 213.078125 104.71875 212.175781 104.71875 212.015625 L 103.914062 172.367188 C 103.867188 169.949219 102.300781 167.820312 100.007812 167.050781 C 99.402344 166.847656 98.789062 166.753906 98.183594 166.753906 C 96.460938 166.753906 94.789062 167.53125 93.683594 168.945312 L 81.898438 183.925781 C 81.527344 184.394531 81.222656 184.921875 81.027344 185.480469 L 63.71875 232.355469 C 62.523438 235.59375 58.628906 237.316406 55.484375 236.160156 C 52.15625 234.925781 50.457031 231.230469 51.675781 227.914062 L 69.628906 179.285156 C 69.886719 178.613281 70.210938 178.015625 70.613281 177.5 L 98.542969 142.015625 C 99.773438 140.460938 101.609375 139.570312 103.589844 139.570312 L 154.617188 139.570312 C 156.210938 139.570312 157.730469 140.15625 158.90625 141.207031 L 187.5625 166.90625 C 188.613281 167.851562 189.980469 168.371094 191.390625 168.371094 L 225.707031 168.371094 C 229.246094 168.371094 232.121094 171.25 232.121094 174.785156 C 232.121094 178.324219 229.246094 181.199219 225.707031 181.199219 Z M 210.207031 279.976562 C 208.375 280.035156 206.527344 280.039062 204.710938 280.148438 L 198.484375 220.226562 C 197.546875 211.085938 189.902344 204.191406 180.710938 204.191406 L 164.414062 204.191406 L 163.886719 178.304688 L 174.824219 188.097656 C 178.105469 191.046875 182.347656 192.660156 186.742188 192.660156 L 210.207031 192.660156 Z M 128.84375 302.164062 L 128.84375 239.941406 L 164.582031 239.941406 L 169.34375 285.742188 C 154.679688 289.5625 141.015625 295.144531 128.84375 302.164062 Z M 105.691406 101.285156 C 105.515625 95.570312 107.574219 90.132812 111.492188 85.96875 C 115.410156 81.800781 120.714844 79.414062 126.425781 79.246094 C 126.648438 79.234375 126.871094 79.234375 127.085938 79.234375 C 138.582031 79.234375 148.117188 88.410156 148.460938 99.980469 C 148.640625 105.695312 146.582031 111.136719 142.664062 115.296875 C 138.75 119.457031 133.453125 121.847656 127.746094 122.015625 C 127.734375 122.015625 127.734375 122.015625 127.734375 122.015625 C 121.945312 122.195312 116.574219 120.128906 112.421875 116.21875 C 108.253906 112.296875 105.863281 106.996094 105.691406 101.285156 Z M 221.667969 43.058594 C 242.25 52.859375 258.875 45.15625 273.726562 38.253906 C 289.273438 31.03125 302.796875 24.761719 321.019531 36.148438 L 321.019531 115.070312 C 300.390625 105.195312 283.777344 112.941406 268.914062 119.871094 C 253.378906 127.105469 239.855469 133.382812 221.667969 121.984375 Z M 352.15625 355.386719 C 335.132812 312.25 281.960938 281.808594 221.667969 279.976562 L 221.667969 192.660156 L 225.707031 192.660156 C 235.570312 192.660156 243.585938 184.640625 243.585938 174.785156 C 243.585938 164.929688 235.570312 156.910156 225.707031 156.910156 L 221.667969 156.910156 L 221.667969 134.96875 C 228.679688 138.316406 235.261719 139.734375 241.433594 139.734375 C 253.390625 139.734375 263.945312 134.820312 273.75 130.265625 C 289.980469 122.703125 303.984375 116.175781 323.46875 129.765625 C 325.226562 130.992188 327.5 131.144531 329.402344 130.148438 C 331.292969 129.160156 332.480469 127.203125 332.480469 125.066406 L 332.480469 33.066406 C 332.480469 31.195312 331.5625 29.4375 330.027344 28.367188 C 305.113281 11.023438 285.890625 19.972656 268.902344 27.855469 C 252.671875 35.394531 238.667969 41.90625 219.207031 28.367188 C 217.46875 27.152344 215.164062 27.007812 213.285156 28 C 211.390625 28.980469 210.207031 30.941406 210.207031 33.074219 L 210.207031 156.910156 L 193.582031 156.910156 L 166.550781 132.671875 C 163.269531 129.726562 159.027344 128.109375 154.617188 128.109375 L 144.933594 128.109375 C 147.117188 126.6875 149.191406 125.09375 151.015625 123.152344 C 157.023438 116.757812 160.195312 108.402344 159.925781 99.632812 C 159.367188 81.53125 144.5 67.457031 126.089844 67.785156 C 117.3125 68.054688 109.164062 71.71875 103.140625 78.113281 C 97.128906 84.507812 93.960938 92.863281 94.230469 101.632812 C 94.5 110.410156 98.171875 118.550781 104.5625 124.566406 C 105.984375 125.902344 107.523438 127.058594 109.117188 128.109375 L 103.589844 128.109375 C 98.070312 128.109375 92.945312 130.59375 89.542969 134.933594 L 61.613281 170.414062 C 60.484375 171.847656 59.566406 173.472656 58.894531 175.273438 L 40.929688 223.945312 C 37.515625 233.183594 42.261719 243.488281 51.496094 246.902344 C 60.371094 250.1875 71.128906 245.320312 74.464844 236.332031 L 91.457031 190.296875 L 92.777344 188.621094 L 93.257812 212.128906 C 93.257812 212.210938 93.257812 212.3125 93.269531 212.421875 C 93.167969 212.957031 93.089844 213.558594 93.089844 213.90625 L 93.089844 326.9375 C 93.089844 328.53125 93.371094 330.054688 93.761719 331.527344 C 87.839844 338.914062 83.074219 346.902344 79.726562 355.386719 C 78.5625 358.332031 80.003906 361.660156 82.949219 362.820312 C 85.90625 363.984375 89.226562 362.550781 90.382812 359.597656 C 92.902344 353.210938 96.417969 347.171875 100.621094 341.460938 L 100.617188 341.457031 C 103.546875 343.550781 107.101562 344.8125 110.964844 344.8125 C 120.828125 344.8125 128.84375 336.792969 128.84375 326.9375 L 128.84375 315.414062 C 141.15625 307.464844 155.535156 301.25 171.152344 297.097656 C 173.925781 304.550781 181.425781 309.621094 189.699219 308.691406 C 194.445312 308.199219 198.71875 305.886719 201.730469 302.1875 C 204.207031 299.132812 205.515625 295.433594 205.652344 291.570312 C 209.058594 291.375 212.488281 291.261719 215.945312 291.261719 C 273.984375 291.261719 325.617188 319.363281 341.5 359.597656 C 342.386719 361.855469 344.546875 363.222656 346.832031 363.222656 C 347.535156 363.222656 348.242188 363.097656 348.933594 362.820312 C 351.878906 361.660156 353.324219 358.332031 352.15625 355.386719 " fill-opacity="1" fill-rule="nonzero"/></svg>