<svg xmlns="http://www.w3.org/2000/svg" xmlns:xlink="http://www.w3.org/1999/xlink" width="500" zoomAndPan="magnify" viewBox="0 0 375 374.999991" height="500" preserveAspectRatio="xMidYMid meet" version="1.0"><defs><clipPath id="856fc301b0"><path d="M 183 41 L 366.945312 41 L 366.945312 330 L 183 330 Z M 183 41 " clip-rule="nonzero"/></clipPath></defs><path fill="#4c5454" d="M 145.277344 214.136719 C 144.707031 214.136719 145.847656 214.164062 145.277344 214.136719 Z M 145.277344 214.136719 " fill-opacity="1" fill-rule="nonzero"/><path fill="#4c5454" d="M 44.929688 214.210938 C 44.359375 214.242188 45.5 214.210938 44.929688 214.210938 Z M 44.929688 214.210938 " fill-opacity="1" fill-rule="nonzero"/><path fill="#4c5454" d="M 77.746094 182.257812 C 77.8125 181.027344 77.808594 179.796875 77.738281 178.566406 C 77.652344 176.828125 77.859375 175.132812 78.367188 173.46875 C 78.875 171.808594 79.652344 170.285156 80.699219 168.894531 L 95.164062 149.53125 L 109.523438 168.820312 C 110.5625 170.207031 111.335938 171.726562 111.84375 173.386719 C 112.347656 175.042969 112.554688 176.738281 112.464844 178.46875 C 112.394531 179.707031 112.394531 180.945312 112.457031 182.1875 C 113.335938 199.230469 128.230469 213.277344 145.273438 214.140625 C 154.214844 214.140625 163.703125 210.613281 170.039062 204.273438 C 171.179688 203.136719 172.230469 201.917969 173.199219 200.628906 C 174.164062 199.339844 175.03125 197.984375 175.804688 196.570312 C 176.578125 195.152344 177.246094 193.691406 177.808594 192.179688 C 178.371094 190.667969 178.820312 189.125 179.164062 187.550781 C 179.503906 185.972656 179.730469 184.382812 179.84375 182.773438 C 179.957031 181.164062 179.957031 179.558594 179.835938 177.949219 C 179.71875 176.339844 179.488281 174.75 179.144531 173.175781 C 178.796875 171.601562 178.34375 170.058594 177.777344 168.546875 C 177.210938 167.039062 176.539062 165.578125 175.765625 164.164062 C 174.988281 162.75 174.117188 161.398438 173.148438 160.109375 C 172.175781 158.820312 171.121094 157.609375 169.976562 156.472656 C 168.835938 155.335938 167.617188 154.285156 166.324219 153.324219 C 165.03125 152.359375 163.675781 151.496094 162.257812 150.726562 C 160.839844 149.957031 159.375 149.292969 157.863281 148.734375 C 156.351562 148.175781 154.804688 147.730469 153.230469 147.390625 C 151.652344 147.054688 150.058594 146.832031 148.449219 146.722656 C 147.015625 146.628906 145.582031 146.621094 144.148438 146.707031 C 142.886719 146.792969 141.632812 146.722656 140.386719 146.492188 C 139.140625 146.265625 137.945312 145.886719 136.792969 145.355469 C 135.644531 144.828125 134.578125 144.164062 133.59375 143.363281 C 132.609375 142.566406 131.742188 141.660156 130.984375 140.644531 L 116.511719 120.960938 L 148.621094 77.957031 C 149.113281 77.164062 149.566406 76.351562 149.976562 75.515625 C 150.386719 74.675781 150.757812 73.824219 151.085938 72.949219 C 151.414062 72.078125 151.695312 71.191406 151.9375 70.289062 C 152.175781 69.390625 152.371094 68.476562 152.523438 67.558594 C 152.671875 66.636719 152.777344 65.714844 152.839844 64.78125 C 152.898438 63.851562 152.914062 62.921875 152.878906 61.988281 C 152.847656 61.058594 152.769531 60.128906 152.648438 59.207031 C 152.523438 58.28125 152.355469 57.367188 152.144531 56.457031 C 151.929688 55.550781 151.675781 54.65625 151.371094 53.773438 C 151.070312 52.890625 150.726562 52.027344 150.34375 51.175781 C 149.957031 50.328125 149.527344 49.5 149.0625 48.695312 C 148.59375 47.886719 148.089844 47.105469 147.542969 46.351562 C 147 45.59375 146.417969 44.863281 145.804688 44.164062 C 145.1875 43.464844 144.539062 42.796875 143.855469 42.160156 C 143.175781 41.523438 142.464844 40.925781 141.722656 40.359375 C 140.984375 39.792969 140.214844 39.265625 139.421875 38.773438 C 138.957031 38.484375 138.457031 38.292969 137.917969 38.191406 C 137.382812 38.09375 136.84375 38.09375 136.308594 38.199219 C 135.769531 38.300781 135.269531 38.5 134.808594 38.792969 C 134.347656 39.082031 133.953125 39.449219 133.628906 39.890625 L 95.21875 91.953125 L 56.570312 39.804688 C 56.246094 39.367188 55.851562 39.003906 55.390625 38.710938 C 54.925781 38.421875 54.425781 38.222656 53.890625 38.121094 C 53.355469 38.019531 52.820312 38.015625 52.28125 38.117188 C 51.746094 38.214844 51.246094 38.410156 50.78125 38.695312 C 49.988281 39.1875 49.222656 39.714844 48.480469 40.28125 C 47.738281 40.847656 47.027344 41.449219 46.347656 42.085938 C 45.664062 42.722656 45.015625 43.390625 44.402344 44.089844 C 43.785156 44.789062 43.203125 45.515625 42.660156 46.273438 C 42.117188 47.03125 41.609375 47.8125 41.140625 48.617188 C 40.675781 49.425781 40.246094 50.253906 39.863281 51.101562 C 39.476562 51.949219 39.132812 52.816406 38.832031 53.699219 C 38.53125 54.582031 38.273438 55.476562 38.058594 56.382812 C 37.847656 57.289062 37.679688 58.207031 37.554688 59.128906 C 37.433594 60.054688 37.355469 60.980469 37.324219 61.914062 C 37.292969 62.84375 37.304688 63.777344 37.367188 64.707031 C 37.425781 65.636719 37.53125 66.5625 37.679688 67.480469 C 37.832031 68.402344 38.027344 69.3125 38.265625 70.214844 C 38.507812 71.113281 38.792969 72 39.117188 72.875 C 39.445312 73.746094 39.816406 74.601562 40.226562 75.4375 C 40.636719 76.273438 41.089844 77.089844 41.582031 77.882812 L 73.777344 121.015625 L 59.226562 140.738281 C 58.472656 141.75 57.601562 142.65625 56.621094 143.449219 C 55.636719 144.246094 54.574219 144.90625 53.425781 145.433594 C 52.277344 145.960938 51.082031 146.339844 49.835938 146.570312 C 48.59375 146.796875 47.34375 146.867188 46.082031 146.78125 C 44.640625 146.695312 43.195312 146.703125 41.753906 146.796875 C 40.144531 146.90625 38.550781 147.128906 36.976562 147.464844 C 35.398438 147.800781 33.855469 148.25 32.34375 148.808594 C 30.828125 149.367188 29.363281 150.03125 27.949219 150.800781 C 26.53125 151.566406 25.175781 152.433594 23.882812 153.394531 C 22.585938 154.359375 21.371094 155.40625 20.226562 156.542969 C 19.082031 157.683594 18.027344 158.894531 17.058594 160.183594 C 16.089844 161.472656 15.214844 162.824219 14.441406 164.234375 C 13.664062 165.648438 12.992188 167.109375 12.429688 168.621094 C 11.863281 170.128906 11.40625 171.671875 11.058594 173.246094 C 10.714844 174.820312 10.484375 176.414062 10.367188 178.019531 C 10.25 179.628906 10.246094 181.238281 10.359375 182.847656 C 10.472656 184.453125 10.699219 186.046875 11.042969 187.621094 C 11.382812 189.199219 11.835938 190.742188 12.398438 192.253906 C 12.960938 193.761719 13.625 195.226562 14.398438 196.640625 C 15.171875 198.058594 16.039062 199.410156 17.003906 200.703125 C 17.972656 201.992188 19.023438 203.207031 20.164062 204.347656 C 26.5 210.683594 35.988281 214.214844 44.929688 214.214844 C 61.972656 213.347656 76.871094 199.300781 77.746094 182.257812 Z M 125.808594 148 C 127.015625 149.269531 128.339844 150.394531 129.792969 151.371094 C 131.242188 152.351562 132.78125 153.160156 134.414062 153.800781 C 136.042969 154.4375 137.722656 154.894531 139.449219 155.164062 C 141.179688 155.433594 142.917969 155.511719 144.664062 155.398438 C 145.734375 155.335938 146.804688 155.339844 147.878906 155.410156 C 148.675781 155.464844 149.46875 155.554688 150.257812 155.6875 C 151.046875 155.816406 151.824219 155.984375 152.597656 156.191406 C 153.371094 156.394531 154.132812 156.636719 154.882812 156.914062 C 155.632812 157.191406 156.367188 157.507812 157.085938 157.855469 C 157.804688 158.203125 158.507812 158.585938 159.1875 159 C 159.871094 159.414062 160.535156 159.863281 161.171875 160.339844 C 161.8125 160.820312 162.429688 161.328125 163.019531 161.867188 C 163.613281 162.402344 164.175781 162.96875 164.714844 163.558594 C 165.253906 164.152344 165.761719 164.765625 166.238281 165.40625 C 166.71875 166.046875 167.164062 166.710938 167.578125 167.390625 C 167.996094 168.074219 168.375 168.777344 168.722656 169.496094 C 169.074219 170.214844 169.386719 170.949219 169.664062 171.699219 C 169.941406 172.449219 170.183594 173.210938 170.386719 173.984375 C 170.59375 174.757812 170.757812 175.535156 170.890625 176.324219 C 171.019531 177.113281 171.113281 177.90625 171.167969 178.707031 C 171.222656 179.503906 171.238281 180.300781 171.214844 181.101562 C 171.191406 181.898438 171.132812 182.695312 171.035156 183.488281 C 170.9375 184.28125 170.800781 185.070312 170.625 185.847656 C 170.453125 186.628906 170.242188 187.398438 169.996094 188.160156 C 169.746094 188.917969 169.464844 189.667969 169.144531 190.398438 C 168.828125 191.132812 168.472656 191.847656 168.085938 192.546875 C 167.699219 193.246094 167.277344 193.925781 166.828125 194.585938 C 166.375 195.246094 165.890625 195.878906 165.378906 196.492188 C 164.863281 197.105469 164.324219 197.691406 163.753906 198.253906 C 163.183594 198.816406 162.589844 199.347656 161.96875 199.851562 C 161.347656 200.355469 160.707031 200.828125 160.039062 201.273438 C 159.375 201.714844 158.6875 202.125 157.984375 202.5 C 157.277344 202.878906 156.558594 203.21875 155.820312 203.527344 C 155.082031 203.835938 154.332031 204.109375 153.566406 204.34375 C 152.804688 204.578125 152.03125 204.777344 151.246094 204.941406 C 150.464844 205.101562 149.675781 205.226562 148.882812 205.3125 C 148.085938 205.398438 147.289062 205.449219 146.492188 205.460938 C 145.691406 205.46875 144.894531 205.441406 144.097656 205.375 C 143.300781 205.308594 142.507812 205.203125 141.722656 205.0625 C 140.933594 204.921875 140.15625 204.742188 139.386719 204.527344 C 138.617188 204.308594 137.859375 204.058594 137.113281 203.769531 C 136.371094 203.480469 135.640625 203.15625 134.925781 202.796875 C 134.210938 202.4375 133.515625 202.046875 132.839844 201.621094 C 132.160156 201.195312 131.507812 200.738281 130.875 200.25 C 130.242188 199.761719 129.632812 199.246094 129.046875 198.699219 C 128.464844 198.152344 127.910156 197.578125 127.378906 196.980469 C 126.851562 196.378906 126.351562 195.757812 125.882812 195.109375 C 125.414062 194.464844 124.976562 193.792969 124.570312 193.105469 C 124.167969 192.417969 123.796875 191.710938 123.457031 190.984375 C 123.121094 190.261719 122.816406 189.519531 122.550781 188.769531 C 122.285156 188.015625 122.054688 187.25 121.859375 186.472656 C 121.667969 185.699219 121.511719 184.914062 121.390625 184.125 C 121.273438 183.335938 121.191406 182.539062 121.148438 181.742188 C 121.101562 180.816406 121.105469 179.890625 121.15625 178.964844 C 121.304688 176.214844 120.976562 173.523438 120.179688 170.886719 C 119.378906 168.253906 118.15625 165.832031 116.507812 163.628906 L 107.492188 151.519531 C 112.015625 147.964844 117.945312 146.832031 125.808594 148 Z M 118.910156 138.910156 C 112.410156 139.15625 106.855469 141.03125 102.296875 144.535156 L 100.601562 142.253906 L 111.066406 128.25 Z M 48.886719 73.144531 C 48.304688 72.183594 47.804688 71.183594 47.394531 70.140625 C 46.980469 69.097656 46.660156 68.027344 46.429688 66.925781 C 46.199219 65.828125 46.066406 64.71875 46.023438 63.597656 C 45.984375 62.476562 46.039062 61.359375 46.1875 60.25 C 46.335938 59.136719 46.582031 58.046875 46.917969 56.976562 C 47.25 55.902344 47.675781 54.871094 48.1875 53.871094 C 48.699219 52.875 49.292969 51.925781 49.964844 51.027344 C 50.640625 50.128906 51.382812 49.296875 52.199219 48.527344 L 89.8125 99.277344 L 79.175781 113.699219 Z M 138.011719 48.605469 C 138.828125 49.378906 139.570312 50.210938 140.242188 51.109375 C 140.917969 52.007812 141.507812 52.953125 142.019531 53.953125 C 142.53125 54.949219 142.953125 55.984375 143.289062 57.054688 C 143.625 58.125 143.867188 59.214844 144.015625 60.328125 C 144.164062 61.4375 144.21875 62.554688 144.179688 63.675781 C 144.136719 64.796875 144.003906 65.90625 143.773438 67.003906 C 143.542969 68.101562 143.222656 69.171875 142.808594 70.214844 C 142.398438 71.257812 141.902344 72.257812 141.316406 73.21875 L 87.949219 144.644531 C 83.394531 141.128906 77.839844 139.238281 71.339844 138.988281 Z M 45.34375 205.496094 C 44.53125 205.542969 43.714844 205.546875 42.898438 205.507812 C 42.082031 205.472656 41.269531 205.398438 40.460938 205.28125 C 39.652344 205.164062 38.847656 205.011719 38.054688 204.816406 C 37.261719 204.625 36.480469 204.390625 35.707031 204.121094 C 34.9375 203.851562 34.183594 203.542969 33.441406 203.199219 C 32.699219 202.855469 31.976562 202.472656 31.273438 202.058594 C 30.570312 201.644531 29.886719 201.195312 29.230469 200.714844 C 28.570312 200.230469 27.933594 199.71875 27.324219 199.175781 C 26.714844 198.628906 26.132812 198.058594 25.578125 197.457031 C 25.027344 196.855469 24.503906 196.230469 24.011719 195.578125 C 23.519531 194.925781 23.058594 194.25 22.632812 193.554688 C 22.207031 192.859375 21.8125 192.140625 21.457031 191.40625 C 21.101562 190.671875 20.78125 189.921875 20.5 189.152344 C 20.214844 188.386719 19.972656 187.609375 19.765625 186.816406 C 19.558594 186.027344 19.390625 185.230469 19.261719 184.421875 C 19.132812 183.617188 19.042969 182.804688 18.996094 181.988281 C 18.945312 181.171875 18.9375 180.355469 18.96875 179.539062 C 18.996094 178.722656 19.066406 177.910156 19.179688 177.101562 C 19.289062 176.292969 19.4375 175.488281 19.625 174.695312 C 19.816406 173.898438 20.042969 173.117188 20.308594 172.34375 C 20.574219 171.570312 20.875 170.8125 21.214844 170.070312 C 21.554688 169.324219 21.929688 168.601562 22.339844 167.894531 C 22.75 167.1875 23.195312 166.503906 23.671875 165.839844 C 24.148438 165.175781 24.65625 164.539062 25.199219 163.925781 C 25.738281 163.3125 26.304688 162.726562 26.902344 162.167969 C 27.5 161.613281 28.121094 161.085938 28.769531 160.585938 C 29.421875 160.089844 30.089844 159.628906 30.785156 159.195312 C 31.480469 158.765625 32.191406 158.367188 32.925781 158.007812 C 33.660156 157.644531 34.40625 157.320312 35.171875 157.035156 C 35.9375 156.746094 36.714844 156.496094 37.503906 156.285156 C 38.292969 156.070312 39.089844 155.898438 39.894531 155.765625 C 40.699219 155.628906 41.511719 155.535156 42.328125 155.480469 C 43.40625 155.410156 44.484375 155.40625 45.5625 155.46875 C 47.308594 155.585938 49.046875 155.507812 50.777344 155.238281 C 52.507812 154.96875 54.1875 154.515625 55.816406 153.875 C 57.445312 153.234375 58.988281 152.425781 60.441406 151.449219 C 61.890625 150.46875 63.21875 149.34375 64.421875 148.070312 C 72.292969 146.910156 78.226562 148.050781 82.742188 151.617188 L 73.726562 163.6875 C 72.070312 165.894531 70.839844 168.320312 70.035156 170.960938 C 69.230469 173.601562 68.902344 176.296875 69.050781 179.054688 C 69.101562 179.972656 69.101562 180.890625 69.054688 181.8125 C 69.007812 182.574219 68.929688 183.332031 68.8125 184.085938 C 68.699219 184.84375 68.550781 185.589844 68.367188 186.332031 C 68.183594 187.074219 67.96875 187.808594 67.71875 188.53125 C 67.46875 189.25 67.1875 189.960938 66.875 190.65625 C 66.5625 191.355469 66.214844 192.035156 65.839844 192.699219 C 65.464844 193.367188 65.0625 194.011719 64.625 194.640625 C 64.191406 195.269531 63.730469 195.878906 63.242188 196.464844 C 62.753906 197.050781 62.238281 197.613281 61.695312 198.15625 C 61.15625 198.695312 60.59375 199.210938 60.003906 199.699219 C 59.417969 200.1875 58.808594 200.648438 58.179688 201.082031 C 57.550781 201.515625 56.902344 201.917969 56.238281 202.292969 C 55.574219 202.667969 54.890625 203.011719 54.195312 203.328125 C 53.496094 203.640625 52.789062 203.917969 52.066406 204.167969 C 51.34375 204.417969 50.609375 204.632812 49.867188 204.8125 C 49.125 204.996094 48.378906 205.144531 47.621094 205.257812 C 46.867188 205.371094 46.109375 205.453125 45.34375 205.496094 Z M 45.34375 205.496094 " fill-opacity="1" fill-rule="nonzero"/><path fill="#4c5454" d="M 44.035156 161.972656 C 43.429688 161.972656 42.824219 162 42.222656 162.0625 C 41.617188 162.121094 41.019531 162.210938 40.425781 162.328125 C 39.832031 162.445312 39.242188 162.59375 38.664062 162.769531 C 38.082031 162.945312 37.511719 163.148438 36.953125 163.378906 C 36.394531 163.613281 35.847656 163.871094 35.3125 164.15625 C 34.777344 164.441406 34.257812 164.753906 33.753906 165.089844 C 33.25 165.425781 32.765625 165.789062 32.296875 166.171875 C 31.828125 166.558594 31.378906 166.964844 30.949219 167.390625 C 30.519531 167.820312 30.113281 168.269531 29.730469 168.738281 C 29.34375 169.207031 28.984375 169.691406 28.648438 170.195312 C 28.3125 170.699219 28 171.21875 27.714844 171.753906 C 27.429688 172.289062 27.167969 172.835938 26.9375 173.394531 C 26.707031 173.957031 26.5 174.527344 26.324219 175.105469 C 26.148438 175.6875 26.003906 176.273438 25.882812 176.867188 C 25.765625 177.460938 25.675781 178.0625 25.617188 178.664062 C 25.558594 179.265625 25.527344 179.871094 25.527344 180.476562 C 25.527344 181.085938 25.558594 181.6875 25.617188 182.292969 C 25.675781 182.894531 25.765625 183.496094 25.882812 184.089844 C 26.003906 184.683594 26.148438 185.269531 26.324219 185.851562 C 26.5 186.429688 26.707031 187 26.9375 187.558594 C 27.167969 188.121094 27.429688 188.667969 27.714844 189.203125 C 28 189.738281 28.3125 190.257812 28.648438 190.761719 C 28.984375 191.265625 29.34375 191.75 29.730469 192.21875 C 30.113281 192.6875 30.519531 193.136719 30.949219 193.5625 C 31.378906 193.992188 31.824219 194.398438 32.292969 194.785156 C 32.761719 195.167969 33.25 195.527344 33.753906 195.867188 C 34.257812 196.203125 34.777344 196.515625 35.3125 196.800781 C 35.847656 197.085938 36.394531 197.34375 36.953125 197.574219 C 37.511719 197.808594 38.082031 198.011719 38.664062 198.1875 C 39.242188 198.363281 39.832031 198.511719 40.425781 198.628906 C 41.019531 198.746094 41.617188 198.835938 42.222656 198.894531 C 42.824219 198.957031 43.429688 198.984375 44.035156 198.984375 C 44.640625 198.984375 45.246094 198.957031 45.847656 198.894531 C 46.453125 198.835938 47.050781 198.746094 47.644531 198.628906 C 48.242188 198.511719 48.828125 198.363281 49.40625 198.1875 C 49.988281 198.011719 50.558594 197.808594 51.117188 197.574219 C 51.675781 197.34375 52.226562 197.085938 52.757812 196.800781 C 53.292969 196.515625 53.8125 196.203125 54.316406 195.867188 C 54.820312 195.527344 55.308594 195.167969 55.777344 194.785156 C 56.246094 194.398438 56.691406 193.992188 57.121094 193.5625 C 57.550781 193.136719 57.957031 192.6875 58.339844 192.21875 C 58.726562 191.75 59.085938 191.261719 59.421875 190.757812 C 59.761719 190.253906 60.070312 189.734375 60.355469 189.203125 C 60.640625 188.667969 60.902344 188.121094 61.132812 187.558594 C 61.367188 187 61.570312 186.429688 61.746094 185.851562 C 61.921875 185.269531 62.066406 184.683594 62.1875 184.089844 C 62.304688 183.492188 62.394531 182.894531 62.453125 182.292969 C 62.511719 181.6875 62.542969 181.082031 62.542969 180.476562 C 62.542969 179.871094 62.511719 179.265625 62.449219 178.664062 C 62.390625 178.0625 62.300781 177.464844 62.183594 176.867188 C 62.0625 176.273438 61.917969 175.6875 61.738281 175.109375 C 61.5625 174.527344 61.359375 173.957031 61.128906 173.398438 C 60.894531 172.839844 60.636719 172.292969 60.351562 171.757812 C 60.0625 171.222656 59.753906 170.707031 59.417969 170.203125 C 59.078125 169.699219 58.71875 169.210938 58.335938 168.742188 C 57.949219 168.273438 57.542969 167.828125 57.117188 167.398438 C 56.6875 166.96875 56.238281 166.5625 55.769531 166.179688 C 55.300781 165.792969 54.816406 165.433594 54.3125 165.097656 C 53.808594 164.761719 53.289062 164.449219 52.753906 164.164062 C 52.222656 163.878906 51.675781 163.617188 51.113281 163.386719 C 50.554688 163.152344 49.984375 162.949219 49.40625 162.773438 C 48.824219 162.597656 48.238281 162.449219 47.644531 162.332031 C 47.050781 162.210938 46.453125 162.121094 45.847656 162.0625 C 45.246094 162.003906 44.640625 161.972656 44.035156 161.972656 Z M 44.035156 190.28125 C 43.390625 190.28125 42.753906 190.21875 42.125 190.09375 C 41.492188 189.964844 40.878906 189.78125 40.285156 189.535156 C 39.691406 189.289062 39.125 188.984375 38.589844 188.628906 C 38.054688 188.269531 37.558594 187.863281 37.105469 187.410156 C 36.648438 186.953125 36.242188 186.460938 35.886719 185.925781 C 35.527344 185.390625 35.226562 184.824219 34.980469 184.230469 C 34.734375 183.636719 34.546875 183.023438 34.421875 182.390625 C 34.296875 181.761719 34.234375 181.121094 34.234375 180.480469 C 34.234375 179.835938 34.296875 179.199219 34.421875 178.566406 C 34.546875 177.9375 34.734375 177.324219 34.980469 176.726562 C 35.226562 176.132812 35.527344 175.570312 35.886719 175.035156 C 36.242188 174.5 36.648438 174.003906 37.105469 173.546875 C 37.558594 173.09375 38.054688 172.6875 38.589844 172.328125 C 39.125 171.972656 39.6875 171.667969 40.285156 171.421875 C 40.878906 171.175781 41.492188 170.992188 42.121094 170.863281 C 42.753906 170.738281 43.390625 170.675781 44.035156 170.675781 C 44.679688 170.675781 45.316406 170.738281 45.945312 170.863281 C 46.578125 170.992188 47.191406 171.175781 47.785156 171.421875 C 48.378906 171.667969 48.945312 171.96875 49.480469 172.328125 C 50.015625 172.6875 50.511719 173.09375 50.964844 173.546875 C 51.421875 174.003906 51.828125 174.496094 52.183594 175.03125 C 52.542969 175.566406 52.84375 176.132812 53.089844 176.726562 C 53.335938 177.320312 53.523438 177.933594 53.648438 178.566406 C 53.773438 179.195312 53.835938 179.835938 53.835938 180.476562 C 53.835938 181.121094 53.773438 181.757812 53.648438 182.390625 C 53.519531 183.019531 53.335938 183.632812 53.089844 184.226562 C 52.839844 184.820312 52.539062 185.386719 52.183594 185.921875 C 51.824219 186.457031 51.417969 186.949219 50.964844 187.40625 C 50.507812 187.859375 50.011719 188.265625 49.480469 188.625 C 48.945312 188.980469 48.378906 189.285156 47.785156 189.53125 C 47.191406 189.777344 46.578125 189.964844 45.949219 190.089844 C 45.316406 190.214844 44.679688 190.277344 44.035156 190.28125 Z M 44.035156 190.28125 " fill-opacity="1" fill-rule="nonzero"/><path fill="#4c5454" d="M 134.757812 276.78125 C 134.757812 275.65625 134.703125 274.535156 134.59375 273.414062 C 134.480469 272.296875 134.316406 271.1875 134.097656 270.082031 C 133.878906 268.980469 133.605469 267.890625 133.28125 266.816406 C 132.953125 265.738281 132.574219 264.683594 132.144531 263.644531 C 131.714844 262.605469 131.234375 261.589844 130.703125 260.597656 C 130.175781 259.605469 129.597656 258.644531 128.972656 257.707031 C 128.347656 256.773438 127.679688 255.871094 126.964844 255.003906 C 126.253906 254.132812 125.5 253.300781 124.703125 252.507812 C 123.910156 251.710938 123.078125 250.957031 122.207031 250.246094 C 121.339844 249.53125 120.4375 248.863281 119.5 248.238281 C 118.566406 247.613281 117.601562 247.035156 116.613281 246.507812 C 115.621094 245.976562 114.605469 245.496094 113.566406 245.066406 C 112.527344 244.636719 111.46875 244.257812 110.394531 243.929688 C 109.320312 243.605469 108.230469 243.332031 107.125 243.113281 C 106.023438 242.894531 104.914062 242.726562 103.792969 242.617188 C 102.675781 242.507812 101.554688 242.453125 100.429688 242.453125 C 99.304688 242.453125 98.183594 242.507812 97.066406 242.617188 C 95.945312 242.726562 94.835938 242.894531 93.734375 243.113281 C 92.628906 243.332031 91.539062 243.605469 90.464844 243.929688 C 89.390625 244.257812 88.332031 244.636719 87.292969 245.066406 C 86.253906 245.496094 85.238281 245.976562 84.246094 246.507812 C 83.257812 247.035156 82.292969 247.613281 81.359375 248.238281 C 80.421875 248.863281 79.523438 249.53125 78.652344 250.246094 C 77.785156 250.957031 76.953125 251.710938 76.15625 252.507812 C 75.363281 253.300781 74.605469 254.132812 73.894531 255.003906 C 73.179688 255.871094 72.511719 256.773438 71.886719 257.707031 C 71.261719 258.644531 70.683594 259.605469 70.15625 260.597656 C 69.625 261.589844 69.144531 262.605469 68.714844 263.644531 C 68.285156 264.683594 67.90625 265.738281 67.582031 266.816406 C 67.253906 267.890625 66.980469 268.980469 66.761719 270.082031 C 66.542969 271.1875 66.378906 272.296875 66.265625 273.414062 C 66.15625 274.535156 66.101562 275.65625 66.101562 276.78125 C 66.101562 277.90625 66.15625 279.027344 66.265625 280.144531 C 66.378906 281.265625 66.542969 282.375 66.761719 283.476562 C 66.980469 284.582031 67.253906 285.667969 67.582031 286.746094 C 67.90625 287.820312 68.285156 288.878906 68.714844 289.917969 C 69.144531 290.957031 69.625 291.972656 70.15625 292.960938 C 70.6875 293.953125 71.261719 294.917969 71.886719 295.851562 C 72.511719 296.785156 73.179688 297.6875 73.894531 298.558594 C 74.609375 299.425781 75.363281 300.257812 76.15625 301.054688 C 76.953125 301.847656 77.785156 302.601562 78.652344 303.316406 C 79.523438 304.03125 80.425781 304.699219 81.359375 305.324219 C 82.292969 305.949219 83.257812 306.523438 84.25 307.054688 C 85.238281 307.585938 86.253906 308.066406 87.292969 308.496094 C 88.332031 308.925781 89.390625 309.304688 90.464844 309.628906 C 91.542969 309.957031 92.628906 310.230469 93.734375 310.449219 C 94.835938 310.667969 95.945312 310.832031 97.066406 310.941406 C 98.183594 311.054688 99.304688 311.109375 100.429688 311.109375 C 101.554688 311.105469 102.675781 311.050781 103.792969 310.9375 C 104.914062 310.828125 106.023438 310.664062 107.125 310.441406 C 108.226562 310.222656 109.316406 309.949219 110.390625 309.621094 C 111.464844 309.292969 112.523438 308.914062 113.5625 308.484375 C 114.597656 308.054688 115.613281 307.574219 116.605469 307.042969 C 117.597656 306.511719 118.558594 305.9375 119.492188 305.3125 C 120.425781 304.6875 121.328125 304.015625 122.195312 303.304688 C 123.066406 302.589844 123.898438 301.835938 124.691406 301.042969 C 125.488281 300.246094 126.242188 299.414062 126.953125 298.546875 C 127.667969 297.679688 128.335938 296.777344 128.960938 295.84375 C 129.585938 294.910156 130.164062 293.945312 130.691406 292.953125 C 131.222656 291.964844 131.703125 290.949219 132.132812 289.910156 C 132.566406 288.871094 132.945312 287.816406 133.269531 286.742188 C 133.597656 285.664062 133.871094 284.578125 134.089844 283.476562 C 134.3125 282.371094 134.476562 281.261719 134.589844 280.144531 C 134.699219 279.027344 134.757812 277.902344 134.757812 276.78125 Z M 74.808594 276.78125 C 74.808594 275.941406 74.847656 275.105469 74.929688 274.269531 C 75.011719 273.433594 75.136719 272.605469 75.300781 271.78125 C 75.464844 270.957031 75.667969 270.144531 75.910156 269.34375 C 76.15625 268.539062 76.4375 267.75 76.757812 266.976562 C 77.078125 266.199219 77.4375 265.441406 77.832031 264.703125 C 78.230469 263.960938 78.660156 263.242188 79.125 262.546875 C 79.59375 261.847656 80.089844 261.175781 80.625 260.527344 C 81.15625 259.875 81.71875 259.253906 82.3125 258.664062 C 82.90625 258.070312 83.527344 257.507812 84.175781 256.972656 C 84.824219 256.441406 85.496094 255.941406 86.195312 255.476562 C 86.894531 255.007812 87.613281 254.578125 88.351562 254.183594 C 89.09375 253.789062 89.851562 253.429688 90.625 253.109375 C 91.402344 252.785156 92.191406 252.503906 92.992188 252.261719 C 93.796875 252.015625 94.609375 251.8125 95.433594 251.648438 C 96.253906 251.484375 97.082031 251.363281 97.917969 251.28125 C 98.753906 251.199219 99.589844 251.15625 100.429688 251.15625 C 101.269531 251.15625 102.105469 251.199219 102.941406 251.28125 C 103.777344 251.363281 104.605469 251.484375 105.429688 251.648438 C 106.253906 251.8125 107.066406 252.015625 107.867188 252.261719 C 108.671875 252.503906 109.460938 252.785156 110.234375 253.109375 C 111.011719 253.429688 111.769531 253.789062 112.507812 254.183594 C 113.25 254.578125 113.96875 255.007812 114.664062 255.476562 C 115.363281 255.941406 116.035156 256.441406 116.683594 256.972656 C 117.335938 257.507812 117.957031 258.070312 118.546875 258.664062 C 119.140625 259.253906 119.703125 259.875 120.238281 260.527344 C 120.769531 261.175781 121.269531 261.847656 121.734375 262.546875 C 122.203125 263.242188 122.632812 263.960938 123.027344 264.703125 C 123.421875 265.441406 123.78125 266.199219 124.101562 266.976562 C 124.425781 267.75 124.707031 268.539062 124.949219 269.34375 C 125.195312 270.144531 125.398438 270.957031 125.5625 271.78125 C 125.726562 272.605469 125.847656 273.433594 125.929688 274.269531 C 126.011719 275.105469 126.054688 275.941406 126.054688 276.78125 C 126.054688 277.621094 126.011719 278.457031 125.929688 279.292969 C 125.847656 280.128906 125.726562 280.957031 125.5625 281.777344 C 125.398438 282.601562 125.195312 283.414062 124.949219 284.21875 C 124.707031 285.019531 124.425781 285.808594 124.101562 286.585938 C 123.78125 287.359375 123.421875 288.117188 123.027344 288.859375 C 122.632812 289.597656 122.203125 290.316406 121.734375 291.015625 C 121.269531 291.714844 120.769531 292.386719 120.238281 293.035156 C 119.703125 293.683594 119.140625 294.304688 118.546875 294.898438 C 117.957031 295.492188 117.335938 296.054688 116.683594 296.585938 C 116.035156 297.121094 115.363281 297.617188 114.664062 298.085938 C 113.96875 298.550781 113.25 298.980469 112.507812 299.378906 C 111.769531 299.773438 111.011719 300.132812 110.234375 300.453125 C 109.460938 300.773438 108.671875 301.054688 107.867188 301.300781 C 107.066406 301.542969 106.253906 301.746094 105.429688 301.910156 C 104.605469 302.074219 103.777344 302.199219 102.941406 302.28125 C 102.105469 302.363281 101.269531 302.402344 100.429688 302.402344 C 99.589844 302.402344 98.753906 302.359375 97.917969 302.277344 C 97.085938 302.195312 96.257812 302.070312 95.433594 301.90625 C 94.609375 301.742188 93.796875 301.539062 92.996094 301.292969 C 92.191406 301.050781 91.402344 300.769531 90.628906 300.445312 C 89.851562 300.125 89.097656 299.765625 88.355469 299.371094 C 87.617188 298.976562 86.898438 298.542969 86.199219 298.078125 C 85.503906 297.609375 84.828125 297.113281 84.179688 296.578125 C 83.53125 296.046875 82.910156 295.484375 82.320312 294.890625 C 81.726562 294.296875 81.164062 293.675781 80.628906 293.027344 C 80.097656 292.378906 79.597656 291.707031 79.132812 291.011719 C 78.664062 290.3125 78.234375 289.59375 77.839844 288.855469 C 77.441406 288.113281 77.082031 287.355469 76.761719 286.582031 C 76.441406 285.808594 76.15625 285.019531 75.914062 284.214844 C 75.667969 283.414062 75.464844 282.601562 75.300781 281.777344 C 75.136719 280.953125 75.011719 280.125 74.929688 279.292969 C 74.847656 278.457031 74.804688 277.621094 74.804688 276.78125 Z M 74.808594 276.78125 " fill-opacity="1" fill-rule="nonzero"/><path fill="#4c5454" d="M 275.167969 241.902344 C 274.878906 241.902344 274.597656 241.929688 274.316406 241.984375 C 274.035156 242.039062 273.765625 242.125 273.5 242.234375 C 273.238281 242.34375 272.984375 242.476562 272.75 242.636719 C 272.511719 242.792969 272.289062 242.972656 272.089844 243.175781 C 271.886719 243.378906 271.707031 243.597656 271.546875 243.835938 C 271.390625 244.074219 271.253906 244.324219 271.144531 244.589844 C 271.035156 244.851562 270.953125 245.125 270.898438 245.40625 C 270.84375 245.683594 270.8125 245.96875 270.8125 246.253906 L 270.8125 299.574219 C 270.8125 299.859375 270.84375 300.144531 270.898438 300.425781 C 270.953125 300.703125 271.035156 300.976562 271.144531 301.242188 C 271.253906 301.503906 271.390625 301.753906 271.546875 301.992188 C 271.707031 302.230469 271.886719 302.449219 272.089844 302.652344 C 272.289062 302.855469 272.511719 303.035156 272.75 303.195312 C 272.984375 303.351562 273.238281 303.488281 273.5 303.597656 C 273.765625 303.707031 274.035156 303.789062 274.316406 303.84375 C 274.597656 303.898438 274.878906 303.925781 275.167969 303.925781 C 275.453125 303.925781 275.734375 303.898438 276.015625 303.84375 C 276.296875 303.789062 276.566406 303.707031 276.832031 303.597656 C 277.097656 303.488281 277.347656 303.351562 277.585938 303.195312 C 277.820312 303.035156 278.042969 302.855469 278.242188 302.652344 C 278.445312 302.449219 278.625 302.230469 278.785156 301.992188 C 278.945312 301.753906 279.078125 301.503906 279.1875 301.242188 C 279.296875 300.976562 279.378906 300.703125 279.433594 300.425781 C 279.492188 300.144531 279.519531 299.859375 279.519531 299.574219 L 279.519531 246.257812 C 279.519531 245.972656 279.492188 245.6875 279.4375 245.40625 C 279.378906 245.128906 279.296875 244.855469 279.1875 244.589844 C 279.078125 244.328125 278.945312 244.074219 278.785156 243.835938 C 278.628906 243.601562 278.449219 243.378906 278.246094 243.175781 C 278.042969 242.976562 277.824219 242.792969 277.585938 242.636719 C 277.347656 242.476562 277.097656 242.34375 276.832031 242.234375 C 276.570312 242.125 276.296875 242.039062 276.015625 241.984375 C 275.734375 241.929688 275.453125 241.902344 275.167969 241.902344 Z M 275.167969 241.902344 " fill-opacity="1" fill-rule="nonzero"/><path fill="#4c5454" d="M 222.695312 328.703125 C 223.050781 328.703125 223.40625 328.660156 223.753906 328.570312 C 224.101562 328.484375 224.429688 328.355469 224.746094 328.1875 C 225.0625 328.015625 225.355469 327.8125 225.621094 327.570312 C 225.882812 327.332031 226.117188 327.0625 226.316406 326.761719 C 226.515625 326.464844 226.671875 326.148438 226.792969 325.808594 C 226.914062 325.472656 226.992188 325.125 227.023438 324.769531 C 227.058594 324.410156 227.050781 324.054688 226.996094 323.703125 C 226.945312 323.347656 226.847656 323.003906 226.710938 322.675781 L 219.457031 305.28125 C 219.289062 304.882812 219.070312 304.519531 218.796875 304.1875 C 218.527344 303.855469 218.210938 303.570312 217.851562 303.332031 C 217.496094 303.09375 217.109375 302.914062 216.699219 302.789062 C 216.289062 302.664062 215.867188 302.601562 215.4375 302.601562 L 145.445312 302.601562 C 145.914062 301.785156 146.359375 300.953125 146.78125 300.109375 C 147.207031 299.265625 147.605469 298.414062 147.984375 297.546875 C 148.359375 296.683594 148.714844 295.808594 149.042969 294.925781 C 149.371094 294.042969 149.679688 293.148438 149.957031 292.25 C 150.238281 291.347656 150.496094 290.441406 150.726562 289.527344 C 150.957031 288.613281 151.164062 287.691406 151.347656 286.765625 C 151.527344 285.839844 151.683594 284.910156 151.8125 283.976562 C 151.945312 283.042969 152.046875 282.105469 152.128906 281.164062 C 152.207031 280.222656 152.261719 279.28125 152.289062 278.339844 C 152.316406 277.398438 152.320312 276.453125 152.296875 275.511719 C 152.273438 274.566406 152.222656 273.625 152.148438 272.6875 C 152.074219 271.746094 151.972656 270.808594 151.847656 269.875 C 151.722656 268.9375 151.570312 268.007812 151.394531 267.082031 C 151.21875 266.152344 151.015625 265.234375 150.789062 264.316406 C 150.5625 263.402344 150.308594 262.492188 150.035156 261.589844 C 149.757812 260.6875 149.457031 259.796875 149.132812 258.910156 C 148.804688 258.023438 148.457031 257.148438 148.085938 256.28125 C 147.710938 255.414062 147.316406 254.558594 146.894531 253.714844 C 146.476562 252.871094 146.035156 252.035156 145.570312 251.214844 C 145.105469 250.394531 144.617188 249.585938 144.109375 248.792969 C 143.597656 248 143.070312 247.21875 142.519531 246.453125 C 141.964844 245.6875 141.394531 244.9375 140.800781 244.203125 C 140.210938 243.472656 139.597656 242.753906 138.964844 242.050781 C 138.335938 241.351562 137.683594 240.667969 137.015625 240.003906 C 136.347656 239.339844 135.660156 238.691406 134.957031 238.0625 C 134.253906 237.4375 133.53125 236.828125 132.792969 236.238281 C 132.058594 235.648438 131.304688 235.082031 130.535156 234.535156 C 129.769531 233.988281 128.984375 233.460938 128.1875 232.957031 C 127.390625 232.449219 126.582031 231.96875 125.757812 231.507812 C 124.9375 231.046875 124.101562 230.609375 123.253906 230.191406 C 122.40625 229.777344 121.550781 229.386719 120.679688 229.019531 C 119.8125 228.648438 118.933594 228.304688 118.046875 227.984375 C 117.160156 227.664062 116.265625 227.367188 115.363281 227.097656 C 114.457031 226.824219 113.546875 226.578125 112.632812 226.355469 C 111.714844 226.132812 110.792969 225.9375 109.863281 225.765625 C 108.9375 225.59375 108.007812 225.445312 107.070312 225.324219 C 106.136719 225.203125 105.195312 225.109375 104.257812 225.039062 C 103.316406 224.96875 102.375 224.921875 101.429688 224.90625 C 100.488281 224.886719 99.542969 224.894531 98.601562 224.925781 C 97.660156 224.960938 96.71875 225.019531 95.777344 225.101562 C 94.839844 225.1875 93.902344 225.296875 92.96875 225.429688 C 92.035156 225.566406 91.105469 225.726562 90.179688 225.914062 C 89.253906 226.097656 88.335938 226.308594 87.421875 226.546875 C 86.507812 226.78125 85.605469 227.042969 84.703125 227.328125 C 83.804688 227.613281 82.914062 227.921875 82.03125 228.257812 C 81.148438 228.589844 80.277344 228.949219 79.414062 229.328125 C 78.550781 229.710938 77.699219 230.117188 76.859375 230.542969 C 76.019531 230.972656 75.191406 231.421875 74.375 231.894531 C 73.558594 232.371094 72.757812 232.863281 71.96875 233.382812 C 71.179688 233.898438 70.402344 234.4375 69.644531 234.996094 C 68.882812 235.554688 68.140625 236.132812 67.410156 236.734375 C 66.683594 237.332031 65.972656 237.953125 65.277344 238.589844 C 64.582031 239.230469 63.90625 239.886719 63.25 240.5625 C 62.589844 241.238281 61.949219 241.929688 61.328125 242.640625 C 60.707031 243.351562 60.105469 244.078125 59.527344 244.820312 C 58.945312 245.5625 58.382812 246.320312 57.84375 247.09375 C 57.304688 247.867188 56.785156 248.65625 56.289062 249.457031 C 55.792969 250.261719 55.316406 251.074219 54.867188 251.902344 C 54.414062 252.730469 53.984375 253.570312 53.578125 254.421875 C 53.167969 255.273438 52.785156 256.132812 52.425781 257.003906 C 52.066406 257.878906 51.730469 258.757812 51.417969 259.648438 C 51.109375 260.539062 50.820312 261.4375 50.558594 262.34375 C 50.296875 263.25 50.058594 264.164062 49.84375 265.082031 C 49.632812 266 49.445312 266.925781 49.28125 267.855469 C 49.117188 268.78125 48.980469 269.714844 48.871094 270.652344 C 48.757812 271.589844 48.671875 272.527344 48.613281 273.46875 C 48.550781 274.410156 48.515625 275.351562 48.507812 276.296875 C 48.5 277.238281 48.515625 278.183594 48.558594 279.125 C 48.597656 280.066406 48.667969 281.007812 48.761719 281.945312 C 48.855469 282.886719 48.972656 283.820312 49.117188 284.753906 C 49.261719 285.683594 49.433594 286.613281 49.628906 287.535156 C 49.824219 288.457031 50.042969 289.375 50.289062 290.285156 C 50.53125 291.199219 50.804688 292.101562 51.097656 292.996094 C 51.390625 293.894531 51.710938 294.78125 52.054688 295.660156 C 52.394531 296.539062 52.761719 297.40625 53.152344 298.265625 C 53.542969 299.125 53.957031 299.972656 54.390625 300.808594 C 54.828125 301.644531 55.289062 302.46875 55.769531 303.28125 C 56.25 304.09375 56.753906 304.890625 57.277344 305.671875 C 57.804688 306.457031 58.347656 307.226562 58.914062 307.980469 C 59.480469 308.734375 60.070312 309.472656 60.675781 310.195312 C 61.28125 310.917969 61.910156 311.621094 62.554688 312.308594 C 63.199219 312.996094 63.863281 313.667969 64.546875 314.320312 C 65.226562 314.972656 65.925781 315.605469 66.644531 316.21875 C 67.359375 316.832031 68.09375 317.425781 68.839844 318 C 69.589844 318.574219 70.351562 319.125 71.132812 319.65625 C 71.910156 320.191406 72.703125 320.699219 73.511719 321.1875 C 74.316406 321.679688 75.136719 322.144531 75.96875 322.589844 C 76.800781 323.03125 77.644531 323.453125 78.5 323.851562 C 79.355469 324.25 80.222656 324.625 81.097656 324.976562 C 81.972656 325.328125 82.855469 325.652344 83.75 325.957031 C 84.644531 326.257812 85.542969 326.539062 86.453125 326.789062 C 87.363281 327.042969 88.277344 327.273438 89.199219 327.476562 C 90.117188 327.679688 91.046875 327.859375 91.976562 328.011719 C 92.90625 328.164062 93.839844 328.292969 94.777344 328.394531 C 95.714844 328.5 96.65625 328.574219 97.597656 328.625 C 98.539062 328.675781 99.484375 328.703125 100.425781 328.703125 Z M 212.539062 311.308594 L 216.164062 319.996094 L 129.164062 319.996094 C 132.867188 317.527344 136.199219 314.628906 139.160156 311.308594 Z M 57.210938 276.78125 C 57.210938 275.363281 57.28125 273.953125 57.417969 272.542969 C 57.558594 271.136719 57.765625 269.738281 58.042969 268.347656 C 58.316406 266.960938 58.660156 265.589844 59.074219 264.234375 C 59.484375 262.878906 59.960938 261.550781 60.5 260.242188 C 61.042969 258.933594 61.648438 257.65625 62.316406 256.40625 C 62.980469 255.160156 63.707031 253.945312 64.496094 252.769531 C 65.28125 251.59375 66.125 250.457031 67.019531 249.363281 C 67.917969 248.269531 68.867188 247.222656 69.871094 246.222656 C 70.871094 245.21875 71.917969 244.269531 73.011719 243.375 C 74.105469 242.476562 75.242188 241.632812 76.417969 240.847656 C 77.59375 240.058594 78.808594 239.332031 80.054688 238.667969 C 81.304688 238 82.582031 237.394531 83.890625 236.851562 C 85.199219 236.3125 86.527344 235.835938 87.882812 235.425781 C 89.238281 235.011719 90.609375 234.671875 91.996094 234.394531 C 93.386719 234.117188 94.785156 233.910156 96.191406 233.773438 C 97.601562 233.632812 99.011719 233.5625 100.429688 233.5625 C 101.84375 233.5625 103.253906 233.632812 104.664062 233.773438 C 106.074219 233.910156 107.472656 234.117188 108.859375 234.394531 C 110.246094 234.671875 111.617188 235.011719 112.972656 235.425781 C 114.328125 235.835938 115.660156 236.3125 116.964844 236.851562 C 118.273438 237.394531 119.550781 238 120.800781 238.667969 C 122.050781 239.332031 123.261719 240.058594 124.4375 240.847656 C 125.613281 241.632812 126.75 242.476562 127.84375 243.375 C 128.9375 244.269531 129.988281 245.21875 130.988281 246.222656 C 131.988281 247.222656 132.9375 248.269531 133.835938 249.363281 C 134.734375 250.457031 135.574219 251.59375 136.363281 252.769531 C 137.148438 253.945312 137.875 255.160156 138.542969 256.40625 C 139.210938 257.65625 139.8125 258.933594 140.355469 260.242188 C 140.898438 261.550781 141.375 262.878906 141.785156 264.234375 C 142.195312 265.589844 142.539062 266.960938 142.816406 268.347656 C 143.089844 269.738281 143.296875 271.136719 143.4375 272.542969 C 143.574219 273.953125 143.644531 275.363281 143.644531 276.78125 C 143.644531 278.195312 143.574219 279.609375 143.4375 281.015625 C 143.296875 282.425781 143.089844 283.824219 142.816406 285.210938 C 142.539062 286.601562 142.195312 287.972656 141.785156 289.324219 C 141.375 290.679688 140.898438 292.011719 140.355469 293.320312 C 139.8125 294.625 139.210938 295.90625 138.542969 297.152344 C 137.875 298.402344 137.148438 299.613281 136.363281 300.789062 C 135.574219 301.96875 134.734375 303.101562 133.835938 304.195312 C 132.9375 305.292969 131.988281 306.339844 130.988281 307.339844 C 129.984375 308.339844 128.9375 309.289062 127.84375 310.1875 C 126.75 311.085938 125.613281 311.925781 124.4375 312.714844 C 123.261719 313.5 122.046875 314.226562 120.800781 314.894531 C 119.550781 315.5625 118.273438 316.167969 116.964844 316.707031 C 115.660156 317.25 114.328125 317.726562 112.972656 318.136719 C 111.617188 318.546875 110.246094 318.890625 108.859375 319.167969 C 107.46875 319.441406 106.070312 319.652344 104.664062 319.789062 C 103.253906 319.929688 101.84375 319.996094 100.425781 319.996094 C 99.011719 319.996094 97.601562 319.925781 96.191406 319.785156 C 94.785156 319.644531 93.386719 319.4375 92 319.160156 C 90.613281 318.882812 89.242188 318.535156 87.886719 318.125 C 86.535156 317.714844 85.203125 317.238281 83.898438 316.695312 C 82.589844 316.152344 81.3125 315.546875 80.066406 314.878906 C 78.816406 314.210938 77.605469 313.484375 76.429688 312.699219 C 75.253906 311.914062 74.117188 311.070312 73.023438 310.171875 C 71.929688 309.273438 70.882812 308.324219 69.882812 307.324219 C 68.882812 306.324219 67.933594 305.277344 67.035156 304.183594 C 66.136719 303.089844 65.296875 301.953125 64.507812 300.777344 C 63.722656 299.601562 62.996094 298.390625 62.328125 297.144531 C 61.660156 295.894531 61.054688 294.617188 60.515625 293.3125 C 59.972656 292.003906 59.496094 290.671875 59.082031 289.320312 C 58.671875 287.964844 58.328125 286.59375 58.050781 285.207031 C 57.773438 283.820312 57.5625 282.421875 57.425781 281.015625 C 57.285156 279.605469 57.214844 278.195312 57.210938 276.78125 Z M 57.210938 276.78125 " fill-opacity="1" fill-rule="nonzero"/><path fill="#4c5454" d="M 146.167969 198.910156 C 146.773438 198.910156 147.378906 198.878906 147.984375 198.820312 C 148.585938 198.761719 149.183594 198.671875 149.78125 198.554688 C 150.375 198.4375 150.960938 198.289062 151.542969 198.113281 C 152.121094 197.9375 152.691406 197.734375 153.25 197.5 C 153.8125 197.269531 154.359375 197.011719 154.894531 196.726562 C 155.425781 196.4375 155.945312 196.128906 156.449219 195.792969 C 156.953125 195.453125 157.441406 195.09375 157.910156 194.710938 C 158.378906 194.324219 158.828125 193.917969 159.253906 193.488281 C 159.683594 193.0625 160.089844 192.613281 160.476562 192.144531 C 160.859375 191.675781 161.21875 191.1875 161.558594 190.683594 C 161.894531 190.179688 162.203125 189.660156 162.492188 189.128906 C 162.777344 188.59375 163.035156 188.046875 163.265625 187.484375 C 163.5 186.925781 163.703125 186.355469 163.878906 185.773438 C 164.054688 185.195312 164.203125 184.609375 164.320312 184.011719 C 164.4375 183.417969 164.527344 182.820312 164.585938 182.21875 C 164.644531 181.613281 164.675781 181.007812 164.675781 180.402344 C 164.675781 179.796875 164.644531 179.191406 164.585938 178.589844 C 164.527344 177.984375 164.4375 177.386719 164.320312 176.792969 C 164.203125 176.199219 164.054688 175.609375 163.878906 175.03125 C 163.703125 174.449219 163.5 173.878906 163.265625 173.320312 C 163.035156 172.761719 162.777344 172.214844 162.488281 171.679688 C 162.203125 171.144531 161.894531 170.625 161.554688 170.121094 C 161.21875 169.617188 160.859375 169.132812 160.472656 168.664062 C 160.089844 168.195312 159.683594 167.746094 159.253906 167.316406 C 158.824219 166.886719 158.378906 166.480469 157.910156 166.097656 C 157.441406 165.710938 156.953125 165.351562 156.449219 165.015625 C 155.945312 164.679688 155.425781 164.367188 154.890625 164.082031 C 154.359375 163.796875 153.808594 163.539062 153.25 163.304688 C 152.691406 163.074219 152.121094 162.871094 151.539062 162.695312 C 150.960938 162.519531 150.371094 162.371094 149.777344 162.253906 C 149.183594 162.132812 148.585938 162.046875 147.980469 161.984375 C 147.378906 161.925781 146.773438 161.898438 146.167969 161.898438 C 145.5625 161.898438 144.957031 161.925781 144.355469 161.984375 C 143.75 162.046875 143.152344 162.132812 142.558594 162.253906 C 141.964844 162.371094 141.375 162.519531 140.796875 162.695312 C 140.214844 162.871094 139.644531 163.074219 139.085938 163.304688 C 138.527344 163.539062 137.976562 163.796875 137.445312 164.082031 C 136.910156 164.367188 136.390625 164.679688 135.886719 165.015625 C 135.382812 165.351562 134.894531 165.714844 134.425781 166.097656 C 133.960938 166.484375 133.511719 166.890625 133.082031 167.316406 C 132.652344 167.746094 132.246094 168.195312 131.863281 168.664062 C 131.476562 169.132812 131.117188 169.617188 130.78125 170.121094 C 130.445312 170.625 130.132812 171.144531 129.847656 171.679688 C 129.5625 172.214844 129.300781 172.761719 129.070312 173.324219 C 128.839844 173.882812 128.632812 174.453125 128.457031 175.03125 C 128.28125 175.613281 128.136719 176.199219 128.019531 176.792969 C 127.898438 177.390625 127.8125 177.988281 127.75 178.589844 C 127.691406 179.195312 127.664062 179.800781 127.664062 180.40625 C 127.664062 181.011719 127.695312 181.617188 127.753906 182.21875 C 127.8125 182.820312 127.902344 183.417969 128.023438 184.015625 C 128.140625 184.609375 128.289062 185.195312 128.464844 185.773438 C 128.640625 186.355469 128.84375 186.925781 129.078125 187.484375 C 129.308594 188.042969 129.566406 188.589844 129.855469 189.125 C 130.140625 189.660156 130.453125 190.175781 130.789062 190.679688 C 131.125 191.183594 131.484375 191.671875 131.871094 192.140625 C 132.253906 192.605469 132.660156 193.054688 133.089844 193.484375 C 133.519531 193.914062 133.964844 194.320312 134.433594 194.703125 C 134.902344 195.085938 135.390625 195.449219 135.890625 195.785156 C 136.394531 196.121094 136.914062 196.433594 137.449219 196.71875 C 137.984375 197.003906 138.53125 197.265625 139.089844 197.496094 C 139.648438 197.726562 140.21875 197.933594 140.800781 198.109375 C 141.378906 198.285156 141.964844 198.433594 142.558594 198.550781 C 143.152344 198.667969 143.753906 198.757812 144.355469 198.820312 C 144.957031 198.878906 145.5625 198.910156 146.167969 198.910156 Z M 146.167969 170.601562 C 146.8125 170.601562 147.449219 170.664062 148.082031 170.789062 C 148.710938 170.914062 149.324219 171.101562 149.917969 171.347656 C 150.515625 171.59375 151.078125 171.894531 151.613281 172.253906 C 152.148438 172.609375 152.644531 173.015625 153.097656 173.472656 C 153.554688 173.925781 153.960938 174.421875 154.320312 174.957031 C 154.675781 175.492188 154.976562 176.058594 155.222656 176.652344 C 155.46875 177.246094 155.65625 177.859375 155.78125 178.492188 C 155.90625 179.121094 155.96875 179.757812 155.96875 180.402344 C 155.96875 181.046875 155.90625 181.683594 155.78125 182.316406 C 155.65625 182.945312 155.472656 183.558594 155.226562 184.152344 C 154.976562 184.75 154.675781 185.3125 154.320312 185.847656 C 153.960938 186.382812 153.554688 186.878906 153.101562 187.332031 C 152.644531 187.789062 152.148438 188.195312 151.613281 188.554688 C 151.078125 188.910156 150.515625 189.210938 149.921875 189.457031 C 149.324219 189.707031 148.714844 189.890625 148.082031 190.015625 C 147.449219 190.140625 146.8125 190.207031 146.167969 190.207031 C 145.527344 190.207031 144.890625 190.144531 144.257812 190.015625 C 143.625 189.890625 143.011719 189.707031 142.417969 189.460938 C 141.824219 189.214844 141.257812 188.910156 140.722656 188.554688 C 140.1875 188.195312 139.695312 187.789062 139.238281 187.335938 C 138.785156 186.878906 138.378906 186.386719 138.019531 185.851562 C 137.664062 185.316406 137.359375 184.75 137.113281 184.15625 C 136.867188 183.5625 136.679688 182.949219 136.554688 182.316406 C 136.429688 181.6875 136.367188 181.046875 136.367188 180.40625 C 136.367188 179.761719 136.429688 179.125 136.558594 178.492188 C 136.683594 177.863281 136.871094 177.25 137.117188 176.65625 C 137.363281 176.0625 137.664062 175.496094 138.023438 174.960938 C 138.378906 174.425781 138.785156 173.929688 139.242188 173.476562 C 139.695312 173.019531 140.191406 172.613281 140.726562 172.257812 C 141.261719 171.898438 141.824219 171.597656 142.417969 171.351562 C 143.011719 171.105469 143.625 170.917969 144.257812 170.792969 C 144.886719 170.664062 145.527344 170.601562 146.167969 170.601562 Z M 146.167969 170.601562 " fill-opacity="1" fill-rule="nonzero"/><path fill="#4c5454" d="M 122.816406 276.78125 C 122.816406 276.046875 122.78125 275.316406 122.710938 274.585938 C 122.636719 273.855469 122.53125 273.132812 122.386719 272.410156 C 122.242188 271.691406 122.066406 270.980469 121.851562 270.28125 C 121.640625 269.578125 121.394531 268.890625 121.113281 268.210938 C 120.832031 267.535156 120.519531 266.871094 120.171875 266.226562 C 119.828125 265.578125 119.453125 264.949219 119.042969 264.339844 C 118.636719 263.730469 118.199219 263.140625 117.734375 262.574219 C 117.269531 262.007812 116.777344 261.464844 116.257812 260.949219 C 115.742188 260.429688 115.199219 259.9375 114.632812 259.472656 C 114.0625 259.007812 113.476562 258.570312 112.867188 258.164062 C 112.257812 257.753906 111.628906 257.378906 110.980469 257.03125 C 110.335938 256.6875 109.671875 256.375 108.996094 256.09375 C 108.316406 255.8125 107.628906 255.566406 106.925781 255.351562 C 106.222656 255.140625 105.515625 254.960938 104.792969 254.820312 C 104.074219 254.675781 103.351562 254.570312 102.621094 254.496094 C 101.890625 254.425781 101.160156 254.390625 100.425781 254.390625 C 99.691406 254.390625 98.960938 254.425781 98.230469 254.496094 C 97.5 254.570312 96.777344 254.675781 96.058594 254.820312 C 95.339844 254.960938 94.628906 255.140625 93.925781 255.351562 C 93.222656 255.566406 92.535156 255.8125 91.855469 256.09375 C 91.179688 256.375 90.519531 256.6875 89.871094 257.035156 C 89.222656 257.378906 88.597656 257.753906 87.984375 258.164062 C 87.375 258.570312 86.789062 259.007812 86.222656 259.472656 C 85.65625 259.9375 85.113281 260.429688 84.59375 260.949219 C 84.074219 261.464844 83.582031 262.007812 83.117188 262.574219 C 82.652344 263.144531 82.214844 263.730469 81.808594 264.339844 C 81.402344 264.949219 81.023438 265.578125 80.679688 266.226562 C 80.332031 266.871094 80.019531 267.535156 79.738281 268.210938 C 79.457031 268.890625 79.210938 269.578125 79 270.28125 C 78.785156 270.984375 78.609375 271.691406 78.464844 272.414062 C 78.320312 273.132812 78.214844 273.855469 78.144531 274.585938 C 78.070312 275.316406 78.035156 276.046875 78.035156 276.78125 C 78.035156 277.515625 78.070312 278.246094 78.144531 278.976562 C 78.214844 279.707031 78.324219 280.429688 78.464844 281.148438 C 78.609375 281.867188 78.785156 282.578125 79 283.28125 C 79.210938 283.984375 79.460938 284.671875 79.738281 285.347656 C 80.019531 286.027344 80.332031 286.6875 80.679688 287.335938 C 81.023438 287.984375 81.402344 288.609375 81.808594 289.21875 C 82.214844 289.832031 82.652344 290.417969 83.117188 290.984375 C 83.582031 291.550781 84.074219 292.09375 84.59375 292.613281 C 85.113281 293.132812 85.65625 293.625 86.222656 294.089844 C 86.789062 294.554688 87.378906 294.992188 87.988281 295.398438 C 88.597656 295.804688 89.226562 296.183594 89.871094 296.527344 C 90.519531 296.875 91.179688 297.1875 91.859375 297.46875 C 92.535156 297.746094 93.226562 297.996094 93.925781 298.207031 C 94.628906 298.421875 95.339844 298.597656 96.058594 298.742188 C 96.777344 298.882812 97.503906 298.992188 98.230469 299.0625 C 98.960938 299.136719 99.695312 299.171875 100.425781 299.171875 C 101.160156 299.171875 101.890625 299.132812 102.621094 299.0625 C 103.351562 298.988281 104.074219 298.878906 104.792969 298.738281 C 105.511719 298.59375 106.222656 298.414062 106.925781 298.203125 C 107.625 297.988281 108.316406 297.742188 108.992188 297.460938 C 109.667969 297.179688 110.332031 296.867188 110.976562 296.519531 C 111.625 296.175781 112.25 295.796875 112.859375 295.390625 C 113.46875 294.984375 114.058594 294.546875 114.625 294.082031 C 115.191406 293.617188 115.734375 293.125 116.253906 292.605469 C 116.769531 292.085938 117.261719 291.546875 117.726562 290.976562 C 118.191406 290.410156 118.628906 289.824219 119.035156 289.214844 C 119.445312 288.605469 119.820312 287.976562 120.167969 287.332031 C 120.511719 286.683594 120.824219 286.023438 121.105469 285.34375 C 121.386719 284.667969 121.632812 283.980469 121.847656 283.277344 C 122.0625 282.574219 122.238281 281.867188 122.382812 281.148438 C 122.527344 280.429688 122.636719 279.703125 122.707031 278.972656 C 122.78125 278.246094 122.816406 277.511719 122.816406 276.78125 Z M 86.742188 276.78125 C 86.742188 275.882812 86.828125 274.992188 87.003906 274.109375 C 87.179688 273.230469 87.4375 272.375 87.78125 271.542969 C 88.125 270.710938 88.546875 269.925781 89.046875 269.175781 C 89.546875 268.429688 90.113281 267.738281 90.75 267.101562 C 91.382812 266.46875 92.074219 265.898438 92.824219 265.402344 C 93.570312 264.902344 94.359375 264.480469 95.1875 264.136719 C 96.019531 263.792969 96.875 263.53125 97.757812 263.355469 C 98.636719 263.183594 99.527344 263.09375 100.425781 263.09375 C 101.324219 263.09375 102.214844 263.183594 103.097656 263.355469 C 103.976562 263.53125 104.835938 263.792969 105.664062 264.136719 C 106.496094 264.480469 107.285156 264.902344 108.03125 265.402344 C 108.777344 265.898438 109.46875 266.46875 110.105469 267.101562 C 110.738281 267.738281 111.308594 268.429688 111.804688 269.175781 C 112.304688 269.925781 112.726562 270.710938 113.070312 271.542969 C 113.414062 272.375 113.675781 273.230469 113.851562 274.109375 C 114.027344 274.992188 114.113281 275.882812 114.113281 276.78125 C 114.113281 277.679688 114.027344 278.570312 113.851562 279.449219 C 113.675781 280.332031 113.414062 281.1875 113.070312 282.019531 C 112.726562 282.847656 112.304688 283.636719 111.804688 284.382812 C 111.308594 285.132812 110.738281 285.824219 110.105469 286.457031 C 109.46875 287.09375 108.777344 287.660156 108.03125 288.160156 C 107.285156 288.660156 106.496094 289.082031 105.664062 289.425781 C 104.835938 289.769531 103.976562 290.027344 103.097656 290.203125 C 102.214844 290.378906 101.324219 290.464844 100.425781 290.464844 C 99.527344 290.464844 98.640625 290.378906 97.757812 290.199219 C 96.875 290.023438 96.023438 289.765625 95.191406 289.421875 C 94.363281 289.078125 93.574219 288.65625 92.828125 288.15625 C 92.078125 287.65625 91.390625 287.089844 90.753906 286.453125 C 90.117188 285.816406 89.550781 285.128906 89.050781 284.378906 C 88.550781 283.632812 88.128906 282.84375 87.785156 282.015625 C 87.441406 281.1875 87.183594 280.332031 87.007812 279.449219 C 86.832031 278.566406 86.742188 277.679688 86.742188 276.78125 Z M 86.742188 276.78125 " fill-opacity="1" fill-rule="nonzero"/><g clip-path="url(#856fc301b0)"><path fill="#4c5454" d="M 342.449219 42.542969 C 341.613281 41.765625 340.628906 41.378906 339.488281 41.382812 L 212.507812 41.382812 C 212.222656 41.382812 211.941406 41.410156 211.660156 41.464844 C 211.378906 41.519531 211.109375 41.605469 210.84375 41.714844 C 210.578125 41.824219 210.328125 41.957031 210.089844 42.113281 C 209.855469 42.273438 209.632812 42.453125 209.433594 42.65625 C 209.230469 42.859375 209.050781 43.078125 208.890625 43.316406 C 208.730469 43.554688 208.597656 43.804688 208.488281 44.070312 C 208.378906 44.332031 208.296875 44.605469 208.242188 44.886719 C 208.183594 45.164062 208.15625 45.449219 208.15625 45.734375 L 208.15625 64.964844 L 188.21875 64.964844 C 187.933594 64.964844 187.652344 64.996094 187.371094 65.050781 C 187.089844 65.105469 186.816406 65.1875 186.554688 65.296875 C 186.289062 65.40625 186.039062 65.542969 185.800781 65.699219 C 185.5625 65.859375 185.34375 66.039062 185.140625 66.242188 C 184.941406 66.445312 184.761719 66.664062 184.601562 66.902344 C 184.441406 67.140625 184.308594 67.390625 184.199219 67.652344 C 184.089844 67.917969 184.007812 68.191406 183.949219 68.46875 C 183.894531 68.75 183.867188 69.035156 183.867188 69.320312 L 183.867188 207.507812 C 183.867188 207.792969 183.894531 208.078125 183.949219 208.359375 C 184.007812 208.636719 184.089844 208.910156 184.199219 209.175781 C 184.308594 209.4375 184.441406 209.691406 184.601562 209.925781 C 184.757812 210.164062 184.941406 210.382812 185.140625 210.585938 C 185.34375 210.789062 185.5625 210.96875 185.800781 211.128906 C 186.039062 211.285156 186.289062 211.421875 186.554688 211.53125 C 186.816406 211.640625 187.089844 211.722656 187.371094 211.777344 C 187.652344 211.832031 187.933594 211.863281 188.21875 211.863281 L 265.746094 211.863281 L 265.746094 214.1875 C 265.75 215.695312 266.007812 217.160156 266.523438 218.578125 C 265.699219 218.625 264.886719 218.75 264.085938 218.949219 C 263.285156 219.152344 262.511719 219.425781 261.765625 219.773438 C 261.015625 220.121094 260.308594 220.539062 259.636719 221.019531 C 258.96875 221.503906 258.347656 222.042969 257.78125 222.644531 C 257.214844 223.242188 256.710938 223.890625 256.265625 224.585938 C 255.820312 225.28125 255.445312 226.011719 255.140625 226.777344 C 254.835938 227.546875 254.601562 228.335938 254.445312 229.144531 C 254.289062 229.953125 254.210938 230.773438 254.210938 231.597656 L 254.210938 317.109375 C 254.210938 317.964844 254.296875 318.8125 254.464844 319.652344 C 254.632812 320.496094 254.878906 321.3125 255.207031 322.101562 C 255.535156 322.894531 255.9375 323.644531 256.414062 324.359375 C 256.890625 325.070312 257.433594 325.730469 258.039062 326.335938 C 258.644531 326.941406 259.304688 327.484375 260.015625 327.960938 C 260.730469 328.4375 261.480469 328.839844 262.273438 329.167969 C 263.066406 329.496094 263.878906 329.742188 264.722656 329.910156 C 265.5625 330.078125 266.410156 330.164062 267.265625 330.164062 L 308.066406 330.164062 C 308.925781 330.164062 309.773438 330.078125 310.613281 329.910156 C 311.453125 329.742188 312.269531 329.496094 313.0625 329.167969 C 313.851562 328.839844 314.605469 328.4375 315.316406 327.960938 C 316.03125 327.484375 316.691406 326.941406 317.296875 326.335938 C 317.902344 325.730469 318.441406 325.070312 318.917969 324.359375 C 319.394531 323.644531 319.796875 322.894531 320.125 322.101562 C 320.453125 321.3125 320.703125 320.496094 320.871094 319.652344 C 321.039062 318.8125 321.125 317.964844 321.125 317.109375 L 321.125 231.597656 C 321.125 230.773438 321.042969 229.957031 320.886719 229.144531 C 320.730469 228.335938 320.5 227.546875 320.195312 226.78125 C 319.890625 226.015625 319.515625 225.28125 319.070312 224.585938 C 318.625 223.890625 318.121094 223.246094 317.550781 222.644531 C 316.984375 222.046875 316.367188 221.503906 315.699219 221.023438 C 315.027344 220.539062 314.320312 220.125 313.570312 219.777344 C 312.824219 219.429688 312.046875 219.152344 311.246094 218.953125 C 310.449219 218.75 309.636719 218.625 308.8125 218.578125 C 309.324219 217.160156 309.582031 215.699219 309.585938 214.1875 L 309.585938 211.863281 L 338.539062 211.863281 C 338.824219 211.863281 339.109375 211.835938 339.386719 211.78125 C 339.667969 211.722656 339.941406 211.640625 340.203125 211.53125 C 340.46875 211.421875 340.71875 211.289062 340.957031 211.128906 C 341.195312 210.96875 341.414062 210.789062 341.617188 210.589844 C 341.816406 210.386719 342 210.167969 342.15625 209.929688 C 342.316406 209.691406 342.449219 209.441406 342.558594 209.175781 C 342.667969 208.914062 342.75 208.640625 342.808594 208.359375 C 342.863281 208.078125 342.890625 207.796875 342.890625 207.511719 L 342.890625 188.273438 L 362.824219 188.273438 C 363.109375 188.273438 363.394531 188.246094 363.675781 188.191406 C 363.953125 188.136719 364.226562 188.050781 364.492188 187.941406 C 364.753906 187.832031 365.003906 187.699219 365.242188 187.539062 C 365.480469 187.382812 365.699219 187.203125 365.902344 187 C 366.105469 186.796875 366.285156 186.578125 366.445312 186.339844 C 366.601562 186.101562 366.738281 185.851562 366.847656 185.585938 C 366.957031 185.324219 367.039062 185.050781 367.09375 184.769531 C 367.148438 184.492188 367.175781 184.207031 367.175781 183.921875 L 367.175781 67.421875 C 367.179688 66.816406 367.058594 66.234375 366.816406 65.679688 C 366.574219 65.125 366.230469 64.640625 365.789062 64.230469 Z M 312.417969 231.597656 L 312.417969 317.109375 C 312.417969 317.394531 312.390625 317.675781 312.335938 317.957031 C 312.277344 318.238281 312.195312 318.507812 312.085938 318.773438 C 311.976562 319.035156 311.84375 319.289062 311.683594 319.523438 C 311.523438 319.761719 311.34375 319.980469 311.144531 320.183594 C 310.941406 320.386719 310.722656 320.566406 310.484375 320.726562 C 310.246094 320.882812 309.996094 321.019531 309.730469 321.128906 C 309.46875 321.238281 309.195312 321.320312 308.914062 321.375 C 308.636719 321.433594 308.351562 321.460938 308.066406 321.460938 L 267.265625 321.460938 C 266.980469 321.460938 266.699219 321.433594 266.417969 321.375 C 266.136719 321.320312 265.867188 321.238281 265.601562 321.128906 C 265.339844 321.019531 265.089844 320.882812 264.851562 320.726562 C 264.613281 320.566406 264.394531 320.386719 264.191406 320.183594 C 263.988281 319.980469 263.808594 319.761719 263.648438 319.523438 C 263.492188 319.289062 263.355469 319.035156 263.246094 318.773438 C 263.136719 318.507812 263.054688 318.238281 263 317.957031 C 262.945312 317.675781 262.914062 317.394531 262.914062 317.109375 L 262.914062 231.597656 C 262.914062 231.3125 262.945312 231.03125 263 230.75 C 263.054688 230.46875 263.136719 230.199219 263.246094 229.933594 C 263.355469 229.671875 263.492188 229.417969 263.648438 229.183594 C 263.808594 228.945312 263.988281 228.726562 264.191406 228.523438 C 264.394531 228.320312 264.613281 228.140625 264.851562 227.980469 C 265.089844 227.824219 265.339844 227.6875 265.601562 227.578125 C 265.867188 227.46875 266.136719 227.386719 266.417969 227.332031 C 266.699219 227.273438 266.980469 227.246094 267.265625 227.246094 L 308.066406 227.246094 C 308.351562 227.246094 308.636719 227.273438 308.914062 227.332031 C 309.195312 227.386719 309.46875 227.46875 309.730469 227.578125 C 309.996094 227.6875 310.246094 227.824219 310.484375 227.980469 C 310.722656 228.140625 310.941406 228.320312 311.144531 228.523438 C 311.34375 228.726562 311.527344 228.945312 311.683594 229.183594 C 311.84375 229.417969 311.976562 229.671875 312.085938 229.933594 C 312.195312 230.199219 312.277344 230.46875 312.335938 230.75 C 312.390625 231.03125 312.417969 231.3125 312.417969 231.597656 Z M 296.527344 198.476562 C 296.816406 198.476562 297.097656 198.503906 297.378906 198.5625 C 297.65625 198.617188 297.929688 198.699219 298.195312 198.808594 C 298.457031 198.917969 298.707031 199.054688 298.945312 199.210938 C 299.183594 199.371094 299.402344 199.550781 299.605469 199.753906 C 299.808594 199.957031 299.988281 200.175781 300.144531 200.414062 C 300.304688 200.648438 300.4375 200.902344 300.546875 201.164062 C 300.65625 201.429688 300.742188 201.699219 300.796875 201.980469 C 300.851562 202.261719 300.882812 202.542969 300.882812 202.828125 L 300.882812 214.1875 C 300.882812 214.476562 300.851562 214.757812 300.796875 215.039062 C 300.742188 215.316406 300.65625 215.589844 300.546875 215.855469 C 300.4375 216.117188 300.304688 216.367188 300.144531 216.605469 C 299.988281 216.84375 299.808594 217.0625 299.605469 217.265625 C 299.402344 217.46875 299.183594 217.648438 298.945312 217.808594 C 298.707031 217.964844 298.457031 218.101562 298.195312 218.210938 C 297.929688 218.320312 297.65625 218.402344 297.378906 218.457031 C 297.097656 218.511719 296.816406 218.542969 296.527344 218.542969 L 278.804688 218.542969 C 278.519531 218.542969 278.238281 218.511719 277.957031 218.457031 C 277.675781 218.402344 277.402344 218.320312 277.140625 218.210938 C 276.875 218.101562 276.625 217.964844 276.386719 217.808594 C 276.152344 217.648438 275.929688 217.46875 275.730469 217.265625 C 275.527344 217.0625 275.347656 216.84375 275.1875 216.605469 C 275.027344 216.367188 274.894531 216.117188 274.785156 215.855469 C 274.675781 215.589844 274.59375 215.320312 274.535156 215.039062 C 274.480469 214.757812 274.453125 214.476562 274.453125 214.1875 L 274.453125 202.828125 C 274.453125 202.542969 274.480469 202.261719 274.535156 201.980469 C 274.59375 201.699219 274.675781 201.429688 274.785156 201.164062 C 274.894531 200.902344 275.027344 200.648438 275.1875 200.414062 C 275.347656 200.175781 275.527344 199.957031 275.730469 199.753906 C 275.929688 199.550781 276.152344 199.371094 276.386719 199.210938 C 276.625 199.054688 276.875 198.917969 277.140625 198.808594 C 277.402344 198.699219 277.675781 198.617188 277.957031 198.5625 C 278.238281 198.503906 278.519531 198.476562 278.804688 198.476562 Z M 284.945312 189.773438 L 287.667969 176.570312 L 290.386719 189.773438 Z M 334.183594 203.15625 L 309.585938 203.15625 L 309.585938 202.828125 C 309.585938 202.089844 309.523438 201.359375 309.398438 200.632812 C 309.273438 199.90625 309.085938 199.191406 308.839844 198.496094 C 308.59375 197.800781 308.292969 197.132812 307.933594 196.488281 C 307.574219 195.839844 307.164062 195.230469 306.703125 194.65625 C 306.238281 194.082031 305.730469 193.550781 305.179688 193.058594 C 304.625 192.570312 304.035156 192.132812 303.410156 191.742188 C 302.78125 191.355469 302.128906 191.019531 301.445312 190.742188 C 300.761719 190.464844 300.058594 190.246094 299.339844 190.085938 L 291.929688 154.125 C 291.828125 153.632812 291.648438 153.175781 291.386719 152.746094 C 291.128906 152.316406 290.804688 151.945312 290.417969 151.628906 C 290.027344 151.3125 289.597656 151.070312 289.125 150.902344 C 288.652344 150.734375 288.167969 150.652344 287.667969 150.652344 C 287.167969 150.652344 286.679688 150.734375 286.207031 150.902344 C 285.734375 151.070312 285.304688 151.3125 284.917969 151.628906 C 284.527344 151.945312 284.207031 152.316406 283.945312 152.746094 C 283.6875 153.175781 283.503906 153.632812 283.402344 154.125 L 275.992188 190.085938 C 275.273438 190.246094 274.570312 190.464844 273.886719 190.742188 C 273.203125 191.019531 272.550781 191.355469 271.921875 191.742188 C 271.296875 192.132812 270.707031 192.570312 270.152344 193.0625 C 269.601562 193.550781 269.09375 194.082031 268.632812 194.65625 C 268.167969 195.230469 267.757812 195.84375 267.398438 196.488281 C 267.039062 197.132812 266.738281 197.800781 266.492188 198.496094 C 266.246094 199.191406 266.0625 199.90625 265.9375 200.632812 C 265.808594 201.359375 265.746094 202.089844 265.746094 202.828125 L 265.746094 203.15625 L 192.574219 203.15625 L 192.574219 73.671875 L 334.1875 73.671875 Z M 358.472656 179.570312 L 342.890625 179.570312 L 342.890625 69.320312 C 342.890625 69.035156 342.863281 68.75 342.808594 68.46875 C 342.75 68.191406 342.667969 67.917969 342.558594 67.652344 C 342.449219 67.390625 342.316406 67.140625 342.15625 66.902344 C 342 66.664062 341.816406 66.445312 341.617188 66.242188 C 341.414062 66.039062 341.195312 65.859375 340.957031 65.699219 C 340.71875 65.542969 340.46875 65.40625 340.203125 65.296875 C 339.941406 65.1875 339.667969 65.105469 339.386719 65.050781 C 339.109375 64.996094 338.824219 64.964844 338.539062 64.964844 L 216.863281 64.964844 L 216.863281 50.082031 L 337.777344 50.082031 L 358.472656 69.316406 Z M 358.472656 179.570312 " fill-opacity="1" fill-rule="nonzero"/></g></svg>