<svg xmlns="http://www.w3.org/2000/svg" xmlns:xlink="http://www.w3.org/1999/xlink" width="500" zoomAndPan="magnify" viewBox="0 0 375 374.999991" height="500" preserveAspectRatio="xMidYMid meet" version="1.0"><defs><clipPath id="3c5fddbf5c"><path d="M 8 12 L 366 12 L 366 364.089844 L 8 364.089844 Z M 8 12 " clip-rule="nonzero"/></clipPath><clipPath id="65df0f32c2"><path d="M 40 10.839844 L 88 10.839844 L 88 52 L 40 52 Z M 40 10.839844 " clip-rule="nonzero"/></clipPath></defs><g clip-path="url(#3c5fddbf5c)"><path fill="#4c5454" d="M 325.429688 216.867188 C 324.300781 217.4375 323.371094 218.359375 322.808594 219.492188 L 291.539062 282.023438 C 290.585938 283.925781 288.351562 284.859375 286.328125 284.179688 C 284.136719 283.453125 282.917969 281.140625 283.550781 278.921875 L 292.613281 247.203125 C 293.28125 244.863281 292.4375 242.351562 290.480469 240.890625 C 288.527344 239.433594 285.875 239.328125 283.820312 240.644531 L 231.898438 273.683594 C 230.042969 274.863281 227.859375 275.1875 225.753906 274.601562 C 223.648438 274.015625 221.945312 272.617188 220.964844 270.65625 C 219.308594 267.351562 220.253906 263.351562 223.210938 261.132812 L 261.148438 232.683594 C 263.367188 231.023438 264.117188 228.03125 262.949219 225.511719 C 261.78125 222.996094 259.007812 221.644531 256.3125 222.269531 L 194.90625 236.433594 C 192.53125 236.992188 190.078125 236.558594 188.027344 235.238281 C 185.96875 233.90625 184.578125 231.859375 184.097656 229.457031 C 183.140625 224.675781 186.246094 219.949219 191.015625 218.921875 L 258.867188 204.378906 C 261.605469 203.792969 263.550781 201.351562 263.507812 198.550781 C 263.460938 195.746094 261.441406 193.371094 258.691406 192.871094 L 209.824219 183.984375 C 207.214844 183.507812 204.960938 182.035156 203.46875 179.839844 C 201.980469 177.652344 201.445312 175.011719 201.96875 172.410156 C 202.949219 167.523438 207.417969 164.117188 212.390625 164.566406 L 268.890625 169.273438 C 271.125 169.519531 273.351562 168.316406 274.484375 166.324219 C 275.609375 164.335938 275.480469 161.871094 274.15625 160.015625 L 251.683594 128.566406 C 249.371094 125.332031 249.734375 120.941406 252.546875 118.128906 C 255.542969 115.132812 260.402344 114.960938 263.601562 117.761719 L 300.71875 150.238281 C 302.378906 151.683594 304.703125 152.082031 306.761719 151.273438 L 365.453125 127.796875 L 361.089844 116.898438 L 305.742188 139.035156 L 297.308594 131.65625 L 276.160156 17.464844 L 276.109375 17.476562 C 275.972656 16.734375 275.746094 16 275.316406 15.335938 C 274.027344 13.347656 271.679688 12.335938 269.324219 12.765625 L 73.117188 49.089844 C 71.582031 49.375 70.226562 50.25 69.347656 51.535156 L 31.726562 106.246094 C 30.847656 107.53125 30.507812 109.105469 30.792969 110.636719 L 47.519531 201.011719 L 13.3125 187.332031 L 8.949219 198.230469 L 67.640625 221.703125 C 69.707031 222.527344 72.03125 222.121094 73.683594 220.671875 L 110.800781 188.191406 C 113.992188 185.394531 118.859375 185.558594 121.855469 188.5625 C 124.667969 191.375 125.039062 195.769531 122.71875 198.996094 L 100.253906 230.449219 C 98.925781 232.304688 98.796875 234.769531 99.925781 236.757812 C 101.050781 238.746094 103.246094 239.9375 105.515625 239.703125 L 162.015625 234.996094 C 167.011719 234.605469 171.464844 237.960938 172.441406 242.84375 C 172.957031 245.4375 172.429688 248.085938 170.9375 250.273438 C 169.449219 252.46875 167.195312 253.941406 164.582031 254.417969 L 115.71875 263.304688 C 112.960938 263.800781 110.945312 266.179688 110.898438 268.984375 C 110.859375 271.789062 112.800781 274.230469 115.542969 274.8125 L 183.390625 289.355469 C 188.164062 290.382812 191.269531 295.101562 190.3125 299.890625 C 189.832031 302.289062 188.433594 304.34375 186.378906 305.671875 C 184.324219 306.992188 181.882812 307.425781 179.496094 306.867188 L 118.09375 292.699219 C 115.40625 292.085938 112.625 293.429688 111.457031 295.945312 C 110.289062 298.464844 111.035156 301.453125 113.253906 303.113281 L 151.1875 331.566406 C 154.140625 333.78125 155.09375 337.792969 153.4375 341.089844 C 152.457031 343.050781 150.753906 344.445312 148.648438 345.035156 C 146.53125 345.613281 144.351562 345.296875 142.507812 344.117188 L 90.582031 311.078125 C 88.367188 309.671875 85.464844 309.902344 83.496094 311.675781 C 81.542969 313.441406 81.003906 316.292969 82.175781 318.652344 L 93.914062 342.128906 C 95.703125 345.703125 94.25 350.074219 90.667969 351.859375 C 88.945312 352.722656 86.976562 352.863281 85.136719 352.253906 C 83.296875 351.640625 81.808594 350.351562 80.9375 348.613281 L 51.59375 289.925781 C 51.023438 288.792969 50.101562 287.863281 48.96875 287.300781 L 13.757812 269.695312 L 8.503906 280.195312 L 41.96875 296.925781 L 70.4375 353.867188 C 72.710938 358.402344 76.605469 361.789062 81.417969 363.390625 C 83.390625 364.050781 85.421875 364.378906 87.441406 364.378906 C 90.351562 364.378906 93.238281 363.695312 95.921875 362.359375 C 105.28125 357.667969 109.097656 346.242188 104.414062 336.875 L 102.148438 332.351562 L 136.199219 354.011719 C 140.824219 356.953125 146.5 357.804688 151.777344 356.335938 C 157.050781 354.875 161.484375 351.226562 163.929688 346.332031 C 168.121094 337.945312 165.722656 327.785156 158.226562 322.167969 L 142.496094 310.371094 L 176.855469 318.300781 C 182.347656 319.570312 187.992188 318.582031 192.742188 315.523438 C 197.488281 312.460938 200.710938 307.726562 201.820312 302.183594 C 203.886719 291.84375 197.695312 281.71875 187.863281 278.523438 L 209.890625 274.441406 C 210.082031 274.929688 210.230469 275.429688 210.464844 275.910156 C 212.914062 280.804688 217.34375 284.453125 222.621094 285.917969 C 227.890625 287.371094 233.570312 286.527344 238.195312 283.59375 L 277.078125 258.847656 L 272.265625 275.703125 C 269.898438 283.984375 274.449219 292.605469 282.613281 295.324219 C 284.265625 295.882812 285.964844 296.144531 287.636719 296.144531 C 293.574219 296.144531 299.269531 292.824219 302.039062 287.285156 L 332.425781 226.5 L 365.890625 209.765625 L 360.640625 199.269531 Z M 229.308594 67.914062 L 170.609375 78.785156 L 198.820312 37.753906 L 257.523438 26.886719 Z M 124.445312 87.328125 L 152.65625 46.300781 L 182.5 40.773438 L 154.289062 81.800781 Z M 153.050781 93.96875 L 164.800781 157.445312 L 130.179688 163.859375 L 118.421875 100.375 Z M 77.640625 60.1875 L 136.335938 49.316406 L 108.125 90.347656 L 49.429688 101.214844 Z M 103.074219 179.355469 L 68.667969 209.46875 L 60.414062 206.167969 L 43.402344 114.269531 L 106.878906 102.519531 L 119.703125 171.765625 C 120.003906 173.386719 120.976562 174.664062 122.238281 175.515625 C 115.792969 173.4375 108.480469 174.628906 103.074219 179.355469 Z M 161.050781 223.308594 L 117.179688 226.957031 L 132.28125 205.8125 C 137.9375 197.894531 137.050781 187.140625 130.167969 180.257812 C 128.519531 178.609375 126.617188 177.359375 124.601562 176.414062 C 124.898438 176.460938 125.167969 176.566406 125.472656 176.566406 C 125.824219 176.566406 126.1875 176.539062 126.546875 176.46875 L 172.710938 167.921875 C 174.242188 167.632812 175.597656 166.757812 176.480469 165.472656 C 177.359375 164.1875 177.699219 162.617188 177.410156 161.085938 L 164.59375 91.832031 L 228.070312 80.082031 L 230.660156 94.074219 L 242.203125 91.941406 L 238.988281 74.570312 L 267.199219 33.535156 L 283.058594 119.199219 L 271.324219 108.933594 C 263.496094 102.089844 251.601562 102.476562 244.234375 109.835938 C 237.351562 116.726562 236.464844 127.480469 242.121094 135.390625 L 257.222656 156.535156 L 213.351562 152.886719 C 202.417969 151.964844 192.59375 159.375 190.441406 170.121094 C 189.296875 175.832031 190.46875 181.632812 193.746094 186.449219 C 197.019531 191.269531 201.980469 194.496094 207.714844 195.539062 L 227.414062 199.121094 L 188.546875 207.453125 C 179.652344 209.363281 173.367188 216.863281 172.40625 225.488281 C 168.988281 223.789062 165.097656 222.972656 161.050781 223.308594 Z M 208.976562 262.675781 L 158.527344 272.019531 L 146.988281 269.542969 L 166.6875 265.960938 C 172.421875 264.917969 177.382812 261.6875 180.652344 256.871094 C 182.792969 253.714844 183.9375 250.121094 184.21875 246.417969 C 188.375 248.347656 193 248.917969 197.535156 247.875 L 231.894531 239.945312 L 216.164062 251.742188 C 212.460938 254.53125 210.007812 258.433594 208.976562 262.675781 Z M 208.976562 262.675781 " fill-opacity="1" fill-rule="nonzero"/></g><g clip-path="url(#65df0f32c2)"><path fill="#4c5454" d="M 40.476562 51.921875 L 52.214844 51.921875 C 52.214844 35.742188 65.378906 22.578125 81.5625 22.578125 L 87.429688 22.578125 L 87.429688 10.839844 L 81.5625 10.839844 C 58.90625 10.839844 40.476562 29.273438 40.476562 51.921875 Z M 40.476562 51.921875 " fill-opacity="1" fill-rule="nonzero"/></g><path fill="#4c5454" d="M 298.710938 351.238281 L 298.710938 362.976562 L 304.578125 362.976562 C 327.234375 362.976562 345.660156 344.539062 345.660156 321.894531 L 333.925781 321.894531 C 333.925781 338.074219 320.761719 351.238281 304.578125 351.238281 Z M 298.710938 351.238281 " fill-opacity="1" fill-rule="nonzero"/><path fill="#4c5454" d="M 286.972656 333.628906 L 281.105469 333.628906 L 281.105469 345.367188 L 286.972656 345.367188 C 309.625 345.367188 328.054688 326.933594 328.054688 304.285156 L 316.316406 304.285156 C 316.316406 320.464844 303.152344 333.628906 286.972656 333.628906 Z M 286.972656 333.628906 " fill-opacity="1" fill-rule="nonzero"/></svg>