<svg xmlns="http://www.w3.org/2000/svg" xmlns:xlink="http://www.w3.org/1999/xlink" width="500" zoomAndPan="magnify" viewBox="0 0 375 374.999991" height="500" preserveAspectRatio="xMidYMid meet" version="1.0"><defs><clipPath id="103fcd41bf"><path d="M 142 56 L 366.945312 56 L 366.945312 148 L 142 148 Z M 142 56 " clip-rule="nonzero"/></clipPath><clipPath id="15f9238c22"><path d="M 8 106 L 146 106 L 146 328.878906 L 8 328.878906 Z M 8 106 " clip-rule="nonzero"/></clipPath><clipPath id="2fb3c03659"><path d="M 58 46.128906 L 113 46.128906 L 113 100 L 58 100 Z M 58 46.128906 " clip-rule="nonzero"/></clipPath></defs><path fill="#4c5454" d="M 151.617188 213.585938 L 188.585938 213.585938 L 188.585938 200.074219 L 152.3125 200.074219 C 152.191406 203.96875 152.015625 207.984375 151.777344 212.097656 C 151.746094 212.601562 151.6875 213.097656 151.617188 213.585938 Z M 151.617188 213.585938 " fill-opacity="1" fill-rule="nonzero"/><path fill="#4c5454" d="M 135.121094 227.816406 C 134.78125 227.816406 134.4375 227.808594 134.089844 227.78125 C 130.726562 227.589844 127.644531 226.390625 125.125 224.5 L 125.125 278.347656 L 350.695312 278.347656 L 350.695312 272.789062 L 332.019531 272.789062 L 332.019531 218.152344 L 150.246094 218.152344 C 147.582031 223.875 141.785156 227.816406 135.121094 227.816406 Z M 135.121094 227.816406 " fill-opacity="1" fill-rule="nonzero"/><path fill="#4c5454" d="M 119.707031 72.945312 C 119.707031 82.519531 115.71875 91.171875 109.328125 97.355469 C 109.488281 98.054688 109.660156 98.75 109.828125 99.449219 C 111.4375 99.503906 113.460938 99.738281 115.765625 100.324219 C 123.019531 92.453125 129.949219 84.402344 136.523438 76.175781 C 137.636719 76.410156 138.753906 76.617188 139.867188 76.84375 C 143.183594 89.140625 147.027344 101.40625 151.429688 113.613281 C 159.316406 103.324219 166.683594 92.800781 173.546875 82.09375 C 174.671875 82.214844 175.800781 82.316406 176.929688 82.425781 C 180.671875 92.230469 184.792969 101.980469 189.269531 111.65625 C 191.527344 111.445312 193.851562 111.210938 196.246094 110.949219 C 201.457031 102.121094 206.339844 93.191406 210.886719 84.175781 C 212.015625 84.179688 213.148438 84.179688 214.28125 84.175781 C 218.097656 91.75 222.160156 99.265625 226.449219 106.710938 C 230.5625 105.996094 234.824219 105.195312 239.214844 104.304688 C 242.421875 97.046875 245.4375 89.75 248.234375 82.425781 C 249.363281 82.316406 250.492188 82.214844 251.617188 82.09375 C 255.21875 87.710938 258.964844 93.277344 262.847656 98.785156 C 268.605469 97.265625 274.476562 95.582031 280.410156 93.710938 C 282.15625 88.097656 283.78125 82.472656 285.296875 76.847656 C 286.414062 76.621094 287.527344 76.414062 288.644531 76.175781 C 291.722656 80.03125 294.886719 83.839844 298.117188 87.621094 C 305.347656 84.914062 312.59375 81.914062 319.785156 78.59375 C 320.492188 74.875 321.15625 71.152344 321.765625 67.4375 C 322.855469 67.09375 323.949219 66.765625 325.035156 66.414062 C 327.175781 68.574219 329.339844 70.726562 331.539062 72.855469 C 340.277344 68.324219 348.84375 63.269531 357.101562 57.652344 C 357.179688 56.5 357.269531 55.347656 357.34375 54.199219 C 359.109375 53.433594 360.882812 52.6875 362.640625 51.890625 C 362.386719 51.332031 362.136719 50.777344 361.882812 50.21875 C 285.28125 84.804688 199.667969 91.460938 119.585938 70.222656 C 119.65625 71.125 119.707031 72.027344 119.707031 72.945312 Z M 119.707031 72.945312 " fill-opacity="1" fill-rule="nonzero"/><g clip-path="url(#103fcd41bf)"><path fill="#4c5454" d="M 220.078125 111.394531 C 197.808594 114.90625 178.355469 116.363281 164.476562 116.9375 C 150.597656 117.515625 142.339844 117.207031 142.320312 117.210938 L 142.234375 119.59375 C 142.261719 119.585938 151.679688 119.929688 167.199219 119.203125 L 186.710938 147.65625 L 201.691406 116.335938 C 203.570312 116.113281 205.472656 115.878906 207.414062 115.625 L 229.320312 142.152344 L 241.320312 109.96875 C 243.8125 109.457031 246.332031 108.917969 248.867188 108.351562 L 272.875 132.8125 L 282.148438 99.457031 C 284.449219 98.730469 286.753906 97.988281 289.0625 97.210938 L 316.089844 118.785156 L 321.273438 84.515625 C 323.542969 83.476562 325.796875 82.402344 328.050781 81.300781 L 358.457031 98.285156 L 357.972656 64.257812 C 360.957031 62.28125 363.902344 60.234375 366.808594 58.113281 L 365.402344 56.191406 C 320.40625 89.078125 264.617188 104.367188 220.078125 111.394531 Z M 220.078125 111.394531 " fill-opacity="1" fill-rule="nonzero"/></g><g clip-path="url(#15f9238c22)"><path fill="#4c5454" d="M 53.496094 314.109375 C 53.496094 322.25 60.09375 328.84375 68.230469 328.84375 C 76.371094 328.84375 82.96875 322.25 82.96875 314.109375 L 82.96875 206.507812 L 88.496094 206.507812 L 88.496094 314.109375 C 88.496094 322.25 95.09375 328.84375 103.230469 328.84375 C 111.371094 328.84375 117.96875 322.25 117.96875 314.109375 L 117.96875 135.359375 C 118.675781 136.808594 119.386719 138.472656 120.089844 140.410156 C 123.449219 149.722656 126.277344 165 126.265625 188.851562 C 126.265625 195.425781 126.054688 202.644531 125.59375 210.574219 C 125.285156 215.828125 129.300781 220.339844 134.558594 220.648438 C 134.746094 220.660156 134.933594 220.664062 135.121094 220.664062 C 140.132812 220.664062 144.335938 216.753906 144.632812 211.683594 C 145.113281 203.421875 145.339844 195.832031 145.339844 188.851562 C 145.289062 152.875 139.542969 132.964844 131.707031 120.992188 C 127.792969 115.046875 123.210938 111.234375 118.980469 109.125 C 114.902344 107.070312 111.320312 106.605469 109.171875 106.578125 C 109.035156 106.574219 108.894531 106.558594 108.753906 106.558594 L 62.707031 106.558594 C 62.570312 106.558594 62.433594 106.574219 62.296875 106.578125 C 60.410156 106.601562 57.425781 106.957031 53.949219 108.4375 C 51.582031 109.429688 49.066406 110.960938 46.578125 113.109375 C 43.332031 115.917969 40.140625 119.789062 37.40625 124.914062 C 32.535156 133.980469 28.757812 146.878906 27.058594 165.929688 C 27.054688 165.957031 27.058594 165.980469 27.054688 166.007812 C 26.796875 168.933594 26.589844 172.015625 26.4375 175.246094 C 26.234375 179.507812 26.121094 184.03125 26.121094 188.855469 C 26.121094 195.832031 26.34375 203.421875 26.832031 211.6875 C 27.125 216.753906 31.332031 220.664062 36.34375 220.664062 C 36.527344 220.664062 36.71875 220.660156 36.90625 220.648438 C 42.164062 220.339844 46.175781 215.824219 45.871094 210.570312 C 45.402344 202.644531 45.191406 195.425781 45.191406 188.851562 C 45.191406 183.492188 45.335938 178.574219 45.59375 174.046875 C 45.71875 171.816406 45.871094 169.671875 46.054688 167.632812 C 46.054688 167.625 46.054688 167.621094 46.054688 167.613281 C 46.144531 166.601562 46.242188 165.621094 46.34375 164.652344 C 47.851562 150.289062 50.699219 141.066406 53.496094 135.328125 L 53.496094 171.621094 L 47.910156 175.402344 C 47.835938 176.859375 47.773438 178.339844 47.726562 179.847656 L 53.15625 176.167969 L 74.546875 207.75 L 34.578125 234.820312 L 13.1875 203.242188 L 23.824219 196.039062 C 23.792969 194.597656 23.773438 193.171875 23.761719 191.765625 L 8.21875 202.289062 L 33.621094 239.792969 L 46.34375 231.175781 L 53.496094 226.332031 Z M 81.203125 116.3125 L 90.261719 116.3125 L 92.527344 125.253906 L 92.179688 125.796875 C 90.316406 127.355469 88.03125 128.132812 85.730469 128.136719 C 83.433594 128.132812 81.148438 127.355469 79.285156 125.800781 L 78.9375 125.253906 Z M 80.929688 130.832031 C 82.476562 131.410156 84.101562 131.710938 85.730469 131.710938 C 85.730469 131.710938 85.734375 131.710938 85.738281 131.710938 C 87.363281 131.710938 88.988281 131.410156 90.53125 130.828125 L 97.054688 178.894531 L 85.734375 193.195312 L 74.410156 178.894531 Z M 80.929688 130.832031 " fill-opacity="1" fill-rule="nonzero"/></g><g clip-path="url(#2fb3c03659)"><path fill="#4c5454" d="M 112.550781 72.945312 C 112.550781 73.824219 112.507812 74.703125 112.421875 75.574219 C 112.335938 76.449219 112.207031 77.316406 112.035156 78.179688 C 111.863281 79.039062 111.652344 79.890625 111.394531 80.730469 C 111.140625 81.574219 110.84375 82.398438 110.507812 83.210938 C 110.171875 84.023438 109.796875 84.816406 109.382812 85.589844 C 108.96875 86.363281 108.519531 87.117188 108.03125 87.847656 C 107.542969 88.578125 107.019531 89.28125 106.464844 89.960938 C 105.90625 90.640625 105.316406 91.289062 104.695312 91.910156 C 104.074219 92.53125 103.425781 93.121094 102.746094 93.679688 C 102.066406 94.234375 101.363281 94.757812 100.632812 95.246094 C 99.902344 95.734375 99.148438 96.1875 98.375 96.601562 C 97.597656 97.015625 96.804688 97.390625 95.996094 97.726562 C 95.183594 98.0625 94.355469 98.355469 93.515625 98.613281 C 92.675781 98.867188 91.824219 99.078125 90.964844 99.25 C 90.101562 99.421875 89.234375 99.550781 88.359375 99.636719 C 87.484375 99.722656 86.609375 99.765625 85.730469 99.765625 C 84.851562 99.765625 83.976562 99.722656 83.101562 99.636719 C 82.226562 99.550781 81.359375 99.421875 80.5 99.25 C 79.636719 99.078125 78.785156 98.867188 77.945312 98.613281 C 77.105469 98.355469 76.28125 98.0625 75.46875 97.726562 C 74.65625 97.390625 73.863281 97.015625 73.089844 96.601562 C 72.3125 96.1875 71.5625 95.734375 70.832031 95.246094 C 70.101562 94.757812 69.394531 94.234375 68.71875 93.679688 C 68.039062 93.121094 67.386719 92.53125 66.765625 91.910156 C 66.144531 91.289062 65.558594 90.640625 65 89.960938 C 64.441406 89.28125 63.917969 88.578125 63.433594 87.847656 C 62.945312 87.117188 62.492188 86.363281 62.078125 85.589844 C 61.664062 84.816406 61.289062 84.023438 60.953125 83.210938 C 60.617188 82.398438 60.320312 81.574219 60.066406 80.730469 C 59.8125 79.890625 59.597656 79.039062 59.425781 78.179688 C 59.253906 77.316406 59.128906 76.449219 59.039062 75.574219 C 58.953125 74.703125 58.910156 73.824219 58.910156 72.945312 C 58.910156 72.070312 58.953125 71.191406 59.039062 70.316406 C 59.128906 69.445312 59.253906 68.578125 59.425781 67.714844 C 59.597656 66.851562 59.8125 66.003906 60.066406 65.160156 C 60.320312 64.320312 60.617188 63.496094 60.953125 62.683594 C 61.289062 61.871094 61.664062 61.078125 62.078125 60.304688 C 62.492188 59.53125 62.945312 58.777344 63.433594 58.046875 C 63.917969 57.316406 64.441406 56.613281 65 55.933594 C 65.558594 55.253906 66.144531 54.605469 66.765625 53.984375 C 67.386719 53.363281 68.039062 52.773438 68.71875 52.214844 C 69.394531 51.65625 70.101562 51.136719 70.832031 50.648438 C 71.5625 50.160156 72.3125 49.707031 73.089844 49.292969 C 73.863281 48.878906 74.65625 48.503906 75.46875 48.167969 C 76.28125 47.832031 77.105469 47.539062 77.945312 47.28125 C 78.785156 47.027344 79.636719 46.8125 80.5 46.644531 C 81.359375 46.472656 82.226562 46.34375 83.101562 46.257812 C 83.976562 46.171875 84.851562 46.128906 85.730469 46.128906 C 86.609375 46.128906 87.484375 46.171875 88.359375 46.257812 C 89.234375 46.34375 90.101562 46.472656 90.964844 46.644531 C 91.824219 46.8125 92.675781 47.027344 93.515625 47.28125 C 94.355469 47.539062 95.183594 47.832031 95.996094 48.167969 C 96.804688 48.503906 97.597656 48.878906 98.375 49.292969 C 99.148438 49.707031 99.902344 50.160156 100.632812 50.648438 C 101.363281 51.136719 102.066406 51.65625 102.746094 52.214844 C 103.425781 52.773438 104.074219 53.363281 104.695312 53.984375 C 105.316406 54.605469 105.90625 55.253906 106.464844 55.933594 C 107.019531 56.613281 107.542969 57.316406 108.03125 58.046875 C 108.519531 58.777344 108.96875 59.53125 109.382812 60.304688 C 109.796875 61.078125 110.171875 61.871094 110.507812 62.683594 C 110.84375 63.496094 111.140625 64.320312 111.394531 65.160156 C 111.652344 66.003906 111.863281 66.851562 112.035156 67.714844 C 112.207031 68.578125 112.335938 69.445312 112.421875 70.316406 C 112.507812 71.191406 112.550781 72.070312 112.550781 72.945312 Z M 112.550781 72.945312 " fill-opacity="1" fill-rule="nonzero"/></g><path fill="#4c5454" d="M 48.550781 188.996094 L 50.507812 187.628906 L 63.617188 206.402344 L 61.660156 207.769531 Z M 48.550781 188.996094 " fill-opacity="1" fill-rule="nonzero"/><path fill="#4c5454" d="M 47.828125 201.40625 C 47.878906 202.867188 47.941406 204.335938 48.011719 205.832031 L 53.316406 213.429688 L 55.273438 212.066406 Z M 47.828125 201.40625 " fill-opacity="1" fill-rule="nonzero"/><path fill="#4c5454" d="M 262.886719 200.074219 L 316.125 200.074219 L 316.125 213.585938 L 262.886719 213.585938 Z M 262.886719 200.074219 " fill-opacity="1" fill-rule="nonzero"/></svg>