<svg xmlns="http://www.w3.org/2000/svg" xmlns:xlink="http://www.w3.org/1999/xlink" width="500" zoomAndPan="magnify" viewBox="0 0 375 374.999991" height="500" preserveAspectRatio="xMidYMid meet" version="1.0"><defs><clipPath id="5bdc94d112"><path d="M 8 15.949219 L 366.945312 15.949219 L 366.945312 363.199219 L 8 363.199219 Z M 8 15.949219 " clip-rule="nonzero"/></clipPath></defs><g clip-path="url(#5bdc94d112)"><path fill="#ffffff" d="M 271.367188 226.097656 L 278.867188 243.605469 L 263.855469 243.605469 L 271.355469 226.097656 Z M 361.9375 360.882812 C 359.78125 362.570312 357.167969 363.433594 354.546875 363.433594 C 352.496094 363.433594 350.445312 362.917969 348.601562 361.851562 L 304.460938 336.640625 C 288.8125 344.503906 271.546875 348.636719 254.101562 348.636719 C 201.191406 348.636719 156.808594 311.839844 144.921875 262.511719 C 208.691406 251.117188 257.277344 195.375 257.277344 128.386719 C 257.277344 126.890625 257.097656 125.4375 257.050781 123.953125 C 317.675781 125.535156 366.527344 175.234375 366.527344 236.222656 C 366.527344 256.6875 361.027344 276.519531 350.578125 293.9375 L 366.070312 348.15625 C 367.402344 352.84375 365.785156 357.875 361.9375 360.882812 Z M 318.324219 274.839844 L 282.378906 190.96875 C 280.496094 186.558594 276.160156 183.707031 271.367188 183.707031 C 266.574219 183.707031 262.238281 186.558594 260.355469 190.96875 L 224.410156 274.839844 C 221.796875 280.925781 224.625 287.972656 230.699219 290.574219 C 236.738281 293.171875 243.832031 290.367188 246.421875 284.28125 L 253.574219 267.578125 L 289.125 267.578125 L 296.277344 284.28125 C 298.21875 288.824219 302.640625 291.542969 307.289062 291.542969 C 308.871094 291.542969 310.476562 291.230469 312.007812 290.558594 C 318.097656 287.960938 320.910156 280.914062 318.300781 274.828125 Z M 120.886719 240.800781 C 103.441406 240.800781 86.175781 236.667969 70.527344 228.804688 L 26.386719 254.015625 C 24.542969 255.070312 22.492188 255.597656 20.445312 255.597656 C 17.820312 255.597656 15.207031 254.734375 13.050781 253.046875 C 9.21875 250.039062 7.585938 245.003906 8.917969 240.320312 L 24.410156 186.101562 C 13.960938 168.679688 8.460938 148.839844 8.460938 128.386719 C 8.472656 66.378906 58.90625 15.949219 120.886719 15.949219 C 182.871094 15.949219 233.300781 66.378906 233.300781 128.363281 C 233.300781 190.34375 182.871094 240.777344 120.886719 240.777344 Z M 166.226562 156.785156 C 172.503906 147.304688 176.207031 135.984375 176.207031 123.796875 C 176.207031 90.765625 149.332031 63.886719 116.296875 63.886719 C 83.265625 63.886719 56.390625 90.765625 56.390625 123.796875 C 56.390625 156.832031 83.265625 183.707031 116.296875 183.707031 C 128.484375 183.707031 139.808594 180.003906 149.285156 173.726562 L 155.753906 180.195312 C 158.089844 182.53125 161.160156 183.707031 164.226562 183.707031 C 167.292969 183.707031 170.359375 182.53125 172.695312 180.195312 C 177.382812 175.511719 177.382812 167.9375 172.695312 163.253906 Z M 116.296875 87.851562 C 96.480469 87.851562 80.351562 103.980469 80.351562 123.796875 C 80.351562 143.617188 96.480469 159.742188 116.296875 159.742188 C 121.835938 159.742188 127.011719 158.390625 131.695312 156.136719 L 119.808594 144.25 C 115.125 139.566406 115.125 131.992188 119.808594 127.308594 C 124.492188 122.625 132.066406 122.625 136.75 127.308594 L 148.636719 139.195312 C 150.878906 134.507812 152.242188 129.320312 152.242188 123.796875 C 152.242188 103.980469 136.117188 87.851562 116.296875 87.851562 Z M 116.296875 87.851562 " fill-opacity="1" fill-rule="nonzero"/></g></svg>