<svg xmlns="http://www.w3.org/2000/svg" xmlns:xlink="http://www.w3.org/1999/xlink" width="500" zoomAndPan="magnify" viewBox="0 0 375 374.999991" height="500" preserveAspectRatio="xMidYMid meet" version="1.0"><defs><clipPath id="97558f7385"><path d="M 123 15.949219 L 169 15.949219 L 169 137 L 123 137 Z M 123 15.949219 " clip-rule="nonzero"/></clipPath><clipPath id="e8bc3afbdf"><path d="M 18 259 L 274 259 L 274 360.199219 L 18 360.199219 Z M 18 259 " clip-rule="nonzero"/></clipPath></defs><path fill="#ffffff" d="M 244.90625 96.519531 C 201.695312 92.460938 160.324219 124.917969 149.875 170.898438 C 198.558594 170.589844 240.050781 138.132812 244.90625 96.519531 Z M 244.90625 96.519531 " fill-opacity="1" fill-rule="nonzero"/><g clip-path="url(#97558f7385)"><path fill="#ffffff" d="M 146.003906 15.992188 C 116.128906 45.253906 116.128906 98.054688 146.003906 136.597656 C 175.691406 98.117188 175.753906 45.375 146.003906 15.992188 Z M 146.003906 15.992188 " fill-opacity="1" fill-rule="nonzero"/></g><path fill="#ffffff" d="M 141.882812 170.898438 C 131.679688 124.980469 90.308594 92.152344 47.21875 96.089844 C 51.828125 137.640625 93.199219 170.40625 141.882812 170.898438 Z M 141.882812 170.898438 " fill-opacity="1" fill-rule="nonzero"/><path fill="#ffffff" d="M 146.308594 177.351562 C 145.632812 177.289062 143.421875 177.414062 142.683594 177.351562 C 142.683594 177.351562 142.683594 253.328125 142.683594 253.328125 L 149.199219 253.453125 L 149.199219 177.414062 C 148.152344 177.414062 147.230469 177.414062 146.308594 177.351562 Z M 146.308594 177.351562 " fill-opacity="1" fill-rule="nonzero"/><g clip-path="url(#e8bc3afbdf)"><path fill="#ffffff" d="M 204.214844 306.929688 C 202.492188 307.300781 200.832031 306.195312 200.464844 304.597656 C 194.195312 279.394531 171.144531 259.84375 145.078125 259.785156 C 119.140625 259.660156 94.859375 278.226562 87.789062 304.597656 C 87.296875 306.5625 84.839844 307.609375 83.117188 306.625 C 47.464844 287.445312 7.507812 322.300781 21.03125 360.289062 C 21.03125 360.289062 273.675781 360.289062 273.675781 360.289062 C 272.199219 313.449219 228.3125 301.828125 204.214844 306.929688 Z M 204.214844 306.929688 " fill-opacity="1" fill-rule="nonzero"/></g><path fill="#ffffff" d="M 316.519531 210.851562 L 291.992188 196.039062 L 265.992188 231.753906 C 262.367188 236.546875 256.648438 238.945312 251.667969 236.054688 C 247.242188 233.414062 246.015625 227.082031 248.78125 221.304688 L 268.328125 181.65625 L 243.863281 166.902344 C 242.941406 166.289062 240.480469 167.332031 238.761719 170.097656 L 203.109375 228.988281 C 197.515625 238.085938 194.5625 248.597656 195.179688 257.816406 L 196.59375 280.992188 C 200.585938 286.644531 203.722656 293.039062 205.875 299.984375 C 212.207031 299.125 227.449219 298.078125 242.816406 304.289062 L 257.695312 297.648438 C 265.929688 293.960938 273.859375 286.585938 279.394531 277.363281 L 316.027344 216.691406 C 317.441406 214.296875 317.933594 212.328125 316.519531 210.851562 Z M 316.519531 210.851562 " fill-opacity="1" fill-rule="nonzero"/><path fill="#ffffff" d="M 255.050781 230.460938 C 256.339844 231.261719 258.800781 230.460938 260.707031 227.941406 L 286.398438 192.660156 L 273.859375 185.097656 L 254.621094 224.253906 C 253.269531 227.144531 253.757812 229.664062 255.050781 230.460938 Z M 255.050781 230.460938 " fill-opacity="1" fill-rule="nonzero"/><path fill="#ffffff" d="M 275.644531 178.5625 L 279.613281 171.980469 L 295.402344 181.507812 L 291.433594 188.089844 Z M 275.644531 178.5625 " fill-opacity="1" fill-rule="nonzero"/><path fill="#ffffff" d="M 347.011719 78.140625 C 328.015625 66.152344 304.59375 85.699219 317.320312 105.984375 C 318.058594 107.089844 317.996094 108.445312 317.382812 109.425781 L 283.019531 166.347656 L 298.816406 175.875 L 333.054688 119.261719 C 333.671875 118.09375 334.898438 117.355469 336.253906 117.417969 C 359.671875 119.140625 366.863281 90.003906 347.011719 78.140625 Z M 346.949219 102.542969 C 338.648438 115.757812 317.628906 102.972656 325.433594 89.574219 C 333.671875 76.417969 354.753906 89.019531 346.949219 102.542969 Z M 346.949219 102.542969 " fill-opacity="1" fill-rule="nonzero"/><path fill="#ffffff" d="M 338.957031 91.539062 C 332.195312 87.421875 326.726562 96.457031 333.488281 100.574219 C 340.25 104.632812 345.78125 95.65625 338.957031 91.539062 Z M 338.957031 91.539062 " fill-opacity="1" fill-rule="nonzero"/></svg>