<svg xmlns="http://www.w3.org/2000/svg" xmlns:xlink="http://www.w3.org/1999/xlink" width="500" zoomAndPan="magnify" viewBox="0 0 375 374.999991" height="500" preserveAspectRatio="xMidYMid meet" version="1.0"><defs><clipPath id="1f6f38e0ed"><path d="M 182 16.394531 L 196 16.394531 L 196 65 L 182 65 Z M 182 16.394531 " clip-rule="nonzero"/></clipPath><clipPath id="5568050879"><path d="M 40 326 L 338 326 L 338 366.644531 L 40 366.644531 Z M 40 326 " clip-rule="nonzero"/></clipPath></defs><path fill="#ffffff" d="M 114.214844 122.628906 C 111.753906 123.742188 108.835938 122.675781 107.726562 120.214844 C 106.605469 117.757812 107.675781 114.847656 110.136719 113.726562 C 129.390625 104.910156 157.5625 99.851562 187.425781 99.851562 C 219.730469 99.851562 249.265625 105.511719 268.457031 115.386719 C 270.851562 116.628906 271.796875 119.578125 270.5625 121.984375 C 269.691406 123.671875 267.984375 124.640625 266.210938 124.640625 C 265.457031 124.640625 264.695312 124.46875 263.96875 124.101562 C 246.382812 115.046875 217.765625 109.644531 187.425781 109.644531 C 158.914062 109.644531 132.234375 114.375 114.214844 122.628906 Z M 306.9375 306.632812 L 287.246094 124.375 C 287.246094 122.945312 286.671875 121.695312 286.441406 120.367188 C 286.441406 120.085938 286.632812 119.835938 286.632812 119.539062 C 286.632812 99.875 243.289062 83.933594 189.757812 83.933594 C 141.488281 83.933594 101.804688 96.941406 94.445312 113.941406 C 92.546875 117.027344 91.183594 120.472656 91.183594 124.375 L 71.480469 306.632812 L 94.183594 306.632812 C 94.195312 306.292969 94.054688 305.992188 94.09375 305.652344 L 110.808594 153.898438 C 111.601562 146.730469 117.929688 141.542969 125.222656 142.34375 C 132.390625 143.136719 137.566406 149.589844 136.777344 156.753906 L 120.265625 306.632812 L 306.9375 306.632812 " fill-opacity="1" fill-rule="nonzero"/><g clip-path="url(#1f6f38e0ed)"><path fill="#ffffff" d="M 189.199219 64.335938 C 192.808594 64.335938 195.726562 61.414062 195.726562 57.804688 L 195.726562 23.082031 C 195.726562 19.472656 192.808594 16.554688 189.199219 16.554688 C 185.589844 16.554688 182.671875 19.472656 182.671875 23.082031 L 182.671875 57.804688 C 182.671875 61.414062 185.589844 64.335938 189.199219 64.335938 " fill-opacity="1" fill-rule="nonzero"/></g><path fill="#ffffff" d="M 260.820312 84.179688 C 262.84375 84.179688 264.859375 83.226562 266.136719 81.441406 L 287.367188 51.703125 C 289.457031 48.769531 288.785156 44.691406 285.847656 42.601562 C 282.890625 40.5 278.835938 41.183594 276.730469 44.117188 L 255.5 73.855469 C 253.410156 76.789062 254.082031 80.871094 257.019531 82.960938 C 258.175781 83.78125 259.503906 84.179688 260.820312 84.179688 " fill-opacity="1" fill-rule="nonzero"/><path fill="#ffffff" d="M 301.742188 139.585938 C 303.117188 139.585938 304.507812 139.15625 305.691406 138.253906 L 343.734375 109.355469 C 346.601562 107.179688 347.164062 103.082031 344.984375 100.214844 C 342.789062 97.332031 338.707031 96.777344 335.824219 98.964844 L 297.789062 127.863281 C 294.917969 130.042969 294.355469 134.136719 296.539062 137.003906 C 297.824219 138.699219 299.777344 139.585938 301.742188 139.585938 " fill-opacity="1" fill-rule="nonzero"/><path fill="#ffffff" d="M 364.277344 188.765625 C 363.359375 185.292969 359.828125 183.195312 356.292969 184.128906 L 322.433594 193.125 C 318.945312 194.046875 316.875 197.625 317.792969 201.113281 C 318.574219 204.03125 321.214844 205.964844 324.109375 205.964844 C 324.65625 205.964844 325.214844 205.894531 325.777344 205.746094 L 359.636719 196.757812 C 363.128906 195.832031 365.195312 192.253906 364.277344 188.765625 " fill-opacity="1" fill-rule="nonzero"/><path fill="#ffffff" d="M 355.859375 279.984375 L 322.898438 267.179688 C 319.554688 265.894531 315.753906 267.546875 314.453125 270.90625 C 313.140625 274.265625 314.8125 278.050781 318.175781 279.359375 L 351.140625 292.160156 C 351.921875 292.460938 352.707031 292.601562 353.5 292.601562 C 356.113281 292.601562 358.585938 291.019531 359.585938 288.4375 C 360.894531 285.078125 359.226562 281.292969 355.859375 279.984375 " fill-opacity="1" fill-rule="nonzero"/><path fill="#ffffff" d="M 108.859375 81.441406 C 110.136719 83.226562 112.152344 84.179688 114.175781 84.179688 C 115.492188 84.179688 116.816406 83.78125 117.976562 82.960938 C 120.914062 80.871094 121.585938 76.789062 119.496094 73.855469 L 98.265625 44.117188 C 96.160156 41.183594 92.089844 40.5 89.148438 42.601562 C 86.210938 44.691406 85.539062 48.769531 87.628906 51.703125 L 108.859375 81.441406 " fill-opacity="1" fill-rule="nonzero"/><path fill="#ffffff" d="M 69.304688 138.253906 C 70.488281 139.15625 71.878906 139.585938 73.253906 139.585938 C 75.21875 139.585938 77.171875 138.699219 78.457031 137.003906 C 80.640625 134.136719 80.078125 130.042969 77.207031 127.863281 L 39.171875 98.964844 C 36.289062 96.777344 32.207031 97.332031 30.011719 100.214844 C 27.832031 103.082031 28.394531 107.179688 31.261719 109.355469 L 69.304688 138.253906 " fill-opacity="1" fill-rule="nonzero"/><path fill="#ffffff" d="M 49.21875 205.746094 C 49.78125 205.894531 50.339844 205.964844 50.886719 205.964844 C 53.78125 205.964844 56.425781 204.03125 57.203125 201.113281 C 58.121094 197.625 56.050781 194.046875 52.5625 193.125 L 18.703125 184.128906 C 15.195312 183.195312 11.648438 185.292969 10.71875 188.765625 C 9.800781 192.253906 11.867188 195.832031 15.359375 196.757812 L 49.21875 205.746094 " fill-opacity="1" fill-rule="nonzero"/><path fill="#ffffff" d="M 60.542969 270.90625 C 59.242188 267.546875 55.464844 265.910156 52.097656 267.179688 L 19.136719 279.984375 C 15.769531 281.292969 14.101562 285.078125 15.410156 288.4375 C 16.40625 291.019531 18.882812 292.601562 21.496094 292.601562 C 22.285156 292.601562 23.074219 292.460938 23.855469 292.160156 L 56.820312 279.359375 C 60.183594 278.050781 61.855469 274.265625 60.542969 270.90625 " fill-opacity="1" fill-rule="nonzero"/><g clip-path="url(#5568050879)"><path fill="#ffffff" d="M 330.113281 326.21875 L 48.300781 326.21875 C 44.167969 326.21875 40.816406 329.578125 40.816406 333.703125 L 40.816406 358.695312 C 40.816406 362.816406 44.167969 366.171875 48.300781 366.171875 L 330.113281 366.171875 C 334.246094 366.171875 337.597656 362.816406 337.597656 358.695312 L 337.597656 333.703125 C 337.597656 329.578125 334.246094 326.21875 330.113281 326.21875 " fill-opacity="1" fill-rule="nonzero"/></g></svg>