<svg xmlns="http://www.w3.org/2000/svg" xmlns:xlink="http://www.w3.org/1999/xlink" width="500" zoomAndPan="magnify" viewBox="0 0 375 374.999991" height="500" preserveAspectRatio="xMidYMid meet" version="1.0"><defs><clipPath id="ff660ea7ff"><path d="M 9.238281 9.238281 L 365.488281 9.238281 L 365.488281 365.488281 L 9.238281 365.488281 Z M 9.238281 9.238281 " clip-rule="nonzero"/></clipPath></defs><g clip-path="url(#ff660ea7ff)"><path fill="#ffffff" d="M 187.5 9.238281 C 89.050781 9.238281 9.238281 89.050781 9.238281 187.5 C 9.238281 285.949219 89.050781 365.757812 187.5 365.757812 C 285.949219 365.757812 365.757812 285.949219 365.757812 187.5 C 365.757812 89.050781 285.949219 9.238281 187.5 9.238281 Z M 290.089844 120.609375 L 310.734375 108.6875 C 313.90625 106.851562 317.960938 107.949219 319.800781 111.121094 C 321.628906 114.292969 320.546875 118.347656 317.367188 120.183594 L 296.722656 132.105469 C 295.671875 132.707031 294.535156 132.992188 293.414062 132.992188 C 291.121094 132.992188 288.890625 131.800781 287.65625 129.675781 C 285.832031 126.496094 286.917969 122.441406 290.089844 120.609375 Z M 180.867188 41.367188 C 180.867188 37.707031 183.835938 34.734375 187.5 34.734375 C 191.160156 34.734375 194.132812 37.707031 194.132812 41.367188 L 194.132812 65.203125 C 194.132812 68.867188 191.160156 71.835938 187.5 71.835938 C 183.835938 71.835938 180.867188 68.867188 180.867188 65.203125 Z M 111.113281 55.199219 C 114.292969 53.363281 118.335938 54.453125 120.179688 57.628906 L 132.097656 78.277344 C 133.929688 81.445312 132.84375 85.503906 129.667969 87.339844 C 128.617188 87.941406 127.480469 88.226562 126.355469 88.226562 C 124.066406 88.226562 121.835938 87.035156 120.601562 84.910156 L 108.683594 64.261719 C 106.859375 61.085938 107.941406 57.035156 111.113281 55.199219 Z M 34.734375 187.5 C 34.734375 183.835938 37.707031 180.867188 41.367188 180.867188 L 65.203125 180.867188 C 68.867188 180.867188 71.835938 183.835938 71.835938 187.5 C 71.835938 191.160156 68.867188 194.132812 65.203125 194.132812 L 41.367188 194.132812 C 37.707031 194.132812 34.734375 191.160156 34.734375 187.5 Z M 84.910156 254.390625 L 64.261719 266.308594 C 63.214844 266.910156 62.074219 267.195312 60.953125 267.195312 C 58.660156 267.195312 56.429688 266.007812 55.199219 263.878906 C 53.367188 260.707031 54.453125 256.652344 57.628906 254.8125 L 78.277344 242.894531 C 81.445312 241.054688 85.503906 242.152344 87.339844 245.324219 C 89.164062 248.5 88.078125 252.558594 84.910156 254.390625 Z M 87.335938 129.667969 C 86.101562 131.796875 83.878906 132.984375 81.582031 132.984375 C 80.457031 132.984375 79.320312 132.699219 78.269531 132.097656 L 57.625 120.179688 C 54.453125 118.347656 53.367188 114.292969 55.191406 111.113281 C 57.023438 107.941406 61.074219 106.851562 64.257812 108.683594 L 84.902344 120.601562 C 88.078125 122.441406 89.164062 126.496094 87.335938 129.667969 Z M 132.097656 296.722656 L 120.179688 317.367188 C 118.949219 319.496094 116.722656 320.683594 114.425781 320.683594 C 113.304688 320.683594 112.164062 320.398438 111.113281 319.800781 C 107.941406 317.96875 106.859375 313.910156 108.683594 310.734375 L 120.601562 290.089844 C 122.433594 286.917969 126.480469 285.828125 129.667969 287.65625 C 132.84375 289.496094 133.929688 293.550781 132.097656 296.722656 Z M 160.828125 231.464844 L 129.359375 199.996094 C 122.945312 193.582031 122.972656 183.15625 129.417969 176.710938 C 135.863281 170.265625 146.289062 170.238281 152.703125 176.652344 L 171.273438 195.21875 L 222.367188 144.121094 C 228.8125 137.675781 239.238281 137.648438 245.652344 144.0625 C 252.066406 150.476562 252.035156 160.898438 245.589844 167.34375 L 181.519531 231.410156 C 175.792969 237.140625 166.527344 237.164062 160.828125 231.464844 Z M 194.132812 333.628906 C 194.132812 337.292969 191.160156 340.261719 187.5 340.261719 C 183.835938 340.261719 180.867188 337.292969 180.867188 333.628906 L 180.867188 309.796875 C 180.867188 306.132812 183.835938 303.160156 187.5 303.160156 C 191.160156 303.160156 194.132812 306.132812 194.132812 309.796875 Z M 263.882812 319.800781 C 262.835938 320.398438 261.695312 320.683594 260.574219 320.683594 C 258.28125 320.683594 256.050781 319.496094 254.820312 317.367188 L 242.898438 296.722656 C 241.066406 293.550781 242.152344 289.496094 245.332031 287.65625 C 248.507812 285.820312 252.558594 286.917969 254.394531 290.089844 L 266.316406 310.734375 C 268.140625 313.910156 267.054688 317.960938 263.882812 319.800781 Z M 266.308594 64.261719 L 254.390625 84.910156 C 253.160156 87.035156 250.933594 88.226562 248.636719 88.226562 C 247.511719 88.226562 246.375 87.941406 245.324219 87.339844 C 242.152344 85.507812 241.066406 81.453125 242.894531 78.277344 L 254.8125 57.628906 C 256.644531 54.453125 260.6875 53.367188 263.878906 55.199219 C 267.054688 57.035156 268.140625 61.085938 266.308594 64.261719 Z M 319.800781 263.882812 C 318.570312 266.011719 316.34375 267.199219 314.046875 267.199219 C 312.921875 267.199219 311.785156 266.914062 310.734375 266.316406 L 290.089844 254.394531 C 286.917969 252.5625 285.832031 248.507812 287.65625 245.332031 C 289.488281 242.160156 293.527344 241.066406 296.722656 242.898438 L 317.367188 254.820312 C 320.546875 256.652344 321.628906 260.707031 319.800781 263.882812 Z M 333.628906 194.132812 L 309.796875 194.132812 C 306.132812 194.132812 303.160156 191.160156 303.160156 187.5 C 303.160156 183.835938 306.132812 180.867188 309.796875 180.867188 L 333.628906 180.867188 C 337.292969 180.867188 340.261719 183.835938 340.261719 187.5 C 340.261719 191.160156 337.292969 194.132812 333.628906 194.132812 Z M 333.628906 194.132812 " fill-opacity="1" fill-rule="nonzero"/></g></svg>