<svg xmlns="http://www.w3.org/2000/svg" xmlns:xlink="http://www.w3.org/1999/xlink" width="500" zoomAndPan="magnify" viewBox="0 0 375 374.999991" height="500" preserveAspectRatio="xMidYMid meet" version="1.0"><defs><clipPath id="5714b21848"><path d="M 130 15.949219 L 244 15.949219 L 244 132 L 130 132 Z M 130 15.949219 " clip-rule="nonzero"/></clipPath><clipPath id="f4f8549c75"><path d="M 132 154 L 242 154 L 242 366.199219 L 132 366.199219 Z M 132 154 " clip-rule="nonzero"/></clipPath><clipPath id="0d096d8b33"><path d="M 10.265625 206 L 107 206 L 107 366.199219 L 10.265625 366.199219 Z M 10.265625 206 " clip-rule="nonzero"/></clipPath><clipPath id="d8ab06ad35"><path d="M 267 231 L 365 231 L 365 366.199219 L 267 366.199219 Z M 267 231 " clip-rule="nonzero"/></clipPath></defs><g clip-path="url(#5714b21848)"><path fill="#ffffff" d="M 178.921875 21.179688 L 168.382812 45.777344 C 168.050781 46.554688 167.613281 47.265625 167.074219 47.914062 C 166.53125 48.5625 165.90625 49.117188 165.203125 49.582031 C 164.496094 50.046875 163.742188 50.402344 162.933594 50.644531 C 162.125 50.886719 161.296875 51.007812 160.453125 51.007812 L 138.652344 51.007812 C 137.796875 51.007812 136.964844 51.132812 136.148438 51.382812 C 135.328125 51.628906 134.566406 51.992188 133.855469 52.464844 C 133.148438 52.941406 132.523438 53.507812 131.980469 54.167969 C 131.441406 54.828125 131.003906 55.550781 130.679688 56.339844 C 130.351562 57.128906 130.148438 57.949219 130.0625 58.796875 C 129.980469 59.644531 130.023438 60.488281 130.1875 61.328125 C 130.355469 62.164062 130.640625 62.957031 131.042969 63.710938 C 131.445312 64.464844 131.945312 65.140625 132.550781 65.746094 L 148.882812 82.082031 C 149.40625 82.609375 149.859375 83.195312 150.234375 83.839844 C 150.609375 84.484375 150.898438 85.164062 151.09375 85.882812 C 151.292969 86.601562 151.398438 87.332031 151.40625 88.078125 C 151.417969 88.824219 151.332031 89.558594 151.152344 90.28125 L 143.433594 121.164062 C 143.226562 121.984375 143.144531 122.816406 143.183594 123.660156 C 143.222656 124.503906 143.382812 125.328125 143.664062 126.125 C 143.945312 126.921875 144.335938 127.664062 144.835938 128.34375 C 145.332031 129.027344 145.917969 129.625 146.59375 130.136719 C 147.265625 130.648438 148 131.050781 148.792969 131.34375 C 149.585938 131.640625 150.402344 131.816406 151.246094 131.871094 C 152.089844 131.925781 152.925781 131.855469 153.75 131.667969 C 154.574219 131.476562 155.351562 131.171875 156.085938 130.75 L 182.570312 115.609375 C 183.222656 115.238281 183.910156 114.957031 184.636719 114.761719 C 185.363281 114.570312 186.101562 114.472656 186.851562 114.472656 C 187.601562 114.472656 188.339844 114.570312 189.066406 114.761719 C 189.792969 114.957031 190.480469 115.238281 191.132812 115.609375 L 217.617188 130.75 C 218.351562 131.171875 219.132812 131.476562 219.957031 131.667969 C 220.777344 131.855469 221.613281 131.925781 222.457031 131.871094 C 223.300781 131.816406 224.121094 131.640625 224.910156 131.34375 C 225.703125 131.050781 226.4375 130.648438 227.113281 130.136719 C 227.785156 129.625 228.371094 129.027344 228.871094 128.34375 C 229.367188 127.664062 229.757812 126.921875 230.039062 126.125 C 230.320312 125.328125 230.480469 124.503906 230.519531 123.660156 C 230.558594 122.816406 230.476562 121.984375 230.269531 121.164062 L 222.554688 90.28125 C 222.371094 89.558594 222.289062 88.824219 222.296875 88.078125 C 222.304688 87.332031 222.410156 86.601562 222.609375 85.882812 C 222.808594 85.164062 223.09375 84.484375 223.46875 83.839844 C 223.84375 83.195312 224.296875 82.609375 224.824219 82.082031 L 241.152344 65.746094 C 241.757812 65.144531 242.257812 64.464844 242.660156 63.710938 C 243.0625 62.957031 243.347656 62.164062 243.515625 61.328125 C 243.683594 60.488281 243.722656 59.644531 243.640625 58.796875 C 243.554688 57.949219 243.351562 57.128906 243.023438 56.339844 C 242.699219 55.550781 242.265625 54.828125 241.722656 54.167969 C 241.179688 53.507812 240.554688 52.941406 239.847656 52.464844 C 239.136719 51.992188 238.375 51.628906 237.558594 51.382812 C 236.738281 51.132812 235.90625 51.007812 235.050781 51.007812 L 213.25 51.007812 C 212.40625 51.007812 211.582031 50.886719 210.769531 50.644531 C 209.960938 50.402344 209.207031 50.046875 208.5 49.582031 C 207.796875 49.117188 207.171875 48.5625 206.632812 47.914062 C 206.089844 47.265625 205.652344 46.554688 205.320312 45.777344 L 194.78125 21.183594 C 194.449219 20.40625 194.015625 19.691406 193.472656 19.046875 C 192.929688 18.398438 192.308594 17.839844 191.601562 17.375 C 190.898438 16.910156 190.140625 16.554688 189.332031 16.3125 C 188.523438 16.070312 187.695312 15.949219 186.851562 15.949219 C 186.007812 15.949219 185.179688 16.070312 184.371094 16.3125 C 183.5625 16.554688 182.804688 16.910156 182.101562 17.375 C 181.394531 17.839844 180.773438 18.398438 180.230469 19.042969 C 179.691406 19.691406 179.253906 20.40625 178.921875 21.179688 Z M 178.921875 21.179688 " fill-opacity="1" fill-rule="nonzero"/></g><path fill="#ffffff" d="M 51.464844 94.871094 L 42.777344 115.148438 C 42.503906 115.789062 42.144531 116.375 41.695312 116.910156 C 41.25 117.445312 40.738281 117.902344 40.15625 118.285156 C 39.574219 118.667969 38.949219 118.960938 38.285156 119.160156 C 37.617188 119.359375 36.9375 119.460938 36.238281 119.460938 L 18.269531 119.460938 C 17.566406 119.460938 16.875 119.5625 16.203125 119.769531 C 15.53125 119.972656 14.902344 120.269531 14.316406 120.660156 C 13.730469 121.054688 13.214844 121.519531 12.769531 122.0625 C 12.324219 122.609375 11.964844 123.207031 11.695312 123.855469 C 11.425781 124.503906 11.257812 125.179688 11.191406 125.878906 C 11.121094 126.582031 11.15625 127.277344 11.292969 127.964844 C 11.429688 128.65625 11.664062 129.3125 11.996094 129.933594 C 12.328125 130.550781 12.742188 131.113281 13.238281 131.609375 L 26.699219 145.078125 C 27.136719 145.511719 27.507812 145.992188 27.816406 146.523438 C 28.125 147.054688 28.363281 147.617188 28.527344 148.210938 C 28.691406 148.800781 28.777344 149.40625 28.785156 150.019531 C 28.792969 150.632812 28.722656 151.238281 28.570312 151.835938 L 22.210938 177.289062 C 22.042969 177.96875 21.972656 178.652344 22.003906 179.351562 C 22.039062 180.046875 22.171875 180.722656 22.402344 181.378906 C 22.632812 182.039062 22.953125 182.648438 23.363281 183.210938 C 23.777344 183.773438 24.257812 184.265625 24.816406 184.6875 C 25.371094 185.109375 25.976562 185.441406 26.628906 185.683594 C 27.28125 185.929688 27.957031 186.074219 28.652344 186.117188 C 29.347656 186.164062 30.035156 186.105469 30.714844 185.949219 C 31.394531 185.792969 32.035156 185.542969 32.640625 185.195312 L 54.472656 172.714844 C 55.011719 172.40625 55.578125 172.175781 56.175781 172.015625 C 56.773438 171.855469 57.382812 171.777344 58 171.777344 C 58.621094 171.777344 59.230469 171.855469 59.828125 172.015625 C 60.425781 172.175781 60.992188 172.40625 61.53125 172.714844 L 83.363281 185.195312 C 83.96875 185.542969 84.609375 185.792969 85.289062 185.949219 C 85.96875 186.105469 86.65625 186.164062 87.351562 186.117188 C 88.046875 186.074219 88.722656 185.929688 89.375 185.683594 C 90.027344 185.441406 90.632812 185.109375 91.1875 184.6875 C 91.742188 184.265625 92.226562 183.773438 92.636719 183.210938 C 93.050781 182.648438 93.371094 182.039062 93.601562 181.378906 C 93.832031 180.722656 93.964844 180.046875 93.996094 179.351562 C 94.03125 178.652344 93.960938 177.96875 93.792969 177.289062 L 87.429688 151.835938 C 87.28125 151.238281 87.210938 150.632812 87.21875 150.019531 C 87.226562 149.40625 87.3125 148.800781 87.476562 148.210938 C 87.640625 147.617188 87.878906 147.054688 88.1875 146.523438 C 88.496094 145.996094 88.867188 145.511719 89.300781 145.078125 L 102.765625 131.609375 C 103.261719 131.113281 103.675781 130.550781 104.007812 129.933594 C 104.339844 129.3125 104.574219 128.65625 104.710938 127.964844 C 104.847656 127.277344 104.882812 126.582031 104.8125 125.878906 C 104.746094 125.179688 104.574219 124.503906 104.304688 123.855469 C 104.039062 123.207031 103.679688 122.609375 103.234375 122.0625 C 102.789062 121.519531 102.273438 121.054688 101.6875 120.660156 C 101.101562 120.269531 100.472656 119.972656 99.800781 119.769531 C 99.125 119.5625 98.4375 119.460938 97.734375 119.460938 L 79.761719 119.460938 C 79.066406 119.460938 78.386719 119.359375 77.71875 119.160156 C 77.050781 118.960938 76.429688 118.667969 75.847656 118.285156 C 75.265625 117.902344 74.753906 117.445312 74.304688 116.910156 C 73.859375 116.375 73.5 115.789062 73.226562 115.148438 L 64.539062 94.871094 C 64.265625 94.234375 63.90625 93.644531 63.457031 93.113281 C 63.011719 92.578125 62.5 92.117188 61.917969 91.734375 C 61.335938 91.351562 60.710938 91.0625 60.046875 90.859375 C 59.378906 90.660156 58.699219 90.5625 58 90.5625 C 57.304688 90.5625 56.625 90.660156 55.957031 90.859375 C 55.289062 91.0625 54.667969 91.351562 54.085938 91.734375 C 53.503906 92.117188 52.992188 92.578125 52.542969 93.113281 C 52.097656 93.644531 51.738281 94.234375 51.464844 94.871094 Z M 51.464844 94.871094 " fill-opacity="1" fill-rule="nonzero"/><g clip-path="url(#f4f8549c75)"><path fill="#ffffff" d="M 148.195312 154.464844 L 225.507812 154.464844 C 226.035156 154.464844 226.5625 154.488281 227.085938 154.539062 C 227.609375 154.59375 228.132812 154.667969 228.648438 154.773438 C 229.167969 154.875 229.675781 155.003906 230.183594 155.15625 C 230.6875 155.308594 231.183594 155.488281 231.671875 155.6875 C 232.15625 155.890625 232.632812 156.117188 233.097656 156.363281 C 233.566406 156.613281 234.015625 156.882812 234.453125 157.175781 C 234.894531 157.46875 235.316406 157.785156 235.722656 158.121094 C 236.132812 158.453125 236.523438 158.808594 236.894531 159.179688 C 237.269531 159.554688 237.621094 159.945312 237.957031 160.351562 C 238.292969 160.757812 238.605469 161.183594 238.898438 161.621094 C 239.191406 162.058594 239.460938 162.511719 239.710938 162.976562 C 239.960938 163.441406 240.183594 163.917969 240.386719 164.40625 C 240.589844 164.894531 240.765625 165.390625 240.917969 165.894531 C 241.074219 166.398438 241.199219 166.910156 241.304688 167.425781 C 241.40625 167.945312 241.484375 168.464844 241.535156 168.992188 C 241.585938 169.515625 241.613281 170.042969 241.613281 170.570312 L 241.613281 350.960938 C 241.613281 351.488281 241.585938 352.011719 241.535156 352.539062 C 241.484375 353.0625 241.40625 353.585938 241.304688 354.101562 C 241.199219 354.621094 241.074219 355.128906 240.917969 355.636719 C 240.765625 356.140625 240.589844 356.636719 240.386719 357.125 C 240.183594 357.609375 239.960938 358.085938 239.710938 358.550781 C 239.460938 359.015625 239.191406 359.46875 238.898438 359.90625 C 238.605469 360.347656 238.292969 360.769531 237.957031 361.175781 C 237.621094 361.585938 237.269531 361.976562 236.894531 362.347656 C 236.523438 362.722656 236.132812 363.074219 235.722656 363.410156 C 235.316406 363.746094 234.894531 364.058594 234.453125 364.351562 C 234.015625 364.644531 233.566406 364.914062 233.097656 365.164062 C 232.632812 365.414062 232.15625 365.636719 231.671875 365.839844 C 231.183594 366.042969 230.6875 366.21875 230.183594 366.371094 C 229.675781 366.527344 229.167969 366.652344 228.648438 366.757812 C 228.132812 366.859375 227.609375 366.9375 227.085938 366.988281 C 226.5625 367.039062 226.035156 367.066406 225.507812 367.066406 L 148.195312 367.066406 C 147.667969 367.066406 147.144531 367.039062 146.617188 366.988281 C 146.09375 366.9375 145.570312 366.859375 145.054688 366.757812 C 144.539062 366.652344 144.027344 366.527344 143.519531 366.371094 C 143.015625 366.21875 142.519531 366.042969 142.03125 365.839844 C 141.546875 365.636719 141.070312 365.414062 140.605469 365.164062 C 140.140625 364.914062 139.6875 364.644531 139.25 364.351562 C 138.808594 364.058594 138.386719 363.746094 137.980469 363.410156 C 137.570312 363.074219 137.179688 362.722656 136.808594 362.347656 C 136.433594 361.976562 136.082031 361.585938 135.746094 361.175781 C 135.410156 360.769531 135.097656 360.347656 134.804688 359.90625 C 134.511719 359.46875 134.242188 359.015625 133.992188 358.550781 C 133.742188 358.085938 133.519531 357.609375 133.316406 357.125 C 133.113281 356.636719 132.9375 356.140625 132.785156 355.636719 C 132.628906 355.128906 132.503906 354.621094 132.398438 354.101562 C 132.296875 353.585938 132.21875 353.0625 132.167969 352.539062 C 132.117188 352.011719 132.089844 351.488281 132.089844 350.960938 L 132.089844 170.570312 C 132.089844 170.042969 132.117188 169.515625 132.167969 168.992188 C 132.21875 168.464844 132.296875 167.945312 132.398438 167.425781 C 132.503906 166.910156 132.628906 166.398438 132.785156 165.894531 C 132.9375 165.390625 133.113281 164.894531 133.316406 164.40625 C 133.519531 163.917969 133.742188 163.441406 133.992188 162.976562 C 134.242188 162.511719 134.511719 162.058594 134.804688 161.621094 C 135.097656 161.183594 135.410156 160.757812 135.746094 160.351562 C 136.082031 159.945312 136.433594 159.554688 136.808594 159.179688 C 137.179688 158.808594 137.570312 158.453125 137.980469 158.117188 C 138.386719 157.785156 138.808594 157.46875 139.25 157.175781 C 139.6875 156.882812 140.140625 156.613281 140.605469 156.363281 C 141.070312 156.117188 141.546875 155.890625 142.03125 155.6875 C 142.519531 155.488281 143.015625 155.308594 143.519531 155.15625 C 144.027344 155.003906 144.539062 154.875 145.054688 154.773438 C 145.570312 154.667969 146.09375 154.59375 146.617188 154.539062 C 147.144531 154.488281 147.667969 154.464844 148.195312 154.464844 Z M 148.195312 154.464844 " fill-opacity="1" fill-rule="nonzero"/></g><g clip-path="url(#0d096d8b33)"><path fill="#ffffff" d="M 25.789062 206.003906 L 90.214844 206.003906 C 90.742188 206.003906 91.269531 206.027344 91.792969 206.082031 C 92.316406 206.132812 92.839844 206.210938 93.355469 206.3125 C 93.875 206.414062 94.382812 206.542969 94.890625 206.695312 C 95.394531 206.851562 95.890625 207.027344 96.378906 207.230469 C 96.863281 207.429688 97.339844 207.65625 97.804688 207.90625 C 98.273438 208.152344 98.722656 208.425781 99.164062 208.71875 C 99.601562 209.011719 100.023438 209.324219 100.433594 209.660156 C 100.839844 209.992188 101.230469 210.347656 101.601562 210.71875 C 101.976562 211.09375 102.328125 211.484375 102.664062 211.890625 C 103 212.300781 103.3125 212.722656 103.605469 213.160156 C 103.898438 213.601562 104.171875 214.050781 104.417969 214.515625 C 104.667969 214.980469 104.890625 215.457031 105.09375 215.945312 C 105.296875 216.433594 105.472656 216.929688 105.625 217.433594 C 105.78125 217.9375 105.90625 218.449219 106.011719 218.96875 C 106.113281 219.484375 106.191406 220.007812 106.242188 220.53125 C 106.292969 221.054688 106.320312 221.582031 106.320312 222.109375 L 106.320312 350.960938 C 106.320312 351.488281 106.292969 352.011719 106.242188 352.539062 C 106.191406 353.0625 106.113281 353.585938 106.011719 354.101562 C 105.90625 354.621094 105.78125 355.128906 105.625 355.636719 C 105.472656 356.140625 105.296875 356.636719 105.09375 357.125 C 104.890625 357.609375 104.667969 358.085938 104.417969 358.550781 C 104.171875 359.015625 103.898438 359.46875 103.605469 359.90625 C 103.3125 360.347656 103 360.769531 102.664062 361.175781 C 102.328125 361.585938 101.976562 361.976562 101.601562 362.347656 C 101.230469 362.722656 100.839844 363.074219 100.433594 363.410156 C 100.023438 363.746094 99.601562 364.058594 99.164062 364.351562 C 98.722656 364.644531 98.273438 364.914062 97.804688 365.164062 C 97.339844 365.414062 96.863281 365.636719 96.378906 365.839844 C 95.890625 366.042969 95.394531 366.21875 94.890625 366.371094 C 94.382812 366.527344 93.875 366.652344 93.355469 366.757812 C 92.839844 366.859375 92.316406 366.9375 91.792969 366.988281 C 91.269531 367.039062 90.742188 367.066406 90.214844 367.066406 L 25.789062 367.066406 C 25.261719 367.066406 24.734375 367.039062 24.210938 366.988281 C 23.683594 366.9375 23.164062 366.859375 22.648438 366.757812 C 22.128906 366.652344 21.617188 366.527344 21.113281 366.371094 C 20.609375 366.21875 20.113281 366.042969 19.625 365.839844 C 19.136719 365.636719 18.660156 365.414062 18.195312 365.164062 C 17.730469 364.914062 17.28125 364.644531 16.839844 364.351562 C 16.402344 364.058594 15.980469 363.746094 15.570312 363.410156 C 15.164062 363.074219 14.773438 362.722656 14.398438 362.347656 C 14.027344 361.976562 13.671875 361.585938 13.339844 361.175781 C 13.003906 360.769531 12.691406 360.347656 12.398438 359.90625 C 12.105469 359.46875 11.832031 359.015625 11.585938 358.550781 C 11.335938 358.085938 11.109375 357.609375 10.910156 357.125 C 10.707031 356.636719 10.53125 356.140625 10.375 355.636719 C 10.222656 355.128906 10.09375 354.621094 9.992188 354.101562 C 9.890625 353.585938 9.8125 353.0625 9.761719 352.539062 C 9.707031 352.011719 9.683594 351.488281 9.683594 350.960938 L 9.683594 222.109375 C 9.683594 221.582031 9.707031 221.054688 9.761719 220.53125 C 9.8125 220.007812 9.890625 219.484375 9.992188 218.96875 C 10.09375 218.449219 10.222656 217.9375 10.375 217.433594 C 10.53125 216.929688 10.707031 216.433594 10.910156 215.945312 C 11.109375 215.457031 11.335938 214.980469 11.585938 214.515625 C 11.832031 214.050781 12.105469 213.601562 12.398438 213.160156 C 12.691406 212.722656 13.003906 212.300781 13.339844 211.890625 C 13.671875 211.484375 14.027344 211.09375 14.398438 210.71875 C 14.773438 210.347656 15.164062 209.992188 15.570312 209.660156 C 15.980469 209.324219 16.402344 209.011719 16.839844 208.71875 C 17.28125 208.425781 17.730469 208.152344 18.195312 207.90625 C 18.660156 207.65625 19.136719 207.429688 19.625 207.230469 C 20.113281 207.027344 20.609375 206.851562 21.113281 206.695312 C 21.617188 206.542969 22.128906 206.414062 22.648438 206.3125 C 23.164062 206.210938 23.683594 206.132812 24.210938 206.082031 C 24.734375 206.027344 25.261719 206.003906 25.789062 206.003906 Z M 25.789062 206.003906 " fill-opacity="1" fill-rule="nonzero"/></g><g clip-path="url(#d8ab06ad35)"><path fill="#ffffff" d="M 283.488281 231.773438 L 347.914062 231.773438 C 348.441406 231.773438 348.96875 231.800781 349.492188 231.851562 C 350.019531 231.902344 350.539062 231.980469 351.058594 232.082031 C 351.574219 232.1875 352.085938 232.3125 352.589844 232.46875 C 353.09375 232.621094 353.589844 232.796875 354.078125 233 C 354.566406 233.203125 355.042969 233.425781 355.507812 233.675781 C 355.972656 233.921875 356.425781 234.195312 356.863281 234.488281 C 357.300781 234.78125 357.722656 235.09375 358.132812 235.429688 C 358.539062 235.765625 358.929688 236.117188 359.304688 236.492188 C 359.675781 236.863281 360.03125 237.253906 360.363281 237.660156 C 360.699219 238.070312 361.011719 238.492188 361.304688 238.929688 C 361.597656 239.371094 361.871094 239.820312 362.117188 240.289062 C 362.367188 240.753906 362.59375 241.230469 362.792969 241.714844 C 362.996094 242.203125 363.175781 242.699219 363.328125 243.203125 C 363.480469 243.707031 363.609375 244.21875 363.710938 244.738281 C 363.8125 245.253906 363.890625 245.777344 363.941406 246.300781 C 363.996094 246.824219 364.019531 247.351562 364.019531 247.878906 L 364.019531 350.960938 C 364.019531 351.488281 363.996094 352.011719 363.941406 352.539062 C 363.890625 353.0625 363.8125 353.585938 363.710938 354.101562 C 363.609375 354.621094 363.480469 355.128906 363.328125 355.636719 C 363.175781 356.140625 362.996094 356.636719 362.792969 357.125 C 362.59375 357.609375 362.367188 358.085938 362.117188 358.550781 C 361.871094 359.015625 361.597656 359.46875 361.304688 359.90625 C 361.011719 360.347656 360.699219 360.769531 360.363281 361.175781 C 360.03125 361.585938 359.675781 361.976562 359.304688 362.347656 C 358.929688 362.722656 358.539062 363.074219 358.132812 363.410156 C 357.722656 363.746094 357.300781 364.058594 356.863281 364.351562 C 356.425781 364.644531 355.972656 364.914062 355.507812 365.164062 C 355.042969 365.414062 354.566406 365.636719 354.078125 365.839844 C 353.589844 366.042969 353.09375 366.21875 352.589844 366.371094 C 352.085938 366.527344 351.574219 366.652344 351.058594 366.757812 C 350.539062 366.859375 350.019531 366.9375 349.492188 366.988281 C 348.96875 367.039062 348.441406 367.066406 347.914062 367.066406 L 283.488281 367.066406 C 282.960938 367.066406 282.4375 367.039062 281.910156 366.988281 C 281.386719 366.9375 280.863281 366.859375 280.347656 366.757812 C 279.828125 366.652344 279.320312 366.527344 278.8125 366.371094 C 278.308594 366.21875 277.8125 366.042969 277.324219 365.839844 C 276.839844 365.636719 276.363281 365.414062 275.898438 365.164062 C 275.433594 364.914062 274.980469 364.644531 274.542969 364.351562 C 274.101562 364.058594 273.679688 363.746094 273.273438 363.410156 C 272.863281 363.074219 272.472656 362.722656 272.101562 362.347656 C 271.726562 361.976562 271.375 361.585938 271.039062 361.175781 C 270.703125 360.769531 270.390625 360.347656 270.097656 359.90625 C 269.804688 359.46875 269.535156 359.015625 269.285156 358.550781 C 269.035156 358.085938 268.8125 357.609375 268.609375 357.125 C 268.40625 356.636719 268.230469 356.140625 268.078125 355.636719 C 267.921875 355.128906 267.796875 354.621094 267.691406 354.101562 C 267.589844 353.585938 267.511719 353.0625 267.460938 352.539062 C 267.410156 352.011719 267.382812 351.488281 267.382812 350.960938 L 267.382812 247.878906 C 267.382812 247.351562 267.410156 246.824219 267.460938 246.300781 C 267.511719 245.777344 267.589844 245.253906 267.691406 244.738281 C 267.796875 244.21875 267.921875 243.707031 268.078125 243.203125 C 268.230469 242.699219 268.40625 242.203125 268.609375 241.714844 C 268.8125 241.230469 269.035156 240.753906 269.285156 240.289062 C 269.535156 239.820312 269.804688 239.371094 270.097656 238.929688 C 270.390625 238.492188 270.703125 238.070312 271.039062 237.660156 C 271.375 237.253906 271.726562 236.863281 272.101562 236.492188 C 272.472656 236.117188 272.863281 235.765625 273.273438 235.429688 C 273.679688 235.09375 274.101562 234.78125 274.542969 234.488281 C 274.980469 234.195312 275.433594 233.921875 275.898438 233.675781 C 276.363281 233.425781 276.839844 233.203125 277.324219 233 C 277.8125 232.796875 278.308594 232.621094 278.8125 232.46875 C 279.320312 232.3125 279.828125 232.1875 280.347656 232.082031 C 280.863281 231.980469 281.386719 231.902344 281.910156 231.851562 C 282.4375 231.800781 282.960938 231.773438 283.488281 231.773438 Z M 283.488281 231.773438 " fill-opacity="1" fill-rule="nonzero"/></g><path fill="#ffffff" d="M 309.164062 120.644531 L 300.476562 140.917969 C 300.203125 141.558594 299.84375 142.144531 299.398438 142.679688 C 298.949219 143.214844 298.4375 143.671875 297.855469 144.054688 C 297.273438 144.4375 296.652344 144.730469 295.984375 144.929688 C 295.316406 145.132812 294.636719 145.230469 293.941406 145.230469 L 275.96875 145.230469 C 275.265625 145.230469 274.578125 145.335938 273.902344 145.539062 C 273.230469 145.742188 272.601562 146.039062 272.015625 146.433594 C 271.433594 146.824219 270.917969 147.289062 270.46875 147.835938 C 270.023438 148.378906 269.667969 148.976562 269.398438 149.625 C 269.128906 150.277344 268.957031 150.949219 268.890625 151.652344 C 268.820312 152.351562 268.855469 153.046875 268.992188 153.734375 C 269.128906 154.425781 269.363281 155.082031 269.695312 155.703125 C 270.027344 156.324219 270.441406 156.882812 270.941406 157.378906 L 284.402344 170.847656 C 284.835938 171.28125 285.207031 171.765625 285.515625 172.292969 C 285.828125 172.824219 286.0625 173.386719 286.226562 173.980469 C 286.390625 174.570312 286.476562 175.175781 286.484375 175.789062 C 286.492188 176.402344 286.421875 177.007812 286.273438 177.605469 L 279.910156 203.0625 C 279.742188 203.738281 279.671875 204.421875 279.707031 205.121094 C 279.738281 205.816406 279.871094 206.492188 280.101562 207.152344 C 280.332031 207.808594 280.65625 208.417969 281.066406 208.980469 C 281.476562 209.542969 281.960938 210.035156 282.515625 210.457031 C 283.070312 210.878906 283.675781 211.210938 284.328125 211.453125 C 284.980469 211.699219 285.65625 211.84375 286.351562 211.886719 C 287.046875 211.933594 287.734375 211.875 288.414062 211.71875 C 289.09375 211.5625 289.734375 211.3125 290.339844 210.964844 L 312.171875 198.484375 C 312.710938 198.175781 313.277344 197.945312 313.875 197.785156 C 314.472656 197.625 315.082031 197.546875 315.703125 197.546875 C 316.320312 197.546875 316.929688 197.625 317.527344 197.785156 C 318.125 197.945312 318.695312 198.175781 319.230469 198.484375 L 341.0625 210.964844 C 341.667969 211.3125 342.3125 211.5625 342.988281 211.71875 C 343.667969 211.875 344.355469 211.933594 345.050781 211.886719 C 345.746094 211.84375 346.421875 211.699219 347.074219 211.453125 C 347.730469 211.210938 348.332031 210.878906 348.890625 210.457031 C 349.445312 210.035156 349.925781 209.542969 350.339844 208.980469 C 350.75 208.417969 351.070312 207.808594 351.300781 207.152344 C 351.535156 206.492188 351.664062 205.816406 351.699219 205.121094 C 351.730469 204.421875 351.664062 203.738281 351.492188 203.0625 L 345.132812 177.605469 C 344.984375 177.007812 344.910156 176.402344 344.917969 175.789062 C 344.925781 175.175781 345.011719 174.570312 345.175781 173.980469 C 345.339844 173.386719 345.578125 172.824219 345.886719 172.296875 C 346.195312 171.765625 346.566406 171.28125 347.003906 170.847656 L 360.464844 157.378906 C 360.960938 156.882812 361.375 156.324219 361.707031 155.703125 C 362.039062 155.082031 362.273438 154.425781 362.410156 153.734375 C 362.550781 153.046875 362.582031 152.351562 362.515625 151.652344 C 362.445312 150.949219 362.277344 150.277344 362.007812 149.625 C 361.738281 148.976562 361.378906 148.378906 360.933594 147.835938 C 360.488281 147.289062 359.972656 146.824219 359.386719 146.433594 C 358.800781 146.039062 358.171875 145.742188 357.5 145.539062 C 356.828125 145.332031 356.136719 145.230469 355.433594 145.230469 L 337.464844 145.230469 C 336.769531 145.230469 336.085938 145.132812 335.417969 144.929688 C 334.753906 144.730469 334.128906 144.4375 333.546875 144.054688 C 332.96875 143.671875 332.453125 143.214844 332.007812 142.679688 C 331.558594 142.144531 331.199219 141.558594 330.925781 140.917969 L 322.238281 120.644531 C 321.964844 120.003906 321.605469 119.414062 321.160156 118.882812 C 320.710938 118.347656 320.199219 117.890625 319.617188 117.507812 C 319.035156 117.121094 318.414062 116.832031 317.746094 116.632812 C 317.078125 116.429688 316.398438 116.332031 315.703125 116.332031 C 315.007812 116.332031 314.324219 116.429688 313.65625 116.632812 C 312.992188 116.832031 312.367188 117.121094 311.785156 117.507812 C 311.203125 117.890625 310.691406 118.347656 310.246094 118.882812 C 309.796875 119.414062 309.4375 120.003906 309.164062 120.644531 Z M 309.164062 120.644531 " fill-opacity="1" fill-rule="nonzero"/></svg>