<svg xmlns="http://www.w3.org/2000/svg" xmlns:xlink="http://www.w3.org/1999/xlink" width="500" zoomAndPan="magnify" viewBox="0 0 375 374.999991" height="500" preserveAspectRatio="xMidYMid meet" version="1.0"><defs><clipPath id="6220283196"><path d="M 12.261719 252 L 362.511719 252 L 362.511719 366.199219 L 12.261719 366.199219 Z M 12.261719 252 " clip-rule="nonzero"/></clipPath><clipPath id="fdc9a0e050"><path d="M 88 15.949219 L 287 15.949219 L 287 332 L 88 332 Z M 88 15.949219 " clip-rule="nonzero"/></clipPath></defs><g clip-path="url(#6220283196)"><path fill="#ffffff" d="M 247.253906 252.925781 C 247.253906 252.925781 246.785156 252.925781 246.609375 252.925781 L 246.550781 252.925781 L 246.550781 259.003906 C 246.550781 259.003906 245.96875 264.550781 245.96875 264.550781 C 314.953125 272.496094 351.050781 292.472656 351.050781 308.066406 C 351.050781 329.796875 287.792969 353.6875 193.398438 354.738281 C 191.46875 354.738281 189.484375 354.738281 187.496094 354.738281 C 185.511719 354.738281 183.527344 354.738281 181.421875 354.738281 C 87.203125 353.6875 23.945312 329.796875 23.945312 308.066406 C 23.945312 292.472656 60.042969 272.554688 129.027344 264.550781 L 128.382812 259.003906 L 128.382812 252.867188 C 128.382812 252.867188 127.917969 252.867188 127.683594 252.867188 C 71.839844 259.292969 12.203125 277.167969 12.203125 307.953125 C 12.203125 344.632812 99.296875 365.429688 181.1875 366.304688 C 183.234375 366.304688 185.335938 366.304688 187.4375 366.304688 C 189.542969 366.304688 191.644531 366.304688 193.632812 366.304688 C 275.582031 365.429688 362.675781 344.632812 362.675781 307.953125 C 362.675781 277.109375 303.035156 259.292969 247.195312 252.867188 Z M 247.253906 252.925781 " fill-opacity="1" fill-rule="nonzero"/></g><path fill="#ffffff" d="M 181.015625 148.894531 C 181.363281 148.894531 181.65625 148.894531 182.007812 148.835938 C 183.699219 148.542969 185.160156 147.550781 186.039062 146.089844 L 221.085938 87.679688 L 211.097656 81.664062 L 179.554688 134.234375 L 161.445312 119.105469 L 153.96875 128.101562 L 177.335938 147.550781 C 178.386719 148.429688 179.730469 148.894531 181.074219 148.894531 Z M 181.015625 148.894531 " fill-opacity="1" fill-rule="nonzero"/><g clip-path="url(#fdc9a0e050)"><path fill="#ffffff" d="M 182.242188 328.105469 C 183.234375 330.089844 185.277344 331.375 187.496094 331.375 C 189.71875 331.375 191.761719 330.089844 192.753906 328.105469 L 276.285156 159.351562 C 294.566406 121.207031 288.726562 77.867188 261.507812 48.953125 C 241.414062 27.632812 215.183594 15.890625 187.496094 15.890625 C 159.808594 15.890625 133.582031 27.632812 113.488281 48.953125 C 86.269531 77.867188 80.488281 121.207031 98.710938 159.351562 C 98.710938 159.351562 182.183594 328.105469 182.183594 328.105469 Z M 187.496094 50.996094 C 223.011719 50.996094 251.75 79.734375 251.75 115.25 C 251.75 150.765625 223.011719 179.503906 187.496094 179.503906 C 151.984375 179.503906 123.246094 150.765625 123.246094 115.25 C 123.246094 79.734375 151.984375 50.996094 187.496094 50.996094 Z M 187.496094 50.996094 " fill-opacity="1" fill-rule="nonzero"/></g></svg>