<svg xmlns="http://www.w3.org/2000/svg" xmlns:xlink="http://www.w3.org/1999/xlink" width="500" zoomAndPan="magnify" viewBox="0 0 375 374.999991" height="500" preserveAspectRatio="xMidYMid meet" version="1.0"><defs><clipPath id="5bf8c525c6"><path d="M 141 326 L 235 326 L 235 366.199219 L 141 366.199219 Z M 141 326 " clip-rule="nonzero"/></clipPath><clipPath id="324d696257"><path d="M 84.546875 16 L 290.796875 16 L 290.796875 342 L 84.546875 342 Z M 84.546875 16 " clip-rule="nonzero"/></clipPath></defs><g clip-path="url(#5bf8c525c6)"><path fill="#4c5454" d="M 234.046875 346.351562 C 234.046875 357.207031 213.441406 366.011719 188.019531 366.011719 C 162.597656 366.011719 141.992188 357.207031 141.992188 346.351562 C 141.992188 335.5 162.597656 326.691406 188.019531 326.691406 C 213.441406 326.691406 234.046875 335.5 234.046875 346.351562 " fill-opacity="1" fill-rule="nonzero"/></g><path fill="#4c5454" d="M 233.105469 341.59375 C 233.105469 352.449219 212.710938 361.253906 187.550781 361.253906 C 162.390625 361.253906 141.992188 352.449219 141.992188 341.59375 C 141.992188 330.734375 162.390625 321.933594 187.550781 321.933594 C 212.710938 321.933594 233.105469 330.734375 233.105469 341.59375 " fill-opacity="1" fill-rule="nonzero"/><g clip-path="url(#324d696257)"><path fill="#1ea896" d="M 189.304688 16.359375 C 188.699219 16.359375 188.097656 16.394531 187.5 16.410156 C 186.894531 16.394531 186.292969 16.359375 185.6875 16.359375 C 129.804688 16.359375 84.5 63.59375 84.5 121.847656 C 84.5 131.789062 88.355469 154.777344 94.148438 164.316406 L 187.5 341.59375 L 280.84375 164.316406 C 286.636719 154.777344 290.492188 131.789062 290.492188 121.847656 C 290.492188 63.59375 245.191406 16.359375 189.304688 16.359375 " fill-opacity="1" fill-rule="nonzero"/></g><path fill="#ffffff" d="M 243.382812 110.09375 C 243.382812 140.960938 218.355469 165.976562 187.5 165.976562 C 156.632812 165.976562 131.609375 140.960938 131.609375 110.09375 C 131.609375 79.230469 156.632812 54.214844 187.5 54.214844 C 218.355469 54.214844 243.382812 79.230469 243.382812 110.09375 " fill-opacity="1" fill-rule="nonzero"/></svg>