<svg xmlns="http://www.w3.org/2000/svg" xmlns:xlink="http://www.w3.org/1999/xlink" width="500" zoomAndPan="magnify" viewBox="0 0 375 374.999991" height="500" preserveAspectRatio="xMidYMid meet" version="1.0"><defs><clipPath id="cae7de1d69"><path d="M 10.125 8.910156 L 367.125 8.910156 L 367.125 365.910156 L 10.125 365.910156 Z M 10.125 8.910156 " clip-rule="nonzero"/></clipPath></defs><g clip-path="url(#cae7de1d69)"><path fill="#ffffff" d="M 255.925781 197.890625 L 255.925781 279.554688 C 255.925781 279.554688 257.324219 293.203125 243.949219 293.203125 C 230.585938 293.203125 228.074219 280.941406 228.074219 280.941406 L 228.074219 197.878906 C 211.015625 189.964844 198.667969 168.246094 198.667969 142.394531 C 198.667969 109.871094 218.066406 83.511719 242.015625 83.511719 C 265.964844 83.511719 285.386719 109.871094 285.386719 142.394531 C 285.386719 168.269531 273.015625 190 255.925781 197.890625 Z M 149.105469 201.269531 L 149.105469 275.65625 C 149.105469 275.65625 149.410156 291.675781 136.109375 291.675781 C 122.800781 291.675781 122.800781 275.960938 122.800781 275.960938 L 122.800781 200.960938 C 122.800781 200.960938 95.15625 195.820312 92.746094 168.609375 C 90.324219 141.371094 94.859375 94.507812 94.859375 94.507812 C 94.859375 94.507812 96.679688 84.816406 103.023438 84.816406 C 109.382812 84.816406 110.585938 95.417969 110.585938 95.417969 L 110.585938 152.5625 C 110.210938 156.25 114.375 160.421875 120.5625 160.421875 C 129.03125 160.421875 129.03125 154.378906 129.03125 154.378906 L 129.03125 96.007812 C 129.03125 96.007812 130.253906 83.921875 137.507812 83.921875 C 144.761719 83.921875 144.761719 96.316406 144.761719 96.316406 L 144.761719 155.054688 C 144.761719 155.054688 144.558594 161.839844 152.359375 161.839844 C 162.023438 161.839844 161.839844 155.507812 161.839844 155.507812 L 161.839844 96.007812 C 161.839844 96.007812 161.089844 81.804688 171.371094 81.804688 C 179.539062 81.804688 179.84375 95.710938 179.84375 95.710938 C 179.84375 95.710938 180.628906 162.070312 180.628906 170.234375 C 180.628906 178.398438 172.394531 193.101562 149.105469 201.269531 Z M 188.71875 8.921875 C 90.246094 8.921875 10.136719 89.03125 10.136719 187.496094 C 10.136719 285.964844 90.246094 366.074219 188.71875 366.074219 C 287.183594 366.074219 367.292969 285.964844 367.292969 187.496094 C 367.292969 89.03125 287.183594 8.921875 188.71875 8.921875 " fill-opacity="1" fill-rule="nonzero"/></g></svg>