<svg xmlns="http://www.w3.org/2000/svg" xmlns:xlink="http://www.w3.org/1999/xlink" width="500" zoomAndPan="magnify" viewBox="0 0 375 374.999991" height="500" preserveAspectRatio="xMidYMid meet" version="1.0"><defs><clipPath id="973614cf17"><path d="M 12.261719 118 L 155 118 L 155 365 L 12.261719 365 Z M 12.261719 118 " clip-rule="nonzero"/></clipPath><clipPath id="3c83a12d58"><path d="M 159 204 L 362.511719 204 L 362.511719 365 L 159 365 Z M 159 204 " clip-rule="nonzero"/></clipPath></defs><path fill="#ffffff" d="M 89.59375 98.441406 C 109.824219 98.441406 124.46875 71.300781 124.46875 53.011719 C 124.46875 33.789062 108.816406 18.140625 89.59375 18.140625 C 70.363281 18.140625 54.722656 33.789062 54.722656 53.011719 C 54.722656 71.300781 59.367188 98.441406 89.59375 98.441406 Z M 89.59375 98.441406 " fill-opacity="1" fill-rule="nonzero"/><path fill="#ffffff" d="M 182.339844 244.765625 C 165.835938 224.941406 145.089844 224.523438 124.46875 222.289062 C 124.074219 206.660156 123.25 191.886719 122.144531 178.601562 C 130.492188 186.355469 139.328125 192.980469 146.054688 193.59375 C 150.542969 194.011719 157.464844 194.242188 165.253906 194.285156 L 182.527344 194.285156 C 197.15625 194.109375 206.566406 194.285156 210.058594 194.285156 C 228.261719 194.285156 224.054688 174.605469 209.828125 172.050781 C 199.753906 170.234375 154.34375 163.890625 154.34375 163.890625 C 140.886719 154.515625 115.179688 124.191406 108.894531 116.667969 C 108.574219 116.273438 107.402344 114.957031 107.402344 114.957031 C 101.917969 108.703125 94 104.5625 83.363281 105.242188 C 65.128906 106.394531 44.613281 112.800781 41.253906 148.878906 C 39.914062 163.015625 42.292969 232.660156 47.898438 251.859375 C 54.722656 275.144531 95.257812 271.839844 111.488281 272.035156 C 121.707031 272.144531 132.253906 272.253906 140.929688 274.367188 C 150.292969 276.636719 155.429688 277.882812 164.367188 290.839844 C 175.429688 306.851562 193.859375 361.351562 214.625 361.351562 C 224.539062 361.351562 231.644531 352.382812 227.167969 339.292969 C 223.992188 330.039062 208.40625 276.085938 182.339844 244.765625 Z M 182.339844 244.765625 " fill-opacity="1" fill-rule="nonzero"/><g clip-path="url(#973614cf17)"><path fill="#ffffff" d="M 124.46875 281.453125 L 61.109375 281.453125 C 46.617188 281.453125 38.121094 276.261719 33.53125 264.652344 C 29.0625 253.351562 29.0625 238.105469 29.0625 224.054688 L 29.0625 126.621094 C 29.0625 121.988281 25.292969 118.222656 20.660156 118.222656 C 16.027344 118.222656 12.261719 121.988281 12.261719 126.621094 L 12.261719 224.675781 C 12.261719 239.59375 12.261719 256.539062 17.902344 270.820312 C 25.097656 289.023438 39.632812 298.253906 61.109375 298.253906 L 124.46875 298.253906 C 136.4375 298.253906 137.972656 305.460938 137.972656 311.75 L 137.972656 355.65625 C 137.972656 360.300781 141.726562 364.054688 146.371094 364.054688 C 151.003906 364.054688 154.773438 360.300781 154.773438 355.65625 L 154.773438 311.75 C 154.773438 293.0625 143.152344 281.453125 124.46875 281.453125 Z M 124.46875 281.453125 " fill-opacity="1" fill-rule="nonzero"/></g><g clip-path="url(#3c83a12d58)"><path fill="#ffffff" d="M 354.332031 204.449219 L 168.125 204.449219 C 163.492188 204.449219 159.722656 208.207031 159.722656 212.847656 C 159.722656 217.492188 163.492188 221.25 168.125 221.25 L 243.726562 221.25 L 243.726562 364.066406 L 331.925781 364.066406 L 331.925781 221.25 L 354.324219 221.25 C 358.957031 221.25 362.722656 217.492188 362.722656 212.847656 C 362.722656 208.207031 358.964844 204.449219 354.332031 204.449219 Z M 354.332031 204.449219 " fill-opacity="1" fill-rule="nonzero"/></g><path fill="#ffffff" d="M 191.363281 163.125 L 234.8125 163.125 L 234.8125 198.839844 L 267.492188 198.839844 L 267.492188 163.125 L 304.140625 163.125 C 308.75 163.125 313.394531 159.433594 314.421875 154.945312 L 332.867188 74.972656 C 333.898438 70.480469 330.960938 66.789062 326.351562 66.789062 L 213.5625 66.789062 C 208.953125 66.789062 204.308594 70.480469 203.28125 74.972656 L 184.835938 154.945312 C 183.816406 159.433594 186.742188 163.125 191.363281 163.125 Z M 216.75 81.355469 L 316.4375 81.355469 L 300.941406 148.570312 L 201.253906 148.570312 Z M 216.75 81.355469 " fill-opacity="1" fill-rule="nonzero"/></svg>