<svg xmlns="http://www.w3.org/2000/svg" xmlns:xlink="http://www.w3.org/1999/xlink" width="500" zoomAndPan="magnify" viewBox="0 0 375 374.999991" height="500" preserveAspectRatio="xMidYMid meet" version="1.0"><defs><clipPath id="1c40b5f03c"><path d="M 8 28 L 366.945312 28 L 366.945312 347.421875 L 8 347.421875 Z M 8 28 " clip-rule="nonzero"/></clipPath></defs><g clip-path="url(#1c40b5f03c)"><path fill="#ffffff" d="M 173.863281 328.09375 C 174.664062 331.03125 173.0625 333.972656 170.121094 334.773438 C 165.84375 335.84375 161.566406 337.179688 157.023438 338.25 C 157.023438 338.25 157.023438 338.25 156.753906 338.25 L 154.351562 338.785156 C 153.816406 338.785156 153.546875 339.050781 153.011719 339.050781 C 150.609375 339.050781 148.46875 337.449219 147.933594 335.042969 C 147.132812 332.101562 149.003906 329.160156 151.675781 328.628906 L 154.351562 328.09375 C 154.351562 328.09375 154.351562 328.09375 154.617188 328.09375 C 158.894531 327.023438 163.171875 325.953125 167.179688 324.617188 C 170.121094 323.816406 173.0625 325.417969 173.863281 328.09375 Z M 131.363281 333.4375 C 127.085938 334.507812 122.808594 335.308594 118.265625 336.378906 C 115.324219 336.914062 113.453125 339.851562 114.257812 342.792969 C 114.789062 345.199219 116.929688 347.070312 119.601562 347.070312 C 119.871094 347.070312 120.402344 347.070312 120.671875 347.070312 C 125.214844 346 129.492188 345.199219 133.769531 344.128906 C 136.707031 343.59375 138.3125 340.65625 137.777344 337.714844 C 137.242188 334.773438 134.304688 332.902344 131.363281 333.4375 Z M 224.648438 203.800781 C 225.71875 204.601562 226.785156 204.871094 227.855469 204.871094 C 229.460938 204.871094 231.0625 204.066406 232.132812 202.730469 C 232.667969 202.199219 233.203125 201.664062 233.734375 200.859375 C 236.140625 198.1875 239.082031 195.515625 242.824219 192.84375 C 245.230469 190.972656 245.765625 187.761719 243.894531 185.359375 C 242.023438 182.953125 238.816406 182.417969 236.410156 184.289062 C 232.132812 187.496094 228.390625 190.703125 225.71875 193.910156 C 224.914062 194.714844 224.382812 195.515625 223.847656 196.316406 C 221.976562 198.722656 222.242188 202.199219 224.648438 203.800781 Z M 202.730469 313.390625 C 198.722656 314.726562 194.445312 316.332031 190.167969 317.667969 L 187.761719 318.46875 C 184.820312 319.273438 183.484375 322.480469 184.285156 325.152344 C 185.089844 327.558594 187.226562 328.894531 189.367188 328.894531 C 189.898438 328.894531 190.433594 328.894531 190.96875 328.628906 L 193.640625 327.824219 C 198.1875 326.488281 202.464844 324.886719 206.472656 323.546875 C 209.144531 322.480469 210.75 319.539062 209.679688 316.597656 C 208.609375 313.925781 205.402344 312.589844 202.730469 313.390625 Z M 242.558594 251.648438 C 246.300781 254.855469 249.238281 257.257812 251.914062 259.933594 C 251.914062 259.933594 251.914062 259.933594 252.179688 260.199219 C 252.714844 260.734375 253.25 261.269531 253.785156 262.070312 C 254.851562 263.140625 256.1875 263.941406 257.792969 263.941406 C 259.128906 263.941406 260.199219 263.40625 261.265625 262.605469 C 263.40625 260.734375 263.671875 257.257812 261.800781 255.121094 C 261.265625 254.320312 260.464844 253.785156 259.929688 253.25 C 259.929688 253.25 259.929688 253.25 259.664062 252.984375 C 256.722656 250.042969 253.25 247.101562 249.238281 243.628906 C 246.832031 241.757812 243.625 242.023438 241.753906 244.429688 C 239.882812 246.835938 240.417969 249.777344 242.558594 251.648438 Z M 270.355469 166.113281 C 266.078125 167.984375 261.800781 169.855469 257.792969 171.726562 C 256.992188 172.261719 256.1875 172.527344 255.386719 173.0625 C 252.714844 174.398438 251.644531 177.605469 252.980469 180.277344 C 254.050781 182.148438 255.921875 183.21875 257.792969 183.21875 C 258.59375 183.21875 259.394531 182.953125 260.199219 182.683594 C 261 182.417969 261.800781 181.882812 262.605469 181.617188 C 266.347656 179.746094 270.355469 177.875 274.363281 176.269531 C 277.039062 175.199219 278.375 171.992188 277.304688 169.320312 C 276.234375 166.113281 273.027344 165.042969 270.355469 166.113281 Z M 306.171875 153.015625 C 301.894531 154.351562 297.621094 155.6875 293.34375 157.292969 L 290.667969 158.09375 C 287.996094 159.164062 286.394531 162.101562 287.460938 165.042969 C 288.265625 167.183594 290.402344 168.519531 292.539062 168.519531 C 293.074219 168.519531 293.609375 168.519531 294.410156 168.25 L 296.816406 167.449219 C 301.09375 166.113281 305.105469 164.507812 309.378906 163.171875 C 312.320312 162.371094 313.65625 159.164062 312.855469 156.488281 C 311.785156 153.816406 308.847656 152.214844 306.171875 153.015625 Z M 224.113281 234.808594 C 224.648438 235.609375 225.449219 236.410156 225.984375 236.945312 C 227.054688 238.015625 228.390625 238.816406 229.996094 238.816406 C 231.332031 238.816406 232.667969 238.28125 233.46875 237.480469 C 235.605469 235.609375 235.875 232.132812 233.734375 229.996094 C 233.203125 229.460938 232.667969 228.660156 232.132812 228.125 C 229.460938 224.917969 227.855469 221.710938 227.054688 218.769531 C 226.519531 215.828125 223.578125 213.957031 220.640625 214.761719 C 217.699219 215.292969 215.828125 218.234375 216.628906 221.175781 C 217.964844 225.453125 220.371094 229.996094 224.113281 234.808594 Z M 265.542969 272.496094 C 262.605469 271.960938 259.929688 273.566406 259.128906 276.503906 C 258.59375 279.445312 256.722656 282.386719 254.050781 285.59375 C 253.515625 286.128906 252.980469 286.660156 252.445312 287.195312 C 250.308594 289.335938 250.308594 292.542969 252.445312 294.679688 C 253.515625 295.75 254.851562 296.285156 256.1875 296.285156 C 257.523438 296.285156 258.863281 295.75 259.929688 294.679688 C 260.734375 293.878906 261.265625 293.34375 261.800781 292.542969 C 265.8125 288 268.484375 283.453125 269.554688 278.644531 C 270.355469 276.238281 268.484375 273.296875 265.542969 272.496094 Z M 236.140625 298.957031 C 232.667969 300.828125 228.65625 302.96875 224.648438 304.839844 C 224.648438 304.839844 224.648438 304.839844 224.382812 304.839844 L 222.242188 305.90625 C 219.570312 306.976562 218.234375 310.183594 219.570312 312.855469 C 220.371094 314.726562 222.511719 316.0625 224.382812 316.0625 C 225.183594 316.0625 225.71875 315.796875 226.519531 315.53125 L 228.925781 314.460938 C 228.925781 314.460938 229.191406 314.460938 229.191406 314.460938 C 233.46875 312.320312 237.746094 310.449219 241.21875 308.3125 C 243.894531 306.976562 244.695312 303.5 243.359375 301.097656 C 242.023438 298.421875 238.816406 297.355469 236.140625 298.957031 Z M 134.304688 192.308594 C 134.304688 218.503906 112.917969 239.886719 86.726562 239.886719 C 60.53125 239.886719 39.148438 218.503906 39.148438 192.308594 C 39.148438 166.113281 60.53125 144.730469 86.726562 144.730469 C 112.917969 144.730469 134.304688 166.113281 134.304688 192.308594 Z M 123.613281 192.308594 C 123.613281 171.992188 107.039062 155.421875 86.726562 155.421875 C 66.410156 155.421875 49.839844 171.992188 49.839844 192.308594 C 49.839844 212.621094 66.410156 229.195312 86.726562 229.195312 C 107.039062 229.195312 123.613281 212.621094 123.613281 192.308594 Z M 127.351562 285.058594 C 116.128906 302.164062 103.832031 318.738281 91 334.773438 C 89.933594 336.113281 88.328125 336.644531 86.726562 336.644531 C 85.121094 336.644531 83.515625 335.84375 82.449219 334.773438 C 69.617188 318.738281 57.324219 301.898438 46.097656 285.058594 C 18.832031 244.164062 8.941406 220.375 8.941406 194.445312 C 8.941406 161.835938 38.613281 116.394531 86.726562 116.394531 C 134.835938 116.394531 164.238281 161.570312 164.507812 194.179688 C 164.238281 220.375 154.617188 244.164062 127.351562 285.058594 Z M 118.53125 279.179688 C 147.933594 234.808594 153.816406 214.492188 153.816406 194.445312 C 153.816406 166.378906 128.15625 127.085938 86.726562 127.085938 C 45.292969 127.085938 19.902344 166.113281 19.632812 194.179688 C 19.632812 214.492188 25.515625 234.808594 54.917969 279.179688 C 64.808594 294.144531 75.5 308.847656 86.726562 323.015625 C 97.953125 308.847656 108.644531 294.144531 118.53125 279.179688 Z M 350.007812 70.957031 C 350.007812 86.460938 337.445312 98.753906 322.210938 98.753906 C 306.976562 98.753906 294.410156 86.191406 294.410156 70.957031 C 294.410156 55.71875 306.976562 43.15625 322.210938 43.15625 C 337.445312 43.15625 350.007812 55.453125 350.007812 70.957031 Z M 339.316406 70.957031 C 339.316406 61.601562 331.566406 53.847656 322.210938 53.847656 C 312.855469 53.847656 305.105469 61.601562 305.105469 70.957031 C 305.105469 80.3125 312.855469 88.0625 322.210938 88.0625 C 331.566406 88.0625 339.316406 80.3125 339.316406 70.957031 Z M 366.046875 72.023438 C 366.046875 86.460938 360.699219 99.554688 345.730469 122.007812 C 339.585938 131.097656 333.167969 140.183594 326.21875 148.738281 C 325.152344 150.074219 323.546875 150.609375 321.941406 150.609375 C 320.339844 150.609375 318.734375 149.808594 317.667969 148.738281 C 310.714844 140.183594 304.035156 131.097656 298.152344 122.007812 C 283.1875 99.554688 278.105469 86.726562 277.839844 72.292969 C 277.839844 53.847656 294.679688 28.1875 321.675781 28.1875 C 349.207031 27.921875 366.046875 53.582031 366.046875 72.023438 Z M 355.355469 72.023438 C 355.355469 59.996094 344.128906 38.613281 322.210938 38.613281 C 300.023438 38.613281 289.066406 59.996094 289.066406 72.023438 C 289.066406 82.449219 292.007812 92.875 307.507812 116.128906 C 312.054688 123.078125 317.132812 130.027344 322.476562 136.976562 C 327.824219 130.296875 332.636719 123.347656 337.445312 116.128906 C 352.148438 92.875 355.355469 82.449219 355.355469 72.023438 Z M 355.355469 72.023438 " fill-opacity="1" fill-rule="nonzero"/></g></svg>