<svg xmlns="http://www.w3.org/2000/svg" xmlns:xlink="http://www.w3.org/1999/xlink" width="500" zoomAndPan="magnify" viewBox="0 0 375 374.999991" height="500" preserveAspectRatio="xMidYMid meet" version="1.0"><defs><clipPath id="a0002f20b6"><path d="M 7.695312 69 L 366.945312 69 L 366.945312 318 L 7.695312 318 Z M 7.695312 69 " clip-rule="nonzero"/></clipPath><clipPath id="48f18b9c40"><path d="M 136 331 L 168 331 L 168 354.949219 L 136 354.949219 Z M 136 331 " clip-rule="nonzero"/></clipPath></defs><path fill="#4c5454" d="M 94.289062 230.847656 C 86.503906 230.261719 80.125 226.410156 75.160156 219.292969 C 69.859375 211.671875 67.640625 202.164062 68.496094 190.761719 C 69.503906 177.347656 73.226562 165.328125 79.660156 154.703125 C 86.878906 142.746094 95.261719 137.128906 104.808594 137.847656 C 113.988281 138.535156 120.628906 142.210938 124.730469 148.867188 C 128.832031 155.523438 130.40625 165.183594 129.457031 177.847656 C 128.449219 191.261719 124.957031 203.21875 118.984375 213.71875 C 112.09375 225.855469 103.859375 231.566406 94.289062 230.847656 Z M 103.605469 153.882812 C 97.738281 153.441406 92.394531 157.324219 87.574219 165.535156 C 83.054688 173.207031 80.429688 181.898438 79.703125 191.601562 C 79.210938 198.152344 80.503906 203.605469 83.589844 207.964844 C 86.554688 212.15625 90.523438 214.4375 95.492188 214.808594 C 101.28125 215.246094 106.425781 211.347656 110.933594 203.117188 C 115.066406 195.609375 117.507812 186.90625 118.253906 177.003906 C 118.875 168.71875 118.070312 162.867188 115.84375 159.445312 C 113.707031 156.191406 109.625 154.335938 103.605469 153.882812 Z M 103.605469 153.882812 " fill-opacity="1" fill-rule="nonzero"/><path fill="#4c5454" d="M 158.792969 235.695312 C 151.007812 235.109375 144.628906 231.257812 139.664062 224.140625 C 134.363281 216.523438 132.144531 207.011719 133 195.609375 C 134.007812 182.195312 137.730469 170.175781 144.164062 159.550781 C 151.382812 147.597656 159.765625 141.976562 169.3125 142.695312 C 178.492188 143.386719 185.132812 147.058594 189.234375 153.714844 C 193.335938 160.371094 194.910156 170.03125 193.960938 182.695312 C 192.953125 196.109375 189.460938 208.066406 183.488281 218.566406 C 176.597656 230.707031 168.363281 236.414062 158.792969 235.695312 Z M 168.109375 158.730469 C 162.242188 158.292969 156.898438 162.175781 152.078125 170.382812 C 147.558594 178.058594 144.933594 186.746094 144.207031 196.453125 C 143.714844 203 145.007812 208.453125 148.09375 212.8125 C 151.058594 217.003906 155.027344 219.285156 159.996094 219.660156 C 165.78125 220.09375 170.929688 216.195312 175.4375 207.964844 C 179.570312 200.460938 182.011719 191.757812 182.757812 181.851562 C 183.378906 173.566406 182.574219 167.714844 180.347656 164.292969 C 178.210938 161.039062 174.128906 159.183594 168.109375 158.734375 Z M 168.109375 158.730469 " fill-opacity="1" fill-rule="nonzero"/><path fill="#4c5454" d="M 211.332031 202.808594 C 210.886719 202.773438 209.792969 202.550781 208.050781 202.144531 C 207.476562 207.65625 206.71875 216.722656 205.769531 229.347656 C 205.609375 231.4375 204.988281 233.195312 203.902344 234.625 C 202.816406 236.050781 201.523438 236.707031 200.027344 236.59375 C 198.527344 236.480469 197.339844 235.636719 196.464844 234.0625 C 195.59375 232.492188 195.234375 230.660156 195.390625 228.566406 L 196.632812 212.058594 C 197.09375 205.941406 198.035156 196.90625 199.464844 184.953125 C 200.878906 172.800781 201.828125 163.726562 202.304688 157.730469 C 203.101562 147.476562 205.390625 142.710938 209.171875 143.429688 C 210.089844 143.140625 211.347656 142.96875 212.941406 142.910156 C 214.53125 142.851562 216.457031 142.90625 218.71875 143.078125 C 223.875 143.464844 228.527344 146.332031 232.671875 151.683594 C 237.273438 157.664062 239.273438 164.675781 238.667969 172.726562 C 237.910156 182.824219 234.636719 190.652344 228.851562 196.207031 C 223.722656 201.101562 217.882812 203.300781 211.332031 202.808594 Z M 216.664062 158.277344 C 215.824219 158.210938 215.078125 158.167969 214.433594 158.136719 C 213.785156 158.109375 213.238281 158.117188 212.785156 158.164062 C 212.644531 160.015625 212.421875 162.796875 212.117188 166.503906 C 211.734375 170.878906 210.972656 177.6875 209.828125 186.921875 C 211.148438 187.339844 212.027344 187.566406 212.476562 187.597656 C 216.578125 187.90625 220.09375 186.703125 223.023438 183.988281 C 226.152344 181.089844 227.90625 177.074219 228.292969 171.945312 C 228.546875 168.59375 227.414062 165.511719 224.902344 162.703125 C 222.488281 159.984375 219.742188 158.507812 216.664062 158.277344 Z M 216.664062 158.277344 " fill-opacity="1" fill-rule="nonzero"/><path fill="#4c5454" d="M 257.855469 243.140625 C 251.175781 242.640625 246.082031 240.015625 242.578125 235.269531 C 239.621094 231.316406 238.324219 226.914062 238.691406 222.0625 C 238.878906 219.578125 239.53125 217.554688 240.65625 215.992188 C 241.777344 214.429688 243.21875 213.714844 244.980469 213.847656 C 247.347656 214.023438 248.949219 215.96875 249.78125 219.683594 C 250.914062 224.648438 254.125 227.328125 259.410156 227.726562 C 263.933594 228.066406 268.425781 226.914062 272.882812 224.273438 C 277.503906 221.566406 279.949219 218.398438 280.222656 214.769531 C 280.597656 209.796875 279.472656 206.421875 276.859375 204.636719 C 274.996094 203.347656 271.140625 202.382812 265.292969 201.746094 C 260.753906 201.246094 256.773438 199.65625 253.351562 196.980469 C 248.730469 193.339844 246.691406 188.464844 247.230469 182.355469 C 247.886719 174.667969 251.152344 167.820312 257.027344 161.816406 C 262.898438 155.808594 269.082031 153.050781 275.582031 153.539062 C 278.15625 153.734375 281.273438 154.859375 284.929688 156.921875 C 289.46875 159.484375 291.632812 162.207031 291.414062 165.085938 C 291.261719 167.136719 290.652344 168.917969 289.585938 170.421875 C 288.402344 172.117188 286.980469 172.90625 285.324219 172.78125 C 284.085938 172.6875 282.269531 172.15625 279.867188 171.179688 C 277.46875 170.207031 275.636719 169.671875 274.375 169.578125 C 270.980469 169.363281 267.664062 170.34375 264.433594 172.519531 C 261.09375 174.730469 259.316406 177.273438 259.097656 180.152344 C 258.984375 181.652344 259.375 182.921875 260.261719 183.960938 C 261.148438 185 262.535156 185.789062 264.425781 186.324219 C 267.773438 186.855469 271.105469 187.382812 274.425781 187.910156 C 280.214844 189.019531 284.644531 191.832031 287.714844 196.347656 C 291.09375 201.363281 292.46875 208.054688 291.84375 216.417969 C 291.078125 226.59375 286.628906 234.019531 278.503906 238.683594 C 272.3125 242.226562 265.429688 243.710938 257.855469 243.140625 Z M 257.855469 243.140625 " fill-opacity="1" fill-rule="nonzero"/><path fill="#4c5454" d="M 300.757812 246.664062 C 299.179688 246.546875 297.800781 245.171875 296.625 242.542969 C 295.5625 240.125 295.105469 237.90625 295.257812 235.894531 C 295.414062 233.84375 296.082031 232.167969 297.261719 230.867188 C 298.445312 229.570312 299.71875 228.96875 301.085938 229.074219 C 302.664062 229.191406 304.03125 230.566406 305.183594 233.191406 C 306.242188 235.609375 306.699219 237.808594 306.550781 239.78125 C 306.398438 241.792969 305.738281 243.46875 304.566406 244.808594 C 303.394531 246.148438 302.125 246.765625 300.757812 246.664062 Z M 302.488281 225.191406 C 301.015625 225.082031 299.851562 224.300781 298.996094 222.847656 C 298.140625 221.394531 297.789062 219.621094 297.949219 217.53125 C 298.0625 215.992188 298.203125 213.691406 298.367188 210.628906 C 298.53125 207.566406 298.671875 205.265625 298.789062 203.726562 C 299.195312 198.28125 299.84375 190.117188 300.726562 179.234375 C 301.609375 168.351562 302.257812 160.1875 302.667969 154.742188 C 302.824219 152.652344 303.441406 150.941406 304.519531 149.613281 C 305.597656 148.289062 306.863281 147.679688 308.308594 147.789062 C 309.753906 147.894531 310.910156 148.6875 311.78125 150.160156 C 312.648438 151.632812 313.003906 153.417969 312.847656 155.507812 L 308.125 218.296875 C 307.96875 220.386719 307.359375 222.085938 306.296875 223.394531 C 305.230469 224.703125 303.960938 225.300781 302.488281 225.191406 Z M 302.488281 225.191406 " fill-opacity="1" fill-rule="nonzero"/><g clip-path="url(#a0002f20b6)"><path fill="#4c5454" d="M 172.871094 317.101562 C 163.390625 317.101562 154.382812 314.3125 147.507812 309.246094 C 142.449219 305.519531 138.902344 300.851562 137.136719 295.699219 C 135.859375 296.566406 134.515625 297.335938 133.117188 298.011719 C 124.691406 302.066406 115.042969 302.226562 105.945312 298.464844 C 97.003906 294.765625 89.660156 287.695312 85.257812 278.558594 C 83.949219 275.835938 82.945312 273.027344 82.253906 270.15625 C 76.742188 272.851562 70.683594 274.257812 64.445312 274.257812 C 42.050781 274.257812 23.832031 256.039062 23.832031 233.644531 C 23.832031 227.578125 25.183594 221.621094 27.765625 216.195312 C 22.386719 212.839844 17.8125 208.304688 14.390625 202.914062 C 10.097656 196.144531 7.832031 188.316406 7.832031 180.269531 C 7.832031 156.925781 26.824219 137.933594 50.167969 137.933594 C 51.757812 137.933594 53.347656 138.023438 54.929688 138.199219 C 54.925781 138.042969 54.925781 137.886719 54.925781 137.730469 C 54.925781 124.230469 60.183594 111.539062 69.730469 101.992188 C 79.273438 92.449219 91.964844 87.191406 105.464844 87.191406 C 111.699219 87.191406 117.730469 88.296875 123.453125 90.484375 C 125.757812 85.027344 130.105469 80.144531 136.0625 76.417969 C 143.441406 71.804688 152.859375 69.265625 162.589844 69.265625 C 170.507812 69.265625 178.1875 70.921875 184.796875 74.058594 C 189.703125 76.386719 193.839844 79.4375 196.980469 83.011719 C 204.835938 76.558594 216.402344 72.808594 228.929688 72.808594 C 236.355469 72.808594 243.644531 74.160156 250 76.710938 C 254.746094 78.617188 258.894531 81.15625 262.203125 84.160156 C 268.691406 78.511719 277.0625 75.339844 285.746094 75.339844 C 305.519531 75.339844 321.601562 91.425781 321.601562 111.195312 C 321.601562 112.574219 321.523438 113.953125 321.367188 115.316406 C 328.945312 115.867188 336.757812 119.894531 342.738281 126.5625 C 349.234375 133.800781 352.417969 143.0625 351.429688 151.191406 C 355.703125 152.917969 359.429688 156.210938 362.175781 160.757812 C 365.585938 166.410156 367.160156 173.53125 366.605469 180.808594 C 366.078125 187.722656 363.722656 194.109375 359.902344 199.066406 C 362.789062 206.917969 363.945312 216.71875 363.160156 226.992188 C 362.335938 237.816406 359.433594 247.894531 354.984375 255.371094 C 350.28125 263.269531 344.277344 267.554688 337.976562 267.558594 C 337.625 267.558594 337.269531 267.542969 336.917969 267.515625 C 335.566406 267.414062 334.253906 267.117188 332.988281 266.632812 C 330.492188 272.769531 325.75 278.8125 319.03125 284.359375 C 310.511719 291.394531 299.539062 297.019531 287.308594 300.621094 C 277.558594 303.488281 267.535156 304.871094 258.324219 304.605469 C 251.144531 304.402344 244.542969 303.214844 238.941406 301.132812 C 235.117188 310.789062 227.3125 317 218.496094 317 C 211.675781 317 205.367188 313.242188 201.082031 306.894531 C 194.136719 313.292969 183.851562 317.101562 172.871094 317.101562 Z M 139.265625 284.597656 C 139.640625 284.597656 140.015625 284.652344 140.386719 284.757812 C 140.515625 284.796875 140.644531 284.832031 140.773438 284.867188 L 141.03125 284.941406 C 142.710938 285.417969 143.894531 286.921875 143.96875 288.667969 C 144.1875 293.929688 147.152344 298.921875 152.3125 302.722656 C 157.804688 306.769531 165.105469 309 172.871094 309 C 183.730469 309 193.59375 304.601562 198.613281 297.527344 C 199.46875 296.324219 200.910156 295.675781 202.378906 295.847656 C 203.847656 296.015625 205.105469 296.96875 205.667969 298.335938 C 208.332031 304.851562 213.246094 308.898438 218.496094 308.898438 C 222.273438 308.898438 225.136719 306.867188 226.871094 305.164062 C 229.488281 302.59375 231.488281 298.871094 232.503906 294.679688 C 232.796875 293.476562 233.621094 292.46875 234.746094 291.953125 C 235.875 291.433594 237.175781 291.460938 238.277344 292.023438 C 249.476562 297.71875 267.386719 298.035156 285.019531 292.847656 C 296.210938 289.550781 306.1875 284.457031 313.871094 278.113281 C 320.988281 272.234375 325.519531 265.695312 326.640625 259.695312 C 326.90625 258.253906 327.933594 257.070312 329.324219 256.597656 C 330.710938 256.128906 332.246094 256.445312 333.335938 257.425781 C 334.695312 258.652344 336.105469 259.328125 337.53125 259.4375 C 340.941406 259.699219 344.761719 256.703125 348.019531 251.226562 C 351.84375 244.804688 354.351562 235.980469 355.082031 226.375 C 355.835938 216.480469 354.539062 206.84375 351.523438 199.933594 C 350.878906 198.453125 351.171875 196.734375 352.269531 195.554688 C 355.789062 191.769531 358.070312 186.171875 358.527344 180.191406 C 358.953125 174.582031 357.785156 169.167969 355.238281 164.945312 C 352.898438 161.070312 349.632812 158.621094 346.042969 158.046875 C 344.875 157.863281 343.847656 157.175781 343.226562 156.167969 C 342.609375 155.160156 342.460938 153.933594 342.820312 152.808594 C 344.839844 146.539062 342.441406 138.359375 336.707031 131.972656 C 331.15625 125.785156 323.464844 122.484375 317.113281 123.558594 C 315.75 123.792969 314.363281 123.3125 313.433594 122.285156 C 312.503906 121.261719 312.164062 119.835938 312.527344 118.5 C 313.171875 116.128906 313.5 113.671875 313.5 111.195312 C 313.5 95.890625 301.050781 83.441406 285.746094 83.441406 C 277.902344 83.441406 270.382812 86.789062 265.125 92.625 C 264.335938 93.503906 263.203125 93.996094 262.027344 93.964844 C 260.847656 93.9375 259.738281 93.398438 258.988281 92.488281 C 253.105469 85.347656 241.585938 80.910156 228.929688 80.910156 C 216.804688 80.910156 205.515625 85.082031 199.46875 91.792969 C 198.617188 92.742188 197.363281 93.234375 196.09375 93.117188 C 194.820312 93.003906 193.679688 92.296875 193.007812 91.207031 C 190.574219 87.25 186.53125 83.851562 181.320312 81.378906 C 175.792969 78.753906 169.316406 77.367188 162.589844 77.367188 C 154.359375 77.367188 146.464844 79.46875 140.359375 83.285156 C 134.644531 86.863281 130.949219 91.652344 129.953125 96.777344 C 129.710938 98.015625 128.90625 99.070312 127.777344 99.632812 C 126.644531 100.191406 125.316406 100.195312 124.1875 99.636719 C 118.332031 96.753906 112.035156 95.292969 105.464844 95.292969 C 82.066406 95.292969 63.027344 114.332031 63.027344 137.730469 C 63.027344 139.339844 63.125 140.988281 63.3125 142.617188 C 63.460938 143.933594 62.960938 145.242188 61.964844 146.117188 C 60.972656 146.996094 59.613281 147.332031 58.324219 147.015625 C 55.664062 146.363281 52.917969 146.035156 50.167969 146.035156 C 31.289062 146.035156 15.933594 161.390625 15.933594 180.269531 C 15.933594 186.777344 17.765625 193.105469 21.234375 198.570312 C 24.609375 203.898438 29.378906 208.1875 35.019531 210.976562 C 36.039062 211.480469 36.800781 212.390625 37.117188 213.480469 C 37.433594 214.574219 37.277344 215.75 36.683594 216.71875 C 33.578125 221.800781 31.9375 227.652344 31.9375 233.644531 C 31.9375 251.570312 46.519531 266.15625 64.445312 266.15625 C 71.117188 266.15625 77.523438 264.148438 82.980469 260.355469 C 84.171875 259.527344 85.707031 259.398438 87.019531 260.015625 C 88.328125 260.628906 89.210938 261.894531 89.332031 263.335938 C 89.675781 267.367188 90.761719 271.304688 92.558594 275.042969 C 96.09375 282.382812 101.945312 288.039062 109.042969 290.976562 C 115.980469 293.847656 123.28125 293.75 129.601562 290.707031 C 132.125 289.496094 134.394531 287.855469 136.355469 285.832031 C 137.128906 285.03125 138.183594 284.597656 139.265625 284.597656 Z M 139.265625 284.597656 " fill-opacity="1" fill-rule="nonzero"/></g><path fill="#4c5454" d="M 264.480469 71.898438 C 264.230469 71.898438 263.976562 71.875 263.722656 71.824219 C 261.808594 71.460938 260.425781 69.792969 260.425781 67.847656 L 260.425781 28.195312 C 260.425781 21.800781 265.628906 16.597656 272.023438 16.597656 C 275.867188 16.597656 279.449219 18.496094 281.613281 21.671875 C 283.773438 24.847656 284.222656 28.878906 282.808594 32.453125 L 268.246094 69.335938 C 267.628906 70.902344 266.117188 71.898438 264.480469 71.898438 Z M 272.023438 24.699219 C 270.097656 24.699219 268.53125 26.265625 268.53125 28.195312 L 268.53125 46.554688 L 275.273438 29.476562 C 275.703125 28.382812 275.574219 27.199219 274.914062 26.226562 C 274.25 25.257812 273.199219 24.699219 272.023438 24.699219 Z M 272.023438 24.699219 " fill-opacity="1" fill-rule="nonzero"/><path fill="#4c5454" d="M 114.570312 71.898438 C 113.414062 71.898438 112.28125 71.402344 111.488281 70.480469 L 85.472656 40.085938 C 82.601562 36.730469 81.449219 32.316406 82.3125 27.984375 C 83.175781 23.652344 85.933594 20.019531 89.875 18.023438 C 93.878906 15.992188 98.492188 15.945312 102.539062 17.886719 C 106.582031 19.828125 109.429688 23.464844 110.347656 27.855469 L 118.535156 67.015625 C 118.910156 68.828125 118.015625 70.664062 116.355469 71.480469 C 115.785156 71.761719 115.175781 71.898438 114.570312 71.898438 Z M 96.34375 24.574219 C 95.382812 24.574219 94.425781 24.796875 93.539062 25.25 C 91.828125 26.113281 90.632812 27.691406 90.257812 29.570312 C 89.882812 31.449219 90.382812 33.359375 91.628906 34.816406 L 107.367188 53.203125 L 102.414062 29.511719 C 102.019531 27.609375 100.785156 26.03125 99.03125 25.191406 C 98.171875 24.777344 97.257812 24.574219 96.34375 24.574219 Z M 96.34375 24.574219 " fill-opacity="1" fill-rule="nonzero"/><path fill="#4c5454" d="M 58.820312 324.214844 C 56.808594 324.214844 54.800781 323.746094 52.941406 322.820312 C 49.023438 320.859375 46.347656 317.09375 45.785156 312.75 C 45.222656 308.402344 46.851562 304.082031 50.144531 301.1875 L 72.460938 281.570312 C 73.800781 280.394531 75.75 280.230469 77.261719 281.164062 C 78.777344 282.101562 79.507812 283.914062 79.054688 285.636719 L 71.542969 314.386719 C 70.535156 318.238281 67.878906 321.390625 64.25 323.035156 C 62.515625 323.820312 60.667969 324.214844 58.820312 324.214844 Z M 67.871094 296.394531 L 55.492188 307.273438 C 54.210938 308.402344 53.601562 310.015625 53.820312 311.707031 C 54.039062 313.402344 55.039062 314.808594 56.566406 315.574219 C 57.933594 316.253906 59.515625 316.285156 60.90625 315.65625 C 62.296875 315.023438 63.316406 313.816406 63.703125 312.335938 Z M 67.871094 296.394531 " fill-opacity="1" fill-rule="nonzero"/><g clip-path="url(#48f18b9c40)"><path fill="#4c5454" d="M 152.257812 354.878906 C 143.625 354.878906 136.863281 349.851562 136.863281 343.433594 C 136.863281 337.015625 143.625 331.988281 152.257812 331.988281 C 160.890625 331.988281 167.652344 337.015625 167.652344 343.433594 C 167.652344 349.851562 160.890625 354.878906 152.257812 354.878906 Z M 152.257812 340.09375 C 147.734375 340.09375 144.964844 342.253906 144.964844 343.433594 C 144.964844 344.613281 147.734375 346.777344 152.257812 346.777344 C 156.78125 346.777344 159.550781 344.613281 159.550781 343.433594 C 159.550781 342.253906 156.78125 340.09375 152.257812 340.09375 Z M 152.257812 340.09375 " fill-opacity="1" fill-rule="nonzero"/></g><path fill="#4c5454" d="M 202.292969 59.136719 C 196.15625 59.136719 191.351562 52.597656 191.351562 44.246094 C 191.351562 35.898438 196.15625 29.359375 202.292969 29.359375 C 208.425781 29.359375 213.230469 35.898438 213.230469 44.246094 C 213.230469 52.597656 208.425781 59.136719 202.292969 59.136719 Z M 202.292969 37.460938 C 201.425781 37.460938 199.457031 40.023438 199.457031 44.246094 C 199.457031 48.46875 201.425781 51.035156 202.292969 51.035156 C 203.15625 51.035156 205.128906 48.46875 205.128906 44.246094 C 205.128906 40.023438 203.15625 37.460938 202.292969 37.460938 Z M 202.292969 37.460938 " fill-opacity="1" fill-rule="nonzero"/><path fill="#4c5454" d="M 31.9375 126.183594 C 26.6875 126.183594 22.414062 121.914062 22.414062 116.664062 C 22.414062 111.414062 26.6875 107.144531 31.9375 107.144531 C 37.183594 107.144531 41.457031 111.414062 41.457031 116.664062 C 41.457031 121.914062 37.183594 126.183594 31.9375 126.183594 Z M 31.9375 115.246094 C 31.152344 115.246094 30.519531 115.882812 30.519531 116.664062 C 30.519531 117.445312 31.152344 118.082031 31.9375 118.082031 C 32.71875 118.082031 33.355469 117.445312 33.355469 116.664062 C 33.355469 115.882812 32.71875 115.246094 31.9375 115.246094 Z M 31.9375 115.246094 " fill-opacity="1" fill-rule="nonzero"/></svg>