<svg xmlns="http://www.w3.org/2000/svg" xmlns:xlink="http://www.w3.org/1999/xlink" width="500" zoomAndPan="magnify" viewBox="0 0 375 374.999991" height="500" preserveAspectRatio="xMidYMid meet" version="1.0"><defs><clipPath id="5b6a9976c8"><path d="M 7.695312 37.5 L 366.945312 37.5 L 366.945312 313.5 L 7.695312 313.5 Z M 7.695312 37.5 " clip-rule="nonzero"/></clipPath></defs><g clip-path="url(#5b6a9976c8)"><path fill="#4c5454" d="M 195.371094 273.1875 L 195.375 273.1875 L 200.246094 273.605469 C 200.449219 273.625 200.652344 273.632812 200.855469 273.632812 C 202.519531 273.632812 204.136719 273.046875 205.421875 271.964844 C 206.863281 270.753906 207.761719 269.019531 207.925781 267.144531 L 211.097656 230.28125 C 212.875 230.734375 214.695312 231.050781 216.546875 231.210938 C 217.351562 231.277344 218.164062 231.3125 218.976562 231.324219 C 219.785156 231.453125 220.597656 231.558594 221.421875 231.628906 C 222.378906 231.710938 223.359375 231.753906 224.320312 231.753906 C 230.824219 231.753906 237.144531 229.875 242.753906 226.367188 C 242.835938 226.863281 242.964844 227.355469 243.152344 227.832031 C 243.839844 229.585938 245.191406 230.992188 246.921875 231.742188 L 257.25 236.242188 C 258.332031 236.714844 259.4375 237.128906 260.554688 237.480469 L 262.917969 238.511719 C 266.925781 240.257812 271.148438 241.183594 275.480469 241.289062 L 284 288.472656 L 236.335938 247.328125 L 207.375 287.539062 L 191.179688 272.828125 Z M 48.152344 118.863281 L 44.363281 100.882812 L 61.082031 110.355469 C 56.363281 112.421875 52.003906 115.300781 48.152344 118.863281 Z M 177.164062 264.492188 L 176.792969 264.460938 L 175.453125 264.34375 L 178.144531 233.097656 L 178.78125 225.71875 L 179.058594 222.496094 L 179.972656 211.886719 L 180.628906 204.269531 L 181.484375 194.324219 L 181.84375 190.136719 L 182.492188 182.613281 L 184.921875 154.398438 L 186.261719 154.511719 L 189.796875 154.816406 L 205.449219 156.167969 L 205.144531 159.726562 C 206.773438 158.617188 208.5 157.683594 210.296875 156.925781 C 213.605469 155.527344 217.152344 154.757812 220.824219 154.757812 C 221.582031 154.757812 222.347656 154.789062 223.121094 154.855469 C 223.933594 154.925781 224.730469 155.042969 225.523438 155.183594 C 232.558594 156.441406 238.660156 160.457031 243.0625 166.1875 C 242.582031 174.503906 245.230469 182.734375 250.417969 189.199219 C 250.402344 190.15625 250.363281 191.121094 250.28125 192.09375 C 248.714844 210.289062 235.222656 224.148438 219.585938 224.234375 C 219.539062 224.234375 219.492188 224.238281 219.449219 224.238281 C 218.6875 224.238281 217.921875 224.203125 217.152344 224.136719 C 212.671875 223.75 208.523438 222.238281 204.871094 219.890625 C 203.238281 218.839844 201.691406 217.640625 200.273438 216.265625 L 195.980469 266.117188 L 182.519531 264.957031 Z M 124.988281 234.082031 C 117.027344 227.457031 111.839844 216.710938 111.804688 204.5625 C 111.804688 204.523438 111.804688 204.484375 111.804688 204.449219 C 111.804688 202.84375 111.902344 201.269531 112.078125 199.71875 C 112.152344 199.066406 112.238281 198.421875 112.339844 197.785156 C 112.570312 196.355469 112.863281 194.949219 113.234375 193.582031 C 115.007812 187.023438 118.347656 181.261719 122.75 176.863281 C 123.113281 176.496094 123.488281 176.140625 123.867188 175.792969 C 124.234375 175.460938 124.609375 175.132812 124.988281 174.816406 C 125.804688 174.136719 126.652344 173.5 127.527344 172.910156 C 128.828125 172.027344 130.183594 171.253906 131.59375 170.59375 C 135.308594 168.847656 139.371094 167.878906 143.628906 167.878906 C 144.5 167.878906 145.363281 167.929688 146.21875 168.007812 C 159.726562 169.261719 170.847656 180.195312 174.320312 194.777344 L 172.078125 220.839844 C 167.210938 231.964844 157.558594 239.839844 146.21875 240.890625 C 145.363281 240.96875 144.5 241.019531 143.628906 241.019531 C 136.664062 241.019531 130.226562 238.441406 124.988281 234.082031 Z M 288.085938 169.839844 C 288.578125 170.054688 289.089844 170.207031 289.609375 170.304688 L 293.75 172.109375 C 294.671875 172.511719 295.632812 172.699219 296.582031 172.699219 C 299.320312 172.699219 301.929688 171.105469 303.089844 168.433594 L 303.621094 167.222656 L 304.605469 189.8125 C 301.566406 185.003906 297.277344 180.914062 291.933594 178.101562 C 291.773438 178.015625 291.613281 177.929688 291.445312 177.851562 C 290.863281 177.558594 290.28125 177.285156 289.707031 177.035156 L 283.625 174.382812 C 282.40625 173.554688 281.941406 171.972656 282.542969 170.597656 C 283.035156 169.46875 284.148438 168.734375 285.382812 168.734375 C 285.460938 168.734375 285.535156 168.753906 285.613281 168.761719 Z M 308.792969 123.046875 L 338.511719 123.046875 L 338.492188 123.265625 L 338.421875 124.074219 L 338.402344 124.277344 L 338.183594 126.8125 L 337.859375 130.515625 L 337.316406 136.746094 L 334.273438 171.550781 L 333.941406 175.328125 L 333.613281 179.101562 L 332.035156 197.140625 C 328.730469 195.0625 324.859375 193.867188 320.722656 193.867188 C 319.660156 193.867188 318.617188 193.949219 317.59375 194.101562 C 316.390625 194.28125 315.214844 194.5625 314.078125 194.9375 C 313.359375 195.175781 312.660156 195.453125 311.96875 195.761719 L 310.765625 168.191406 L 310.589844 164.175781 L 310.566406 163.582031 L 310.332031 158.289062 L 310.054688 151.945312 L 309.917969 148.847656 L 308.894531 125.402344 Z M 252.113281 226.261719 L 249.757812 225.234375 L 253.75 216.066406 L 256.246094 210.34375 L 257.089844 210.710938 L 258.582031 211.363281 L 261.835938 212.78125 L 263.382812 213.453125 C 263.976562 213.714844 264.582031 213.902344 265.191406 214.039062 C 265.941406 214.214844 266.699219 214.304688 267.449219 214.304688 C 269.199219 214.304688 270.902344 213.828125 272.410156 212.988281 C 274.289062 211.9375 275.871094 210.308594 276.792969 208.183594 C 277.804688 205.867188 277.875 203.378906 277.191406 201.136719 C 276.445312 198.707031 274.808594 196.566406 272.476562 195.246094 L 265.960938 192.40625 C 265.441406 192.179688 264.933594 191.9375 264.433594 191.679688 L 264.386719 191.660156 C 263.691406 191.300781 263.019531 190.910156 262.371094 190.496094 C 261.101562 189.695312 259.921875 188.796875 258.828125 187.8125 C 258.363281 187.394531 257.914062 186.960938 257.484375 186.515625 C 256.859375 185.867188 256.273438 185.195312 255.726562 184.496094 C 255.433594 184.125 255.15625 183.746094 254.886719 183.359375 C 254.28125 182.496094 253.734375 181.601562 253.234375 180.675781 C 251.683594 177.78125 250.675781 174.617188 250.277344 171.339844 C 250.21875 170.839844 250.164062 170.335938 250.136719 169.828125 C 250.015625 167.976562 250.101562 166.097656 250.386719 164.226562 C 250.394531 164.152344 250.402344 164.082031 250.417969 164.011719 C 250.640625 162.585938 250.992188 161.164062 251.464844 159.761719 C 251.707031 159.042969 251.976562 158.324219 252.285156 157.613281 C 256.074219 148.929688 263.960938 143.304688 272.691406 142.019531 C 273.960938 141.832031 275.242188 141.734375 276.53125 141.734375 C 280.058594 141.734375 283.640625 142.445312 287.082031 143.941406 L 289.847656 145.148438 L 297.410156 148.441406 L 290.992188 163.164062 L 290.921875 163.332031 L 287.644531 161.90625 L 283.785156 160.222656 C 282.457031 159.644531 281.074219 159.371094 279.71875 159.371094 C 275.785156 159.371094 272.039062 161.660156 270.367188 165.496094 C 268.265625 170.324219 270.199219 175.894531 274.691406 178.429688 L 281.203125 181.273438 C 281.722656 181.5 282.234375 181.742188 282.734375 181.996094 L 282.78125 182.015625 L 282.78125 182.019531 C 295.058594 188.351562 300.476562 203.214844 294.878906 216.0625 C 290.542969 226.007812 280.828125 231.945312 270.628906 231.945312 C 268.085938 231.945312 265.507812 231.566406 262.980469 230.796875 C 262.007812 230.5 261.039062 230.152344 260.085938 229.734375 Z M 264.746094 206.105469 C 264.257812 205.890625 263.742188 205.742188 263.21875 205.640625 L 259.902344 204.199219 C 260.570312 202.234375 261.105469 200.214844 261.507812 198.152344 C 262.054688 198.421875 262.59375 198.683594 263.125 198.914062 L 269.207031 201.566406 C 270.421875 202.394531 270.886719 203.972656 270.289062 205.347656 C 269.796875 206.480469 268.679688 207.210938 267.449219 207.210938 C 267.371094 207.210938 267.296875 207.191406 267.222656 207.183594 Z M 320.722656 232.332031 C 320.621094 232.332031 320.523438 232.320312 320.425781 232.316406 C 319.105469 232.289062 317.832031 232.078125 316.613281 231.710938 C 316.390625 231.644531 316.171875 231.570312 315.953125 231.492188 C 313.339844 230.554688 311.050781 228.875 309.320312 226.683594 C 308.195312 225.261719 307.320312 223.621094 306.730469 221.832031 C 306.191406 220.210938 305.878906 218.46875 305.878906 216.648438 C 305.878906 215.519531 306.003906 214.421875 306.214844 213.359375 C 306.539062 211.761719 307.097656 210.257812 307.839844 208.882812 C 308.34375 207.949219 308.9375 207.078125 309.609375 206.277344 C 309.664062 206.207031 309.722656 206.144531 309.777344 206.082031 C 310.015625 205.808594 310.25 205.542969 310.503906 205.289062 C 310.679688 205.117188 310.859375 204.941406 311.042969 204.773438 C 311.6875 204.1875 312.382812 203.664062 313.113281 203.199219 C 313.535156 202.933594 313.964844 202.691406 314.40625 202.46875 C 315.507812 201.921875 316.675781 201.503906 317.90625 201.253906 C 318.820312 201.070312 319.757812 200.964844 320.722656 200.964844 C 321.585938 200.964844 322.433594 201.058594 323.265625 201.210938 C 324.285156 201.398438 325.269531 201.691406 326.210938 202.085938 C 326.949219 202.398438 327.652344 202.773438 328.328125 203.199219 C 328.441406 203.269531 328.558594 203.339844 328.667969 203.417969 C 329.304688 203.84375 329.902344 204.316406 330.464844 204.835938 C 330.542969 204.90625 330.613281 204.980469 330.6875 205.050781 C 331.234375 205.574219 331.746094 206.125 332.214844 206.730469 C 332.273438 206.804688 332.324219 206.886719 332.382812 206.96875 C 333.1875 208.046875 333.871094 209.234375 334.382812 210.515625 C 335.144531 212.398438 335.566406 214.472656 335.566406 216.648438 C 335.566406 224.035156 330.726562 230.214844 324.21875 231.875 C 323.09375 232.164062 321.925781 232.332031 320.722656 232.332031 Z M 37.804688 161.773438 C 37.792969 161.304688 37.773438 160.835938 37.773438 160.359375 C 37.773438 159.484375 37.800781 158.617188 37.839844 157.753906 C 37.910156 156.339844 38.03125 154.941406 38.207031 153.5625 C 39.070312 146.800781 41.199219 140.519531 44.304688 135.03125 C 45.144531 133.546875 46.046875 132.109375 47.027344 130.75 C 47.925781 129.492188 48.890625 128.300781 49.898438 127.164062 C 53.160156 123.476562 56.960938 120.429688 61.152344 118.175781 C 63.71875 116.796875 66.433594 115.722656 69.261719 114.984375 C 71.042969 114.519531 72.863281 114.1875 74.722656 114.003906 C 75.898438 113.882812 77.082031 113.8125 78.28125 113.8125 C 79.390625 113.8125 80.488281 113.878906 81.574219 113.976562 C 81.699219 113.988281 81.820312 114 81.941406 114.011719 C 85.917969 114.417969 89.726562 115.492188 93.289062 117.125 C 94.519531 117.691406 95.722656 118.324219 96.890625 119.019531 C 98.136719 119.761719 99.34375 120.574219 100.507812 121.453125 C 111.515625 129.773438 118.789062 144.089844 118.789062 160.359375 C 118.789062 164.429688 118.332031 168.371094 117.476562 172.132812 C 111.714844 178.011719 107.535156 185.800781 105.71875 194.59375 C 99.257812 201.433594 90.859375 205.882812 81.574219 206.742188 C 80.488281 206.84375 79.390625 206.910156 78.28125 206.910156 C 74.070312 206.910156 70.011719 206.171875 66.195312 204.800781 C 65.03125 204.382812 63.890625 203.898438 62.773438 203.371094 C 62.226562 203.109375 61.6875 202.832031 61.152344 202.546875 C 57.492188 200.578125 54.128906 198.007812 51.164062 194.9375 C 49.296875 193.003906 47.59375 190.867188 46.066406 188.570312 C 41.097656 181.089844 38.066406 171.832031 37.804688 161.773438 Z M 99.007812 67.21875 L 138.371094 117.96875 L 160.605469 65.015625 L 196.035156 103.832031 L 224.621094 44.605469 L 242.800781 100.363281 L 279.359375 77.746094 L 276.582031 126.855469 L 301.804688 125.722656 L 302.550781 142.742188 L 295.582031 139.703125 C 294.492188 139.230469 293.386719 138.816406 292.265625 138.460938 L 289.914062 137.433594 C 285.652344 135.582031 281.152344 134.640625 276.53125 134.636719 C 263.21875 134.636719 251.183594 142.503906 245.828125 154.679688 C 240.753906 150.984375 234.882812 148.746094 228.601562 148.203125 C 227.785156 148.132812 226.957031 148.101562 226.136719 148.085938 C 225.335938 147.964844 224.539062 147.855469 223.726562 147.785156 C 222.765625 147.703125 221.785156 147.660156 220.824219 147.660156 C 217.15625 147.660156 213.519531 148.265625 210.027344 149.4375 L 190.40625 147.75 L 190.402344 147.75 L 185.53125 147.328125 C 185.328125 147.308594 185.121094 147.300781 184.921875 147.300781 C 183.257812 147.300781 181.636719 147.886719 180.351562 148.96875 C 178.914062 150.179688 178.011719 151.914062 177.847656 153.789062 L 176.160156 173.417969 C 169.125 165.609375 159.460938 160.78125 148.808594 160.78125 C 147.9375 160.78125 147.074219 160.824219 146.21875 160.886719 C 145.363281 160.824219 144.5 160.78125 143.628906 160.78125 C 139.734375 160.78125 135.972656 161.433594 132.421875 162.632812 C 132.453125 161.878906 132.476562 161.125 132.476562 160.359375 C 132.476562 136.816406 118.9375 116.78125 100.179688 109.578125 Z M 14.910156 173.691406 L 30.890625 165.371094 C 31.421875 171.78125 32.953125 177.871094 35.3125 183.433594 Z M 98.125 238.4375 L 36.132812 241.226562 L 61.460938 210.539062 C 66.695312 212.773438 72.359375 214.007812 78.28125 214.007812 C 79.390625 214.007812 80.484375 213.949219 81.574219 213.863281 C 82.664062 213.949219 83.761719 214.007812 84.871094 214.007812 C 92.03125 214.007812 98.820312 212.203125 104.917969 209 C 106.953125 230.949219 123.535156 248.117188 143.628906 248.117188 C 144.5 248.117188 145.363281 248.074219 146.21875 248.011719 C 147.074219 248.074219 147.9375 248.117188 148.808594 248.117188 C 156.773438 248.117188 164.183594 245.414062 170.359375 240.789062 L 168.382812 263.738281 C 168.078125 267.285156 170.441406 270.441406 173.804688 271.242188 L 160.890625 297.175781 L 131.90625 264.9375 L 88.410156 306.398438 Z M 321.785156 242.347656 L 293.554688 236.507812 C 296.863281 234.519531 299.816406 231.976562 302.277344 228.960938 C 304.804688 233.03125 308.542969 236.214844 312.964844 237.953125 C 315.507812 240.050781 318.507812 241.578125 321.78125 242.339844 Z M 345.578125 194.507812 L 346.390625 185.203125 L 359.796875 191.605469 Z M 362.855469 185.203125 L 347.050781 177.652344 L 351.445312 127.429688 C 351.617188 125.449219 350.949219 123.484375 349.609375 122.015625 C 348.355469 120.652344 346.621094 119.84375 344.785156 119.738281 C 344.5 119.207031 344.160156 118.703125 343.746094 118.25 C 342.402344 116.78125 340.5 115.949219 338.511719 115.949219 L 308.792969 115.949219 C 306.859375 115.949219 305.003906 116.738281 303.664062 118.136719 C 303.539062 118.269531 303.425781 118.410156 303.308594 118.550781 L 284.109375 119.414062 L 286.445312 78.144531 C 286.59375 75.503906 285.261719 72.996094 282.988281 71.648438 C 281.871094 70.984375 280.613281 70.648438 279.359375 70.648438 C 278.0625 70.648438 276.769531 71.003906 275.625 71.710938 L 246.75 89.574219 L 231.371094 42.402344 C 230.472656 39.648438 227.988281 37.71875 225.101562 37.523438 C 224.941406 37.511719 224.777344 37.507812 224.621094 37.507812 C 221.910156 37.507812 219.417969 39.054688 218.230469 41.519531 L 194.203125 91.296875 L 165.847656 60.230469 C 164.492188 58.746094 162.582031 57.917969 160.605469 57.917969 C 160.207031 57.917969 159.800781 57.949219 159.398438 58.019531 C 157.011719 58.433594 155 60.035156 154.0625 62.265625 L 136.53125 104.019531 L 104.617188 62.867188 C 103.242188 61.101562 101.15625 60.121094 99.007812 60.121094 C 98.207031 60.121094 97.398438 60.253906 96.617188 60.535156 C 93.726562 61.570312 91.828125 64.347656 91.914062 67.414062 L 93.023438 107.519531 C 90.371094 107 87.652344 106.714844 84.871094 106.714844 C 83.761719 106.714844 82.664062 106.773438 81.574219 106.859375 C 80.484375 106.773438 79.390625 106.714844 78.28125 106.714844 C 75.589844 106.714844 72.957031 106.980469 70.386719 107.46875 L 47.863281 94.707031 C 46.773438 94.089844 45.566406 93.785156 44.367188 93.785156 C 42.886719 93.785156 41.414062 94.246094 40.175781 95.15625 C 37.921875 96.804688 36.84375 99.617188 37.417969 102.347656 L 42.261719 125.34375 C 35.582031 134.0625 31.335938 145.210938 30.75 157.445312 L 11.632812 167.394531 C 9.25 168.636719 7.769531 171.121094 7.816406 173.8125 C 7.863281 176.5 9.425781 178.933594 11.855469 180.09375 L 41.371094 194.191406 C 45.152344 199.425781 49.792969 203.832031 55.046875 207.160156 L 30.660156 236.710938 C 28.871094 238.875 28.527344 241.886719 29.78125 244.398438 C 30.984375 246.8125 33.449219 248.324219 36.128906 248.324219 C 36.238281 248.324219 36.34375 248.320312 36.449219 248.316406 L 89.886719 245.914062 L 81.382812 305.394531 C 80.957031 308.390625 82.472656 311.324219 85.160156 312.707031 C 86.1875 313.238281 87.300781 313.496094 88.40625 313.496094 C 90.191406 313.496094 91.957031 312.824219 93.308594 311.535156 L 131.515625 275.117188 L 155.613281 301.921875 C 156.96875 303.429688 158.890625 304.273438 160.890625 304.273438 C 161.207031 304.273438 161.527344 304.253906 161.847656 304.210938 C 164.175781 303.894531 166.199219 302.445312 167.246094 300.339844 L 180.84375 273.023438 L 202.601562 292.792969 C 203.914062 293.984375 205.617188 294.636719 207.375 294.636719 C 207.621094 294.636719 207.867188 294.621094 208.117188 294.597656 C 210.125 294.386719 211.953125 293.328125 213.132812 291.6875 L 237.566406 257.765625 L 279.363281 293.847656 C 280.679688 294.988281 282.335938 295.574219 284 295.574219 C 285.207031 295.574219 286.421875 295.265625 287.519531 294.640625 C 290.128906 293.148438 291.515625 290.171875 290.984375 287.214844 L 282.734375 241.515625 L 320.347656 249.300781 C 320.828125 249.398438 321.308594 249.445312 321.785156 249.445312 C 324 249.445312 326.117188 248.410156 327.476562 246.59375 C 328.320312 245.460938 328.78125 244.128906 328.867188 242.769531 C 339.894531 241.582031 348.523438 231.875 348.523438 220.113281 C 348.523438 214.976562 346.878906 210.230469 344.101562 206.417969 C 344.445312 205.683594 344.671875 204.886719 344.746094 204.035156 L 344.933594 201.886719 L 361.21875 198.558594 C 364.203125 197.949219 366.46875 195.496094 366.84375 192.46875 C 367.214844 189.441406 365.609375 186.515625 362.855469 185.203125 " fill-opacity="1" fill-rule="nonzero"/></g><path fill="#4c5454" d="M 68.960938 152.683594 C 68.960938 147.847656 71.34375 143.714844 74.699219 142.042969 C 78.050781 143.714844 80.4375 147.847656 80.4375 152.683594 C 80.4375 157.515625 78.050781 161.648438 74.699219 163.324219 C 71.34375 161.648438 68.960938 157.515625 68.960938 152.683594 Z M 71.402344 171.21875 C 72.53125 171.21875 73.632812 171.085938 74.699219 170.828125 C 77.28125 170.210938 79.640625 168.886719 81.609375 167.035156 C 85.222656 163.632812 87.535156 158.46875 87.535156 152.683594 C 87.535156 146.894531 85.222656 141.730469 81.609375 138.332031 C 79.640625 136.480469 77.28125 135.152344 74.699219 134.535156 C 73.632812 134.28125 72.53125 134.144531 71.402344 134.144531 C 62.492188 134.144531 55.273438 142.445312 55.273438 152.683594 C 55.273438 162.921875 62.492188 171.21875 71.402344 171.21875 " fill-opacity="1" fill-rule="nonzero"/><path fill="#4c5454" d="M 137.824219 198.414062 C 137.824219 195.609375 139.054688 193.109375 140.8125 191.835938 C 142.574219 193.109375 143.800781 195.609375 143.800781 198.414062 C 143.800781 201.21875 142.574219 203.722656 140.8125 204.996094 C 139.054688 203.722656 137.824219 201.21875 137.824219 198.414062 Z M 150.898438 198.414062 C 150.898438 194.652344 149.644531 191.230469 147.605469 188.648438 C 145.839844 186.410156 143.488281 184.796875 140.8125 184.15625 C 139.976562 183.957031 139.113281 183.851562 138.226562 183.851562 C 131.226562 183.851562 125.550781 190.371094 125.550781 198.414062 C 125.550781 206.457031 131.226562 212.980469 138.226562 212.980469 C 139.113281 212.980469 139.976562 212.871094 140.8125 212.671875 C 143.488281 212.035156 145.839844 210.421875 147.609375 208.179688 C 149.644531 205.597656 150.898438 202.179688 150.898438 198.414062 " fill-opacity="1" fill-rule="nonzero"/><path fill="#4c5454" d="M 216.789062 188.601562 C 215.769531 187.207031 215.28125 185.285156 215.449219 183.335938 C 215.65625 180.910156 216.859375 178.800781 218.441406 177.746094 C 218.699219 177.992188 218.925781 178.257812 219.105469 178.503906 C 220.121094 179.898438 220.613281 181.816406 220.445312 183.765625 C 220.230469 186.195312 219.03125 188.304688 217.453125 189.359375 C 217.191406 189.109375 216.96875 188.847656 216.789062 188.601562 Z M 214.320312 197.136719 C 214.628906 197.164062 214.933594 197.175781 215.234375 197.175781 C 215.75 197.175781 216.257812 197.125 216.761719 197.050781 C 219.546875 196.644531 222.082031 195.148438 224 192.917969 C 225.921875 190.675781 227.226562 187.714844 227.511719 184.375 C 227.800781 181.054688 227.042969 177.925781 225.546875 175.398438 C 224.046875 172.863281 221.808594 170.941406 219.132812 170.050781 C 218.355469 169.792969 217.542969 169.617188 216.699219 169.546875 C 216.390625 169.519531 216.085938 169.507812 215.785156 169.507812 C 209.53125 169.507812 204.128906 175.039062 203.503906 182.308594 C 202.847656 189.925781 207.691406 196.566406 214.320312 197.136719 " fill-opacity="1" fill-rule="nonzero"/></svg>