<svg xmlns="http://www.w3.org/2000/svg" xmlns:xlink="http://www.w3.org/1999/xlink" width="500" zoomAndPan="magnify" viewBox="0 0 375 374.999991" height="500" preserveAspectRatio="xMidYMid meet" version="1.0"><defs><clipPath id="6b88d81527"><path d="M 242 32.128906 L 291 32.128906 L 291 104 L 242 104 Z M 242 32.128906 " clip-rule="nonzero"/></clipPath><clipPath id="526d13635c"><path d="M 309 116 L 366.945312 116 L 366.945312 168 L 309 168 Z M 309 116 " clip-rule="nonzero"/></clipPath><clipPath id="be8a13b6ef"><path d="M 7.695312 230 L 59 230 L 59 288 L 7.695312 288 Z M 7.695312 230 " clip-rule="nonzero"/></clipPath><clipPath id="7ea51e2185"><path d="M 62 235 L 168 235 L 168 337.378906 L 62 337.378906 Z M 62 235 " clip-rule="nonzero"/></clipPath></defs><path fill="#4c5454" d="M 205.199219 84.179688 C 208.988281 77.75 213.828125 74.304688 219.632812 73.925781 C 225.578125 73.777344 230.691406 76.804688 234.835938 82.945312 C 238.964844 89.257812 241.199219 96.8125 241.488281 105.390625 C 241.785156 114.171875 239.925781 121.53125 236.011719 127.203125 C 233.988281 130.515625 231.722656 133.015625 229.074219 134.847656 C 226.691406 136.503906 224.054688 137.371094 221.253906 137.445312 L 221.050781 137.449219 C 215.359375 137.597656 210.335938 134.546875 206.144531 128.410156 C 201.859375 122.5 199.605469 114.996094 199.453125 106.144531 C 199.03125 97.796875 200.972656 90.382812 205.199219 84.179688 " fill-opacity="1" fill-rule="nonzero"/><path fill="#4c5454" d="M 234.0625 138.21875 C 248.175781 123.675781 262.023438 117.476562 275.085938 119.820312 L 275.308594 119.875 C 277.011719 120.480469 278.695312 121.214844 280.300781 122.070312 C 291.464844 128.027344 300.101562 140.277344 305.957031 158.484375 C 307.945312 164.796875 309.660156 171.699219 311.074219 179.066406 C 312.707031 190.839844 312.53125 200.441406 310.527344 207.710938 C 307.363281 216.734375 301.867188 221.40625 294.191406 221.605469 C 287.132812 221.785156 278.109375 218.011719 267.308594 210.351562 C 262.121094 206.21875 256.457031 204.199219 250.457031 204.359375 C 249.699219 204.375 248.9375 204.425781 248.109375 204.515625 C 246.339844 204.632812 244.597656 204.714844 242.933594 204.757812 C 233.101562 205.007812 225.105469 203.933594 219.179688 201.582031 C 213.171875 199.3125 209.246094 195.800781 207.53125 191.15625 C 205.207031 184.894531 206.808594 176.839844 212.484375 166.464844 C 219.8125 154.925781 227.070312 145.425781 234.0625 138.21875 " fill-opacity="1" fill-rule="nonzero"/><g clip-path="url(#6b88d81527)"><path fill="#4c5454" d="M 284.117188 92.410156 C 279.730469 99.824219 274.125 103.667969 267.480469 103.835938 L 267.429688 103.835938 C 260.910156 103.773438 255.21875 100.21875 250.542969 93.328125 C 245.429688 86.5625 242.828125 78.230469 242.792969 68.570312 C 242.6875 58.664062 244.765625 50.175781 248.960938 43.339844 C 253.394531 36.121094 258.953125 32.375 265.480469 32.21875 L 265.683594 32.210938 C 272.019531 32.128906 277.828125 35.492188 282.9375 42.210938 L 283.023438 42.335938 C 287.398438 49.523438 289.679688 57.699219 289.992188 67.304688 C 290.1875 72.140625 289.695312 76.765625 288.546875 80.992188 C 287.660156 84.902344 286.171875 88.734375 284.117188 92.410156 " fill-opacity="1" fill-rule="nonzero"/></g><g clip-path="url(#526d13635c)"><path fill="#4c5454" d="M 310.96875 143.359375 C 313.054688 137.300781 316.957031 131.949219 322.878906 127.015625 C 323.367188 126.585938 323.894531 126.1875 324.425781 125.78125 C 324.722656 125.558594 325.015625 125.335938 325.316406 125.097656 C 331.789062 119.96875 338.871094 117.273438 346.355469 117.082031 L 346.570312 117.082031 C 353.972656 116.378906 359.542969 118.300781 363.207031 122.839844 C 366.753906 127.546875 367.238281 133.488281 364.648438 140.515625 C 361.941406 147.480469 357.089844 153.664062 350.210938 158.890625 C 346.242188 161.859375 342.304688 164.027344 338.5 165.332031 C 335.324219 166.375 332.191406 166.945312 329.242188 167.019531 C 329.238281 167.023438 329.230469 167.023438 329.230469 167.023438 C 328.800781 167.046875 328.371094 167.070312 327.960938 167.082031 C 324.644531 167.160156 321.628906 166.726562 318.96875 165.785156 C 316.21875 164.761719 313.972656 163.132812 312.289062 160.929688 C 308.820312 156.371094 308.378906 150.453125 310.96875 143.359375 " fill-opacity="1" fill-rule="nonzero"/></g><path fill="#4c5454" d="M 340.195312 94.230469 C 337.511719 98.558594 334.597656 102.03125 331.355469 104.785156 C 328.417969 107.65625 325.050781 110.011719 321.320312 111.8125 L 320.730469 112.070312 C 319.738281 112.515625 318.792969 112.933594 317.816406 113.269531 C 315.347656 114.121094 312.960938 114.578125 310.710938 114.632812 C 307.234375 114.722656 304.007812 113.855469 301.082031 112.019531 C 295.691406 108.359375 292.96875 102.246094 292.972656 93.9375 C 292.476562 85.507812 294.9375 77.136719 300.292969 69.066406 C 302.578125 65.589844 305.105469 62.460938 307.804688 59.777344 C 311.453125 56.164062 315.242188 53.449219 319.410156 51.453125 C 327.105469 47.957031 333.886719 48.003906 339.503906 51.5625 C 344.777344 54.96875 347.75 60.972656 348.332031 69.433594 L 348.335938 69.507812 L 348.332031 69.585938 C 347.96875 77.847656 345.230469 86.136719 340.195312 94.230469 " fill-opacity="1" fill-rule="nonzero"/><g clip-path="url(#be8a13b6ef)"><path fill="#4c5454" d="M 13.371094 233.988281 C 18.039062 230.3125 23.953125 229.683594 30.949219 232.113281 C 38.039062 234.699219 44.351562 239.40625 49.730469 246.105469 C 55.226562 252.960938 58.144531 259.972656 58.414062 266.859375 C 58.777344 270.71875 58.460938 274.082031 57.4375 277.128906 C 56.527344 279.878906 54.9375 282.15625 52.734375 283.890625 L 52.574219 284.015625 C 48.101562 287.535156 42.25 288.101562 35.214844 285.695312 C 28.238281 283.53125 21.9375 278.863281 16.515625 271.867188 C 11.171875 265.433594 8.285156 258.328125 7.953125 250.847656 C 7.132812 243.425781 8.941406 237.765625 13.371094 233.988281 " fill-opacity="1" fill-rule="nonzero"/></g><g clip-path="url(#7ea51e2185)"><path fill="#4c5454" d="M 85.28125 237.554688 L 85.496094 237.476562 C 87.21875 236.933594 89.007812 236.515625 90.8125 236.246094 C 103.320312 234.332031 117.574219 238.972656 133.179688 250.050781 C 138.550781 253.914062 144.0625 258.410156 149.609375 263.472656 C 157.964844 271.917969 163.585938 279.714844 166.332031 286.734375 C 169.207031 295.855469 167.613281 302.894531 161.582031 307.640625 C 156.035156 312.007812 146.546875 314.390625 133.308594 314.71875 C 126.683594 314.515625 120.929688 316.292969 116.21875 320 C 115.625 320.46875 115.042969 320.96875 114.433594 321.535156 C 113.085938 322.691406 111.742188 323.796875 110.433594 324.824219 C 102.714844 330.902344 95.660156 334.832031 89.511719 336.496094 C 83.332031 338.265625 78.097656 337.8125 73.929688 335.125 C 68.316406 331.488281 64.769531 324.085938 63.097656 312.378906 C 62.058594 298.757812 62.175781 286.796875 63.453125 276.847656 C 66.046875 256.75 73.414062 243.503906 85.28125 237.554688 " fill-opacity="1" fill-rule="nonzero"/></g><path fill="#4c5454" d="M 69.613281 229.308594 L 69.585938 229.328125 L 69.570312 229.335938 C 64.316406 233.191406 57.625 233.757812 49.75 231.035156 C 41.601562 228.671875 34.527344 223.558594 28.707031 215.839844 C 22.6875 207.96875 19.265625 199.925781 18.527344 191.941406 C 17.757812 183.511719 19.960938 177.183594 25.089844 173.148438 L 25.253906 173.023438 C 30.273438 169.15625 36.941406 168.386719 45.0625 170.710938 L 45.207031 170.753906 C 53.015625 173.894531 59.742188 179.074219 65.75 186.582031 C 68.800781 190.339844 71.179688 194.335938 72.792969 198.410156 C 74.425781 202.070312 75.535156 206.027344 76.09375 210.199219 C 77.019531 218.765625 74.839844 225.195312 69.613281 229.308594 " fill-opacity="1" fill-rule="nonzero"/><path fill="#4c5454" d="M 156.9375 242.949219 C 156.933594 242.957031 156.933594 242.957031 156.933594 242.957031 C 156.597656 243.238281 156.273438 243.503906 155.945312 243.769531 C 153.339844 245.8125 150.667969 247.273438 147.976562 248.101562 C 145.15625 248.9375 142.378906 248.972656 139.707031 248.214844 C 134.199219 246.648438 130.296875 242.171875 128.125 234.941406 C 126.164062 228.835938 126.085938 222.214844 127.863281 214.71875 C 128.007812 214.082031 128.1875 213.449219 128.371094 212.800781 C 128.476562 212.453125 128.574219 212.097656 128.671875 211.722656 C 130.785156 203.742188 134.832031 197.347656 140.71875 192.71875 L 140.886719 192.585938 C 146.394531 187.597656 152.015625 185.800781 157.667969 187.246094 C 163.328125 188.890625 167.273438 193.351562 169.410156 200.535156 C 171.425781 207.734375 171.238281 215.589844 168.867188 223.890625 C 167.460938 228.644531 165.605469 232.734375 163.335938 236.058594 C 161.429688 238.796875 159.257812 241.128906 156.9375 242.949219 " fill-opacity="1" fill-rule="nonzero"/><path fill="#4c5454" d="M 117.511719 203.476562 L 117.195312 204.035156 C 116.660156 204.992188 116.164062 205.886719 115.574219 206.742188 C 114.113281 208.894531 112.476562 210.695312 110.707031 212.089844 C 107.980469 214.242188 104.871094 215.472656 101.429688 215.757812 C 94.914062 216.046875 89.066406 212.785156 84.101562 206.125 C 78.644531 199.671875 75.601562 191.496094 75.054688 181.828125 C 74.800781 177.675781 74.953125 173.65625 75.503906 169.890625 C 76.261719 164.816406 77.671875 160.375 79.808594 156.277344 C 83.878906 148.875 89.335938 144.851562 95.964844 144.347656 C 102.234375 143.914062 108.210938 146.945312 113.746094 153.367188 L 113.796875 153.429688 L 113.835938 153.496094 C 118.5 160.324219 121.273438 168.605469 122.09375 178.105469 C 122.539062 183.171875 122.285156 187.699219 121.335938 191.847656 C 120.703125 195.902344 119.421875 199.804688 117.511719 203.476562 " fill-opacity="1" fill-rule="nonzero"/></svg>