<svg xmlns="http://www.w3.org/2000/svg" xmlns:xlink="http://www.w3.org/1999/xlink" width="500" zoomAndPan="magnify" viewBox="0 0 375 374.999991" height="500" preserveAspectRatio="xMidYMid meet" version="1.0"><defs><clipPath id="153688b540"><path d="M 7.695312 258 L 202 258 L 202 348.949219 L 7.695312 348.949219 Z M 7.695312 258 " clip-rule="nonzero"/></clipPath></defs><path fill="#ffffff" d="M 224.738281 124.597656 C 225.238281 123.085938 225.359375 121.425781 224.984375 119.757812 C 223.882812 114.871094 219.03125 111.796875 214.148438 112.898438 C 213.808594 112.976562 213.484375 113.027344 213.148438 113.097656 C 216.46875 117.445312 220.339844 121.285156 224.738281 124.597656 Z M 224.738281 124.597656 " fill-opacity="1" fill-rule="nonzero"/><path fill="#ffffff" d="M 192.808594 118.328125 C 193.011719 116.835938 193.5 115.425781 194.234375 114.164062 C 180.707031 112.792969 169.425781 106.992188 161.105469 100.984375 C 156.359375 97.5625 152.640625 94.109375 150.164062 91.5625 C 148.925781 90.289062 147.996094 89.246094 147.398438 88.546875 C 147.097656 88.199219 146.886719 87.9375 146.753906 87.773438 C 146.6875 87.695312 146.644531 87.640625 146.625 87.613281 C 146.058594 86.875 145.398438 86.25 144.675781 85.738281 C 134.664062 75.695312 124.652344 65.648438 114.636719 55.605469 C 114.238281 55.195312 113.710938 54.8125 113.09375 54.460938 C 111.613281 53.199219 109.035156 51.175781 105.523438 49.105469 C 100.132812 45.957031 92.421875 42.574219 83.023438 42.546875 C 73.882812 42.460938 63.433594 46.183594 54.480469 55.183594 C 45.464844 64.15625 37.546875 77.925781 30.839844 98.683594 C 29.300781 103.449219 31.921875 108.5625 36.6875 110.097656 C 37.613281 110.394531 38.554688 110.539062 39.476562 110.539062 C 43.304688 110.539062 46.867188 108.089844 48.105469 104.246094 C 54.214844 85.230469 61.15625 74.070312 67.253906 68.066406 C 73.414062 62.082031 78.332031 60.773438 83.023438 60.6875 C 85.160156 60.671875 87.300781 61.058594 89.351562 61.671875 C 71.183594 83.460938 60.957031 110.269531 51.574219 137.421875 C 51.261719 138.324219 51.070312 139.230469 50.964844 140.125 C 49.820312 143.875 50.21875 148.078125 52.429688 151.675781 C 52.429688 151.675781 52.449219 151.710938 52.503906 151.796875 C 53.1875 152.976562 58.25 162.550781 58.195312 175.859375 C 58.183594 182.921875 56.878906 191.09375 52.753906 200.300781 C 48.609375 209.496094 41.589844 219.808594 29.671875 230.808594 C 23.914062 236.113281 23.550781 245.078125 28.855469 250.835938 C 31.648438 253.867188 35.457031 255.402344 39.28125 255.402344 C 42.714844 255.402344 46.15625 254.160156 48.882812 251.652344 C 63.246094 238.417969 72.769531 224.914062 78.605469 211.917969 C 84.453125 198.933594 86.550781 186.535156 86.539062 175.859375 C 86.53125 172.867188 86.363281 170.019531 86.085938 167.316406 C 88.855469 168.78125 94.617188 172.195312 99.976562 177.582031 C 103.667969 181.261719 107.179688 185.796875 109.746094 191.234375 C 112.308594 196.691406 114.015625 203.03125 114.03125 210.949219 C 114.023438 217.871094 112.691406 226.066406 109.050781 235.839844 C 106.3125 243.171875 110.039062 251.335938 117.371094 254.074219 C 119.003906 254.679688 120.675781 254.96875 122.320312 254.96875 C 128.070312 254.96875 133.476562 251.449219 135.605469 245.746094 C 140.28125 233.222656 142.378906 221.582031 142.371094 210.949219 C 142.386719 198.40625 139.421875 187.355469 134.960938 178.265625 C 128.246094 164.578125 118.492188 155.304688 110.535156 149.363281 C 108.414062 147.785156 106.417969 146.441406 104.601562 145.304688 C 111.308594 121.710938 122.109375 113.285156 138.1875 105.25 C 141.199219 108.25 145.3125 111.953125 150.484375 115.695312 C 161.9375 123.96875 178.832031 132.5 199.941406 132.605469 C 198.222656 130.726562 196.570312 128.769531 195.015625 126.722656 C 193.183594 124.308594 192.398438 121.328125 192.808594 118.328125 Z M 192.808594 118.328125 " fill-opacity="1" fill-rule="nonzero"/><path fill="#ffffff" d="M 163.992188 28.59375 C 164.714844 29.003906 165.421875 29.453125 166.101562 29.9375 C 166.785156 30.417969 167.441406 30.933594 168.070312 31.480469 C 168.703125 32.027344 169.304688 32.601562 169.878906 33.210938 C 170.457031 33.816406 171 34.449219 171.511719 35.109375 C 172.023438 35.769531 172.503906 36.453125 172.949219 37.15625 C 173.394531 37.863281 173.804688 38.589844 174.175781 39.339844 C 174.550781 40.085938 174.886719 40.847656 175.1875 41.628906 C 175.484375 42.410156 175.746094 43.203125 175.964844 44.007812 C 176.1875 44.8125 176.367188 45.628906 176.507812 46.449219 C 176.652344 47.273438 176.75 48.101562 176.808594 48.933594 C 176.871094 49.769531 176.890625 50.601562 176.867188 51.4375 C 176.84375 52.273438 176.78125 53.105469 176.675781 53.933594 C 176.574219 54.761719 176.429688 55.582031 176.242188 56.398438 C 176.058594 57.210938 175.835938 58.015625 175.570312 58.808594 C 175.308594 59.601562 175.003906 60.378906 174.664062 61.140625 C 174.324219 61.90625 173.949219 62.648438 173.535156 63.375 C 173.121094 64.101562 172.671875 64.804688 172.191406 65.488281 C 171.707031 66.167969 171.195312 66.824219 170.648438 67.457031 C 170.101562 68.085938 169.523438 68.691406 168.917969 69.265625 C 168.3125 69.839844 167.679688 70.382812 167.019531 70.894531 C 166.359375 71.40625 165.675781 71.886719 164.96875 72.332031 C 164.261719 72.777344 163.535156 73.1875 162.789062 73.5625 C 162.042969 73.933594 161.277344 74.269531 160.496094 74.570312 C 159.71875 74.871094 158.925781 75.128906 158.121094 75.351562 C 157.3125 75.570312 156.5 75.753906 155.675781 75.894531 C 154.851562 76.035156 154.023438 76.132812 153.191406 76.195312 C 152.359375 76.253906 151.523438 76.273438 150.6875 76.25 C 149.855469 76.226562 149.023438 76.164062 148.195312 76.058594 C 147.363281 75.957031 146.542969 75.8125 145.730469 75.625 C 144.914062 75.441406 144.109375 75.21875 143.316406 74.953125 C 142.523438 74.691406 141.746094 74.386719 140.984375 74.046875 C 140.222656 73.707031 139.476562 73.332031 138.75 72.917969 C 138.027344 72.503906 137.320312 72.054688 136.640625 71.574219 C 135.957031 71.089844 135.300781 70.578125 134.667969 70.03125 C 134.039062 69.484375 133.433594 68.90625 132.859375 68.300781 C 132.285156 67.695312 131.742188 67.0625 131.230469 66.402344 C 130.71875 65.742188 130.238281 65.058594 129.792969 64.351562 C 129.347656 63.644531 128.9375 62.917969 128.566406 62.171875 C 128.191406 61.425781 127.855469 60.660156 127.554688 59.882812 C 127.257812 59.101562 126.996094 58.308594 126.773438 57.503906 C 126.554688 56.695312 126.375 55.882812 126.230469 55.058594 C 126.089844 54.234375 125.992188 53.40625 125.929688 52.574219 C 125.871094 51.742188 125.851562 50.90625 125.875 50.074219 C 125.898438 49.238281 125.960938 48.40625 126.066406 47.578125 C 126.167969 46.75 126.3125 45.925781 126.496094 45.113281 C 126.683594 44.296875 126.90625 43.492188 127.171875 42.699219 C 127.433594 41.910156 127.738281 41.128906 128.078125 40.367188 C 128.417969 39.605469 128.792969 38.859375 129.207031 38.136719 C 129.621094 37.410156 130.066406 36.707031 130.550781 36.023438 C 131.03125 35.339844 131.546875 34.683594 132.09375 34.054688 C 132.640625 33.421875 133.21875 32.820312 133.824219 32.246094 C 134.429688 31.671875 135.0625 31.125 135.722656 30.613281 C 136.382812 30.101562 137.066406 29.621094 137.773438 29.175781 C 138.480469 28.730469 139.207031 28.324219 139.953125 27.949219 C 140.699219 27.574219 141.464844 27.238281 142.242188 26.941406 C 143.023438 26.640625 143.816406 26.378906 144.621094 26.160156 C 145.425781 25.9375 146.242188 25.757812 147.066406 25.617188 C 147.886719 25.476562 148.714844 25.375 149.550781 25.316406 C 150.382812 25.257812 151.21875 25.238281 152.050781 25.261719 C 152.886719 25.28125 153.71875 25.34375 154.546875 25.449219 C 155.375 25.554688 156.199219 25.699219 157.011719 25.882812 C 157.828125 26.066406 158.632812 26.292969 159.425781 26.554688 C 160.214844 26.820312 160.996094 27.121094 161.757812 27.460938 C 162.519531 27.800781 163.265625 28.179688 163.992188 28.59375 Z M 163.992188 28.59375 " fill-opacity="1" fill-rule="nonzero"/><path fill="#ffffff" d="M 294.988281 82.929688 C 295.824219 82.960938 296.65625 83.035156 297.480469 83.148438 C 298.308594 83.265625 299.128906 83.421875 299.941406 83.617188 C 300.753906 83.8125 301.554688 84.046875 302.34375 84.320312 C 303.132812 84.59375 303.90625 84.90625 304.664062 85.257812 C 305.421875 85.605469 306.160156 85.992188 306.882812 86.414062 C 307.601562 86.839844 308.300781 87.296875 308.976562 87.785156 C 309.652344 88.277344 310.300781 88.800781 310.925781 89.355469 C 311.550781 89.910156 312.144531 90.496094 312.710938 91.109375 C 313.277344 91.722656 313.8125 92.363281 314.316406 93.027344 C 314.820312 93.695312 315.289062 94.382812 315.726562 95.097656 C 316.164062 95.808594 316.5625 96.542969 316.925781 97.292969 C 317.292969 98.046875 317.617188 98.8125 317.90625 99.597656 C 318.195312 100.378906 318.445312 101.175781 318.65625 101.984375 C 318.867188 102.792969 319.035156 103.609375 319.167969 104.433594 C 319.296875 105.257812 319.386719 106.089844 319.433594 106.921875 C 319.484375 107.757812 319.492188 108.589844 319.457031 109.425781 C 319.425781 110.261719 319.351562 111.089844 319.234375 111.917969 C 319.121094 112.746094 318.964844 113.566406 318.769531 114.378906 C 318.574219 115.191406 318.339844 115.988281 318.066406 116.777344 C 317.792969 117.566406 317.480469 118.339844 317.128906 119.101562 C 316.78125 119.859375 316.394531 120.597656 315.96875 121.316406 C 315.546875 122.039062 315.089844 122.738281 314.597656 123.410156 C 314.109375 124.085938 313.585938 124.738281 313.03125 125.359375 C 312.472656 125.984375 311.890625 126.582031 311.277344 127.148438 C 310.664062 127.714844 310.023438 128.25 309.355469 128.753906 C 308.691406 129.257812 308 129.726562 307.289062 130.164062 C 306.574219 130.597656 305.84375 131 305.09375 131.363281 C 304.339844 131.726562 303.574219 132.054688 302.789062 132.339844 C 302.003906 132.628906 301.207031 132.878906 300.398438 133.089844 C 299.59375 133.300781 298.773438 133.472656 297.949219 133.601562 C 297.125 133.730469 296.296875 133.820312 295.460938 133.871094 C 294.628906 133.917969 293.792969 133.925781 292.960938 133.894531 C 292.125 133.859375 291.292969 133.785156 290.464844 133.671875 C 289.640625 133.554688 288.820312 133.402344 288.007812 133.207031 C 287.195312 133.011719 286.394531 132.773438 285.605469 132.5 C 284.816406 132.226562 284.042969 131.914062 283.285156 131.566406 C 282.527344 131.214844 281.785156 130.828125 281.066406 130.40625 C 280.34375 129.984375 279.648438 129.527344 278.972656 129.035156 C 278.296875 128.542969 277.648438 128.019531 277.023438 127.464844 C 276.398438 126.910156 275.804688 126.324219 275.238281 125.710938 C 274.671875 125.097656 274.136719 124.457031 273.632812 123.792969 C 273.128906 123.125 272.65625 122.4375 272.222656 121.722656 C 271.785156 121.011719 271.386719 120.28125 271.019531 119.527344 C 270.65625 118.777344 270.332031 118.007812 270.042969 117.222656 C 269.753906 116.441406 269.503906 115.644531 269.292969 114.835938 C 269.082031 114.027344 268.914062 113.210938 268.78125 112.386719 C 268.652344 111.5625 268.5625 110.730469 268.515625 109.898438 C 268.464844 109.0625 268.457031 108.230469 268.492188 107.394531 C 268.523438 106.5625 268.597656 105.730469 268.710938 104.902344 C 268.828125 104.074219 268.984375 103.253906 269.179688 102.445312 C 269.375 101.632812 269.609375 100.832031 269.882812 100.042969 C 270.15625 99.253906 270.46875 98.480469 270.820312 97.722656 C 271.167969 96.960938 271.554688 96.222656 271.976562 95.503906 C 272.402344 94.78125 272.859375 94.085938 273.347656 93.410156 C 273.839844 92.734375 274.363281 92.082031 274.917969 91.460938 C 275.472656 90.835938 276.058594 90.242188 276.671875 89.675781 C 277.285156 89.105469 277.925781 88.570312 278.59375 88.066406 C 279.257812 87.566406 279.949219 87.09375 280.660156 86.660156 C 281.371094 86.222656 282.105469 85.824219 282.855469 85.457031 C 283.609375 85.09375 284.375 84.769531 285.160156 84.480469 C 285.945312 84.191406 286.738281 83.941406 287.546875 83.730469 C 288.355469 83.519531 289.171875 83.351562 289.996094 83.21875 C 290.824219 83.089844 291.652344 83 292.488281 82.949219 C 293.320312 82.902344 294.15625 82.894531 294.988281 82.929688 Z M 294.988281 82.929688 " fill-opacity="1" fill-rule="nonzero"/><path fill="#ffffff" d="M 344.125 135.253906 C 335.871094 132.246094 328.757812 131.929688 325.65625 131.90625 C 324.488281 131.75 323.429688 131.753906 322.585938 131.960938 C 308.914062 135.152344 295.246094 138.351562 281.578125 141.542969 C 279.925781 141.660156 277.632812 141.769531 274.859375 141.769531 C 267.027344 141.777344 255.394531 140.863281 243.695312 136.933594 C 243.691406 136.933594 243.691406 136.933594 243.691406 136.933594 C 236.84375 134.632812 230.023438 131.359375 223.738281 126.6875 C 219.242188 123.351562 215.019531 119.304688 211.265625 114.371094 C 211.054688 114.097656 210.832031 113.839844 210.597656 113.59375 C 207.453125 110.296875 202.269531 109.816406 198.554688 112.636719 C 197.886719 113.144531 197.320312 113.726562 196.835938 114.363281 C 194.421875 117.523438 194.296875 122.023438 196.820312 125.34375 C 198.789062 127.9375 200.867188 130.328125 203.023438 132.554688 C 213.585938 143.488281 226.089844 150.1875 237.929688 154.136719 C 252.222656 158.902344 265.671875 159.898438 274.859375 159.90625 C 275 159.90625 275.132812 159.90625 275.273438 159.90625 C 284.191406 174.140625 289.382812 185.894531 285.609375 205.304688 C 282.71875 203.507812 279.589844 201.792969 276.207031 200.28125 C 269.765625 197.421875 262.34375 195.261719 254.121094 195.246094 C 244.175781 195.144531 233.199219 198.859375 224.257812 206.871094 C 215.238281 214.855469 207.996094 226.421875 202.09375 242.28125 C 199.371094 249.621094 203.109375 257.773438 210.449219 260.5 C 212.074219 261.101562 213.742188 261.390625 215.378906 261.390625 C 221.132812 261.390625 226.546875 257.859375 228.667969 252.148438 C 233.460938 239.179688 238.742188 231.847656 242.992188 228.140625 C 247.320312 224.464844 250.363281 223.691406 254.121094 223.59375 C 257.195312 223.578125 260.855469 224.464844 264.675781 226.171875 C 270.410156 228.699219 276.257812 233.023438 280.410156 236.710938 C 282.492188 238.550781 284.175781 240.214844 285.292969 241.378906 C 285.851562 241.957031 286.269531 242.410156 286.527344 242.699219 C 286.65625 242.839844 286.746094 242.941406 286.792969 242.996094 C 286.804688 243.007812 286.8125 243.015625 286.816406 243.023438 C 286.820312 243.027344 286.824219 243.03125 286.828125 243.03125 C 290.382812 247.167969 295.804688 248.746094 300.777344 247.597656 C 300.457031 250.757812 300.25 254.253906 300.25 258.105469 C 300.222656 277.148438 305.238281 304.28125 323.984375 336.46875 C 326.613281 340.992188 331.367188 343.519531 336.25 343.519531 C 338.667969 343.519531 341.117188 342.902344 343.359375 341.601562 C 350.125 337.664062 352.421875 328.992188 348.488281 322.226562 C 332.128906 294.019531 328.621094 272.289062 328.59375 258.105469 C 328.59375 251.410156 329.402344 246.386719 330.132812 243.199219 C 330.5 241.605469 330.847656 240.472656 331.0625 239.824219 C 331.171875 239.503906 331.246094 239.300781 331.277344 239.226562 L 331.285156 239.207031 C 331.539062 238.605469 331.730469 237.996094 331.894531 237.382812 C 332.285156 236.5625 332.601562 235.6875 332.816406 234.746094 C 338.972656 207.828125 344.320312 180.765625 341.265625 153.75 C 341.933594 154.089844 342.597656 154.449219 343.242188 154.851562 C 346.730469 157.003906 349.882812 159.925781 352.355469 164.425781 C 354.808594 168.9375 356.632812 175.210938 356.648438 184.359375 C 356.648438 190.894531 355.683594 198.863281 353.304688 208.453125 C 352.097656 213.316406 355.058594 218.234375 359.921875 219.441406 C 360.65625 219.625 361.390625 219.710938 362.113281 219.710938 C 366.183594 219.710938 369.886719 216.953125 370.910156 212.824219 C 373.578125 202.070312 374.785156 192.667969 374.785156 184.359375 C 374.796875 172.769531 372.386719 163.253906 368.28125 155.742188 C 362.125 144.402344 352.417969 138.253906 344.125 135.253906 Z M 344.125 135.253906 " fill-opacity="1" fill-rule="nonzero"/><g clip-path="url(#153688b540)"><path fill="#ffffff" d="M 7.902344 258.175781 L 201.96875 258.175781 L 201.96875 348.878906 L 7.902344 348.878906 Z M 7.902344 258.175781 " fill-opacity="1" fill-rule="nonzero"/></g></svg>