<svg xmlns="http://www.w3.org/2000/svg" xmlns:xlink="http://www.w3.org/1999/xlink" width="500" zoomAndPan="magnify" viewBox="0 0 375 374.999991" height="500" preserveAspectRatio="xMidYMid meet" version="1.0"><path fill="#4c5454" d="M 326.769531 266.699219 C 325.472656 265.921875 324.175781 265.207031 322.875 264.492188 C 366.445312 231.050781 367.289062 161.1875 325.148438 126.839844 C 279.242188 87.554688 206 106.839844 185.351562 163.460938 C 161.132812 149.695312 129.058594 153.914062 109.121094 173.523438 C 108.472656 170.015625 107.890625 166.511719 107.238281 162.941406 C 156.652344 143.527344 160.9375 71.710938 121.070312 40.871094 C 93.667969 18.144531 53.023438 25.417969 35.230469 56.195312 C 7.699219 100.214844 38.933594 167.09375 90.226562 166.054688 L 95.164062 193.78125 C 86.722656 212.808594 88.800781 235.078125 99.253906 252.804688 C 46.269531 238.777344 18.804688 310.851562 67.632812 335.722656 C 104.511719 353.253906 144.054688 314.941406 127.433594 277.609375 C 135.160156 281.179688 143.601562 283.125 152.300781 283.320312 C 144.1875 291.371094 133.148438 300.203125 135.550781 313.058594 C 136.523438 319.554688 140.355469 325.203125 146.003906 328.578125 C 155.613281 334.292969 165.546875 339.160156 175.351562 343.058594 C 197.558594 351.824219 221.648438 356.238281 244.761719 352.667969 C 266.582031 349.617188 289.957031 337.667969 308.136719 322.734375 C 316.382812 316.113281 324.367188 308.515625 331.835938 300.136719 C 341.054688 290.398438 338.457031 273.257812 326.769531 266.699219 Z M 349.820312 201.507812 C 346.574219 222.15625 338.847656 241.246094 322.941406 255.402344 C 306.578125 240.660156 296.96875 220.078125 296.058594 198.132812 C 296.058594 198.132812 349.820312 198.132812 349.820312 198.132812 C 350.144531 198.132812 350.082031 199.429688 349.820312 201.507812 Z M 322.941406 134.046875 C 339.171875 148.589844 348.914062 169.628906 349.820312 191.316406 L 296.058594 191.316406 C 296.902344 169.367188 306.578125 148.785156 322.941406 134.046875 Z M 271.515625 113.074219 C 288.203125 113.789062 304.304688 119.566406 317.550781 129.695312 C 300.214844 145.667969 290.085938 167.808594 289.175781 191.316406 L 271.515625 191.316406 Z M 271.515625 198.132812 L 289.175781 198.132812 C 290.085938 221.703125 300.28125 243.84375 317.617188 259.816406 C 317.160156 260.140625 316.707031 260.464844 316.253906 260.855469 C 302.097656 253.582031 287.097656 247.738281 271.515625 244.363281 Z M 264.699219 113.074219 L 264.699219 191.316406 L 247.035156 191.316406 C 246.128906 167.746094 235.996094 145.667969 218.660156 129.628906 C 231.90625 119.566406 248.011719 113.789062 264.699219 113.074219 Z M 216.648438 206.898438 C 216.0625 203.910156 215.285156 200.988281 214.3125 198.132812 C 214.3125 198.132812 240.21875 198.132812 240.21875 198.132812 C 241.839844 198.132812 235.21875 223.457031 234.308594 225.597656 C 231.519531 231.636719 228.660156 238.910156 223.726562 243.453125 C 220.15625 245.273438 215.738281 244.949219 211.972656 246.3125 C 217.492188 234.167969 219.246094 220.144531 216.648438 206.898438 Z M 247.035156 198.132812 L 264.761719 198.132812 L 264.761719 243.0625 C 254.4375 241.441406 243.984375 240.921875 233.59375 241.894531 C 241.839844 228.78125 246.453125 213.84375 247.035156 198.132812 Z M 192.820312 162.226562 C 197.949219 151.707031 204.570312 141.835938 213.335938 134.046875 C 229.632812 148.785156 239.246094 169.367188 240.152344 191.316406 C 240.152344 191.316406 211.390625 191.316406 211.390625 191.316406 C 211 191.316406 205.738281 181.835938 205.15625 180.992188 C 201.195312 175.730469 196.390625 171.054688 191.066406 167.160156 C 190.742188 166.902344 191.585938 164.824219 192.820312 162.226562 Z M 209.375 205.792969 L 197.6875 199.042969 L 197.6875 185.40625 L 199.246094 184.496094 C 203.921875 190.46875 207.492188 198.261719 209.375 205.792969 Z M 142.042969 163.265625 C 148.535156 161.902344 155.289062 161.640625 161.847656 162.613281 C 165.351562 163.132812 165.222656 163.003906 165.613281 166.121094 C 165.679688 166.574219 166.003906 170.277344 165.613281 170.535156 L 153.859375 177.355469 L 142.109375 170.535156 L 142.109375 163.265625 Z M 108.410156 184.5625 C 108.539062 184.433594 108.667969 184.238281 108.734375 184.105469 L 110.941406 185.40625 L 110.941406 199.042969 L 99.1875 205.859375 L 98.34375 205.339844 C 100.226562 197.808594 103.667969 190.730469 108.410156 184.5625 Z M 32.960938 106.320312 C 25.945312 72.816406 48.609375 33.855469 84.125 34.3125 C 112.433594 34.246094 135.808594 59.246094 140.355469 87.230469 C 151.847656 169.691406 50.621094 187.679688 32.960938 106.320312 Z M 100.617188 164.886719 C 101.394531 169.886719 102.628906 174.886719 103.214844 179.953125 C 102.433594 181.445312 101.265625 182.679688 100.355469 184.105469 C 99.253906 177.9375 98.148438 171.707031 97.109375 165.535156 C 97.046875 165.472656 100.355469 164.953125 100.617188 164.886719 Z M 51.074219 307.867188 C 44.0625 288.90625 55.035156 266.113281 74.320312 259.882812 C 81.722656 278.90625 70.75 302.085938 51.335938 308.449219 C 51.269531 308.253906 51.140625 308.058594 51.074219 307.867188 Z M 92.4375 332.667969 C 77.5 335.136719 61.789062 327.667969 54.257812 314.617188 C 76.527344 307.019531 89.125 280.335938 80.941406 258.257812 C 95.8125 255.597656 111.527344 263.324219 119.121094 276.308594 C 96.785156 283.839844 84.125 310.65625 92.4375 332.667969 Z M 124.121094 298.644531 C 123.734375 302.929688 122.628906 307.085938 120.875 311.046875 C 118.082031 317.28125 108.472656 331.304688 100.355469 330.589844 C 96.722656 330.265625 96.65625 320.785156 96.722656 317.410156 C 96.851562 301.957031 107.371094 287.347656 122.042969 282.476562 C 123.992188 287.542969 124.578125 293.125 124.121094 298.644531 Z M 126.199219 267.671875 L 124.707031 268.515625 C 117.628906 264.363281 111.332031 258.519531 106.65625 251.699219 L 114.382812 247.21875 L 126.199219 254.039062 Z M 131.980469 272.152344 C 132.691406 271.503906 133.082031 270.59375 133.082031 269.6875 L 133.082031 252.15625 C 133.082031 250.921875 132.433594 249.816406 131.394531 249.167969 C 126.847656 246.570312 122.695312 242.609375 117.5 240.988281 C 111.980469 239.234375 107.824219 243.257812 103.214844 245.921875 C 100.355469 240.597656 98.472656 234.816406 97.433594 228.84375 C 97.109375 226.832031 97.433594 212.675781 97.109375 212.480469 C 100.746094 214.558594 106.851562 210.015625 109.96875 208.261719 C 113.796875 206.117188 117.757812 203.195312 117.824219 198.390625 C 117.890625 193.390625 117.824219 188.394531 117.824219 183.457031 C 118.019531 181.054688 115.03125 179.953125 113.34375 178.914062 C 119.445312 172.679688 127.042969 167.941406 135.226562 165.148438 L 135.226562 172.484375 C 135.226562 173.71875 135.875 174.820312 136.914062 175.472656 C 137.5625 175.667969 153.535156 185.535156 153.796875 184.691406 C 153.988281 185.601562 170.027344 175.667969 170.675781 175.472656 C 171.714844 174.886719 172.367188 173.71875 172.367188 172.484375 L 172.367188 165.148438 C 180.742188 168.003906 188.402344 172.9375 194.636719 179.238281 C 193.011719 180.144531 190.609375 181.183594 190.742188 183.457031 C 190.742188 183.457031 190.742188 200.988281 190.742188 200.988281 C 190.742188 202.222656 191.390625 203.328125 192.429688 203.976562 L 207.625 212.742188 C 208.53125 213.261719 209.636719 213.324219 210.546875 212.9375 C 210.285156 213 210.089844 224.949219 209.960938 225.988281 C 209.765625 228.714844 205.933594 246.246094 204.507812 245.46875 C 204.507812 245.46875 195.804688 240.402344 195.804688 240.402344 C 194.765625 239.816406 193.46875 239.816406 192.363281 240.402344 L 177.367188 249.167969 C 176.328125 249.753906 175.675781 250.921875 175.675781 252.089844 C 175.675781 252.089844 175.675781 264.230469 175.675781 264.230469 C 170.289062 267.933594 165.09375 271.894531 160.160156 276.113281 C 150.742188 277.28125 140.613281 275.789062 131.980469 272.152344 Z M 200.15625 250.660156 C 197.492188 252.089844 183.535156 257.21875 182.496094 259.816406 L 182.496094 254.039062 L 194.246094 247.21875 Z M 149.445312 322.667969 C 141.394531 318.1875 139.574219 306.371094 145.9375 299.683594 C 151.652344 293.257812 157.820312 287.21875 164.25 281.699219 L 172.300781 334.355469 C 164.640625 331.046875 156.976562 327.148438 149.445312 322.667969 Z M 188.273438 340.332031 C 185.351562 339.421875 182.496094 338.382812 179.636719 337.277344 L 170.351562 276.632812 C 173.730469 273.972656 177.105469 271.503906 180.675781 269.167969 L 191.714844 341.304688 C 190.546875 340.980469 189.441406 340.71875 188.273438 340.332031 Z M 243.722656 345.914062 C 229.699219 348.058594 214.636719 347.148438 198.921875 343.382812 C 198.921875 343.382812 186.976562 265.207031 186.976562 265.207031 C 186.78125 263.324219 202.816406 257.089844 204.832031 256.308594 C 226.648438 247.285156 250.996094 246.179688 273.851562 251.960938 L 285.800781 330.136719 C 271.90625 338.382812 257.75 343.773438 243.722656 345.914062 Z M 296.320312 323.125 C 294.890625 324.164062 293.460938 325.070312 291.96875 326.046875 L 280.929688 253.90625 C 285.019531 255.011719 288.980469 256.441406 293.007812 257.933594 L 302.292969 318.578125 C 300.34375 320.136719 298.332031 321.628906 296.320312 323.125 Z M 326.769531 295.59375 C 320.925781 302.085938 314.757812 308.058594 308.460938 313.578125 L 300.410156 260.855469 C 308.136719 264.363281 316.253906 267.671875 323.199219 272.609375 C 330.277344 278.320312 333.847656 287.738281 326.769531 295.59375 Z M 272.617188 288.644531 C 277.035156 287.996094 278.007812 294.683594 273.65625 295.398438 C 273.65625 295.398438 268.464844 296.179688 268.464844 296.179688 L 269.371094 302.023438 C 269.632812 303.90625 268.398438 305.65625 266.515625 305.917969 C 264.699219 306.175781 262.878906 304.945312 262.621094 303.058594 C 262.621094 303.058594 261.710938 297.214844 261.710938 297.214844 L 254.375 298.320312 L 255.28125 304.164062 C 255.542969 306.046875 254.308594 307.800781 252.425781 308.058594 C 250.605469 308.320312 248.789062 307.085938 248.53125 305.203125 C 248.53125 305.203125 247.621094 299.359375 247.621094 299.359375 L 240.285156 300.464844 L 241.191406 306.308594 C 241.453125 308.191406 240.21875 309.941406 238.335938 310.203125 C 236.515625 310.460938 234.699219 309.230469 234.441406 307.347656 C 234.441406 307.347656 233.53125 301.503906 233.53125 301.503906 L 226.191406 302.605469 L 227.101562 308.449219 C 227.363281 310.332031 226.128906 312.085938 224.246094 312.34375 C 222.425781 312.605469 220.609375 311.371094 220.347656 309.488281 C 220.347656 309.488281 219.441406 303.644531 219.441406 303.644531 L 212.101562 304.75 L 213.011719 310.59375 C 213.273438 312.476562 212.039062 314.230469 210.15625 314.488281 C 208.335938 314.75 206.519531 313.515625 206.257812 311.632812 C 206.257812 311.632812 205.351562 305.789062 205.351562 305.789062 C 202.363281 306.046875 197.167969 308.253906 196.261719 303.710938 C 196 301.828125 197.234375 300.074219 199.117188 299.8125 L 204.3125 299.035156 L 203.402344 293.191406 C 203.144531 291.308594 204.375 289.554688 206.257812 289.296875 C 208.140625 289.035156 209.894531 290.269531 210.15625 292.152344 L 211.0625 297.996094 L 218.402344 296.890625 L 217.492188 291.046875 C 217.234375 289.164062 218.464844 287.414062 220.347656 287.152344 C 222.234375 286.828125 223.984375 288.125 224.246094 290.007812 L 225.15625 295.851562 L 232.492188 294.75 L 231.582031 288.90625 C 231.324219 287.023438 232.554688 285.269531 234.441406 285.007812 C 236.324219 284.683594 238.074219 285.984375 238.335938 287.867188 L 239.246094 293.710938 L 246.582031 292.605469 L 245.671875 286.761719 C 245.414062 284.878906 246.648438 283.125 248.53125 282.867188 C 250.414062 282.605469 252.164062 283.839844 252.425781 285.722656 L 253.335938 291.566406 L 260.671875 290.464844 L 259.761719 284.621094 C 259.503906 282.738281 260.738281 280.984375 262.621094 280.722656 C 264.503906 280.464844 266.253906 281.699219 266.515625 283.582031 L 267.425781 289.425781 Z M 170.742188 230.988281 C 171.78125 230.402344 172.429688 229.234375 172.429688 228 L 172.429688 210.46875 C 172.429688 209.234375 171.78125 208.132812 170.742188 207.480469 L 155.546875 198.714844 C 154.507812 198.132812 153.210938 198.132812 152.105469 198.714844 L 136.914062 207.480469 C 135.875 208.066406 135.226562 209.234375 135.226562 210.46875 L 135.226562 228 C 135.226562 229.234375 135.875 230.339844 136.914062 230.988281 C 137.5625 231.183594 153.601562 241.117188 153.796875 240.207031 C 154.054688 241.179688 170.15625 231.183594 170.742188 230.988281 Z M 142.042969 226.117188 L 142.042969 212.480469 L 153.859375 205.664062 L 165.613281 212.480469 L 165.613281 226.117188 L 153.859375 232.933594 Z M 108.863281 150.472656 C 146.523438 132.226562 147.628906 74.246094 115.617188 49.699219 C 74.253906 17.753906 26.464844 58.335938 35.6875 105.867188 C 40.621094 139.304688 76.789062 166.640625 108.863281 150.472656 Z M 128.019531 119.632812 L 127.886719 119.632812 L 125.226562 104.566406 L 131.71875 103.398438 C 131.265625 109.175781 130.03125 114.632812 128.019531 119.632812 Z M 130.941406 88.917969 C 131.394531 91.449219 131.589844 93.984375 131.71875 96.515625 L 123.992188 97.878906 L 121.328125 82.878906 L 129.058594 81.515625 C 129.835938 83.917969 130.484375 86.386719 130.941406 88.917969 Z M 117.628906 61.0625 C 121.265625 65.152344 124.316406 69.828125 126.589844 75.023438 L 120.097656 76.191406 L 117.433594 61.128906 Z M 117.304688 99.113281 L 102.242188 101.773438 L 99.578125 86.777344 L 114.640625 84.113281 Z M 113.410156 77.359375 L 98.34375 80.023438 L 95.683594 64.960938 L 110.746094 62.296875 Z M 109.1875 53.402344 L 109.578125 55.542969 L 94.511719 58.269531 L 92.371094 46.0625 C 98.214844 47.167969 103.929688 49.699219 109.1875 53.402344 Z M 95.550781 102.945312 L 80.488281 105.605469 L 77.828125 90.605469 L 92.890625 87.945312 Z M 88.996094 66.191406 L 91.65625 81.257812 L 76.59375 83.917969 L 73.929688 68.855469 Z M 77.632812 45.804688 C 80.164062 45.351562 82.761719 45.089844 85.292969 45.21875 L 87.824219 59.441406 L 72.761719 62.101562 L 70.230469 47.949219 C 72.566406 47.039062 75.035156 46.257812 77.632812 45.804688 Z M 69.90625 85.085938 L 54.839844 87.75 L 52.179688 72.6875 L 67.175781 70.023438 Z M 63.867188 51.128906 L 66.007812 63.335938 L 51.011719 66 L 50.621094 63.855469 C 54.257812 58.53125 58.738281 54.246094 63.867188 51.128906 Z M 45.296875 73.917969 L 45.492188 73.855469 L 48.152344 88.917969 L 41.660156 90.085938 C 42.050781 84.503906 43.28125 79.050781 45.296875 73.917969 Z M 42.375 104.632812 C 41.917969 102.101562 41.660156 99.566406 41.59375 97.035156 L 49.320312 95.671875 L 51.984375 110.671875 L 44.257812 112.035156 C 43.542969 109.632812 42.828125 107.164062 42.375 104.632812 Z M 55.683594 132.488281 C 52.046875 128.398438 48.996094 123.722656 46.722656 118.527344 L 53.21875 117.359375 L 55.878906 132.421875 Z M 58.738281 109.5 L 56.074219 94.503906 L 71.074219 91.839844 L 73.734375 106.839844 Z M 59.90625 116.191406 L 74.90625 113.527344 L 77.566406 128.589844 L 62.566406 131.253906 Z M 64.191406 140.085938 L 63.800781 137.941406 L 78.800781 135.277344 L 80.941406 147.484375 C 75.097656 146.316406 69.386719 143.851562 64.191406 140.085938 Z M 81.65625 112.359375 L 96.722656 109.695312 L 99.382812 124.761719 L 84.320312 127.421875 Z M 95.746094 147.746094 C 93.214844 148.199219 90.617188 148.332031 88.085938 148.332031 L 85.554688 134.175781 L 100.617188 131.511719 L 103.148438 145.667969 C 100.746094 146.511719 98.28125 147.292969 95.746094 147.746094 Z M 103.410156 108.460938 L 118.472656 105.800781 L 121.136719 120.863281 L 106.070312 123.527344 Z M 122.367188 127.550781 L 122.757812 129.628906 C 119.1875 134.824219 114.707031 139.238281 109.511719 142.421875 L 107.371094 130.214844 Z M 122.367188 127.550781 " fill-opacity="1" fill-rule="nonzero"/></svg>