<svg xmlns="http://www.w3.org/2000/svg" xmlns:xlink="http://www.w3.org/1999/xlink" width="500" zoomAndPan="magnify" viewBox="0 0 375 374.999991" height="500" preserveAspectRatio="xMidYMid meet" version="1.0"><defs><clipPath id="08b8b25e16"><path d="M 43.367188 16 L 332.867188 16 L 332.867188 364.699219 L 43.367188 364.699219 Z M 43.367188 16 " clip-rule="nonzero"/></clipPath></defs><path fill="#ffffff" d="M 177.984375 66.484375 L 177.769531 101.289062 L 187.972656 99.832031 Z M 177.984375 66.484375 " fill-opacity="1" fill-rule="nonzero"/><path fill="#ffffff" d="M 219.320312 79.316406 C 223.269531 78.75 225.425781 76.667969 224.652344 71.28125 L 223.695312 64.636719 C 223.007812 59.824219 221.066406 57.9375 217.3125 58.476562 L 212.214844 59.210938 L 215.1875 79.910156 L 219.332031 79.316406 Z M 219.320312 79.316406 " fill-opacity="1" fill-rule="nonzero"/><g clip-path="url(#08b8b25e16)"><path fill="#ffffff" d="M 332.550781 126.265625 L 280.121094 76.761719 L 319.3125 16.238281 L 57.859375 47.699219 C 57.859375 47.699219 43.367188 49.382812 43.367188 49.382812 L 79.863281 364.691406 L 108.839844 361.335938 L 85.074219 156.035156 L 332.542969 126.265625 Z M 268.589844 41.296875 L 269.976562 50.921875 L 258.902344 52.511719 L 267.1875 110.273438 L 256.597656 111.796875 L 248.308594 54.035156 L 237.234375 55.625 L 235.851562 46 L 268.582031 41.296875 Z M 216.226562 48.816406 C 227.199219 47.234375 232.652344 51.667969 234.140625 62.0625 L 234.902344 67.359375 C 235.894531 74.289062 234.335938 79.132812 229.929688 82.019531 C 235.542969 83.480469 238.003906 88.328125 239.019531 95.351562 L 240.515625 105.75 C 240.988281 109.019531 241.425781 111.417969 242.847656 113.769531 L 232.066406 115.320312 C 231.242188 113.667969 230.703125 112.664062 229.921875 107.179688 L 228.398438 96.589844 C 227.496094 90.335938 225.054688 88.328125 220.242188 89.015625 L 216.578125 89.546875 L 220.519531 116.984375 L 209.925781 118.507812 L 200.253906 51.117188 L 216.234375 48.824219 Z M 169.054688 55.585938 L 184.554688 53.367188 L 205.003906 119.203125 L 194.320312 120.738281 L 190.730469 108.769531 L 177.734375 110.636719 L 177.660156 123.125 L 167.941406 124.519531 Z M 160.101562 56.871094 L 161.484375 66.496094 L 150.410156 68.085938 L 158.695312 125.847656 L 148.105469 127.371094 L 139.816406 69.609375 L 128.742188 71.195312 L 127.359375 61.570312 L 160.089844 56.871094 Z M 108.582031 63.476562 C 118.882812 62 125.0625 67.398438 126.605469 78.183594 L 126.910156 80.300781 L 116.894531 81.742188 L 116.496094 78.945312 C 115.808594 74.132812 113.617188 72.582031 110.253906 73.0625 C 106.878906 73.546875 105.21875 75.65625 105.914062 80.46875 C 107.902344 94.332031 128.976562 93.960938 131.734375 113.210938 C 133.285156 123.988281 128.769531 130.929688 118.375 132.414062 C 107.976562 133.910156 101.707031 128.523438 100.152344 117.734375 L 99.558594 113.589844 L 109.574219 112.152344 L 110.261719 116.964844 C 110.949219 121.777344 113.320312 123.207031 116.691406 122.726562 C 120.066406 122.242188 121.933594 120.207031 121.234375 115.394531 C 119.246094 101.53125 98.175781 101.902344 95.414062 82.652344 C 93.863281 71.875 98.277344 64.953125 108.582031 63.476562 Z M 108.582031 63.476562 " fill-opacity="1" fill-rule="nonzero"/></g></svg>