<svg xmlns="http://www.w3.org/2000/svg" xmlns:xlink="http://www.w3.org/1999/xlink" width="500" zoomAndPan="magnify" viewBox="0 0 375 374.999991" height="500" preserveAspectRatio="xMidYMid meet" version="1.0"><defs><clipPath id="e040b345df"><path d="M 7.695312 248.089844 L 366.945312 248.089844 L 366.945312 307.425781 L 7.695312 307.425781 Z M 7.695312 248.089844 " clip-rule="nonzero"/></clipPath><clipPath id="1e6d3b214d"><path d="M 55 67.480469 L 320 67.480469 L 320 235 L 55 235 Z M 55 67.480469 " clip-rule="nonzero"/></clipPath></defs><g clip-path="url(#e040b345df)"><path fill="#ffffff" d="M 239.375 292.320312 L 135.613281 292.320312 C 134.898438 292.320312 134.441406 291.566406 134.769531 290.9375 L 142.757812 275.558594 C 142.921875 275.246094 143.246094 275.046875 143.601562 275.046875 L 231.386719 275.046875 C 231.742188 275.046875 232.066406 275.246094 232.230469 275.558594 L 240.21875 290.9375 C 240.546875 291.566406 240.089844 292.320312 239.375 292.320312 Z M 365.003906 294.066406 L 322.035156 251.097656 C 320.566406 249.628906 318.578125 248.804688 316.5 248.804688 L 58.488281 248.804688 C 56.410156 248.804688 54.421875 249.628906 52.953125 251.097656 L 9.984375 294.066406 C 8.515625 295.535156 7.695312 297.523438 7.695312 299.601562 C 7.695312 303.921875 11.195312 307.425781 15.519531 307.425781 L 359.472656 307.425781 C 363.792969 307.425781 367.296875 303.921875 367.296875 299.601562 C 367.296875 297.523438 366.472656 295.535156 365.003906 294.066406 " fill-opacity="1" fill-rule="nonzero"/></g><g clip-path="url(#1e6d3b214d)"><path fill="#ffffff" d="M 306.882812 67.566406 L 68.105469 67.566406 C 61.199219 67.566406 55.546875 73.21875 55.546875 80.128906 L 55.546875 221.890625 C 55.546875 228.796875 61.199219 234.449219 68.105469 234.449219 L 306.882812 234.449219 C 313.789062 234.449219 319.441406 228.796875 319.441406 221.890625 L 319.441406 80.128906 C 319.441406 73.21875 313.789062 67.566406 306.882812 67.566406 Z M 304.90625 82.105469 L 304.90625 219.910156 L 70.085938 219.910156 L 70.085938 82.105469 L 304.90625 82.105469 " fill-opacity="1" fill-rule="nonzero"/></g></svg>