<svg xmlns="http://www.w3.org/2000/svg" xmlns:xlink="http://www.w3.org/1999/xlink" width="500" zoomAndPan="magnify" viewBox="0 0 375 374.999991" height="500" preserveAspectRatio="xMidYMid meet" version="1.0"><defs><clipPath id="a1bc6ad6d3"><path d="M 80.605469 15.949219 L 294.355469 15.949219 L 294.355469 366.199219 L 80.605469 366.199219 Z M 80.605469 15.949219 " clip-rule="nonzero"/></clipPath></defs><g clip-path="url(#a1bc6ad6d3)"><path fill="#ffffff" d="M 80.710938 347.253906 L 80.710938 349.992188 C 80.710938 359.027344 88.105469 366.421875 97.140625 366.421875 L 277.851562 366.421875 C 286.890625 366.421875 294.28125 359.027344 294.28125 349.992188 L 294.28125 347.253906 C 294.28125 338.21875 286.890625 330.828125 277.851562 330.828125 L 277.851562 280.996094 C 277.851562 264.019531 266.902344 242.933594 253.484375 233.078125 L 201.1875 194.472656 L 201.1875 187.898438 L 253.484375 149.566406 C 267.175781 139.4375 277.851562 118.351562 277.851562 101.652344 L 277.851562 51.542969 C 286.890625 51.542969 294.28125 44.152344 294.28125 35.117188 L 294.28125 32.378906 C 294.28125 23.34375 286.890625 15.949219 277.851562 15.949219 L 97.140625 15.949219 C 88.105469 15.949219 80.710938 23.34375 80.710938 32.378906 L 80.710938 35.117188 C 80.710938 44.152344 88.105469 51.542969 97.140625 51.542969 L 97.140625 101.378906 C 97.140625 118.351562 107.820312 139.4375 121.507812 149.292969 L 173.808594 187.625 L 173.808594 194.199219 L 121.507812 232.53125 C 107.820312 242.660156 97.140625 263.746094 97.140625 280.445312 L 97.140625 330.828125 C 88.105469 330.828125 80.710938 338.21875 80.710938 347.253906 Z M 108.09375 280.996094 C 108.09375 267.578125 117.128906 249.78125 128.082031 241.839844 L 182.570312 201.863281 C 183.9375 200.769531 184.757812 199.125 184.757812 197.484375 L 184.757812 185.4375 C 184.757812 183.792969 183.9375 182.148438 182.570312 181.054688 L 128.082031 140.804688 C 117.402344 132.863281 108.09375 115.066406 108.09375 101.652344 L 108.09375 51.542969 L 266.902344 51.542969 L 266.902344 101.378906 C 266.902344 114.792969 257.589844 132.589844 246.914062 140.53125 L 192.425781 180.78125 C 191.054688 181.875 190.234375 183.519531 190.234375 185.160156 L 190.234375 197.210938 C 190.234375 198.851562 191.054688 200.496094 192.425781 201.589844 L 246.914062 241.566406 C 257.589844 249.507812 266.902344 267.578125 266.902344 280.71875 L 266.902344 330.828125 L 253.210938 330.828125 L 253.210938 287.839844 C 253.210938 275.246094 245.269531 259.910156 235.414062 252.246094 L 191.054688 219.386719 C 189.140625 218.019531 186.402344 218.019531 184.484375 219.386719 L 139.855469 252.246094 C 129.722656 259.636719 121.785156 275.246094 121.785156 287.566406 L 121.785156 330.828125 L 108.09375 330.828125 Z M 108.09375 280.996094 " fill-opacity="1" fill-rule="nonzero"/></g><path fill="#ffffff" d="M 190.78125 162.710938 L 235.140625 129.851562 C 237.054688 128.484375 237.878906 126.019531 237.054688 123.828125 C 236.234375 121.640625 234.316406 119.996094 231.855469 119.996094 L 142.59375 119.996094 C 140.128906 119.996094 138.210938 121.636719 137.390625 123.828125 C 136.570312 126.019531 137.390625 128.484375 139.308594 129.851562 L 183.9375 162.710938 C 185.03125 163.53125 186.128906 163.804688 187.222656 163.804688 C 188.867188 163.804688 189.960938 163.53125 190.78125 162.710938 Z M 190.78125 162.710938 " fill-opacity="1" fill-rule="nonzero"/></svg>