<svg xmlns="http://www.w3.org/2000/svg" xmlns:xlink="http://www.w3.org/1999/xlink" width="500" zoomAndPan="magnify" viewBox="0 0 375 374.999991" height="500" preserveAspectRatio="xMidYMid meet" version="1.0"><path fill="#4c5454" d="M 154.636719 48.171875 C 146.597656 59.289062 28.078125 256.769531 17.898438 270.875 C 8.984375 283.207031 7.746094 299.503906 14.671875 313.050781 C 21.597656 326.613281 35.539062 335.132812 50.757812 335.132812 C 123.488281 335.132812 251.5 335.132812 324.230469 335.132812 C 339.453125 335.132812 353.390625 326.613281 360.320312 313.050781 C 367.246094 299.503906 366.003906 283.207031 357.089844 270.875 C 354.175781 266.835938 222.113281 50.605469 220.351562 48.171875 C 212.730469 37.625 200.511719 31.371094 187.496094 31.371094 C 174.476562 31.371094 162.257812 37.625 154.636719 48.171875 Z M 187.496094 259.289062 C 194.484375 259.289062 200.15625 264.960938 200.15625 271.949219 C 200.15625 278.9375 194.484375 284.613281 187.496094 284.613281 C 180.503906 284.613281 174.832031 278.9375 174.832031 271.949219 C 174.832031 264.960938 180.503906 259.289062 187.496094 259.289062 Z M 174.832031 107.34375 L 174.832031 233.964844 C 174.832031 240.953125 180.503906 246.625 187.496094 246.625 C 194.484375 246.625 200.15625 240.953125 200.15625 233.964844 L 200.15625 107.34375 C 200.15625 100.355469 194.484375 94.679688 187.496094 94.679688 C 180.503906 94.679688 174.832031 100.355469 174.832031 107.34375 Z M 174.832031 107.34375 " fill-opacity="1" fill-rule="evenodd"/></svg>