<svg xmlns="http://www.w3.org/2000/svg" xmlns:xlink="http://www.w3.org/1999/xlink" width="500" zoomAndPan="magnify" viewBox="0 0 375 374.999991" height="500" preserveAspectRatio="xMidYMid meet" version="1.0"><defs><clipPath id="3ea2f8a1a8"><path d="M 12.261719 15.949219 L 362.511719 15.949219 L 362.511719 366.199219 L 12.261719 366.199219 Z M 12.261719 15.949219 " clip-rule="nonzero"/></clipPath></defs><g clip-path="url(#3ea2f8a1a8)"><path fill="#4c5454" d="M 88.449219 15.949219 C 67.5 15.949219 50.355469 33.09375 50.355469 54.042969 C 50.355469 74.996094 67.5 92.140625 88.449219 92.140625 C 109.402344 92.140625 126.546875 74.996094 126.546875 54.042969 C 126.546875 33.09375 109.402344 15.949219 88.449219 15.949219 Z M 217.972656 15.949219 L 217.972656 31.1875 L 141.785156 31.1875 L 141.785156 46.425781 L 347.496094 46.425781 L 347.496094 244.519531 L 149.402344 244.519531 L 149.402344 259.757812 L 214.164062 259.757812 L 172.261719 343.566406 L 187.496094 343.566406 L 225.59375 267.375 L 263.6875 343.566406 L 278.925781 343.566406 L 237.019531 259.757812 L 355.113281 259.757812 C 359.3125 259.757812 362.734375 256.332031 362.734375 252.136719 L 362.734375 38.804688 C 362.734375 34.609375 359.3125 31.1875 355.113281 31.1875 L 233.210938 31.1875 L 233.210938 15.949219 Z M 88.449219 31.1875 C 101.160156 31.1875 111.308594 41.335938 111.308594 54.042969 C 111.308594 66.753906 101.160156 76.902344 88.449219 76.902344 C 75.742188 76.902344 65.59375 66.753906 65.59375 54.042969 C 65.59375 41.335938 75.742188 31.1875 88.449219 31.1875 Z M 54.164062 99.757812 C 31.101562 99.757812 12.261719 118.597656 12.261719 141.664062 L 12.261719 235.472656 C 12.230469 235.796875 12.230469 236.097656 12.261719 236.421875 L 12.261719 236.898438 C 12.230469 237.613281 12.320312 238.359375 12.5 239.042969 C 13.628906 250.558594 23.332031 259.757812 35.117188 259.757812 C 37.796875 259.757812 40.328125 259.191406 42.738281 258.328125 L 42.738281 339.753906 C 42.738281 354.398438 54.761719 366.421875 69.402344 366.421875 C 76.84375 366.421875 83.601562 363.296875 88.449219 358.328125 C 93.300781 363.296875 100.058594 366.421875 107.5 366.421875 C 122.140625 366.421875 134.164062 354.398438 134.164062 339.753906 L 134.164062 145.472656 L 217.972656 145.472656 C 230.503906 145.472656 240.832031 135.144531 240.832031 122.613281 C 240.832031 110.234375 230.769531 100.027344 218.449219 99.757812 C 218.300781 99.757812 218.121094 99.757812 217.972656 99.757812 L 111.308594 99.757812 C 108.363281 99.726562 105.683594 101.394531 104.402344 104.042969 L 88.449219 135.949219 L 72.5 104.042969 C 71.21875 101.394531 68.539062 99.726562 65.59375 99.757812 Z M 54.164062 114.996094 L 60.832031 114.996094 L 81.546875 156.425781 C 82.796875 159.101562 85.503906 160.828125 88.449219 160.828125 C 91.398438 160.828125 94.105469 159.101562 95.355469 156.425781 L 116.070312 114.996094 L 217.972656 114.996094 C 218.210938 114.996094 218.449219 114.996094 218.6875 114.996094 C 222.644531 115.351562 225.59375 118.566406 225.59375 122.613281 C 225.59375 126.929688 222.289062 130.234375 217.972656 130.234375 L 126.546875 130.234375 C 122.347656 130.234375 118.925781 133.65625 118.925781 137.851562 L 118.925781 339.753906 C 118.925781 346.152344 113.898438 351.183594 107.5 351.183594 C 101.488281 351.183594 96.636719 346.777344 96.070312 340.945312 L 96.070312 339.042969 C 96.070312 338.804688 96.070312 338.566406 96.070312 338.328125 L 96.070312 259.757812 C 96.160156 257.554688 95.265625 255.441406 93.6875 253.953125 C 92.082031 252.433594 89.910156 251.691406 87.738281 251.898438 C 87.410156 251.957031 87.082031 252.046875 86.785156 252.136719 C 83.242188 252.941406 80.742188 256.125 80.832031 259.757812 L 80.832031 338.328125 C 80.800781 338.652344 80.800781 338.953125 80.832031 339.277344 L 80.832031 340.945312 C 80.265625 346.777344 75.414062 351.183594 69.402344 351.183594 C 63.003906 351.183594 57.976562 346.152344 57.976562 339.753906 L 57.976562 160.710938 C 58.035156 158.359375 56.992188 156.125 55.175781 154.636719 C 53.390625 153.148438 50.980469 152.585938 48.691406 153.089844 C 45.148438 153.894531 42.648438 157.078125 42.738281 160.710938 L 42.738281 235.707031 C 42.738281 235.945312 42.738281 236.183594 42.738281 236.421875 L 42.738281 236.898438 C 42.738281 241.214844 39.433594 244.519531 35.117188 244.519531 C 30.980469 244.519531 27.738281 241.453125 27.5 237.375 C 27.5 237.226562 27.5 237.046875 27.5 236.898438 C 27.558594 236.421875 27.558594 235.945312 27.5 235.472656 L 27.5 141.664062 C 27.5 126.839844 39.34375 114.996094 54.164062 114.996094 Z M 54.164062 114.996094 " fill-opacity="1" fill-rule="nonzero"/></g></svg>