<svg xmlns="http://www.w3.org/2000/svg" xmlns:xlink="http://www.w3.org/1999/xlink" width="500" zoomAndPan="magnify" viewBox="0 0 375 374.999991" height="500" preserveAspectRatio="xMidYMid meet" version="1.0"><defs><clipPath id="18dbae7a35"><path d="M 109 26.347656 L 266 26.347656 L 266 194 L 109 194 Z M 109 26.347656 " clip-rule="nonzero"/></clipPath><clipPath id="7b0b3caa6d"><path d="M 41 194 L 334 194 L 334 348.847656 L 41 348.847656 Z M 41 194 " clip-rule="nonzero"/></clipPath></defs><g clip-path="url(#18dbae7a35)"><path fill="#ffffff" d="M 187.5 193.53125 C 230.644531 193.53125 265.738281 147.738281 265.738281 104.597656 C 265.738281 61.453125 230.644531 26.347656 187.5 26.347656 C 144.351562 26.347656 109.253906 61.453125 109.253906 104.597656 C 109.261719 147.734375 144.355469 193.53125 187.5 193.53125 Z M 187.5 193.53125 " fill-opacity="1" fill-rule="nonzero"/></g><g clip-path="url(#7b0b3caa6d)"><path fill="#ffffff" d="M 246.234375 194.332031 C 231.058594 205.894531 212.125 212.773438 191.617188 212.773438 L 183.378906 212.773438 C 162.867188 212.773438 143.929688 205.890625 128.757812 194.332031 C 79.203125 202.34375 41.359375 245.296875 41.359375 297.105469 C 41.359375 325.570312 106.789062 348.648438 187.5 348.648438 C 268.207031 348.648438 333.636719 325.570312 333.636719 297.105469 C 333.636719 245.296875 295.792969 202.34375 246.234375 194.332031 Z M 246.234375 194.332031 " fill-opacity="1" fill-rule="nonzero"/></g></svg>