<svg xmlns="http://www.w3.org/2000/svg" xmlns:xlink="http://www.w3.org/1999/xlink" width="500" zoomAndPan="magnify" viewBox="0 0 375 374.999991" height="500" preserveAspectRatio="xMidYMid meet" version="1.0"><defs><clipPath id="6b3037a56e"><path d="M 92 283 L 270 283 L 270 327.917969 L 92 327.917969 Z M 92 283 " clip-rule="nonzero"/></clipPath><clipPath id="929a9d4013"><path d="M 190 47.417969 L 205 47.417969 L 205 60 L 190 60 Z M 190 47.417969 " clip-rule="nonzero"/></clipPath><clipPath id="068a7b064c"><path d="M 8.691406 204 L 99 204 L 99 294 L 8.691406 294 Z M 8.691406 204 " clip-rule="nonzero"/></clipPath><clipPath id="4323ee1c6c"><path d="M 8.691406 82 L 98 82 L 98 181 L 8.691406 181 Z M 8.691406 82 " clip-rule="nonzero"/></clipPath></defs><path fill="#4c5454" d="M 229.5 260.308594 C 227.824219 260.308594 226.148438 259.75 224.75 259.191406 L 187.855469 239.625 L 150.960938 259.191406 C 147.046875 261.425781 142.574219 260.585938 140.339844 257.792969 C 138.664062 255.835938 138.101562 253.039062 138.664062 250.246094 L 145.648438 208.597656 L 115.183594 178.691406 C 112.390625 175.898438 111.550781 172.824219 112.390625 169.746094 C 113.507812 166.671875 116.023438 164.714844 119.933594 164.15625 L 161.300781 158.007812 L 179.75 119.996094 C 181.425781 116.640625 184.222656 114.683594 187.574219 114.683594 C 190.648438 114.683594 193.445312 116.640625 195.402344 119.996094 L 213.847656 158.007812 L 255.214844 164.15625 C 258.847656 164.714844 261.644531 166.671875 262.761719 169.746094 C 263.878906 172.824219 262.761719 176.175781 259.96875 178.691406 L 230.058594 208.320312 C 230.058594 208.320312 237.046875 249.964844 237.046875 249.964844 C 237.886719 254.996094 235.089844 260.027344 229.5 260.308594 Z M 187.574219 227.324219 C 188.414062 227.324219 189.253906 227.605469 190.089844 227.886719 L 225.03125 246.332031 L 218.320312 207.203125 C 218.042969 205.523438 218.601562 203.566406 220 202.171875 L 248.226562 174.21875 L 209.097656 168.351562 C 207.140625 168.070312 205.742188 166.953125 204.90625 165.277344 L 187.574219 129.777344 L 169.96875 165.554688 C 169.128906 167.230469 167.453125 168.351562 165.773438 168.628906 L 126.644531 174.5 L 154.875 202.449219 C 156.269531 203.847656 156.832031 205.523438 156.550781 207.480469 L 149.84375 246.890625 L 184.78125 228.445312 C 185.898438 227.605469 186.738281 227.324219 187.574219 227.324219 Z M 187.574219 227.324219 " fill-opacity="1" fill-rule="nonzero"/><g clip-path="url(#6b3037a56e)"><path fill="#4c5454" d="M 190.648438 327.390625 C 187.574219 327.390625 185.058594 324.875 185.058594 321.796875 C 185.058594 318.722656 187.296875 316.207031 190.648438 316.207031 C 191.488281 316.207031 193.445312 316.207031 193.445312 316.207031 C 196.519531 316.207031 198.757812 318.445312 199.035156 321.519531 C 199.035156 324.59375 196.800781 327.109375 193.726562 327.390625 C 192.605469 327.390625 190.648438 327.390625 190.648438 327.390625 Z M 168.289062 325.992188 C 168.011719 325.992188 165.496094 325.710938 164.65625 325.433594 C 161.582031 324.875 159.625 322.078125 159.90625 319.003906 C 160.464844 315.929688 163.257812 313.972656 166.332031 314.253906 C 167.171875 314.253906 168.011719 314.53125 168.847656 314.53125 C 171.921875 315.089844 174.160156 317.886719 173.601562 320.960938 C 173.601562 324.035156 171.085938 325.992188 168.289062 325.992188 Z M 215.527344 324.59375 C 213.011719 324.59375 210.496094 322.917969 209.9375 320.121094 C 209.378906 317.046875 211.332031 314.253906 214.128906 313.414062 C 214.96875 313.132812 215.804688 313.132812 216.644531 312.855469 C 219.71875 312.015625 222.792969 313.972656 223.351562 317.046875 C 224.191406 320.121094 222.234375 323.195312 219.160156 323.753906 C 218.601562 324.035156 216.085938 324.59375 215.527344 324.59375 Z M 143.972656 320.402344 C 142.296875 320.402344 140.898438 319.5625 139.5 319.285156 C 136.707031 318.164062 135.027344 315.089844 136.148438 312.015625 C 137.265625 309.222656 140.339844 307.542969 143.414062 308.660156 C 144.253906 308.941406 145.089844 309.222656 145.929688 309.5 C 148.722656 310.617188 150.402344 313.691406 149.5625 316.488281 C 148.445312 318.722656 146.207031 320.402344 143.972656 320.402344 Z M 239.5625 317.046875 C 237.328125 317.046875 235.371094 315.648438 234.53125 313.691406 C 233.414062 310.898438 234.8125 307.542969 237.605469 306.425781 C 238.445312 306.148438 239.285156 305.867188 240.121094 305.308594 C 242.917969 304.191406 246.273438 305.308594 247.390625 308.101562 C 248.507812 310.898438 247.390625 314.253906 244.59375 315.371094 C 242.917969 316.207031 241.242188 317.046875 239.5625 317.046875 Z M 120.773438 310.058594 C 118.816406 310.058594 117.140625 308.941406 115.464844 307.824219 C 112.667969 306.148438 111.828125 302.792969 113.507812 300.277344 C 115.183594 297.480469 118.539062 296.644531 121.054688 298.320312 C 121.890625 298.878906 122.449219 299.160156 123.289062 299.71875 C 126.085938 301.117188 126.921875 304.75 125.527344 307.265625 C 124.6875 309.222656 122.730469 310.058594 120.773438 310.058594 Z M 261.925781 305.308594 C 259.96875 305.308594 258.289062 304.46875 257.171875 302.792969 C 255.496094 300.277344 256.335938 296.644531 258.847656 294.964844 C 259.6875 294.40625 260.246094 293.847656 261.085938 293.570312 C 263.601562 291.890625 267.234375 292.449219 268.910156 294.964844 C 270.589844 297.480469 270.03125 301.117188 267.515625 302.792969 C 265.558594 304.191406 264.160156 305.308594 261.925781 305.308594 Z M 100.089844 295.804688 C 97.855469 295.804688 95.898438 294.128906 94.222656 292.730469 C 91.984375 290.773438 91.707031 287.140625 93.660156 284.902344 C 95.617188 282.667969 99.253906 282.386719 101.488281 284.34375 C 102.046875 284.902344 102.886719 285.464844 103.445312 286.023438 C 105.960938 287.980469 106.238281 291.613281 104.28125 293.847656 C 103.445312 295.246094 101.765625 295.804688 100.089844 295.804688 Z M 100.089844 295.804688 " fill-opacity="1" fill-rule="nonzero"/></g><path fill="#4c5454" d="M 145.089844 54.03125 C 144.253906 54.3125 143.132812 54.589844 142.296875 54.871094 C 139.5 55.988281 137.824219 59.0625 138.664062 61.859375 C 139.5 64.652344 142.855469 66.332031 145.648438 65.492188 C 146.488281 65.210938 147.328125 64.933594 148.445312 64.652344 C 151.519531 63.816406 152.917969 60.460938 152.078125 57.667969 C 151.238281 54.871094 148.164062 53.195312 145.089844 54.03125 Z M 145.089844 54.03125 " fill-opacity="1" fill-rule="nonzero"/><path fill="#4c5454" d="M 171.921875 48.441406 C 170.804688 48.441406 169.96875 48.722656 168.847656 48.722656 C 165.773438 49 163.539062 51.796875 164.097656 54.871094 C 164.375 57.667969 166.890625 59.621094 169.6875 59.621094 C 169.96875 59.621094 172.203125 59.34375 173.320312 59.34375 C 176.394531 59.0625 178.632812 56.269531 178.351562 53.195312 C 177.792969 50.398438 174.996094 48.164062 171.921875 48.441406 Z M 171.921875 48.441406 " fill-opacity="1" fill-rule="nonzero"/><path fill="#4c5454" d="M 119.933594 64.652344 C 119.097656 65.210938 118.257812 65.492188 117.140625 66.050781 C 114.34375 67.726562 113.507812 71.082031 115.183594 73.597656 C 116.582031 76.113281 120.214844 77.230469 122.730469 75.554688 C 123.570312 74.996094 124.40625 74.714844 125.246094 74.15625 C 128.042969 72.757812 128.878906 69.40625 127.480469 66.609375 C 126.085938 64.375 122.730469 63.257812 119.933594 64.652344 Z M 119.933594 64.652344 " fill-opacity="1" fill-rule="nonzero"/><path fill="#4c5454" d="M 98.691406 91.765625 C 101.207031 91.765625 102.605469 90.089844 104.5625 88.691406 C 107.078125 86.734375 107.359375 83.101562 105.402344 80.863281 C 103.445312 78.351562 99.8125 78.070312 97.574219 80.027344 C 96.738281 80.585938 95.898438 81.425781 95.339844 81.984375 C 93.101562 83.941406 92.824219 87.574219 94.78125 89.808594 C 95.339844 91.207031 97.015625 91.765625 98.691406 91.765625 Z M 98.691406 91.765625 " fill-opacity="1" fill-rule="nonzero"/><path fill="#4c5454" d="M 251.863281 62.976562 C 251.023438 62.417969 249.90625 62.136719 249.066406 61.578125 C 246.273438 60.183594 242.917969 61.300781 241.519531 64.09375 C 240.121094 66.890625 241.242188 70.242188 244.035156 71.640625 C 244.875 71.921875 245.710938 72.480469 246.550781 72.757812 C 249.347656 74.15625 252.699219 73.039062 254.097656 70.242188 C 255.773438 67.726562 254.65625 64.375 251.863281 62.976562 Z M 251.863281 62.976562 " fill-opacity="1" fill-rule="nonzero"/><path fill="#4c5454" d="M 274.78125 77.511719 C 273.941406 76.953125 273.105469 76.394531 272.265625 75.554688 C 269.75 73.597656 266.394531 74.15625 264.441406 76.671875 C 262.484375 79.1875 263.042969 82.542969 265.558594 84.5 C 266.394531 85.058594 266.957031 85.617188 267.792969 86.175781 C 270.308594 88.132812 273.664062 87.574219 275.621094 85.335938 C 277.855469 83.101562 277.296875 79.46875 274.78125 77.511719 Z M 274.78125 77.511719 " fill-opacity="1" fill-rule="nonzero"/><path fill="#4c5454" d="M 294.90625 96.515625 C 294.347656 95.679688 293.507812 94.839844 292.949219 94.28125 C 290.992188 92.046875 287.359375 91.765625 285.125 94 C 282.886719 95.957031 282.609375 99.59375 284.84375 101.828125 C 285.402344 102.386719 285.960938 103.226562 286.800781 103.785156 C 288.757812 106.019531 292.390625 106.300781 294.625 104.34375 C 296.582031 102.386719 296.863281 98.753906 294.90625 96.515625 Z M 294.90625 96.515625 " fill-opacity="1" fill-rule="nonzero"/><g clip-path="url(#929a9d4013)"><path fill="#4c5454" d="M 199.316406 48.164062 C 198.195312 48.164062 197.359375 47.882812 196.242188 47.882812 C 193.164062 47.605469 190.371094 50.121094 190.371094 53.195312 C 190.089844 56.269531 192.605469 59.0625 195.679688 59.0625 C 196.519531 59.0625 198.757812 59.34375 199.035156 59.34375 C 201.832031 59.34375 204.347656 57.105469 204.625 54.3125 C 204.625 50.957031 202.390625 48.441406 199.316406 48.164062 Z M 199.316406 48.164062 " fill-opacity="1" fill-rule="nonzero"/></g><path fill="#4c5454" d="M 226.148438 52.914062 C 225.308594 52.636719 224.191406 52.355469 223.074219 52.074219 C 220 51.238281 216.921875 53.195312 216.363281 55.988281 C 215.527344 59.0625 217.484375 62.136719 220.277344 62.699219 C 221.117188 62.976562 223.910156 63.535156 224.46875 63.535156 C 226.984375 63.535156 229.222656 61.859375 229.78125 59.34375 C 230.898438 56.828125 229.222656 53.753906 226.148438 52.914062 Z M 226.148438 52.914062 " fill-opacity="1" fill-rule="nonzero"/><path fill="#4c5454" d="M 357.515625 165.277344 L 291.832031 165.277344 C 288.476562 165.277344 285.402344 163.878906 284.003906 161.082031 C 282.328125 158.566406 282.609375 155.214844 284.285156 152.140625 L 317.265625 86.175781 C 318.941406 82.820312 321.738281 81.144531 324.8125 81.144531 C 327.886719 81.144531 330.683594 82.820312 332.359375 85.894531 L 365.621094 152.140625 C 367.296875 154.933594 367.296875 158.289062 365.621094 160.804688 C 363.664062 163.597656 360.867188 165.277344 357.515625 165.277344 Z M 295.464844 154.09375 L 353.601562 154.09375 L 324.535156 95.957031 Z M 295.464844 154.09375 " fill-opacity="1" fill-rule="nonzero"/><g clip-path="url(#068a7b064c)"><path fill="#4c5454" d="M 53.414062 293.847656 C 28.816406 293.847656 8.691406 273.722656 8.691406 249.128906 C 8.691406 224.53125 28.816406 204.40625 53.414062 204.40625 C 78.007812 204.40625 98.132812 224.53125 98.132812 249.128906 C 98.132812 273.722656 78.007812 293.847656 53.414062 293.847656 Z M 53.414062 215.585938 C 34.964844 215.585938 19.871094 230.679688 19.871094 249.128906 C 19.871094 267.574219 34.964844 282.667969 53.414062 282.667969 C 71.859375 282.667969 86.953125 267.574219 86.953125 249.128906 C 86.953125 230.679688 71.859375 215.585938 53.414062 215.585938 Z M 53.414062 215.585938 " fill-opacity="1" fill-rule="nonzero"/></g><path fill="#4c5454" d="M 355.277344 293.847656 L 288.199219 293.847656 C 282.046875 293.847656 277.015625 288.816406 277.015625 282.667969 L 277.015625 215.585938 C 277.015625 209.4375 282.046875 204.40625 288.199219 204.40625 L 355.277344 204.40625 C 361.429688 204.40625 366.460938 209.4375 366.460938 215.585938 L 366.460938 282.667969 C 366.460938 288.816406 361.429688 293.847656 355.277344 293.847656 Z M 288.199219 215.585938 L 288.199219 282.667969 L 355.277344 282.667969 L 355.277344 215.585938 Z M 288.199219 215.585938 " fill-opacity="1" fill-rule="nonzero"/><g clip-path="url(#4323ee1c6c)"><path fill="#4c5454" d="M 53.414062 180.367188 C 50.617188 180.367188 47.824219 179.808594 45.867188 178.414062 L 16.519531 161.640625 C 12.046875 159.125 8.691406 153.535156 8.691406 148.226562 L 8.691406 114.683594 C 8.691406 109.652344 12.046875 104.0625 16.238281 101.546875 L 45.585938 84.777344 C 49.78125 82.261719 56.488281 82.261719 60.960938 84.777344 L 90.308594 101.546875 C 94.78125 104.0625 97.855469 109.652344 97.855469 114.683594 L 97.855469 148.226562 C 97.855469 153.257812 94.5 158.847656 90.308594 161.363281 L 60.960938 178.132812 C 59.003906 179.53125 56.207031 180.367188 53.414062 180.367188 Z M 53.414062 94 C 52.574219 94 51.734375 94.28125 51.457031 94.28125 L 22.109375 111.050781 C 20.992188 111.890625 19.871094 113.566406 19.871094 114.683594 L 19.871094 148.226562 C 19.871094 149.34375 20.992188 151.300781 21.828125 151.859375 L 51.175781 168.628906 C 52.015625 168.910156 54.53125 168.910156 55.371094 168.628906 L 84.71875 151.859375 C 85.554688 151.300781 86.675781 149.34375 86.675781 148.226562 L 86.675781 114.683594 C 86.675781 113.566406 85.554688 111.609375 84.71875 111.050781 L 55.371094 94.28125 C 55.089844 94.28125 54.25 94 53.414062 94 Z M 53.414062 94 " fill-opacity="1" fill-rule="nonzero"/></g></svg>