<svg xmlns="http://www.w3.org/2000/svg" xmlns:xlink="http://www.w3.org/1999/xlink" width="500" zoomAndPan="magnify" viewBox="0 0 375 374.999991" height="500" preserveAspectRatio="xMidYMid meet" version="1.0"><defs><clipPath id="6461c748ad"><path d="M 209 199 L 359.347656 199 L 359.347656 353 L 209 353 Z M 209 199 " clip-rule="nonzero"/></clipPath><clipPath id="0c0fe2e824"><path d="M 143 363 L 148 363 L 148 366.199219 L 143 366.199219 Z M 143 363 " clip-rule="nonzero"/></clipPath><clipPath id="2992d25f96"><path d="M 22.597656 89 L 30 89 L 30 108 L 22.597656 108 Z M 22.597656 89 " clip-rule="nonzero"/></clipPath></defs><path fill="#ffffff" d="M 69.644531 332.160156 C 65.355469 338.640625 67.128906 347.371094 73.609375 351.664062 C 76 353.246094 78.699219 354.003906 81.367188 354.003906 C 85.929688 354.003906 90.402344 351.789062 93.113281 347.699219 C 108.890625 323.875 113.871094 302.019531 113.949219 284.003906 L 80.664062 257.015625 C 87.152344 273.175781 91.027344 299.871094 69.644531 332.160156 Z M 69.644531 332.160156 " fill-opacity="1" fill-rule="nonzero"/><path fill="#ffffff" d="M 112.894531 187.433594 C 106.707031 187.433594 101.625 182.589844 101.320312 176.40625 C 101.167969 173.3125 102.226562 170.34375 104.308594 168.050781 C 106.386719 165.753906 109.238281 164.40625 112.332031 164.253906 L 125.183594 163.621094 C 125.160156 163.609375 125.136719 163.597656 125.113281 163.585938 C 121.25 161.386719 118.105469 158.367188 115.777344 154.863281 C 107.734375 153.773438 97.859375 156.800781 90.179688 166.765625 C 75.664062 185.835938 69.375 199.320312 64.140625 223.949219 C 63.410156 229.417969 63.898438 233.761719 65.199219 237.25 C 65.886719 240.171875 67.496094 242.898438 70.003906 244.9375 L 75.191406 249.152344 L 120.90625 286.3125 L 139.363281 344.597656 C 141.265625 350.59375 146.804688 354.425781 152.777344 354.425781 C 154.1875 354.425781 155.617188 354.210938 157.03125 353.761719 C 164.441406 351.417969 168.542969 343.507812 166.199219 336.097656 L 146.46875 273.800781 C 145.636719 271.183594 144.058594 268.863281 141.925781 267.132812 L 102.410156 235.007812 L 102.414062 235.007812 C 107.035156 217.339844 118.097656 199.667969 125.425781 186.832031 L 113.472656 187.421875 C 113.28125 187.425781 113.085938 187.433594 112.894531 187.433594 Z M 112.894531 187.433594 " fill-opacity="1" fill-rule="nonzero"/><path fill="#ffffff" d="M 130.886719 163.339844 L 143.828125 162.703125 L 140.902344 136.390625 L 115.355469 130.121094 C 110.550781 142.398438 115.996094 156.476562 128.089844 162.214844 C 129.007812 162.652344 129.945312 163.023438 130.886719 163.339844 Z M 130.886719 163.339844 " fill-opacity="1" fill-rule="nonzero"/><path fill="#ffffff" d="M 115.003906 127.371094 L 140.601562 133.648438 L 140.21875 130.207031 C 140.015625 128.382812 140.261719 126.609375 140.847656 124.992188 L 124.628906 111.394531 C 121.832031 113.957031 119.589844 117.175781 118.207031 120.910156 L 116.679688 120.535156 C 114.800781 120.074219 112.886719 121.234375 112.425781 123.113281 C 111.964844 124.996094 113.125 126.910156 115.003906 127.371094 Z M 115.003906 127.371094 " fill-opacity="1" fill-rule="nonzero"/><path fill="#ffffff" d="M 150.300781 117.425781 C 150.355469 117.417969 150.40625 117.40625 150.460938 117.402344 C 150.894531 117.351562 151.324219 117.328125 151.753906 117.328125 C 157.664062 117.328125 162.613281 121.765625 163.269531 127.644531 L 163.347656 128.363281 L 165.625 130.273438 C 166.023438 118.929688 158.453125 108.472656 146.992188 105.660156 C 143.28125 104.75 139.566406 104.75 136.0625 105.496094 Z M 150.300781 117.425781 " fill-opacity="1" fill-rule="nonzero"/><path fill="#ffffff" d="M 242.019531 283.722656 L 247.929688 278.9375 L 244.832031 273.308594 L 239.203125 274.433594 L 235.546875 278.65625 L 236.953125 283.722656 Z M 242.019531 283.722656 " fill-opacity="1" fill-rule="nonzero"/><path fill="#ffffff" d="M 227.476562 289.632812 L 230.761719 285.992188 L 228.789062 282.410156 L 224.371094 281.753906 L 222.878906 285.8125 L 223.773438 289.035156 Z M 227.476562 289.632812 " fill-opacity="1" fill-rule="nonzero"/><path fill="#ffffff" d="M 280.109375 243.191406 L 283.394531 239.550781 L 281.421875 235.96875 L 277.003906 235.3125 L 275.511719 239.371094 L 276.40625 242.597656 Z M 280.109375 243.191406 " fill-opacity="1" fill-rule="nonzero"/><g clip-path="url(#6461c748ad)"><path fill="#ffffff" d="M 240.933594 327.191406 L 260.039062 319.28125 L 292.589844 321.585938 L 311.335938 337.667969 L 336.382812 341.625 L 345.328125 352.210938 L 359.105469 352.210938 L 359.105469 218.613281 L 346.203125 203.226562 L 327.832031 199.472656 L 310.773438 231.371094 L 269.4375 251.074219 L 259.378906 285.410156 L 225.257812 297.421875 L 216.28125 324.195312 L 215.28125 322.375 L 210.863281 321.71875 L 209.371094 325.78125 L 210.191406 328.746094 Z M 240.933594 327.191406 " fill-opacity="1" fill-rule="nonzero"/></g><path fill="#ffffff" d="M 256.09375 264.582031 L 259.375 260.941406 L 257.40625 257.359375 L 252.988281 256.703125 L 251.492188 260.761719 L 252.390625 263.988281 Z M 256.09375 264.582031 " fill-opacity="1" fill-rule="nonzero"/><path fill="#ffffff" d="M 200.78125 337.390625 L 198.355469 332.976562 L 193.941406 333.859375 L 191.074219 337.167969 L 192.179688 341.140625 L 196.148438 341.140625 Z M 200.78125 337.390625 " fill-opacity="1" fill-rule="nonzero"/><path fill="#ffffff" d="M 197.175781 359.984375 L 196.722656 356.144531 L 193.328125 355.496094 L 190.332031 357.023438 L 189.96875 360.167969 L 192.796875 361.316406 Z M 197.175781 359.984375 " fill-opacity="1" fill-rule="nonzero"/><path fill="#ffffff" d="M 180.398438 356.144531 L 177.003906 355.496094 L 174.007812 357.023438 L 173.644531 360.167969 L 176.46875 361.316406 L 180.851562 359.984375 Z M 180.398438 356.144531 " fill-opacity="1" fill-rule="nonzero"/><path fill="#ffffff" d="M 228.933594 356.601562 L 215.160156 356.183594 L 206.039062 358.007812 L 209.226562 361.320312 L 221.578125 362.304688 L 236.214844 360.578125 Z M 228.933594 356.601562 " fill-opacity="1" fill-rule="nonzero"/><path fill="#ffffff" d="M 190.714844 351.460938 L 190.800781 345.035156 L 185.351562 343.238281 L 180.085938 345.101562 L 178.808594 350.203125 L 183.214844 352.703125 Z M 190.714844 351.460938 " fill-opacity="1" fill-rule="nonzero"/><path fill="#ffffff" d="M 310.207031 340.109375 L 291.554688 324.105469 L 260.464844 321.90625 L 241.511719 329.757812 L 208.566406 331.417969 L 197.429688 352.792969 L 342.429688 352.792969 L 335.027344 344.03125 Z M 310.207031 340.109375 " fill-opacity="1" fill-rule="nonzero"/><path fill="#ffffff" d="M 158.484375 205.683594 C 159.199219 205.683594 159.898438 205.574219 160.578125 205.363281 C 163.746094 204.371094 165.25 201.402344 165.3125 201.277344 C 165.589844 200.71875 165.359375 200.042969 164.804688 199.765625 C 164.25 199.492188 163.570312 199.71875 163.292969 200.277344 C 163.28125 200.296875 162.128906 202.515625 159.90625 203.214844 C 158.460938 203.664062 156.828125 203.394531 155.050781 202.414062 C 154.507812 202.117188 153.820312 202.316406 153.519531 202.859375 C 153.21875 203.402344 153.417969 204.085938 153.964844 204.386719 C 155.527344 205.25 157.039062 205.683594 158.484375 205.683594 Z M 158.484375 205.683594 " fill-opacity="1" fill-rule="nonzero"/><path fill="#ffffff" d="M 151.617188 207.457031 C 151.292969 207.988281 151.464844 208.679688 152 209 C 154.453125 210.480469 156.835938 211.21875 159.125 211.21875 C 160.015625 211.21875 160.890625 211.105469 161.753906 210.878906 C 166.417969 209.652344 168.789062 205.523438 168.890625 205.347656 C 169.195312 204.808594 169.003906 204.121094 168.460938 203.816406 C 167.917969 203.507812 167.230469 203.703125 166.929688 204.242188 C 166.90625 204.277344 164.933594 207.714844 161.179688 208.703125 C 158.730469 209.351562 156.03125 208.800781 153.160156 207.074219 C 152.628906 206.75 151.9375 206.921875 151.617188 207.457031 Z M 151.617188 207.457031 " fill-opacity="1" fill-rule="nonzero"/><path fill="#ffffff" d="M 65.308594 62.65625 C 66.660156 62.625 68 62.25 69.1875 61.542969 L 142.03125 122.601562 C 143.277344 120.6875 145.085938 119.15625 147.246094 118.246094 L 73.484375 56.417969 C 73.972656 55.125 74.105469 53.742188 73.902344 52.40625 C 89 35.460938 104.621094 23.246094 115.882812 18.914062 C 104.304688 15.953125 84.496094 26.628906 66.804688 45.671875 C 64.273438 45.421875 61.664062 46.386719 59.910156 48.484375 L 59.003906 49.5625 C 57.246094 51.660156 56.753906 54.394531 57.4375 56.84375 C 41.78125 77.589844 34.726562 98.960938 39.667969 109.84375 C 41.960938 98 51.265625 80.480469 65.308594 62.65625 Z M 65.308594 62.65625 " fill-opacity="1" fill-rule="nonzero"/><path fill="#ffffff" d="M 163.761719 132.089844 L 164.832031 141.714844 L 174.140625 149.519531 L 178.046875 152.792969 L 167.417969 164.984375 L 168.242188 172.398438 C 168.59375 175.5625 167.609375 178.769531 165.542969 181.195312 C 163.476562 183.621094 160.464844 185.101562 157.285156 185.257812 L 135.75 186.320312 L 153.453125 197.046875 C 154.902344 197.925781 156.519531 198.351562 158.117188 198.351562 C 160.648438 198.351562 163.148438 197.285156 164.910156 195.265625 L 191.855469 164.367188 L 203.496094 174.125 L 207.796875 168.996094 L 195.167969 158.414062 C 195.609375 155.472656 194.59375 152.378906 192.1875 150.28125 C 189.6875 148.101562 186.328125 147.558594 183.394531 148.542969 L 177.117188 143.285156 Z M 163.761719 132.089844 " fill-opacity="1" fill-rule="nonzero"/><path fill="#ffffff" d="M 160.695312 127.929688 C 160.144531 122.988281 155.683594 119.421875 150.746094 119.972656 C 145.804688 120.523438 142.242188 124.976562 142.792969 129.921875 L 146.707031 165.152344 L 112.457031 166.839844 C 107.492188 167.085938 103.660156 171.3125 103.90625 176.28125 C 104.144531 181.097656 108.125 184.84375 112.894531 184.84375 C 113.042969 184.84375 113.195312 184.839844 113.34375 184.832031 L 157.15625 182.671875 C 159.640625 182.550781 161.960938 181.410156 163.570312 179.515625 C 165.183594 177.625 165.941406 175.152344 165.664062 172.683594 Z M 160.695312 127.929688 " fill-opacity="1" fill-rule="nonzero"/><path fill="#ffffff" d="M 159.371094 357.867188 L 159.007812 361.011719 L 161.835938 362.160156 L 166.214844 360.828125 L 165.761719 356.988281 L 162.367188 356.34375 Z M 159.371094 357.867188 " fill-opacity="1" fill-rule="nonzero"/><path fill="#ffffff" d="M 114.894531 356.34375 L 111.898438 357.867188 L 111.535156 361.011719 L 114.363281 362.160156 L 118.742188 360.828125 L 118.289062 356.988281 Z M 114.894531 356.34375 " fill-opacity="1" fill-rule="nonzero"/><path fill="#ffffff" d="M 130.714844 354.71875 L 125.4375 357.40625 L 124.800781 362.945312 L 129.773438 364.964844 L 137.484375 362.621094 L 136.691406 355.859375 Z M 130.714844 354.71875 " fill-opacity="1" fill-rule="nonzero"/><path fill="#ffffff" d="M 95.574219 357.867188 L 95.210938 361.011719 L 98.035156 362.160156 L 102.417969 360.828125 L 101.964844 356.988281 L 98.570312 356.34375 Z M 95.574219 357.867188 " fill-opacity="1" fill-rule="nonzero"/><path fill="#ffffff" d="M 85.242188 359.050781 L 85.03125 360.878906 L 86.675781 361.546875 L 89.222656 360.773438 L 88.960938 358.539062 L 86.984375 358.164062 Z M 85.242188 359.050781 " fill-opacity="1" fill-rule="nonzero"/><g clip-path="url(#0c0fe2e824)"><path fill="#ffffff" d="M 147.714844 365.703125 L 147.453125 363.472656 L 145.480469 363.09375 L 143.738281 363.980469 L 143.527344 365.8125 L 145.171875 366.476562 Z M 147.714844 365.703125 " fill-opacity="1" fill-rule="nonzero"/></g><path fill="#ffffff" d="M 151.054688 360.980469 L 150.84375 362.808594 L 152.488281 363.476562 L 155.035156 362.703125 L 154.773438 360.46875 L 152.796875 360.09375 Z M 151.054688 360.980469 " fill-opacity="1" fill-rule="nonzero"/><path fill="#ffffff" d="M 144.453125 356.902344 L 142.476562 356.527344 L 140.734375 357.414062 L 140.523438 359.242188 L 142.167969 359.910156 L 144.714844 359.136719 Z M 144.453125 356.902344 " fill-opacity="1" fill-rule="nonzero"/><path fill="#ffffff" d="M 31.328125 104.851562 C 31.542969 105.035156 31.804688 105.125 32.0625 105.125 C 32.378906 105.125 32.695312 104.992188 32.917969 104.730469 C 33.324219 104.257812 33.269531 103.546875 32.796875 103.144531 C 32.777344 103.128906 30.910156 101.460938 30.785156 99.136719 C 30.703125 97.625 31.363281 96.109375 32.753906 94.625 C 33.179688 94.171875 33.15625 93.457031 32.703125 93.035156 C 32.25 92.609375 31.539062 92.632812 31.113281 93.085938 C 29.285156 95.035156 28.417969 97.109375 28.535156 99.257812 C 28.714844 102.570312 31.222656 104.761719 31.328125 104.851562 Z M 31.328125 104.851562 " fill-opacity="1" fill-rule="nonzero"/><g clip-path="url(#2992d25f96)"><path fill="#ffffff" d="M 26.5 107.3125 C 26.71875 107.519531 26.996094 107.625 27.277344 107.625 C 27.574219 107.625 27.871094 107.507812 28.09375 107.277344 C 28.519531 106.828125 28.503906 106.117188 28.054688 105.683594 C 28.027344 105.65625 25.183594 102.894531 25.148438 99.015625 C 25.128906 96.480469 26.324219 94 28.707031 91.648438 C 29.148438 91.210938 29.152344 90.496094 28.71875 90.054688 C 28.277344 89.613281 27.566406 89.609375 27.125 90.046875 C 24.292969 92.839844 22.871094 95.867188 22.898438 99.035156 C 22.9375 103.855469 26.355469 107.175781 26.5 107.3125 Z M 26.5 107.3125 " fill-opacity="1" fill-rule="nonzero"/></g></svg>