<svg xmlns="http://www.w3.org/2000/svg" xmlns:xlink="http://www.w3.org/1999/xlink" width="960" zoomAndPan="magnify" viewBox="0 0 720 215.999996" height="288" preserveAspectRatio="xMidYMid meet" version="1.0"><defs><g/><clipPath id="3fa6ff7f91"><path d="M 44.792969 93 L 96 93 L 96 141 L 44.792969 141 Z M 44.792969 93 " clip-rule="nonzero"/></clipPath><clipPath id="36012e2462"><path d="M 164 94 L 206.792969 94 L 206.792969 144 L 164 144 Z M 164 94 " clip-rule="nonzero"/></clipPath><clipPath id="b1aa1c220a"><path d="M 123 12.75 L 129 12.75 L 129 27 L 123 27 Z M 123 12.75 " clip-rule="nonzero"/></clipPath><clipPath id="9583c54ef2"><path d="M 634.691406 133.441406 L 675.207031 133.441406 L 675.207031 173.960938 L 634.691406 173.960938 Z M 634.691406 133.441406 " clip-rule="nonzero"/></clipPath><clipPath id="ef09a68987"><path d="M 654.949219 133.441406 C 643.761719 133.441406 634.691406 142.511719 634.691406 153.699219 C 634.691406 164.890625 643.761719 173.960938 654.949219 173.960938 C 666.136719 173.960938 675.207031 164.890625 675.207031 153.699219 C 675.207031 142.511719 666.136719 133.441406 654.949219 133.441406 Z M 654.949219 133.441406 " clip-rule="nonzero"/></clipPath></defs><path fill="#ffffff" d="M 160.355469 101.214844 C 155.023438 101.214844 150.679688 96.875 150.679688 91.542969 C 150.679688 88.949219 151.6875 86.523438 153.519531 84.699219 L 153.925781 84.292969 L 157.835938 88.203125 L 157.425781 88.613281 C 156.644531 89.394531 156.210938 90.433594 156.210938 91.542969 C 156.210938 93.828125 158.070312 95.691406 160.355469 95.691406 C 161.464844 95.691406 162.503906 95.257812 163.285156 94.476562 L 171.582031 86.179688 C 172.363281 85.398438 172.800781 84.355469 172.800781 83.246094 C 172.800781 80.960938 170.9375 79.101562 168.652344 79.101562 C 167.832031 79.101562 167.042969 79.339844 166.371094 79.789062 L 163.308594 75.183594 C 164.894531 74.128906 166.742188 73.574219 168.652344 73.574219 C 173.988281 73.574219 178.328125 77.914062 178.328125 83.246094 C 178.328125 85.832031 177.320312 88.261719 175.492188 90.085938 L 167.199219 98.382812 C 165.375 100.210938 162.945312 101.214844 160.359375 101.214844 Z M 160.355469 101.214844 " fill-opacity="1" fill-rule="nonzero"/><path fill="#ffffff" d="M 116.804688 64.4375 L 109.285156 56.914062 C 107.457031 55.09375 106.449219 52.664062 106.449219 50.074219 C 106.449219 44.742188 110.789062 40.402344 116.125 40.402344 C 118.714844 40.402344 121.144531 41.40625 122.964844 43.238281 L 131.898438 52.171875 L 127.988281 56.082031 L 119.054688 47.144531 C 118.269531 46.363281 117.230469 45.929688 116.121094 45.929688 C 113.835938 45.929688 111.976562 47.789062 111.976562 50.074219 C 111.976562 51.183594 112.40625 52.222656 113.1875 53.003906 L 120.710938 60.53125 L 116.800781 64.441406 Z M 116.804688 64.4375 " fill-opacity="1" fill-rule="nonzero"/><path fill="#ffffff" d="M 174.886719 173.964844 L 138.257812 126.097656 L 135.304688 126.097656 C 125.703125 126.097656 116.679688 122.359375 109.894531 115.574219 L 81.640625 87.324219 C 79.8125 85.5 78.804688 83.070312 78.804688 80.484375 C 78.804688 75.152344 83.148438 70.808594 88.480469 70.808594 C 90.449219 70.808594 92.253906 71.355469 93.84375 72.429688 L 90.742188 77.007812 C 90.074219 76.558594 89.335938 76.339844 88.480469 76.339844 C 86.195312 76.339844 84.335938 78.199219 84.335938 80.484375 C 84.335938 81.59375 84.765625 82.632812 85.546875 83.414062 L 113.804688 111.667969 C 119.542969 117.40625 127.179688 120.570312 135.304688 120.570312 L 140.988281 120.570312 L 179.277344 170.609375 Z M 174.886719 173.964844 " fill-opacity="1" fill-rule="nonzero"/><g clip-path="url(#3fa6ff7f91)"><path fill="#ffffff" d="M 44.785156 136.734375 L 91.601562 93.234375 L 95.363281 97.285156 L 48.550781 140.785156 Z M 44.785156 136.734375 " fill-opacity="1" fill-rule="nonzero"/></g><path fill="#ffffff" d="M 79.75 173.890625 L 75.175781 170.785156 L 107.367188 123.332031 L 110.234375 123.332031 C 114.289062 123.332031 119.871094 121.613281 123.226562 119.328125 L 126.335938 123.902344 C 122.132812 126.761719 115.402344 128.84375 110.300781 128.859375 Z M 79.75 173.890625 " fill-opacity="1" fill-rule="nonzero"/><g clip-path="url(#36012e2462)"><path fill="#ffffff" d="M 203.054688 143.523438 L 168.976562 112.0625 C 166.136719 109.457031 164.503906 105.746094 164.503906 101.878906 L 164.503906 94.402344 L 170.035156 94.402344 L 170.035156 101.878906 C 170.035156 104.199219 171.011719 106.429688 172.722656 107.996094 L 206.804688 139.460938 Z M 203.054688 143.523438 " fill-opacity="1" fill-rule="nonzero"/></g><path fill="#ffffff" d="M 180.542969 52.804688 L 195.785156 45.203125 L 198.25 50.144531 L 183.007812 57.75 Z M 180.542969 52.804688 " fill-opacity="1" fill-rule="nonzero"/><path fill="#ffffff" d="M 158.101562 29.84375 L 166.207031 17.554688 L 170.824219 20.601562 L 162.71875 32.890625 Z M 158.101562 29.84375 " fill-opacity="1" fill-rule="nonzero"/><path fill="#ffffff" d="M 53.355469 50.132812 L 55.820312 45.191406 L 71.0625 52.792969 L 68.59375 57.738281 Z M 53.355469 50.132812 " fill-opacity="1" fill-rule="nonzero"/><path fill="#ffffff" d="M 80.773438 20.601562 L 85.390625 17.554688 L 93.5 29.839844 L 88.882812 32.886719 Z M 80.773438 20.601562 " fill-opacity="1" fill-rule="nonzero"/><g clip-path="url(#b1aa1c220a)"><path fill="#ffffff" d="M 123.039062 12.753906 L 128.566406 12.753906 L 128.566406 26.578125 L 123.039062 26.578125 Z M 123.039062 12.753906 " fill-opacity="1" fill-rule="nonzero"/></g><path fill="#ffffff" d="M 100.125 86.457031 L 89.933594 76.261719 C 88.101562 74.441406 87.097656 72.011719 87.097656 69.425781 C 87.097656 64.089844 91.4375 59.75 96.773438 59.75 C 98.683594 59.75 100.53125 60.304688 102.117188 61.359375 L 99.054688 65.964844 C 98.378906 65.515625 97.589844 65.277344 96.773438 65.277344 C 94.484375 65.277344 92.625 67.136719 92.625 69.425781 C 92.625 70.535156 93.058594 71.570312 93.839844 72.355469 L 104.035156 82.550781 L 100.125 86.460938 Z M 100.125 86.457031 " fill-opacity="1" fill-rule="nonzero"/><path fill="#ffffff" d="M 108.480469 75.464844 L 98.226562 65.210938 C 96.398438 63.386719 95.390625 60.957031 95.390625 58.371094 C 95.390625 53.035156 99.734375 48.695312 105.066406 48.695312 C 107.785156 48.695312 110.269531 49.777344 112.25 51.816406 L 108.285156 55.667969 C 107.339844 54.695312 106.289062 54.222656 105.070312 54.222656 C 102.785156 54.222656 100.921875 56.082031 100.921875 58.371094 C 100.921875 59.480469 101.355469 60.515625 102.136719 61.300781 L 112.394531 71.558594 L 108.484375 75.46875 Z M 108.480469 75.464844 " fill-opacity="1" fill-rule="nonzero"/><path fill="#ffffff" d="M 132.710938 70.808594 C 127.378906 70.808594 123.039062 66.464844 123.039062 61.132812 C 123.039062 58.546875 124.042969 56.117188 125.871094 54.292969 L 136.929688 43.234375 C 138.753906 41.40625 141.183594 40.402344 143.769531 40.402344 C 149.101562 40.402344 153.445312 44.742188 153.445312 50.074219 C 153.445312 52.664062 152.4375 55.09375 150.605469 56.917969 L 139.550781 67.972656 C 137.722656 69.800781 135.292969 70.808594 132.710938 70.808594 Z M 143.769531 45.925781 C 142.660156 45.925781 141.621094 46.359375 140.839844 47.140625 L 129.78125 58.199219 C 128.996094 58.980469 128.5625 60.027344 128.5625 61.132812 C 128.5625 63.417969 130.425781 65.277344 132.710938 65.277344 C 133.816406 65.277344 134.855469 64.847656 135.640625 64.0625 L 146.699219 53.003906 C 147.480469 52.222656 147.914062 51.183594 147.914062 50.070312 C 147.914062 47.785156 146.054688 45.925781 143.769531 45.925781 Z M 143.769531 45.925781 " fill-opacity="1" fill-rule="nonzero"/><path fill="#ffffff" d="M 143.769531 79.097656 C 138.4375 79.097656 134.09375 74.757812 134.09375 69.425781 C 134.09375 67.507812 134.652344 65.65625 135.710938 64.066406 L 140.316406 67.125 C 139.863281 67.8125 139.625 68.605469 139.625 69.425781 C 139.625 71.710938 141.484375 73.570312 143.769531 73.570312 C 144.878906 73.570312 145.917969 73.136719 146.699219 72.355469 L 157.757812 61.296875 C 158.542969 60.515625 158.976562 59.46875 158.976562 58.363281 C 158.976562 56.078125 157.117188 54.21875 154.828125 54.21875 C 153.722656 54.21875 152.683594 54.648438 151.898438 55.433594 L 151.476562 55.855469 L 147.566406 51.945312 L 147.988281 51.523438 C 149.816406 49.695312 152.246094 48.6875 154.828125 48.6875 C 160.160156 48.6875 164.5 53.03125 164.5 58.363281 C 164.5 60.949219 163.496094 63.378906 161.667969 65.203125 L 150.609375 76.261719 C 148.785156 78.089844 146.355469 79.09375 143.769531 79.09375 Z M 143.769531 79.097656 " fill-opacity="1" fill-rule="nonzero"/><path fill="#ffffff" d="M 152.0625 90.160156 C 146.730469 90.160156 142.390625 85.816406 142.390625 80.484375 C 142.390625 77.894531 143.394531 75.464844 145.226562 73.640625 L 145.632812 73.234375 L 149.542969 77.144531 L 149.132812 77.554688 C 148.351562 78.335938 147.917969 79.378906 147.917969 80.488281 C 147.917969 82.773438 149.777344 84.632812 152.0625 84.632812 C 153.175781 84.632812 154.210938 84.203125 154.992188 83.417969 L 166.054688 72.359375 C 166.835938 71.578125 167.269531 70.535156 167.269531 69.425781 C 167.269531 67.140625 165.410156 65.28125 163.125 65.28125 C 162.304688 65.28125 161.511719 65.519531 160.832031 65.96875 L 157.78125 61.355469 C 159.371094 60.308594 161.21875 59.75 163.125 59.75 C 168.457031 59.75 172.800781 64.089844 172.800781 69.425781 C 172.800781 72.007812 171.792969 74.4375 169.964844 76.261719 L 158.90625 87.320312 C 157.085938 89.148438 154.65625 90.15625 152.066406 90.15625 Z M 152.0625 90.160156 " fill-opacity="1" fill-rule="nonzero"/><g fill="#ffffff" fill-opacity="1"><g transform="translate(234.075182, 166.7919)"><g><path d="M 6.59375 -72.4375 C 6.59375 -74.96875 6.675781 -76.863281 6.84375 -78.125 C 7.007812 -79.394531 7.476562 -80.859375 8.25 -82.515625 C 9.789062 -85.367188 14.082031 -86.796875 21.125 -86.796875 C 26.40625 -86.796875 30.144531 -85.863281 32.34375 -84 C 34.207031 -82.457031 35.195312 -80.085938 35.3125 -76.890625 C 35.425781 -75.796875 35.484375 -74.203125 35.484375 -72.109375 L 35.484375 -14.359375 C 35.484375 -11.828125 35.398438 -9.925781 35.234375 -8.65625 C 35.066406 -7.394531 34.539062 -5.941406 33.65625 -4.296875 C 32.226562 -1.429688 27.992188 0 20.953125 0 C 14.023438 0 9.789062 -1.484375 8.25 -4.453125 C 7.476562 -6.109375 7.007812 -7.539062 6.84375 -8.75 C 6.675781 -9.957031 6.59375 -11.878906 6.59375 -14.515625 Z M 33.75 -103.046875 C 32.925781 -101.453125 31.46875 -100.320312 29.375 -99.65625 C 27.28125 -99 24.5 -98.671875 21.03125 -98.671875 C 17.570312 -98.671875 14.796875 -99 12.703125 -99.65625 C 10.617188 -100.320312 9.160156 -101.476562 8.328125 -103.125 C 7.503906 -104.78125 7.007812 -106.238281 6.84375 -107.5 C 6.675781 -108.769531 6.59375 -110.671875 6.59375 -113.203125 C 6.59375 -115.734375 6.675781 -117.628906 6.84375 -118.890625 C 7.007812 -120.160156 7.476562 -121.566406 8.25 -123.109375 C 9.789062 -126.078125 14.082031 -127.5625 21.125 -127.5625 C 28.050781 -127.5625 32.226562 -126.078125 33.65625 -123.109375 C 34.539062 -121.453125 35.066406 -119.988281 35.234375 -118.71875 C 35.398438 -117.457031 35.484375 -115.5625 35.484375 -113.03125 C 35.484375 -110.5 35.398438 -108.597656 35.234375 -107.328125 C 35.066406 -106.066406 34.570312 -104.640625 33.75 -103.046875 Z M 33.75 -103.046875 "/></g></g></g><g fill="#ffffff" fill-opacity="1"><g transform="translate(276.153623, 166.7919)"><g><path d="M 81.34375 -116.5 C 82.226562 -118.144531 83.710938 -119.296875 85.796875 -119.953125 C 87.890625 -120.617188 90.53125 -120.953125 93.71875 -120.953125 C 96.914062 -120.953125 99.445312 -120.675781 101.3125 -120.125 C 103.1875 -119.582031 104.617188 -118.925781 105.609375 -118.15625 C 106.597656 -117.382812 107.367188 -116.28125 107.921875 -114.84375 C 108.472656 -112.976562 108.75 -110.117188 108.75 -106.265625 L 108.75 -14.6875 C 108.75 -12.15625 108.664062 -10.253906 108.5 -8.984375 C 108.332031 -7.722656 107.8125 -6.269531 106.9375 -4.625 C 105.394531 -1.65625 101.101562 -0.171875 94.0625 -0.171875 C 86.363281 -0.171875 81.851562 -2.203125 80.53125 -6.265625 C 79.863281 -8.140625 79.53125 -11 79.53125 -14.84375 L 79.53125 -48.34375 L 35.8125 -48.34375 L 35.8125 -14.6875 C 35.8125 -12.15625 35.726562 -10.253906 35.5625 -8.984375 C 35.394531 -7.722656 34.875 -6.269531 34 -4.625 C 32.457031 -1.65625 28.164062 -0.171875 21.125 -0.171875 C 13.425781 -0.171875 8.914062 -2.203125 7.59375 -6.265625 C 6.925781 -8.140625 6.59375 -11 6.59375 -14.84375 L 6.59375 -106.4375 C 6.59375 -108.96875 6.675781 -110.863281 6.84375 -112.125 C 7.007812 -113.394531 7.535156 -114.851562 8.421875 -116.5 C 9.953125 -119.46875 14.238281 -120.953125 21.28125 -120.953125 C 28.988281 -120.953125 33.554688 -118.914062 34.984375 -114.84375 C 35.535156 -112.976562 35.8125 -110.117188 35.8125 -106.265625 L 35.8125 -72.609375 L 79.53125 -72.609375 L 79.53125 -106.4375 C 79.53125 -108.96875 79.613281 -110.863281 79.78125 -112.125 C 79.945312 -113.394531 80.46875 -114.851562 81.34375 -116.5 Z M 81.34375 -116.5 "/></g></g></g><g fill="#ffffff" fill-opacity="1"><g transform="translate(391.498044, 166.7919)"><g><path d="M 90.421875 -53.875 C 90.421875 -47.113281 88.742188 -42.109375 85.390625 -38.859375 C 82.035156 -35.617188 78.320312 -34 74.25 -34 L 35.140625 -34 C 35.140625 -30.914062 36.957031 -28.328125 40.59375 -26.234375 C 44.226562 -24.148438 47.859375 -23.109375 51.484375 -23.109375 C 57.867188 -23.109375 62.875 -23.765625 66.5 -25.078125 L 68.3125 -25.75 C 70.957031 -26.957031 73.160156 -27.5625 74.921875 -27.5625 C 78.441406 -27.5625 81.46875 -25.082031 84 -20.125 C 85.425781 -17.15625 86.140625 -14.628906 86.140625 -12.546875 C 86.140625 -2.753906 74.421875 2.140625 50.984375 2.140625 C 42.847656 2.140625 35.613281 0.738281 29.28125 -2.0625 C 22.957031 -4.863281 18.035156 -8.578125 14.515625 -13.203125 C 7.585938 -22.109375 4.125 -32.0625 4.125 -43.0625 C 4.125 -56.925781 8.601562 -68.007812 17.5625 -76.3125 C 26.53125 -84.625 37.726562 -88.78125 51.15625 -88.78125 C 66.445312 -88.78125 77.664062 -83.390625 84.8125 -72.609375 C 88.550781 -66.890625 90.421875 -60.644531 90.421875 -53.875 Z M 55.609375 -49.015625 C 59.785156 -49.015625 61.875 -50.773438 61.875 -54.296875 C 61.875 -56.816406 60.910156 -58.847656 58.984375 -60.390625 C 57.066406 -61.929688 54.316406 -62.703125 50.734375 -62.703125 C 47.160156 -62.703125 43.613281 -61.242188 40.09375 -58.328125 C 36.570312 -55.410156 34.8125 -52.304688 34.8125 -49.015625 Z M 55.609375 -49.015625 "/></g></g></g><g fill="#ffffff" fill-opacity="1"><g transform="translate(486.050771, 166.7919)"><g><path d="M 6.59375 -113.359375 C 6.59375 -115.890625 6.675781 -117.785156 6.84375 -119.046875 C 7.007812 -120.316406 7.476562 -121.78125 8.25 -123.4375 C 9.789062 -126.40625 14.082031 -127.890625 21.125 -127.890625 C 27.832031 -127.890625 32.007812 -126.40625 33.65625 -123.4375 C 34.539062 -121.78125 35.066406 -120.289062 35.234375 -118.96875 C 35.398438 -117.65625 35.484375 -115.734375 35.484375 -113.203125 L 35.484375 -36.796875 C 35.484375 -32.835938 35.8125 -30.332031 36.46875 -29.28125 C 37.125 -28.238281 38.578125 -27.71875 40.828125 -27.71875 C 43.085938 -27.71875 44.601562 -27.632812 45.375 -27.46875 C 46.144531 -27.3125 47.082031 -26.847656 48.1875 -26.078125 C 50.382812 -24.640625 51.484375 -20.734375 51.484375 -14.359375 C 51.484375 -7.421875 50.382812 -3.1875 48.1875 -1.65625 C 45.320312 0.320312 38.5 0.65625 27.71875 -0.65625 C 19.25 -1.757812 13.75 -4.566406 11.21875 -9.078125 C 8.132812 -14.460938 6.59375 -23.039062 6.59375 -34.8125 Z M 6.59375 -113.359375 "/></g></g></g><g fill="#ffffff" fill-opacity="1"><g transform="translate(540.010173, 166.7919)"><g><path d="M 6.59375 23.59375 L 6.59375 -72.765625 C 6.59375 -75.296875 6.675781 -77.164062 6.84375 -78.375 C 7.007812 -79.59375 7.476562 -80.972656 8.25 -82.515625 C 9.789062 -85.484375 13.472656 -86.96875 19.296875 -86.96875 C 25.128906 -86.96875 29.0625 -86.222656 31.09375 -84.734375 C 33.132812 -83.253906 34.320312 -81.082031 34.65625 -78.21875 C 38.832031 -83.9375 45.40625 -86.796875 54.375 -86.796875 C 63.34375 -86.796875 71.835938 -82.5625 79.859375 -74.09375 C 87.890625 -65.625 91.90625 -55.773438 91.90625 -44.546875 C 91.90625 -33.328125 87.914062 -23.484375 79.9375 -15.015625 C 71.96875 -6.546875 63.472656 -2.3125 54.453125 -2.3125 C 45.429688 -2.3125 38.882812 -4.84375 34.8125 -9.90625 L 34.8125 23.4375 C 34.8125 25.96875 34.726562 27.835938 34.5625 29.046875 C 34.40625 30.253906 33.910156 31.65625 33.078125 33.25 C 32.253906 34.84375 30.851562 35.96875 28.875 36.625 C 26.894531 37.289062 24.195312 37.625 20.78125 37.625 C 17.375 37.625 14.65625 37.289062 12.625 36.625 C 10.59375 35.96875 9.160156 34.867188 8.328125 33.328125 C 7.503906 31.785156 7.007812 30.410156 6.84375 29.203125 C 6.675781 27.992188 6.59375 26.125 6.59375 23.59375 Z M 39.265625 -54.125 C 36.742188 -51.15625 35.484375 -47.910156 35.484375 -44.390625 C 35.484375 -40.867188 36.773438 -37.648438 39.359375 -34.734375 C 41.941406 -31.816406 45.238281 -30.359375 49.25 -30.359375 C 53.269531 -30.359375 56.679688 -31.785156 59.484375 -34.640625 C 62.296875 -37.503906 63.703125 -40.75 63.703125 -44.375 C 63.703125 -48.007812 62.378906 -51.285156 59.734375 -54.203125 C 57.097656 -57.117188 53.660156 -58.578125 49.421875 -58.578125 C 45.179688 -58.578125 41.796875 -57.09375 39.265625 -54.125 Z M 39.265625 -54.125 "/></g></g></g><g fill="#ffffff" fill-opacity="1"><g transform="translate(636.048015, 166.7919)"><g><path d="M 32.171875 -27.234375 C 34.046875 -25.359375 34.984375 -21.503906 34.984375 -15.671875 L 34.984375 -15.015625 C 34.984375 -12.378906 34.898438 -10.425781 34.734375 -9.15625 C 34.566406 -7.894531 33.988281 -6.382812 33 -4.625 C 31.351562 -1.425781 27.203125 0.171875 20.546875 0.171875 C 13.890625 0.171875 9.488281 -0.875 7.34375 -2.96875 C 5.195312 -5.0625 4.125 -9.019531 4.125 -14.84375 L 4.125 -15.515625 C 4.125 -18.046875 4.207031 -19.96875 4.375 -21.28125 C 4.539062 -22.601562 5.0625 -24.09375 5.9375 -25.75 C 7.59375 -29.039062 11.742188 -30.6875 18.390625 -30.6875 C 25.046875 -30.6875 29.640625 -29.535156 32.171875 -27.234375 Z M 32.171875 -27.234375 "/></g></g></g><g clip-path="url(#9583c54ef2)"><g clip-path="url(#ef09a68987)"><path fill="#ff715b" d="M 634.691406 133.441406 L 675.207031 133.441406 L 675.207031 173.960938 L 634.691406 173.960938 Z M 634.691406 133.441406 " fill-opacity="1" fill-rule="nonzero"/></g></g></svg>