<svg xmlns="http://www.w3.org/2000/svg" xmlns:xlink="http://www.w3.org/1999/xlink" width="500" zoomAndPan="magnify" viewBox="0 0 375 374.999991" height="500" preserveAspectRatio="xMidYMid meet" version="1.0"><defs><clipPath id="33727ed119"><path d="M 7.695312 65.007812 L 366.945312 65.007812 L 366.945312 310 L 7.695312 310 Z M 7.695312 65.007812 " clip-rule="nonzero"/></clipPath><clipPath id="3591287d8d"><path d="M 114 65.007812 L 131 65.007812 L 131 310 L 114 310 Z M 114 65.007812 " clip-rule="nonzero"/></clipPath><clipPath id="a687a2d723"><path d="M 7.695312 179 L 366.945312 179 L 366.945312 196 L 7.695312 196 Z M 7.695312 179 " clip-rule="nonzero"/></clipPath></defs><g clip-path="url(#33727ed119)"><path fill="#ff715b" d="M 367.148438 285.488281 C 367.148438 299.371094 356.53125 309.988281 342.648438 309.988281 L 32.339844 309.988281 C 18.457031 309.988281 7.84375 299.371094 7.84375 285.488281 L 7.84375 89.503906 C 7.84375 75.621094 18.457031 65.007812 32.339844 65.007812 L 342.648438 65.007812 C 356.53125 65.007812 367.148438 75.621094 367.148438 89.503906 Z M 367.148438 285.488281 " fill-opacity="1" fill-rule="nonzero"/></g><g clip-path="url(#3591287d8d)"><path fill="#ffffff" d="M 114 65.007812 L 130.332031 65.007812 L 130.332031 309.988281 L 114 309.988281 Z M 114 65.007812 " fill-opacity="1" fill-rule="nonzero"/></g><g clip-path="url(#a687a2d723)"><path fill="#ffffff" d="M 7.84375 179.332031 L 367.148438 179.332031 L 367.148438 195.664062 L 7.84375 195.664062 Z M 7.84375 179.332031 " fill-opacity="1" fill-rule="nonzero"/></g><path fill="#ffffff" d="M 220.160156 260.992188 L 301.820312 260.992188 L 301.820312 277.324219 L 220.160156 277.324219 Z M 220.160156 260.992188 " fill-opacity="1" fill-rule="nonzero"/><path fill="#ffffff" d="M 89.503906 195.664062 C 66.636719 195.664062 48.671875 177.699219 48.671875 154.832031 C 48.671875 131.96875 66.636719 114.003906 89.503906 114.003906 C 112.367188 114.003906 130.332031 131.96875 130.332031 154.832031 L 114 154.832031 C 114 140.949219 103.382812 130.335938 89.503906 130.335938 C 75.621094 130.335938 65.003906 140.949219 65.003906 154.832031 C 65.003906 168.714844 75.621094 179.332031 89.503906 179.332031 Z M 89.503906 195.664062 " fill-opacity="1" fill-rule="nonzero"/><path fill="#ffffff" d="M 154.832031 195.664062 L 154.832031 179.332031 C 168.710938 179.332031 179.328125 168.714844 179.328125 154.832031 C 179.328125 140.949219 168.710938 130.335938 154.832031 130.335938 C 140.949219 130.335938 130.332031 140.949219 130.332031 154.832031 L 114 154.832031 C 114 131.96875 131.964844 114.003906 154.832031 114.003906 C 177.695312 114.003906 195.660156 131.96875 195.660156 154.832031 C 195.660156 177.699219 177.695312 195.664062 154.832031 195.664062 Z M 154.832031 195.664062 " fill-opacity="1" fill-rule="nonzero"/><path fill="#ffffff" d="M 116.914062 193.75 L 127.539062 181.351562 L 184.582031 230.242188 L 173.953125 242.640625 Z M 116.914062 193.75 " fill-opacity="1" fill-rule="nonzero"/><path fill="#ffffff" d="M 59.761719 230.253906 L 116.785156 181.339844 L 127.417969 193.734375 L 70.398438 242.648438 Z M 59.761719 230.253906 " fill-opacity="1" fill-rule="nonzero"/><path fill="#ffffff" d="M 220.160156 228.328125 L 334.484375 228.328125 L 334.484375 244.660156 L 220.160156 244.660156 Z M 220.160156 228.328125 " fill-opacity="1" fill-rule="nonzero"/></svg>