<svg xmlns="http://www.w3.org/2000/svg" xmlns:xlink="http://www.w3.org/1999/xlink" width="500" zoomAndPan="magnify" viewBox="0 0 375 374.999991" height="500" preserveAspectRatio="xMidYMid meet" version="1.0"><defs><clipPath id="c4c1d41f9c"><path d="M 8 37.5 L 366.945312 37.5 L 366.945312 309.75 L 8 309.75 Z M 8 37.5 " clip-rule="nonzero"/></clipPath></defs><g clip-path="url(#c4c1d41f9c)"><path fill="#1e3f48" d="M 363.167969 211.21875 C 358.167969 212.464844 353.03125 212.554688 347.929688 212.847656 C 340.050781 213.300781 332.195312 213.890625 324.417969 215.332031 C 323.164062 215.566406 322.386719 216.085938 321.582031 217.0625 C 311.636719 229.09375 303.734375 242.5625 294.671875 255.21875 C 284.050781 270.050781 273.367188 284.820312 262.328125 299.335938 C 260.015625 302.375 258.441406 306.007812 254.910156 308.015625 C 252.917969 309.152344 250.992188 309.667969 248.5625 309.273438 C 220.132812 304.640625 191.839844 299.164062 163.242188 295.5625 C 146.828125 293.492188 130.707031 289.644531 114.382812 287.03125 C 101.636719 284.992188 88.746094 283.761719 76.171875 280.828125 C 65.1875 278.265625 54.4375 274.65625 43.417969 272.289062 C 34.417969 270.359375 25.804688 267.34375 17.0625 264.660156 C 15.261719 264.105469 13.90625 262.953125 13.804688 261.105469 C 13.460938 254.796875 10.460938 249.234375 8.996094 243.246094 C 7.707031 237.96875 7.90625 233.03125 12.035156 229.011719 C 19.207031 222.027344 24.722656 213.78125 30.296875 205.558594 C 31.613281 203.621094 33.035156 201.710938 34.664062 200.035156 C 47.707031 186.601562 57.632812 170.589844 70.414062 156.933594 C 73.082031 154.082031 74.945312 150.484375 77.230469 147.265625 C 78.453125 145.542969 78.59375 143.949219 77.632812 141.949219 C 75.65625 137.820312 74.160156 133.484375 72.96875 129.054688 C 71.839844 124.851562 73.019531 122.9375 77.207031 122.125 C 84.699219 120.671875 84.5625 120.65625 85.488281 112.332031 C 85.953125 108.160156 85.671875 103.796875 88.144531 99.96875 C 88.863281 98.847656 89.578125 97.984375 90.691406 97.300781 C 101.242188 90.796875 112.921875 87.71875 125.019531 85.847656 C 131.789062 84.796875 138.574219 84.144531 144.109375 84.476562 C 158.71875 84.359375 171.855469 85.386719 184.460938 90 C 185.761719 90.476562 186.210938 90.109375 186.574219 89.070312 C 187.824219 85.503906 190.488281 83.042969 193.101562 80.5 C 195.238281 78.417969 197.261719 76.207031 199.242188 73.96875 C 203.578125 69.078125 208.15625 64.589844 213.914062 61.230469 C 220.988281 57.097656 227.421875 51.96875 234.816406 48.230469 C 243.871094 43.65625 253.582031 42.042969 263.335938 40.308594 C 270.480469 39.035156 277.6875 38.160156 284.929688 37.898438 C 292.964844 37.605469 294.871094 38.917969 297.867188 45.664062 C 300.332031 51.210938 302.269531 56.992188 304.707031 62.550781 C 313.246094 82.011719 323.296875 100.695312 334.1875 118.925781 C 338.6875 126.46875 341.625 134.742188 345.714844 142.476562 C 348.808594 148.320312 351.875 154.164062 355.15625 159.90625 C 358.78125 166.253906 358.695312 166.039062 352.042969 169.535156 C 349.882812 170.667969 349.355469 171.167969 351.109375 173.128906 C 353.742188 176.066406 356.039062 179.300781 358.601562 182.304688 C 361.011719 185.128906 361.507812 188.363281 360.933594 191.839844 C 360.457031 194.71875 360.769531 197.238281 362.734375 199.613281 C 364.285156 201.492188 365.421875 203.734375 366.144531 206.097656 C 366.976562 208.816406 365.945312 210.527344 363.167969 211.21875 Z M 363.167969 211.21875 " fill-opacity="1" fill-rule="nonzero"/></g><path fill="#767fa7" d="M 360.207031 202.363281 C 362.847656 207.058594 364.210938 208 357.984375 208.71875 C 354.492188 209.125 350.972656 209.484375 347.464844 209.515625 C 329.359375 209.675781 312.078125 213.824219 294.976562 219.46875 C 281.316406 223.980469 267.878906 228.953125 254.941406 235.222656 C 250.023438 237.609375 244.871094 236.175781 239.160156 236.765625 C 226.0625 235.472656 212.3125 236.441406 198.589844 237.359375 C 186.167969 238.195312 173.863281 240.257812 161.523438 241.917969 C 151.78125 243.226562 142.300781 245.460938 132.78125 247.699219 C 127.441406 248.953125 126.824219 248.390625 125.285156 243.332031 C 123.113281 236.1875 120.394531 229.226562 116.796875 222.699219 C 110.855469 211.921875 107.921875 199.871094 102.359375 188.992188 C 93.613281 171.898438 87.996094 153.46875 79.375 136.335938 C 78.089844 133.78125 77.402344 130.9375 76.257812 128.304688 C 75.585938 126.757812 76.054688 126.144531 77.527344 125.886719 C 79.101562 125.609375 80.671875 125.324219 82.242188 125.042969 C 83.3125 124.855469 83.847656 125.074219 84.265625 126.335938 C 85.804688 130.96875 87.671875 135.496094 89.265625 140.113281 C 93.085938 151.199219 98.523438 161.554688 103.609375 172.066406 C 105.839844 176.679688 106.523438 181.789062 108.800781 186.414062 C 113.875 196.703125 118.675781 207.121094 122.5625 217.957031 C 124.574219 223.558594 125.804688 229.417969 128.34375 234.847656 C 130.019531 238.4375 130.910156 239.117188 135.105469 238.378906 C 139.714844 237.566406 144.300781 236.605469 148.890625 235.675781 C 170.234375 231.363281 191.648438 227.664062 213.539062 227.769531 C 223.234375 227.8125 232.574219 230.011719 241.902344 232.234375 C 245.335938 233.050781 248.417969 232.839844 251.347656 230.839844 C 263.847656 222.316406 277.578125 216.308594 291.789062 211.371094 C 303.6875 207.238281 315.875 204.195312 328.429688 202.890625 C 332.988281 202.414062 337.589844 202.359375 342.171875 202.117188 C 347.589844 201.832031 353.058594 202.773438 358.425781 201.484375 C 359.402344 201.253906 359.824219 201.679688 360.207031 202.363281 Z M 360.207031 202.363281 " fill-opacity="1" fill-rule="nonzero"/><path fill="#e48d7a" d="M 32.859375 236.777344 C 26.714844 235.210938 20.355469 234.480469 14 233.378906 C 36.539062 205.007812 58.839844 176.941406 81.101562 148.925781 C 83.640625 153.789062 85.496094 159.457031 87.78125 164.945312 C 88.128906 165.777344 87.8125 166.316406 87.382812 166.980469 C 72.71875 189.589844 57.296875 211.660156 41.300781 233.339844 C 39.042969 236.402344 36.941406 237.820312 32.859375 236.777344 Z M 273.867188 230.738281 C 267.429688 233.210938 261.007812 235.726562 254.550781 238.148438 C 250.757812 239.570312 246.820312 240.863281 242.757812 240.273438 C 240.320312 239.917969 239.347656 240.886719 238.308594 242.695312 C 232.699219 252.480469 224.253906 256.953125 212.996094 255.859375 C 207.816406 255.359375 203.257812 252.902344 198.546875 250.953125 C 195.132812 249.546875 192.492188 247.121094 190.976562 243.902344 C 189.957031 241.738281 188.6875 241.539062 186.773438 241.742188 C 173.964844 243.117188 161.292969 245.457031 148.5625 247.363281 C 142.378906 248.289062 136.574219 251.132812 130.132812 250.90625 C 124.644531 250.710938 123.710938 250.121094 122.203125 245.019531 C 120.664062 239.8125 118.625 234.785156 116.457031 229.816406 C 112.203125 220.078125 107.105469 210.742188 103.65625 200.609375 C 101.523438 194.339844 98.804688 188.175781 95.523438 182.378906 C 81.214844 201.035156 72.625 223.269531 56.6875 240.839844 C 63.859375 242.417969 70.628906 243.777344 77.328125 245.40625 C 89.289062 248.320312 101.011719 252.15625 113.097656 254.589844 C 126.265625 257.234375 139.621094 258.328125 152.9375 259.832031 C 167.417969 261.464844 181.96875 262.460938 196.375 264.800781 C 205.925781 266.347656 215.675781 266.539062 225.132812 268.738281 C 230.75 270.042969 236.390625 270.90625 242.148438 271.277344 C 243.726562 271.375 244.394531 270.949219 245.152344 269.746094 C 246.847656 267.039062 248.542969 264.304688 250.519531 261.800781 C 258.519531 251.675781 266.625 241.628906 274.691406 231.550781 C 275.421875 231.152344 275.996094 230.605469 276.375 229.746094 C 275.351562 229.726562 274.546875 230.0625 273.867188 230.738281 Z M 273.867188 230.738281 " fill-opacity="1" fill-rule="nonzero"/><path fill="#daa972" d="M 309.183594 220.648438 C 303.140625 229.679688 297.074219 238.714844 290.574219 247.417969 C 285.726562 253.910156 279.847656 259.628906 275.066406 266.160156 C 270.144531 272.882812 264.210938 278.777344 259.699219 285.816406 C 257.460938 289.3125 254.789062 292.53125 252.25 295.828125 C 251.46875 296.84375 250.484375 297.835938 249.011719 297.46875 C 247.535156 297.105469 247.25 295.8125 246.988281 294.511719 C 245.824219 288.78125 244.515625 283.074219 243.492188 277.316406 C 243.042969 274.796875 242.183594 273.542969 239.378906 273.875 C 237.390625 274.109375 235.261719 274.082031 233.316406 273.644531 C 221.972656 271.082031 210.402344 270.105469 198.933594 268.417969 C 179.632812 265.578125 160.230469 263.765625 140.855469 261.769531 C 122.570312 259.886719 104.695312 256.355469 87.152344 251.003906 C 77.015625 247.90625 66.640625 245.949219 56.125 243.855469 C 57.441406 252.832031 58.703125 261.515625 60 270.191406 C 60.25 271.859375 60.96875 272.925781 62.941406 273.320312 C 67.003906 274.128906 70.957031 275.484375 75.011719 276.351562 C 87.742188 279.078125 100.679688 280.515625 113.53125 282.496094 C 131.335938 285.242188 148.914062 289.398438 166.804688 291.5625 C 194.140625 294.875 221.167969 300.066406 248.277344 304.714844 C 252.789062 305.488281 255.023438 303.992188 257.175781 300.730469 C 260.933594 295.027344 264.757812 289.375 269.265625 284.207031 C 275.390625 277.195312 280.019531 269.105469 285.359375 261.523438 C 295.367188 247.308594 305.558594 233.21875 315.675781 219.078125 C 315.980469 218.648438 316.371094 218.25 316.082031 217.472656 C 313.257812 217.3125 311.003906 217.933594 309.183594 220.648438 Z M 232.519531 290.355469 C 231.535156 291.792969 231.871094 294.386719 229.332031 294.109375 C 225.898438 293.636719 222.648438 293.484375 219.625 292.824219 C 216.5 292.140625 214.414062 289.054688 212.257812 286.59375 C 212.050781 286.359375 212.105469 285.777344 212.21875 285.410156 C 212.695312 283.867188 217.933594 280.648438 219.589844 280.742188 C 222.339844 280.898438 225.015625 281.722656 227.816406 281.53125 C 230.386719 281.355469 231.082031 283.972656 232.738281 285.175781 C 235.058594 286.863281 233.710938 288.609375 232.519531 290.355469 Z M 44.1875 263.097656 C 44.753906 264.765625 45.0625 266.523438 45.550781 268.5 C 37.953125 267.152344 30.902344 265.140625 23.886719 262.542969 C 19.414062 260.890625 17.1875 259.003906 16.671875 254.199219 C 16.277344 250.5625 14.5625 247.070312 13.449219 243.511719 C 13.195312 242.699219 12.96875 241.875 12.777344 241.046875 C 11.492188 235.535156 11.832031 235.25 17.15625 236.375 C 23.078125 237.621094 29.035156 238.71875 34.992188 239.789062 C 36.167969 240 36.972656 240.308594 37.296875 241.5625 C 39.191406 248.867188 41.753906 255.960938 44.1875 263.097656 Z M 192.886719 241.140625 C 206.941406 240.378906 220.652344 239.527344 234.746094 240.015625 C 229.707031 250.050781 219.371094 254.136719 208.261719 250.425781 C 204.363281 249.125 200.214844 248.242188 196.808594 245.710938 C 195.363281 244.632812 194.058594 243.375 192.886719 241.140625 Z M 164.070312 155.410156 C 168.203125 166.3125 172.398438 177.191406 176.601562 188.148438 C 173.039062 189.597656 169.457031 188.710938 166.03125 189.316406 C 160.554688 190.285156 155.3125 191.957031 150.398438 194.554688 C 148.574219 195.515625 147.792969 195.246094 147.125 193.195312 C 143.996094 183.605469 140.625 174.089844 136.757812 164.769531 C 135.632812 162.058594 134.152344 159.492188 132.867188 156.925781 C 141.859375 154.050781 150.824219 152.648438 160.039062 152.703125 C 162.246094 152.714844 163.328125 153.460938 164.070312 155.410156 Z M 164.070312 155.410156 " fill-opacity="1" fill-rule="nonzero"/><path fill="#e5dad8" d="M 93.550781 113.300781 C 98.074219 126.03125 104.359375 138.035156 109 150.714844 C 112.117188 159.226562 115.460938 167.632812 120.097656 175.449219 C 122.722656 179.875 124.699219 184.550781 126.242188 189.4375 C 128.902344 197.84375 132.597656 205.898438 134.632812 214.519531 C 135.066406 216.34375 136.109375 218.023438 136.714844 219.40625 C 171.320312 203.386719 206.363281 200.683594 242.703125 213.21875 C 241.132812 208.125 239.164062 203.222656 236.695312 198.515625 C 229.527344 184.832031 222.570312 171.03125 215.136719 157.496094 C 207.5625 143.710938 203.191406 128.585938 196.539062 114.425781 C 194.042969 109.121094 190.859375 104.160156 188.625 98.777344 C 187.183594 95.304688 185 93.667969 181.597656 92.792969 C 161.875 87.726562 142.023438 86.96875 121.996094 90.691406 C 111.457031 92.648438 101.308594 95.660156 92 101.191406 C 90.136719 102.296875 89.738281 103.25 90.628906 105.234375 C 91.796875 107.835938 92.589844 110.605469 93.550781 113.300781 Z M 177.824219 191.828125 C 168.601562 192.082031 159.730469 193.890625 151.160156 197.40625 C 146.726562 199.226562 146.253906 198.683594 144.332031 194.207031 C 139.347656 182.585938 135.972656 170.335938 130.414062 158.9375 C 128.75 155.523438 129.472656 154.628906 133.25 153.847656 C 137.804688 152.90625 142.074219 150.84375 146.78125 150.425781 C 150.054688 150.132812 153.3125 149.660156 156.578125 149.269531 C 156.585938 149.382812 156.589844 149.496094 156.597656 149.613281 C 158.617188 149.613281 160.636719 149.628906 162.65625 149.609375 C 165.167969 149.582031 166.140625 151.289062 166.867188 153.292969 C 170.089844 162.167969 173.308594 171.042969 176.542969 179.914062 C 177.632812 182.902344 178.699219 185.902344 179.917969 188.835938 C 180.855469 191.097656 179.851562 191.773438 177.824219 191.828125 Z M 223.929688 190.679688 C 223.574219 192.40625 221.988281 191.886719 221.027344 191.648438 C 216.890625 190.625 212.726562 190.027344 208.480469 189.558594 C 204.15625 189.085938 199.992188 189.609375 195.792969 190.148438 C 194.085938 190.371094 192.402344 190.378906 190.707031 190.429688 C 189.816406 190.457031 188.871094 190.28125 188.863281 189.179688 C 188.859375 188.332031 189.652344 187.988281 190.429688 187.863281 C 195.035156 187.125 199.640625 186.398438 203.597656 185.769531 C 210.207031 186.488281 216.144531 186.949219 221.839844 188.839844 C 222.785156 189.15625 224.25 189.128906 223.929688 190.679688 Z M 215.726562 178.199219 C 216.9375 178.609375 218.523438 178.929688 218.042969 180.601562 C 217.609375 182.101562 216 181.601562 214.972656 181.347656 C 209.265625 179.945312 203.398438 179.753906 197.710938 178.792969 C 193.917969 179.261719 190.222656 179.851562 186.488281 179.613281 C 185.652344 179.5625 184.328125 180.035156 184.273438 178.539062 C 184.222656 177.183594 185.609375 177.15625 186.378906 177.101562 C 192.488281 176.660156 198.535156 174.929688 204.742188 176.367188 C 208.355469 177.203125 212.160156 176.992188 215.726562 178.199219 Z M 209.355469 163.675781 C 209.351562 164.6875 208.597656 164.828125 207.808594 164.851562 C 207.066406 164.871094 206.316406 164.855469 204.839844 164.855469 C 198.605469 163.148438 191.828125 164.625 185.03125 165.96875 C 183.9375 166.183594 182.414062 166.433594 182.132812 164.835938 C 181.8125 163.039062 183.300781 162.925781 184.617188 162.742188 C 188.710938 162.179688 192.785156 161.441406 196.894531 161.023438 C 200.636719 160.644531 204.257812 161.992188 207.976562 162.210938 C 208.820312 162.261719 209.359375 162.796875 209.355469 163.675781 Z M 200.183594 149.449219 C 201.867188 149.515625 203.570312 149.96875 204.933594 151.109375 C 205.5 151.585938 206.011719 152.199219 205.542969 153.039062 C 205.1875 153.683594 204.570312 153.960938 203.914062 153.742188 C 195.492188 150.972656 186.785156 152.296875 178.195312 151.9375 C 177.875 151.925781 177.554688 151.941406 177.234375 151.917969 C 176.332031 151.863281 175.445312 151.617188 175.332031 150.589844 C 175.195312 149.339844 176.246094 148.859375 177.171875 148.820312 C 180.046875 148.707031 182.933594 148.78125 184.894531 148.78125 C 190.640625 148.238281 195.386719 149.25 200.183594 149.449219 Z M 192.472656 134.402344 C 193.664062 134.742188 194.855469 135.238281 194.429688 136.769531 C 194.042969 138.152344 192.730469 137.972656 191.734375 137.726562 C 182.175781 135.351562 172.421875 135.511719 162.769531 136.152344 C 150.171875 136.988281 137.433594 136.980469 125.125 140.421875 C 122.675781 141.109375 120.332031 142.164062 117.890625 142.875 C 117.046875 143.121094 115.722656 143.371094 115.316406 142.273438 C 114.839844 140.992188 116.28125 140.878906 117.015625 140.488281 C 123.5 137.058594 130.503906 135.328125 137.75 134.710938 C 148.882812 133.757812 159.988281 132.285156 172.371094 132.664062 C 177.707031 132.566406 184.210938 132.574219 190.621094 133.941406 C 191.242188 134.078125 191.863281 134.226562 192.472656 134.402344 Z M 189.199219 119.074219 C 188.792969 121.101562 186.953125 120.367188 185.476562 120.101562 C 171.328125 117.578125 157.261719 118.964844 143.164062 120.78125 C 133.554688 122.023438 124.046875 123.621094 114.757812 126.410156 C 114.253906 126.5625 113.679688 126.820312 113.222656 126.699219 C 112.488281 126.503906 111.292969 126.65625 111.261719 125.539062 C 111.238281 124.691406 112.175781 124.605469 112.882812 124.328125 C 122.851562 120.417969 133.324219 118.789062 143.839844 117.234375 C 151.863281 116.046875 159.890625 115.183594 168.3125 115.320312 C 174.117188 114.941406 180.152344 115.613281 186.148438 116.667969 C 187.578125 116.917969 189.597656 117.078125 189.199219 119.074219 Z M 108.449219 107.613281 C 115.167969 103.316406 122.875 102.003906 130.503906 100.695312 C 136.148438 99.726562 141.882812 99.09375 147.652344 99.234375 C 159.207031 99.308594 170.511719 101.234375 181.746094 103.734375 C 183.152344 104.046875 184.921875 104.402344 184.601562 106.0625 C 184.214844 108.070312 182.429688 107.429688 180.921875 107.089844 C 169.0625 104.402344 157.097656 102.121094 144.894531 102.765625 C 132.875 103.402344 120.964844 105.035156 109.863281 110.234375 C 108.871094 110.699219 107.582031 111.652344 106.789062 110.195312 C 105.96875 108.699219 107.535156 108.199219 108.449219 107.613281 Z M 354.960938 187.773438 C 356.058594 187.980469 357.433594 187.804688 357.308594 189.648438 C 357.175781 191.589844 355.75 191.050781 354.707031 191.042969 C 350.222656 191.011719 345.75 190.996094 341.289062 191.632812 C 320.0625 194.671875 298.75 197.46875 278.996094 206.507812 C 271.03125 210.15625 262.371094 212.605469 255.769531 218.878906 C 254.742188 219.855469 253.402344 220.527344 252.605469 222.664062 C 284.972656 202.964844 319.867188 194.832031 357 193.8125 C 356.148438 198.765625 356.148438 198.820312 351.101562 198.59375 C 324.699219 197.421875 299.773438 203.203125 275.683594 213.800781 C 267.242188 217.515625 259.03125 221.503906 251.652344 226.925781 C 247.039062 230.316406 242.488281 229.363281 238.089844 227.867188 C 221.179688 222.109375 204.050781 223.53125 186.800781 225.355469 C 169.269531 227.210938 152.195312 231.320312 135.054688 235.152344 C 134.664062 235.238281 134.238281 235.160156 133.773438 235.160156 C 133.859375 232.582031 135.03125 231.371094 137.441406 230.367188 C 149.972656 225.15625 162.839844 221.234375 176.3125 219.53125 C 187.632812 218.097656 198.996094 216.351562 210.421875 217.515625 C 218.859375 218.378906 227.101562 220.625 235.328125 222.757812 C 238.449219 223.5625 241.566406 224.960938 245.054688 223.816406 C 233.585938 219.148438 221.746094 215.964844 209.363281 214.707031 C 196.824219 213.4375 184.460938 215.285156 172.128906 216.894531 C 159.636719 218.527344 147.804688 222.703125 136.273438 228.332031 C 136.019531 225.867188 137.324219 224.5 139.003906 223.285156 C 145.183594 218.8125 152.441406 217.082031 159.566406 214.847656 C 175.394531 209.882812 191.5625 208.515625 207.960938 209.894531 C 220.070312 210.914062 232.191406 212.265625 243.101562 218.4375 C 244.839844 219.421875 246.660156 219.449219 248.648438 218.835938 C 253.789062 217.242188 258.261719 214.351562 262.960938 211.882812 C 282.53125 201.589844 302.734375 192.941406 324.738281 189.402344 C 333.785156 187.945312 342.925781 187.042969 352.128906 187.351562 C 353.078125 187.386719 354.023438 187.597656 354.960938 187.773438 Z M 251.132812 272.121094 C 250.734375 272.730469 249.707031 273.53125 250.882812 274.261719 C 251.839844 274.855469 252.539062 273.980469 252.984375 273.3125 C 256.398438 268.238281 260.792969 264 264.710938 259.355469 C 272.265625 250.386719 279.96875 241.535156 286.429688 231.6875 C 288.171875 229.035156 290.992188 227.21875 292.746094 224.476562 C 293.425781 223.414062 294.835938 223.210938 296.765625 223.160156 C 293.292969 227.960938 290.585938 232.542969 287.175781 236.664062 C 276.640625 249.394531 265.53125 261.648438 255.511719 274.804688 C 254.414062 276.242188 253.460938 277.792969 252.488281 279.316406 C 252.0625 279.980469 251.84375 280.886719 252.546875 281.351562 C 253.257812 281.820312 253.972656 281.179688 254.457031 280.601562 C 256.179688 278.5625 258.042969 276.613281 259.53125 274.410156 C 263.730469 268.207031 268.839844 262.734375 273.445312 256.863281 C 279.226562 249.492188 285.621094 242.605469 291.582031 235.371094 C 294.902344 231.339844 297.960938 227.085938 300.984375 222.824219 C 302.355469 220.890625 304.113281 220.160156 306.140625 220 C 289.226562 245.429688 267.984375 267.523438 250.171875 293.027344 C 248.875 286.957031 247.738281 281.582031 246.570312 276.214844 C 246.214844 274.589844 246.925781 273.386719 247.78125 272.09375 C 253.441406 263.527344 260.058594 255.691406 266.523438 247.757812 C 271.507812 241.640625 275.617188 234.863281 281.117188 229.117188 C 283.09375 227.054688 285.28125 226.488281 287.878906 225.632812 C 278.375 238.40625 268.710938 250.667969 258.289062 262.3125 C 255.570312 265.351562 253.367188 268.746094 251.132812 272.121094 Z M 88.695312 114.40625 C 88.148438 112.5625 88.757812 110.6875 89.28125 108.84375 C 92.988281 122.300781 99.625 134.519531 104.265625 147.5 C 108.425781 159.132812 113.460938 170.324219 119.171875 181.320312 C 124.089844 190.800781 127.328125 201.15625 130.222656 211.5 C 131.175781 214.910156 132.351562 218.160156 133.96875 221.296875 C 134.488281 222.300781 135.507812 223.425781 134.03125 225.132812 C 131.296875 217.863281 127.109375 211.59375 124.664062 204.492188 C 122.867188 199.277344 120.863281 194.121094 118.21875 189.300781 C 113.046875 179.878906 109.242188 169.894531 105.621094 159.835938 C 103.039062 152.65625 99.753906 145.785156 96.796875 138.773438 C 93.453125 130.847656 91.128906 122.613281 88.695312 114.40625 Z M 88.390625 128.542969 C 87.46875 125.457031 87.148438 122.546875 87.910156 119.265625 C 88.519531 121.253906 89.207031 123.21875 89.71875 125.230469 C 91.515625 132.25 94.136719 138.988281 97.386719 145.414062 C 102.472656 155.480469 105.75 166.238281 109.734375 176.714844 C 112.398438 183.707031 116.46875 189.949219 119.324219 196.816406 C 119.964844 198.363281 120.617188 199.941406 121.082031 201.515625 C 123.59375 210.039062 128.398438 217.535156 131.765625 225.671875 C 132.839844 228.273438 133.03125 230.488281 131.257812 232.996094 C 128.539062 227.019531 127.003906 220.746094 124.742188 214.75 C 120.789062 204.277344 115.449219 194.472656 111.078125 184.21875 C 108.046875 177.101562 105.441406 169.8125 102.066406 162.828125 C 96.703125 151.730469 91.929688 140.394531 88.390625 128.542969 Z M 356.285156 184.578125 C 350.605469 184.097656 345.488281 184.148438 340.339844 184.457031 C 322.429688 185.535156 305.265625 189.464844 288.691406 196.410156 C 278.667969 200.613281 268.625 204.699219 259.304688 210.351562 C 258.753906 211.023438 258.042969 211.417969 257.195312 211.59375 C 256.949219 210.582031 257.679688 210.457031 258.324219 210.253906 C 261.410156 207.261719 264.832031 204.714844 268.664062 202.785156 C 279.515625 197.320312 290.261719 191.625 301.304688 186.582031 C 311.179688 182.070312 321.847656 179.671875 332.167969 176.347656 C 336.21875 175.042969 340.300781 173.828125 344.3125 172.421875 C 345.765625 171.910156 346.351562 172.160156 347.304688 173.464844 C 349.992188 177.148438 353.019531 180.589844 356.285156 184.578125 Z M 351.566406 161.605469 C 348.085938 156.222656 345.289062 150.46875 342.199219 144.875 C 337.707031 136.746094 334.328125 128.097656 329.644531 120.046875 C 317.429688 99.03125 305.269531 77.964844 296.886719 55 C 295.429688 51.007812 294.199219 46.898438 291.949219 43.226562 C 291.183594 41.980469 290.519531 41.324219 288.695312 41.585938 C 282.582031 42.46875 276.363281 42.675781 270.269531 43.671875 C 260.089844 45.335938 249.789062 46.449219 240.144531 50.648438 C 232.050781 54.171875 224.878906 59.113281 217.664062 64.058594 C 214.328125 66.34375 210.636719 68.082031 207.734375 71.023438 C 202.714844 76.113281 198.09375 81.570312 192.703125 86.332031 C 188.425781 90.105469 188.371094 92.132812 190.824219 97.144531 C 191.339844 98.195312 191.917969 99.21875 192.542969 100.207031 C 197.941406 108.6875 202.527344 117.652344 205.78125 127.101562 C 211.832031 144.652344 221.277344 160.535156 229.59375 176.941406 C 235.886719 189.363281 243.164062 201.269531 247.445312 214.816406 C 247.941406 214.539062 248.335938 214.390625 248.644531 214.136719 C 252.761719 210.746094 256.789062 207.242188 260.992188 203.960938 C 267.515625 198.867188 275.296875 196.011719 282.574219 192.28125 C 290.621094 188.15625 298.234375 183.035156 306.921875 180.324219 C 315.65625 177.597656 324.246094 174.429688 333.125 172.125 C 338.773438 170.65625 344.273438 168.589844 349.796875 166.664062 C 353.679688 165.3125 353.753906 164.992188 351.566406 161.605469 Z M 204.910156 94.984375 C 204.308594 94.136719 205.152344 93.390625 205.792969 92.832031 C 215.574219 84.28125 224.554688 74.519531 236.671875 69.230469 C 247.851562 64.351562 259.492188 60.546875 271.40625 57.757812 C 273.125 57.355469 275.019531 57.703125 276.832031 57.703125 C 276.832031 57.621094 276.832031 57.539062 276.832031 57.457031 C 278.222656 57.457031 279.617188 57.371094 280.996094 57.484375 C 282.066406 57.566406 283.632812 57.203125 283.640625 58.988281 C 283.652344 60.71875 282.042969 60.449219 281.003906 60.621094 C 279.753906 60.832031 278.449219 60.816406 277.171875 60.769531 C 271.96875 60.566406 267.046875 61.820312 262.1875 63.496094 C 255.957031 65.644531 249.707031 67.730469 243.460938 69.828125 C 234.722656 72.765625 227.238281 77.773438 220.503906 83.941406 C 216.324219 87.765625 211.832031 91.1875 207.347656 94.632812 C 206.628906 95.183594 205.730469 96.132812 204.910156 94.984375 Z M 213.574219 112.675781 C 212.878906 112.957031 211.773438 113.222656 211.316406 112.226562 C 210.886719 111.28125 211.871094 111.039062 212.457031 110.621094 C 215.078125 108.761719 217.292969 106.46875 219.59375 104.238281 C 229.996094 94.164062 241.953125 86.5625 255.777344 82.058594 C 259.320312 80.902344 262.851562 79.769531 266.222656 78.144531 C 273.261719 74.753906 281.800781 72.867188 290.945312 72.574219 C 291.695312 72.613281 292.90625 72.621094 293.167969 73.941406 C 293.492188 75.558594 292.125 75.957031 291 76.125 C 287.847656 76.59375 284.675781 76.988281 281.5 77.242188 C 273.523438 77.875 267.019531 82.691406 259.582031 84.855469 C 244.234375 89.320312 230.9375 97.261719 219.605469 108.539062 C 217.867188 110.269531 215.867188 111.75 213.574219 112.675781 Z M 225.324219 129.402344 C 224.585938 130.511719 223.550781 132.117188 222.054688 131.054688 C 220.308594 129.808594 221.835938 128.539062 222.640625 127.285156 C 231.359375 113.671875 245.019531 106.285156 258.605469 98.898438 C 269.078125 93.207031 280.246094 89.128906 291.800781 86.195312 C 294.558594 85.496094 297.453125 85.308594 299.917969 84.507812 C 301.0625 84.578125 302.007812 84.449219 302.214844 85.628906 C 302.382812 86.601562 301.945312 87.304688 301.097656 87.710938 C 300.425781 88.027344 299.710938 88.410156 299 88.453125 C 292.746094 88.804688 287.128906 91.597656 281.175781 93.082031 C 273.492188 95.003906 266.640625 99.078125 259.558594 102.460938 C 246.167969 108.855469 233.792969 116.671875 225.324219 129.402344 Z M 230.0625 146.308594 C 228.878906 145.332031 230.859375 143.789062 231.605469 142.589844 C 236.949219 134.023438 245.089844 128.347656 253.085938 122.738281 C 259.777344 118.046875 267.074219 114.152344 274.332031 110.335938 C 283.542969 105.492188 293.863281 104.703125 303.910156 103.039062 C 305.210938 102.785156 306.78125 102.414062 307.039062 104.167969 C 307.296875 105.960938 305.695312 106.242188 304.257812 106.484375 C 294.824219 108.085938 284.976562 108.734375 276.566406 113.5625 C 265.878906 119.699219 254.617188 125.007812 245.375 133.5 C 241.683594 136.894531 237.628906 139.882812 234.652344 143.996094 C 234.527344 144.167969 234.382812 144.328125 234.230469 144.476562 C 233.023438 145.636719 231.316406 147.34375 230.0625 146.308594 Z M 235.027344 163.464844 C 234.324219 163.359375 233.808594 163.015625 233.625 162.34375 C 233.449219 161.695312 233.601562 161.203125 234.300781 160.78125 C 248.257812 152.347656 260.863281 141.878906 275.105469 133.855469 C 281.914062 130.015625 289.1875 127.277344 296.410156 124.445312 C 300.984375 122.648438 306.085938 123.296875 310.894531 122.433594 C 312.566406 122.132812 314.253906 121.925781 315.847656 121.6875 C 317.066406 121.785156 318.585938 121.421875 318.730469 123.054688 C 318.863281 124.5 317.597656 124.917969 316.359375 125.109375 C 312.789062 125.660156 309.234375 126.519531 305.644531 126.722656 C 295.5 127.292969 286.8125 132.042969 278.285156 136.671875 C 268.195312 142.152344 258.378906 148.222656 249.332031 155.4375 C 245.9375 158.148438 242.023438 160.214844 238.339844 162.566406 C 237.335938 163.207031 236.273438 163.65625 235.027344 163.464844 Z M 244.820312 177.527344 C 244.117188 178.007812 243.4375 178.523438 242.75 179.027344 C 242.199219 179.433594 241.636719 179.703125 241.058594 179.097656 C 240.511719 178.527344 240.628906 177.960938 241.128906 177.417969 C 241.847656 176.632812 242.53125 175.808594 243.289062 175.0625 C 254.726562 163.832031 268.023438 155.683594 283.195312 150.441406 C 292.328125 147.285156 300.925781 142.714844 310.246094 139.980469 C 313.929688 138.898438 317.535156 137.640625 321.4375 137.695312 C 322.609375 137.75 323.785156 137.796875 324.957031 137.863281 C 325.949219 137.917969 326.585938 138.460938 326.636719 139.441406 C 326.691406 140.46875 326.042969 140.9375 325.050781 141.046875 C 302.484375 143.59375 283.007812 154.609375 262.945312 163.917969 C 256.039062 167.121094 251.074219 173.257812 244.820312 177.527344 Z M 336.152344 150.660156 C 335.839844 152.234375 334.363281 152.257812 333.363281 152.296875 C 326.125 152.582031 319.488281 155.367188 312.609375 157.113281 C 310.234375 157.714844 307.816406 158.304688 305.742188 159.632812 C 293.46875 167.480469 279.632812 172.105469 266.695312 178.589844 C 261.125 181.382812 255.671875 184.183594 251.464844 188.914062 C 251.113281 189.308594 250.6875 189.652344 250.25 189.953125 C 249.507812 190.460938 248.613281 190.808594 247.957031 189.992188 C 247.382812 189.269531 247.589844 188.515625 248.292969 187.746094 C 251.988281 183.722656 255.824219 179.960938 260.816406 177.457031 C 270.8125 172.441406 281.125 168.148438 291.320312 163.585938 C 292.875 162.890625 294.542969 162.339844 295.925781 161.386719 C 306.765625 153.914062 319.300781 151.601562 331.894531 149.460938 C 332.933594 149.285156 334.023438 149.347656 335.085938 149.382812 C 335.839844 149.40625 336.230469 149.871094 336.152344 150.660156 Z M 336.152344 150.660156 " fill-opacity="1" fill-rule="nonzero"/></svg>